<svg id="圖層_1" data-name="圖層 1" xmlns="http://www.w3.org/2000/svg" viewBox="0 0 148.44 301.65"><defs><style>.cls-1,.cls-3{fill:#f8f1e3;}.cls-1,.cls-10,.cls-2,.cls-3,.cls-4,.cls-5,.cls-7,.cls-8,.cls-9{stroke:#231815;}.cls-1,.cls-10,.cls-2,.cls-4,.cls-5,.cls-7,.cls-9{stroke-linecap:round;}.cls-1,.cls-10,.cls-4,.cls-5,.cls-7,.cls-9{stroke-linejoin:round;}.cls-1,.cls-10,.cls-3,.cls-4,.cls-5,.cls-8,.cls-9{stroke-width:0.3px;}.cls-10,.cls-2,.cls-7{fill:none;}.cls-2,.cls-3,.cls-8{stroke-miterlimit:10;}.cls-2{stroke-width:0.3px;}.cls-4{fill:#cdc1d1;}.cls-5,.cls-8{fill:#252641;}.cls-6{fill:#231815;}.cls-7{stroke-width:0.15px;}.cls-9{fill:#fff;}.cls-11{fill:#595757;}</style></defs><path class="cls-1" d="M95.94,98.5c-1.43.07-13.64,5.58-39.89-.8L57.56,94c26.25,6.38,35.63.88,37.06.81Z"/><path class="cls-2" d="M95.08,97.94l-.82.24"/><line class="cls-2" x1="93.43" y1="98.4" x2="92.6" y2="98.61"/><line class="cls-2" x1="91.76" y1="98.81" x2="90.92" y2="98.99"/><line class="cls-2" x1="90.08" y1="99.15" x2="89.24" y2="99.3"/><line class="cls-2" x1="88.39" y1="99.43" x2="87.54" y2="99.55"/><line class="cls-2" x1="86.69" y1="99.65" x2="85.84" y2="99.75"/><line class="cls-2" x1="84.99" y1="99.83" x2="84.13" y2="99.9"/><line class="cls-2" x1="83.28" y1="99.95" x2="82.42" y2="100"/><line class="cls-2" x1="81.56" y1="100.03" x2="80.71" y2="100.05"/><line class="cls-2" x1="79.85" y1="100.06" x2="78.99" y2="100.06"/><line class="cls-2" x1="78.13" y1="100.05" x2="77.28" y2="100.03"/><line class="cls-2" x1="76.42" y1="100" x2="75.56" y2="99.95"/><line class="cls-2" x1="74.71" y1="99.9" x2="73.85" y2="99.84"/><line class="cls-2" x1="73" y1="99.77" x2="72.14" y2="99.69"/><line class="cls-2" x1="71.29" y1="99.61" x2="70.44" y2="99.51"/><line class="cls-2" x1="69.59" y1="99.41" x2="68.74" y2="99.3"/><line class="cls-2" x1="67.89" y1="99.18" x2="67.04" y2="99.06"/><line class="cls-2" x1="66.19" y1="98.93" x2="65.35" y2="98.8"/><line class="cls-2" x1="64.5" y1="98.65" x2="63.66" y2="98.51"/><line class="cls-2" x1="62.81" y1="98.35" x2="61.97" y2="98.19"/><line class="cls-2" x1="61.13" y1="98.03" x2="60.29" y2="97.86"/><line class="cls-2" x1="59.45" y1="97.68" x2="58.61" y2="97.5"/><line class="cls-2" x1="57.77" y1="97.31" x2="56.94" y2="97.12"/><line class="cls-2" x1="57.88" y1="94.77" x2="58.72" y2="94.96"/><line class="cls-2" x1="59.55" y1="95.15" x2="60.39" y2="95.34"/><line class="cls-2" x1="61.23" y1="95.51" x2="62.07" y2="95.69"/><line class="cls-2" x1="62.91" y1="95.86" x2="63.76" y2="96.02"/><line class="cls-2" x1="64.6" y1="96.18" x2="65.44" y2="96.34"/><line class="cls-2" x1="66.29" y1="96.48" x2="67.14" y2="96.62"/><line class="cls-2" x1="67.98" y1="96.76" x2="68.83" y2="96.89"/><line class="cls-2" x1="69.68" y1="97.01" x2="70.53" y2="97.12"/><line class="cls-2" x1="71.39" y1="97.23" x2="72.24" y2="97.33"/><line class="cls-2" x1="73.09" y1="97.42" x2="73.95" y2="97.51"/><line class="cls-2" x1="74.8" y1="97.58" x2="75.66" y2="97.65"/><line class="cls-2" x1="76.51" y1="97.7" x2="77.37" y2="97.75"/><line class="cls-2" x1="78.23" y1="97.78" x2="79.09" y2="97.8"/><line class="cls-2" x1="79.95" y1="97.81" x2="80.8" y2="97.8"/><line class="cls-2" x1="81.66" y1="97.79" x2="82.52" y2="97.76"/><line class="cls-2" x1="83.38" y1="97.72" x2="84.23" y2="97.66"/><line class="cls-2" x1="85.09" y1="97.59" x2="85.94" y2="97.5"/><line class="cls-2" x1="86.8" y1="97.4" x2="87.64" y2="97.28"/><line class="cls-2" x1="88.49" y1="97.14" x2="89.34" y2="96.98"/><line class="cls-2" x1="90.18" y1="96.81" x2="91.01" y2="96.61"/><line class="cls-2" x1="91.84" y1="96.39" x2="92.67" y2="96.15"/><line class="cls-2" x1="93.48" y1="95.89" x2="94.3" y2="95.62"/><path class="cls-3" d="M68.05,100.16a119.22,119.22,0,0,1-12-2.28c-6.7,13.13-13.29,22.54-1.2,98.47,0,0-.09,1-.2,2.94a41.56,41.56,0,0,0,5.28,2.06c-.08-6.26-1.1-22.65-8.79-43.77C43.37,138.17,62.54,108.17,68.05,100.16Z"/><path class="cls-3" d="M96.31,197.57c12.67-75.58,5.76-85.46-.37-98.89A60.19,60.19,0,0,1,84,100.8c6,8.86,24.06,37.85,16.48,56.78-7.71,21.17-8.72,37.59-8.79,43.82a43.08,43.08,0,0,0,5-1.9C96.47,198.24,96.31,197.57,96.31,197.57Z"/><path class="cls-4" d="M84,100.8a79.19,79.19,0,0,1-16-.64c-5.51,8-24.68,38-16.91,57.42,7.69,21.12,8.71,37.51,8.79,43.77a48.6,48.6,0,0,0,10.95,2.15c1.43-35.4,4.43-63.77,4.47-71.09,0,7.36,4,35.43,5.42,71.1a49,49,0,0,0,10.94-2.11c.07-6.23,1.08-22.65,8.79-43.82C108.08,138.65,90,109.66,84,100.8Z"/><path class="cls-5" d="M69.53,233.51c1.4-10.63,2.93-13.66,1.26-27.83,0-.73,0-1.45.09-2.18a47.51,47.51,0,0,1-16.23-4.21c-.47,8-3.46,31.39,3.48,60.32a92.94,92.94,0,0,1,1.36,12c1.33-1.54,2.67-2.75,4.67-2.75a7.63,7.63,0,0,1,5,2.08c0-.05,0-.08,0-.11C69.11,269.92,66.61,248.62,69.53,233.51Z"/><path class="cls-2" d="M68.61,269.59a7.89,7.89,0,0,0-.74-.43"/><path class="cls-2" d="M67.08,268.81a7.75,7.75,0,0,0-.81-.28"/><path class="cls-2" d="M65.43,268.32a7.9,7.9,0,0,0-.85-.11"/><path class="cls-2" d="M63.72,268.2a4.79,4.79,0,0,0-.84.16"/><path class="cls-2" d="M62.07,268.66a6.79,6.79,0,0,0-.75.41"/><path class="cls-2" d="M60.62,269.57c-.23.17-.45.36-.67.55"/><line class="cls-2" x1="55.13" y1="200.27" x2="55.9" y2="200.58"/><line class="cls-2" x1="56.67" y1="200.88" x2="57.45" y2="201.16"/><line class="cls-2" x1="58.23" y1="201.44" x2="59.02" y2="201.7"/><line class="cls-2" x1="59.81" y1="201.95" x2="60.61" y2="202.19"/><line class="cls-2" x1="61.4" y1="202.42" x2="62.2" y2="202.64"/><line class="cls-2" x1="63.01" y1="202.84" x2="63.81" y2="203.04"/><line class="cls-2" x1="64.62" y1="203.23" x2="65.43" y2="203.4"/><line class="cls-2" x1="66.24" y1="203.56" x2="67.06" y2="203.71"/><path class="cls-2" d="M67.88,203.84l.82.13"/><line class="cls-2" x1="69.52" y1="204.08" x2="70.34" y2="204.17"/><path class="cls-5" d="M92.17,270.59c1-5.34.68-9.79,1.9-14.75,6.83-27.71,3.8-49.86,2.63-56.34a47.94,47.94,0,0,1-15.93,4l.06,1.54c-3.15,26.68,6.23,27.72,1.34,65.51a7.82,7.82,0,0,1,5.32-2.35A6.56,6.56,0,0,1,92.17,270.59Z"/><path class="cls-5" d="M70.31,283c-5.49-1.69-10.62-7.81-10.62-7.81l-.28-4s4.28,6.3,11,8.65A4.77,4.77,0,0,0,70.31,283Z"/><path class="cls-2" d="M69.67,282.13a7,7,0,0,1-.74-.34"/><path class="cls-2" d="M68.21,281.41c-.23-.14-.47-.27-.7-.42"/><line class="cls-2" x1="66.82" y1="280.55" x2="66.15" y2="280.09"/><path class="cls-2" d="M65.49,279.61l-.65-.49"/><line class="cls-2" x1="64.2" y1="278.61" x2="63.58" y2="278.09"/><line class="cls-2" x1="62.96" y1="277.55" x2="62.35" y2="277.01"/><line class="cls-2" x1="61.75" y1="276.45" x2="61.17" y2="275.89"/><path class="cls-2" d="M60.59,275.31c-.18-.2-.37-.4-.54-.61"/><line class="cls-2" x1="59.97" y1="272.88" x2="60.54" y2="273.47"/><line class="cls-2" x1="61.11" y1="274.05" x2="61.7" y2="274.61"/><line class="cls-2" x1="62.3" y1="275.17" x2="62.91" y2="275.72"/><line class="cls-2" x1="63.52" y1="276.25" x2="64.15" y2="276.77"/><line class="cls-2" x1="64.79" y1="277.28" x2="65.44" y2="277.77"/><line class="cls-2" x1="66.11" y1="278.25" x2="66.79" y2="278.7"/><path class="cls-2" d="M67.48,279.13c.23.15.48.27.71.4"/><path class="cls-2" d="M68.92,279.9a6.12,6.12,0,0,0,.75.33"/><path class="cls-5" d="M60,282.67c5.49-1.68,9.8-8.05,9.8-8.05l-.49-3.8a17.58,17.58,0,0,1-9.48,8.42A18.69,18.69,0,0,1,60,282.67Z"/><line class="cls-2" x1="69.42" y1="274.47" x2="68.84" y2="275.15"/><line class="cls-2" x1="68.24" y1="275.81" x2="67.63" y2="276.46"/><line class="cls-2" x1="67" y1="277.09" x2="66.35" y2="277.71"/><line class="cls-2" x1="65.7" y1="278.32" x2="65.02" y2="278.9"/><path class="cls-2" d="M64.34,279.47c-.23.19-.47.37-.71.55"/><path class="cls-2" d="M62.9,280.53c-.24.17-.49.34-.75.49"/><path class="cls-2" d="M61.38,281.46a6,6,0,0,1-.81.39"/><path class="cls-2" d="M60.43,279.62a6.32,6.32,0,0,0,.81-.34"/><path class="cls-2" d="M62,278.88c.26-.13.5-.29.75-.44"/><path class="cls-2" d="M63.48,278c.25-.16.47-.34.71-.52"/><path class="cls-2" d="M64.87,276.9c.22-.18.44-.38.66-.57"/><line class="cls-2" x1="66.17" y1="275.74" x2="66.79" y2="275.13"/><line class="cls-2" x1="67.39" y1="274.5" x2="67.98" y2="273.86"/><path class="cls-2" d="M68.54,273.2c.19-.23.36-.46.54-.69"/><path class="cls-5" d="M81.16,282.55c5.5-1.68,10.63-7.8,10.63-7.8l.28-4s-4.28,6.3-11,8.65A4.67,4.67,0,0,1,81.16,282.55Z"/><path class="cls-2" d="M81.8,281.72c.26-.11.5-.21.74-.34"/><path class="cls-2" d="M83.26,281c.24-.13.48-.26.71-.41"/><line class="cls-2" x1="84.66" y1="280.14" x2="85.33" y2="279.68"/><path class="cls-2" d="M86,279.2c.22-.16.43-.33.64-.5"/><line class="cls-2" x1="87.27" y1="278.19" x2="87.9" y2="277.67"/><line class="cls-2" x1="88.52" y1="277.14" x2="89.13" y2="276.6"/><line class="cls-2" x1="89.73" y1="276.04" x2="90.31" y2="275.47"/><path class="cls-2" d="M90.88,274.89c.19-.2.38-.39.55-.6"/><line class="cls-2" x1="91.5" y1="272.46" x2="90.94" y2="273.06"/><line class="cls-2" x1="90.36" y1="273.63" x2="89.78" y2="274.2"/><line class="cls-2" x1="89.18" y1="274.76" x2="88.57" y2="275.3"/><line class="cls-2" x1="87.95" y1="275.84" x2="87.32" y2="276.36"/><line class="cls-2" x1="86.68" y1="276.87" x2="86.03" y2="277.36"/><line class="cls-2" x1="85.37" y1="277.84" x2="84.69" y2="278.29"/><path class="cls-2" d="M84,278.72c-.23.14-.47.27-.71.4"/><path class="cls-2" d="M82.55,279.49c-.24.12-.49.23-.74.33"/><path class="cls-5" d="M91.52,282.26c-5.5-1.68-9.8-8.06-9.8-8.06l.49-3.79a17.58,17.58,0,0,0,9.48,8.42A18.59,18.59,0,0,0,91.52,282.26Z"/><line class="cls-2" x1="82.06" y1="274.06" x2="82.64" y2="274.74"/><line class="cls-2" x1="83.24" y1="275.4" x2="83.85" y2="276.05"/><line class="cls-2" x1="84.48" y1="276.68" x2="85.12" y2="277.3"/><line class="cls-2" x1="85.78" y1="277.91" x2="86.45" y2="278.49"/><path class="cls-2" d="M87.14,279.06c.23.19.47.37.71.55"/><path class="cls-2" d="M88.58,280.12c.24.17.49.34.74.49"/><path class="cls-2" d="M90.1,281.05a7.4,7.4,0,0,0,.8.39"/><path class="cls-2" d="M91,279.21a8,8,0,0,1-.8-.34"/><path class="cls-2" d="M89.47,278.47c-.26-.13-.5-.29-.75-.44"/><path class="cls-2" d="M88,277.55c-.24-.16-.47-.35-.7-.52"/><path class="cls-2" d="M86.61,276.49c-.23-.18-.44-.38-.66-.57"/><line class="cls-2" x1="85.31" y1="275.33" x2="84.69" y2="274.72"/><line class="cls-2" x1="84.08" y1="274.09" x2="83.5" y2="273.44"/><path class="cls-2" d="M82.94,272.78c-.19-.22-.37-.45-.55-.68"/><path class="cls-2" d="M83,268.89a5.74,5.74,0,0,1,.73-.48"/><path class="cls-2" d="M84.5,268c.27-.11.54-.2.82-.29"/><path class="cls-2" d="M86.17,267.55q.43-.07.87-.12"/><path class="cls-2" d="M87.91,267.42a5,5,0,0,1,.86.15"/><path class="cls-2" d="M89.59,267.87a6.93,6.93,0,0,1,.76.41"/><path class="cls-2" d="M91.07,268.78c.23.18.45.37.67.56"/><line class="cls-2" x1="96.52" y1="200.4" x2="95.75" y2="200.71"/><line class="cls-2" x1="94.98" y1="201.01" x2="94.2" y2="201.3"/><line class="cls-2" x1="93.42" y1="201.57" x2="92.63" y2="201.83"/><line class="cls-2" x1="91.84" y1="202.08" x2="91.05" y2="202.32"/><line class="cls-2" x1="90.25" y1="202.55" x2="89.45" y2="202.77"/><line class="cls-2" x1="88.65" y1="202.98" x2="87.84" y2="203.18"/><line class="cls-2" x1="87.03" y1="203.36" x2="86.22" y2="203.53"/><line class="cls-2" x1="85.41" y1="203.69" x2="84.59" y2="203.85"/><path class="cls-2" d="M83.77,204c-.27.05-.54.09-.82.12"/><line class="cls-2" x1="82.13" y1="204.21" x2="81.31" y2="204.3"/><path class="cls-6" d="M74.53,100.05l.12,25a.13.13,0,0,1-.11.12h0a4.43,4.43,0,0,0-1.09.48c-.36.2-.72.43-1.07.66-.7.46-1.39.94-2.06,1.45-.3.23-.67.56-.64.85s.52.42.89.51a15.8,15.8,0,0,0,2.49.25c.84,0,1.68,0,2.53,0h1.26a4.17,4.17,0,0,1,1.3.11.44.44,0,0,1,.25.28.62.62,0,0,1,0,.36,2.33,2.33,0,0,1-.34.57,8.46,8.46,0,0,1-.86.93,23.4,23.4,0,0,1-2,1.62h0v0a21.59,21.59,0,0,0,1.89-1.68,9.29,9.29,0,0,0,.83-.94,2.26,2.26,0,0,0,.3-.52c.06-.19,0-.36-.14-.43a4.83,4.83,0,0,0-1.22-.07l-1.26,0c-.84,0-1.69,0-2.54,0a12.92,12.92,0,0,1-2.54-.24,2.46,2.46,0,0,1-.63-.21.76.76,0,0,1-.5-.55.9.9,0,0,1,.27-.68,3.44,3.44,0,0,1,.49-.45c.68-.51,1.37-1,2.08-1.46.36-.22.72-.45,1.1-.65a3.69,3.69,0,0,1,1.23-.5l-.14.13.12-25v0Z"/><polyline class="cls-7" points="75.12 116.19 74.99 115.84 74.87 116.19 74.74 115.84 74.62 116.19"/><line class="cls-7" x1="74.62" y1="116.18" x2="74.62" y2="115.84"/><polyline class="cls-7" points="75.62 116.19 75.49 115.84 75.37 116.19 75.24 115.84 75.12 116.19"/><polyline class="cls-7" points="76.12 116.19 75.99 115.84 75.87 116.19 75.74 115.84 75.62 116.19"/><line class="cls-7" x1="76.12" y1="116.18" x2="76.12" y2="115.84"/><line class="cls-2" x1="74.93" y1="116.45" x2="74.93" y2="117.27"/><line class="cls-2" x1="75.72" y1="116.45" x2="75.72" y2="117.26"/><line class="cls-2" x1="74.93" y1="118.08" x2="74.94" y2="118.9"/><line class="cls-2" x1="75.72" y1="118.08" x2="75.73" y2="118.89"/><line class="cls-2" x1="74.94" y1="119.71" x2="74.94" y2="120.52"/><line class="cls-2" x1="75.73" y1="119.71" x2="75.73" y2="120.52"/><line class="cls-2" x1="74.95" y1="121.34" x2="74.95" y2="122.15"/><line class="cls-2" x1="75.74" y1="121.34" x2="75.74" y2="122.15"/><line class="cls-2" x1="74.95" y1="122.97" x2="74.96" y2="123.78"/><line class="cls-2" x1="75.75" y1="122.97" x2="75.75" y2="123.78"/><line class="cls-2" x1="74.96" y1="124.6" x2="74.96" y2="125.41"/><line class="cls-2" x1="75.75" y1="124.6" x2="75.76" y2="125.41"/><line class="cls-2" x1="74.97" y1="126.23" x2="74.97" y2="127.04"/><line class="cls-2" x1="75.76" y1="126.23" x2="75.76" y2="127.04"/><line class="cls-2" x1="74.97" y1="127.86" x2="74.98" y2="128.67"/><line class="cls-2" x1="75.77" y1="127.86" x2="75.77" y2="128.67"/><line class="cls-2" x1="74.98" y1="129.49" x2="74.99" y2="130.3"/><line class="cls-2" x1="75.77" y1="129.49" x2="75.78" y2="130.3"/><line class="cls-2" x1="74.99" y1="131.12" x2="74.99" y2="131.93"/><line class="cls-2" x1="75.78" y1="131.12" x2="75.78" y2="131.93"/><polyline class="cls-7" points="75.16 120.31 75.04 119.97 74.91 120.31 74.79 119.97 74.66 120.31"/><line class="cls-7" x1="74.66" y1="120.31" x2="74.66" y2="119.97"/><polyline class="cls-7" points="75.66 120.31 75.54 119.97 75.41 120.31 75.29 119.97 75.16 120.31"/><polyline class="cls-7" points="76.16 120.31 76.03 119.97 75.91 120.31 75.78 119.97 75.66 120.31"/><line class="cls-7" x1="76.16" y1="120.31" x2="76.16" y2="119.97"/><line class="cls-2" x1="68.62" y1="100.61" x2="68.13" y2="101.3"/><line class="cls-2" x1="67.64" y1="101.99" x2="67.16" y2="102.69"/><line class="cls-2" x1="66.69" y1="103.4" x2="66.22" y2="104.11"/><line class="cls-2" x1="65.75" y1="104.82" x2="65.29" y2="105.53"/><line class="cls-2" x1="64.84" y1="106.25" x2="64.39" y2="106.97"/><line class="cls-2" x1="63.94" y1="107.69" x2="63.5" y2="108.41"/><line class="cls-2" x1="63.06" y1="109.14" x2="62.63" y2="109.87"/><line class="cls-2" x1="62.2" y1="110.61" x2="61.78" y2="111.34"/><line class="cls-2" x1="61.36" y1="112.08" x2="60.94" y2="112.82"/><line class="cls-2" x1="60.53" y1="113.57" x2="60.13" y2="114.31"/><line class="cls-2" x1="59.73" y1="115.06" x2="59.33" y2="115.81"/><line class="cls-2" x1="58.94" y1="116.57" x2="58.56" y2="117.32"/><line class="cls-2" x1="58.18" y1="118.08" x2="57.81" y2="118.85"/><line class="cls-2" x1="57.44" y1="119.61" x2="57.07" y2="120.38"/><line class="cls-2" x1="56.72" y1="121.15" x2="56.37" y2="121.92"/><line class="cls-2" x1="56.02" y1="122.7" x2="55.69" y2="123.48"/><line class="cls-2" x1="55.36" y1="124.26" x2="55.03" y2="125.04"/><line class="cls-2" x1="54.72" y1="125.84" x2="54.41" y2="126.63"/><line class="cls-2" x1="54.1" y1="127.42" x2="53.81" y2="128.22"/><line class="cls-2" x1="53.52" y1="129.01" x2="53.24" y2="129.81"/><line class="cls-2" x1="52.98" y1="130.62" x2="52.71" y2="131.43"/><line class="cls-2" x1="52.46" y1="132.24" x2="52.22" y2="133.05"/><path class="cls-2" d="M52,133.87c-.08.27-.16.54-.23.82"/><line class="cls-2" x1="51.56" y1="135.51" x2="51.35" y2="136.34"/><line class="cls-2" x1="51.16" y1="137.16" x2="50.99" y2="138"/><path class="cls-2" d="M50.82,138.83c-.06.27-.11.55-.15.83"/><line class="cls-2" x1="50.54" y1="140.5" x2="50.41" y2="141.34"/><line class="cls-2" x1="50.3" y1="142.18" x2="50.21" y2="143.03"/><path class="cls-2" d="M50.13,143.87c0,.28,0,.57-.06.85"/><line class="cls-2" x1="50.03" y1="145.57" x2="49.99" y2="146.42"/><line class="cls-2" x1="50" y1="147.27" x2="50.02" y2="148.11"/><line class="cls-2" x1="50.04" y1="148.96" x2="50.11" y2="149.81"/><path class="cls-2" d="M50.19,150.66a8,8,0,0,0,.09.84"/><line class="cls-2" x1="50.42" y1="152.34" x2="50.56" y2="153.17"/><line class="cls-2" x1="50.74" y1="154" x2="50.95" y2="154.83"/><line class="cls-2" x1="51.16" y1="155.65" x2="51.44" y2="156.45"/><line class="cls-2" x1="51.71" y1="157.25" x2="51.99" y2="158.06"/><line class="cls-2" x1="52.26" y1="158.86" x2="52.53" y2="159.67"/><line class="cls-2" x1="52.8" y1="160.47" x2="53.07" y2="161.28"/><line class="cls-2" x1="53.34" y1="162.08" x2="53.6" y2="162.89"/><line class="cls-2" x1="53.85" y1="163.7" x2="54.1" y2="164.51"/><line class="cls-2" x1="54.35" y1="165.33" x2="54.59" y2="166.14"/><path class="cls-2" d="M54.84,167c.08.27.17.54.24.81"/><line class="cls-2" x1="55.31" y1="168.58" x2="55.54" y2="169.4"/><line class="cls-2" x1="55.77" y1="170.22" x2="55.99" y2="171.04"/><line class="cls-2" x1="56.22" y1="171.85" x2="56.43" y2="172.68"/><line class="cls-2" x1="56.63" y1="173.5" x2="56.84" y2="174.32"/><line class="cls-2" x1="57.05" y1="175.15" x2="57.25" y2="175.97"/><line class="cls-2" x1="57.44" y1="176.8" x2="57.63" y2="177.63"/><line class="cls-2" x1="57.81" y1="178.46" x2="58" y2="179.29"/><line class="cls-2" x1="58.18" y1="180.12" x2="58.34" y2="180.95"/><line class="cls-2" x1="58.51" y1="181.78" x2="58.67" y2="182.62"/><line class="cls-2" x1="58.84" y1="183.45" x2="58.98" y2="184.28"/><line class="cls-2" x1="59.13" y1="185.12" x2="59.27" y2="185.96"/><line class="cls-2" x1="59.41" y1="186.8" x2="59.54" y2="187.63"/><line class="cls-2" x1="59.66" y1="188.48" x2="59.78" y2="189.32"/><line class="cls-2" x1="59.9" y1="190.16" x2="60" y2="191"/><line class="cls-2" x1="60.11" y1="191.84" x2="60.21" y2="192.69"/><line class="cls-2" x1="60.29" y1="193.53" x2="60.37" y2="194.38"/><line class="cls-2" x1="60.45" y1="195.22" x2="60.51" y2="196.07"/><line class="cls-2" x1="60.57" y1="196.92" x2="60.61" y2="197.76"/><line class="cls-2" x1="60.66" y1="198.61" x2="60.68" y2="199.46"/><line class="cls-2" x1="60.69" y1="200.31" x2="60.69" y2="201.16"/><line class="cls-2" x1="83.23" y1="101.01" x2="83.73" y2="101.71"/><line class="cls-2" x1="84.22" y1="102.41" x2="84.7" y2="103.12"/><line class="cls-2" x1="85.18" y1="103.83" x2="85.65" y2="104.54"/><line class="cls-2" x1="86.12" y1="105.26" x2="86.58" y2="105.98"/><line class="cls-2" x1="87.04" y1="106.71" x2="87.49" y2="107.43"/><line class="cls-2" x1="87.94" y1="108.17" x2="88.39" y2="108.9"/><line class="cls-2" x1="88.82" y1="109.63" x2="89.26" y2="110.37"/><line class="cls-2" x1="89.69" y1="111.11" x2="90.11" y2="111.86"/><line class="cls-2" x1="90.53" y1="112.61" x2="90.95" y2="113.36"/><line class="cls-2" x1="91.36" y1="114.11" x2="91.76" y2="114.86"/><line class="cls-2" x1="92.16" y1="115.62" x2="92.56" y2="116.38"/><line class="cls-2" x1="92.94" y1="117.15" x2="93.32" y2="117.92"/><line class="cls-2" x1="93.7" y1="118.68" x2="94.07" y2="119.46"/><line class="cls-2" x1="94.44" y1="120.23" x2="94.8" y2="121.01"/><line class="cls-2" x1="95.15" y1="121.79" x2="95.5" y2="122.57"/><line class="cls-2" x1="95.84" y1="123.36" x2="96.17" y2="124.15"/><line class="cls-2" x1="96.5" y1="124.94" x2="96.81" y2="125.74"/><line class="cls-2" x1="97.12" y1="126.54" x2="97.43" y2="127.34"/><line class="cls-2" x1="97.72" y1="128.15" x2="98.01" y2="128.95"/><line class="cls-2" x1="98.29" y1="129.76" x2="98.55" y2="130.58"/><path class="cls-2" d="M98.82,131.39c.08.28.18.55.25.82"/><line class="cls-2" x1="99.3" y1="133.04" x2="99.54" y2="133.86"/><line class="cls-2" x1="99.76" y1="134.69" x2="99.96" y2="135.52"/><path class="cls-2" d="M100.17,136.35q.1.42.18.84"/><line class="cls-2" x1="100.52" y1="138.03" x2="100.68" y2="138.87"/><line class="cls-2" x1="100.83" y1="139.72" x2="100.95" y2="140.56"/><path class="cls-2" d="M101.08,141.41c0,.28.06.57.09.85"/><line class="cls-2" x1="101.26" y1="143.12" x2="101.34" y2="143.97"/><line class="cls-2" x1="101.38" y1="144.83" x2="101.41" y2="145.68"/><line class="cls-2" x1="101.44" y1="146.54" x2="101.42" y2="147.39"/><path class="cls-2" d="M101.4,148.25a8.27,8.27,0,0,1-.05.86"/><line class="cls-2" x1="101.28" y1="149.96" x2="101.2" y2="150.81"/><line class="cls-2" x1="101.07" y1="151.66" x2="100.93" y2="152.51"/><line class="cls-2" x1="100.77" y1="153.35" x2="100.57" y2="154.18"/><path class="cls-2" d="M100.36,155a6,6,0,0,1-.25.82"/><line class="cls-2" x1="99.83" y1="156.64" x2="99.55" y2="157.45"/><line class="cls-2" x1="99.27" y1="158.26" x2="99" y2="159.08"/><line class="cls-2" x1="98.73" y1="159.89" x2="98.46" y2="160.7"/><line class="cls-2" x1="98.19" y1="161.51" x2="97.91" y2="162.33"/><line class="cls-2" x1="97.66" y1="163.14" x2="97.41" y2="163.96"/><line class="cls-2" x1="97.16" y1="164.78" x2="96.91" y2="165.6"/><line class="cls-2" x1="96.66" y1="166.42" x2="96.41" y2="167.24"/><line class="cls-2" x1="96.17" y1="168.07" x2="95.95" y2="168.89"/><line class="cls-2" x1="95.72" y1="169.72" x2="95.49" y2="170.54"/><path class="cls-2" d="M95.26,171.37c-.08.28-.15.55-.22.83"/><line class="cls-2" x1="94.83" y1="173.03" x2="94.62" y2="173.86"/><line class="cls-2" x1="94.42" y1="174.69" x2="94.21" y2="175.52"/><line class="cls-2" x1="94.01" y1="176.36" x2="93.82" y2="177.2"/><line class="cls-2" x1="93.64" y1="178.03" x2="93.45" y2="178.87"/><line class="cls-2" x1="93.27" y1="179.7" x2="93.1" y2="180.54"/><line class="cls-2" x1="92.93" y1="181.39" x2="92.77" y2="182.23"/><path class="cls-2" d="M92.6,183.07q-.09.42-.15.84"/><line class="cls-2" x1="92.3" y1="184.76" x2="92.16" y2="185.6"/><line class="cls-2" x1="92.01" y1="186.44" x2="91.88" y2="187.29"/><line class="cls-2" x1="91.76" y1="188.14" x2="91.63" y2="188.99"/><line class="cls-2" x1="91.51" y1="189.84" x2="91.41" y2="190.69"/><line class="cls-2" x1="91.31" y1="191.54" x2="91.2" y2="192.39"/><line class="cls-2" x1="91.12" y1="193.24" x2="91.04" y2="194.09"/><line class="cls-2" x1="90.96" y1="194.95" x2="90.9" y2="195.8"/><line class="cls-2" x1="90.83" y1="196.66" x2="90.79" y2="197.51"/><line class="cls-2" x1="90.75" y1="198.37" x2="90.72" y2="199.23"/><line class="cls-2" x1="90.71" y1="200.08" x2="90.71" y2="200.94"/><path class="cls-4" d="M100.87,156c9-22.58-14.34-55.81-25.33-56.85S42.33,133.44,51.37,156c8.58,23.55,8.86,41.21,8.78,45.51h0a49.12,49.12,0,0,0,10.95,2.16c1.44-35.4,4.44-63.78,4.48-71.1,0,7.36,4,35.43,5.41,71.11a49.66,49.66,0,0,0,11-2.12l.15-.05C92,197.23,92.29,179.57,100.87,156Z"/><path class="cls-1" d="M96.54,197.75c12.66-75.57,5.75-85.46-.38-98.89,0,0-16.07-7.75-39.89-.8-6.7,13.13-13.29,22.55-1.19,98.47,0,0-.1,1-.21,2.94a42.18,42.18,0,0,0,5.28,2.06c.08-4.3-.2-22-8.78-45.51-9-22.58,13.19-57.89,24.17-56.85s34.37,34.27,25.33,56.85c-8.58,23.55-8.86,41.21-8.78,45.51a41.76,41.76,0,0,0,4.83-1.85C96.7,198.42,96.54,197.75,96.54,197.75Z"/><path class="cls-1" d="M96.16,98.82S80.08,91.07,56.27,98L57.5,94c23.82-7,37.06.81,37.06.81Z"/><line class="cls-2" x1="95.29" y1="97.66" x2="94.48" y2="97.38"/><line class="cls-2" x1="93.66" y1="97.11" x2="92.84" y2="96.86"/><line class="cls-2" x1="92.01" y1="96.63" x2="91.18" y2="96.4"/><line class="cls-2" x1="90.35" y1="96.19" x2="89.52" y2="95.99"/><path class="cls-2" d="M88.68,95.8l-.84-.18"/><line class="cls-2" x1="87" y1="95.46" x2="86.15" y2="95.31"/><line class="cls-2" x1="85.3" y1="95.16" x2="84.46" y2="95.04"/><line class="cls-2" x1="83.6" y1="94.92" x2="82.75" y2="94.81"/><line class="cls-2" x1="81.9" y1="94.72" x2="81.04" y2="94.64"/><line class="cls-2" x1="80.19" y1="94.57" x2="79.33" y2="94.51"/><line class="cls-2" x1="78.47" y1="94.48" x2="77.61" y2="94.44"/><line class="cls-2" x1="76.76" y1="94.43" x2="75.9" y2="94.41"/><line class="cls-2" x1="75.04" y1="94.42" x2="74.18" y2="94.44"/><line class="cls-2" x1="73.32" y1="94.47" x2="72.46" y2="94.52"/><line class="cls-2" x1="71.61" y1="94.57" x2="70.75" y2="94.64"/><line class="cls-2" x1="69.9" y1="94.72" x2="69.04" y2="94.81"/><line class="cls-2" x1="68.19" y1="94.91" x2="67.34" y2="95.02"/><line class="cls-2" x1="66.49" y1="95.13" x2="65.64" y2="95.26"/><line class="cls-2" x1="64.79" y1="95.4" x2="63.94" y2="95.54"/><line class="cls-2" x1="63.1" y1="95.7" x2="62.25" y2="95.87"/><line class="cls-2" x1="61.41" y1="96.04" x2="60.57" y2="96.22"/><line class="cls-2" x1="59.74" y1="96.41" x2="58.9" y2="96.61"/><line class="cls-2" x1="58.07" y1="96.82" x2="57.24" y2="97.04"/><line class="cls-2" x1="57.88" y1="94.55" x2="58.71" y2="94.32"/><line class="cls-2" x1="59.55" y1="94.1" x2="60.39" y2="93.89"/><line class="cls-2" x1="61.23" y1="93.69" x2="62.07" y2="93.5"/><line class="cls-2" x1="62.92" y1="93.32" x2="63.76" y2="93.14"/><line class="cls-2" x1="64.61" y1="92.97" x2="65.46" y2="92.82"/><line class="cls-2" x1="66.31" y1="92.67" x2="67.17" y2="92.53"/><line class="cls-2" x1="68.02" y1="92.41" x2="68.88" y2="92.29"/><line class="cls-2" x1="69.74" y1="92.19" x2="70.6" y2="92.09"/><line class="cls-2" x1="71.46" y1="92.01" x2="72.32" y2="91.94"/><line class="cls-2" x1="73.18" y1="91.88" x2="74.04" y2="91.83"/><line class="cls-2" x1="74.91" y1="91.8" x2="75.77" y2="91.78"/><line class="cls-2" x1="76.64" y1="91.77" x2="77.5" y2="91.79"/><line class="cls-2" x1="78.36" y1="91.8" x2="79.23" y2="91.85"/><line class="cls-2" x1="80.09" y1="91.9" x2="80.95" y2="91.98"/><line class="cls-2" x1="81.81" y1="92.05" x2="82.67" y2="92.16"/><line class="cls-2" x1="83.53" y1="92.27" x2="84.38" y2="92.41"/><line class="cls-2" x1="85.23" y1="92.55" x2="86.08" y2="92.71"/><line class="cls-2" x1="86.93" y1="92.89" x2="87.77" y2="93.08"/><path class="cls-2" d="M88.61,93.3l.83.22"/><line class="cls-2" x1="90.27" y1="93.77" x2="91.1" y2="94.03"/><line class="cls-2" x1="91.91" y1="94.31" x2="92.72" y2="94.61"/><line class="cls-2" x1="93.53" y1="94.94" x2="94.31" y2="95.29"/><path class="cls-6" d="M75.24,96.11l-.37,29.1a.12.12,0,0,1-.1.12h0a4.38,4.38,0,0,0-1.08.48c-.37.21-.72.43-1.07.66-.7.46-1.39,1-2.06,1.45-.31.23-.67.56-.65.85s.53.43.9.51a14.58,14.58,0,0,0,2.48.25c.84,0,1.69,0,2.53,0h1.27a4.45,4.45,0,0,1,1.29.11.41.41,0,0,1,.25.28.62.62,0,0,1,0,.36,2.13,2.13,0,0,1-.33.57,7.66,7.66,0,0,1-.87.93,25,25,0,0,1-2,1.62s0,0,0,0,0,0,0,0a23,23,0,0,0,1.88-1.68,7.35,7.35,0,0,0,.83-.94,2,2,0,0,0,.3-.52c.07-.19,0-.36-.14-.43a4.75,4.75,0,0,0-1.21-.06l-1.27,0c-.84,0-1.69,0-2.53,0a13.74,13.74,0,0,1-2.55-.23,3.11,3.11,0,0,1-.63-.21.79.79,0,0,1-.5-.56.91.91,0,0,1,.28-.68,3.37,3.37,0,0,1,.48-.45c.69-.51,1.37-1,2.09-1.45.36-.23.72-.46,1.09-.66a3.84,3.84,0,0,1,1.24-.5l-.14.13.6-29.1s0,0,0,0A0,0,0,0,1,75.24,96.11Z"/><polyline class="cls-7" points="75.34 116.37 75.22 116.03 75.09 116.37 74.97 116.03 74.84 116.37"/><line class="cls-7" x1="74.84" y1="116.37" x2="74.84" y2="116.03"/><polyline class="cls-7" points="75.84 116.37 75.72 116.03 75.59 116.37 75.47 116.03 75.34 116.37"/><polyline class="cls-7" points="76.34 116.37 76.22 116.03 76.09 116.37 75.97 116.03 75.84 116.37"/><line class="cls-7" x1="76.34" y1="116.37" x2="76.34" y2="116.03"/><line class="cls-2" x1="75.15" y1="116.63" x2="75.15" y2="117.45"/><line class="cls-2" x1="75.94" y1="116.63" x2="75.95" y2="117.44"/><line class="cls-2" x1="75.16" y1="118.26" x2="75.16" y2="119.08"/><line class="cls-2" x1="75.95" y1="118.26" x2="75.95" y2="119.07"/><line class="cls-2" x1="75.17" y1="119.89" x2="75.17" y2="120.71"/><line class="cls-2" x1="75.96" y1="119.89" x2="75.96" y2="120.7"/><line class="cls-2" x1="75.17" y1="121.52" x2="75.18" y2="122.34"/><line class="cls-2" x1="75.96" y1="121.52" x2="75.97" y2="122.33"/><line class="cls-2" x1="75.18" y1="123.15" x2="75.18" y2="123.97"/><line class="cls-2" x1="75.97" y1="123.15" x2="75.97" y2="123.96"/><line class="cls-2" x1="75.19" y1="124.78" x2="75.19" y2="125.6"/><line class="cls-2" x1="75.98" y1="124.78" x2="75.98" y2="125.59"/><line class="cls-2" x1="75.19" y1="126.41" x2="75.2" y2="127.23"/><line class="cls-2" x1="75.98" y1="126.41" x2="75.99" y2="127.22"/><line class="cls-2" x1="75.2" y1="128.04" x2="75.2" y2="128.86"/><line class="cls-2" x1="75.99" y1="128.04" x2="76" y2="128.85"/><line class="cls-2" x1="75.21" y1="129.67" x2="75.21" y2="130.49"/><line class="cls-2" x1="76" y1="129.67" x2="76" y2="130.48"/><line class="cls-2" x1="75.21" y1="131.3" x2="75.22" y2="132.12"/><line class="cls-2" x1="76.01" y1="131.3" x2="76.01" y2="132.11"/><polyline class="cls-7" points="75.39 120.49 75.26 120.15 75.14 120.49 75.01 120.15 74.89 120.49"/><line class="cls-7" x1="74.89" y1="120.49" x2="74.89" y2="120.15"/><polyline class="cls-7" points="75.89 120.49 75.76 120.15 75.64 120.49 75.51 120.15 75.39 120.49"/><polyline class="cls-7" points="76.39 120.49 76.26 120.15 76.14 120.49 76.01 120.15 75.89 120.49"/><line class="cls-7" x1="76.38" y1="120.49" x2="76.38" y2="120.15"/><line class="cls-2" x1="60.87" y1="201.1" x2="60.86" y2="200.25"/><line class="cls-2" x1="60.85" y1="199.4" x2="60.82" y2="198.56"/><line class="cls-2" x1="60.79" y1="197.71" x2="60.75" y2="196.86"/><line class="cls-2" x1="60.71" y1="196.01" x2="60.66" y2="195.16"/><line class="cls-2" x1="60.59" y1="194.31" x2="60.53" y2="193.47"/><line class="cls-2" x1="60.46" y1="192.62" x2="60.38" y2="191.78"/><line class="cls-2" x1="60.3" y1="190.93" x2="60.2" y2="190.09"/><line class="cls-2" x1="60.11" y1="189.24" x2="60.01" y2="188.4"/><line class="cls-2" x1="59.9" y1="187.55" x2="59.78" y2="186.71"/><line class="cls-2" x1="59.67" y1="185.87" x2="59.55" y2="185.03"/><line class="cls-2" x1="59.41" y1="184.19" x2="59.28" y2="183.35"/><line class="cls-2" x1="59.15" y1="182.51" x2="59" y2="181.68"/><line class="cls-2" x1="58.85" y1="180.84" x2="58.69" y2="180.01"/><path class="cls-2" d="M58.54,179.17c0-.28-.1-.56-.16-.83"/><line class="cls-2" x1="58.2" y1="177.5" x2="58.03" y2="176.67"/><line class="cls-2" x1="57.86" y1="175.84" x2="57.68" y2="175.01"/><line class="cls-2" x1="57.48" y1="174.18" x2="57.29" y2="173.36"/><line class="cls-2" x1="57.09" y1="172.53" x2="56.9" y2="171.7"/><line class="cls-2" x1="56.69" y1="170.88" x2="56.47" y2="170.06"/><line class="cls-2" x1="56.26" y1="169.24" x2="56.04" y2="168.42"/><line class="cls-2" x1="55.82" y1="167.6" x2="55.58" y2="166.78"/><line class="cls-2" x1="55.35" y1="165.96" x2="55.11" y2="165.15"/><line class="cls-2" x1="54.88" y1="164.33" x2="54.63" y2="163.52"/><line class="cls-2" x1="54.37" y1="162.71" x2="54.11" y2="161.9"/><line class="cls-2" x1="53.85" y1="161.09" x2="53.6" y2="160.28"/><line class="cls-2" x1="53.33" y1="159.48" x2="53.05" y2="158.67"/><line class="cls-2" x1="52.77" y1="157.87" x2="52.49" y2="157.07"/><line class="cls-2" x1="52.21" y1="156.27" x2="51.93" y2="155.46"/><line class="cls-2" x1="51.65" y1="154.66" x2="51.38" y2="153.86"/><line class="cls-2" x1="51.12" y1="153.05" x2="50.93" y2="152.22"/><line class="cls-2" x1="50.73" y1="151.39" x2="50.54" y2="150.57"/><line class="cls-2" x1="50.42" y1="149.73" x2="50.3" y2="148.88"/><path class="cls-2" d="M50.18,148a6,6,0,0,1-.07-.84"/><line class="cls-2" x1="50.06" y1="146.35" x2="50.01" y2="145.5"/><line class="cls-2" x1="49.98" y1="144.65" x2="49.99" y2="143.8"/><line class="cls-2" x1="50.01" y1="142.95" x2="50.02" y2="142.1"/><line class="cls-2" x1="50.09" y1="141.26" x2="50.17" y2="140.41"/><path class="cls-2" d="M50.24,139.56a8,8,0,0,1,.1-.84"/><line class="cls-2" x1="50.46" y1="137.88" x2="50.59" y2="137.04"/><line class="cls-2" x1="50.72" y1="136.2" x2="50.89" y2="135.37"/><line class="cls-2" x1="51.06" y1="134.54" x2="51.23" y2="133.71"/><line class="cls-2" x1="51.43" y1="132.88" x2="51.65" y2="132.06"/><line class="cls-2" x1="51.86" y1="131.24" x2="52.08" y2="130.42"/><line class="cls-2" x1="52.34" y1="129.6" x2="52.59" y2="128.8"/><path class="cls-2" d="M52.85,128c.09-.27.17-.54.27-.81"/><line class="cls-2" x1="53.42" y1="126.38" x2="53.71" y2="125.59"/><path class="cls-2" d="M54,124.79c.1-.26.22-.52.32-.78"/><line class="cls-2" x1="54.66" y1="123.22" x2="54.99" y2="122.44"/><line class="cls-2" x1="55.34" y1="121.66" x2="55.7" y2="120.9"/><line class="cls-2" x1="56.06" y1="120.13" x2="56.43" y2="119.36"/><line class="cls-2" x1="56.82" y1="118.61" x2="57.21" y2="117.85"/><path class="cls-2" d="M57.61,117.1c.13-.25.26-.5.41-.74"/><line class="cls-2" x1="58.45" y1="115.62" x2="58.88" y2="114.89"/><line class="cls-2" x1="59.31" y1="114.16" x2="59.76" y2="113.44"/><line class="cls-2" x1="60.22" y1="112.73" x2="60.69" y2="112.02"/><line class="cls-2" x1="61.16" y1="111.31" x2="61.65" y2="110.62"/><line class="cls-2" x1="62.15" y1="109.93" x2="62.65" y2="109.25"/><line class="cls-2" x1="63.18" y1="108.58" x2="63.7" y2="107.91"/><path class="cls-2" d="M64.25,107.26c.18-.22.36-.44.55-.64"/><path class="cls-2" d="M65.37,106l.58-.62"/><line class="cls-2" x1="66.54" y1="104.75" x2="67.16" y2="104.17"/><line class="cls-2" x1="67.78" y1="103.59" x2="68.42" y2="103.03"/><path class="cls-2" d="M69.09,102.5c.22-.18.45-.33.68-.5"/><path class="cls-2" d="M70.47,101.52c.25-.15.48-.31.73-.44"/><line class="cls-2" x1="71.95" y1="100.68" x2="72.73" y2="100.34"/><path class="cls-2" d="M73.53,100.08c.28-.07.56-.12.84-.17"/><path class="cls-2" d="M75.21,99.86a4.72,4.72,0,0,1,.84.12"/><path class="cls-2" d="M76.88,100.19a4.4,4.4,0,0,1,.79.29"/><line class="cls-2" x1="78.45" y1="100.82" x2="79.19" y2="101.23"/><path class="cls-2" d="M79.92,101.67c.23.16.48.3.71.47"/><path class="cls-2" d="M81.31,102.64c.23.17.46.34.67.53"/><path class="cls-2" d="M82.64,103.71c.22.17.42.37.63.56"/><line class="cls-2" x1="83.91" y1="104.84" x2="84.51" y2="105.43"/><line class="cls-2" x1="85.12" y1="106.03" x2="85.7" y2="106.64"/><line class="cls-2" x1="86.28" y1="107.26" x2="86.85" y2="107.9"/><path class="cls-2" d="M87.41,108.54c.19.21.36.43.54.65"/><path class="cls-2" d="M88.49,109.85c.18.22.35.44.52.67"/><path class="cls-2" d="M89.53,111.19c.17.23.35.45.51.68"/><line class="cls-2" x1="90.54" y1="112.56" x2="91.03" y2="113.25"/><line class="cls-2" x1="91.51" y1="113.95" x2="91.98" y2="114.66"/><line class="cls-2" x1="92.44" y1="115.37" x2="92.9" y2="116.09"/><line class="cls-2" x1="93.34" y1="116.81" x2="93.77" y2="117.55"/><line class="cls-2" x1="94.2" y1="118.28" x2="94.63" y2="119.01"/><line class="cls-2" x1="95.04" y1="119.76" x2="95.43" y2="120.51"/><line class="cls-2" x1="95.83" y1="121.26" x2="96.22" y2="122.01"/><line class="cls-2" x1="96.59" y1="122.78" x2="96.95" y2="123.55"/><path class="cls-2" d="M97.31,124.32c.13.25.23.51.34.78"/><line class="cls-2" x1="97.98" y1="125.88" x2="98.31" y2="126.66"/><line class="cls-2" x1="98.63" y1="127.45" x2="98.92" y2="128.25"/><line class="cls-2" x1="99.22" y1="129.04" x2="99.51" y2="129.84"/><line class="cls-2" x1="99.76" y1="130.65" x2="100.02" y2="131.46"/><path class="cls-2" d="M100.27,132.27c.09.27.15.55.23.82"/><line class="cls-2" x1="100.71" y1="133.92" x2="100.92" y2="134.74"/><line class="cls-2" x1="101.11" y1="135.57" x2="101.28" y2="136.4"/><path class="cls-2" d="M101.45,137.23c.06.28.1.56.14.84"/><line class="cls-2" x1="101.72" y1="138.91" x2="101.84" y2="139.75"/><line class="cls-2" x1="101.94" y1="140.59" x2="102.01" y2="141.44"/><path class="cls-2" d="M102.09,142.28c0,.29,0,.57,0,.85"/><line class="cls-2" x1="102.15" y1="143.98" x2="102.18" y2="144.83"/><line class="cls-2" x1="102.15" y1="145.68" x2="102.12" y2="146.53"/><line class="cls-2" x1="102.08" y1="147.38" x2="101.99" y2="148.22"/><path class="cls-2" d="M101.9,149.07a8.09,8.09,0,0,1-.12.84"/><line class="cls-2" x1="101.63" y1="150.74" x2="101.48" y2="151.58"/><line class="cls-2" x1="101.27" y1="152.4" x2="101.05" y2="153.22"/><line class="cls-2" x1="100.81" y1="154.04" x2="100.53" y2="154.84"/><line class="cls-2" x1="100.25" y1="155.64" x2="99.97" y2="156.44"/><line class="cls-2" x1="99.69" y1="157.25" x2="99.41" y2="158.05"/><line class="cls-2" x1="99.13" y1="158.85" x2="98.85" y2="159.65"/><line class="cls-2" x1="98.59" y1="160.46" x2="98.33" y2="161.27"/><line class="cls-2" x1="98.07" y1="162.08" x2="97.82" y2="162.89"/><line class="cls-2" x1="97.56" y1="163.7" x2="97.32" y2="164.51"/><line class="cls-2" x1="97.08" y1="165.33" x2="96.85" y2="166.15"/><line class="cls-2" x1="96.61" y1="166.96" x2="96.38" y2="167.78"/><line class="cls-2" x1="96.16" y1="168.6" x2="95.95" y2="169.42"/><line class="cls-2" x1="95.74" y1="170.25" x2="95.52" y2="171.07"/><line class="cls-2" x1="95.31" y1="171.89" x2="95.12" y2="172.72"/><line class="cls-2" x1="94.93" y1="173.55" x2="94.74" y2="174.37"/><line class="cls-2" x1="94.55" y1="175.2" x2="94.37" y2="176.03"/><line class="cls-2" x1="94.2" y1="176.87" x2="94.03" y2="177.7"/><line class="cls-2" x1="93.86" y1="178.53" x2="93.7" y2="179.36"/><line class="cls-2" x1="93.55" y1="180.2" x2="93.4" y2="181.04"/><line class="cls-2" x1="93.24" y1="181.87" x2="93.11" y2="182.71"/><line class="cls-2" x1="92.97" y1="183.55" x2="92.84" y2="184.39"/><line class="cls-2" x1="92.71" y1="185.23" x2="92.6" y2="186.07"/><line class="cls-2" x1="92.48" y1="186.91" x2="92.37" y2="187.75"/><line class="cls-2" x1="92.27" y1="188.6" x2="92.17" y2="189.44"/><line class="cls-2" x1="92.07" y1="190.28" x2="91.99" y2="191.13"/><line class="cls-2" x1="91.91" y1="191.98" x2="91.83" y2="192.82"/><line class="cls-2" x1="91.76" y1="193.67" x2="91.7" y2="194.52"/><line class="cls-2" x1="91.64" y1="195.36" x2="91.59" y2="196.21"/><line class="cls-2" x1="91.55" y1="197.06" x2="91.51" y2="197.91"/><line class="cls-2" x1="91.48" y1="198.76" x2="91.46" y2="199.61"/><line class="cls-2" x1="91.45" y1="200.46" x2="91.44" y2="201.31"/><path class="cls-5" d="M69.76,233.69C71.15,223.06,72.68,220,71,205.86l.09-2.17a47.76,47.76,0,0,1-16.23-4.22c-.47,8-3.63,33.49,3.49,60.32a97,97,0,0,1,1,12.13,64.58,64.58,0,0,0,10.05-.56,3,3,0,0,1,0-.32C69.33,270.1,66.83,248.81,69.76,233.69Z"/><path class="cls-8" d="M92.31,271.19c1.12-5.53.73-10.07,2-15.17,6.83-27.71,3.8-49.86,2.63-56.34a47.82,47.82,0,0,1-15.93,4c0,.51.05,1,.07,1.53-3.14,26.64,6.2,27.72,1.35,65.36A62,62,0,0,0,92.31,271.19Z"/><path class="cls-5" d="M69.59,273.34a18.88,18.88,0,0,0-10,.63l-.38-2.49s6.13-1.66,10.22-.51Z"/><line class="cls-2" x1="68.94" y1="272.64" x2="68.14" y2="272.51"/><path class="cls-2" d="M67.33,272.4l-.81-.08"/><path class="cls-2" d="M65.7,272.3c-.27,0-.54,0-.81,0"/><line class="cls-2" x1="64.08" y1="272.41" x2="63.27" y2="272.52"/><line class="cls-2" x1="62.46" y1="272.66" x2="61.67" y2="272.82"/><line class="cls-2" x1="60.87" y1="273.01" x2="60.09" y2="273.23"/><line class="cls-2" x1="59.94" y1="271.97" x2="60.76" y2="271.8"/><line class="cls-2" x1="61.59" y1="271.64" x2="62.41" y2="271.51"/><line class="cls-2" x1="63.25" y1="271.39" x2="64.08" y2="271.29"/><path class="cls-2" d="M64.92,271.23l.84,0"/><path class="cls-2" d="M66.6,271.21c.28,0,.55,0,.83.07"/><line class="cls-2" x1="68.26" y1="271.4" x2="69.09" y2="271.54"/><path class="cls-5" d="M70.31,283c-4.94,5.46-10.35-.3-10.35-.3l-.17-3.37c6.47,7.7,10.59.49,10.59.49Z"/><path class="cls-2" d="M69.88,282.6a8,8,0,0,1-.62.54"/><path class="cls-2" d="M68.6,283.62a6.23,6.23,0,0,1-.71.41"/><path class="cls-2" d="M67.15,284.37a5.4,5.4,0,0,1-.78.24"/><path class="cls-2" d="M65.55,284.7a5.58,5.58,0,0,1-.81-.09"/><path class="cls-2" d="M64,284.4a5.45,5.45,0,0,1-.76-.3"/><path class="cls-2" d="M62.46,283.73c-.23-.14-.47-.28-.69-.43"/><path class="cls-2" d="M61.1,282.82c-.22-.16-.43-.34-.63-.51"/><path class="cls-2" d="M60.33,280.82c.21.18.42.37.64.54"/><path class="cls-2" d="M61.63,281.87c.23.16.46.32.7.46"/><path class="cls-2" d="M63.05,282.74c.25.13.51.25.76.35"/><path class="cls-2" d="M64.61,283.35a4.64,4.64,0,0,0,.82.12"/><path class="cls-2" d="M66.27,283.42a5.61,5.61,0,0,0,.8-.23"/><path class="cls-2" d="M67.83,282.85a6.44,6.44,0,0,0,.72-.42"/><path class="cls-2" d="M69.23,281.94a8.14,8.14,0,0,0,.63-.54"/><path class="cls-5" d="M81.93,272.9a18.75,18.75,0,0,1,10,.63l.38-2.49s-6.13-1.66-10.22-.51Z"/><line class="cls-2" x1="82.58" y1="272.2" x2="83.38" y2="272.06"/><path class="cls-2" d="M84.19,272c.27,0,.54-.06.81-.07"/><path class="cls-2" d="M85.82,271.86l.81,0"/><line class="cls-2" x1="87.44" y1="271.97" x2="88.25" y2="272.08"/><line class="cls-2" x1="89.06" y1="272.21" x2="89.85" y2="272.38"/><line class="cls-2" x1="90.65" y1="272.57" x2="91.44" y2="272.78"/><line class="cls-2" x1="91.58" y1="271.52" x2="90.76" y2="271.35"/><line class="cls-2" x1="89.94" y1="271.2" x2="89.11" y2="271.06"/><line class="cls-2" x1="88.28" y1="270.95" x2="87.44" y2="270.85"/><path class="cls-2" d="M86.6,270.78l-.84,0"/><path class="cls-2" d="M84.93,270.76l-.84.08"/><line class="cls-2" x1="83.26" y1="270.95" x2="82.43" y2="271.09"/><path class="cls-5" d="M81.21,282.52c4.94,5.47,10.35-.29,10.35-.29l.18-3.37c-6.48,7.7-10.61.49-10.61.49Z"/><path class="cls-2" d="M81.64,282.16a7.87,7.87,0,0,0,.62.53"/><path class="cls-2" d="M82.92,283.17c.23.15.46.29.71.42"/><path class="cls-2" d="M84.37,283.93a4.6,4.6,0,0,0,.78.23"/><path class="cls-2" d="M86,284.25a5.56,5.56,0,0,0,.81-.08"/><path class="cls-2" d="M87.57,284c.26-.09.51-.19.76-.3"/><path class="cls-2" d="M89.06,283.28a6.12,6.12,0,0,0,.69-.43"/><path class="cls-2" d="M90.42,282.38c.22-.17.43-.34.63-.52"/><path class="cls-2" d="M91.19,280.37l-.63.55"/><path class="cls-2" d="M89.89,281.43l-.7.46"/><path class="cls-2" d="M88.47,282.3c-.25.13-.51.24-.76.34"/><path class="cls-2" d="M86.91,282.9a4.64,4.64,0,0,1-.82.12"/><path class="cls-2" d="M85.25,283a4.52,4.52,0,0,1-.8-.22"/><path class="cls-2" d="M83.69,282.41A6.52,6.52,0,0,1,83,282"/><path class="cls-2" d="M82.29,281.49a8.14,8.14,0,0,1-.63-.54"/><path class="cls-9" d="M121.61,122.4a3.93,3.93,0,0,1,4,3.85,6.45,6.45,0,0,1,1.9,2.12,7.18,7.18,0,0,1,5.26,1.15c2.61,1.76-2.48-16.94-2.48-16.94s-2.6,2.48-7.7.85c0,1.47-.46,2.79-.58,4.39A8.85,8.85,0,0,0,121.61,122.4Z"/><path class="cls-2" d="M126.2,125.5a4.66,4.66,0,0,0-.23-.81"/><path class="cls-2" d="M125.6,123.94a4.67,4.67,0,0,0-.5-.67"/><path class="cls-2" d="M124.47,122.7a5.2,5.2,0,0,0-.7-.45"/><path class="cls-2" d="M123,121.9a6.09,6.09,0,0,0-.81-.22"/><path class="cls-2" d="M127.53,127.2a8.55,8.55,0,0,0-.81-.89"/><path class="cls-2" d="M133.07,128.89a7.23,7.23,0,0,0-.87-.46"/><path class="cls-2" d="M131.28,128.1c-.32-.09-.64-.16-1-.22"/><path class="cls-2" d="M129.35,127.75c-.33,0-.65,0-1,0"/><path class="cls-1" d="M133,110.91a16.57,16.57,0,0,1-12.52,4.28l.37,1.4s5,2.24,12.65-4Z"/><path class="cls-4" d="M133,110.91c-8.91-30.12-20-97.35-30.13-97.35C96.34,23,99.13,36,99.13,36l21.32,79.17A16.57,16.57,0,0,0,133,110.91Z"/><path class="cls-9" d="M27.93,107.81s-4.64.91-7-.86a27.3,27.3,0,0,0-.93,7s3.7,5.2,7.7.84C27.08,113.35,27.93,107.81,27.93,107.81Z"/><path class="cls-9" d="M28.7,123.78a3.93,3.93,0,0,0-4.06,3.84,6.46,6.46,0,0,0-1.89,2.13,7.23,7.23,0,0,0-5.27,1.14C14.88,132.65,20,114,20,114s2.61,2.47,7.7.84c0,1.47.46,2.8.58,4.39A8.84,8.84,0,0,1,28.7,123.78Z"/><path class="cls-2" d="M24.11,126.88a3.73,3.73,0,0,1,.22-.81"/><path class="cls-2" d="M24.7,125.31a4.74,4.74,0,0,1,.51-.67"/><path class="cls-2" d="M25.83,124.08a6.62,6.62,0,0,1,.71-.46"/><path class="cls-2" d="M27.31,123.28a5.39,5.39,0,0,1,.81-.23"/><path class="cls-2" d="M22.78,128.58a6.2,6.2,0,0,1,.81-.89"/><path class="cls-2" d="M17.24,130.26a7.16,7.16,0,0,1,.87-.45"/><path class="cls-2" d="M19,129.48a7.73,7.73,0,0,1,.95-.23"/><path class="cls-2" d="M21,129.12l1-.05"/><path class="cls-1" d="M17.33,112.29a16.56,16.56,0,0,0,12.53,4.27L29.48,118s-5,2.24-12.65-4C17,113.41,17.17,112.85,17.33,112.29Z"/><path class="cls-4" d="M17.33,112.29c8.91-30.12,20.06-97.36,30.14-97.36,6.49,9.45,3.7,22.47,3.7,22.47L29.86,116.56A16.56,16.56,0,0,1,17.33,112.29Z"/><line class="cls-2" x1="18.03" y1="112.09" x2="18.67" y2="112.64"/><path class="cls-2" d="M19.36,113.14a6.58,6.58,0,0,0,.7.47"/><path class="cls-2" d="M20.79,114c.24.14.5.25.75.38"/><path class="cls-2" d="M22.32,114.77c.26.1.52.22.78.31"/><path class="cls-2" d="M23.91,115.34c.27.09.54.15.81.22"/><path class="cls-2" d="M25.55,115.75a8,8,0,0,0,.83.14"/><path class="cls-2" d="M27.22,116c.28,0,.56,0,.85.06"/><path class="cls-2" d="M28.91,116.09c.28,0,.57,0,.85,0"/><path class="cls-10" d="M53.45,75.08a15,15,0,0,0,1-4.23Z"/><path class="cls-4" d="M84.42,7.69s-.15.49-8.1.49-8.87-.67-8.87-.67a1.46,1.46,0,0,0-1.11,1.55c6.75,4.71,18.71.66,19.17.18C85.68,8.12,84.42,7.69,84.42,7.69Z"/><path class="cls-11" d="M85.34,8.82h0l0,0,0,.05,0,.11a.31.31,0,0,0,0,.21l0,.07-.1-.06a.39.39,0,0,1-.1-.08L85,9.09l-.14-.17-.26-.34a1.75,1.75,0,0,1-.2-.35,1.34,1.34,0,0,1-.07-.18.58.58,0,0,1,0-.18h0a1.51,1.51,0,0,0,.09.18l.11.17.22.35c.07.11.14.22.23.34l.13.17.08.08.09.08h-.06a.33.33,0,0,1,0-.22.34.34,0,0,1,.07-.11l0-.05,0,0h0Z"/><path class="cls-11" d="M84.42,9.39a2.36,2.36,0,0,1-.18-.21,3.05,3.05,0,0,1-.3-.48,1.59,1.59,0,0,1-.12-.27l0-.12a.37.37,0,0,0,0-.11.31.31,0,0,0,0-.09s0,0,0-.07l0-.07h0V8a.15.15,0,0,1,0,.07.94.94,0,0,1,0,.09.26.26,0,0,0,0,.11.56.56,0,0,0,0,.12,1.61,1.61,0,0,0,.09.26,3.72,3.72,0,0,0,.25.49c.08.13.14.21.14.21Z"/><path class="cls-11" d="M82.46,9.45s0-.1.06-.24a2.32,2.32,0,0,1,0-.24,1.22,1.22,0,0,0,0-.27.61.61,0,0,0,0-.14l0-.14a.53.53,0,0,1,0-.12s0-.08,0-.11a.93.93,0,0,0-.05-.1.43.43,0,0,0,0-.07l0-.06h0l.08,0,0,0,0,0a.86.86,0,0,1,.07.1l.06.11s0,.08,0,.13a.59.59,0,0,1,0,.13V8.7a2.28,2.28,0,0,1,0,.27c0,.09,0,.18-.06.24a1.78,1.78,0,0,1-.08.24Z"/><path class="cls-11" d="M82.26,9.3l-.1-.07-.09-.08,0,0,0,0L81.93,9v0s0,0,0,0a.26.26,0,0,1,0-.08h0a.17.17,0,0,1,0,.08l0,0s0,0,0,0,0,0,0,0l0,0,0,0a.08.08,0,0,0,0,0l.06.08a.19.19,0,0,0,.07.07Z"/><path class="cls-11" d="M81.15,8.37a1.28,1.28,0,0,1,.16.27,1.31,1.31,0,0,1,.09.28s0,.09,0,.14a.66.66,0,0,1,0,.14v.07s0,.05,0,.07l0,.07,0,.07-.07,0a.64.64,0,0,0,.2-.14.59.59,0,0,0,.1-.17,1.42,1.42,0,0,0,.11-.35c0-.12,0-.23,0-.35l.05-.36h0a2.61,2.61,0,0,1,0,.72,1.18,1.18,0,0,1-.11.35l-.13.18a.58.58,0,0,1-.24.15l-.1,0,0-.06,0-.07,0-.07s0,0,0-.06l0-.07a.71.71,0,0,0,0-.14V8.92a2.86,2.86,0,0,0-.07-.28,1.74,1.74,0,0,0-.14-.27Z"/><path class="cls-11" d="M83.16,8.15a1.3,1.3,0,0,1,.1.15,1,1,0,0,1,.07.15,1.09,1.09,0,0,1,.07.3.66.66,0,0,1-.06.31.44.44,0,0,1-.1.15.64.64,0,0,1-.2.14l-.08,0c.09-.06.17-.12.18-.19a.07.07,0,0,0,0-.05s0,0,0-.05l0,0L83,8.94l.09,0,.06,0,0,.05s0,0,0,.06a.35.35,0,0,1-.17.2l-.07,0a.4.4,0,0,0,.16-.12.42.42,0,0,0,.09-.14,1.11,1.11,0,0,0,.07-.29,1.53,1.53,0,0,0,0-.3A1.86,1.86,0,0,0,83.16,8.15Z"/><path class="cls-11" d="M80.91,9.51l-.11-.08,0,0,0-.05,0-.05a.13.13,0,0,1,0,0l0-.06a.11.11,0,0,1,0-.05V9.06a.06.06,0,0,1,0,0,.37.37,0,0,1,.06-.09h0l0,.09a.06.06,0,0,0,0,0v.11l0,.05a.07.07,0,0,0,0,0l0,.05s0,0,0,0l0,.05a.5.5,0,0,0,.08.08Z"/><path class="cls-11" d="M80.38,9.12s0,0,0,0h0l0,0-.06,0-.09.1a.42.42,0,0,0-.06.21v.07l-.06-.06a.2.2,0,0,1,0-.09l0-.09-.06-.18-.1-.35a1.47,1.47,0,0,1,0-.36.55.55,0,0,1,0-.18.53.53,0,0,1,0-.18h0a.55.55,0,0,0,0,.18l0,.17.06.36c0,.12,0,.24.07.36l0,.18,0,.08a.2.2,0,0,0,0,.09H80.1a.39.39,0,0,1,.09-.21.32.32,0,0,1,.1-.1l.06-.05,0,0h0Z"/><path class="cls-11" d="M79.34,9.6s0-.09-.09-.22a2.12,2.12,0,0,1-.14-.5,1.24,1.24,0,0,1,0-.27s0-.08,0-.12l0-.11a.36.36,0,0,1,0-.09l0-.07,0-.06h0a.15.15,0,0,0,0,.06s0,0,0,.07a.38.38,0,0,1,0,.1v.1s0,.08,0,.13a2.35,2.35,0,0,0,0,.26,3.27,3.27,0,0,0,.08.5l.07.22Z"/><path class="cls-11" d="M77.49,9.55a1.69,1.69,0,0,0,.1-.23c0-.07,0-.15.08-.24l.06-.27c0-.05,0-.1,0-.14V8.53s0-.08,0-.13a.22.22,0,0,0,0-.11s0-.06,0-.09l0-.07,0-.07h0l.07.06s0,0,0,0l0,0a.31.31,0,0,1,0,.1.36.36,0,0,1,0,.11.57.57,0,0,1,0,.13.66.66,0,0,1,0,.14.7.7,0,0,1,0,.14c0,.09,0,.19-.08.28a2.51,2.51,0,0,1-.11.23,2.35,2.35,0,0,1-.13.23Z"/><path class="cls-11" d="M77.32,9.39a.27.27,0,0,1-.08-.07.23.23,0,0,1-.07-.07l0-.05,0,0,0-.09V9l0,0a.21.21,0,0,1,.06-.08h0a.15.15,0,0,1,0,.08V9a.09.09,0,0,1,0,.05s0,0,0,0v.05l0,0s0,0,0,.05l0,.08a.3.3,0,0,0,0,.07Z"/><path class="cls-11" d="M76.39,8.43a.77.77,0,0,1,.11.27,1,1,0,0,1,0,.28.65.65,0,0,1,0,.14l0,.15,0,.06,0,.07,0,.07,0,.07-.07,0a.43.43,0,0,0,.22-.13.7.7,0,0,0,.14-.16,1.5,1.5,0,0,0,.16-.34,2.91,2.91,0,0,0,.12-.35l.11-.36h0c0,.11,0,.23,0,.35a1.58,1.58,0,0,1-.09.36,1.13,1.13,0,0,1-.17.35.85.85,0,0,1-.16.17.78.78,0,0,1-.26.14l-.11,0,0-.06,0-.06a.16.16,0,0,0,0-.07l0-.06,0-.07a.74.74,0,0,0,0-.14l0-.14a1.37,1.37,0,0,0,0-.28,1.43,1.43,0,0,0-.09-.27Z"/><path class="cls-11" d="M78.49,8.3a.88.88,0,0,1,.05.15.4.4,0,0,1,0,.15,1.09,1.09,0,0,1,0,.31.68.68,0,0,1-.14.3.55.55,0,0,1-.13.14.75.75,0,0,1-.22.12l-.07,0a.58.58,0,0,0,.22-.17.11.11,0,0,0,0,0,.07.07,0,0,0,0-.05.05.05,0,0,0,0-.05s0,0,0,0l.07,0,.05.05a.17.17,0,0,1,0,.05v.06a.45.45,0,0,1-.21.2l-.06,0a.57.57,0,0,0,.18-.12.49.49,0,0,0,.12-.13,1.28,1.28,0,0,0,.14-.29c0-.1,0-.2,0-.3S78.5,8.4,78.49,8.3Z"/><path class="cls-11" d="M76,9.55l-.09-.08,0-.05a.09.09,0,0,1,0-.05l0,0a.14.14,0,0,1,0-.06l0,0a.13.13,0,0,1,0-.06.09.09,0,0,0,0-.05s0,0,0,0L75.83,9h0a.41.41,0,0,1,0,.09v.09a.13.13,0,0,1,0,.06v0a.43.43,0,0,0,0,.05l0,.06a.17.17,0,0,0,0,.05s0,0,0,0l.06.09Z"/><path class="cls-11" d="M75.49,9.15h0l0,0-.07.05-.1.09a.41.41,0,0,0-.1.21V9.6l0-.06,0-.09,0-.09,0-.18,0-.36a1.45,1.45,0,0,1,0-.36,1.16,1.16,0,0,1,0-.18.36.36,0,0,1,.07-.17h0a1.09,1.09,0,0,0,0,.18v.53c0,.12,0,.24,0,.36l0,.18,0,.09,0,.08h0a.44.44,0,0,1,.12-.22l.11-.09.07,0,0,0v0Z"/><path class="cls-11" d="M74.4,9.59l-.07-.22a2.45,2.45,0,0,1-.06-.5,1.17,1.17,0,0,1,0-.27l0-.13s0-.07,0-.11,0-.06.05-.09l0-.07,0,0h0l0,.06a.64.64,0,0,0,0,.07l0,.09a.52.52,0,0,1,0,.11.5.5,0,0,1,0,.12c0,.09,0,.17,0,.27a2.5,2.5,0,0,0,0,.49,1.74,1.74,0,0,0,0,.23Z"/><path class="cls-11" d="M72.55,9.5a2.35,2.35,0,0,0,.13-.23L72.79,9a2.18,2.18,0,0,0,.11-.27l0-.14a.69.69,0,0,0,0-.13c0-.05,0-.09,0-.13a.4.4,0,0,0,0-.11s0-.07,0-.1a.14.14,0,0,0,0-.07.32.32,0,0,0,0-.06h0l0,.06,0,0,0,0,0,.09s0,.08,0,.12a.28.28,0,0,1,0,.13,1,1,0,0,1,0,.14s0,.09,0,.14L72.87,9l-.15.24-.16.22Z"/><path class="cls-11" d="M72.4,9.34a.31.31,0,0,1-.07-.08l-.06-.07s0,0,0,0l0-.05a.29.29,0,0,1,0-.09.09.09,0,0,1,0-.05.08.08,0,0,1,0,0l.08-.07h0a.28.28,0,0,1,0,.08V9a0,0,0,0,1,0,.05v.13a.43.43,0,0,0,0,0l0,.08a.22.22,0,0,0,0,.07Z"/><path class="cls-11" d="M71.63,8.35a1.4,1.4,0,0,1,.06.28,1.31,1.31,0,0,1,0,.28l0,.14a.58.58,0,0,1,0,.14l0,.07a.25.25,0,0,1,0,.07l0,.06-.06.07-.06,0a.54.54,0,0,0,.24-.12.61.61,0,0,0,.16-.16A1.79,1.79,0,0,0,72,8.81a2.79,2.79,0,0,0,.18-.34l.17-.36h0a2.58,2.58,0,0,1-.09.35,2.13,2.13,0,0,1-.14.35,1.56,1.56,0,0,1-.24.35,1.49,1.49,0,0,1-.18.17.81.81,0,0,1-.28.13l-.13,0,.06-.06.06-.06,0-.06,0-.07,0-.07a.69.69,0,0,0,0-.13l0-.14a.89.89,0,0,0,0-.28,1,1,0,0,0,0-.28Z"/><path class="cls-11" d="M73.73,8.27a.83.83,0,0,1,0,.15.38.38,0,0,1,0,.15.85.85,0,0,1-.06.31,1,1,0,0,1-.17.29,1.07,1.07,0,0,1-.16.14.67.67,0,0,1-.24.12l-.07,0a.64.64,0,0,0,.25-.17s0,0,0-.05a0,0,0,0,0,0,0,.05.05,0,0,0,0-.05l0-.05.06,0,0,0a.14.14,0,0,1,0,.06.13.13,0,0,1,0,.06.61.61,0,0,1-.24.19l-.06,0a.75.75,0,0,0,.2-.11.62.62,0,0,0,.14-.14,1,1,0,0,0,.18-.28,1.18,1.18,0,0,0,.1-.3A1.53,1.53,0,0,0,73.73,8.27Z"/><path class="cls-11" d="M71,9.46l-.08-.09s0,0,0,0l0-.05,0,0a.13.13,0,0,1,0-.06V9.11a.13.13,0,0,1,0-.06.43.43,0,0,1,0-.05l0-.05.1-.08h0A.16.16,0,0,1,71,9s0,0,0,0v.15s0,0,0,.06v0s0,0,0,.05,0,0,0,0a.39.39,0,0,0,0,.1Z"/><path class="cls-11" d="M70.61,9s0,0,0,0h0l0,0-.08,0-.12.09a.48.48,0,0,0-.13.21l0,.06,0-.06a.32.32,0,0,1,0-.09V9.06c0-.12,0-.24,0-.36a1.55,1.55,0,0,1,.08-.36l.07-.18A1,1,0,0,1,70.46,8h0a1.27,1.27,0,0,0-.06.18l0,.18-.08.35-.06.36v.27a.11.11,0,0,0,0,.08h-.06a.49.49,0,0,1,.16-.2l.14-.09.08,0,0,0h0s0,0,0,0Z"/><path class="cls-11" d="M69.4,9.44s0-.09,0-.23a3.37,3.37,0,0,1,.05-.5,2,2,0,0,1,.08-.26l.06-.13a.61.61,0,0,1,.07-.1l.07-.09.06-.07L69.83,8h0l0,.06,0,.07a.39.39,0,0,0,0,.09s0,.07,0,.1l-.05.12-.1.27a4.27,4.27,0,0,0-.1.49c0,.14,0,.23,0,.23Z"/><path class="cls-11" d="M67.49,9.24s.1-.09.22-.22l.2-.22a2.69,2.69,0,0,0,.2-.27l.08-.13.06-.13a1.39,1.39,0,0,0,.06-.13.49.49,0,0,0,0-.11.32.32,0,0,0,0-.09s0-.06,0-.08a.28.28,0,0,0,0-.06h0l0,.06,0,0v0a.27.27,0,0,1,0,.09s0,.08,0,.12,0,.08,0,.13a.46.46,0,0,1-.08.13,1.1,1.1,0,0,1-.09.14,2.75,2.75,0,0,1-.22.26L67.75,9a3,3,0,0,1-.25.21Z"/><path class="cls-11" d="M67.39,9.06l0-.08s0-.05,0-.08a.06.06,0,0,1,0,0v0a.31.31,0,0,1,0-.1l0,0s0,0,0,0a.46.46,0,0,1,.11-.07h0a.2.2,0,0,1,0,.08l0,0a.06.06,0,0,1,0,0s0,0,0,0l0,.05V9a.28.28,0,0,0,0,.08Z"/><path class="cls-11" d="M67.13,8c0,.08-.08.18-.13.27a1.28,1.28,0,0,1-.16.27,1.47,1.47,0,0,1-.1.13.86.86,0,0,1-.14.13l-.08.06L66.43,9l-.1.06-.12.05-.07,0A1.36,1.36,0,0,0,66.53,9a1,1,0,0,0,.28-.14,3.93,3.93,0,0,0,.38-.31l.32-.32.31-.33h0l-.23.34c-.1.11-.19.22-.3.33a2.57,2.57,0,0,1-.39.32,1.13,1.13,0,0,1-.27.14,1.62,1.62,0,0,1-.46.09H66l.11,0,.12,0,.11-.05.1-.06.09-.06.14-.12a.71.71,0,0,0,.12-.13A1.48,1.48,0,0,0,67,8.3,2.43,2.43,0,0,0,67.12,8Z"/><path class="cls-11" d="M69.05,8.1a.75.75,0,0,1,0,.15l0,.15a1.17,1.17,0,0,1-.14.3,1,1,0,0,1-.26.29.7.7,0,0,1-.19.13,1,1,0,0,1-.29.1l-.06,0A.6.6,0,0,0,68.39,9l0,0a.43.43,0,0,1,0-.05.14.14,0,0,0,0-.06s0,0,0-.05,0,0,0,.05a.09.09,0,0,1,0,.06,0,0,0,0,1,0,.05.14.14,0,0,1,0,.06.76.76,0,0,1-.3.17l-.06,0a.81.81,0,0,0,.25-.09L68.52,9a1.62,1.62,0,0,0,.25-.28,1.46,1.46,0,0,0,.17-.29A1.21,1.21,0,0,0,69.05,8.1Z"/><path class="cls-10" d="M84.34,7.68s-.15.49-8.1.49-8.87-.67-8.87-.67a1.45,1.45,0,0,0-1.12,1.55C73,13.76,85,9.71,85.43,9.23,85.6,8.1,84.34,7.68,84.34,7.68Z"/><path class="cls-4" d="M100.46,32c0-.2,0-.41,0-.62.07-4.4-.67-11.38,2.32-17.86-6.43-2.92-17.35-4.86-17.35-4.86s-1,.87-7.77,1C85.11,13.68,94.8,21.67,100.46,32Z"/><path class="cls-4" d="M100.69,36.54a35.9,35.9,0,0,1-.23-4.53C94.8,21.67,85.11,13.68,77.67,9.64H76.38c-.8,0-1.53,0-2.22,0-7.76,4.2-18,12.71-23.52,23.71,0,.2,0,.4,0,.59a18.41,18.41,0,0,1-.32,2.25s-4,25.91-2.14,28.65c1.77,3.28,3.25,3.68,4.33,3.75,8.37-.81,30.32-1.94,47.72.24a2.62,2.62,0,0,0,2.45-2.24C103.53,63,100.69,36.54,100.69,36.54Z"/><path class="cls-4" d="M74.16,9.62c-6.12-.17-7.86-1-7.86-1s-13.42,3.45-19.78,6.53a33.68,33.68,0,0,1,4.12,18.17C56.19,22.33,66.4,13.82,74.16,9.62Z"/><path class="cls-4" d="M100.34,82.53c-.61-2-1.77-5.1-2.59-7.91-7.62,1.52-28.54,2.32-44.33.55-.91,2.48-2.17,5.12-2.87,6.82C52.64,82.57,61,84.6,76.2,84.6S98.66,83,100.34,82.53Z"/><path class="cls-1" d="M76.2,84.6c-15.2,0-23.56-2-25.65-2.61A6.3,6.3,0,0,0,50,83.61s8.43,2.77,26.18,2.77,24.54-2.19,24.54-2.19a7.86,7.86,0,0,0-.4-1.66C98.66,83,91.51,84.6,76.2,84.6Z"/><path class="cls-11" d="M74.75,67.66a2.53,2.53,0,0,1-.29-.2.58.58,0,0,1-.12-.1l-.13-.11a1.47,1.47,0,0,0-.1-.13L74,67l-.08-.14a.39.39,0,0,1-.05-.14.59.59,0,0,1,0-.13.27.27,0,0,1,0-.12.87.87,0,0,1,.12-.24h0a.88.88,0,0,1,.09.23.53.53,0,0,0,0,.12.24.24,0,0,1,0,.12s0,.09,0,.13l0,.14a.75.75,0,0,0,.06.13l.07.13.09.12a1,1,0,0,0,.08.11,2.24,2.24,0,0,0,.22.21Z"/><path class="cls-11" d="M73.31,66.74s.07,0,.08,0l0,0-.07.07a.8.8,0,0,0-.13.13,1.15,1.15,0,0,0-.19.26.9.9,0,0,0-.09.55l0,.16-.16-.14a1.46,1.46,0,0,1-.17-.22l-.12-.22a4.54,4.54,0,0,1-.21-.45c-.13-.3-.24-.6-.34-.9a4.14,4.14,0,0,1-.21-.91,3.55,3.55,0,0,1,0-.46,1.47,1.47,0,0,1,.07-.46h0c0,.15,0,.3.08.45l.11.46.25.9c.07.3.16.6.26.9a3.38,3.38,0,0,0,.18.44l.1.23a.9.9,0,0,0,.14.2l-.14,0a1,1,0,0,1,.16-.56,1.05,1.05,0,0,1,.22-.26.86.86,0,0,1,.14-.13l.07-.06,0,0a0,0,0,0,0,0,0Z"/><path class="cls-11" d="M70.87,68.08a5.55,5.55,0,0,1-.3-.56,6.44,6.44,0,0,1-.46-1.25,5.87,5.87,0,0,1-.14-.68v-.32c0-.1,0-.19,0-.28s.06-.17.07-.24a1.59,1.59,0,0,1,.08-.18l.09-.16h0s0,.06,0,.16,0,.11,0,.18V65a2.72,2.72,0,0,0,0,.28c0,.1,0,.2,0,.31s0,.45.07.67a7.17,7.17,0,0,0,.33,1.26,5.08,5.08,0,0,0,.22.57Z"/><path class="cls-11" d="M66.15,68.09a4.41,4.41,0,0,0,.23-.59c.06-.18.12-.39.18-.62a5.11,5.11,0,0,0,.12-.7,2.17,2.17,0,0,0,0-.36,1.9,1.9,0,0,0,0-.34c0-.11,0-.22,0-.32a1.25,1.25,0,0,0,0-.29,1.37,1.37,0,0,0-.07-.24.61.61,0,0,0-.08-.18l-.08-.17h0l.15.15.08.08.06.1a1.38,1.38,0,0,1,.14.24,2.47,2.47,0,0,1,.1.29,1.88,1.88,0,0,1,0,.33,2.17,2.17,0,0,1,0,.36,2.39,2.39,0,0,1,0,.36,5.12,5.12,0,0,1-.18.7,6.35,6.35,0,0,1-.25.61,5.7,5.7,0,0,1-.3.59Z"/><path class="cls-11" d="M65.7,67.69a2.4,2.4,0,0,1-.2-.18,1.09,1.09,0,0,1-.18-.19l-.09-.11-.07-.12a1.74,1.74,0,0,1-.11-.25v-.11a.29.29,0,0,1,0-.1,1,1,0,0,1,.15-.21h0a.57.57,0,0,1,.06.2.54.54,0,0,0,0,.1.3.3,0,0,1,0,.1.37.37,0,0,0,0,.11l0,.12s0,.08,0,.12a1.17,1.17,0,0,0,0,.11,1.2,1.2,0,0,0,.11.2,2.29,2.29,0,0,0,.13.2Z"/><path class="cls-11" d="M63.39,65.23a3.83,3.83,0,0,1,.27.71,3.38,3.38,0,0,1,.1.71c0,.12,0,.24,0,.36a2.33,2.33,0,0,1-.08.36,1.27,1.27,0,0,1-.06.18,1.42,1.42,0,0,1-.08.18s-.05.11-.09.17l-.12.17L63.14,68a1.4,1.4,0,0,0,.56-.34,2.11,2.11,0,0,0,.34-.41,4.9,4.9,0,0,0,.4-.88c.11-.3.22-.6.3-.9l.25-.9h0a7.11,7.11,0,0,1-.06.92,5.86,5.86,0,0,1-.21.9,3.74,3.74,0,0,1-.44.9,2.44,2.44,0,0,1-.38.43,1.85,1.85,0,0,1-.66.37l-.28.09L63.1,68l.12-.17.1-.17a.91.91,0,0,0,.09-.17c0-.06.05-.12.07-.17s.07-.24.1-.36,0-.23,0-.35a3.39,3.39,0,0,0,0-.71,3.22,3.22,0,0,0-.22-.71Z"/><path class="cls-11" d="M68.47,64.84a1.8,1.8,0,0,1,.16.38,1.64,1.64,0,0,1,.1.38,2.28,2.28,0,0,1,0,.78,2.07,2.07,0,0,1-.29.78,1.74,1.74,0,0,1-.31.37,2,2,0,0,1-.55.34l-.17-.08a1.09,1.09,0,0,0,.52-.46.35.35,0,0,0,0-.13.31.31,0,0,0,0-.13.51.51,0,0,0-.09-.13l-.14-.11.18.1a.53.53,0,0,1,.13.13.28.28,0,0,1,.07.13.33.33,0,0,1,0,.14c0,.2-.24.37-.49.53l-.17-.08a1.41,1.41,0,0,0,.45-.3,1.53,1.53,0,0,0,.28-.36,2.16,2.16,0,0,0,.29-.75,3.27,3.27,0,0,0,.08-.76A5,5,0,0,0,68.47,64.84Z"/><path class="cls-11" d="M62.29,68.11a2.54,2.54,0,0,1-.23-.22.48.48,0,0,1-.09-.11.94.94,0,0,1-.09-.12s-.05-.09-.07-.14a.39.39,0,0,1-.05-.14l0-.15a.33.33,0,0,1,0-.14.51.51,0,0,1,0-.13.45.45,0,0,1,.06-.12,1.25,1.25,0,0,1,.19-.23h0a.73.73,0,0,1,0,.24A.4.4,0,0,0,62,67v.12l0,.14v.14a.57.57,0,0,0,0,.13s0,.1,0,.14a3578706735156.79,3578706735156.79,0,0,0,.1.24,1,1,0,0,0,.16.22Z"/><path class="cls-11" d="M61.14,67.08s.07,0,.07,0,0,0,0,0l-.09.06-.16.11a3.08,3.08,0,0,0-.26.24,1.12,1.12,0,0,0-.23.53l0,.17-.11-.16a.8.8,0,0,1-.11-.23l-.06-.23c0-.15-.06-.3-.08-.46s-.07-.61-.09-.92a4,4,0,0,1,0-.91,2.36,2.36,0,0,1,.1-.46,1.6,1.6,0,0,1,.19-.45h0a3.44,3.44,0,0,0-.05.45v1.37c0,.31,0,.61,0,.92,0,.15,0,.3.05.46l0,.22a.83.83,0,0,0,.08.22h-.14a1.15,1.15,0,0,1,.31-.54,1.11,1.11,0,0,1,.28-.24l.18-.11.09-.06,0,0s0,0,0,0Z"/><path class="cls-11" d="M58.49,68.2s-.08-.23-.17-.58a9.44,9.44,0,0,1-.2-1.27,4,4,0,0,1,0-.69,2.84,2.84,0,0,1,.06-.31c0-.1.07-.2.1-.28a2.6,2.6,0,0,1,.13-.24,1,1,0,0,1,.12-.17l.12-.15h0a.87.87,0,0,1,0,.16s0,.11-.05.18l0,.24a2.16,2.16,0,0,0-.05.27c0,.1,0,.2,0,.31s-.06.45-.07.68a9.61,9.61,0,0,0,.07,1.27c0,.35.08.58.08.58Z"/><path class="cls-11" d="M55,68.16s0-.23-.12-.59c0-.18,0-.39-.09-.62s0-.47-.1-.71a2.49,2.49,0,0,0-.08-.35,1.91,1.91,0,0,0-.1-.34,2.83,2.83,0,0,0-.11-.31,1,1,0,0,0-.13-.28,1,1,0,0,0-.15-.23.66.66,0,0,0-.16-.17l-.17-.14,0,0a1.68,1.68,0,0,1,.26.13l.13.07.11.09a1,1,0,0,1,.23.23,1.34,1.34,0,0,1,.18.28,1.24,1.24,0,0,1,.12.32,2,2,0,0,1,.06.35c0,.12,0,.24,0,.37s0,.48,0,.7,0,.45,0,.63a5.63,5.63,0,0,0,.06.59Z"/><path class="cls-11" d="M54.55,67.81l-.22-.14a2.5,2.5,0,0,1-.24-.16L54,67.42l-.13-.1a1.82,1.82,0,0,1-.25-.2A.76.76,0,0,1,53.5,67a.21.21,0,0,1-.06-.1.41.41,0,0,1,0-.21h0a.89.89,0,0,1,.19.17l.08.09.09.09s0,.07.08.11l.08.1.1.11.11.09.19.18.18.16Z"/><path class="cls-11" d="M50.61,66.28a5.12,5.12,0,0,1,1,.45,5.19,5.19,0,0,1,.81.54,3.37,3.37,0,0,1,.36.3c.11.1.22.2.32.31l.15.16.14.16.14.16.14.16h-.15a.76.76,0,0,0-.08-.4c-.07-.15-.14-.28-.22-.42l-.5-.85c-.17-.29-.31-.59-.46-.89,0,0-.1-.22-.19-.44s-.15-.45-.15-.45h0c.21.28.38.56.56.85s.32.58.47.87.3.6.44.89.13.3.18.44a.76.76,0,0,1,.06.44l0,.13-.11-.14-.13-.15-.14-.16-.14-.16L53,67.92c-.1-.11-.21-.21-.31-.31l-.35-.3a6,6,0,0,0-.78-.55,5.26,5.26,0,0,0-.95-.47Z"/><path class="cls-11" d="M56.59,64.85a1.8,1.8,0,0,1,.16.38,1.78,1.78,0,0,1,.07.39,2.21,2.21,0,0,1,0,.77,2.78,2.78,0,0,1-.3.78,2.19,2.19,0,0,1-.25.37,1.9,1.9,0,0,1-.4.33l-.13-.07a1.29,1.29,0,0,0,.35-.47.5.5,0,0,0,0-.12.28.28,0,0,0,0-.13A.6.6,0,0,0,56,67l-.14-.12.17.11.13.12a.42.42,0,0,1,.06.14.34.34,0,0,1,0,.14,1.07,1.07,0,0,1-.34.52l-.13-.07a2.2,2.2,0,0,0,.3-.31,1.86,1.86,0,0,0,.22-.35,3.36,3.36,0,0,0,.27-.75,4,4,0,0,0,.12-.76A3.29,3.29,0,0,0,56.59,64.85Z"/><path class="cls-11" d="M53.8,75.66a1.2,1.2,0,0,1,.19.2l.06.1a.41.41,0,0,1,.07.11s0,.08.05.13a.5.5,0,0,1,0,.13l0,.13a.4.4,0,0,1,0,.25s0,.07-.06.11A1.29,1.29,0,0,1,54,77h0a.65.65,0,0,1,0-.22s0-.06,0-.1,0-.07,0-.11a.5.5,0,0,0,0-.13v-.12a.56.56,0,0,0,0-.13l0-.12a.53.53,0,0,0,0-.12.42.42,0,0,0,0-.1,1,1,0,0,0-.11-.21Z"/><path class="cls-11" d="M54.74,76.59s-.07,0-.06,0l0,0,.08-.05.15-.11a1,1,0,0,0,.24-.22,1,1,0,0,0,.25-.49l0-.15.09.14a.6.6,0,0,1,.08.21l0,.21a3,3,0,0,1,0,.42c0,.28,0,.56.05.84a4,4,0,0,1-.08.84,3,3,0,0,1-.11.43,1.73,1.73,0,0,1-.2.41h0a3.07,3.07,0,0,0,.07-.42l0-.42,0-.83a7.86,7.86,0,0,0,0-.84c0-.14,0-.28,0-.42l0-.21a1.17,1.17,0,0,0-.06-.2h.12a1.1,1.1,0,0,1-.3.5,1.25,1.25,0,0,1-.27.23l-.16.1-.08,0s0,0,0,0h0Z"/><path class="cls-11" d="M57.22,75.54s.06.2.12.52a5.86,5.86,0,0,1,.09,1.17,4.35,4.35,0,0,1,0,.63c0,.1,0,.2-.08.29s-.08.17-.11.25a2.14,2.14,0,0,1-.13.22.67.67,0,0,1-.12.16l-.12.14h0l0-.14a1.62,1.62,0,0,0,.06-.17c0-.06,0-.13.07-.21s0-.17.06-.26,0-.18.05-.28a5.67,5.67,0,0,0,.12-.62,7.69,7.69,0,0,0,0-1.16c0-.32,0-.53,0-.53Z"/><path class="cls-11" d="M61.25,75.71s-.13.22-.28.54c-.08.16-.17.35-.25.56a6,6,0,0,0-.22.64,1.94,1.94,0,0,0-.07.33c0,.11,0,.21,0,.31s0,.2,0,.3a1.13,1.13,0,0,0,0,.26.75.75,0,0,0,0,.22.58.58,0,0,0,.05.17l0,.15h0l-.12-.14a.21.21,0,0,0-.06-.08l0-.09a.79.79,0,0,1-.09-.23,1.93,1.93,0,0,1,0-.27,1,1,0,0,1,0-.3,1.32,1.32,0,0,1,.07-.32c0-.11.07-.22.11-.33s.18-.44.28-.65.21-.39.31-.55c.2-.32.36-.53.36-.53Z"/><path class="cls-11" d="M61.59,76.09a1.07,1.07,0,0,1,.15.17.83.83,0,0,1,.13.18.53.53,0,0,1,.06.1l.06.11a1,1,0,0,1,.06.23.36.36,0,0,1,0,.1.29.29,0,0,1,0,.1,1.2,1.2,0,0,1-.16.18h0a.59.59,0,0,1,0-.19s0-.06,0-.09v-.31l0-.11a.38.38,0,0,0,0-.1c0-.07,0-.13-.07-.19a.82.82,0,0,0-.09-.18Z"/><path class="cls-11" d="M63.43,78.35a2.66,2.66,0,0,1-.21-.64,2.93,2.93,0,0,1,0-.66c0-.11,0-.22,0-.33a2,2,0,0,1,.09-.33,1,1,0,0,1,.06-.16l.08-.16.1-.17.1-.16.15.06a1.43,1.43,0,0,0-.5.31,1.91,1.91,0,0,0-.33.38,6.45,6.45,0,0,0-.44.81c-.12.27-.25.55-.36.82l-.35.83h0a6.25,6.25,0,0,1,.17-.84,7.48,7.48,0,0,1,.29-.83,4.07,4.07,0,0,1,.48-.82,2.28,2.28,0,0,1,.37-.4,1.74,1.74,0,0,1,.58-.34l.24-.08-.1.13-.11.16s-.06.1-.1.15l-.08.16-.07.16a2.13,2.13,0,0,0-.11.33,1.65,1.65,0,0,0-.06.32,2.84,2.84,0,0,0,0,.65,2.57,2.57,0,0,0,.16.65Z"/><path class="cls-11" d="M58.6,78.62a1.53,1.53,0,0,1-.07-.36,1.37,1.37,0,0,1,0-.35,2.32,2.32,0,0,1,.15-.72,2.55,2.55,0,0,1,.41-.7,2.81,2.81,0,0,1,.35-.33,2.08,2.08,0,0,1,.54-.28l.13.08a1.31,1.31,0,0,0-.54.4.61.61,0,0,0-.05.12.24.24,0,0,0,0,.12.3.3,0,0,0,.06.11.53.53,0,0,0,.1.12l-.14-.11a.34.34,0,0,1-.09-.12.27.27,0,0,1,0-.12.19.19,0,0,1,0-.13,1.14,1.14,0,0,1,.52-.46l.14.08a1.4,1.4,0,0,0-.45.26,1.82,1.82,0,0,0-.31.31,2.81,2.81,0,0,0-.41.67,3.82,3.82,0,0,0-.23.7A4.18,4.18,0,0,0,58.6,78.62Z"/><path class="cls-11" d="M64.54,75.7a1.38,1.38,0,0,1,.19.19l.07.1a.83.83,0,0,1,.08.12.61.61,0,0,0,.05.12.35.35,0,0,1,0,.13l0,.13a.3.3,0,0,1,0,.13.47.47,0,0,1-.07.23,1.29,1.29,0,0,1-.18.21h0a.61.61,0,0,1,0-.22s0-.06,0-.1a.48.48,0,0,1,0-.12.5.5,0,0,0,0-.12v-.12a.28.28,0,0,0,0-.13l0-.13s0-.07,0-.11a.42.42,0,0,0,0-.1.75.75,0,0,0-.13-.2Z"/><path class="cls-11" d="M65.52,76.62s-.06,0-.06,0l0,0,.07,0,.15-.11a1.19,1.19,0,0,0,.22-.23,1,1,0,0,0,.2-.49v-.15l.11.14a1,1,0,0,1,.1.21l.05.21.09.42c.05.28.08.56.11.84a3.37,3.37,0,0,1,0,.84,3.07,3.07,0,0,1-.07.42,1.85,1.85,0,0,1-.17.42h0a2,2,0,0,0,0-.42V78.2l0-.84a7.69,7.69,0,0,0,0-.83c0-.14,0-.28,0-.42l0-.21a.77.77,0,0,0-.08-.19h.12a1,1,0,0,1-.25.5,1.86,1.86,0,0,1-.25.22l-.16.11-.07,0,0,0s0,0,0,0Z"/><path class="cls-11" d="M67.84,75.51s.08.21.17.52a7.37,7.37,0,0,1,.25,1.15,4.64,4.64,0,0,1,0,.63,2.54,2.54,0,0,1,0,.29c0,.09-.06.18-.08.26s-.07.15-.1.22a1,1,0,0,1-.11.17l-.1.14h0a1.31,1.31,0,0,1,0-.14s0-.1,0-.17,0-.13,0-.21l0-.26a2.64,2.64,0,0,1,0-.28q0-.3,0-.63A8.67,8.67,0,0,0,67.92,76c0-.32-.1-.53-.1-.53Z"/><path class="cls-11" d="M71.73,75.48s-.08.22-.17.56c0,.16-.08.35-.12.56a4.62,4.62,0,0,0-.08.65,1.82,1.82,0,0,0,0,.33c0,.1,0,.21,0,.31a2.54,2.54,0,0,0,0,.29,1,1,0,0,0,0,.26,1.94,1.94,0,0,0,.07.22.68.68,0,0,0,.09.17l.08.14h0l-.15-.13-.08-.07-.07-.09a.67.67,0,0,1-.13-.22,1.19,1.19,0,0,1-.11-.26,1.57,1.57,0,0,1-.05-.3,1.71,1.71,0,0,1,0-.32c0-.11,0-.23,0-.34a4.69,4.69,0,0,1,.14-.65,5.43,5.43,0,0,1,.19-.57,5.75,5.75,0,0,1,.23-.55Z"/><path class="cls-11" d="M72.14,75.83a1.4,1.4,0,0,1,.19.16.91.91,0,0,1,.17.17.43.43,0,0,1,.09.1l.07.1a1.64,1.64,0,0,1,.12.22.34.34,0,0,1,0,.1s0,.07,0,.1a.79.79,0,0,1-.13.19h0a.6.6,0,0,1-.07-.19l0-.08a.3.3,0,0,1,0-.1s0-.06,0-.1l0-.11,0-.1,0-.1c0-.07-.07-.13-.11-.18a1.08,1.08,0,0,0-.13-.17Z"/><path class="cls-11" d="M74.48,78A2.8,2.8,0,0,1,74,76.69,2.19,2.19,0,0,1,74,76a1,1,0,0,1,0-.17,1,1,0,0,1,0-.16l0-.17.08-.16.16,0a1.12,1.12,0,0,0-.44.34,1.9,1.9,0,0,0-.25.4,4.88,4.88,0,0,0-.26.82c-.07.28-.13.55-.18.83l-.16.84h0A5.4,5.4,0,0,1,73.09,77a3,3,0,0,1,.3-.84,2.13,2.13,0,0,1,.28-.41,1.46,1.46,0,0,1,.52-.38l.23-.1-.07.15-.08.16s0,.1-.07.16a.75.75,0,0,0,0,.16l0,.16c0,.11,0,.22,0,.32s0,.22,0,.33a2.8,2.8,0,0,0,.13.64,2.56,2.56,0,0,0,.29.63Z"/><path class="cls-11" d="M69.67,78.51a2.55,2.55,0,0,1-.14-.35,1.45,1.45,0,0,1-.07-.35,2.14,2.14,0,0,1,.3-1.43A1.61,1.61,0,0,1,70,76a1.36,1.36,0,0,1,.46-.3l.15.06a1,1,0,0,0-.44.43.26.26,0,0,0,0,.24.33.33,0,0,0,.08.11.58.58,0,0,0,.12.1l-.16-.09a.38.38,0,0,1-.11-.11.31.31,0,0,1-.06-.13.29.29,0,0,1,0-.13,1,1,0,0,1,.41-.48l.15.07a1.17,1.17,0,0,0-.38.28,1.67,1.67,0,0,0-.24.32,2.47,2.47,0,0,0-.27.69,3.4,3.4,0,0,0-.11.7A5.63,5.63,0,0,0,69.67,78.51Z"/><path class="cls-11" d="M77.32,76.26a1,1,0,0,1,.19.19l.08.1a.6.6,0,0,1,.06.11l.06.13a.5.5,0,0,1,0,.13l0,.13a.57.57,0,0,1,0,.13.27.27,0,0,1,0,.12s0,.07,0,.11a1.09,1.09,0,0,1-.19.21h0a.51.51,0,0,1,0-.22s0-.07,0-.1a.49.49,0,0,1,0-.12s0-.08,0-.12v-.13a.49.49,0,0,0,0-.12s0-.09,0-.13,0-.08,0-.11a.3.3,0,0,0,0-.1.76.76,0,0,0-.12-.21Z"/><path class="cls-11" d="M78.29,77.17s-.07,0-.07,0l0,0,.07-.05.15-.11a1.33,1.33,0,0,0,.24-.23,1.08,1.08,0,0,0,.23-.5l0-.15.09.14a.64.64,0,0,1,.09.21l0,.21.06.42q0,.42.06.84a3.4,3.4,0,0,1-.06.84,2.13,2.13,0,0,1-.1.42,1.62,1.62,0,0,1-.19.43h0a2,2,0,0,0,.06-.42l0-.42,0-.83a7.85,7.85,0,0,0,0-.84l0-.42,0-.21a.62.62,0,0,0-.07-.19l.13,0a1.2,1.2,0,0,1-.29.51,1.47,1.47,0,0,1-.26.23l-.16.11-.09,0,0,0h0Z"/><path class="cls-11" d="M80.75,76.06s.06.2.12.52A5.67,5.67,0,0,1,81,77.74a3.25,3.25,0,0,1,0,.63,2.46,2.46,0,0,1-.07.29l-.1.26-.12.22a1.11,1.11,0,0,1-.12.16,1.22,1.22,0,0,1-.12.15h0a.75.75,0,0,1,0-.14s0-.11.05-.17l.06-.22c0-.07,0-.16.06-.25s0-.19.05-.29a5.74,5.74,0,0,0,.1-.62,7.45,7.45,0,0,0,0-1.16c0-.32-.06-.53-.06-.53Z"/><path class="cls-11" d="M84.78,76.14s-.13.22-.28.55c-.07.16-.15.35-.23.56a6.18,6.18,0,0,0-.21.65c0,.11,0,.22-.06.32s0,.22,0,.32,0,.2,0,.3a1.13,1.13,0,0,0,0,.26,1.3,1.3,0,0,0,0,.22.69.69,0,0,0,0,.17,1.26,1.26,0,0,0,.06.15h0l-.13-.13s0-.05-.06-.08l0-.09a.88.88,0,0,1-.1-.22c0-.09,0-.18,0-.27a1.63,1.63,0,0,1,0-.31,2,2,0,0,1,.06-.32,2.13,2.13,0,0,1,.11-.33,6.29,6.29,0,0,1,.26-.65c.1-.21.21-.4.3-.56.19-.33.34-.54.34-.54Z"/><path class="cls-11" d="M85.12,76.51a1.94,1.94,0,0,1,.16.16,1.41,1.41,0,0,1,.14.18l.06.11a.47.47,0,0,0,0,.1,1.11,1.11,0,0,1,.07.22.37.37,0,0,1,0,.11.38.38,0,0,1,0,.1,1.2,1.2,0,0,1-.16.18h0a.59.59,0,0,1,0-.19.31.31,0,0,0,0-.08v-.1s0-.07,0-.1v-.11l0-.11a.45.45,0,0,0,0-.11c0-.06,0-.13-.07-.18a1.18,1.18,0,0,0-.1-.18Z"/><path class="cls-11" d="M87,78.73a2.7,2.7,0,0,1-.22-.64,2.89,2.89,0,0,1-.05-.66c0-.11,0-.22,0-.33a2,2,0,0,1,.09-.33,1,1,0,0,1,.06-.16,1.22,1.22,0,0,1,.07-.17l.09-.16.11-.16.14,0a1.39,1.39,0,0,0-.49.32,2.12,2.12,0,0,0-.31.39,5.85,5.85,0,0,0-.43.82c-.12.28-.24.55-.34.83l-.33.83h0a4.94,4.94,0,0,1,.15-.84,6.82,6.82,0,0,1,.27-.84,4.07,4.07,0,0,1,.46-.83,2.21,2.21,0,0,1,.36-.4,1.8,1.8,0,0,1,.57-.36l.24-.09-.09.14-.11.16a4858661489979.05,4858661489979.05,0,0,0-.18.32.76.76,0,0,0-.06.16,1.46,1.46,0,0,0-.1.32,1.91,1.91,0,0,0-.06.33,2.82,2.82,0,0,0,0,.65,2.42,2.42,0,0,0,.17.64Z"/><path class="cls-11" d="M82.19,79.1a3.59,3.59,0,0,1-.08-.35,2.06,2.06,0,0,1,0-.35,2.3,2.3,0,0,1,.14-.72,2.38,2.38,0,0,1,.39-.71,3.63,3.63,0,0,1,.34-.34,2.17,2.17,0,0,1,.53-.29l.14.07a1.24,1.24,0,0,0-.53.42.54.54,0,0,0,0,.11.17.17,0,0,0,0,.12.23.23,0,0,0,.06.12.5.5,0,0,0,.1.11.71.71,0,0,1-.14-.1.47.47,0,0,1-.09-.12.27.27,0,0,1,0-.25,1.07,1.07,0,0,1,.51-.47l.13.07a1.66,1.66,0,0,0-.43.27,2.33,2.33,0,0,0-.31.32,3.13,3.13,0,0,0-.39.68,3,3,0,0,0-.21.71A4.17,4.17,0,0,0,82.19,79.1Z"/><path class="cls-11" d="M87.92,75a2.4,2.4,0,0,1,.2.18l.07.1a.76.76,0,0,1,.08.11.38.38,0,0,0,.06.13.5.5,0,0,1,0,.13l0,.13a.28.28,0,0,1,0,.13.5.5,0,0,1,0,.12.18.18,0,0,1-.05.11,1,1,0,0,1-.17.21h0a.61.61,0,0,1,0-.22.34.34,0,0,0,0-.1v-.12a.5.5,0,0,0,0-.12v-.13a.25.25,0,0,0,0-.12s0-.09,0-.12,0-.08,0-.12l0-.1a1.42,1.42,0,0,0-.14-.2Z"/><path class="cls-11" d="M88.92,75.89s-.06,0-.06,0l0,0,.07,0,.14-.11a2.28,2.28,0,0,0,.22-.23.94.94,0,0,0,.19-.5V74.8l.11.14a1.24,1.24,0,0,1,.1.2l.06.21.1.42c0,.28.1.55.13.83a3.44,3.44,0,0,1,0,.85,2,2,0,0,1-.07.42,1.42,1.42,0,0,1-.15.42h0a3,3,0,0,0,0-.42v-.42l0-.83a7.89,7.89,0,0,0,0-.84l-.06-.42,0-.2a.7.7,0,0,0-.08-.2h.12a1.08,1.08,0,0,1-.24.51,1.75,1.75,0,0,1-.24.23L89,75.8l-.08,0,0,0h0Z"/><path class="cls-11" d="M91.21,74.73a5.44,5.44,0,0,1,.19.51,7.24,7.24,0,0,1,.27,1.15,3.44,3.44,0,0,1,.06.63,2.54,2.54,0,0,1,0,.29c0,.09,0,.18-.07.26s-.07.16-.09.22a1.28,1.28,0,0,1-.1.17l-.11.14h0a1,1,0,0,0,0-.15.65.65,0,0,0,0-.16c0-.07,0-.14,0-.22s0-.17,0-.25,0-.19,0-.29,0-.41,0-.62a8.67,8.67,0,0,0-.15-1.16c-.06-.31-.12-.52-.12-.52Z"/><path class="cls-11" d="M95.1,74.61s-.07.22-.15.56a5.8,5.8,0,0,0-.11.57,6.27,6.27,0,0,0-.07.64c0,.12,0,.22,0,.33l0,.32a2.54,2.54,0,0,0,0,.29,2,2,0,0,0,.06.26c0,.08.06.15.08.21a.68.68,0,0,0,.09.17,1.1,1.1,0,0,0,.09.14h0L95,78l-.08-.07-.07-.09a1.1,1.1,0,0,1-.14-.21,1.19,1.19,0,0,1-.11-.26,1.59,1.59,0,0,1-.06-.3,1.69,1.69,0,0,1,0-.32l0-.34c0-.22.08-.44.13-.65a5.83,5.83,0,0,1,.17-.58c.12-.33.22-.55.22-.55Z"/><path class="cls-11" d="M95.52,75l.2.15.18.17.08.09a.76.76,0,0,0,.08.11,1.13,1.13,0,0,1,.12.21.41.41,0,0,1,0,.11.28.28,0,0,1,0,.09.8.8,0,0,1-.12.2h0a.6.6,0,0,1-.07-.19s0,0,0-.08a.17.17,0,0,1,0-.1s0-.06,0-.1l0-.1,0-.11,0-.1c0-.06-.08-.13-.12-.18A1.31,1.31,0,0,0,95.5,75Z"/><path class="cls-11" d="M97.9,77a2.93,2.93,0,0,1-.54-1.26,1.65,1.65,0,0,1,0-.32c0-.11,0-.22,0-.34l0-.16a1.35,1.35,0,0,1,.1-.33l.07-.17.16,0a1.1,1.1,0,0,0-.43.35,1.7,1.7,0,0,0-.24.4,5.24,5.24,0,0,0-.25.83q-.09.42-.15.84l-.15.83h0a5.7,5.7,0,0,1,0-.83,6,6,0,0,1,.09-.84,3.08,3.08,0,0,1,.28-.84,2,2,0,0,1,.27-.42,1.43,1.43,0,0,1,.51-.39l.23-.1-.07.14-.08.17-.06.16s0,.11,0,.16a1.1,1.1,0,0,0,0,.16,1.84,1.84,0,0,0,0,.33c0,.11,0,.22,0,.32a2.38,2.38,0,0,0,.15.64,2.58,2.58,0,0,0,.3.63Z"/><path class="cls-11" d="M93.12,77.68a1.68,1.68,0,0,1-.15-.34,1.47,1.47,0,0,1-.08-.35,2.11,2.11,0,0,1,.26-1.43,1.73,1.73,0,0,1,.27-.35,1.37,1.37,0,0,1,.45-.32L94,75a1,1,0,0,0-.43.43.27.27,0,0,0,0,.12.53.53,0,0,0,0,.12.44.44,0,0,0,.09.11.58.58,0,0,0,.12.1,1.29,1.29,0,0,1-.16-.09.29.29,0,0,1-.11-.11.25.25,0,0,1-.07-.12.29.29,0,0,1,0-.13.91.91,0,0,1,.4-.49L94,75a1.72,1.72,0,0,0-.38.29,2.19,2.19,0,0,0-.23.33,2.67,2.67,0,0,0-.25.7,4.06,4.06,0,0,0-.09.7A4.14,4.14,0,0,0,93.12,77.68Z"/><path class="cls-11" d="M99.59,68.55a1,1,0,0,1-.13-.21s0-.07,0-.1a.5.5,0,0,1,0-.12l0-.13s0-.08,0-.13l0-.13a.31.31,0,0,1,0-.12l.07-.11.1-.09a1.65,1.65,0,0,1,.29-.17h0a.59.59,0,0,1-.08.21s0,.06,0,.09a.54.54,0,0,1,0,.11l-.07.11-.06.12a.56.56,0,0,0,0,.12s0,.08,0,.12a.4.4,0,0,0,0,.11.34.34,0,0,0,0,.1.62.62,0,0,0,.05.21Z"/><path class="cls-11" d="M98.91,67.54s.07,0,.06,0,0,0,0,0l-.1,0-.2.07-.35.18a1.33,1.33,0,0,0-.43.42l-.08.14-.05-.15a.5.5,0,0,1,0-.21l0-.2c0-.13.06-.27.09-.4s.15-.54.24-.8a3.47,3.47,0,0,1,.37-.78,2.4,2.4,0,0,1,.27-.38,2.08,2.08,0,0,1,.36-.37h0a2.88,2.88,0,0,0-.22.38l-.18.39-.34.79c-.12.26-.23.52-.32.78a2.64,2.64,0,0,0-.12.4l-.05.2a.61.61,0,0,0,0,.19h-.13a1.48,1.48,0,0,1,.49-.42,2.09,2.09,0,0,1,.37-.17l.22-.08.1,0,0,0s0,0,0,0Z"/><path class="cls-11" d="M95.86,68.17s0-.2,0-.51a5.37,5.37,0,0,1,.28-1.12,3,3,0,0,1,.25-.58l.18-.26.21-.23c.06-.07.15-.13.21-.19l.18-.13L97.4,65h0l-.11.13-.12.15-.14.19-.15.23-.16.26a6.38,6.38,0,0,0-.32.57,8.85,8.85,0,0,0-.42,1.1c-.08.3-.12.51-.12.51Z"/><path class="cls-11" d="M91.63,67.52s.19-.19.44-.49c.12-.14.26-.32.4-.5s.29-.39.41-.59a2.19,2.19,0,0,0,.16-.3c0-.1.09-.2.13-.3a1.92,1.92,0,0,0,.11-.27,1.36,1.36,0,0,0,.07-.25.89.89,0,0,0,0-.22.4.4,0,0,0,0-.16l0-.15h0a.5.5,0,0,1,.11.15l0,.07,0,.1a.78.78,0,0,1,0,.22,2.45,2.45,0,0,1,0,.27,1.52,1.52,0,0,1-.09.28,2.28,2.28,0,0,1-.17.3,2.73,2.73,0,0,1-.21.3,6.61,6.61,0,0,1-.47.58c-.17.18-.33.35-.48.49-.29.29-.5.47-.5.47Z"/><path class="cls-11" d="M91.37,67.13a1.73,1.73,0,0,1-.13-.18.77.77,0,0,1-.1-.18.49.49,0,0,1,0-.11.36.36,0,0,1,0-.11,1.66,1.66,0,0,1,0-.22l0-.1a.24.24,0,0,1,.06-.08,1.49,1.49,0,0,1,.21-.16h0a.45.45,0,0,1,0,.18s0,0,0,.08a.28.28,0,0,1,0,.09.38.38,0,0,0,0,.1l0,.11v.1a.31.31,0,0,0,0,.1,1.08,1.08,0,0,0,0,.19.8.8,0,0,0,.06.18Z"/><path class="cls-11" d="M89.75,64.77a1.83,1.83,0,0,1,.13.64,2.25,2.25,0,0,1-.06.63,1.6,1.6,0,0,1-.1.31,1.82,1.82,0,0,1-.16.31,1.19,1.19,0,0,1-.09.15l-.11.15a1.79,1.79,0,0,0-.13.14l-.14.15L89,67.19a2.51,2.51,0,0,0,.57-.26A3.61,3.61,0,0,0,90,66.6a6.86,6.86,0,0,0,.62-.73c.19-.24.38-.49.56-.74l.55-.75h0a6.68,6.68,0,0,1-.35.78,7,7,0,0,1-.49.76,5.13,5.13,0,0,1-.68.74,2.87,2.87,0,0,1-.46.33,2.73,2.73,0,0,1-.68.28l-.26.06.12-.12.14-.14.13-.15a.76.76,0,0,0,.11-.14l.11-.15c.06-.1.11-.2.16-.3a1.88,1.88,0,0,0,.12-.3,2.27,2.27,0,0,0,.12-.62,1.74,1.74,0,0,0-.08-.64Z"/><path class="cls-11" d="M95.31,65.08a1.37,1.37,0,0,1,0,.35,1.35,1.35,0,0,1-.09.33,2.45,2.45,0,0,1-.38.66,3.2,3.2,0,0,1-.65.61,3.42,3.42,0,0,1-.47.27,2.58,2.58,0,0,1-.66.2l-.12-.09a1.85,1.85,0,0,0,.69-.31A.44.44,0,0,0,93.7,67a.2.2,0,0,0,0-.11.27.27,0,0,0,0-.12.83.83,0,0,0-.08-.12,1.36,1.36,0,0,1,.12.12.25.25,0,0,1,.07.12.29.29,0,0,1,0,.13.24.24,0,0,1-.06.11,1.66,1.66,0,0,1-.69.38l-.12-.09a3.53,3.53,0,0,0,.55-.19,4.28,4.28,0,0,0,.42-.26,4.07,4.07,0,0,0,.64-.59,4.39,4.39,0,0,0,.46-.63A4.33,4.33,0,0,0,95.31,65.08Z"/><path class="cls-11" d="M88.18,67.24,88,67l-.06-.1-.07-.11a1.12,1.12,0,0,0-.05-.13.27.27,0,0,1,0-.12l0-.13a.56.56,0,0,1,0-.13l0-.11a.23.23,0,0,1,.07-.1,1.32,1.32,0,0,1,.21-.2h0a.5.5,0,0,1,0,.21s0,.06,0,.1,0,.07,0,.11,0,.08,0,.12v.12a.24.24,0,0,0,0,.12s0,.08,0,.12,0,.07,0,.11a.29.29,0,0,0,0,.1,1,1,0,0,0,.11.2Z"/><path class="cls-11" d="M87.22,66.29s.07,0,.06,0,0,0,0,0l-.08,0-.16.09a1,1,0,0,0-.24.21.88.88,0,0,0-.22.47l0,.14-.1-.13a1,1,0,0,1-.1-.21l-.06-.2-.09-.4L86,65.55a3.14,3.14,0,0,1,0-.81,1.49,1.49,0,0,1,.08-.4,1.21,1.21,0,0,1,.19-.4h0a1.84,1.84,0,0,0,0,.4v.41c0,.26,0,.53,0,.8s0,.53,0,.8l.06.4,0,.2a.4.4,0,0,0,.07.19h-.12a1,1,0,0,1,.26-.48,1.55,1.55,0,0,1,.28-.2.65.65,0,0,1,.16-.09l.09,0,0,0h0Z"/><path class="cls-11" d="M84.83,67.29l-.23-.5a7.61,7.61,0,0,1-.4-1.12,3.22,3.22,0,0,1-.13-.6,1.32,1.32,0,0,1,0-.28l.06-.25a1,1,0,0,1,.09-.21.58.58,0,0,1,.11-.15l.11-.14h0a.59.59,0,0,0,0,.14,1.23,1.23,0,0,0,0,.16,1.5,1.5,0,0,1,0,.2c0,.08,0,.16,0,.25s0,.17,0,.27a4,4,0,0,0,0,.59,8.22,8.22,0,0,0,.25,1.12l.17.51Z"/><path class="cls-11" d="M80.9,67.43a4.31,4.31,0,0,0,0-.54c0-.15,0-.34,0-.54s-.06-.41-.11-.62a2.81,2.81,0,0,0-.1-.31,2.08,2.08,0,0,0-.12-.3,2.39,2.39,0,0,0-.13-.28,1,1,0,0,0-.14-.24,1.13,1.13,0,0,0-.15-.21,1.06,1.06,0,0,0-.15-.15l-.15-.13h0l.23.12.11.06.11.08a1,1,0,0,1,.22.2,1.59,1.59,0,0,1,.2.24c0,.09.11.19.15.28a3.3,3.3,0,0,1,.13.63c0,.22,0,.43,0,.64s0,.38,0,.54l0,.54Z"/><path class="cls-11" d="M80.36,67.12,80.09,67l-.25-.15-.12-.08-.12-.1a1,1,0,0,1-.21-.19s0-.07-.06-.1,0-.06,0-.09a.41.41,0,0,1,.06-.19h0a.77.77,0,0,1,.15.16s0,.05.07.08l.06.09a.47.47,0,0,0,.06.09l.07.1.09.1.09.09a2.31,2.31,0,0,0,.19.16,1.9,1.9,0,0,0,.2.16Z"/><path class="cls-11" d="M76.92,65.33a4.09,4.09,0,0,1,.66.55,3.66,3.66,0,0,1,.48.59,3.14,3.14,0,0,1,.18.31,2.85,2.85,0,0,1,.12.31.94.94,0,0,1,0,.16l0,.16a.81.81,0,0,1,0,.16v.16l-.19,0a.7.7,0,0,0,.31-.36,1.37,1.37,0,0,0,.09-.4,4.22,4.22,0,0,0-.07-.79c0-.27-.08-.54-.14-.81l-.14-.8h0a6.81,6.81,0,0,1,.35.79,5.9,5.9,0,0,1,.21.8,2.82,2.82,0,0,1,0,.82,1.69,1.69,0,0,1-.13.42.9.9,0,0,1-.37.39l-.2.12v-.3a.85.85,0,0,0,0-.16.77.77,0,0,0,0-.15l0-.16a2.33,2.33,0,0,0-.11-.31,2.1,2.1,0,0,0-.15-.3,3.94,3.94,0,0,0-1-1.15Z"/><path class="cls-11" d="M82.35,64.44a1.65,1.65,0,0,1,.23.33,1.66,1.66,0,0,1,.16.33,1.85,1.85,0,0,1,.11.69,1.73,1.73,0,0,1-.16.69,1.52,1.52,0,0,1-.21.33,1.41,1.41,0,0,1-.41.31l-.17-.05a.77.77,0,0,0,.36-.44.21.21,0,0,0,0-.11.16.16,0,0,0,0-.11.65.65,0,0,0-.12-.11l-.15-.09.19.08a1,1,0,0,1,.15.1.47.47,0,0,1,.09.12.28.28,0,0,1,0,.13.77.77,0,0,1-.32.48l-.16-.06a1,1,0,0,0,.32-.29,2.58,2.58,0,0,0,.18-.32,2.23,2.23,0,0,0,.14-.66,3.1,3.1,0,0,0,0-.68A3.37,3.37,0,0,0,82.35,64.44Z"/><line class="cls-2" x1="50.77" y1="34.2" x2="51.19" y2="33.48"/><line class="cls-2" x1="51.61" y1="32.75" x2="52.03" y2="32.03"/><line class="cls-2" x1="52.47" y1="31.33" x2="52.92" y2="30.62"/><path class="cls-2" d="M53.37,29.92c.14-.24.31-.46.46-.69"/><line class="cls-2" x1="54.3" y1="28.54" x2="54.78" y2="27.85"/><line class="cls-2" x1="55.27" y1="27.17" x2="55.76" y2="26.5"/><path class="cls-2" d="M56.26,25.83c.16-.22.34-.44.51-.66"/><line class="cls-2" x1="57.3" y1="24.52" x2="57.82" y2="23.87"/><line class="cls-2" x1="58.36" y1="23.24" x2="58.91" y2="22.61"/><line class="cls-2" x1="59.46" y1="21.98" x2="60.03" y2="21.36"/><path class="cls-2" d="M60.6,20.76c.19-.2.37-.41.57-.61"/><line class="cls-2" x1="61.77" y1="19.57" x2="62.36" y2="18.98"/><line class="cls-2" x1="62.97" y1="18.41" x2="63.58" y2="17.84"/><line class="cls-2" x1="64.2" y1="17.28" x2="64.84" y2="16.74"/><path class="cls-2" d="M65.47,16.2l.65-.53"/><path class="cls-2" d="M66.78,15.16c.22-.17.43-.35.66-.51"/><line class="cls-2" x1="68.11" y1="14.15" x2="68.78" y2="13.66"/><line class="cls-2" x1="69.47" y1="13.19" x2="70.16" y2="12.72"/><line class="cls-2" x1="70.86" y1="12.26" x2="71.57" y2="11.81"/><line class="cls-2" x1="72.28" y1="11.38" x2="73" y2="10.95"/><line class="cls-2" x1="73.72" y1="10.53" x2="74.45" y2="10.13"/><line class="cls-2" x1="100.39" y1="32.94" x2="99.93" y2="32.22"/><line class="cls-2" x1="99.47" y1="31.49" x2="99.01" y2="30.77"/><line class="cls-2" x1="98.53" y1="30.06" x2="98.05" y2="29.35"/><path class="cls-2" d="M97.56,28.63c-.15-.23-.33-.46-.49-.69"/><line class="cls-2" x1="96.56" y1="27.24" x2="96.05" y2="26.55"/><line class="cls-2" x1="95.53" y1="25.86" x2="95.01" y2="25.19"/><path class="cls-2" d="M94.48,24.51c-.18-.23-.36-.44-.55-.66"/><line class="cls-2" x1="93.38" y1="23.19" x2="92.82" y2="22.54"/><line class="cls-2" x1="92.25" y1="21.9" x2="91.67" y2="21.26"/><line class="cls-2" x1="91.09" y1="20.63" x2="90.49" y2="20.02"/><path class="cls-2" d="M89.89,19.4l-.62-.59"/><path class="cls-2" d="M88.65,18.22c-.21-.2-.41-.4-.63-.59"/><line class="cls-2" x1="87.37" y1="17.07" x2="86.72" y2="16.5"/><line class="cls-2" x1="86.06" y1="15.96" x2="85.39" y2="15.42"/><line class="cls-2" x1="84.71" y1="14.9" x2="84.02" y2="14.39"/><line class="cls-2" x1="83.32" y1="13.88" x2="82.62" y2="13.39"/><line class="cls-2" x1="81.91" y1="12.91" x2="81.19" y2="12.44"/><line class="cls-2" x1="80.46" y1="11.98" x2="79.73" y2="11.53"/><line class="cls-2" x1="78.99" y1="11.09" x2="78.25" y2="10.66"/><line class="cls-2" x1="77.5" y1="10.24" x2="76.75" y2="9.82"/><line class="cls-2" x1="50.49" y1="82.57" x2="51.31" y2="82.79"/><line class="cls-2" x1="52.14" y1="82.99" x2="52.97" y2="83.17"/><line class="cls-2" x1="53.81" y1="83.35" x2="54.64" y2="83.51"/><line class="cls-2" x1="55.48" y1="83.66" x2="56.32" y2="83.8"/><line class="cls-2" x1="57.16" y1="83.93" x2="58.01" y2="84.06"/><line class="cls-2" x1="58.85" y1="84.17" x2="59.69" y2="84.28"/><line class="cls-2" x1="60.54" y1="84.38" x2="61.39" y2="84.47"/><line class="cls-2" x1="62.23" y1="84.56" x2="63.08" y2="84.64"/><line class="cls-2" x1="63.93" y1="84.72" x2="64.78" y2="84.79"/><line class="cls-2" x1="65.63" y1="84.85" x2="66.48" y2="84.91"/><line class="cls-2" x1="67.33" y1="84.96" x2="68.18" y2="85.01"/><line class="cls-2" x1="69.03" y1="85.05" x2="69.88" y2="85.09"/><line class="cls-2" x1="70.73" y1="85.12" x2="71.58" y2="85.14"/><line class="cls-2" x1="72.43" y1="85.17" x2="73.28" y2="85.19"/><line class="cls-2" x1="74.14" y1="85.2" x2="74.99" y2="85.2"/><line class="cls-2" x1="75.84" y1="85.21" x2="76.69" y2="85.21"/><line class="cls-2" x1="77.54" y1="85.21" x2="78.39" y2="85.2"/><line class="cls-2" x1="79.24" y1="85.19" x2="80.1" y2="85.18"/><line class="cls-2" x1="80.95" y1="85.16" x2="81.8" y2="85.14"/><line class="cls-2" x1="82.65" y1="85.11" x2="83.5" y2="85.08"/><line class="cls-2" x1="84.35" y1="85.05" x2="85.2" y2="85.01"/><line class="cls-2" x1="86.05" y1="84.96" x2="86.9" y2="84.91"/><line class="cls-2" x1="87.75" y1="84.86" x2="88.6" y2="84.8"/><line class="cls-2" x1="89.45" y1="84.74" x2="90.3" y2="84.67"/><line class="cls-2" x1="91.15" y1="84.59" x2="92" y2="84.51"/><line class="cls-2" x1="92.84" y1="84.41" x2="93.69" y2="84.32"/><line class="cls-2" x1="94.53" y1="84.21" x2="95.38" y2="84.1"/><line class="cls-2" x1="96.22" y1="83.97" x2="97.06" y2="83.83"/><line class="cls-2" x1="97.9" y1="83.69" x2="98.74" y2="83.53"/><line class="cls-2" x1="99.57" y1="83.35" x2="100.4" y2="83.15"/><path class="cls-5" d="M52.47,68.57c1,.06,1.69-.17,1.94,1.33a3.55,3.55,0,0,1,.08.95,15,15,0,0,1-1,4.23l0,.09c15.79,1.77,36.71,1,44.33-.55h0c-.59-2.05-.9-3.8-.5-4.56a2.4,2.4,0,0,1,2.11-1.14l.83-.11C82.79,66.63,60.84,67.76,52.47,68.57Z"/><line class="cls-2" x1="132.19" y1="110.43" x2="131.55" y2="110.98"/><path class="cls-2" d="M130.86,111.48c-.23.16-.45.33-.7.47"/><path class="cls-2" d="M129.43,112.38c-.25.14-.51.25-.76.38"/><path class="cls-2" d="M127.9,113.1l-.79.32"/><path class="cls-2" d="M126.31,113.68c-.27.09-.54.14-.82.22"/><path class="cls-2" d="M124.67,114.08q-.42.09-.84.15"/><path class="cls-2" d="M123,114.33c-.28,0-.56.06-.84.07"/><path class="cls-2" d="M121.3,114.42c-.28,0-.56,0-.84,0"/></svg>