<svg id="圖層_1" data-name="圖層 1" xmlns="http://www.w3.org/2000/svg" viewBox="0 0 148.44 301.65"><defs><style>.cls-1,.cls-4{fill:#f8f1e3;}.cls-1,.cls-11,.cls-2,.cls-3,.cls-4,.cls-6,.cls-7,.cls-9{stroke:#231815;}.cls-1,.cls-2{stroke-miterlimit:10;}.cls-1,.cls-3,.cls-4,.cls-6,.cls-7,.cls-9{stroke-width:0.3px;}.cls-11,.cls-2,.cls-7{fill:none;}.cls-11,.cls-2,.cls-3,.cls-4,.cls-6,.cls-7,.cls-9{stroke-linecap:round;}.cls-2{stroke-width:0.3px;}.cls-3{fill:#e4d3d4;}.cls-11,.cls-3,.cls-4,.cls-6,.cls-7,.cls-9{stroke-linejoin:round;}.cls-5,.cls-6{fill:#fff;}.cls-8{fill:#595757;}.cls-9{fill:#252641;}.cls-10{fill:#231815;}.cls-11{stroke-width:0.15px;}</style></defs><path class="cls-1" d="M99.83,123.91,103,102.68s3.57-12.27,12.09-18.43C109.76,71,94,72,94,72s2.17,26.37-22,26.37S50.41,72,50.41,72s-17.56.22-21.17,12.29a30.28,30.28,0,0,1,11.84,18.3s1.76,11.78,3.63,21.71C71.72,127.15,99.83,123.91,99.83,123.91Z"/><line class="cls-2" x1="45.32" y1="122.36" x2="45.18" y2="121.52"/><line class="cls-2" x1="45.05" y1="120.69" x2="44.91" y2="119.85"/><line class="cls-2" x1="44.77" y1="119.01" x2="44.63" y2="118.18"/><line class="cls-2" x1="44.49" y1="117.34" x2="44.35" y2="116.51"/><line class="cls-2" x1="44.21" y1="115.67" x2="44.07" y2="114.83"/><line class="cls-2" x1="43.93" y1="114" x2="43.79" y2="113.16"/><line class="cls-2" x1="43.65" y1="112.33" x2="43.51" y2="111.49"/><line class="cls-2" x1="43.37" y1="110.65" x2="43.24" y2="109.82"/><line class="cls-2" x1="43.1" y1="108.98" x2="42.96" y2="108.14"/><line class="cls-2" x1="42.82" y1="107.31" x2="42.68" y2="106.47"/><line class="cls-2" x1="42.54" y1="105.64" x2="42.4" y2="104.8"/><line class="cls-2" x1="42.26" y1="103.96" x2="42.12" y2="103.13"/><path class="cls-2" d="M42,102.29c0-.28-.1-.55-.16-.83"/><path class="cls-2" d="M41.62,100.64c-.07-.28-.16-.55-.23-.82"/><path class="cls-2" d="M41.13,99c-.09-.26-.17-.54-.28-.8"/><path class="cls-2" d="M40.55,97.42c-.09-.27-.22-.52-.33-.78"/><line class="cls-2" x1="39.89" y1="95.86" x2="39.51" y2="95.1"/><line class="cls-2" x1="39.13" y1="94.34" x2="38.72" y2="93.6"/><line class="cls-2" x1="38.3" y1="92.87" x2="37.85" y2="92.15"/><line class="cls-2" x1="37.39" y1="91.43" x2="36.9" y2="90.74"/><line class="cls-2" x1="36.41" y1="90.05" x2="35.88" y2="89.39"/><path class="cls-2" d="M35.35,88.73c-.17-.23-.37-.43-.56-.64"/><path class="cls-2" d="M34.22,87.47c-.19-.21-.38-.43-.58-.62"/><line class="cls-2" x1="33.03" y1="86.26" x2="32.42" y2="85.67"/><line class="cls-2" x1="31.78" y1="85.11" x2="31.13" y2="84.57"/><path class="cls-2" d="M30.74,83c.12-.25.21-.52.35-.76"/><path class="cls-2" d="M31.52,81.49c.15-.23.29-.48.44-.71"/><path class="cls-2" d="M32.49,80.14c.18-.22.34-.44.53-.65"/><path class="cls-2" d="M33.62,78.91c.2-.19.39-.39.6-.57"/><path class="cls-2" d="M34.88,77.83c.22-.17.43-.35.66-.51"/><path class="cls-2" d="M36.24,76.87c.24-.14.47-.3.71-.43"/><path class="cls-2" d="M37.69,76.05c.25-.13.49-.27.74-.38"/><path class="cls-2" d="M39.2,75.34A6.56,6.56,0,0,1,40,75"/><path class="cls-2" d="M40.75,74.73c.26-.1.52-.19.79-.27"/><path class="cls-2" d="M42.33,74.22a8.12,8.12,0,0,1,.81-.22"/><line class="cls-2" x1="43.94" y1="73.79" x2="44.76" y2="73.61"/><line class="cls-2" x1="45.58" y1="73.45" x2="46.4" y2="73.3"/><path class="cls-2" d="M47.22,73.18c.28,0,.55-.08.83-.1"/><line class="cls-2" x1="49.39" y1="74.32" x2="49.4" y2="75.16"/><path class="cls-2" d="M49.43,76c0,.28,0,.56,0,.84"/><line class="cls-2" x1="49.55" y1="77.68" x2="49.64" y2="78.52"/><line class="cls-2" x1="49.75" y1="79.35" x2="49.87" y2="80.18"/><path class="cls-2" d="M50,81c.06.28.1.55.17.83"/><path class="cls-2" d="M50.39,82.66c.06.27.14.54.22.81"/><path class="cls-2" d="M50.84,84.28c.07.27.18.53.27.8"/><line class="cls-2" x1="51.38" y1="85.87" x2="51.71" y2="86.65"/><line class="cls-2" x1="52.03" y1="87.43" x2="52.41" y2="88.18"/><line class="cls-2" x1="52.79" y1="88.93" x2="53.22" y2="89.66"/><line class="cls-2" x1="53.66" y1="90.37" x2="54.14" y2="91.06"/><line class="cls-2" x1="54.64" y1="91.74" x2="55.18" y2="92.39"/><line class="cls-2" x1="55.73" y1="93.02" x2="56.31" y2="93.63"/><path class="cls-2" d="M56.93,94.2c.2.2.43.37.64.55"/><path class="cls-2" d="M58.23,95.27c.23.16.45.34.69.48"/><line class="cls-2" x1="59.63" y1="96.21" x2="60.36" y2="96.63"/><path class="cls-2" d="M61.11,97a7.51,7.51,0,0,0,.76.36"/><line class="cls-2" x1="62.65" y1="97.7" x2="63.44" y2="97.98"/><path class="cls-2" d="M64.24,98.24l.81.23"/><line class="cls-2" x1="65.87" y1="98.67" x2="66.69" y2="98.83"/><path class="cls-2" d="M67.52,99c.28,0,.56.09.84.12"/><path class="cls-2" d="M69.19,99.17c.28,0,.56,0,.84.06"/><line class="cls-2" x1="70.87" y1="99.28" x2="71.72" y2="99.29"/><line class="cls-2" x1="72.56" y1="99.29" x2="73.4" y2="99.27"/><path class="cls-2" d="M74.24,99.22c.28,0,.56,0,.84-.07"/><line class="cls-2" x1="75.92" y1="99.05" x2="76.75" y2="98.93"/><path class="cls-2" d="M77.58,98.78c.27-.06.55-.1.82-.18"/><line class="cls-2" x1="79.22" y1="98.4" x2="80.02" y2="98.16"/><path class="cls-2" d="M80.82,97.9c.26-.1.53-.18.79-.3"/><line class="cls-2" x1="82.39" y1="97.27" x2="83.14" y2="96.91"/><path class="cls-2" d="M83.89,96.51c.24-.14.49-.27.72-.42"/><line class="cls-2" x1="85.32" y1="95.63" x2="86.01" y2="95.14"/><path class="cls-2" d="M86.67,94.62c.22-.18.43-.36.63-.55"/><line class="cls-2" x1="87.92" y1="93.49" x2="88.5" y2="92.89"/><line class="cls-2" x1="89.05" y1="92.25" x2="89.59" y2="91.61"/><line class="cls-2" x1="90.09" y1="90.92" x2="90.58" y2="90.24"/><line class="cls-2" x1="91.02" y1="89.52" x2="91.45" y2="88.8"/><line class="cls-2" x1="91.84" y1="88.05" x2="92.22" y2="87.3"/><path class="cls-2" d="M92.55,86.53c.11-.26.22-.52.32-.78"/><path class="cls-2" d="M93.16,85c.09-.27.2-.53.27-.8"/><path class="cls-2" d="M93.68,83.36c.08-.27.16-.54.22-.82"/><path class="cls-2" d="M94.1,81.73c.08-.27.12-.55.18-.83"/><line class="cls-2" x1="94.44" y1="80.08" x2="94.58" y2="79.25"/><line class="cls-2" x1="94.7" y1="78.41" x2="94.8" y2="77.58"/><path class="cls-2" d="M94.88,76.74c0-.28,0-.56.06-.84"/><line class="cls-2" x1="94.98" y1="75.06" x2="95" y2="74.22"/><path class="cls-2" d="M96.29,73q.42,0,.84.06"/><line class="cls-2" x1="97.96" y1="73.12" x2="98.78" y2="73.23"/><path class="cls-2" d="M99.6,73.37c.28,0,.55.1.82.17"/><path class="cls-2" d="M101.23,73.73c.27.06.54.15.81.22"/><line class="cls-2" x1="102.84" y1="74.19" x2="103.62" y2="74.48"/><line class="cls-2" x1="104.4" y1="74.78" x2="105.16" y2="75.12"/><line class="cls-2" x1="105.91" y1="75.48" x2="106.64" y2="75.88"/><line class="cls-2" x1="107.36" y1="76.31" x2="108.05" y2="76.76"/><line class="cls-2" x1="108.72" y1="77.26" x2="109.38" y2="77.78"/><line class="cls-2" x1="110" y1="78.34" x2="110.59" y2="78.92"/><line class="cls-2" x1="111.16" y1="79.53" x2="111.69" y2="80.17"/><line class="cls-2" x1="112.2" y1="80.83" x2="112.66" y2="81.53"/><line class="cls-2" x1="113.11" y1="82.23" x2="113.49" y2="82.97"/><line class="cls-2" x1="113.16" y1="84.64" x2="112.52" y2="85.18"/><line class="cls-2" x1="111.92" y1="85.76" x2="111.32" y2="86.34"/><line class="cls-2" x1="110.75" y1="86.96" x2="110.2" y2="87.58"/><line class="cls-2" x1="109.66" y1="88.22" x2="109.14" y2="88.87"/><line class="cls-2" x1="108.62" y1="89.53" x2="108.14" y2="90.22"/><line class="cls-2" x1="107.66" y1="90.9" x2="107.21" y2="91.6"/><path class="cls-2" d="M106.76,92.31c-.16.23-.29.48-.43.72"/><path class="cls-2" d="M105.91,93.75c-.14.24-.27.49-.4.73"/><path class="cls-2" d="M105.12,95.22c-.14.25-.25.5-.37.75"/><line class="cls-2" x1="104.38" y1="96.72" x2="104.03" y2="97.48"/><line class="cls-2" x1="103.7" y1="98.25" x2="103.37" y2="99.02"/><line class="cls-2" x1="103.07" y1="99.8" x2="102.77" y2="100.58"/><line class="cls-2" x1="102.49" y1="101.37" x2="102.23" y2="102.16"/><line class="cls-2" x1="102.06" y1="102.98" x2="101.93" y2="103.81"/><line class="cls-2" x1="101.81" y1="104.63" x2="101.68" y2="105.46"/><line class="cls-2" x1="101.56" y1="106.29" x2="101.43" y2="107.11"/><line class="cls-2" x1="101.31" y1="107.94" x2="101.18" y2="108.77"/><line class="cls-2" x1="101.06" y1="109.6" x2="100.93" y2="110.42"/><line class="cls-2" x1="100.81" y1="111.25" x2="100.68" y2="112.08"/><line class="cls-2" x1="100.55" y1="112.9" x2="100.43" y2="113.73"/><line class="cls-2" x1="100.3" y1="114.56" x2="100.18" y2="115.38"/><line class="cls-2" x1="100.05" y1="116.21" x2="99.93" y2="117.04"/><line class="cls-2" x1="99.8" y1="117.86" x2="99.68" y2="118.69"/><line class="cls-2" x1="99.55" y1="119.52" x2="99.43" y2="120.35"/><line class="cls-2" x1="99.3" y1="121.17" x2="99.18" y2="122"/><line class="cls-2" x1="97.94" y1="123.17" x2="97.1" y2="123.25"/><line class="cls-2" x1="96.26" y1="123.33" x2="95.42" y2="123.4"/><line class="cls-2" x1="94.58" y1="123.47" x2="93.74" y2="123.54"/><line class="cls-2" x1="92.9" y1="123.61" x2="92.06" y2="123.67"/><line class="cls-2" x1="91.22" y1="123.73" x2="90.38" y2="123.79"/><line class="cls-2" x1="89.53" y1="123.85" x2="88.69" y2="123.9"/><line class="cls-2" x1="87.85" y1="123.95" x2="87.01" y2="124"/><line class="cls-2" x1="86.16" y1="124.05" x2="85.32" y2="124.09"/><line class="cls-2" x1="84.48" y1="124.14" x2="83.64" y2="124.18"/><line class="cls-2" x1="82.79" y1="124.22" x2="81.95" y2="124.25"/><line class="cls-2" x1="81.11" y1="124.29" x2="80.26" y2="124.32"/><line class="cls-2" x1="79.42" y1="124.35" x2="78.58" y2="124.38"/><line class="cls-2" x1="77.73" y1="124.4" x2="76.89" y2="124.43"/><line class="cls-2" x1="76.05" y1="124.44" x2="75.2" y2="124.46"/><line class="cls-2" x1="74.36" y1="124.48" x2="73.52" y2="124.49"/><line class="cls-2" x1="72.67" y1="124.5" x2="71.83" y2="124.52"/><line class="cls-2" x1="70.99" y1="124.52" x2="70.14" y2="124.52"/><line class="cls-2" x1="69.3" y1="124.53" x2="68.46" y2="124.53"/><line class="cls-2" x1="67.61" y1="124.52" x2="66.77" y2="124.52"/><line class="cls-2" x1="65.92" y1="124.51" x2="65.08" y2="124.5"/><line class="cls-2" x1="64.24" y1="124.48" x2="63.39" y2="124.47"/><line class="cls-2" x1="62.55" y1="124.45" x2="61.71" y2="124.43"/><line class="cls-2" x1="60.86" y1="124.4" x2="60.02" y2="124.37"/><line class="cls-2" x1="59.18" y1="124.34" x2="58.33" y2="124.31"/><line class="cls-2" x1="57.49" y1="124.27" x2="56.65" y2="124.24"/><line class="cls-2" x1="55.81" y1="124.19" x2="54.96" y2="124.15"/><line class="cls-2" x1="54.12" y1="124.1" x2="53.28" y2="124.05"/><line class="cls-2" x1="52.44" y1="123.99" x2="51.6" y2="123.93"/><line class="cls-2" x1="50.75" y1="123.87" x2="49.91" y2="123.81"/><line class="cls-2" x1="49.07" y1="123.74" x2="48.23" y2="123.67"/><line class="cls-2" x1="47.39" y1="123.59" x2="46.55" y2="123.51"/><line class="cls-2" x1="30.33" y1="83.91" x2="30.45" y2="83.62"/><line class="cls-2" x1="30.57" y1="84.1" x2="30.33" y2="83.91"/><line class="cls-2" x1="49.41" y1="72.94" x2="49.4" y2="73.42"/><line class="cls-2" x1="48.94" y1="72.98" x2="49.41" y2="72.94"/><line class="cls-2" x1="95" y1="72.92" x2="95.44" y2="72.93"/><line class="cls-2" x1="95.01" y1="73.36" x2="95" y2="72.92"/><line class="cls-2" x1="113.99" y1="83.94" x2="113.74" y2="84.15"/><line class="cls-2" x1="113.84" y1="83.64" x2="113.99" y2="83.94"/><line class="cls-2" x1="99.02" y1="123.06" x2="98.69" y2="123.1"/><line class="cls-2" x1="99.07" y1="122.74" x2="99.02" y2="123.06"/><line class="cls-2" x1="45.5" y1="123.41" x2="45.45" y2="123.09"/><line class="cls-2" x1="45.81" y1="123.44" x2="45.5" y2="123.41"/><path class="cls-3" d="M52.45,92.93c-.57-.54-3.69-5-3.14-20.93-4.82.47-17.18,2.59-20.07,12.25A30.72,30.72,0,0,1,41,101.9C43.34,97.25,48.52,94.46,52.45,92.93Z"/><path class="cls-2" d="M41.47,100.4l-.27-.78"/><path class="cls-2" d="M40.91,98.85c-.1-.26-.2-.52-.31-.77"/><line class="cls-2" x1="40.28" y1="97.32" x2="39.94" y2="96.57"/><line class="cls-2" x1="39.58" y1="95.82" x2="39.22" y2="95.08"/><path class="cls-2" d="M38.83,94.35c-.13-.24-.26-.48-.4-.72"/><path class="cls-2" d="M38,92.92l-.43-.71"/><line class="cls-2" x1="37.15" y1="91.51" x2="36.68" y2="90.83"/><line class="cls-2" x1="36.21" y1="90.15" x2="35.72" y2="89.49"/><line class="cls-2" x1="35.21" y1="88.84" x2="34.69" y2="88.2"/><line class="cls-2" x1="34.15" y1="87.57" x2="33.6" y2="86.96"/><line class="cls-2" x1="33.03" y1="86.36" x2="32.44" y2="85.78"/><line class="cls-2" x1="31.84" y1="85.21" x2="31.22" y2="84.67"/><line class="cls-2" x1="30.59" y1="84.14" x2="29.94" y2="83.63"/><path class="cls-3" d="M115.13,84.25C110.88,73.72,99.68,72.16,95.19,72c-.1,17.49-3,20.32-3.55,20.84,3.92,1.48,9.23,4.26,11.71,8.92C104.38,98.74,108,89.38,115.13,84.25Z"/><line class="cls-2" x1="114.48" y1="83.71" x2="113.83" y2="84.22"/><line class="cls-2" x1="113.21" y1="84.75" x2="112.6" y2="85.29"/><line class="cls-2" x1="112.01" y1="85.86" x2="111.43" y2="86.44"/><line class="cls-2" x1="110.87" y1="87.04" x2="110.32" y2="87.64"/><line class="cls-2" x1="109.8" y1="88.27" x2="109.28" y2="88.91"/><line class="cls-2" x1="108.79" y1="89.56" x2="108.3" y2="90.22"/><path class="cls-2" d="M107.83,90.89c-.15.23-.31.45-.45.68"/><path class="cls-2" d="M106.94,92.26c-.15.23-.29.47-.43.7"/><line class="cls-2" x1="106.1" y1="93.67" x2="105.7" y2="94.38"/><line class="cls-2" x1="105.31" y1="95.1" x2="104.94" y2="95.83"/><line class="cls-2" x1="104.57" y1="96.56" x2="104.22" y2="97.3"/><line class="cls-2" x1="103.88" y1="98.05" x2="103.55" y2="98.8"/><line class="cls-2" x1="103.24" y1="99.55" x2="102.93" y2="100.31"/><path class="cls-3" d="M44.12,121.05c.18,1,.37,2,.55,3,5.58-.66,26-2.6,54.7,0l.46-.11c.16-1,.31-2.08.46-3.09A322.16,322.16,0,0,0,44.12,121.05Z"/><line class="cls-2" x1="44.77" y1="121.63" x2="45.61" y2="121.56"/><line class="cls-2" x1="46.45" y1="121.48" x2="47.3" y2="121.42"/><line class="cls-2" x1="48.14" y1="121.35" x2="48.99" y2="121.29"/><line class="cls-2" x1="49.83" y1="121.23" x2="50.68" y2="121.17"/><line class="cls-2" x1="51.52" y1="121.12" x2="52.37" y2="121.07"/><line class="cls-2" x1="53.21" y1="121.02" x2="54.06" y2="120.97"/><line class="cls-2" x1="54.9" y1="120.92" x2="55.75" y2="120.88"/><line class="cls-2" x1="56.59" y1="120.84" x2="57.44" y2="120.8"/><line class="cls-2" x1="58.29" y1="120.76" x2="59.13" y2="120.73"/><line class="cls-2" x1="59.98" y1="120.69" x2="60.82" y2="120.66"/><line class="cls-2" x1="61.67" y1="120.63" x2="62.52" y2="120.61"/><line class="cls-2" x1="63.36" y1="120.58" x2="64.21" y2="120.56"/><line class="cls-2" x1="65.06" y1="120.54" x2="65.9" y2="120.52"/><line class="cls-2" x1="66.75" y1="120.5" x2="67.6" y2="120.49"/><line class="cls-2" x1="68.44" y1="120.47" x2="69.29" y2="120.46"/><line class="cls-2" x1="70.14" y1="120.45" x2="70.98" y2="120.44"/><line class="cls-2" x1="71.83" y1="120.44" x2="72.68" y2="120.44"/><line class="cls-2" x1="73.52" y1="120.44" x2="74.37" y2="120.44"/><line class="cls-2" x1="75.22" y1="120.44" x2="76.06" y2="120.45"/><line class="cls-2" x1="76.91" y1="120.45" x2="77.76" y2="120.46"/><line class="cls-2" x1="78.6" y1="120.47" x2="79.45" y2="120.49"/><line class="cls-2" x1="80.3" y1="120.5" x2="81.14" y2="120.52"/><line class="cls-2" x1="81.99" y1="120.53" x2="82.84" y2="120.56"/><line class="cls-2" x1="83.68" y1="120.58" x2="84.53" y2="120.6"/><line class="cls-2" x1="85.38" y1="120.63" x2="86.22" y2="120.66"/><line class="cls-2" x1="87.07" y1="120.69" x2="87.92" y2="120.72"/><line class="cls-2" x1="88.76" y1="120.75" x2="89.61" y2="120.79"/><line class="cls-2" x1="90.45" y1="120.83" x2="91.3" y2="120.87"/><line class="cls-2" x1="92.15" y1="120.91" x2="92.99" y2="120.95"/><line class="cls-2" x1="93.84" y1="121" x2="94.68" y2="121.05"/><line class="cls-2" x1="95.53" y1="121.1" x2="96.37" y2="121.16"/><line class="cls-2" x1="97.22" y1="121.21" x2="98.06" y2="121.27"/><line class="cls-2" x1="98.91" y1="121.33" x2="99.75" y2="121.4"/><path class="cls-1" d="M53.08,93.5l-.63-.57c-3.93,1.53-9.11,4.32-11.49,9,.08.41.12.65.12.65s0,.16.07.46C43.53,98.76,49.22,95.15,53.08,93.5Z"/><path class="cls-4" d="M91,93.39c-5.45,4.79-15.27,11.86-19.22,11.86S59,98.9,53.08,93.5c-3.86,1.65-9.55,5.26-11.93,9.51.29,1.93,1.46,9.56,2.82,17.18l.15.86a322.16,322.16,0,0,1,56.17-.23c0-.21.07-.42.1-.62,1.39-9.3,2.5-16.54,2.64-17.42C100.59,98.52,95.67,95.1,91,93.39Z"/><path class="cls-2" d="M91,94.09c.27.11.55.23.81.36"/><line class="cls-2" x1="92.65" y1="94.85" x2="93.44" y2="95.28"/><line class="cls-2" x1="94.21" y1="95.73" x2="94.97" y2="96.2"/><path class="cls-2" d="M95.71,96.7l.73.52"/><line class="cls-2" x1="97.15" y1="97.75" x2="97.86" y2="98.3"/><line class="cls-2" x1="98.54" y1="98.87" x2="99.21" y2="99.46"/><path class="cls-2" d="M99.87,100.07q.33.3.63.63"/><path class="cls-2" d="M101.12,101.35c.2.22.4.43.59.67"/><path class="cls-2" d="M102.27,102.71a8.72,8.72,0,0,1,.51.73"/><path class="cls-2" d="M41.66,103.2a7.08,7.08,0,0,1,.51-.71"/><path class="cls-2" d="M42.73,101.81c.19-.22.39-.43.6-.64"/><path class="cls-2" d="M44,100.55c.21-.2.42-.41.64-.6"/><line class="cls-2" x1="45.25" y1="99.37" x2="45.92" y2="98.82"/><path class="cls-2" d="M46.61,98.27l.7-.53"/><line class="cls-2" x1="48.02" y1="97.23" x2="48.74" y2="96.73"/><line class="cls-2" x1="49.47" y1="96.24" x2="50.21" y2="95.77"/><path class="cls-2" d="M51,95.32l.75-.44"/><path class="cls-2" d="M52.49,94.47c.25-.14.51-.27.78-.4"/><path class="cls-1" d="M103.35,101.73c-2.48-4.66-7.79-7.44-11.71-8.92l-.66.58c4.69,1.71,9.61,5.13,12,9.39a.82.82,0,0,0,0-.1S103.15,102.33,103.35,101.73Z"/><path class="cls-4" d="M106.24,74.53A26.29,26.29,0,0,0,94.17,72s2.34,5.61-21.87,5.61S50.56,72,50.56,72A34.91,34.91,0,0,0,40.1,74c52.52,18.11,15.48,40.46,4,46.38.24,1.3.47,2.6.71,3.87,27,2.89,55.13-.35,55.13-.35l.35-2.31C88.87,115.68,50.76,92.79,106.24,74.53Z"/><line class="cls-2" x1="45.48" y1="122.46" x2="45.36" y2="121.83"/><line class="cls-2" x1="46.12" y1="120.41" x2="46.86" y2="120"/><line class="cls-2" x1="47.6" y1="119.59" x2="48.33" y2="119.17"/><line class="cls-2" x1="49.06" y1="118.74" x2="49.79" y2="118.3"/><line class="cls-2" x1="50.51" y1="117.86" x2="51.23" y2="117.42"/><line class="cls-2" x1="51.95" y1="116.96" x2="52.65" y2="116.5"/><line class="cls-2" x1="53.36" y1="116.02" x2="54.06" y2="115.55"/><line class="cls-2" x1="54.75" y1="115.06" x2="55.44" y2="114.56"/><line class="cls-2" x1="56.12" y1="114.06" x2="56.79" y2="113.55"/><line class="cls-2" x1="57.46" y1="113.02" x2="58.12" y2="112.49"/><path class="cls-2" d="M58.77,112l.64-.55"/><line class="cls-2" x1="60.04" y1="110.84" x2="60.66" y2="110.26"/><line class="cls-2" x1="61.28" y1="109.67" x2="61.88" y2="109.08"/><path class="cls-2" d="M62.46,108.46c.2-.2.38-.41.57-.62"/><line class="cls-2" x1="63.59" y1="107.2" x2="64.13" y2="106.54"/><path class="cls-2" d="M64.64,105.87c.17-.22.35-.44.5-.68"/><line class="cls-2" x1="65.62" y1="104.49" x2="66.07" y2="103.77"/><path class="cls-2" d="M66.49,103c.13-.25.28-.49.39-.75"/><line class="cls-2" x1="67.24" y1="101.52" x2="67.55" y2="100.73"/><path class="cls-2" d="M67.82,99.93a7.66,7.66,0,0,0,.23-.82"/><line class="cls-2" x1="68.23" y1="98.29" x2="68.36" y2="97.45"/><path class="cls-2" d="M68.42,96.6a4.71,4.71,0,0,0,0-.84"/><line class="cls-2" x1="68.39" y1="94.91" x2="68.27" y2="94.07"/><line class="cls-2" x1="68.11" y1="93.24" x2="67.89" y2="92.43"/><line class="cls-2" x1="67.6" y1="91.63" x2="67.29" y2="90.84"/><line class="cls-2" x1="66.9" y1="90.09" x2="66.5" y2="89.34"/><line class="cls-2" x1="66.03" y1="88.64" x2="65.56" y2="87.94"/><line class="cls-2" x1="65.02" y1="87.28" x2="64.49" y2="86.63"/><line class="cls-2" x1="63.9" y1="86.01" x2="63.31" y2="85.41"/><line class="cls-2" x1="62.7" y1="84.83" x2="62.06" y2="84.26"/><line class="cls-2" x1="61.42" y1="83.71" x2="60.75" y2="83.19"/><path class="cls-2" d="M60.08,82.67c-.22-.18-.46-.32-.69-.49"/><line class="cls-2" x1="58.69" y1="81.7" x2="57.99" y2="81.23"/><line class="cls-2" x1="57.27" y1="80.78" x2="56.55" y2="80.34"/><line class="cls-2" x1="55.82" y1="79.9" x2="55.08" y2="79.49"/><path class="cls-2" d="M54.34,79.08c-.25-.13-.49-.28-.74-.4"/><line class="cls-2" x1="52.84" y1="78.3" x2="52.08" y2="77.92"/><line class="cls-2" x1="51.33" y1="77.54" x2="50.56" y2="77.19"/><line class="cls-2" x1="49.79" y1="76.83" x2="49.02" y2="76.48"/><line class="cls-2" x1="48.24" y1="76.15" x2="47.46" y2="75.82"/><line class="cls-2" x1="46.68" y1="75.49" x2="45.89" y2="75.17"/><line class="cls-2" x1="46.02" y1="73.39" x2="46.83" y2="73.26"/><line class="cls-2" x1="47.65" y1="73.14" x2="48.48" y2="73.04"/><path class="cls-2" d="M50.08,74a5,5,0,0,0,.55.65"/><path class="cls-2" d="M51.28,75.18a5.38,5.38,0,0,0,.71.46"/><line class="cls-2" x1="52.74" y1="76.03" x2="53.52" y2="76.37"/><path class="cls-2" d="M54.32,76.65a8.28,8.28,0,0,0,.81.24"/><line class="cls-2" x1="55.95" y1="77.12" x2="56.78" y2="77.31"/><line class="cls-2" x1="57.61" y1="77.48" x2="58.44" y2="77.63"/><line class="cls-2" x1="59.28" y1="77.76" x2="60.12" y2="77.88"/><line class="cls-2" x1="60.96" y1="77.98" x2="61.8" y2="78.08"/><line class="cls-2" x1="62.65" y1="78.16" x2="63.49" y2="78.23"/><line class="cls-2" x1="64.34" y1="78.29" x2="65.18" y2="78.35"/><line class="cls-2" x1="66.03" y1="78.39" x2="66.88" y2="78.43"/><line class="cls-2" x1="67.72" y1="78.47" x2="68.57" y2="78.49"/><line class="cls-2" x1="69.42" y1="78.51" x2="70.27" y2="78.52"/><line class="cls-2" x1="71.12" y1="78.53" x2="71.96" y2="78.54"/><line class="cls-2" x1="72.81" y1="78.54" x2="73.66" y2="78.53"/><line class="cls-2" x1="74.51" y1="78.52" x2="75.35" y2="78.5"/><line class="cls-2" x1="76.2" y1="78.48" x2="77.05" y2="78.46"/><line class="cls-2" x1="77.9" y1="78.42" x2="78.74" y2="78.39"/><line class="cls-2" x1="79.59" y1="78.34" x2="80.44" y2="78.28"/><line class="cls-2" x1="81.28" y1="78.22" x2="82.13" y2="78.15"/><line class="cls-2" x1="82.97" y1="78.07" x2="83.81" y2="77.97"/><line class="cls-2" x1="84.66" y1="77.87" x2="85.49" y2="77.74"/><line class="cls-2" x1="86.33" y1="77.61" x2="87.17" y2="77.46"/><line class="cls-2" x1="88" y1="77.29" x2="88.82" y2="77.1"/><path class="cls-2" d="M89.64,76.87a8.36,8.36,0,0,0,.81-.25"/><line class="cls-2" x1="91.25" y1="76.34" x2="92.03" y2="76"/><path class="cls-2" d="M92.78,75.61c.25-.13.47-.31.71-.46"/><path class="cls-2" d="M94.13,74.6a6.65,6.65,0,0,0,.54-.65"/><line class="cls-2" x1="96.28" y1="72.95" x2="97.21" y2="73.02"/><line class="cls-2" x1="98.14" y1="73.12" x2="99.06" y2="73.25"/><line class="cls-2" x1="99.98" y1="73.42" x2="100.89" y2="73.61"/><path class="cls-2" d="M101,75.39c-.27.1-.54.19-.8.3"/><line class="cls-2" x1="99.38" y1="76" x2="98.58" y2="76.32"/><path class="cls-2" d="M97.78,76.64c-.27.1-.53.21-.8.33"/><line class="cls-2" x1="96.19" y1="77.31" x2="95.4" y2="77.65"/><line class="cls-2" x1="94.62" y1="77.99" x2="93.84" y2="78.36"/><line class="cls-2" x1="93.06" y1="78.73" x2="92.28" y2="79.1"/><line class="cls-2" x1="91.52" y1="79.49" x2="90.75" y2="79.89"/><path class="cls-2" d="M90,80.29c-.25.13-.51.26-.75.41"/><line class="cls-2" x1="88.5" y1="81.14" x2="87.75" y2="81.57"/><line class="cls-2" x1="87.02" y1="82.02" x2="86.3" y2="82.49"/><path class="cls-2" d="M85.58,83c-.24.15-.48.32-.7.49"/><line class="cls-2" x1="84.18" y1="83.97" x2="83.49" y2="84.48"/><line class="cls-2" x1="82.83" y1="85.03" x2="82.17" y2="85.58"/><line class="cls-2" x1="81.54" y1="86.16" x2="80.92" y2="86.76"/><line class="cls-2" x1="80.31" y1="87.37" x2="79.75" y2="88.02"/><path class="cls-2" d="M79.19,88.67c-.18.23-.34.47-.5.7"/><path class="cls-2" d="M78.19,90.07c-.17.24-.29.5-.44.74"/><path class="cls-2" d="M77.33,91.56c-.13.26-.22.53-.34.79"/><line class="cls-2" x1="76.66" y1="93.14" x2="76.42" y2="93.97"/><line class="cls-2" x1="76.21" y1="94.8" x2="76.08" y2="95.65"/><line class="cls-2" x1="75.99" y1="96.51" x2="75.96" y2="97.37"/><path class="cls-2" d="M76,98.23a8.24,8.24,0,0,0,.11.85"/><path class="cls-2" d="M76.28,99.93a8.34,8.34,0,0,0,.2.83"/><line class="cls-2" x1="76.74" y1="101.58" x2="77.05" y2="102.38"/><path class="cls-2" d="M77.39,103.17a7.94,7.94,0,0,0,.39.77"/><line class="cls-2" x1="78.19" y1="104.7" x2="78.64" y2="105.43"/><path class="cls-2" d="M79.11,106.15c.17.23.32.47.5.7"/><line class="cls-2" x1="80.13" y1="107.53" x2="80.68" y2="108.2"/><line class="cls-2" x1="81.24" y1="108.85" x2="81.81" y2="109.49"/><path class="cls-2" d="M82.4,110.12c.2.21.41.4.61.61"/><line class="cls-2" x1="83.63" y1="111.32" x2="84.26" y2="111.91"/><line class="cls-2" x1="84.9" y1="112.48" x2="85.55" y2="113.05"/><line class="cls-2" x1="86.21" y1="113.6" x2="86.88" y2="114.14"/><line class="cls-2" x1="87.55" y1="114.67" x2="88.24" y2="115.19"/><line class="cls-2" x1="88.93" y1="115.7" x2="89.63" y2="116.21"/><line class="cls-2" x1="90.33" y1="116.7" x2="91.04" y2="117.19"/><line class="cls-2" x1="91.76" y1="117.67" x2="92.48" y2="118.14"/><line class="cls-2" x1="93.2" y1="118.6" x2="93.93" y2="119.05"/><line class="cls-2" x1="94.67" y1="119.5" x2="95.41" y2="119.94"/><line class="cls-2" x1="96.15" y1="120.38" x2="96.89" y2="120.8"/><line class="cls-2" x1="97.65" y1="121.22" x2="98.4" y2="121.63"/><line class="cls-2" x1="98.1" y1="123.17" x2="97.26" y2="123.25"/><line class="cls-2" x1="96.42" y1="123.33" x2="95.58" y2="123.4"/><line class="cls-2" x1="94.74" y1="123.47" x2="93.9" y2="123.54"/><line class="cls-2" x1="93.05" y1="123.61" x2="92.21" y2="123.67"/><line class="cls-2" x1="91.37" y1="123.73" x2="90.53" y2="123.79"/><line class="cls-2" x1="89.69" y1="123.85" x2="88.85" y2="123.9"/><line class="cls-2" x1="88" y1="123.95" x2="87.16" y2="124"/><line class="cls-2" x1="86.32" y1="124.05" x2="85.48" y2="124.09"/><line class="cls-2" x1="84.63" y1="124.14" x2="83.79" y2="124.18"/><line class="cls-2" x1="82.95" y1="124.22" x2="82.11" y2="124.26"/><line class="cls-2" x1="81.26" y1="124.29" x2="80.42" y2="124.32"/><line class="cls-2" x1="79.58" y1="124.35" x2="78.73" y2="124.38"/><line class="cls-2" x1="77.89" y1="124.4" x2="77.05" y2="124.43"/><line class="cls-2" x1="76.2" y1="124.45" x2="75.36" y2="124.46"/><line class="cls-2" x1="74.51" y1="124.48" x2="73.67" y2="124.49"/><line class="cls-2" x1="72.83" y1="124.51" x2="71.98" y2="124.52"/><line class="cls-2" x1="71.14" y1="124.52" x2="70.3" y2="124.52"/><line class="cls-2" x1="69.45" y1="124.53" x2="68.61" y2="124.53"/><line class="cls-2" x1="67.76" y1="124.52" x2="66.92" y2="124.52"/><line class="cls-2" x1="66.08" y1="124.51" x2="65.23" y2="124.5"/><line class="cls-2" x1="64.39" y1="124.49" x2="63.55" y2="124.47"/><line class="cls-2" x1="62.7" y1="124.45" x2="61.86" y2="124.43"/><line class="cls-2" x1="61.02" y1="124.4" x2="60.17" y2="124.38"/><line class="cls-2" x1="59.33" y1="124.34" x2="58.49" y2="124.31"/><line class="cls-2" x1="57.64" y1="124.27" x2="56.8" y2="124.24"/><line class="cls-2" x1="55.96" y1="124.19" x2="55.12" y2="124.15"/><line class="cls-2" x1="54.27" y1="124.1" x2="53.43" y2="124.05"/><line class="cls-2" x1="52.59" y1="123.99" x2="51.75" y2="123.93"/><line class="cls-2" x1="50.91" y1="123.87" x2="50.06" y2="123.81"/><line class="cls-2" x1="49.22" y1="123.74" x2="48.38" y2="123.67"/><line class="cls-2" x1="47.54" y1="123.59" x2="46.7" y2="123.51"/><line class="cls-2" x1="45.2" y1="120.9" x2="45.47" y2="120.76"/><line class="cls-2" x1="45.25" y1="121.21" x2="45.2" y2="120.9"/><polyline class="cls-2" points="43.01 74.06 43.65 73.89 44.3 73.74"/><line class="cls-2" x1="44.25" y1="74.54" x2="43.01" y2="74.06"/><polyline class="cls-2" points="49.62 72.94 49.66 73.12 49.72 73.29"/><line class="cls-2" x1="49.25" y1="72.97" x2="49.62" y2="72.94"/><line class="cls-2" x1="95.11" y1="72.92" x2="95.46" y2="72.92"/><polyline class="cls-2" points="95.02 73.26 95.07 73.09 95.11 72.92"/><line class="cls-2" x1="103.63" y1="74.42" x2="102.51" y2="74.83"/><polyline class="cls-2" points="102.5 74.05 103.07 74.23 103.63 74.42"/><line class="cls-2" x1="99.31" y1="122.12" x2="99.27" y2="122.42"/><line class="cls-2" x1="99.05" y1="121.98" x2="99.31" y2="122.12"/><line class="cls-2" x1="99.17" y1="123.06" x2="98.85" y2="123.1"/><line class="cls-2" x1="99.22" y1="122.74" x2="99.17" y2="123.06"/><line class="cls-2" x1="45.65" y1="123.41" x2="45.59" y2="123.09"/><line class="cls-2" x1="45.97" y1="123.44" x2="45.65" y2="123.41"/><path class="cls-3" d="M44.28,121.05c.18,1,.36,2,.54,3,5.59-.66,26-2.6,54.71,0l.46-.11c.15-1,.31-2.08.46-3.09A322.13,322.13,0,0,0,44.28,121.05Z"/><line class="cls-2" x1="44.92" y1="121.63" x2="45.76" y2="121.56"/><line class="cls-2" x1="46.61" y1="121.49" x2="47.45" y2="121.42"/><line class="cls-2" x1="48.3" y1="121.35" x2="49.14" y2="121.29"/><line class="cls-2" x1="49.98" y1="121.23" x2="50.83" y2="121.17"/><line class="cls-2" x1="51.67" y1="121.12" x2="52.52" y2="121.07"/><line class="cls-2" x1="53.36" y1="121.02" x2="54.21" y2="120.97"/><line class="cls-2" x1="55.06" y1="120.92" x2="55.9" y2="120.88"/><line class="cls-2" x1="56.75" y1="120.84" x2="57.59" y2="120.8"/><line class="cls-2" x1="58.44" y1="120.76" x2="59.28" y2="120.73"/><line class="cls-2" x1="60.13" y1="120.69" x2="60.98" y2="120.66"/><line class="cls-2" x1="61.82" y1="120.63" x2="62.67" y2="120.61"/><line class="cls-2" x1="63.52" y1="120.58" x2="64.36" y2="120.56"/><line class="cls-2" x1="65.21" y1="120.54" x2="66.06" y2="120.52"/><line class="cls-2" x1="66.9" y1="120.5" x2="67.75" y2="120.49"/><line class="cls-2" x1="68.6" y1="120.47" x2="69.44" y2="120.46"/><line class="cls-2" x1="70.29" y1="120.45" x2="71.14" y2="120.44"/><line class="cls-2" x1="71.98" y1="120.44" x2="72.83" y2="120.44"/><line class="cls-2" x1="73.68" y1="120.44" x2="74.52" y2="120.44"/><line class="cls-2" x1="75.37" y1="120.44" x2="76.22" y2="120.45"/><line class="cls-2" x1="77.06" y1="120.45" x2="77.91" y2="120.46"/><line class="cls-2" x1="78.76" y1="120.47" x2="79.6" y2="120.49"/><line class="cls-2" x1="80.45" y1="120.5" x2="81.3" y2="120.52"/><line class="cls-2" x1="82.14" y1="120.53" x2="82.99" y2="120.56"/><line class="cls-2" x1="83.84" y1="120.58" x2="84.68" y2="120.6"/><line class="cls-2" x1="85.53" y1="120.63" x2="86.38" y2="120.66"/><line class="cls-2" x1="87.22" y1="120.69" x2="88.07" y2="120.72"/><line class="cls-2" x1="88.91" y1="120.75" x2="89.76" y2="120.79"/><line class="cls-2" x1="90.61" y1="120.83" x2="91.45" y2="120.87"/><line class="cls-2" x1="92.3" y1="120.91" x2="93.14" y2="120.95"/><line class="cls-2" x1="93.99" y1="121" x2="94.83" y2="121.05"/><line class="cls-2" x1="95.68" y1="121.1" x2="96.52" y2="121.16"/><line class="cls-2" x1="97.37" y1="121.21" x2="98.21" y2="121.27"/><line class="cls-2" x1="99.06" y1="121.33" x2="99.9" y2="121.4"/><path class="cls-3" d="M92.38,94.46c-3,8-9.1,13.58-21.27,13.58-11.74,0-17.27-5.65-19.79-13.33-3.51,1.47-7.74,3.9-10.11,7.66,0,.12,0,.18,0,.18s0,.16.07.46c.29,1.93,1.47,9.56,2.82,17.18.05.29.11.58.16.86a322.13,322.13,0,0,1,56.17-.23l.09-.62c1.36-9.12,2.46-16.26,2.63-17.35C100.69,98.91,96,96,92.38,94.46Z"/><path class="cls-2" d="M92.78,95.26c.26.12.52.27.78.4"/><line class="cls-2" x1="94.32" y1="96.1" x2="95.07" y2="96.55"/><line class="cls-2" x1="95.81" y1="97.03" x2="96.54" y2="97.53"/><line class="cls-2" x1="97.25" y1="98.04" x2="97.96" y2="98.56"/><path class="cls-2" d="M98.65,99.1l.68.56"/><path class="cls-2" d="M100,100.23l.65.59"/><path class="cls-2" d="M101.28,101.43c.2.22.42.42.61.64"/><path class="cls-2" d="M102.47,102.73c.18.23.37.45.54.69"/><path class="cls-2" d="M41.62,102.83a8,8,0,0,1,.51-.64"/><path class="cls-2" d="M42.67,101.58c.18-.2.38-.39.58-.58"/><path class="cls-2" d="M43.84,100.44l.62-.54"/><line class="cls-2" x1="45.09" y1="99.39" x2="45.73" y2="98.89"/><line class="cls-2" x1="46.39" y1="98.4" x2="47.06" y2="97.93"/><line class="cls-2" x1="47.74" y1="97.47" x2="48.42" y2="97.03"/><line class="cls-2" x1="49.12" y1="96.61" x2="49.83" y2="96.2"/><path class="cls-2" d="M50.55,95.81c.24-.12.48-.25.73-.36"/><path class="cls-3" d="M51.32,94.71C49.08,87.9,49.2,79.5,49.46,72c-4.82.47-17.17,2.59-20.07,12.25A30.75,30.75,0,0,1,41.11,101.9c0,.21.07.37.1.47C43.58,98.61,47.81,96.18,51.32,94.71Z"/><path class="cls-3" d="M103.2,102.68s.1-.35.31-1c1-3,4.68-12.35,11.78-17.48C111,73.72,99.84,72.16,95.35,72c0,7.87-.49,16-3,22.49,3.6,1.5,8.31,4.45,10.79,8.39,0,0,0-.06,0-.07S103.2,102.68,103.2,102.68Z"/><path class="cls-2" d="M41.62,100.4c-.08-.26-.18-.52-.27-.78"/><path class="cls-2" d="M41.06,98.85c-.1-.26-.19-.52-.3-.77"/><line class="cls-2" x1="40.43" y1="97.32" x2="40.09" y2="96.57"/><line class="cls-2" x1="39.74" y1="95.82" x2="39.37" y2="95.08"/><path class="cls-2" d="M39,94.35c-.13-.24-.25-.48-.39-.72"/><path class="cls-2" d="M38.17,92.92c-.13-.24-.28-.47-.43-.71"/><line class="cls-2" x1="37.3" y1="91.51" x2="36.84" y2="90.83"/><line class="cls-2" x1="36.37" y1="90.15" x2="35.87" y2="89.49"/><line class="cls-2" x1="35.37" y1="88.84" x2="34.84" y2="88.2"/><line class="cls-2" x1="34.31" y1="87.57" x2="33.75" y2="86.96"/><line class="cls-2" x1="33.18" y1="86.36" x2="32.6" y2="85.78"/><line class="cls-2" x1="32" y1="85.22" x2="31.38" y2="84.67"/><line class="cls-2" x1="30.74" y1="84.14" x2="30.09" y2="83.63"/><line class="cls-2" x1="114.63" y1="83.71" x2="113.99" y2="84.22"/><line class="cls-2" x1="113.36" y1="84.75" x2="112.75" y2="85.29"/><line class="cls-2" x1="112.16" y1="85.86" x2="111.58" y2="86.44"/><line class="cls-2" x1="111.02" y1="87.04" x2="110.47" y2="87.64"/><line class="cls-2" x1="109.95" y1="88.27" x2="109.43" y2="88.91"/><line class="cls-2" x1="108.94" y1="89.56" x2="108.45" y2="90.22"/><path class="cls-2" d="M108,90.89c-.16.23-.32.45-.46.68"/><path class="cls-2" d="M107.09,92.26c-.15.23-.29.47-.42.7"/><line class="cls-2" x1="106.25" y1="93.67" x2="105.85" y2="94.38"/><line class="cls-2" x1="105.46" y1="95.1" x2="105.09" y2="95.83"/><line class="cls-2" x1="104.73" y1="96.56" x2="104.37" y2="97.3"/><line class="cls-2" x1="104.03" y1="98.05" x2="103.71" y2="98.8"/><line class="cls-2" x1="103.39" y1="99.55" x2="103.08" y2="100.31"/><path class="cls-3" d="M75.2,214.85a77.2,77.2,0,0,0,26-2.27A239,239,0,0,0,103.48,184c-3-25.28-5.5-30-5.5-30s-24.71,7.53-50.56-.63c-.43.69-5.75,5.27-5.4,30.83.11,8.21,1.49,15.64,3.12,28.74C50.7,214,58.79,216.6,71,214.85c0,0,.41-23.64,0-29.24s4.32-.81,4.32-.81Z"/><line class="cls-2" x1="45.44" y1="211.72" x2="46.29" y2="211.9"/><line class="cls-2" x1="47.14" y1="212.09" x2="47.99" y2="212.27"/><line class="cls-2" x1="48.84" y1="212.46" x2="49.69" y2="212.64"/><line class="cls-2" x1="50.54" y1="212.82" x2="51.39" y2="212.99"/><line class="cls-2" x1="52.25" y1="213.15" x2="53.1" y2="213.3"/><line class="cls-2" x1="53.96" y1="213.45" x2="54.82" y2="213.57"/><line class="cls-2" x1="55.68" y1="213.69" x2="56.55" y2="213.79"/><line class="cls-2" x1="57.41" y1="213.88" x2="58.28" y2="213.96"/><line class="cls-2" x1="59.14" y1="214.03" x2="60.01" y2="214.08"/><line class="cls-2" x1="60.88" y1="214.11" x2="61.75" y2="214.13"/><line class="cls-2" x1="62.62" y1="214.15" x2="63.49" y2="214.14"/><line class="cls-2" x1="64.36" y1="214.12" x2="65.23" y2="214.08"/><path class="cls-2" d="M66.1,214c.29,0,.57,0,.86-.06"/><line class="cls-2" x1="67.83" y1="213.91" x2="68.69" y2="213.83"/><line class="cls-2" x1="69.56" y1="213.72" x2="70.42" y2="213.61"/><line class="cls-2" x1="75.51" y1="213.58" x2="76.39" y2="213.63"/><line class="cls-2" x1="77.26" y1="213.67" x2="78.13" y2="213.71"/><line class="cls-2" x1="79.01" y1="213.74" x2="79.88" y2="213.76"/><line class="cls-2" x1="80.76" y1="213.78" x2="81.63" y2="213.78"/><line class="cls-2" x1="82.51" y1="213.78" x2="83.38" y2="213.77"/><line class="cls-2" x1="84.26" y1="213.75" x2="85.13" y2="213.72"/><line class="cls-2" x1="86" y1="213.68" x2="86.88" y2="213.63"/><line class="cls-2" x1="87.75" y1="213.56" x2="88.62" y2="213.49"/><line class="cls-2" x1="89.49" y1="213.4" x2="90.36" y2="213.3"/><line class="cls-2" x1="91.23" y1="213.19" x2="92.09" y2="213.07"/><line class="cls-2" x1="92.96" y1="212.94" x2="93.82" y2="212.8"/><line class="cls-2" x1="94.68" y1="212.65" x2="95.54" y2="212.49"/><line class="cls-2" x1="96.4" y1="212.33" x2="97.26" y2="212.15"/><line class="cls-2" x1="98.11" y1="211.97" x2="98.97" y2="211.78"/><line class="cls-2" x1="99.82" y1="211.59" x2="100.67" y2="211.39"/><path class="cls-5" d="M86.63,141.55s9.41,2.83,8.44,5.21-5.39-.47-5.39-.47Z"/><path class="cls-5" d="M49.73,144.4s20.59-9.93,32.36-3.9,7.19,3.65,1.34,7.51c-13.77-4.9-32.32,1.26-32.32,1.26Z"/><path class="cls-6" d="M50.65,144.25s-1.1.05-.64,1.53c-1.37.73-1.09,2.62-1.09,2.62a3.55,3.55,0,0,0-1.26,3,3.75,3.75,0,0,0-.85,2s9.95-7,25.67-6.85a55.76,55.76,0,0,1,27,7.39s.25-.8-.92-2.07A3.23,3.23,0,0,0,97.29,149a3.25,3.25,0,0,0-1.12-2.55c.22-1.14-.49-1.11-.49-1.11"/><path class="cls-6" d="M72.48,138.7c-15.72-.16-21.83,5.55-21.83,5.55"/><path class="cls-6" d="M95.68,145.37s-7.48-6.5-23.2-6.67"/><path class="cls-7" d="M72.48,140.59C56.76,140.43,50,145.7,50,145.7"/><path class="cls-7" d="M96.17,146.4s-8-5.64-23.69-5.81"/><path class="cls-7" d="M72.48,142.56c-15.72-.16-23.56,5.75-23.56,5.75"/><path class="cls-7" d="M97.29,149s-9.09-6.22-24.81-6.39"/><path class="cls-7" d="M72.49,145.05c-15.72-.16-24.83,6.28-24.83,6.28"/><path class="cls-7" d="M98.57,151.83s-10.36-6.62-26.08-6.78"/><path class="cls-8" d="M65.24,142.66a3.85,3.85,0,0,1-.26-.79,1.93,1.93,0,0,1-.06-.41,2,2,0,0,1,0-.42l0,.06a1.19,1.19,0,0,1-.43-.4,1.82,1.82,0,0,1-.22-.47,2.28,2.28,0,0,1-.07-1,3.8,3.8,0,0,0,.23.94,1.48,1.48,0,0,0,.61.79.07.07,0,0,1,0,0h0a2.61,2.61,0,0,0,0,.4,2.68,2.68,0,0,0,0,.4A7.58,7.58,0,0,0,65.24,142.66Z"/><path class="cls-8" d="M62.56,142.57a2.09,2.09,0,0,1-.4-.51.91.91,0,0,1-.11-.3.5.5,0,0,1,.06-.35l.1.09a.46.46,0,0,1-.29,0,.56.56,0,0,1-.16-.14.88.88,0,0,1-.16-.32,1.93,1.93,0,0,1-.09-.68,4.41,4.41,0,0,0,.23.64,1.69,1.69,0,0,0,.17.29.31.31,0,0,0,.27.12s.1,0,.11,0a.06.06,0,0,1,0,0h0a.63.63,0,0,0,0,.55A4.77,4.77,0,0,0,62.56,142.57Z"/><path class="cls-8" d="M72.4,142.42a6.36,6.36,0,0,1-.62-.85,2.15,2.15,0,0,1-.22-.46.74.74,0,0,1,0-.25.3.3,0,0,1,.13-.28l.06.11a.29.29,0,0,1-.2-.08.81.81,0,0,1-.09-.1,1.13,1.13,0,0,1-.12-.21,3.81,3.81,0,0,1-.15-.44A5.2,5.2,0,0,1,71,139c.1.29.2.58.29.86s.11.28.18.41a.78.78,0,0,0,.11.2.3.3,0,0,0,.13.11.09.09,0,0,1,.11,0,.06.06,0,0,1,0,.07l0,0a.19.19,0,0,0-.08.17,1,1,0,0,0,0,.23,4.22,4.22,0,0,0,.18.45C72.06,141.83,72.23,142.12,72.4,142.42Z"/><path class="cls-8" d="M53.53,145.76a4.18,4.18,0,0,1-.65-.53,2.09,2.09,0,0,1-.25-.32.5.5,0,0,1-.05-.44l.12.07a.27.27,0,0,1-.21,0l-.14,0a1.26,1.26,0,0,1-.23-.13,2.24,2.24,0,0,1-.38-.29,5.81,5.81,0,0,1-.67-.64,7.27,7.27,0,0,1,.78.55c.14.09.26.18.4.26a.88.88,0,0,0,.21.12.34.34,0,0,0,.18,0,.1.1,0,0,1,.1,0s0,0,0,.07l0,0a.42.42,0,0,0,0,.34,1.6,1.6,0,0,0,.21.32A7.34,7.34,0,0,0,53.53,145.76Z"/><path class="cls-8" d="M70.87,142.8a6.86,6.86,0,0,1-.31-1.07,5,5,0,0,1-.07-.54,2.53,2.53,0,0,1,0-.28.51.51,0,0,1,.14-.3l.09.11a.27.27,0,0,1-.17,0,.31.31,0,0,1-.09-.07.51.51,0,0,1-.09-.13,2.28,2.28,0,0,1-.13-.28,5.18,5.18,0,0,1-.17-.56,8.6,8.6,0,0,1-.19-1.13l.33,1.11c.06.19.12.37.19.55s.08.17.13.26a.44.44,0,0,0,.08.11.18.18,0,0,0,.06,0l.1.1a.43.43,0,0,0-.09.23,1.14,1.14,0,0,0,0,.26,4.9,4.9,0,0,0,0,.54C70.75,142.08,70.82,142.44,70.87,142.8Z"/><path class="cls-8" d="M69.58,142.3a5.59,5.59,0,0,1,0-.82c0-.14,0-.28,0-.42l.06-.2a.23.23,0,0,1,0-.11.33.33,0,0,1,.08-.11l.08.1a.34.34,0,0,1-.27-.07.56.56,0,0,1-.12-.16,1.16,1.16,0,0,1-.07-.31,2.16,2.16,0,0,1,0-.62,6,6,0,0,0,.1.61,1.33,1.33,0,0,0,.1.28.2.2,0,0,0,.09.11.1.1,0,0,0,.1,0h0s.1,0,.11.06a.06.06,0,0,1,0,.05.21.21,0,0,0,0,.07l0,.1a1.06,1.06,0,0,0-.06.19l-.08.41C69.69,141.76,69.64,142,69.58,142.3Z"/><path class="cls-8" d="M67.88,141.54a.91.91,0,0,1-.31-.4.31.31,0,0,1,0-.25.38.38,0,0,1,.21-.22l.07.12a.39.39,0,0,1-.21,0,.69.69,0,0,1-.12-.1.64.64,0,0,1-.09-.21,1.19,1.19,0,0,1,0-.42c0,.13.09.26.15.39a1,1,0,0,0,.1.17.13.13,0,0,0,.12.07h0s.1,0,.11,0a.06.06,0,0,1,0,.08.3.3,0,0,0-.19.34A1.3,1.3,0,0,0,67.88,141.54Z"/><path class="cls-8" d="M69.23,142.76a4.33,4.33,0,0,1-.78-.95,1.69,1.69,0,0,1-.21-.55.67.67,0,0,1,.14-.58l.1.1a.25.25,0,0,1-.22-.05.38.38,0,0,1-.11-.11.91.91,0,0,1-.11-.22,2.18,2.18,0,0,1-.11-.44,4.34,4.34,0,0,1-.06-.88c.06.29.12.58.19.87a3.52,3.52,0,0,0,.15.42,1.14,1.14,0,0,0,.1.19.6.6,0,0,0,.08.08l0,0a.09.09,0,0,1,.11.05s0,0,0,0a.58.58,0,0,0-.12.49,2.11,2.11,0,0,0,.17.52A6.66,6.66,0,0,0,69.23,142.76Z"/><path class="cls-8" d="M56.39,145.2a8.28,8.28,0,0,1-.7-.89,4.76,4.76,0,0,1-.28-.49,1.39,1.39,0,0,1-.1-.26.4.4,0,0,1,0-.32l.13.06a.3.3,0,0,1-.17,0l-.11,0-.15-.09-.23-.22a5.45,5.45,0,0,1-.38-.46,7.48,7.48,0,0,1-.64-1c.25.31.5.61.76.91l.4.45.23.2.12.08.07,0,.13.06a.4.4,0,0,0,0,.24,2.41,2.41,0,0,0,.08.25l.25.48C56,144.57,56.2,144.88,56.39,145.2Z"/><path class="cls-8" d="M55,145.15a6.46,6.46,0,0,1-.33-.76c-.05-.13-.09-.26-.13-.4s0-.14,0-.21a.37.37,0,0,1,0-.11.26.26,0,0,1,0-.14l.12.07a.4.4,0,0,1-.28,0,.69.69,0,0,1-.17-.1,1.21,1.21,0,0,1-.2-.26,1.75,1.75,0,0,1-.22-.59c.11.18.22.36.34.52a1.58,1.58,0,0,0,.22.23.27.27,0,0,0,.12.06.13.13,0,0,0,.11,0h0s.1,0,.12,0a.07.07,0,0,1,0,.05.1.1,0,0,0,0,.08.38.38,0,0,0,0,.1,1.62,1.62,0,0,0,0,.2l.09.4Z"/><path class="cls-8" d="M55,145.7a5,5,0,0,1-1.1-.58,1.9,1.9,0,0,1-.44-.41.64.64,0,0,1-.13-.57l.13.05a.31.31,0,0,1-.22,0,.42.42,0,0,1-.15-.06.75.75,0,0,1-.2-.15,2,2,0,0,1-.31-.34,3.61,3.61,0,0,1-.47-.77c.19.23.38.47.59.69s.21.22.32.32a1.33,1.33,0,0,0,.19.14l.1,0h.06s.1,0,.12,0,0,0,0,0a.63.63,0,0,0,.12.49A2.14,2.14,0,0,0,54,145,6.82,6.82,0,0,0,55,145.7Z"/><path class="cls-8" d="M63.53,143.35a6.49,6.49,0,0,1-.47-1,4.77,4.77,0,0,1-.15-.54,1.17,1.17,0,0,1,0-.27.52.52,0,0,1,.09-.32l.11.09a.22.22,0,0,1-.18,0,.19.19,0,0,1-.09-.05.68.68,0,0,1-.12-.12,1.84,1.84,0,0,1-.17-.25,3.65,3.65,0,0,1-.25-.53,6.92,6.92,0,0,1-.38-1.08l.51,1c.09.17.18.34.28.51a1.88,1.88,0,0,0,.16.23l.1.1.07,0,.11.08a.45.45,0,0,0,0,.24,2.28,2.28,0,0,0,0,.26,4.56,4.56,0,0,0,.13.53C63.3,142.65,63.42,143,63.53,143.35Z"/><path class="cls-8" d="M61,143.76a4,4,0,0,1-.24-1.07,2.11,2.11,0,0,1,0-.56.81.81,0,0,1,.09-.29.51.51,0,0,1,.24-.27l0,.11a.45.45,0,0,1-.34-.14.66.66,0,0,1-.14-.24,1.42,1.42,0,0,1-.08-.5,3.58,3.58,0,0,1,.14-1,6.68,6.68,0,0,0,0,1,2,2,0,0,0,.11.48c0,.15.16.3.33.29s.09,0,.09.06a.07.07,0,0,1,0,0h0a.71.71,0,0,0-.27.47,2.32,2.32,0,0,0-.05.53A7.88,7.88,0,0,0,61,143.76Z"/><path class="cls-8" d="M56.44,143.75a1,1,0,0,1-.43-.29.39.39,0,0,1-.09-.24.4.4,0,0,1,.13-.27l.11.09a.39.39,0,0,1-.21,0l-.14-.06a1.29,1.29,0,0,1-.16-.18.89.89,0,0,1-.12-.4c.09.11.17.23.27.33a.57.57,0,0,0,.14.13c.06,0,.1,0,.14,0h0a.09.09,0,0,1,.12,0s0,.05,0,.08a.31.31,0,0,0-.07.38A1.32,1.32,0,0,0,56.44,143.75Z"/><path class="cls-8" d="M64.78,143.13a4.36,4.36,0,0,1-.88-.89,1.81,1.81,0,0,1-.26-.52.67.67,0,0,1,.09-.59l.1.09a.26.26,0,0,1-.22,0,.42.42,0,0,1-.12-.1.8.8,0,0,1-.13-.21,2.5,2.5,0,0,1-.16-.43,4.4,4.4,0,0,1-.15-.87c.09.28.18.57.28.84s.12.28.19.41a.8.8,0,0,0,.13.19l.07.07h.06a.12.12,0,0,1,.12,0,.07.07,0,0,1,0,.05.59.59,0,0,0-.07.5,1.7,1.7,0,0,0,.22.5A5.87,5.87,0,0,0,64.78,143.13Z"/><path class="cls-8" d="M67.48,141.94a1.94,1.94,0,0,1-.5-.49.79.79,0,0,1-.11-.65l.14.07-.14,0a.33.33,0,0,1-.15,0,.4.4,0,0,1-.15-.13.86.86,0,0,1-.11-.29,1.63,1.63,0,0,1,0-.58c.06.18.11.37.18.55a1,1,0,0,0,.14.25l.09.09a.1.1,0,0,0,.09,0,.12.12,0,0,1,.13,0s0,0,0,0h0a.78.78,0,0,0,0,.14.75.75,0,0,0,0,.15,1.4,1.4,0,0,0,.09.29A3,3,0,0,0,67.48,141.94Z"/><path class="cls-8" d="M66.48,142.79a5.91,5.91,0,0,1-.57-.87,3.15,3.15,0,0,1-.2-.47.8.8,0,0,1,0-.26.32.32,0,0,1,.1-.28l0,.05a.92.92,0,0,1,0-.52,3.39,3.39,0,0,1,.17-.51,6.57,6.57,0,0,1,.5-1c-.14.34-.26.67-.37,1a4.1,4.1,0,0,0-.14.5,1.31,1.31,0,0,0,0,.48.07.07,0,0,1,0,.06.21.21,0,0,0-.05.19.85.85,0,0,0,0,.23,4.37,4.37,0,0,0,.18.46C66.18,142.18,66.34,142.48,66.48,142.79Z"/><path class="cls-8" d="M59.21,142.81a.9.9,0,0,1-.39-.33.31.31,0,0,1-.07-.24.43.43,0,0,1,.16-.26l.1.1a.31.31,0,0,1-.21,0,.46.46,0,0,1-.14-.07.72.72,0,0,1-.13-.19,1,1,0,0,1-.09-.41c.08.12.15.24.24.35a.93.93,0,0,0,.13.15s.09,0,.13,0h0a.1.1,0,0,1,.12,0,.06.06,0,0,1,0,.08.3.3,0,0,0-.1.38A1.17,1.17,0,0,0,59.21,142.81Z"/><path class="cls-8" d="M60.75,143.91a4.91,4.91,0,0,1-.89-.87,1.75,1.75,0,0,1-.28-.52.73.73,0,0,1,0-.61l.11.07a.23.23,0,0,1-.24,0,.26.26,0,0,1-.1-.11,1,1,0,0,1-.12-.23,2.85,2.85,0,0,1-.13-.48,5.56,5.56,0,0,1-.1-1c.08.32.15.65.23,1,.05.16.1.31.16.47a2.12,2.12,0,0,0,.11.21.3.3,0,0,0,.08.08s0,0,0,0a.1.1,0,0,1,.12,0,.06.06,0,0,1,0,.06h0a.67.67,0,0,0,0,.52,2,2,0,0,0,.25.5A6.66,6.66,0,0,0,60.75,143.91Z"/><path class="cls-8" d="M58.07,144.1a4.72,4.72,0,0,1-.68-.66,3.28,3.28,0,0,1-.27-.38l-.09-.22a.85.85,0,0,1,0-.23l.15,0a.34.34,0,0,1-.12.06.29.29,0,0,1-.16,0,.5.5,0,0,1-.18-.09,1.1,1.1,0,0,1-.19-.25,1.85,1.85,0,0,1-.19-.56c.1.17.2.34.31.5a2.08,2.08,0,0,0,.21.21.29.29,0,0,0,.12.07s0,0,.08,0a.1.1,0,0,1,.13,0,.05.05,0,0,1,0,0,1.36,1.36,0,0,0,0,.2l.08.2a2.06,2.06,0,0,0,.23.37C57.68,143.62,57.88,143.86,58.07,144.1Z"/><path class="cls-8" d="M58.92,144.12a5.9,5.9,0,0,1-.74-.76,2.2,2.2,0,0,1-.3-.43.94.94,0,0,1-.1-.23.34.34,0,0,1,0-.3v.06a1,1,0,0,1-.07-.52,3.19,3.19,0,0,1,.06-.53,6,6,0,0,1,.31-1c-.07.35-.13.7-.18,1l0,.52a1.24,1.24,0,0,0,.08.48,0,0,0,0,1,0,.06.24.24,0,0,0,0,.19.85.85,0,0,0,.09.22,3.87,3.87,0,0,0,.27.43C58.5,143.58,58.72,143.84,58.92,144.12Z"/><path class="cls-8" d="M87,144.56a3.72,3.72,0,0,1,.11-.88,2.13,2.13,0,0,1,.13-.43,3.86,3.86,0,0,1,.2-.41v.07a1.15,1.15,0,0,1-.25-.57,1.45,1.45,0,0,1,0-.55,2.61,2.61,0,0,1,.38-1,4.1,4.1,0,0,0-.21,1,1.41,1.41,0,0,0,.25,1,.06.06,0,0,1,0,.07h0a2.93,2.93,0,0,0-.21.39,3.42,3.42,0,0,0-.17.4A8.29,8.29,0,0,0,87,144.56Z"/><path class="cls-8" d="M84.29,143.35a1.83,1.83,0,0,1-.16-.68,1,1,0,0,1,0-.34.48.48,0,0,1,.23-.31l.06.13a.58.58,0,0,1-.29-.16.48.48,0,0,1-.09-.21,1,1,0,0,1,0-.38,2,2,0,0,1,.22-.7,5.83,5.83,0,0,0-.06.72,1,1,0,0,0,0,.35.29.29,0,0,0,.21.24c.06,0,.1.05.1.08l0,0h0a.72.72,0,0,0-.25.55A4.87,4.87,0,0,0,84.29,143.35Z"/><path class="cls-8" d="M93.89,147.64c0-.36,0-.74,0-1.11a2.56,2.56,0,0,1,0-.55.82.82,0,0,1,.1-.26.34.34,0,0,1,.28-.19v.14a.34.34,0,0,1-.14-.18.44.44,0,0,1,0-.15,1.13,1.13,0,0,1,0-.26,2.66,2.66,0,0,1,.1-.49,4.73,4.73,0,0,1,.34-.91c-.07.33-.13.65-.19,1,0,.16-.05.32-.06.48a1.92,1.92,0,0,0,0,.24c0,.08,0,.18.06.18s.09,0,.09.08,0,.05-.06.06h0a.22.22,0,0,0-.17.12.85.85,0,0,0-.09.24,2.82,2.82,0,0,0-.09.52C94,146.92,94,147.29,93.89,147.64Z"/><path class="cls-8" d="M73.35,142.36a3.22,3.22,0,0,1-.27-.83,1.23,1.23,0,0,1,0-.43.52.52,0,0,1,.24-.42l.06.13a.45.45,0,0,1-.21-.1l-.1-.12a1.34,1.34,0,0,1-.12-.24,4.26,4.26,0,0,1-.15-.47,5.27,5.27,0,0,1-.13-1l.3.94a4.28,4.28,0,0,0,.17.46,1.43,1.43,0,0,0,.12.21c0,.07.12.14.14.13a.11.11,0,0,1,.12,0s0,.05,0,.07l0,0a.44.44,0,0,0-.19.33,1.86,1.86,0,0,0,0,.41A6.1,6.1,0,0,0,73.35,142.36Z"/><path class="cls-8" d="M92.36,147.22a7.54,7.54,0,0,1,.28-1.16,5.48,5.48,0,0,1,.23-.56l.16-.26a.53.53,0,0,1,.28-.21l0,.15a.31.31,0,0,1-.15-.11.34.34,0,0,1,0-.11.58.58,0,0,1,0-.18c0-.12,0-.22,0-.33a4.13,4.13,0,0,1,.13-.61,9,9,0,0,1,.4-1.17c-.09.4-.17.81-.26,1.22l-.09.61c0,.11,0,.21,0,.31s0,.11,0,.15,0,.09,0,.07l0,.15a.48.48,0,0,0-.21.17,1.43,1.43,0,0,0-.16.24,5.05,5.05,0,0,0-.24.53C92.64,146.48,92.51,146.85,92.36,147.22Z"/><path class="cls-8" d="M91.41,146.13a6,6,0,0,1,.44-.78c.08-.13.17-.25.26-.37l.16-.18.08-.08.14-.08,0,.15a.37.37,0,0,1-.23-.21.38.38,0,0,1,0-.2,1.31,1.31,0,0,1,.09-.34,2.28,2.28,0,0,1,.36-.57,5.17,5.17,0,0,0-.21.63,1.19,1.19,0,0,0,0,.32.37.37,0,0,0,0,.15.18.18,0,0,0,.09.08h0s.09.07.07.1a0,0,0,0,1,0,0s0,0-.08.05l-.08.07-.15.17-.29.35Z"/><path class="cls-8" d="M90.12,144.66a.92.92,0,0,1-.12-.53.41.41,0,0,1,.11-.24.47.47,0,0,1,.32-.13l0,.15a.45.45,0,0,1-.2-.12.37.37,0,0,1-.07-.14.68.68,0,0,1,0-.25,1.1,1.1,0,0,1,.21-.4c0,.15,0,.3,0,.44a.71.71,0,0,0,0,.21c0,.07,0,.11.09.12h0c.06,0,.1,0,.09.09s0,0-.07,0a.35.35,0,0,0-.35.26A1.15,1.15,0,0,0,90.12,144.66Z"/><path class="cls-8" d="M90.85,146.42a4.34,4.34,0,0,1-.29-1.27,1.62,1.62,0,0,1,.06-.62.72.72,0,0,1,.43-.49l0,.14a.36.36,0,0,1-.2-.15.26.26,0,0,1-.05-.15.83.83,0,0,1,0-.27,3.56,3.56,0,0,1,.1-.47,4.67,4.67,0,0,1,.38-.89c-.08.31-.17.62-.23.93a4,4,0,0,0-.06.47.65.65,0,0,0,0,.24.62.62,0,0,0,0,.1l.05,0a.12.12,0,0,1,.09.1l0,0a.67.67,0,0,0-.37.42,1.85,1.85,0,0,0-.08.58A5.87,5.87,0,0,0,90.85,146.42Z"/><path class="cls-8" d="M76.65,143.25a7,7,0,0,1-.21-1.18,2.92,2.92,0,0,1,0-.59,1,1,0,0,1,0-.3.49.49,0,0,1,.18-.3l.09.12a.29.29,0,0,1-.19-.05.6.6,0,0,1-.08-.08.51.51,0,0,1-.09-.16,1.92,1.92,0,0,1-.11-.31,4.38,4.38,0,0,1-.12-.61,8.68,8.68,0,0,1-.07-1.24c.07.41.15.82.22,1.23,0,.2.09.4.15.61s.07.19.11.29l.08.13a.18.18,0,0,0,.06.05l.1.12a.44.44,0,0,0-.13.23,2.74,2.74,0,0,0,0,.28,5.62,5.62,0,0,0,0,.58C76.6,142.46,76.63,142.86,76.65,143.25Z"/><path class="cls-8" d="M75.29,142.57a5.16,5.16,0,0,1,.11-.88,3.15,3.15,0,0,1,.11-.44c0-.07,0-.14.07-.22a.37.37,0,0,0,0-.11.82.82,0,0,1,.1-.11l.09.12a.39.39,0,0,1-.3-.11.58.58,0,0,1-.11-.18,1.37,1.37,0,0,1,0-.34,1.84,1.84,0,0,1,.12-.66q0,.33,0,.66a1.67,1.67,0,0,0,.08.32.51.51,0,0,0,.09.13.14.14,0,0,0,.11,0h0c.06,0,.11,0,.11.07a.05.05,0,0,1,0,0,.18.18,0,0,0,0,.08.41.41,0,0,1,0,.09l-.08.21-.14.42C75.47,142,75.39,142.28,75.29,142.57Z"/><path class="cls-8" d="M74.86,143A4.15,4.15,0,0,1,74.1,142a2.06,2.06,0,0,1-.17-.6.72.72,0,0,1,.23-.61l.1.12a.38.38,0,0,1-.24-.08.4.4,0,0,1-.11-.12.84.84,0,0,1-.09-.25,2,2,0,0,1-.08-.48,4.3,4.3,0,0,1,0-1c0,.31.07.63.12,1a2.52,2.52,0,0,0,.1.46,1.47,1.47,0,0,0,.1.22.27.27,0,0,0,.07.08.08.08,0,0,0,.06,0,.12.12,0,0,1,.12.07l0,.05a.65.65,0,0,0-.2.52,1.7,1.7,0,0,0,.14.57A5.41,5.41,0,0,0,74.86,143Z"/><path class="cls-8" d="M84.91,144.56a6.76,6.76,0,0,1,0-1.19,3.83,3.83,0,0,1,.1-.59,1.4,1.4,0,0,1,.09-.29.52.52,0,0,1,.23-.27l.07.14a.34.34,0,0,1-.18-.08l-.07-.09c0-.07,0-.12-.06-.17a2,2,0,0,1,0-.33,4.42,4.42,0,0,1,0-.63,8.56,8.56,0,0,1,.13-1.23c0,.42,0,.84,0,1.25,0,.21,0,.42,0,.62a1.55,1.55,0,0,0,.06.31.58.58,0,0,0,0,.14s.07.07.05.06l.08.13a.44.44,0,0,0-.17.21c0,.09-.07.18-.1.27a5.72,5.72,0,0,0-.11.57C85,143.78,85,144.17,84.91,144.56Z"/><path class="cls-8" d="M82.12,143.86a4.6,4.6,0,0,1,.28-1.15,2.81,2.81,0,0,1,.29-.54,1.34,1.34,0,0,1,.23-.25.74.74,0,0,1,.38-.16v.13a.45.45,0,0,1-.28-.28.62.62,0,0,1,0-.3,1.83,1.83,0,0,1,.15-.52,4.13,4.13,0,0,1,.63-.95,6,6,0,0,0-.48,1,3.14,3.14,0,0,0-.12.51.4.4,0,0,0,.21.43s.07.06,0,.09a.07.07,0,0,1-.06,0h0a.86.86,0,0,0-.5.35,2.36,2.36,0,0,0-.3.51A8.7,8.7,0,0,0,82.12,143.86Z"/><path class="cls-8" d="M77.49,141.87a.91.91,0,0,1-.27-.47.33.33,0,0,1,0-.27.5.5,0,0,1,.27-.21l.06.14a.44.44,0,0,1-.23-.06.4.4,0,0,1-.11-.12.71.71,0,0,1-.06-.23,1.17,1.17,0,0,1,.09-.45c0,.15,0,.3.09.44a.84.84,0,0,0,.07.19c0,.07.08.09.13.09h0c.06,0,.1,0,.11.06s0,.06-.05.07a.36.36,0,0,0-.27.35A1.23,1.23,0,0,0,77.49,141.87Z"/><path class="cls-8" d="M86.27,144.84a4.61,4.61,0,0,1-.46-1.23,1.85,1.85,0,0,1,0-.62.77.77,0,0,1,.37-.55l.07.13a.29.29,0,0,1-.22-.12.5.5,0,0,1-.08-.14,1.18,1.18,0,0,1,0-.25,2.63,2.63,0,0,1,.05-.49,4,4,0,0,1,.25-.92c0,.31-.08.63-.1.95a3.69,3.69,0,0,0,0,.47,1.57,1.57,0,0,0,0,.23l.06.1s0,0,0,0a.11.11,0,0,1,.1.09s0,0,0,0A.66.66,0,0,0,86,143a1.88,1.88,0,0,0,0,.58A6.89,6.89,0,0,0,86.27,144.84Z"/><path class="cls-8" d="M89.53,144.87a1.77,1.77,0,0,1-.25-.72.82.82,0,0,1,.2-.68l.1.13-.16,0a.33.33,0,0,1-.13-.09.39.39,0,0,1-.09-.2.91.91,0,0,1,0-.33,2,2,0,0,1,.24-.59c0,.21-.07.41-.09.62a1.56,1.56,0,0,0,0,.31.27.27,0,0,0,0,.12.12.12,0,0,0,.1,0s.11,0,.11.08,0,0,0,.05h0a.64.64,0,0,0-.1.13.59.59,0,0,0-.06.14,1.13,1.13,0,0,0,0,.32A2.86,2.86,0,0,0,89.53,144.87Z"/><path class="cls-8" d="M88.14,145.23a6.06,6.06,0,0,1-.16-1.11,5.15,5.15,0,0,1,0-.55,2.68,2.68,0,0,1,.07-.27.42.42,0,0,1,.24-.23l0,.05a1.32,1.32,0,0,1,.29-.5,5.55,5.55,0,0,1,.42-.42,7.34,7.34,0,0,1,1-.73c-.3.26-.59.53-.86.81a5.3,5.3,0,0,0-.38.43,1.19,1.19,0,0,0-.25.45.06.06,0,0,1,0,.05.28.28,0,0,0-.14.16,1,1,0,0,0-.07.25,3.07,3.07,0,0,0,0,.53C88.13,144.5,88.14,144.87,88.14,145.23Z"/><path class="cls-8" d="M80.77,142.19a1.11,1.11,0,0,1-.24-.5.36.36,0,0,1,.06-.26.43.43,0,0,1,.28-.18l0,.13a.34.34,0,0,1-.22-.07.38.38,0,0,1-.1-.13.55.55,0,0,1,0-.24,1,1,0,0,1,.12-.44c0,.15,0,.3,0,.44a1.29,1.29,0,0,0,.07.21c0,.06.07.09.11.09h0s.1,0,.1.07,0,.06-.06.07a.34.34,0,0,0-.28.32A1.25,1.25,0,0,0,80.77,142.19Z"/><path class="cls-8" d="M81.81,143.91a4.05,4.05,0,0,1-.49-1.21,1.68,1.68,0,0,1,0-.63.8.8,0,0,1,.33-.58l.08.13a.29.29,0,0,1-.24-.14.56.56,0,0,1,0-.15,1.34,1.34,0,0,1,0-.28,3.12,3.12,0,0,1,.11-.53,5.8,5.8,0,0,1,.37-1c-.08.34-.16.69-.23,1a4.88,4.88,0,0,0-.06.52.75.75,0,0,0,0,.26.53.53,0,0,0,0,.12s0,0,.05,0a.11.11,0,0,1,.11.07s0,0,0,.05h0a.81.81,0,0,0-.29.5,2,2,0,0,0,0,.6A6.05,6.05,0,0,0,81.81,143.91Z"/><path class="cls-8" d="M79,143a3.65,3.65,0,0,1-.36-.93,2,2,0,0,1-.07-.49,1,1,0,0,1,0-.24.75.75,0,0,1,.08-.24l.14.1a.42.42,0,0,1-.16,0,.39.39,0,0,1-.16-.07.48.48,0,0,1-.13-.17,1,1,0,0,1,0-.33,2,2,0,0,1,.08-.63c0,.22,0,.43.07.63a1,1,0,0,0,.09.3.24.24,0,0,0,.08.11s.05,0,.1,0a.13.13,0,0,1,.13.05.06.06,0,0,1,0,.06,1.18,1.18,0,0,0-.07.2,1.64,1.64,0,0,0,0,.23,2.42,2.42,0,0,0,0,.46C78.82,142.32,78.89,142.63,79,143Z"/><path class="cls-8" d="M79.82,143.32a6.91,6.91,0,0,1-.37-1,2.52,2.52,0,0,1-.08-.54.89.89,0,0,1,0-.28.39.39,0,0,1,.19-.27l0,0a1.29,1.29,0,0,1,.19-.54,5.25,5.25,0,0,1,.33-.49,6.78,6.78,0,0,1,.81-.89c-.24.31-.46.62-.68.94-.1.16-.2.33-.28.49a1.22,1.22,0,0,0-.16.5.07.07,0,0,1,0,0,.27.27,0,0,0-.11.19,1.06,1.06,0,0,0,0,.25,4.75,4.75,0,0,0,.05.53C79.67,142.61,79.76,143,79.82,143.32Z"/><path class="cls-8" d="M64.68,144.85a3.69,3.69,0,0,1-.3-.82,3,3,0,0,1-.07-.43,3.23,3.23,0,0,1,0-.44l0,.06a1.25,1.25,0,0,1-.48-.39,2,2,0,0,1-.24-.49,2.34,2.34,0,0,1-.09-1,3.64,3.64,0,0,0,.26,1,1.45,1.45,0,0,0,.67.8.06.06,0,0,1,0,.06h0c0,.14,0,.28,0,.42s0,.29,0,.43A6.17,6.17,0,0,0,64.68,144.85Z"/><path class="cls-8" d="M61.76,144.85a2.09,2.09,0,0,1-.45-.54,1.17,1.17,0,0,1-.12-.31.45.45,0,0,1,.07-.36l.11.09a.45.45,0,0,1-.33,0,.4.4,0,0,1-.17-.14.9.9,0,0,1-.18-.33,1.92,1.92,0,0,1-.11-.71c.08.23.16.45.26.67a1.15,1.15,0,0,0,.2.29.29.29,0,0,0,.29.13c.05,0,.11,0,.12,0s0,0,0,0h0a.66.66,0,0,0,0,.58A6.45,6.45,0,0,0,61.76,144.85Z"/><path class="cls-8" d="M72.48,144.54a6.26,6.26,0,0,1-.68-.9,2.52,2.52,0,0,1-.25-.49.76.76,0,0,1,0-.27.3.3,0,0,1,.14-.28l.06.12a.37.37,0,0,1-.21-.09.52.52,0,0,1-.1-.11,1.71,1.71,0,0,1-.13-.23,3,3,0,0,1-.16-.45,4.93,4.93,0,0,1-.16-.92c.1.3.21.6.32.9a4,4,0,0,0,.19.43.88.88,0,0,0,.12.21.41.41,0,0,0,.14.12.09.09,0,0,1,.12,0s0,0,0,.06l0,0a.22.22,0,0,0-.08.18,1,1,0,0,0,0,.24,4.89,4.89,0,0,0,.2.48C72.1,143.91,72.29,144.22,72.48,144.54Z"/><path class="cls-8" d="M51.91,148.57a3.48,3.48,0,0,1-.67-.53,1.62,1.62,0,0,1-.26-.34.5.5,0,0,1,0-.47l.13.07a.34.34,0,0,1-.23,0l-.15-.05a1.34,1.34,0,0,1-.24-.12,4.17,4.17,0,0,1-.4-.3,5.53,5.53,0,0,1-.68-.69c.28.19.54.39.81.58s.27.19.41.28a1.51,1.51,0,0,0,.22.11c.07,0,.18.05.19,0a.13.13,0,0,1,.12,0s0,0,0,.07l0,0a.42.42,0,0,0,0,.36,2.46,2.46,0,0,0,.22.34A6.42,6.42,0,0,0,51.91,148.57Z"/><path class="cls-8" d="M70.81,144.9a6.44,6.44,0,0,1-.34-1.11,3.68,3.68,0,0,1-.08-.58c0-.09,0-.19,0-.29a.51.51,0,0,1,.14-.3l.11.1a.29.29,0,0,1-.19,0,.36.36,0,0,1-.09-.08.67.67,0,0,1-.11-.14,1.92,1.92,0,0,1-.14-.29,4,4,0,0,1-.18-.59,9.62,9.62,0,0,1-.22-1.17c.12.38.25.77.36,1.16.07.19.14.38.22.56a1.47,1.47,0,0,0,.14.28.34.34,0,0,0,.09.12s.08,0,.06,0l.11.1a.47.47,0,0,0-.1.24,2.45,2.45,0,0,0,0,.27,5.07,5.07,0,0,0,0,.56C70.67,144.15,70.75,144.53,70.81,144.9Z"/><path class="cls-8" d="M69.4,144.39a6.32,6.32,0,0,1,0-.87,3,3,0,0,1,.06-.42,1.42,1.42,0,0,1,0-.22.36.36,0,0,1,0-.11.21.21,0,0,1,.08-.13l.09.11a.41.41,0,0,1-.3-.07.42.42,0,0,1-.12-.16,1,1,0,0,1-.09-.32,2,2,0,0,1,0-.65c0,.21.06.42.11.63a1.45,1.45,0,0,0,.11.29.38.38,0,0,0,.09.12.16.16,0,0,0,.12,0h0c.06,0,.11,0,.12.06a.08.08,0,0,1,0,.05l0,.08,0,.1-.06.21-.09.42C69.51,143.82,69.47,144.1,69.4,144.39Z"/><path class="cls-8" d="M67.55,143.65a.91.91,0,0,1-.35-.41.33.33,0,0,1,0-.26.5.5,0,0,1,.22-.24l.09.12a.44.44,0,0,1-.23,0,.49.49,0,0,1-.13-.1.5.5,0,0,1-.1-.21.94.94,0,0,1,0-.44,3.7,3.7,0,0,0,.17.4,1.74,1.74,0,0,0,.11.18.17.17,0,0,0,.13.06h0c.05,0,.11,0,.12.05s0,.06,0,.08a.32.32,0,0,0-.19.37A1.22,1.22,0,0,0,67.55,143.65Z"/><path class="cls-8" d="M69,144.88a4.34,4.34,0,0,1-.86-1,1.78,1.78,0,0,1-.24-.57.72.72,0,0,1,.16-.61l.11.11a.37.37,0,0,1-.25-.05.65.65,0,0,1-.12-.11,1.27,1.27,0,0,1-.12-.23,1.83,1.83,0,0,1-.12-.46,4,4,0,0,1-.08-.92c.07.3.14.6.22.9,0,.15.1.3.16.44a1.32,1.32,0,0,0,.12.2l.08.08a.08.08,0,0,0,.06,0,.09.09,0,0,1,.12,0s0,0,0,.05a.59.59,0,0,0-.13.51,1.54,1.54,0,0,0,.2.54A5.61,5.61,0,0,0,69,144.88Z"/><path class="cls-8" d="M55.06,147.85a7.33,7.33,0,0,1-.76-.91,3.68,3.68,0,0,1-.3-.5,1,1,0,0,1-.11-.28.47.47,0,0,1,0-.33l.15.06a.3.3,0,0,1-.19,0,.24.24,0,0,1-.12,0l-.15-.09a1.79,1.79,0,0,1-.25-.22,3.54,3.54,0,0,1-.41-.47,8.21,8.21,0,0,1-.69-1l.81.94.44.45a1.59,1.59,0,0,0,.24.2l.14.07s.09,0,.07,0l.14.06a.43.43,0,0,0,0,.25,1.43,1.43,0,0,0,.09.27c.08.17.18.33.27.5C54.63,147.2,54.85,147.52,55.06,147.85Z"/><path class="cls-8" d="M53.59,147.87a6.2,6.2,0,0,1-.36-.79c0-.14-.09-.28-.13-.42a1.43,1.43,0,0,1,0-.22.36.36,0,0,1,0-.11.33.33,0,0,1,0-.15l.13.07a.37.37,0,0,1-.3,0,.43.43,0,0,1-.19-.1,1,1,0,0,1-.21-.26,2,2,0,0,1-.24-.62c.12.19.24.37.37.54a1,1,0,0,0,.23.23.42.42,0,0,0,.13.07.16.16,0,0,0,.12,0h0s.11,0,.13,0,0,0,0,0a.22.22,0,0,0,0,.09s0,.06,0,.1l0,.21.1.42Z"/><path class="cls-8" d="M53.47,148.45a5.33,5.33,0,0,1-1.18-.56,2.39,2.39,0,0,1-.47-.42.68.68,0,0,1-.13-.61l.14,0a.33.33,0,0,1-.24.06.6.6,0,0,1-.16-.05l-.21-.15q-.18-.18-.33-.36a4.16,4.16,0,0,1-.49-.81c.2.24.41.49.62.72a3.51,3.51,0,0,0,.34.33.86.86,0,0,0,.2.13l.11,0h.06c.05,0,.11,0,.13,0s0,0,0,0a.57.57,0,0,0,.11.52,2.38,2.38,0,0,0,.42.42A7.56,7.56,0,0,0,53.47,148.45Z"/><path class="cls-8" d="M62.84,145.65a6.78,6.78,0,0,1-.53-1,5.05,5.05,0,0,1-.18-.55,2.54,2.54,0,0,1,0-.29.5.5,0,0,1,.09-.33l.12.09a.32.32,0,0,1-.19,0,.29.29,0,0,1-.1-.06.87.87,0,0,1-.14-.12,2,2,0,0,1-.18-.26,4.86,4.86,0,0,1-.29-.55,8.12,8.12,0,0,1-.42-1.13l.56,1.09c.1.17.2.35.32.52a1.44,1.44,0,0,0,.18.25.52.52,0,0,0,.11.1.28.28,0,0,0,.07,0l.13.09a.41.41,0,0,0-.06.25,1.24,1.24,0,0,0,0,.27,4.94,4.94,0,0,0,.15.55C62.58,144.93,62.71,145.29,62.84,145.65Z"/><path class="cls-8" d="M60.06,146.15A3.89,3.89,0,0,1,59.8,145a2.34,2.34,0,0,1,0-.59,1.18,1.18,0,0,1,.1-.3.57.57,0,0,1,.26-.3l0,.12a.53.53,0,0,1-.38-.13.67.67,0,0,1-.15-.25,1.61,1.61,0,0,1-.1-.53,3.62,3.62,0,0,1,.14-1.07,6.1,6.1,0,0,0,0,1.05,1.94,1.94,0,0,0,.11.49.41.41,0,0,0,.38.3.07.07,0,0,1,.09.06.1.1,0,0,1,0,.05h0a.81.81,0,0,0-.28.5,2.75,2.75,0,0,0,0,.57A10.73,10.73,0,0,0,60.06,146.15Z"/><path class="cls-8" d="M55.11,146.32a1.07,1.07,0,0,1-.47-.29.37.37,0,0,1-.09-.25.42.42,0,0,1,.14-.29l.12.09a.4.4,0,0,1-.23,0,.49.49,0,0,1-.16-.06.67.67,0,0,1-.16-.18.87.87,0,0,1-.14-.41c.1.11.18.22.29.33a1.07,1.07,0,0,0,.16.14.17.17,0,0,0,.15,0h0a.1.1,0,0,1,.13,0,.06.06,0,0,1,0,.08.29.29,0,0,0-.07.4A1.06,1.06,0,0,0,55.11,146.32Z"/><path class="cls-8" d="M64.18,145.36a4.81,4.81,0,0,1-1-.89,2,2,0,0,1-.29-.54.64.64,0,0,1,.09-.62l.11.09a.31.31,0,0,1-.24,0,.48.48,0,0,1-.13-.09.91.91,0,0,1-.15-.21,1.82,1.82,0,0,1-.17-.44,3.58,3.58,0,0,1-.18-.91c.1.29.2.58.32.87a4.11,4.11,0,0,0,.21.42.79.79,0,0,0,.14.18.18.18,0,0,0,.08.07s.05,0,.06,0,.12,0,.13,0a.07.07,0,0,1,0,.06.59.59,0,0,0-.07.52,1.91,1.91,0,0,0,.25.52A6,6,0,0,0,64.18,145.36Z"/><path class="cls-8" d="M67.12,144.08a1.93,1.93,0,0,1-.55-.51.79.79,0,0,1-.13-.68l.15.07a.33.33,0,0,1-.15,0,.32.32,0,0,1-.17,0,.45.45,0,0,1-.16-.14.88.88,0,0,1-.13-.3,1.78,1.78,0,0,1,0-.61,4.94,4.94,0,0,0,.2.58,1.17,1.17,0,0,0,.15.27.31.31,0,0,0,.11.09.1.1,0,0,0,.09,0,.12.12,0,0,1,.15,0,.06.06,0,0,1,0,0h0a.8.8,0,0,0,0,.15.92.92,0,0,0,0,.16,1.18,1.18,0,0,0,.1.3A2.9,2.9,0,0,0,67.12,144.08Z"/><path class="cls-8" d="M66,145a6.16,6.16,0,0,1-.63-.91,3.12,3.12,0,0,1-.23-.49,1.22,1.22,0,0,1-.06-.26.36.36,0,0,1,.11-.3l0,.06a1.13,1.13,0,0,1,0-.55,4.76,4.76,0,0,1,.19-.53,6.34,6.34,0,0,1,.54-1c-.15.35-.28.7-.4,1.05a4.42,4.42,0,0,0-.14.52,1.07,1.07,0,0,0,0,.5.07.07,0,0,1,0,.06.28.28,0,0,0-.05.2.69.69,0,0,0,.05.24,2.92,2.92,0,0,0,.19.49C65.7,144.33,65.87,144.64,66,145Z"/><path class="cls-8" d="M58.12,145.23a.92.92,0,0,1-.43-.34.38.38,0,0,1-.08-.25.47.47,0,0,1,.17-.28l.11.1a.31.31,0,0,1-.23,0,.71.71,0,0,1-.15-.07.7.7,0,0,1-.15-.2.86.86,0,0,1-.09-.42c.09.12.16.25.25.36a.71.71,0,0,0,.15.15.17.17,0,0,0,.14,0h0a.12.12,0,0,1,.13,0,.07.07,0,0,1,0,.08.32.32,0,0,0-.1.4A1.2,1.2,0,0,0,58.12,145.23Z"/><path class="cls-8" d="M59.81,146.32a4.84,4.84,0,0,1-1-.87,1.89,1.89,0,0,1-.31-.53.73.73,0,0,1,0-.64l.12.08a.32.32,0,0,1-.27,0,.38.38,0,0,1-.11-.11c0-.08-.09-.16-.13-.24a3,3,0,0,1-.14-.51,5.1,5.1,0,0,1-.12-1c.08.34.16.68.26,1l.17.48a2.53,2.53,0,0,0,.13.22l.08.08.06,0a.12.12,0,0,1,.13,0,.06.06,0,0,1,0,.06h0a.66.66,0,0,0,0,.55,1.75,1.75,0,0,0,.28.52A7.17,7.17,0,0,0,59.81,146.32Z"/><path class="cls-8" d="M56.89,146.62a4.33,4.33,0,0,1-.75-.66,2.47,2.47,0,0,1-.28-.38,2.14,2.14,0,0,1-.1-.22.69.69,0,0,1,0-.25l.17,0a.47.47,0,0,1-.14.08.33.33,0,0,1-.17,0,.42.42,0,0,1-.19-.09.83.83,0,0,1-.21-.26,2,2,0,0,1-.22-.58c.12.18.23.35.36.51a1.1,1.1,0,0,0,.21.22.38.38,0,0,0,.13.06.11.11,0,0,0,.09,0,.12.12,0,0,1,.15,0,.05.05,0,0,1,0,0,.76.76,0,0,0,0,.21.72.72,0,0,0,.09.2,4.11,4.11,0,0,0,.24.39C56.47,146.14,56.68,146.38,56.89,146.62Z"/><path class="cls-8" d="M57.81,146.6a5.87,5.87,0,0,1-.81-.76,3.61,3.61,0,0,1-.33-.44,1.33,1.33,0,0,1-.11-.24.33.33,0,0,1,0-.31v.06a1.17,1.17,0,0,1-.08-.55,3.55,3.55,0,0,1,.06-.56,6.73,6.73,0,0,1,.32-1.12c-.07.37-.13.74-.17,1.11a4.89,4.89,0,0,0,0,.54,1.14,1.14,0,0,0,.09.5.2.2,0,0,1,0,.07.2.2,0,0,0,0,.2.67.67,0,0,0,.1.23,3.61,3.61,0,0,0,.29.43C57.35,146.05,57.58,146.32,57.81,146.6Z"/><path class="cls-8" d="M87.81,146.47a4.12,4.12,0,0,1,.1-.86,3.31,3.31,0,0,1,.14-.41,2.4,2.4,0,0,1,.2-.39v.07a1.2,1.2,0,0,1-.24-.56,1.57,1.57,0,0,1,0-.53,2.48,2.48,0,0,1,.38-1,3.88,3.88,0,0,0-.21,1,1.42,1.42,0,0,0,.24,1,.06.06,0,0,1,0,.07h0c-.07.12-.15.24-.21.37s-.11.25-.17.38S87.88,146.19,87.81,146.47Z"/><path class="cls-8" d="M85.19,145.22a1.77,1.77,0,0,1-.16-.66,1,1,0,0,1,0-.34.54.54,0,0,1,.22-.29l.06.13a.47.47,0,0,1-.27-.17.5.5,0,0,1-.09-.2.93.93,0,0,1,0-.37,1.83,1.83,0,0,1,.23-.68,5.56,5.56,0,0,0-.08.7,2.09,2.09,0,0,0,0,.35c0,.11.1.22.21.23s.09.05.09.09,0,0,0,0h0a.69.69,0,0,0-.25.53A3.43,3.43,0,0,0,85.19,145.22Z"/><path class="cls-8" d="M94.69,149.7a10,10,0,0,1-.07-1.1,3.27,3.27,0,0,1,0-.54.58.58,0,0,1,.09-.25.32.32,0,0,1,.26-.19v.14a.3.3,0,0,1-.14-.18,1,1,0,0,1,0-.14v-.26a4,4,0,0,1,.09-.48,5.4,5.4,0,0,1,.31-.88c0,.32-.11.63-.16.94a4,4,0,0,0,0,.47,1.92,1.92,0,0,0,0,.24.39.39,0,0,0,.07.18s.09,0,.09.08a.06.06,0,0,1-.06.05h0a.21.21,0,0,0-.16.12,1.57,1.57,0,0,0-.09.23,3.92,3.92,0,0,0-.07.51Z"/><path class="cls-8" d="M74.42,144.06a2.88,2.88,0,0,1-.26-.8,1.12,1.12,0,0,1,0-.41.49.49,0,0,1,.24-.41l.06.12a.29.29,0,0,1-.21-.1.35.35,0,0,1-.1-.11,1.27,1.27,0,0,1-.12-.23,4.11,4.11,0,0,1-.15-.46,4.94,4.94,0,0,1-.12-.93c.09.31.19.61.29.91a4.13,4.13,0,0,0,.17.45,1.28,1.28,0,0,0,.11.2c0,.07.13.14.14.13a.14.14,0,0,1,.12,0,0,0,0,0,1,0,.07l0,0a.42.42,0,0,0-.18.32,1.67,1.67,0,0,0,0,.39A7.67,7.67,0,0,0,74.42,144.06Z"/><path class="cls-8" d="M93.15,149.23a10.84,10.84,0,0,1,.25-1.13,4,4,0,0,1,.22-.53,1.28,1.28,0,0,1,.15-.25.48.48,0,0,1,.28-.2l0,.14a.34.34,0,0,1-.16-.11.49.49,0,0,1,0-.11,1.22,1.22,0,0,1,0-.17c0-.11,0-.22,0-.32A4,4,0,0,1,94,146a8.92,8.92,0,0,1,.37-1.14c-.07.4-.15.8-.23,1.19,0,.2-.07.4-.09.6s0,.2,0,.3a.57.57,0,0,0,0,.15s0,.09,0,.07l0,.15c-.07,0-.14.09-.2.16a1.14,1.14,0,0,0-.15.23,4,4,0,0,0-.23.51C93.41,148.52,93.29,148.88,93.15,149.23Z"/><path class="cls-8" d="M92.2,148.14a6.79,6.79,0,0,1,.41-.75l.26-.36c0-.05.09-.11.15-.16l.08-.08a.3.3,0,0,1,.14-.07l0,.14a.39.39,0,0,1-.23-.2.54.54,0,0,1,0-.2.9.9,0,0,1,.09-.33,1.86,1.86,0,0,1,.34-.55,6.21,6.21,0,0,0-.2.61,1.12,1.12,0,0,0,0,.31l0,.14a.19.19,0,0,0,.09.09h0c.06,0,.09.06.08.1a.07.07,0,0,1,0,0l-.07,0-.08.07-.15.16-.28.33Z"/><path class="cls-8" d="M90.92,146.67a1,1,0,0,1-.13-.52.38.38,0,0,1,.11-.24.58.58,0,0,1,.32-.11l0,.14a.3.3,0,0,1-.2-.12.37.37,0,0,1-.07-.14.64.64,0,0,1,0-.24.93.93,0,0,1,.2-.38c0,.15,0,.29,0,.43a.66.66,0,0,0,0,.2.17.17,0,0,0,.09.12h0a.11.11,0,0,1,.09.09.07.07,0,0,1-.07,0,.35.35,0,0,0-.35.25A1.1,1.1,0,0,0,90.92,146.67Z"/><path class="cls-8" d="M91.64,148.4a4.51,4.51,0,0,1-.3-1.23,1.76,1.76,0,0,1,.06-.61.7.7,0,0,1,.42-.47l.05.14a.36.36,0,0,1-.2-.15.65.65,0,0,1,0-.15,1.13,1.13,0,0,1,0-.26,1.8,1.8,0,0,1,.1-.46,4,4,0,0,1,.36-.85c-.08.29-.16.6-.22.9a3.4,3.4,0,0,0-.06.46.6.6,0,0,0,0,.23.42.42,0,0,0,0,.1s0,0,0,0,.09.06.09.1a.08.08,0,0,1,0,0,.62.62,0,0,0-.36.4,1.73,1.73,0,0,0-.08.56A7.13,7.13,0,0,0,91.64,148.4Z"/><path class="cls-8" d="M77.66,145a7.57,7.57,0,0,1-.2-1.14,3.72,3.72,0,0,1,0-.58,1.37,1.37,0,0,1,0-.28.47.47,0,0,1,.17-.29l.1.11a.26.26,0,0,1-.19-.05.29.29,0,0,1-.08-.07.65.65,0,0,1-.09-.16,1.82,1.82,0,0,1-.11-.3c0-.2-.08-.4-.11-.6a7.92,7.92,0,0,1-.07-1.19c.07.4.15.79.22,1.19,0,.2.09.39.14.59s.07.19.11.28a.57.57,0,0,0,.08.13s.07.06.06,0l.09.12a.43.43,0,0,0-.12.22,1.31,1.31,0,0,0-.06.27,5.24,5.24,0,0,0,0,.56C77.62,144.19,77.65,144.57,77.66,145Z"/><path class="cls-8" d="M76.33,144.28a4.82,4.82,0,0,1,.11-.85,3.25,3.25,0,0,1,.11-.42c0-.07,0-.14.07-.21a.54.54,0,0,0,0-.11.82.82,0,0,1,.1-.11l.08.12a.38.38,0,0,1-.29-.11.62.62,0,0,1-.1-.17.81.81,0,0,1,0-.34,1.68,1.68,0,0,1,.12-.63,4.57,4.57,0,0,0,0,.64,1,1,0,0,0,.08.31.29.29,0,0,0,.07.12.17.17,0,0,0,.12,0h0a.13.13,0,0,1,.11.07.09.09,0,0,1,0,.06.1.1,0,0,0,0,.07.73.73,0,0,0-.05.09,1.19,1.19,0,0,0-.08.2l-.14.41C76.51,143.73,76.43,144,76.33,144.28Z"/><path class="cls-8" d="M75.9,144.72a4.36,4.36,0,0,1-.74-1.05,1.73,1.73,0,0,1-.16-.58.7.7,0,0,1,.22-.59l.1.11a.34.34,0,0,1-.24-.07.35.35,0,0,1-.1-.12.82.82,0,0,1-.1-.24,2.44,2.44,0,0,1-.07-.46,4.83,4.83,0,0,1,0-.93c0,.31.06.62.11.92a3.28,3.28,0,0,0,.11.45.78.78,0,0,0,.09.21l.07.08s0,0,.06,0,.11,0,.11.06a0,0,0,0,1,0,.05.66.66,0,0,0-.2.51,1.83,1.83,0,0,0,.13.55A5.66,5.66,0,0,0,75.9,144.72Z"/><path class="cls-8" d="M85.79,146.41a6.43,6.43,0,0,1,0-1.16,3.78,3.78,0,0,1,.1-.57,1.19,1.19,0,0,1,.1-.28.51.51,0,0,1,.22-.25l.07.13a.27.27,0,0,1-.17-.07.46.46,0,0,1-.07-.1.58.58,0,0,1-.06-.17,1.67,1.67,0,0,1,0-.31,4.16,4.16,0,0,1,0-.61,9.43,9.43,0,0,1,.14-1.19c0,.41,0,.81,0,1.21,0,.2,0,.4,0,.61a1.35,1.35,0,0,0,.05.29.59.59,0,0,0,.06.14s.06.07.05.06l.07.13a.46.46,0,0,0-.16.2.82.82,0,0,0-.1.26,3.61,3.61,0,0,0-.12.55C85.88,145.65,85.84,146,85.79,146.41Z"/><path class="cls-8" d="M83,145.66a4.76,4.76,0,0,1,.28-1.11,2.26,2.26,0,0,1,.3-.52,1.19,1.19,0,0,1,.22-.23.66.66,0,0,1,.38-.15l0,.12a.46.46,0,0,1-.27-.28.68.68,0,0,1,0-.28,1.5,1.5,0,0,1,.15-.51,4.13,4.13,0,0,1,.62-.9,6.34,6.34,0,0,0-.47.94,1.82,1.82,0,0,0-.12.5.38.38,0,0,0,.19.42c.06,0,.08.06.06.09a.06.06,0,0,1-.06,0h0a.91.91,0,0,0-.5.33,3.06,3.06,0,0,0-.3.49A8.16,8.16,0,0,0,83,145.66Z"/><path class="cls-8" d="M78.5,143.63a.88.88,0,0,1-.27-.46.39.39,0,0,1,0-.26.47.47,0,0,1,.27-.2l.06.14a.38.38,0,0,1-.22-.07.29.29,0,0,1-.11-.11.71.71,0,0,1-.06-.23,1.07,1.07,0,0,1,.09-.43c0,.14,0,.28.09.42a.54.54,0,0,0,.07.19c0,.06.07.09.12.09h0c.06,0,.11,0,.11.07s0,.05,0,.06a.35.35,0,0,0-.27.33A1.46,1.46,0,0,0,78.5,143.63Z"/><path class="cls-8" d="M87.13,146.73a4.49,4.49,0,0,1-.46-1.21,1.8,1.8,0,0,1,0-.61.7.7,0,0,1,.36-.52l.07.14a.34.34,0,0,1-.21-.14.31.31,0,0,1-.07-.14.73.73,0,0,1,0-.25,3.73,3.73,0,0,1,0-.47,4.76,4.76,0,0,1,.26-.89c0,.31-.09.62-.11.92a3.53,3.53,0,0,0,0,.46.59.59,0,0,0,0,.23.3.3,0,0,0,0,.1s0,0,0,0,.1.05.1.08a.05.05,0,0,1,0,.05.61.61,0,0,0-.31.44,2.16,2.16,0,0,0,0,.57A7,7,0,0,0,87.13,146.73Z"/><path class="cls-8" d="M90.34,146.86a2,2,0,0,1-.26-.71.77.77,0,0,1,.2-.65l.1.12-.16,0a.32.32,0,0,1-.13-.1.37.37,0,0,1-.08-.2.85.85,0,0,1,0-.32,2,2,0,0,1,.23-.57c0,.21-.06.41-.08.61a1.51,1.51,0,0,0,0,.3.26.26,0,0,0,.06.13.11.11,0,0,0,.09,0,.15.15,0,0,1,.11.09s0,0,0,0h0a.94.94,0,0,0-.09.12,1.47,1.47,0,0,0-.06.14,1.64,1.64,0,0,0-.05.32A2.8,2.8,0,0,0,90.34,146.86Z"/><path class="cls-8" d="M89,147.16a6.68,6.68,0,0,1-.15-1.08,3.09,3.09,0,0,1,0-.53,2,2,0,0,1,.07-.26.36.36,0,0,1,.23-.22l0,0a1.17,1.17,0,0,1,.28-.48c.12-.13.27-.26.41-.39a6.91,6.91,0,0,1,1-.69c-.29.25-.57.5-.84.77s-.25.26-.37.4a1.31,1.31,0,0,0-.25.44s0,0,0,.05-.11.08-.14.15a1.05,1.05,0,0,0-.06.24,2.76,2.76,0,0,0,0,.51C89,146.46,89,146.81,89,147.16Z"/><path class="cls-8" d="M81.73,144a.89.89,0,0,1-.23-.48.4.4,0,0,1,0-.26.5.5,0,0,1,.28-.17l.06.14a.39.39,0,0,1-.22-.08.29.29,0,0,1-.1-.13.49.49,0,0,1,0-.23,1,1,0,0,1,.11-.42c0,.15,0,.29.06.43a.6.6,0,0,0,.06.19.15.15,0,0,0,.11.1h0c.05,0,.1,0,.1.07s0,.05-.06.06a.33.33,0,0,0-.28.31A1.15,1.15,0,0,0,81.73,144Z"/><path class="cls-8" d="M82.73,145.7a5.35,5.35,0,0,1-.47-1.19,1.79,1.79,0,0,1,0-.61.78.78,0,0,1,.33-.56l.08.12a.27.27,0,0,1-.24-.14,1,1,0,0,1,0-.14,1.22,1.22,0,0,1,0-.27,2.1,2.1,0,0,1,.1-.51,6.85,6.85,0,0,1,.38-1c-.08.34-.16.67-.23,1,0,.17,0,.33-.07.5a.7.7,0,0,0,0,.25l0,.11,0,0a.09.09,0,0,1,.11.06.05.05,0,0,1,0,.05h0a.73.73,0,0,0-.28.49,1.88,1.88,0,0,0,0,.58A8,8,0,0,0,82.73,145.7Z"/><path class="cls-8" d="M80,144.7a4.06,4.06,0,0,1-.35-.91,2.42,2.42,0,0,1-.07-.47,1,1,0,0,1,0-.23.63.63,0,0,1,.08-.23l.14.09a.47.47,0,0,1-.17,0,.52.52,0,0,1-.15-.06.41.41,0,0,1-.13-.18.89.89,0,0,1,0-.32,2.08,2.08,0,0,1,.09-.6c0,.21,0,.41.06.61a1,1,0,0,0,.09.29.31.31,0,0,0,.08.11s0,0,.09,0a.13.13,0,0,1,.14.05,0,0,0,0,1,0,0,1.19,1.19,0,0,0-.08.2,1.5,1.5,0,0,0,0,.22,3.52,3.52,0,0,0,0,.45A7.77,7.77,0,0,0,80,144.7Z"/><path class="cls-8" d="M80.78,145.08a7,7,0,0,1-.35-1,2.34,2.34,0,0,1-.08-.53.76.76,0,0,1,0-.26.36.36,0,0,1,.19-.27l0,0a1,1,0,0,1,.19-.52,3.76,3.76,0,0,1,.32-.46,6.41,6.41,0,0,1,.81-.84c-.24.29-.47.59-.68.89-.1.15-.19.31-.28.46a1.18,1.18,0,0,0-.16.49.1.1,0,0,1,0,.05.23.23,0,0,0-.11.18,1,1,0,0,0,0,.24,2.94,2.94,0,0,0,0,.51C80.65,144.38,80.72,144.73,80.78,145.08Z"/><path class="cls-8" d="M63.91,147.73a3.18,3.18,0,0,1-.33-.76,1.77,1.77,0,0,1-.08-.4,1.87,1.87,0,0,1,0-.41l0,.06a1.27,1.27,0,0,1-.53-.36,1.42,1.42,0,0,1-.27-.45,1.85,1.85,0,0,1-.11-1,3.29,3.29,0,0,0,.29.92,1.48,1.48,0,0,0,.76.74.07.07,0,0,1,0,0h0a2.55,2.55,0,0,0,0,.39c0,.14,0,.26,0,.4A7.25,7.25,0,0,0,63.91,147.73Z"/><path class="cls-8" d="M60.69,147.79a2,2,0,0,1-.5-.49.84.84,0,0,1-.13-.29.4.4,0,0,1,.07-.34l.12.09a.56.56,0,0,1-.35,0,.48.48,0,0,1-.2-.12.82.82,0,0,1-.2-.31,1.47,1.47,0,0,1-.12-.65,4.73,4.73,0,0,0,.29.6.93.93,0,0,0,.21.27.37.37,0,0,0,.32.11c.06,0,.12,0,.14,0s0,0,0,0h0a.54.54,0,0,0,0,.55A3.07,3.07,0,0,0,60.69,147.79Z"/><path class="cls-8" d="M72.52,147.35a5.8,5.8,0,0,1-.75-.84,1.78,1.78,0,0,1-.28-.45,1,1,0,0,1-.06-.25.29.29,0,0,1,.16-.27l.07.11a.39.39,0,0,1-.24-.08l-.11-.1a1.28,1.28,0,0,1-.14-.21,1.9,1.9,0,0,1-.18-.42,3.88,3.88,0,0,1-.18-.86c.12.28.23.56.35.83a3.23,3.23,0,0,0,.22.41,1.27,1.27,0,0,0,.13.19c0,.06.14.12.16.11a.14.14,0,0,1,.13,0s0,0,0,.06l0,0a.18.18,0,0,0-.09.17,1,1,0,0,0,0,.22,2.58,2.58,0,0,0,.22.44C72.1,146.77,72.31,147.06,72.52,147.35Z"/><path class="cls-8" d="M49.76,151.56a3.83,3.83,0,0,1-.72-.5,1.35,1.35,0,0,1-.27-.32.44.44,0,0,1,0-.45l.13.07a.43.43,0,0,1-.26,0l-.15,0-.26-.12a3.27,3.27,0,0,1-.41-.28,4.38,4.38,0,0,1-.7-.65l.84.55c.14.09.28.18.43.26a1.15,1.15,0,0,0,.23.1c.08,0,.19,0,.21,0a.16.16,0,0,1,.13,0,0,0,0,0,1,0,.07l0,0a.36.36,0,0,0,0,.35,1.26,1.26,0,0,0,.22.31A5.37,5.37,0,0,0,49.76,151.56Z"/><path class="cls-8" d="M70.68,147.69a4.8,4.8,0,0,1-.38-1,2.35,2.35,0,0,1-.09-.53.82.82,0,0,1,0-.27.43.43,0,0,1,.16-.29l.11.1a.3.3,0,0,1-.2,0l-.11-.07-.12-.14a1.43,1.43,0,0,1-.15-.27,3.55,3.55,0,0,1-.21-.54,6.73,6.73,0,0,1-.24-1.1l.4,1.08.24.53a2.26,2.26,0,0,0,.16.26.52.52,0,0,0,.1.11s.09.05.07,0l.12.1a.42.42,0,0,0-.11.22,2.11,2.11,0,0,0,0,.26,3.07,3.07,0,0,0,.06.52C70.53,147,70.61,147.34,70.68,147.69Z"/><path class="cls-8" d="M69.12,147.23a5.48,5.48,0,0,1,0-.81,2.76,2.76,0,0,1,.06-.4,1.17,1.17,0,0,1,0-.2l.05-.11a.27.27,0,0,1,.09-.11l.1.09a.43.43,0,0,1-.33-.06.33.33,0,0,1-.14-.15.65.65,0,0,1-.09-.3,1.52,1.52,0,0,1,0-.6,4.49,4.49,0,0,0,.13.59.93.93,0,0,0,.12.27.35.35,0,0,0,.11.1.13.13,0,0,0,.12,0h0c.06,0,.12,0,.12.05a0,0,0,0,1,0,0l0,.07,0,.09a1.59,1.59,0,0,0-.07.2l-.09.4C69.24,146.69,69.19,147,69.12,147.23Z"/><path class="cls-8" d="M67.08,146.56a.88.88,0,0,1-.39-.37.28.28,0,0,1,0-.25.57.57,0,0,1,.25-.23l.1.11a.55.55,0,0,1-.26,0,.42.42,0,0,1-.14-.09.53.53,0,0,1-.12-.2.81.81,0,0,1,0-.41c.07.13.12.26.19.37a1,1,0,0,0,.12.17.19.19,0,0,0,.15,0h0c.06,0,.12,0,.14,0s0,0,0,.07a.3.3,0,0,0-.21.35A1,1,0,0,0,67.08,146.56Z"/><path class="cls-8" d="M68.71,147.69a4.31,4.31,0,0,1-.95-.9,1.46,1.46,0,0,1-.26-.53.57.57,0,0,1,.16-.57l.12.1a.38.38,0,0,1-.27,0,.45.45,0,0,1-.13-.1.8.8,0,0,1-.13-.21,1.77,1.77,0,0,1-.15-.42,3.22,3.22,0,0,1-.09-.87c.08.29.16.57.25.85.06.13.11.27.18.41l.14.18.08.07s.06,0,.07,0a.15.15,0,0,1,.14.05.06.06,0,0,1,0,0,.52.52,0,0,0-.14.48,1.87,1.87,0,0,0,.22.51A6.17,6.17,0,0,0,68.71,147.69Z"/><path class="cls-8" d="M53.26,150.8a7.22,7.22,0,0,1-.82-.84,3,3,0,0,1-.32-.47.8.8,0,0,1-.11-.25.37.37,0,0,1,0-.31l.16,0a.34.34,0,0,1-.21,0,.5.5,0,0,1-.13,0l-.17-.08a1.79,1.79,0,0,1-.26-.2,4.62,4.62,0,0,1-.45-.43,7.11,7.11,0,0,1-.72-.94l.87.86.46.42.26.18.15.07.08,0,.16.05a.33.33,0,0,0,0,.24,1.22,1.22,0,0,0,.1.24,4.48,4.48,0,0,0,.28.47C52.81,150.2,53,150.5,53.26,150.8Z"/><path class="cls-8" d="M51.64,150.86a4.35,4.35,0,0,1-.37-.75,2.46,2.46,0,0,1-.14-.38c0-.07,0-.14,0-.21s0-.07,0-.11a.5.5,0,0,1,0-.14l.15.06a.54.54,0,0,1-.34,0,.63.63,0,0,1-.2-.09.9.9,0,0,1-.23-.25,1.58,1.58,0,0,1-.24-.57c.13.17.25.34.39.5a1.7,1.7,0,0,0,.24.22.94.94,0,0,0,.15.06.18.18,0,0,0,.13,0h0a.13.13,0,0,1,.15,0,0,0,0,0,1,0,0,.17.17,0,0,0,0,.08v.1c0,.06,0,.13,0,.2l.1.39Z"/><path class="cls-8" d="M51.49,151.41a5.88,5.88,0,0,1-1.29-.51,1.87,1.87,0,0,1-.49-.39.59.59,0,0,1-.13-.58l.16,0a.46.46,0,0,1-.27.05l-.17,0a1.3,1.3,0,0,1-.23-.15,3.55,3.55,0,0,1-.34-.33,3.69,3.69,0,0,1-.5-.76c.21.23.42.46.65.68a2.6,2.6,0,0,0,.36.3,1.48,1.48,0,0,0,.21.13l.11,0h.07a.14.14,0,0,1,.15,0,.06.06,0,0,1,0,0,.49.49,0,0,0,.11.5,1.66,1.66,0,0,0,.44.38A6.6,6.6,0,0,0,51.49,151.41Z"/><path class="cls-8" d="M61.89,148.53a5.77,5.77,0,0,1-.6-1,3.84,3.84,0,0,1-.19-.51,1.28,1.28,0,0,1-.05-.27.38.38,0,0,1,.1-.31l.13.09a.49.49,0,0,1-.21,0,.43.43,0,0,1-.12-.05.53.53,0,0,1-.14-.11,1.5,1.5,0,0,1-.21-.24,3.09,3.09,0,0,1-.32-.51,6.41,6.41,0,0,1-.47-1l.63,1c.11.16.22.33.34.49s.13.15.21.22a.47.47,0,0,0,.12.09s.1,0,.09,0l.13.08a.38.38,0,0,0-.06.24.73.73,0,0,0,0,.25,3.33,3.33,0,0,0,.16.51C61.59,147.86,61.75,148.19,61.89,148.53Z"/><path class="cls-8" d="M58.82,149.06a3.25,3.25,0,0,1-.3-1,1.7,1.7,0,0,1,0-.55,1.11,1.11,0,0,1,.1-.29.73.73,0,0,1,.29-.29l0,.11a.55.55,0,0,1-.41-.11.72.72,0,0,1-.17-.23,1.21,1.21,0,0,1-.11-.49,3,3,0,0,1,.15-1,5.42,5.42,0,0,0,0,1,1.86,1.86,0,0,0,.13.46.42.42,0,0,0,.41.26c.07,0,.11,0,.11.06a.1.1,0,0,1,0,0h0a.77.77,0,0,0-.32.48,2.41,2.41,0,0,0,0,.53A6.37,6.37,0,0,0,58.82,149.06Z"/><path class="cls-8" d="M53.34,149.36a1.19,1.19,0,0,1-.5-.26.3.3,0,0,1-.1-.23.39.39,0,0,1,.15-.28l.13.08a.53.53,0,0,1-.25.05.5.5,0,0,1-.16-.05.58.58,0,0,1-.18-.16.82.82,0,0,1-.15-.39c.11.1.2.21.32.31a.74.74,0,0,0,.17.12.19.19,0,0,0,.16,0h0a.15.15,0,0,1,.15,0s0,.05,0,.08A.26.26,0,0,0,53,149,1.29,1.29,0,0,0,53.34,149.36Z"/><path class="cls-8" d="M63.37,148.22a4.94,4.94,0,0,1-1.06-.81,1.32,1.32,0,0,1-.33-.5.55.55,0,0,1,.08-.58l.14.08a.51.51,0,0,1-.28,0l-.14-.09a.9.9,0,0,1-.16-.19,1.93,1.93,0,0,1-.2-.41,3.62,3.62,0,0,1-.2-.85q.16.4.36.81c.07.13.15.26.23.39l.16.16a.24.24,0,0,0,.09.06h.07a.13.13,0,0,1,.14,0s0,0,0,.05a.51.51,0,0,0-.07.5,1.36,1.36,0,0,0,.28.47A5.79,5.79,0,0,0,63.37,148.22Z"/><path class="cls-8" d="M66.61,147a1.9,1.9,0,0,1-.62-.48.63.63,0,0,1-.15-.62l.17.06-.17,0a.34.34,0,0,1-.18,0,.43.43,0,0,1-.18-.12.7.7,0,0,1-.15-.28,1.39,1.39,0,0,1-.06-.57,5.15,5.15,0,0,0,.23.54,1.43,1.43,0,0,0,.16.24.28.28,0,0,0,.12.08s.06,0,.11,0a.21.21,0,0,1,.16,0s0,0,0,0h0a.39.39,0,0,0,0,.15.65.65,0,0,0,0,.14,2.14,2.14,0,0,0,.12.28A2.66,2.66,0,0,0,66.61,147Z"/><path class="cls-8" d="M65.41,147.8a6,6,0,0,1-.71-.83,3.37,3.37,0,0,1-.25-.45,1,1,0,0,1-.07-.25.31.31,0,0,1,.12-.28l0,0a.93.93,0,0,1,0-.52,3.37,3.37,0,0,1,.2-.49,5.85,5.85,0,0,1,.59-1c-.16.33-.31.66-.44,1a4.58,4.58,0,0,0-.15.49,1,1,0,0,0,0,.47s0,0,0,.06a.21.21,0,0,0-.06.19.87.87,0,0,0,0,.22,3.11,3.11,0,0,0,.22.45C65,147.21,65.23,147.51,65.41,147.8Z"/><path class="cls-8" d="M56.67,148.25a1.27,1.27,0,0,1-.47-.3.27.27,0,0,1-.08-.24.42.42,0,0,1,.18-.27l.12.1a.43.43,0,0,1-.25,0,.3.3,0,0,1-.16-.06.55.55,0,0,1-.17-.17,1,1,0,0,1-.1-.4c.1.11.18.23.28.33a1.07,1.07,0,0,0,.16.14.19.19,0,0,0,.16,0h0a.12.12,0,0,1,.14,0,.07.07,0,0,1,0,.08.26.26,0,0,0-.12.37A1.39,1.39,0,0,0,56.67,148.25Z"/><path class="cls-8" d="M58.53,149.23a5.18,5.18,0,0,1-1.07-.78,1.82,1.82,0,0,1-.35-.5.59.59,0,0,1,0-.6l.13.07a.34.34,0,0,1-.29,0,.73.73,0,0,1-.13-.1,1.35,1.35,0,0,1-.14-.22,2.9,2.9,0,0,1-.16-.47,4.53,4.53,0,0,1-.13-1c.09.31.18.62.29.93.06.15.12.3.19.45a.9.9,0,0,0,.14.2.39.39,0,0,0,.1.08h.06a.12.12,0,0,1,.13,0,0,0,0,0,1,0,.06h0a.6.6,0,0,0,0,.52,1.91,1.91,0,0,0,.31.47A6.23,6.23,0,0,0,58.53,149.23Z"/><path class="cls-8" d="M55.31,149.59a4.23,4.23,0,0,1-.82-.6,1.73,1.73,0,0,1-.31-.35l-.11-.2a.58.58,0,0,1,0-.23l.18,0a.53.53,0,0,1-.15.08.42.42,0,0,1-.19,0,.46.46,0,0,1-.21-.08.71.71,0,0,1-.22-.24,1.45,1.45,0,0,1-.24-.54c.13.16.25.33.39.48a1.5,1.5,0,0,0,.23.2l.14.05a.13.13,0,0,0,.1,0,.16.16,0,0,1,.16,0,.05.05,0,0,1,0,0,.43.43,0,0,0,0,.19.66.66,0,0,0,.09.19,2.36,2.36,0,0,0,.26.36C54.84,149.15,55.08,149.37,55.31,149.59Z"/><path class="cls-8" d="M56.33,149.55a6.25,6.25,0,0,1-.89-.7,2.29,2.29,0,0,1-.36-.4.84.84,0,0,1-.12-.23.27.27,0,0,1,0-.29V148a1,1,0,0,1-.09-.51A3.23,3.23,0,0,1,55,147a5.71,5.71,0,0,1,.35-1.06c-.08.35-.15.7-.2,1.05,0,.17,0,.34,0,.51a1,1,0,0,0,.1.46s0,0,0,.06a.27.27,0,0,0,0,.2,2.12,2.12,0,0,0,.11.21,3,3,0,0,0,.32.4C55.82,149,56.08,149.29,56.33,149.55Z"/><path class="cls-8" d="M93.62,150.26a5.78,5.78,0,0,1,.29-.75c.06-.12.12-.24.19-.36s.15-.24.23-.35v0a.89.89,0,0,1,0-.46,1.53,1.53,0,0,1,.14-.46,3.89,3.89,0,0,1,.49-.86,6.28,6.28,0,0,0-.4.88,1.51,1.51,0,0,0-.1.85s0,0,0,0h0a3.88,3.88,0,0,0-.23.33l-.21.35C93.86,149.78,93.74,150,93.62,150.26Z"/><path class="cls-8" d="M92.29,149.32a1.89,1.89,0,0,1,.07-.57,1.72,1.72,0,0,1,.11-.29.77.77,0,0,1,.22-.27v.11a.15.15,0,0,1-.12-.13.37.37,0,0,1,0-.18,1.68,1.68,0,0,1,.09-.32,3.46,3.46,0,0,1,.32-.6c-.08.21-.16.41-.23.62a1.59,1.59,0,0,0-.06.3c0,.09,0,.18.06.19a.05.05,0,0,1,0,.07l0,0h0a1.17,1.17,0,0,0-.29.47C92.39,149,92.34,149.14,92.29,149.32Z"/><path class="cls-8" d="M97.47,152.06c.06-.28.12-.58.2-.87s.1-.3.16-.46a1.64,1.64,0,0,1,.12-.22.58.58,0,0,1,.23-.2l0,.12a.14.14,0,0,1-.06-.12s0-.08,0-.12a1.17,1.17,0,0,1,.06-.2c0-.14.11-.28.17-.41a8.51,8.51,0,0,1,.43-.78c-.11.27-.23.54-.33.8s-.11.26-.15.39a1.94,1.94,0,0,0,0,.2c0,.06,0,.13,0,.13s0,0,0,.05a0,0,0,0,1,0,0h0s-.1.07-.15.13a1.28,1.28,0,0,0-.11.2,3.2,3.2,0,0,0-.17.43C97.66,151.48,97.58,151.77,97.47,152.06Z"/><path class="cls-8" d="M86.2,148a3.78,3.78,0,0,1,.07-.74,1.78,1.78,0,0,1,.1-.38.71.71,0,0,1,.24-.34v.11a.16.16,0,0,1-.1-.1.52.52,0,0,1,0-.11,1.7,1.7,0,0,1,0-.22,3.34,3.34,0,0,1,.05-.43,8.33,8.33,0,0,1,.17-.84c0,.28,0,.56-.08.84s0,.28,0,.42a1.34,1.34,0,0,0,0,.2c0,.06,0,.13,0,.12a0,0,0,0,1,.06,0,0,0,0,0,1,0,.06l0,0a.5.5,0,0,0-.18.27,2.06,2.06,0,0,0-.12.35C86.29,147.48,86.25,147.72,86.2,148Z"/><path class="cls-8" d="M96.5,152c.13-.33.28-.65.44-1,.09-.16.18-.32.28-.48a1.24,1.24,0,0,1,.17-.23.67.67,0,0,1,.23-.21v.11c-.05,0-.08,0-.08-.07a.22.22,0,0,1,0-.08.59.59,0,0,1,0-.14l.09-.27c.07-.17.15-.34.23-.51.16-.34.34-.68.53-1l-.45,1c-.06.17-.13.34-.2.51a2.41,2.41,0,0,0-.08.25.5.5,0,0,0,0,.12s0,.06,0,.05v.11a.83.83,0,0,0-.17.16c-.06.07-.11.15-.16.22s-.2.31-.29.46C96.86,151.33,96.68,151.65,96.5,152Z"/><path class="cls-8" d="M96.1,151.2c.15-.23.3-.46.47-.69l.26-.33L97,150l.08-.08.11-.08V150a.15.15,0,0,1-.11-.14.34.34,0,0,1,0-.17,1.43,1.43,0,0,1,.13-.28,3.68,3.68,0,0,1,.37-.51c-.1.18-.2.36-.29.54a1.72,1.72,0,0,0-.1.26.74.74,0,0,0,0,.12s0,0,0,.06h0s0,0,0,.07l0,0-.06.05-.07.07-.14.15-.27.32Z"/><path class="cls-8" d="M95.6,150.13a1.08,1.08,0,0,1,.05-.43.55.55,0,0,1,.14-.21.45.45,0,0,1,.23-.13l0,.12a.12.12,0,0,1-.1-.08.17.17,0,0,1,0-.12.68.68,0,0,1,.07-.2,1.18,1.18,0,0,1,.23-.35,2.72,2.72,0,0,0-.13.37,1.54,1.54,0,0,0,0,.17c0,.06,0,.08,0,.09h0s0,0,0,.07a.1.1,0,0,1-.06,0,.43.43,0,0,0-.29.24A2,2,0,0,0,95.6,150.13Z"/><path class="cls-8" d="M95.66,151.51a3.91,3.91,0,0,1,.11-1A2.14,2.14,0,0,1,96,150a1.15,1.15,0,0,1,.4-.45v.11a.11.11,0,0,1-.09-.11.4.4,0,0,1,0-.11,1.41,1.41,0,0,1,.06-.22c.05-.14.12-.27.18-.4A6.8,6.8,0,0,1,97,148c-.13.26-.25.53-.38.79s-.11.27-.15.4a1.33,1.33,0,0,0-.05.19s0,.06,0,.08,0,0,0,0a.05.05,0,0,1,0,.07s0,0,0,0a1,1,0,0,0-.34.38,2.92,2.92,0,0,0-.19.49A7,7,0,0,0,95.66,151.51Z"/><path class="cls-8" d="M87.83,149a9.75,9.75,0,0,1,.19-1,4.91,4.91,0,0,1,.15-.51,2.77,2.77,0,0,1,.1-.26.54.54,0,0,1,.19-.24l0,.11a.12.12,0,0,1-.1-.06.24.24,0,0,1,0-.08.66.66,0,0,1,0-.14,2.45,2.45,0,0,1,0-.27,4.85,4.85,0,0,1,.09-.55c.08-.36.18-.72.29-1.07-.07.36-.13.72-.2,1.08,0,.18,0,.36-.07.53a2.45,2.45,0,0,0,0,.27.37.37,0,0,0,0,.11s0,.06,0,0l0,.11a.63.63,0,0,0-.13.2,1.6,1.6,0,0,0-.1.23c-.06.17-.12.34-.17.5C88,148.33,87.92,148.67,87.83,149Z"/><path class="cls-8" d="M87.24,148.32c.08-.25.19-.5.29-.75l.18-.37.1-.18.06-.09a.58.58,0,0,1,.08-.1l0,.12a.16.16,0,0,1-.14-.12.29.29,0,0,1,0-.16,1.33,1.33,0,0,1,.06-.3,3.15,3.15,0,0,1,.24-.56c-.05.19-.11.38-.15.57a1.35,1.35,0,0,0,0,.28.45.45,0,0,0,0,.12.05.05,0,0,0,.06,0h0a.06.06,0,0,1,0,.07l0,.05s0,0-.05.06l0,.08-.1.17-.19.36Z"/><path class="cls-8" d="M86.87,148.69a4,4,0,0,1-.14-1,2.5,2.5,0,0,1,.07-.54,1,1,0,0,1,.28-.51l0,.11a.14.14,0,0,1-.12-.09.61.61,0,0,1,0-.11c0-.08,0-.15,0-.22a3,3,0,0,1,.09-.43,6,6,0,0,1,.27-.82l-.18.83a3.12,3.12,0,0,0-.06.41,1.41,1.41,0,0,0,0,.2s0,.06,0,.08l0,0a.06.06,0,0,1,.05.06s0,0,0,0a.94.94,0,0,0-.24.44,2.09,2.09,0,0,0-.08.5A6.85,6.85,0,0,0,86.87,148.69Z"/><path class="cls-8" d="M92.35,150.33a9,9,0,0,1,.31-1c.06-.17.13-.34.2-.5l.14-.25a.75.75,0,0,1,.21-.23v.11a.09.09,0,0,1-.09-.06.24.24,0,0,1,0-.08.66.66,0,0,1,0-.14,2.56,2.56,0,0,1,0-.27,4.61,4.61,0,0,1,.15-.53c.12-.35.25-.7.4-1.05-.1.36-.21.71-.31,1.06,0,.18-.09.35-.13.52s0,.18,0,.26v.12s0,.06,0,.05v.12a.65.65,0,0,0-.15.17l-.13.23c-.08.16-.15.33-.22.49C92.62,149.67,92.49,150,92.35,150.33Z"/><path class="cls-8" d="M90.85,149.76a6.75,6.75,0,0,1,.47-1,3.7,3.7,0,0,1,.31-.46c.07-.07.13-.15.2-.21a.67.67,0,0,1,.28-.14l0,.11a.25.25,0,0,1-.1-.24,1,1,0,0,1,.06-.25,2,2,0,0,1,.24-.45,4,4,0,0,1,.62-.8,7.57,7.57,0,0,0-.55.84,4.25,4.25,0,0,0-.21.43c0,.14-.07.31,0,.37s0,.05,0,.08l0,0h0a.8.8,0,0,0-.38.3,3.43,3.43,0,0,0-.32.43C91.2,149.12,91,149.44,90.85,149.76Z"/><path class="cls-8" d="M88.67,147.89a.88.88,0,0,1,0-.43.43.43,0,0,1,.1-.23.37.37,0,0,1,.2-.15v.11a.13.13,0,0,1-.11-.06.26.26,0,0,1,0-.11.53.53,0,0,1,0-.22,1.73,1.73,0,0,1,.16-.37c0,.13,0,.26-.06.38a1.15,1.15,0,0,0,0,.18s0,.08,0,.08h0s0,0,0,.07a.07.07,0,0,1,0,.05.42.42,0,0,0-.25.28A1.47,1.47,0,0,0,88.67,147.89Z"/><path class="cls-8" d="M93.12,150.53a3.89,3.89,0,0,1,0-1,2.23,2.23,0,0,1,.15-.53,1,1,0,0,1,.36-.46v.1a.11.11,0,0,1-.1-.09.49.49,0,0,1,0-.12,1.43,1.43,0,0,1,0-.22c0-.14.1-.28.16-.41a6.43,6.43,0,0,1,.39-.79l-.31.81c0,.13-.09.27-.13.4l0,.2a.22.22,0,0,0,0,.08s0,0,0,0a0,0,0,0,1,0,.06l0,.05a.89.89,0,0,0-.31.4,2.81,2.81,0,0,0-.16.49A7.09,7.09,0,0,0,93.12,150.53Z"/><path class="cls-8" d="M95.18,150.35a1.38,1.38,0,0,1,0-.57,1.18,1.18,0,0,1,.29-.58l0,.1h-.09s-.06,0-.06-.07a.3.3,0,0,1,0-.16,1.33,1.33,0,0,1,.1-.28,3.2,3.2,0,0,1,.29-.51l-.21.53a2.44,2.44,0,0,0-.06.26.13.13,0,0,0,0,.09s0,0,0,0a0,0,0,0,1,.06,0,.05.05,0,0,1,0,0h0a.94.94,0,0,0-.09.12l-.08.12c0,.09-.08.18-.11.27A2.28,2.28,0,0,0,95.18,150.35Z"/><path class="cls-8" d="M94.19,150.76a7.47,7.47,0,0,1,.18-.92,4.11,4.11,0,0,1,.15-.46,2.4,2.4,0,0,1,.11-.23.53.53,0,0,1,.21-.21l0,0a1.69,1.69,0,0,1,.31-.43c.11-.13.24-.26.36-.38a8.6,8.6,0,0,1,.8-.67c-.25.24-.5.48-.74.73s-.23.25-.34.38a1.94,1.94,0,0,0-.28.4.08.08,0,0,1,0,0,.39.39,0,0,0-.13.15,1,1,0,0,0-.11.21c-.06.14-.11.29-.16.44C94.38,150.15,94.29,150.45,94.19,150.76Z"/><path class="cls-8" d="M90.49,148.3a1,1,0,0,1,0-.43.68.68,0,0,1,.11-.23.45.45,0,0,1,.21-.15v.12a.14.14,0,0,1-.12-.07.22.22,0,0,1,0-.11.78.78,0,0,1,0-.21,1.41,1.41,0,0,1,.18-.37c0,.13-.06.26-.08.38a1.24,1.24,0,0,0,0,.18c0,.06,0,.08,0,.08h0s0,0,0,.07a.08.08,0,0,1-.05.05.38.38,0,0,0-.25.27A1.56,1.56,0,0,0,90.49,148.3Z"/><path class="cls-8" d="M90.65,149.8a3.72,3.72,0,0,1,0-1.05,2.69,2.69,0,0,1,.14-.54,1.27,1.27,0,0,1,.35-.49l0,.11a.12.12,0,0,1-.11-.12.59.59,0,0,1,0-.14,1.09,1.09,0,0,1,.07-.24,4.43,4.43,0,0,1,.2-.45c.15-.29.31-.58.49-.86l-.41.89c-.06.15-.13.3-.18.45a1.41,1.41,0,0,0-.06.22.31.31,0,0,0,0,.09s0,0,0,0a0,0,0,0,1,0,0,.09.09,0,0,1,0,.05h0a1.19,1.19,0,0,0-.3.43,2.29,2.29,0,0,0-.15.51A6.28,6.28,0,0,0,90.65,149.8Z"/><path class="cls-8" d="M89.24,148.88a4.55,4.55,0,0,1,0-.82,3.52,3.52,0,0,1,.09-.42l.07-.2a2.25,2.25,0,0,1,.12-.21l0,.09a.17.17,0,0,1-.1,0,.11.11,0,0,1-.07-.06.27.27,0,0,1,0-.15,1.36,1.36,0,0,1,.06-.29,2.66,2.66,0,0,1,.21-.53c0,.18-.09.36-.12.54a1.22,1.22,0,0,0,0,.26.28.28,0,0,0,0,.1s0,0,.06,0a.06.06,0,0,1,.06.05s0,0,0,0a1.51,1.51,0,0,0-.09.18,1.54,1.54,0,0,0-.08.19,2.92,2.92,0,0,0-.1.4C89.32,148.33,89.28,148.6,89.24,148.88Z"/><path class="cls-8" d="M89.63,149.25a7.56,7.56,0,0,1,.07-.93,2.52,2.52,0,0,1,.1-.46,1,1,0,0,1,.08-.25.52.52,0,0,1,.18-.22l0,0a1.66,1.66,0,0,1,.26-.45,4.47,4.47,0,0,1,.32-.41,8.27,8.27,0,0,1,.71-.74c-.22.26-.44.52-.65.79s-.2.27-.29.41a1.75,1.75,0,0,0-.23.42.1.1,0,0,1,0,.05.37.37,0,0,0-.11.15,2,2,0,0,0-.08.22c0,.15-.08.3-.11.46S89.69,148.94,89.63,149.25Z"/><path class="cls-8" d="M81,147.22a7,7,0,0,1,.06-.79c0-.13.05-.26.08-.39s.08-.26.12-.39v.06a1,1,0,0,1-.14-.45,1.55,1.55,0,0,1,0-.48,3.32,3.32,0,0,1,.22-.93,7.43,7.43,0,0,0-.13.93,1.58,1.58,0,0,0,.15.85.07.07,0,0,1,0,.06h0c0,.12-.09.24-.12.37l-.1.38C81.13,146.7,81.09,147,81,147.22Z"/><path class="cls-8" d="M79.47,146.58a1.85,1.85,0,0,1-.09-.58,1.51,1.51,0,0,1,0-.3.75.75,0,0,1,.14-.3l0,.1a.2.2,0,0,1-.16-.1.58.58,0,0,1-.06-.17,1.93,1.93,0,0,1,0-.34,2.82,2.82,0,0,1,.14-.64c0,.21,0,.43,0,.64a3,3,0,0,0,0,.31c0,.09.06.18.12.18a0,0,0,0,1,0,.06v0h0a1,1,0,0,0-.14.52A3.74,3.74,0,0,0,79.47,146.58Z"/><path class="cls-8" d="M85.44,148.14a6.13,6.13,0,0,1-.14-.89,3.53,3.53,0,0,1,0-.46,1.09,1.09,0,0,1,0-.25.37.37,0,0,1,.16-.24v.11c-.06,0-.08-.06-.1-.1l0-.11a1.48,1.48,0,0,1,0-.21,3.11,3.11,0,0,1,0-.43,8.28,8.28,0,0,1,.16-.84l-.06.84a2.81,2.81,0,0,0,0,.41.65.65,0,0,0,0,.2c0,.06,0,.13,0,.12a0,0,0,0,1,.06,0s0,0,0,.06l0,0a.25.25,0,0,0-.1.15,1.7,1.7,0,0,0,0,.22c0,.15,0,.3,0,.45C85.4,147.54,85.42,147.84,85.44,148.14Z"/><path class="cls-8" d="M73.16,146.45a4.62,4.62,0,0,1-.15-.74,2.41,2.41,0,0,1,0-.38.56.56,0,0,1,.14-.38l0,.11a.16.16,0,0,1-.12-.09.47.47,0,0,1,0-.1.86.86,0,0,1-.07-.21,2.07,2.07,0,0,1-.08-.42,6.23,6.23,0,0,1-.07-.86c0,.28.1.56.16.84s.06.27.1.4a1.17,1.17,0,0,0,.06.2c0,.05.07.12.08.11a.05.05,0,0,1,.07,0,.09.09,0,0,1,0,.07l0,0a.5.5,0,0,0-.1.29,2.17,2.17,0,0,0,0,.36C73.11,146,73.14,146.2,73.16,146.45Z"/><path class="cls-8" d="M84.41,148.27a7.5,7.5,0,0,1,.11-1,4.82,4.82,0,0,1,.11-.52,2.58,2.58,0,0,1,.08-.26.8.8,0,0,1,.16-.26l0,.11a.1.1,0,0,1-.1-.05l0-.07a.78.78,0,0,1,0-.14,2.61,2.61,0,0,1,0-.28c0-.18,0-.36,0-.55,0-.36.12-.72.2-1.08,0,.36-.07.73-.11,1.08q0,.28,0,.54V146c0,.05,0,.09,0,.12s0,.06,0,.05l0,.11a.48.48,0,0,0-.12.2,1.69,1.69,0,0,0-.08.24c0,.17-.09.34-.13.51C84.55,147.58,84.48,147.93,84.41,148.27Z"/><path class="cls-8" d="M83.76,147.62c.07-.26.15-.51.24-.77s.09-.25.14-.38l.09-.18,0-.1a.32.32,0,0,1,.08-.09l0,.11a.15.15,0,0,1-.14-.11.5.5,0,0,1,0-.16,1.55,1.55,0,0,1,0-.31,3.23,3.23,0,0,1,.2-.57c0,.2-.08.39-.11.58s0,.19,0,.28a.42.42,0,0,0,0,.12.05.05,0,0,0,.05,0h0a.05.05,0,0,1,0,.07.05.05,0,0,1,0,0l-.05.06,0,.09-.09.18-.16.36Z"/><path class="cls-8" d="M82.94,146.68a1,1,0,0,1-.09-.42.55.55,0,0,1,.07-.24.37.37,0,0,1,.18-.17l0,.11a.13.13,0,0,1-.12-.05.34.34,0,0,1,0-.11.74.74,0,0,1,0-.21,1.43,1.43,0,0,1,.11-.39c0,.14,0,.26,0,.39a.91.91,0,0,0,0,.17c0,.06,0,.08.06.08h0a.06.06,0,0,1,.06.06.06.06,0,0,1,0,.06.37.37,0,0,0-.2.3A1.19,1.19,0,0,0,82.94,146.68Z"/><path class="cls-8" d="M83.43,148a4.23,4.23,0,0,1-.22-1,2.44,2.44,0,0,1,0-.54,1.05,1.05,0,0,1,.25-.52l0,.11a.14.14,0,0,1-.12-.09.2.2,0,0,1,0-.11,1.7,1.7,0,0,1,0-.22,3,3,0,0,1,.05-.43,6.45,6.45,0,0,1,.21-.84c0,.28-.08.57-.12.84a3,3,0,0,0,0,.42,1.27,1.27,0,0,0,0,.2s0,.06,0,.07,0,0,0,0a.06.06,0,0,1,0,.06s0,0,0,.05a.79.79,0,0,0-.21.44,2.19,2.19,0,0,0,0,.51A7.06,7.06,0,0,0,83.43,148Z"/><path class="cls-8" d="M75,147.14c-.05-.34-.09-.68-.11-1a4.68,4.68,0,0,1,0-.53l0-.27a.66.66,0,0,1,.11-.28l.05.1a.1.1,0,0,1-.11,0L75,145s0-.09,0-.13l-.06-.28c0-.18,0-.36-.06-.54a10.1,10.1,0,0,1,0-1.1l.12,1.09c0,.18.05.35.08.53a2.44,2.44,0,0,0,.06.26.36.36,0,0,0,0,.11s0,.05,0,0l.06.1a.63.63,0,0,0-.08.22l0,.25c0,.17,0,.35,0,.52C75,146.44,75,146.79,75,147.14Z"/><path class="cls-8" d="M74.27,146.6c0-.26,0-.53.07-.79s0-.26.07-.39l0-.2,0-.1s0-.06.06-.1l0,.1a.17.17,0,0,1-.17-.09.47.47,0,0,1-.06-.15,1,1,0,0,1,0-.3,2.46,2.46,0,0,1,.07-.6c0,.2,0,.4,0,.59a2.33,2.33,0,0,0,0,.28.36.36,0,0,0,0,.11s0,0,.07,0h0a.06.06,0,0,1,.06.06s0,0,0,0a.17.17,0,0,1,0,.07s0,.06,0,.09a1.21,1.21,0,0,0,0,.18l-.08.39Z"/><path class="cls-8" d="M74,147a3.78,3.78,0,0,1-.42-1,2.36,2.36,0,0,1-.1-.53,1,1,0,0,1,.14-.55l0,.1a.13.13,0,0,1-.13-.06.3.3,0,0,1-.06-.11,1.66,1.66,0,0,1-.06-.21,3.25,3.25,0,0,1,0-.44,4.83,4.83,0,0,1,0-.85l.06.85.06.41a.6.6,0,0,0,.06.19.12.12,0,0,0,0,.08l0,0a.05.05,0,0,1,.06.05,0,0,0,0,1,0,0,.91.91,0,0,0-.11.47,2.31,2.31,0,0,0,.07.51A7.06,7.06,0,0,0,74,147Z"/><path class="cls-8" d="M79.83,147.54a9,9,0,0,1,0-1c0-.18,0-.35,0-.53l.06-.26a.7.7,0,0,1,.14-.27l0,.11a.13.13,0,0,1-.11-.05.16.16,0,0,1,0-.07l0-.14a1.24,1.24,0,0,1,0-.27c0-.18,0-.37,0-.55,0-.36,0-.73.09-1.1v1.1c0,.18,0,.35,0,.53a2,2,0,0,0,0,.26.53.53,0,0,0,0,.12s0,.05,0,0l0,.11a.75.75,0,0,0-.1.2c0,.09,0,.17,0,.25a4.67,4.67,0,0,0-.08.52Z"/><path class="cls-8" d="M78.2,147.28a5.47,5.47,0,0,1,.17-1.05,3.39,3.39,0,0,1,.17-.51,1.49,1.49,0,0,1,.14-.24.46.46,0,0,1,.22-.19v.12a.3.3,0,0,1-.16-.22.7.7,0,0,1,0-.25,2.65,2.65,0,0,1,.09-.49,5.87,5.87,0,0,1,.37-.9,8.06,8.06,0,0,0-.28.92,2.57,2.57,0,0,0-.08.47c0,.15,0,.31.12.35a.06.06,0,0,1,0,.08l0,0h0a.76.76,0,0,0-.29.36,4.09,4.09,0,0,0-.18.49A8.46,8.46,0,0,0,78.2,147.28Z"/><path class="cls-8" d="M75.54,145.88a.85.85,0,0,1-.15-.41.49.49,0,0,1,0-.24.4.4,0,0,1,.16-.2l0,.12a.15.15,0,0,1-.13,0,.34.34,0,0,1-.07-.11,1.38,1.38,0,0,1,0-.2,1.34,1.34,0,0,1,.06-.4c0,.13,0,.26,0,.38s0,.12,0,.18,0,.07.07.07h0a.05.05,0,0,1,.07.05.09.09,0,0,1,0,.07.32.32,0,0,0-.16.31A1.54,1.54,0,0,0,75.54,145.88Z"/><path class="cls-8" d="M80.64,147.57a4,4,0,0,1-.28-1,1.94,1.94,0,0,1,0-.54.91.91,0,0,1,.21-.53l0,.11a.15.15,0,0,1-.13-.08.49.49,0,0,1,0-.11.82.82,0,0,1,0-.22,3.1,3.1,0,0,1,0-.43,7.78,7.78,0,0,1,.16-.84c0,.28,0,.56-.07.84s0,.28,0,.41a1.23,1.23,0,0,0,0,.2l0,.08,0,0a.05.05,0,0,1,.06.06s0,0,0,0a.83.83,0,0,0-.18.45,2.17,2.17,0,0,0,0,.51A7.14,7.14,0,0,0,80.64,147.57Z"/><path class="cls-8" d="M82.59,147a1.74,1.74,0,0,1-.17-.56,1.14,1.14,0,0,1,.11-.62l.07.09h-.1a.16.16,0,0,1-.08-.06.23.23,0,0,1,0-.15.94.94,0,0,1,0-.29,2.59,2.59,0,0,1,.13-.55c0,.18,0,.37,0,.55a.75.75,0,0,0,0,.26.24.24,0,0,0,0,.1s0,0,.06,0a.06.06,0,0,1,.07,0v0h0a1.39,1.39,0,0,0-.06.13s0,.09,0,.14a2.64,2.64,0,0,0,0,.28A2.79,2.79,0,0,0,82.59,147Z"/><path class="cls-8" d="M81.75,147.58a7,7,0,0,1-.1-.92,2.58,2.58,0,0,1,0-.48,1,1,0,0,1,0-.24.47.47,0,0,1,.13-.25l0,.05a1.44,1.44,0,0,1,.17-.48c.07-.16.16-.3.24-.45a8.63,8.63,0,0,1,.57-.82c-.17.29-.34.58-.5.87-.08.14-.15.29-.22.44a1.87,1.87,0,0,0-.14.44l0,0a.34.34,0,0,0-.09.17,1.57,1.57,0,0,0,0,.23c0,.15,0,.3,0,.46C81.74,147,81.75,147.27,81.75,147.58Z"/><path class="cls-8" d="M77.43,145.93a1,1,0,0,1-.14-.41.51.51,0,0,1,0-.24.39.39,0,0,1,.17-.19l0,.11a.15.15,0,0,1-.13,0,.24.24,0,0,1-.06-.11.71.71,0,0,1,0-.2,1.34,1.34,0,0,1,.07-.4c0,.13,0,.26,0,.39l0,.17c0,.05,0,.07.07.07h0a.05.05,0,0,1,.06,0,.08.08,0,0,1,0,.07.35.35,0,0,0-.17.31A1.51,1.51,0,0,0,77.43,145.93Z"/><path class="cls-8" d="M78,147.36a4.46,4.46,0,0,1-.27-1,2.52,2.52,0,0,1,0-.55,1,1,0,0,1,.19-.55l0,.1a.12.12,0,0,1-.13-.1l0-.13a1.93,1.93,0,0,1,0-.24,3.93,3.93,0,0,1,.06-.48,7.89,7.89,0,0,1,.23-.93c0,.31-.1.63-.14.94s0,.31,0,.47a1.69,1.69,0,0,0,0,.23.13.13,0,0,0,0,.09s0,0,0,0,.06,0,.07,0a.08.08,0,0,1,0,0h0a1,1,0,0,0-.18.47,3.11,3.11,0,0,0,0,.53A6.38,6.38,0,0,0,78,147.36Z"/><path class="cls-8" d="M76.38,146.75a4.36,4.36,0,0,1-.2-.81,2.86,2.86,0,0,1,0-.42,1.62,1.62,0,0,1,0-.22,1.74,1.74,0,0,1,0-.22l.08.08-.1,0s-.06,0-.09-.05A.41.41,0,0,1,76,145a1.37,1.37,0,0,1,0-.29,2.65,2.65,0,0,1,0-.56c0,.19,0,.37,0,.56a2,2,0,0,0,0,.26.19.19,0,0,0,0,.09s0,0,0,0a.05.05,0,0,1,.08,0s0,0,0,0a.58.58,0,0,0,0,.18,1.49,1.49,0,0,0,0,.21,2.88,2.88,0,0,0,0,.41A8,8,0,0,0,76.38,146.75Z"/><path class="cls-8" d="M76.87,147a7.06,7.06,0,0,1-.21-.91,3.88,3.88,0,0,1,0-.48,2.18,2.18,0,0,1,0-.25.46.46,0,0,1,.11-.25l0,.05a1.66,1.66,0,0,1,.12-.5,4.32,4.32,0,0,1,.19-.45,7.37,7.37,0,0,1,.48-.87c-.14.3-.28.6-.4.9-.06.15-.12.31-.17.46a1.53,1.53,0,0,0-.1.45.08.08,0,0,1,0,0,.3.3,0,0,0-.07.18,1.62,1.62,0,0,0,0,.22c0,.16,0,.31,0,.47C76.79,146.41,76.83,146.71,76.87,147Z"/><path class="cls-7" d="M50.51,144.13s-1.1,0-.64,1.52c-1.37.73-1.09,2.62-1.09,2.62a3.53,3.53,0,0,0-1.26,3,3.69,3.69,0,0,0-.84,2s9.94-7,25.66-6.85a55.76,55.76,0,0,1,27,7.39s.25-.8-.91-2.07a3.23,3.23,0,0,0-1.28-2.88A3.28,3.28,0,0,0,96,146.35c.23-1.14-.49-1.11-.49-1.11"/><path class="cls-7" d="M72.34,138.57c-15.72-.16-21.83,5.56-21.83,5.56"/><path class="cls-7" d="M95.54,145.24s-7.48-6.5-23.2-6.67"/><path class="cls-4" d="M35,184.92a9.07,9.07,0,0,0-.44,2.75c18,4.5,12.74,14.6,35.36,13.66.47-.11.74-.69,1.06-1.2a9.15,9.15,0,0,0,.53-1C49.73,199.83,52.09,189.48,35,184.92Z"/><path class="cls-4" d="M74.69,199.09a6.69,6.69,0,0,0,.5,1c.32.51.6,1.09,1.06,1.2,22.63.94,17.41-9.16,35.36-13.66a8.64,8.64,0,0,0-.45-2.77C94,189.45,96.4,199.8,74.69,199.09Z"/><path class="cls-9" d="M72.66,156.54c20.42,0,30.11,9.46,34.42,16.18-3.13-9-7.48-18.46-7.73-18.87a54.75,54.75,0,0,0-26.93-7.36,48.92,48.92,0,0,0-25.61,6.95S42.56,163,39.43,171.8C43.77,165.17,53.16,156.54,72.66,156.54Z"/><path class="cls-9" d="M111,184.42c-.64-2.17-1.72-5-2.74-8.1-.38-1.18-.79-2.39-1.21-3.6-4.31-6.72-14-16.18-34.42-16.18-19.5,0-28.89,8.63-33.23,15.26-.54,1.53-1.06,3.06-1.54,4.52-1,3.12-2.09,5.93-2.74,8.1l-.14.5.07,0c17,4.57,14.68,14.89,36.44,14.15,1.66-3.79,2-10.57,2-13.06,0,2.49-.35,9.27,1.2,13.06,21.68.71,19.36-9.61,36.4-14.17l.07,0C111.12,184.74,111.08,184.59,111,184.42Z"/><path class="cls-10" d="M72.41,151.56l.12,27.49a.13.13,0,0,1-.1.12h0a4.46,4.46,0,0,0-1.2.53c-.4.22-.79.47-1.18.72-.77.51-1.53,1-2.26,1.6-.34.26-.75.62-.72.95s.59.48,1,.58a16.63,16.63,0,0,0,2.74.27c.93,0,1.85,0,2.78,0h1.39a4.92,4.92,0,0,1,1.42.11.49.49,0,0,1,.28.3.76.76,0,0,1,0,.4,2.75,2.75,0,0,1-.37.62,8.4,8.4,0,0,1-1,1,26.37,26.37,0,0,1-2.15,1.78h0a0,0,0,0,1,0,0,25.89,25.89,0,0,0,2.07-1.84,10.06,10.06,0,0,0,.92-1,2.23,2.23,0,0,0,.33-.58c.07-.21,0-.4-.16-.47a4.94,4.94,0,0,0-1.35-.08l-1.39,0c-.92,0-1.85,0-2.78,0a14.65,14.65,0,0,1-2.8-.25,3.49,3.49,0,0,1-.69-.23.84.84,0,0,1-.54-.6,1,1,0,0,1,.3-.74,3.5,3.5,0,0,1,.53-.49c.75-.56,1.51-1.09,2.29-1.6.4-.25.79-.5,1.2-.72a4.46,4.46,0,0,1,1.35-.56l-.14.14.12-27.49h0Z"/><polyline class="cls-11" points="73.47 170.8 73.34 170.46 73.2 170.8 73.06 170.46 72.92 170.8"/><line class="cls-11" x1="72.92" y1="170.8" x2="72.92" y2="170.46"/><polyline class="cls-11" points="74.02 170.8 73.89 170.46 73.75 170.8 73.61 170.46 73.47 170.8"/><polyline class="cls-11" points="74.57 170.8 74.44 170.46 74.3 170.8 74.16 170.46 74.02 170.8"/><line class="cls-11" x1="74.57" y1="170.8" x2="74.57" y2="170.46"/><line class="cls-2" x1="73.31" y1="171.07" x2="73.31" y2="171.88"/><line class="cls-2" x1="74.1" y1="171.06" x2="74.1" y2="171.88"/><line class="cls-2" x1="73.31" y1="172.7" x2="73.32" y2="173.51"/><line class="cls-2" x1="74.1" y1="172.69" x2="74.11" y2="173.51"/><line class="cls-2" x1="73.32" y1="174.33" x2="73.32" y2="175.14"/><line class="cls-2" x1="74.11" y1="174.32" x2="74.11" y2="175.14"/><line class="cls-2" x1="73.33" y1="175.96" x2="73.33" y2="176.77"/><line class="cls-2" x1="74.12" y1="175.95" x2="74.12" y2="176.77"/><line class="cls-2" x1="73.33" y1="177.59" x2="73.34" y2="178.4"/><line class="cls-2" x1="74.12" y1="177.58" x2="74.13" y2="178.4"/><line class="cls-2" x1="73.34" y1="179.22" x2="73.34" y2="180.03"/><line class="cls-2" x1="74.13" y1="179.21" x2="74.13" y2="180.03"/><line class="cls-2" x1="73.35" y1="180.85" x2="73.35" y2="181.66"/><line class="cls-2" x1="74.14" y1="180.84" x2="74.14" y2="181.66"/><line class="cls-2" x1="73.35" y1="182.48" x2="73.36" y2="183.29"/><line class="cls-2" x1="74.14" y1="182.47" x2="74.15" y2="183.29"/><line class="cls-2" x1="73.36" y1="184.11" x2="73.36" y2="184.92"/><line class="cls-2" x1="74.15" y1="184.1" x2="74.15" y2="184.92"/><line class="cls-2" x1="73.37" y1="185.74" x2="73.37" y2="186.55"/><line class="cls-2" x1="74.16" y1="185.73" x2="74.16" y2="186.55"/><line class="cls-2" x1="73.37" y1="187.37" x2="73.38" y2="188.18"/><line class="cls-2" x1="74.17" y1="187.36" x2="74.17" y2="188.18"/><polyline class="cls-11" points="73.52 175.34 73.39 175 73.25 175.34 73.11 175 72.97 175.34"/><line class="cls-11" x1="72.97" y1="175.34" x2="72.97" y2="175"/><polyline class="cls-11" points="74.07 175.34 73.94 175 73.8 175.34 73.66 175 73.52 175.34"/><polyline class="cls-11" points="74.62 175.34 74.49 175 74.35 175.34 74.21 175 74.07 175.34"/><line class="cls-11" x1="74.62" y1="175.34" x2="74.62" y2="175"/><path class="cls-2" d="M39.38,173c.13-.25.28-.49.43-.73"/><line class="cls-2" x1="40.27" y1="171.53" x2="40.76" y2="170.84"/><line class="cls-2" x1="41.28" y1="170.17" x2="41.8" y2="169.51"/><line class="cls-2" x1="42.37" y1="168.89" x2="42.93" y2="168.26"/><line class="cls-2" x1="43.53" y1="167.66" x2="44.13" y2="167.07"/><line class="cls-2" x1="44.75" y1="166.5" x2="45.39" y2="165.95"/><path class="cls-2" d="M46,165.41c.21-.19.44-.35.67-.52"/><line class="cls-2" x1="47.39" y1="164.4" x2="48.07" y2="163.9"/><line class="cls-2" x1="48.78" y1="163.44" x2="49.5" y2="163"/><path class="cls-2" d="M50.22,162.56c.24-.14.47-.3.72-.42"/><line class="cls-2" x1="51.7" y1="161.76" x2="52.45" y2="161.38"/><path class="cls-2" d="M53.21,161a5.82,5.82,0,0,1,.77-.34"/><line class="cls-2" x1="54.77" y1="160.36" x2="55.55" y2="160.05"/><path class="cls-2" d="M56.33,159.74a8.36,8.36,0,0,1,.8-.27"/><line class="cls-2" x1="57.94" y1="159.23" x2="58.75" y2="158.99"/><path class="cls-2" d="M59.56,158.75a7.58,7.58,0,0,1,.82-.21"/><line class="cls-2" x1="61.2" y1="158.37" x2="62.03" y2="158.2"/><line class="cls-2" x1="62.86" y1="158.03" x2="63.68" y2="157.86"/><line class="cls-2" x1="64.52" y1="157.75" x2="65.35" y2="157.65"/><line class="cls-2" x1="66.19" y1="157.55" x2="67.03" y2="157.45"/><path class="cls-2" d="M67.87,157.35a7.87,7.87,0,0,1,.84,0"/><line class="cls-2" x1="69.55" y1="157.28" x2="70.4" y2="157.25"/><line class="cls-2" x1="71.24" y1="157.22" x2="72.08" y2="157.19"/><line class="cls-2" x1="72.93" y1="157.18" x2="73.77" y2="157.22"/><line class="cls-2" x1="74.61" y1="157.25" x2="75.45" y2="157.29"/><line class="cls-2" x1="76.3" y1="157.32" x2="77.14" y2="157.36"/><line class="cls-2" x1="77.98" y1="157.46" x2="78.81" y2="157.57"/><line class="cls-2" x1="79.65" y1="157.67" x2="80.49" y2="157.78"/><path class="cls-2" d="M81.33,157.89a8,8,0,0,1,.82.17"/><line class="cls-2" x1="82.98" y1="158.24" x2="83.8" y2="158.42"/><path class="cls-2" d="M84.62,158.6a7.68,7.68,0,0,1,.83.19"/><line class="cls-2" x1="86.25" y1="159.04" x2="87.06" y2="159.29"/><line class="cls-2" x1="87.86" y1="159.54" x2="88.67" y2="159.79"/><line class="cls-2" x1="89.45" y1="160.1" x2="90.23" y2="160.42"/><line class="cls-2" x1="91.01" y1="160.74" x2="91.8" y2="161.05"/><line class="cls-2" x1="92.55" y1="161.42" x2="93.31" y2="161.8"/><line class="cls-2" x1="94.06" y1="162.19" x2="94.81" y2="162.57"/><line class="cls-2" x1="95.53" y1="163.01" x2="96.25" y2="163.45"/><path class="cls-2" d="M97,163.89a6.58,6.58,0,0,1,.7.47"/><line class="cls-2" x1="98.36" y1="164.85" x2="99.04" y2="165.34"/><line class="cls-2" x1="99.71" y1="165.85" x2="100.36" y2="166.39"/><path class="cls-2" d="M101,166.93c.21.18.44.35.64.55"/><line class="cls-2" x1="102.26" y1="168.07" x2="102.87" y2="168.65"/><line class="cls-2" x1="103.46" y1="169.25" x2="104.03" y2="169.87"/><line class="cls-2" x1="104.59" y1="170.5" x2="105.13" y2="171.15"/><line class="cls-2" x1="105.66" y1="171.8" x2="106.17" y2="172.48"/><path class="cls-2" d="M106.65,173.17c.16.23.31.47.46.71"/></svg>