<svg id="圖層_1" data-name="圖層 1" xmlns="http://www.w3.org/2000/svg" viewBox="0 0 148.44 308.57"><defs><style>.cls-1,.cls-13,.cls-4,.cls-8{fill:none;}.cls-2{fill:#252641;}.cls-11,.cls-12,.cls-13,.cls-2,.cls-3,.cls-4,.cls-6,.cls-7,.cls-8{stroke:#231815;}.cls-11,.cls-12,.cls-13,.cls-2,.cls-3,.cls-4,.cls-8{stroke-linecap:round;}.cls-11,.cls-12,.cls-13,.cls-2,.cls-3,.cls-7,.cls-8{stroke-linejoin:round;}.cls-11,.cls-12,.cls-2,.cls-3,.cls-8{stroke-width:0.3px;}.cls-3{fill:#f8f1e3;}.cls-4,.cls-6{stroke-miterlimit:10;}.cls-4,.cls-6,.cls-7{stroke-width:0.3px;}.cls-5{fill:#595757;}.cls-6,.cls-7,.cls-9{fill:#fff;}.cls-10{fill:#231815;}.cls-11{fill:#cdc1d1;}.cls-12{fill:#e4d3d4;}.cls-13{stroke-width:0.15px;}</style></defs><path class="cls-1" d="M43,175.22a15.72,15.72,0,0,0,1.15,1.92c-.18-.29-.35-.55-.5-.81C43.35,175.92,43.14,175.56,43,175.22Z"/><path class="cls-2" d="M48.91,86.81c0,4.91.13,9.26.42,12.27,0,.39.08.76.12,1.11a5.6,5.6,0,0,0,.14,1c0,.28.1-.26.15.8.06.6.12,1.07.18.63.06-.22.12.78.19.45.07.16.15.62.22.26s.48,2,.78.47c.3.83.64.08,1,.44.38,1,.79.75,1.24.41a5.7,5.7,0,0,0,1.46.39c.17.17.35,0,.53.12a1.27,1.27,0,0,0,.57.12c.19,0,.38-.18.58.18.2.12.4,0,.61,0,.21-.22.42,0,.63.11s.44-.06.66.1a1.64,1.64,0,0,0,.68.15c.23-.28.46-.17.7.05.24,0,.48-.13.73.07.25,0,.5-.08.75.1.26-.41.51.23.78,0,.26.15.52,0,.79.13l1.21.11,1.13.08c.38.37.77.23,1.17.09s.81.47,1.22.07c.41.2.82.6,1.25.07.42.05.85,0,1.29.05a3.73,3.73,0,0,1,1.33,0q1.13,0,2.31.06l1.19,0a1.13,1.13,0,0,1,1.21,0c.42-.15.83-.33,1.25,0,.42.07.84-.14,1.27,0a3.49,3.49,0,0,1,.85,0,1.85,1.85,0,0,1,.84-.06,1.27,1.27,0,0,1,.81.08.65.65,0,0,1,.8,0c.26-.13.52-.3.78,0,.26-.24.51-.37.77,0a8.6,8.6,0,0,0,2.49-.08,3.25,3.25,0,0,1,2.29-.11c.73-.27,1.44-.59,2.11-.14a5,5,0,0,1,1.93-.16c.61-.29,1.2,0,1.76-.18l1.59-.21c.68-.09,1.31-.19,1.89-.29.59.32,1.13-.27,1.64-.31.5-.87,1,.86,1.4-.32.42.39.82.25,1.18-.33s.68.48,1-.32c.29-.41.56-.31.8-.32.07-.06.14-.62.2-.19.07.1.13-1,.19-.37.05-.27.11-.32.16-.56,0,.37.1-.45.15-.72s.08-.57.12-.89a137.45,137.45,0,0,0,.5-14.75c-7.87-.17-19.64-.46-28.22-.9C68.38,86.75,56.45,86.87,48.91,86.81Z"/><path class="cls-3" d="M89.28,8.37a2.3,2.3,0,0,0-1-1.63s-.12-1-11.61-1-12.29,1-12.29,1a8,8,0,0,0-.7,1.75c1.1-.4,4.42-1.24,13.13-1.24C84.69,7.25,88,7.93,89.28,8.37Z"/><path class="cls-2" d="M88.63,11.1a4.4,4.4,0,0,0,.65-2.73C88,7.93,84.69,7.25,76.83,7.25c-8.71,0-12,.84-13.13,1.24a5.81,5.81,0,0,0,0,3.21c-2.71,3-6.79,8.68-6.79,8.68s1.75,13.09,20.49,13.09,19.5-13.09,19.5-13.09C94.62,17.88,93.41,16.17,88.63,11.1Z"/><path class="cls-3" d="M40,120.7a3.83,3.83,0,0,0-3.17,4.39,6.44,6.44,0,0,0-1.42,2.37,7,7,0,0,0-4.78,2c-2.17,2.16-4-16.75-2.53-16.59,1.81-.75,4.21-.5,9.59-1.46C39.21,112.48,40,120.7,40,120.7Z"/><path class="cls-4" d="M36,124.73a3.66,3.66,0,0,1,0-.81"/><path class="cls-4" d="M36.09,123.12a4.89,4.89,0,0,1,.3-.75"/><path class="cls-4" d="M36.82,121.68a4.45,4.45,0,0,1,.54-.61"/><path class="cls-4" d="M38,120.55a5,5,0,0,1,.69-.43"/><path class="cls-4" d="M34.88,125.93a8,8,0,0,1,.73-.92"/><path class="cls-4" d="M30.15,128.51a7.21,7.21,0,0,1,.75-.59"/><path class="cls-4" d="M31.71,127.44a7.34,7.34,0,0,1,.86-.39"/><path class="cls-4" d="M33.47,126.75c.31-.09.61-.17.92-.23"/><path class="cls-3" d="M39.73,111.25l-.3,2a21.24,21.24,0,0,1-13.28,1.33,15.85,15.85,0,0,1-.26-2C31.38,113.83,37.52,112,39.73,111.25Z"/><path class="cls-2" d="M46.37,24.78C50.47,34.85,50.6,48.9,50.6,48.9L39.73,111.25c-2.21.77-8.35,2.58-13.84,1.29C24.7,98.27,27.11,32.05,46.37,24.78Z"/><path class="cls-3" d="M112.31,120.57a3.84,3.84,0,0,1,3.17,4.4,6.36,6.36,0,0,1,1.42,2.36,7,7,0,0,1,4.78,2c2.16,2.15,4-16.76,2.53-16.59-1.82-.75-4.22-.5-9.59-1.47C113.12,112.35,112.31,120.57,112.31,120.57Z"/><path class="cls-4" d="M116.38,124.6a3.66,3.66,0,0,0,0-.81"/><path class="cls-4" d="M116.23,123a3.85,3.85,0,0,0-.29-.76"/><path class="cls-4" d="M115.51,121.55a4.45,4.45,0,0,0-.54-.61"/><path class="cls-4" d="M114.35,120.42a4.89,4.89,0,0,0-.69-.42"/><path class="cls-4" d="M117.44,125.8a6.93,6.93,0,0,0-.72-.92"/><path class="cls-4" d="M122.17,128.38a7.09,7.09,0,0,0-.74-.59"/><path class="cls-4" d="M120.62,127.31a8.53,8.53,0,0,0-.87-.39"/><path class="cls-4" d="M118.85,126.62c-.3-.09-.61-.16-.92-.23"/><path class="cls-3" d="M112.6,111.12l.3,1.95a21.28,21.28,0,0,0,13.28,1.34,15.85,15.85,0,0,0,.26-2C121,113.7,114.81,111.89,112.6,111.12Z"/><path class="cls-2" d="M106,24.66c-4.1,10.06-4.24,24.12-4.24,24.12l10.88,62.34c2.21.77,8.35,2.58,13.84,1.3C127.62,98.14,125.22,31.93,106,24.66Z"/><path class="cls-3" d="M78.38,17.55c5.93,0,9.23-4.47,10.76-7.42.45-2.29-1-2.83-1-2.83S86.25,16,77.39,15.75,64.3,7.3,64.3,7.3a9.84,9.84,0,0,0-.77,2.31A16.78,16.78,0,0,0,78.38,17.55Z"/><path class="cls-2" d="M88.64,11.69a7.67,7.67,0,0,0,.5-1.56c-1.53,2.95-4.83,7.41-10.76,7.42A16.78,16.78,0,0,1,63.53,9.61a4.54,4.54,0,0,0,.17,2.68C61,15.31,56.9,21,56.9,21s1.75,13.08,20.49,13.08S96.89,21,96.89,21C94.64,18.47,93.42,16.76,88.64,11.69Z"/><path class="cls-2" d="M67.37,28.35A23.67,23.67,0,0,1,56.6,20.68S52,21.16,46,25A78.22,78.22,0,0,1,49.93,48.3s0,1-.12,2.68C53.41,40.56,62,32.57,67.37,28.35Z"/><path class="cls-2" d="M107.9,25.16c-6.37-2.64-11.31-4.48-11.31-4.48A20.15,20.15,0,0,1,87,28.2c5.19,4.1,13.06,11.52,16.82,21.14,0-.55,0-.86,0-.86A46.7,46.7,0,0,1,107.9,25.16Z"/><path class="cls-3" d="M68.62,28.76l-1.25-.41C62,32.57,53.41,40.56,49.81,51c0,.84-.08,1.88-.13,3.06C52.92,42.11,63,33.07,68.62,28.76Z"/><path class="cls-3" d="M104,52.1c-.06-1.2-.1-2.14-.13-2.76C100.08,39.72,92.21,32.3,87,28.2c-.39.16-.8.3-1.21.44C91.26,32.84,100.38,41.16,104,52.1Z"/><path class="cls-5" d="M103.71,103.79a2.4,2.4,0,0,1-.31-.25.86.86,0,0,1-.13-.14,1.07,1.07,0,0,1-.14-.16l-.12-.18a2.12,2.12,0,0,1-.12-.2l-.1-.2a.9.9,0,0,1-.08-.21,1.46,1.46,0,0,1,0-.2,1.1,1.1,0,0,1,0-.18,2,2,0,0,1,0-.37h0a2.94,2.94,0,0,1,.14.35s0,.11,0,.16a1.07,1.07,0,0,1,.07.19c0,.06,0,.13,0,.2l.08.2a1.54,1.54,0,0,0,.08.19l.1.19c0,.06.08.12.11.17l.1.15a3.41,3.41,0,0,0,.25.29Z"/><path class="cls-5" d="M102.28,102.57s0,0,.06,0a.13.13,0,0,1,0,.06l0,.09c0,.07,0,.14-.07.2a2,2,0,0,0-.08.41,2.57,2.57,0,0,0,0,.83l0,.25-.15-.21a1.45,1.45,0,0,1-.18-.32l-.15-.33c-.09-.22-.17-.44-.25-.67-.16-.44-.31-.89-.45-1.34s-.26-.91-.35-1.38c0-.23-.09-.46-.12-.7a5.51,5.51,0,0,1-.06-.7h0c0,.23.1.46.16.68l.18.69.38,1.35c.12.46.25.91.4,1.36.07.22.14.44.22.67l.13.33a2.85,2.85,0,0,0,.16.3l-.1,0a2.48,2.48,0,0,1,0-.86,2.73,2.73,0,0,1,.1-.41,1.67,1.67,0,0,0,.08-.2l0-.09s0,0,0,0,0,0,0,0Z"/><path class="cls-5" d="M100.72,104.74s-.15-.33-.33-.84-.4-1.19-.58-1.89c-.08-.35-.16-.7-.22-1l-.06-.49c0-.15,0-.3,0-.43s0-.26,0-.37a2.16,2.16,0,0,1,0-.28l0-.24h0s0,.09,0,.25,0,.17,0,.27,0,.23,0,.36,0,.28.06.43,0,.3.08.47c0,.33.11.68.18,1,.14.7.33,1.39.48,1.91s.27.85.27.85Z"/><path class="cls-5" d="M97.29,105s0-.37.06-.92c0-.28,0-.6,0-1s0-.71,0-1.08a5.14,5.14,0,0,0-.06-.55c0-.18,0-.35-.07-.52s0-.34-.07-.49-.06-.3-.09-.44a3.15,3.15,0,0,0-.09-.36c0-.11-.06-.2-.09-.28l-.09-.24h0s0,.08.13.22l.07.12a1,1,0,0,1,.07.15,2.08,2.08,0,0,1,.14.36c0,.14.1.28.13.44a4,4,0,0,1,.09.5,5,5,0,0,1,.06.54c0,.18,0,.37,0,.56,0,.37,0,.74,0,1.09s0,.67-.07,1c0,.55-.11.92-.11.92Z"/><path class="cls-5" d="M96.89,104.42a3,3,0,0,1-.18-.26,2.52,2.52,0,0,1-.16-.29.89.89,0,0,1-.08-.17s0-.11-.08-.17a2.53,2.53,0,0,1-.12-.36,1.1,1.1,0,0,1,0-.18.85.85,0,0,1,0-.16,1.38,1.38,0,0,1,.07-.32h0a1.8,1.8,0,0,1,.08.3c0,.05,0,.1,0,.15l0,.15a1.13,1.13,0,0,1,0,.18l0,.18,0,.17a.85.85,0,0,0,.06.17c0,.11.07.22.11.3a2.74,2.74,0,0,0,.13.29Z"/><path class="cls-5" d="M94.76,100.85a7.53,7.53,0,0,1,.33,1.05A9.81,9.81,0,0,1,95.3,103c0,.18,0,.37.06.55s0,.37,0,.56a8,8,0,0,1,0,.55,2.66,2.66,0,0,1,0,.28l0,.28-.13-.08a1.47,1.47,0,0,0,.33-.57,4.88,4.88,0,0,0,.16-.66c.07-.46.1-.92.13-1.38s0-.93,0-1.39l0-1.4h0c.06.46.1.93.12,1.4s0,.93,0,1.4a8.21,8.21,0,0,1-.15,1.4,3.2,3.2,0,0,1-.19.69,1.66,1.66,0,0,1-.39.63l-.19.16,0-.24.05-.26a1.26,1.26,0,0,0,0-.27,1.24,1.24,0,0,0,0-.27,2.46,2.46,0,0,0,0-.28,4.86,4.86,0,0,0,0-.54c0-.18,0-.37,0-.55a8.08,8.08,0,0,0-.17-1.08,6.27,6.27,0,0,0-.29-1Z"/><path class="cls-5" d="M98.37,99.9q.1.28.18.57a5.66,5.66,0,0,1,.15.59,7.75,7.75,0,0,1,.16,1.19,6,6,0,0,1-.07,1.2,2.67,2.67,0,0,1-.16.6,1.38,1.38,0,0,1-.34.52l-.14-.11a1.36,1.36,0,0,0,.3-.72v-.2a.67.67,0,0,0,0-.19,1.08,1.08,0,0,0-.08-.19l-.13-.17a1.14,1.14,0,0,1,.15.16.66.66,0,0,1,.12.17.86.86,0,0,1,.07.21.76.76,0,0,1,0,.21,1.56,1.56,0,0,1-.26.82l-.14-.11a1.37,1.37,0,0,0,.27-.47,2.7,2.7,0,0,0,.14-.56,5.76,5.76,0,0,0,.08-1.17c0-.39,0-.78-.08-1.17S98.45,100.29,98.37,99.9Z"/><path class="cls-5" d="M94.54,105.33a2.44,2.44,0,0,1-.21-.31s0-.1-.08-.16a1.11,1.11,0,0,1-.09-.19c0-.06,0-.13-.08-.2a1.66,1.66,0,0,1-.06-.21L94,104a.85.85,0,0,1,0-.22c0-.07,0-.13,0-.2a1,1,0,0,1,0-.18,2.47,2.47,0,0,1,.09-.37h0a3.43,3.43,0,0,1,.07.36.5.5,0,0,0,0,.17c0,.07,0,.13,0,.2s0,.13,0,.2l0,.21a1.55,1.55,0,0,0,0,.21c0,.07,0,.14,0,.2s0,.13.06.19l.06.17a2.37,2.37,0,0,0,.16.33Z"/><path class="cls-5" d="M93.51,103.86s0,0,.06,0a.11.11,0,0,1,0,.06l0,.09-.09.19a2,2,0,0,0-.14.39,3,3,0,0,0-.07.84l0,.25-.11-.23a2.92,2.92,0,0,1-.13-.34l-.08-.35-.16-.69c-.09-.46-.17-.93-.25-1.39a13.49,13.49,0,0,1-.15-1.41,5.56,5.56,0,0,1,0-.71,5.74,5.74,0,0,1,0-.71h0c0,.23,0,.46.06.7l.09.7.17,1.39c.06.47.12.93.2,1.39l.13.69.07.35a1.5,1.5,0,0,0,.1.32l-.1,0a3,3,0,0,1,.11-.85,2,2,0,0,1,.16-.4l.1-.18.06-.09s0,0,0-.05h0Z"/><path class="cls-5" d="M91.77,105.82s-.1-.34-.22-.87-.26-1.22-.36-1.93c0-.36-.09-.71-.11-1v-.49c0-.15,0-.3,0-.43s0-.26.05-.37a1.78,1.78,0,0,1,0-.28l.06-.24h0v.24a2.44,2.44,0,0,0,0,.28v.37c0,.13,0,.27,0,.42s0,.31,0,.48c0,.33,0,.69.07,1,.06.71.17,1.41.26,1.94s.16.88.16.88Z"/><path class="cls-5" d="M88.45,105.79s.06-.36.12-.92c0-.27.06-.6.09-.94s0-.71,0-1.08a5,5,0,0,0,0-.55,4.58,4.58,0,0,0,0-.53c0-.17,0-.34,0-.5s0-.3,0-.43,0-.26-.07-.38a1.91,1.91,0,0,0-.07-.28c0-.15-.07-.24-.07-.24h0l.12.23a1.34,1.34,0,0,1,.06.12l.06.15a2.74,2.74,0,0,1,.11.37,3,3,0,0,1,.09.45,4,4,0,0,1,.06.51c0,.17,0,.35,0,.54s0,.37,0,.56c0,.37-.06.74-.1,1.08s-.08.67-.13,1c-.1.55-.18.91-.18.91Z"/><path class="cls-5" d="M88.1,105.18a2.81,2.81,0,0,1-.16-.27,2.15,2.15,0,0,1-.14-.3.87.87,0,0,1-.07-.17l-.06-.18c0-.12-.08-.25-.1-.37s0-.12,0-.17a.78.78,0,0,1,0-.16,1.17,1.17,0,0,1,.09-.32h0a1.87,1.87,0,0,1,.06.31.89.89,0,0,0,0,.14s0,.11,0,.16a1.1,1.1,0,0,0,0,.18l0,.18,0,.18a.85.85,0,0,0,0,.17c0,.11.06.22.09.31s.11.29.11.29Z"/><path class="cls-5" d="M86.22,101.48a9.85,9.85,0,0,1,.27,1.07c.06.36.11.73.14,1.09,0,.18,0,.37,0,.56s0,.36,0,.55l0,.28a2.51,2.51,0,0,1,0,.27,1.28,1.28,0,0,1,0,.27l-.06.28-.13-.09a1.2,1.2,0,0,0,.36-.54,3.75,3.75,0,0,0,.2-.65,12.6,12.6,0,0,0,.22-1.37c.05-.46.1-.92.13-1.38l.12-1.4h0c0,.47,0,.94,0,1.4s0,.94-.08,1.41a8.14,8.14,0,0,1-.24,1.38,4.19,4.19,0,0,1-.23.68,1.48,1.48,0,0,1-.43.6l-.19.15.06-.24.07-.26c0-.09,0-.18.06-.26a6542826840792.26,6542826840792.26,0,0,1,.08-.54c0-.18,0-.37,0-.55s0-.36,0-.54a9.81,9.81,0,0,0-.1-1.09,10.4,10.4,0,0,0-.23-1.08Z"/><path class="cls-5" d="M90,100.8a5.45,5.45,0,0,1,.14.58c0,.2.07.4.09.59a6.88,6.88,0,0,1,0,1.2,5.34,5.34,0,0,1-.17,1.19,2.78,2.78,0,0,1-.21.57,1.39,1.39,0,0,1-.37.5l-.13-.12a1.45,1.45,0,0,0,.35-.7.65.65,0,0,0,0-.2.63.63,0,0,0,0-.19.84.84,0,0,0-.07-.19,1.18,1.18,0,0,0-.11-.19,2.09,2.09,0,0,1,.14.17,1.14,1.14,0,0,1,.1.19.8.8,0,0,1,0,.21.81.81,0,0,1,0,.22,1.53,1.53,0,0,1-.32.79l-.13-.12a1.38,1.38,0,0,0,.31-.46,4.27,4.27,0,0,0,.18-.54,6.29,6.29,0,0,0,.18-1.14A11.64,11.64,0,0,0,90,100.8Z"/><path class="cls-5" d="M85.73,106a1.81,1.81,0,0,1-.19-.31s-.05-.11-.08-.17,0-.12-.07-.19,0-.13-.07-.2,0-.14,0-.22l0-.22c0-.07,0-.14,0-.21a1.48,1.48,0,0,1,0-.21,1.1,1.1,0,0,1,0-.18,1.75,1.75,0,0,1,.12-.36h0a2.68,2.68,0,0,1,0,.36,1,1,0,0,0,0,.17,1.34,1.34,0,0,1,0,.2v.41q0,.12,0,.21a1.91,1.91,0,0,1,0,.21c0,.07,0,.13,0,.19s0,.12,0,.17c.07.2.13.33.13.33Z"/><path class="cls-5" d="M84.8,104.44s0,0,0,0,0,0,0,0l-.06.09-.1.18a2.14,2.14,0,0,0-.16.39,2.8,2.8,0,0,0-.11.82v.25l-.1-.23a1.57,1.57,0,0,1-.11-.35l-.07-.35-.11-.7c-.07-.46-.13-.93-.17-1.4a11.12,11.12,0,0,1-.09-1.41c0-.24,0-.48,0-.71a5.35,5.35,0,0,1,.08-.7h0c0,.23,0,.47,0,.7l0,.7.1,1.4c0,.47.07.94.12,1.4l.09.7.06.35a1.77,1.77,0,0,0,.08.33l-.1,0a3,3,0,0,1,.15-.84,2.32,2.32,0,0,1,.18-.39l.12-.18,0-.09a.05.05,0,0,0,0,0h0Z"/><path class="cls-5" d="M83,106.31s-.08-.36-.18-.88-.2-1.24-.26-2c0-.36-.06-.72-.07-1.06,0-.16,0-.33,0-.48s0-.3,0-.43,0-.26.06-.37a2.56,2.56,0,0,1,.07-.27l.08-.24h0s0,.09,0,.24a2.16,2.16,0,0,0,0,.28c0,.11,0,.23,0,.36s0,.28,0,.43v.48c0,.33,0,.68,0,1,0,.71.1,1.42.17,2s.12.88.12.88Z"/><path class="cls-5" d="M79.67,106.15s.08-.36.16-.91c0-.27.08-.6.13-.94s.07-.72.09-1.08c0-.19,0-.37,0-.55s0-.36,0-.53,0-.34,0-.5a3,3,0,0,0,0-.44,3.33,3.33,0,0,0,0-.37,1,1,0,0,0-.06-.28l0-.25h0l.12.23a.49.49,0,0,0,.06.13,1.55,1.55,0,0,1,0,.15,2.8,2.8,0,0,1,.1.37,3,3,0,0,1,.07.45,4.06,4.06,0,0,1,0,.51,4.87,4.87,0,0,1,0,.54c0,.19,0,.37,0,.56,0,.37-.08.74-.14,1.09s-.11.66-.17.93c-.12.55-.21.91-.21.91Z"/><path class="cls-5" d="M79.35,105.54l-.14-.28a2.08,2.08,0,0,1-.13-.3,1.27,1.27,0,0,1-.06-.18L79,104.6a2.45,2.45,0,0,1-.08-.37v-.17a.76.76,0,0,1,0-.16,1.71,1.71,0,0,1,.11-.32h0a1.43,1.43,0,0,1,0,.31s0,.1,0,.15,0,.1,0,.16a.49.49,0,0,0,0,.17v.19l0,.18a.47.47,0,0,0,0,.17c0,.11,0,.22.08.31s.09.3.09.3Z"/><path class="cls-5" d="M77.62,101.77a8.78,8.78,0,0,1,.32,2.19,5,5,0,0,1,0,.55c0,.18,0,.37,0,.55a1.26,1.26,0,0,1,0,.27,2.36,2.36,0,0,1,0,.28,2.68,2.68,0,0,1-.07.27l-.07.26-.12-.09a1.35,1.35,0,0,0,.38-.52,3.45,3.45,0,0,0,.22-.64,13.08,13.08,0,0,0,.27-1.36c.07-.46.14-.92.19-1.39l.17-1.38h0c0,.46,0,.93,0,1.4s-.06.93-.13,1.4a8.26,8.26,0,0,1-.29,1.38,4.22,4.22,0,0,1-.26.67,1.32,1.32,0,0,1-.45.57l-.19.14.07-.23.07-.26a7.41,7.41,0,0,0,.13-.52c0-.09,0-.18,0-.27s0-.36.06-.54,0-.36,0-.55a9.94,9.94,0,0,0,0-1.09,7.87,7.87,0,0,0-.19-1.08Z"/><path class="cls-5" d="M81.39,101.2c0,.19.08.39.11.59s0,.39.06.59a8,8,0,0,1,0,1.2,5.42,5.42,0,0,1-.22,1.19,3,3,0,0,1-.23.56,1.44,1.44,0,0,1-.4.49l-.12-.12A1.47,1.47,0,0,0,81,105a.68.68,0,0,0,0-.2.67.67,0,0,0,0-.2,1.07,1.07,0,0,0-.07-.19.69.69,0,0,0-.1-.19,1,1,0,0,1,.13.17,1.24,1.24,0,0,1,.1.2,1.12,1.12,0,0,1,0,.21.81.81,0,0,1,0,.22,1.64,1.64,0,0,1-.36.78l-.11-.12a1.66,1.66,0,0,0,.32-.45,3.16,3.16,0,0,0,.2-.54,6.23,6.23,0,0,0,.23-1.14,9.2,9.2,0,0,0,.08-1.17A11.82,11.82,0,0,0,81.39,101.2Z"/><path class="cls-5" d="M77,106.21s-.08-.13-.18-.33c0,0,0-.11-.07-.17a1.06,1.06,0,0,1-.06-.19l-.06-.21a1.7,1.7,0,0,1,0-.22l0-.22a.83.83,0,0,1,0-.22,1.27,1.27,0,0,1,0-.2.84.84,0,0,1,0-.18,2.15,2.15,0,0,1,.13-.36h0a2.08,2.08,0,0,1,0,.37,1,1,0,0,0,0,.17v.19a1.47,1.47,0,0,0,0,.21v.21c0,.07,0,.14,0,.21l0,.21a1.05,1.05,0,0,0,0,.19.85.85,0,0,0,0,.17,3.24,3.24,0,0,0,.12.35Z"/><path class="cls-5" d="M76.07,104.65s.06,0,.06,0l0,0,0,.09a1.74,1.74,0,0,0-.11.18,1.88,1.88,0,0,0-.18.38,2.83,2.83,0,0,0-.15.82v.25l-.09-.24c0-.12-.06-.23-.09-.35l0-.35-.08-.7c-.05-.47-.09-.94-.11-1.41a13.46,13.46,0,0,1,0-1.42c0-.23,0-.47,0-.7a3.94,3.94,0,0,1,.12-.7h0c0,.24,0,.47,0,.7l0,.71,0,1.4c0,.47,0,.94,0,1.4l.06.71,0,.34a2.9,2.9,0,0,0,.07.34h-.1a2.64,2.64,0,0,1,.19-.83,2.28,2.28,0,0,1,.2-.38l.12-.18.06-.08,0,0s0,0,0,0Z"/><path class="cls-5" d="M74.15,106.44s-.07-.35-.14-.88-.13-1.25-.16-2c0-.36,0-.72,0-1.06,0-.17,0-.33,0-.48s.05-.3.07-.43.06-.26.09-.36a1.58,1.58,0,0,1,.08-.28l.08-.23h0l0,.24a2,2,0,0,0,0,.28c0,.11,0,.23,0,.36s0,.27,0,.42,0,.32,0,.48c0,.33,0,.69,0,1,0,.71,0,1.42.07,2s.08.88.08.88Z"/><path class="cls-5" d="M70.83,106.17s.1-.36.22-.91c0-.27.12-.59.18-.94s.12-.71.16-1.07c0-.19,0-.37,0-.55s0-.36,0-.53,0-.34,0-.5,0-.3,0-.44a3.7,3.7,0,0,0,0-.37,1.7,1.7,0,0,0,0-.28c0-.16,0-.25,0-.25h0l.09.23a.5.5,0,0,1,0,.13.83.83,0,0,1,0,.15,3.14,3.14,0,0,1,.08.38c0,.14,0,.29,0,.45a4.34,4.34,0,0,1,0,.51c0,.18,0,.36,0,.54s0,.37-.08.56q-.09.56-.21,1.08c-.07.34-.15.66-.23.93-.15.54-.27.89-.27.89Z"/><path class="cls-5" d="M70.54,105.52a2.74,2.74,0,0,1-.13-.29c0-.09-.07-.19-.11-.31s0-.12,0-.18a1.16,1.16,0,0,1,0-.18,2.71,2.71,0,0,1-.06-.38c0-.06,0-.12,0-.18a.76.76,0,0,1,0-.16,1.76,1.76,0,0,1,.13-.3h0a2.52,2.52,0,0,1,0,.32.78.78,0,0,0,0,.14v.17a1,1,0,0,0,0,.17v.18l0,.19c0,.06,0,.12,0,.17s0,.23.06.32.08.3.08.3Z"/><path class="cls-5" d="M69.08,101.62a10.15,10.15,0,0,1,.14,1.09,8.22,8.22,0,0,1,0,1.11,5.09,5.09,0,0,1,0,.55c0,.18,0,.36-.08.55l-.06.27a2.68,2.68,0,0,1-.07.27c0,.09,0,.18-.08.26l-.1.27-.12-.1a1.31,1.31,0,0,0,.43-.5,4.91,4.91,0,0,0,.28-.62,12.62,12.62,0,0,0,.36-1.34c.11-.45.21-.9.29-1.36l.27-1.37h0c0,.46-.07.93-.13,1.39s-.13.93-.23,1.38a8.11,8.11,0,0,1-.39,1.36,4.18,4.18,0,0,1-.31.64,1.36,1.36,0,0,1-.5.54s-.21.34-.21.13a.28.28,0,0,1,.09-.22l.1-.26a2.5,2.5,0,0,0,.09-.25c0-.09,0-.18.08-.27l.06-.26c0-.18.07-.36.1-.54l.06-.54c0-.36,0-.73,0-1.09a7.89,7.89,0,0,0-.1-1.09Z"/><path class="cls-5" d="M72.84,101.28a5.93,5.93,0,0,1,.07.59q0,.3,0,.6a8.06,8.06,0,0,1-.08,1.2,6.06,6.06,0,0,1-.29,1.17,3.2,3.2,0,0,1-.27.56,1.69,1.69,0,0,1-.42.47l-.12-.13a1.47,1.47,0,0,0,.42-.67.65.65,0,0,0,0-.2.69.69,0,0,0,0-.2,1.1,1.1,0,0,0-.14-.38,1.77,1.77,0,0,1,.12.17.7.7,0,0,1,.08.2,1.55,1.55,0,0,1,0,.21,1.42,1.42,0,0,1-.42,1l-.12-.13a1.33,1.33,0,0,0,.35-.43,2.79,2.79,0,0,0,.24-.53,6.5,6.5,0,0,0,.3-1.13,9.33,9.33,0,0,0,.14-1.17C72.83,102.07,72.84,101.68,72.84,101.28Z"/><path class="cls-5" d="M68.06,106c0-.13-.07-.17-.15-.34s0-.11,0-.17a1.39,1.39,0,0,1-.06-.19,2.07,2.07,0,0,0,0-.22,1.5,1.5,0,0,1,0-.22l0-.22a1.61,1.61,0,0,1,0-.22l0-.2a.78.78,0,0,1,0-.18,1.73,1.73,0,0,1,.15-.35h0a2.61,2.61,0,0,1,0,.37c0,.06,0,.11,0,.17a1.34,1.34,0,0,1,0,.2l0,.2v.21a.81.81,0,0,0,0,.22c0,.07,0,.14,0,.2l0,.2a.86.86,0,0,0,0,.17c0,.21.09.8.09.35C68.08,106.08,68.06,105.82,68.06,106Z"/><path class="cls-5" d="M67.31,104.4s0,0,0,0a.09.09,0,0,1,0,0l-.06.09a1.09,1.09,0,0,0-.13.17,2.71,2.71,0,0,0-.21.37c-.05.13-.1.26-.14.4a1.81,1.81,0,0,0-.07.41s0,.27,0,.25c0-.46-.07-.37-.07-.24a3.23,3.23,0,0,1-.06-.36l0-.35,0-.71q0-.7,0-1.41c0-.47,0-.94.11-1.41,0-.24.06-.47.11-.7a3.87,3.87,0,0,1,.17-.69h0c0,.23,0,.47-.07.7l0,.7-.08,1.4q0,.7-.06,1.41v.7l0,.35c0,.11,0,0,0,.33,0-.11-.11-.11-.11,0a2.53,2.53,0,0,1,.27-.83,2.06,2.06,0,0,1,.23-.37l.13-.16.07-.08,0,0h0Z"/><path class="cls-5" d="M65.22,106.08c0,.17,0-.22,0-.24s0-.38,0-.64c0-.54,0-1.25,0-2,0-.36,0-.72.09-1.06,0-.16.06-.32.08-.47s.08-.3.11-.43.08-.25.11-.35a1.86,1.86,0,0,1,.11-.27c.06-.15.1-.23.1-.23h0l-.05.24c0,.08,0,.17-.06.28s0,.22-.06.35a4.3,4.3,0,0,0-.07.43c0,.15,0,.31-.07.47,0,.33-.1.68-.13,1-.07.71-.1,1.42-.11,2v.89S65.22,106,65.22,106.08Z"/><path class="cls-5" d="M61.88,105.45s.14-.35.32-.88c.1-.26.19-.58.29-.91s.19-.69.27-1c0-.19.07-.37.11-.55s.05-.35.08-.52,0-.34.07-.49,0-.31,0-.44,0-.26,0-.37a1.3,1.3,0,0,0,0-.29c0-.16,0-.26,0-.26h0s0,.09.07.24l0,.13s0,.1,0,.16,0,.24,0,.39,0,.29,0,.45,0,.33,0,.51-.06.35-.1.53-.09.36-.14.54c-.1.37-.21.72-.32,1.06s-.23.63-.33.9c-.21.52-.38.85-.38.85Z"/><path class="cls-5" d="M61.67,104.79a2.83,2.83,0,0,1-.1-.3,1.41,1.41,0,0,1-.08-.31l0-.18c0-.07,0-.13,0-.19a1.63,1.63,0,0,1,0-.38.57.57,0,0,1,0-.18.83.83,0,0,1,0-.15,1.74,1.74,0,0,1,.16-.29h0a1.08,1.08,0,0,1,0,.31v.15s0,.11,0,.16a.55.55,0,0,0,0,.18l0,.18V104a1.08,1.08,0,0,0,0,.18c0,.11,0,.22,0,.32a2.51,2.51,0,0,0,0,.3Z"/><path class="cls-5" d="M60.66,100.81a10.28,10.28,0,0,1,0,1.11,10.5,10.5,0,0,1-.11,1.1c0,.18-.07.36-.11.54s-.09.36-.15.53a8.16,8.16,0,0,1-.19.52,2.06,2.06,0,0,1-.12.26l-.12.25-.11-.12a1.37,1.37,0,0,0,.49-.44,3.53,3.53,0,0,0,.35-.59c.2-.42.36-.87.52-1.3s.31-.89.44-1.34L62,100h0c-.07.46-.17.92-.28,1.37s-.24.91-.38,1.36a9.44,9.44,0,0,1-.55,1.32,5.83,5.83,0,0,1-.39.62,1.48,1.48,0,0,1-.57.48l-.23.1.12-.21.13-.24c0-.08.08-.17.12-.25a1.89,1.89,0,0,0,.11-.25,1.84,1.84,0,0,0,.09-.25,5.16,5.16,0,0,0,.16-.52c0-.18.09-.36.13-.53a9.85,9.85,0,0,0,.15-1.09,10.11,10.11,0,0,0,0-1.1Z"/><path class="cls-5" d="M64.39,100.81c0,.2,0,.4,0,.6s0,.4,0,.6a7.86,7.86,0,0,1-.2,1.18,5.71,5.71,0,0,1-.4,1.14,2.85,2.85,0,0,1-.33.52,1.62,1.62,0,0,1-.47.43l-.1-.14a1.5,1.5,0,0,0,.49-.63l.06-.19a1.34,1.34,0,0,0,0-.2.64.64,0,0,0,0-.2c0-.07,0-.13-.07-.2s.07.12.1.19a.66.66,0,0,1,.06.2,1.62,1.62,0,0,1,0,.22,1.66,1.66,0,0,1,0,.22,1.69,1.69,0,0,1-.49.72l-.1-.14a1.52,1.52,0,0,0,.4-.4,2.72,2.72,0,0,0,.29-.5,5.92,5.92,0,0,0,.4-1.09,9.1,9.1,0,0,0,.26-1.15A11.53,11.53,0,0,0,64.39,100.81Z"/><path class="cls-5" d="M59.1,105a2.37,2.37,0,0,1-.11-.35c0-.06,0-.12,0-.18a1.23,1.23,0,0,1,0-.2c0-.07,0-.14,0-.22v-.44a1.43,1.43,0,0,1,0-.22,1.17,1.17,0,0,1,0-.2c0-.06.05-.12.07-.17a2.21,2.21,0,0,1,.21-.32h0a2.43,2.43,0,0,1-.06.37s0,.1,0,.17l0,.18-.06.2,0,.21a.83.83,0,0,0,0,.22c0,.07,0,.14,0,.21a1.21,1.21,0,0,0,0,.19,1.09,1.09,0,0,0,0,.18,1.89,1.89,0,0,0,0,.36Z"/><path class="cls-5" d="M58.55,103.35s.05,0,0,0a.09.09,0,0,1,0,0l-.08.08-.15.15a2.56,2.56,0,0,0-.59,1.11l-.07.25,0-.25a2.32,2.32,0,0,1,0-.37l0-.35c0-.23,0-.47.07-.7.07-.47.14-.93.22-1.4a13.68,13.68,0,0,1,.31-1.38c.06-.23.13-.46.21-.68a4.8,4.8,0,0,1,.27-.66h0c-.07.23-.12.46-.17.69l-.15.69L58.15,102c-.1.46-.19.93-.26,1.39,0,.23-.08.46-.11.69l0,.35a1.93,1.93,0,0,0,0,.34h-.11A3,3,0,0,1,58,104a2.13,2.13,0,0,1,.28-.33l.16-.15.08-.07,0,0h0Z"/><path class="cls-5" d="M56.18,104.72s0-.36.08-.9a18.62,18.62,0,0,1,.34-1.94c.07-.35.16-.7.26-1,0-.16.11-.31.16-.46s.12-.27.17-.4l.17-.33a2.21,2.21,0,0,1,.14-.24l.14-.21h0l-.08.23-.11.26a3.66,3.66,0,0,1-.12.35c0,.12-.08.26-.13.4s-.09.3-.14.46c-.1.32-.21.66-.3,1-.19.69-.33,1.39-.43,1.92s-.13.88-.13.88Z"/><path class="cls-5" d="M52.81,103.47s.23-.31.53-.78c.15-.24.32-.52.49-.83s.34-.63.5-1c.08-.17.15-.34.22-.51s.13-.34.19-.5.12-.32.18-.46.09-.3.14-.43a3.15,3.15,0,0,0,.09-.36c0-.11.05-.2.07-.28s0-.25,0-.25h0v.38s0,.1,0,.16a1.86,1.86,0,0,1-.06.38c0,.14-.05.29-.1.45s-.1.32-.16.49-.13.33-.21.5-.16.34-.25.5c-.16.34-.35.66-.53,1s-.37.57-.54.8c-.33.46-.58.75-.58.75Z"/><path class="cls-5" d="M52.73,102.77a3.06,3.06,0,0,1,0-.31,1.82,1.82,0,0,1,0-.33,1.09,1.09,0,0,1,0-.18l0-.19a2,2,0,0,1,.08-.37c0-.06,0-.11.07-.16a.67.67,0,0,1,.09-.14,1.72,1.72,0,0,1,.23-.24h0a1.46,1.46,0,0,1-.09.3s0,.09,0,.14a1.42,1.42,0,0,1-.05.16c0,.05,0,.1-.07.16l-.06.17-.05.18c0,.06,0,.12,0,.17s0,.23,0,.32,0,.31,0,.31Z"/><path class="cls-5" d="M52.91,98.69c-.11.34-.24.69-.38,1a10.07,10.07,0,0,1-.47,1,4.76,4.76,0,0,1-.28.49c-.1.16-.21.31-.32.46l-.18.23-.19.21-.21.2-.22.2,0-.08-.08-.09a.81.81,0,0,0,.4-.06,2.55,2.55,0,0,0,.33-.17,3.51,3.51,0,0,0,.56-.46,10.3,10.3,0,0,0,.9-1.08c.27-.39.53-.77.78-1.17l.75-1.21h0c-.2.43-.41.85-.63,1.27s-.47.82-.74,1.22A6.4,6.4,0,0,1,52,101.8a3.08,3.08,0,0,1-.6.46,1.72,1.72,0,0,1-.79.27,3.4,3.4,0,0,1-.39-.06l.25-.13.27-.14A2,2,0,0,0,51,102l.2-.21a1.24,1.24,0,0,0,.18-.21c.12-.14.23-.29.34-.44s.21-.31.3-.47a10.15,10.15,0,0,0,.51-1,9.71,9.71,0,0,0,.41-1Z"/><path class="cls-5" d="M56.26,99.39c0,.19,0,.39-.09.59s-.08.38-.14.58a7.63,7.63,0,0,1-.41,1.13,5.65,5.65,0,0,1-.62,1.06,3.12,3.12,0,0,1-.43.46,1.82,1.82,0,0,1-.57.35l-.08-.16a1.55,1.55,0,0,0,.63-.53.76.76,0,0,0,.09-.18.46.46,0,0,0,0-.2.66.66,0,0,0,0-.2,1.38,1.38,0,0,0,0-.2,1.52,1.52,0,0,1,.06.2.71.71,0,0,1,0,.21.76.76,0,0,1,0,.21.9.9,0,0,1-.08.21,1.68,1.68,0,0,1-.64.63l-.07-.15a1.78,1.78,0,0,0,.48-.33,3.31,3.31,0,0,0,.4-.44,6.55,6.55,0,0,0,.61-1,10.53,10.53,0,0,0,.47-1.09A11.4,11.4,0,0,0,56.26,99.39Z"/><path class="cls-2" d="M76.67,80.91c8.56.44,20.31.73,28.18.89-.14-11.22-.63-23.7-.88-29.7-3.59-10.94-12.71-19.26-18.16-23.46A26.84,26.84,0,0,1,77.09,30a28.28,28.28,0,0,1-8.47-1.26C63,33.07,52.92,42.11,49.68,54c-.27,6.63-.68,17.92-.76,28C56.46,82.13,68.39,82,76.67,80.91Z"/><path class="cls-3" d="M104.86,82.61c0-.27,0-.54,0-.81-7.87-.16-19.62-.45-28.18-.89-8.28,1.1-20.21,1.22-27.75,1.17v.58c0,1.28,0,2.54,0,3.76v.39c7.54.06,19.47-.06,27.76-1.17,8.58.44,20.35.73,28.22.9v-.17C104.89,85.14,104.88,83.89,104.86,82.61Z"/><path class="cls-6" d="M78.25,106.26v-.85h-.86a.42.42,0,0,1-.42.43.42.42,0,0,0-.43.42h0a.43.43,0,0,0,.43.43.42.42,0,0,1,.42.42h.86v-.85Z"/><path class="cls-6" d="M78.25,104.56v-.85h-.86a.42.42,0,0,1-.42.43.42.42,0,0,0-.43.42h0A.43.43,0,0,0,77,105a.42.42,0,0,1,.42.42h.86v-.85Z"/><path class="cls-6" d="M75.69,105.41v.85h.85a.42.42,0,0,1,.43-.42.42.42,0,0,0,.42-.43h0A.42.42,0,0,0,77,105a.43.43,0,0,1-.43-.43h-.85v.85Z"/><rect class="cls-7" x="75.69" y="106.26" width="2.55" height="1.34"/><path class="cls-6" d="M78.25,104.56v-.85h-.86a.42.42,0,0,1-.42.43.43.43,0,1,0,0,.85.42.42,0,0,1,.42.42h.86Z"/><path class="cls-6" d="M78.25,102.86V102h-.86a.42.42,0,0,1-.42.43.42.42,0,0,0-.43.42h0a.43.43,0,0,0,.43.43.42.42,0,0,1,.42.42h.86v-.85Z"/><path class="cls-6" d="M75.69,103.71v.85h.85a.42.42,0,0,1,.43-.42.42.42,0,0,0,.42-.43h0a.42.42,0,0,0-.42-.42.43.43,0,0,1-.43-.43h-.85v.85Z"/><path class="cls-6" d="M78.25,102.86V102h-.86a.42.42,0,0,1-.42.43.43.43,0,1,0,0,.85.42.42,0,0,1,.42.42h.86Z"/><path class="cls-6" d="M78.25,101.16v-.85h-.86a.42.42,0,0,1-.42.43.42.42,0,0,0-.43.42h0a.43.43,0,0,0,.43.43.42.42,0,0,1,.42.42h.86v-.85Z"/><path class="cls-6" d="M75.69,102v.85h.85a.42.42,0,0,1,.43-.42.42.42,0,0,0,.42-.43h0a.42.42,0,0,0-.42-.42.43.43,0,0,1-.43-.43h-.85V102Z"/><path class="cls-6" d="M78.25,101.16v-.85h-.86a.42.42,0,0,1-.42.43.43.43,0,1,0,0,.85.42.42,0,0,1,.42.42h.86Z"/><path class="cls-6" d="M78.25,99.46v-.85h-.86A.42.42,0,0,1,77,99a.43.43,0,0,0-.43.43h0a.43.43,0,0,0,.43.43.42.42,0,0,1,.42.42h.86v-.85Z"/><path class="cls-6" d="M75.69,100.31v.85h.85a.42.42,0,0,1,.43-.42.42.42,0,0,0,.42-.43h0a.42.42,0,0,0-.42-.42.43.43,0,0,1-.43-.43h-.85v.85Z"/><path class="cls-6" d="M78.25,99.46v-.85h-.86A.42.42,0,0,1,77,99a.43.43,0,0,0-.43.43.43.43,0,0,0,.43.43.42.42,0,0,1,.42.42h.86Z"/><path class="cls-6" d="M78.25,97.76v-.85h-.86a.42.42,0,0,1-.42.42.43.43,0,0,0-.43.43h0a.42.42,0,0,0,.43.42.42.42,0,0,1,.42.43h.86v-.85Z"/><path class="cls-6" d="M75.69,98.61v.85h.85A.43.43,0,0,1,77,99a.42.42,0,0,0,.42-.42h0a.42.42,0,0,0-.42-.43.42.42,0,0,1-.43-.42h-.85v.85Z"/><path class="cls-6" d="M78.25,97.76v-.85h-.86a.42.42,0,0,1-.42.42.43.43,0,1,0,0,.85.42.42,0,0,1,.42.43h.86Z"/><path class="cls-6" d="M78.25,96.06v-.85h-.86a.42.42,0,0,1-.42.42.43.43,0,0,0-.43.43h0a.42.42,0,0,0,.43.42.42.42,0,0,1,.42.43h.86v-.85Z"/><path class="cls-6" d="M75.69,96.91v.85h.85a.43.43,0,0,1,.43-.43.42.42,0,0,0,.42-.42h0a.42.42,0,0,0-.42-.43.42.42,0,0,1-.43-.42h-.85v.85Z"/><path class="cls-6" d="M78.25,96.06v-.85h-.86a.42.42,0,0,1-.42.42.43.43,0,1,0,0,.85.42.42,0,0,1,.42.43h.86Z"/><path class="cls-6" d="M78.25,94.36v-.85h-.86a.42.42,0,0,1-.42.42.43.43,0,0,0-.43.43h0a.42.42,0,0,0,.43.42.42.42,0,0,1,.42.43h.86v-.85Z"/><path class="cls-6" d="M75.69,95.21v.85h.85a.43.43,0,0,1,.43-.43.42.42,0,0,0,.42-.42h0a.42.42,0,0,0-.42-.43.42.42,0,0,1-.43-.42h-.85v.85Z"/><path class="cls-6" d="M78.25,94.36v-.85h-.86a.42.42,0,0,1-.42.42.43.43,0,1,0,0,.85.42.42,0,0,1,.42.43h.86Z"/><path class="cls-6" d="M78.25,92.66v-.85h-.86a.42.42,0,0,1-.42.42.43.43,0,0,0-.43.43h0a.42.42,0,0,0,.43.42.42.42,0,0,1,.42.43h.86v-.85Z"/><path class="cls-6" d="M75.69,93.51v.85h.85a.43.43,0,0,1,.43-.43.42.42,0,0,0,.42-.42h0a.42.42,0,0,0-.42-.43.42.42,0,0,1-.43-.42h-.85v.85Z"/><path class="cls-6" d="M78.25,92.66V91.8h-.86a.42.42,0,0,1-.42.43.43.43,0,1,0,0,.85.42.42,0,0,1,.42.43h.86Z"/><path class="cls-6" d="M78.25,91V90.1h-.86a.42.42,0,0,1-.42.43.42.42,0,0,0-.43.42h0a.43.43,0,0,0,.43.43.42.42,0,0,1,.42.42h.86V91Z"/><path class="cls-6" d="M75.69,91.8v.86h.85a.43.43,0,0,1,.43-.43.42.42,0,0,0,.42-.43h0a.42.42,0,0,0-.42-.42.43.43,0,0,1-.43-.43h-.85v.85Z"/><path class="cls-6" d="M78.25,91V90.1h-.86a.42.42,0,0,1-.42.43.43.43,0,1,0,0,.85.42.42,0,0,1,.42.42h.86Z"/><path class="cls-6" d="M78.25,89.25V88.4h-.86a.42.42,0,0,1-.42.43.42.42,0,0,0-.43.42h0a.43.43,0,0,0,.43.43.42.42,0,0,1,.42.42h.86v-.85Z"/><path class="cls-6" d="M75.69,90.1V91h.85a.42.42,0,0,1,.43-.42.42.42,0,0,0,.42-.43h0a.42.42,0,0,0-.42-.42.43.43,0,0,1-.43-.43h-.85v.85Z"/><path class="cls-6" d="M78.25,89.25V88.4h-.86a.42.42,0,0,1-.42.43.43.43,0,1,0,0,.85.42.42,0,0,1,.42.42h.86Z"/><path class="cls-6" d="M78.25,87.55V86.7h-.86a.42.42,0,0,1-.42.43.42.42,0,0,0-.43.42h0A.43.43,0,0,0,77,88a.42.42,0,0,1,.42.42h.86v-.85Z"/><path class="cls-6" d="M75.69,88.4v.85h.85a.42.42,0,0,1,.43-.42.42.42,0,0,0,.42-.43h0A.42.42,0,0,0,77,88a.43.43,0,0,1-.43-.43h-.85v.85Z"/><path class="cls-6" d="M78.25,87.55V86.7h-.86a.42.42,0,0,1-.42.43A.43.43,0,1,0,77,88a.42.42,0,0,1,.42.42h.86Z"/><path class="cls-6" d="M78.25,85.85V85h-.86a.42.42,0,0,1-.42.43.42.42,0,0,0-.43.42h0a.43.43,0,0,0,.43.43.42.42,0,0,1,.42.42h.86v-.85Z"/><path class="cls-6" d="M75.69,86.7v.85h.85a.42.42,0,0,1,.43-.42.42.42,0,0,0,.42-.43h0a.42.42,0,0,0-.42-.42.43.43,0,0,1-.43-.43h-.85v.85Z"/><path class="cls-6" d="M78.25,85.85V85h-.86a.42.42,0,0,1-.42.43.43.43,0,1,0,0,.85.42.42,0,0,1,.42.42h.86Z"/><path class="cls-6" d="M78.25,84.15V83.3h-.86a.42.42,0,0,1-.42.42.43.43,0,0,0-.43.43h0a.43.43,0,0,0,.43.43.42.42,0,0,1,.42.42h.86v-.85Z"/><path class="cls-6" d="M75.69,85v.85h.85a.42.42,0,0,1,.43-.42.42.42,0,0,0,.42-.43h0a.42.42,0,0,0-.42-.42.43.43,0,0,1-.43-.43h-.85V85Z"/><path class="cls-6" d="M78.25,84.15V83.3h-.86a.42.42,0,0,1-.42.42.43.43,0,0,0-.43.43.43.43,0,0,0,.43.43.42.42,0,0,1,.42.42h.86Z"/><path class="cls-6" d="M78.25,82.45V81.6h-.86A.42.42,0,0,1,77,82a.43.43,0,0,0-.43.43h0a.42.42,0,0,0,.43.42.42.42,0,0,1,.42.43h.86v-.85Z"/><path class="cls-6" d="M75.69,83.3v.85h.85a.43.43,0,0,1,.43-.43.42.42,0,0,0,.42-.42h0a.42.42,0,0,0-.42-.43.42.42,0,0,1-.43-.42h-.85v.85Z"/><path class="cls-6" d="M78.25,82.45V81.6h-.86A.42.42,0,0,1,77,82a.43.43,0,1,0,0,.85.42.42,0,0,1,.42.43h.86Z"/><path class="cls-6" d="M78.25,80.75V79.9h-.86a.42.42,0,0,1-.42.42.43.43,0,0,0-.43.43h0a.42.42,0,0,0,.43.42.42.42,0,0,1,.42.43h.86v-.85Z"/><path class="cls-6" d="M75.69,81.6v.85h.85A.43.43,0,0,1,77,82a.42.42,0,0,0,.42-.42h0a.42.42,0,0,0-.42-.43.42.42,0,0,1-.43-.42h-.85v.85Z"/><path class="cls-6" d="M78.25,80.75V79.9h-.86a.42.42,0,0,1-.42.42.43.43,0,1,0,0,.85.42.42,0,0,1,.42.43h.86Z"/><path class="cls-6" d="M78.25,79.05V78.2h-.86a.42.42,0,0,1-.42.42.43.43,0,0,0-.43.43h0a.42.42,0,0,0,.43.42.42.42,0,0,1,.42.43h.86v-.85Z"/><path class="cls-6" d="M75.69,79.9v.85h.85a.43.43,0,0,1,.43-.43.42.42,0,0,0,.42-.42h0a.42.42,0,0,0-.42-.43.42.42,0,0,1-.43-.42h-.85v.85Z"/><path class="cls-6" d="M78.25,79.05V78.2h-.86a.42.42,0,0,1-.42.42.43.43,0,1,0,0,.85.42.42,0,0,1,.42.43h.86Z"/><path class="cls-6" d="M78.25,77.35v-.86h-.86a.42.42,0,0,1-.42.43.43.43,0,0,0-.43.43h0a.42.42,0,0,0,.43.42.42.42,0,0,1,.42.43h.86v-.85Z"/><path class="cls-6" d="M75.69,78.2v.85h.85a.43.43,0,0,1,.43-.43.42.42,0,0,0,.42-.42h0a.42.42,0,0,0-.42-.43.42.42,0,0,1-.43-.42h-.85v.85Z"/><path class="cls-6" d="M78.25,77.35v-.86h-.86a.42.42,0,0,1-.42.43.43.43,0,1,0,0,.85.42.42,0,0,1,.42.43h.86Z"/><path class="cls-6" d="M78.25,75.64v-.85h-.86a.42.42,0,0,1-.42.43.42.42,0,0,0-.43.42h0a.43.43,0,0,0,.43.43.42.42,0,0,1,.42.42h.86v-.85Z"/><path class="cls-6" d="M75.69,76.49v.86h.85a.43.43,0,0,1,.43-.43.42.42,0,0,0,.42-.43h0a.42.42,0,0,0-.42-.42.43.43,0,0,1-.43-.43h-.85v.85Z"/><path class="cls-6" d="M78.25,75.64v-.85h-.86a.42.42,0,0,1-.42.43.43.43,0,1,0,0,.85.42.42,0,0,1,.42.42h.86Z"/><path class="cls-6" d="M78.25,73.94v-.85h-.86a.42.42,0,0,1-.42.43.42.42,0,0,0-.43.42h0a.43.43,0,0,0,.43.43.42.42,0,0,1,.42.42h.86v-.85Z"/><path class="cls-6" d="M75.69,74.79v.85h.85a.42.42,0,0,1,.43-.42.42.42,0,0,0,.42-.43h0a.42.42,0,0,0-.42-.42.43.43,0,0,1-.43-.43h-.85v.85Z"/><path class="cls-6" d="M78.25,73.94v-.85h-.86a.42.42,0,0,1-.42.43.43.43,0,1,0,0,.85.42.42,0,0,1,.42.42h.86Z"/><path class="cls-6" d="M78.25,72.24v-.85h-.86a.42.42,0,0,1-.42.43.42.42,0,0,0-.43.42h0a.43.43,0,0,0,.43.43.42.42,0,0,1,.42.42h.86v-.85Z"/><path class="cls-6" d="M75.69,73.09v.85h.85a.42.42,0,0,1,.43-.42.42.42,0,0,0,.42-.43h0a.42.42,0,0,0-.42-.42.43.43,0,0,1-.43-.43h-.85v.85Z"/><path class="cls-6" d="M78.25,72.24v-.85h-.86a.42.42,0,0,1-.42.43.43.43,0,1,0,0,.85.42.42,0,0,1,.42.42h.86Z"/><path class="cls-6" d="M78.25,70.54v-.85h-.86a.42.42,0,0,1-.42.43.42.42,0,0,0-.43.42h0A.43.43,0,0,0,77,71a.42.42,0,0,1,.42.42h.86v-.85Z"/><path class="cls-6" d="M75.69,71.39v.85h.85a.42.42,0,0,1,.43-.42.42.42,0,0,0,.42-.43h0A.42.42,0,0,0,77,71a.43.43,0,0,1-.43-.43h-.85v.85Z"/><path class="cls-6" d="M78.25,70.54v-.85h-.86a.42.42,0,0,1-.42.43A.43.43,0,1,0,77,71a.42.42,0,0,1,.42.42h.86Z"/><path class="cls-6" d="M78.25,68.84V68h-.86a.42.42,0,0,1-.42.42.43.43,0,0,0-.43.43h0a.43.43,0,0,0,.43.43.42.42,0,0,1,.42.42h.86v-.85Z"/><path class="cls-6" d="M75.69,69.69v.85h.85a.42.42,0,0,1,.43-.42.42.42,0,0,0,.42-.43h0a.43.43,0,0,0-.42-.43.42.42,0,0,1-.43-.42h-.85v.85Z"/><path class="cls-6" d="M78.25,68.84V68h-.86a.42.42,0,0,1-.42.42.43.43,0,0,0-.43.43.43.43,0,0,0,.43.43.42.42,0,0,1,.42.42h.86Z"/><path class="cls-6" d="M78.25,67.14v-.85h-.86a.42.42,0,0,1-.42.42.43.43,0,0,0-.43.43h0a.42.42,0,0,0,.43.42.42.42,0,0,1,.42.43h.86v-.85Z"/><path class="cls-6" d="M75.69,68v.85h.85a.43.43,0,0,1,.43-.43.42.42,0,0,0,.42-.42h0a.42.42,0,0,0-.42-.43.42.42,0,0,1-.43-.42h-.85V68Z"/><path class="cls-6" d="M78.25,67.14v-.85h-.86a.42.42,0,0,1-.42.42.43.43,0,1,0,0,.85.42.42,0,0,1,.42.43h.86Z"/><path class="cls-6" d="M78.25,65.44v-.85h-.86A.42.42,0,0,1,77,65a.43.43,0,0,0-.43.43h0a.42.42,0,0,0,.43.42.42.42,0,0,1,.42.43h.86v-.85Z"/><path class="cls-6" d="M75.69,66.29v.85h.85a.43.43,0,0,1,.43-.43.42.42,0,0,0,.42-.42h0a.42.42,0,0,0-.42-.43.42.42,0,0,1-.43-.42h-.85v.85Z"/><path class="cls-6" d="M78.25,65.44v-.85h-.86A.42.42,0,0,1,77,65a.43.43,0,1,0,0,.85.42.42,0,0,1,.42.43h.86Z"/><path class="cls-6" d="M78.25,63.74v-.85h-.86a.42.42,0,0,1-.42.42.43.43,0,0,0-.43.43h0a.42.42,0,0,0,.43.42.42.42,0,0,1,.42.43h.86v-.85Z"/><path class="cls-6" d="M75.69,64.59v.85h.85A.43.43,0,0,1,77,65a.42.42,0,0,0,.42-.42h0a.42.42,0,0,0-.42-.43.42.42,0,0,1-.43-.42h-.85v.85Z"/><path class="cls-6" d="M78.25,63.74v-.85h-.86a.42.42,0,0,1-.42.42.43.43,0,1,0,0,.85.42.42,0,0,1,.42.43h.86Z"/><path class="cls-6" d="M78.25,62v-.86h-.86a.42.42,0,0,1-.42.43.43.43,0,0,0-.43.43h0a.42.42,0,0,0,.43.42.42.42,0,0,1,.42.43h.86V62Z"/><path class="cls-6" d="M75.69,62.89v.85h.85a.43.43,0,0,1,.43-.43.42.42,0,0,0,.42-.42h0a.42.42,0,0,0-.42-.43.42.42,0,0,1-.43-.42h-.85v.85Z"/><path class="cls-6" d="M78.25,62v-.86h-.86a.42.42,0,0,1-.42.43.43.43,0,1,0,0,.85.42.42,0,0,1,.42.43h.86Z"/><path class="cls-6" d="M78.25,60.33v-.85h-.86a.42.42,0,0,1-.42.43.42.42,0,0,0-.43.42h0a.43.43,0,0,0,.43.43.42.42,0,0,1,.42.42h.86v-.85Z"/><path class="cls-6" d="M75.69,61.18V62h.85a.43.43,0,0,1,.43-.43.42.42,0,0,0,.42-.43h0a.42.42,0,0,0-.42-.42.43.43,0,0,1-.43-.43h-.85v.85Z"/><path class="cls-6" d="M78.25,60.33v-.85h-.86a.42.42,0,0,1-.42.43.43.43,0,1,0,0,.85.42.42,0,0,1,.42.42h.86Z"/><path class="cls-6" d="M78.25,58.63v-.85h-.86a.42.42,0,0,1-.42.43.42.42,0,0,0-.43.42h0a.43.43,0,0,0,.43.43.42.42,0,0,1,.42.42h.86v-.85Z"/><path class="cls-6" d="M75.69,59.48v.85h.85a.42.42,0,0,1,.43-.42.42.42,0,0,0,.42-.43h0a.42.42,0,0,0-.42-.42.43.43,0,0,1-.43-.43h-.85v.85Z"/><path class="cls-6" d="M78.25,58.63v-.85h-.86a.42.42,0,0,1-.42.43.43.43,0,1,0,0,.85.42.42,0,0,1,.42.42h.86Z"/><path class="cls-6" d="M78.25,56.93v-.85h-.86a.42.42,0,0,1-.42.43.42.42,0,0,0-.43.42h0a.43.43,0,0,0,.43.43.42.42,0,0,1,.42.42h.86v-.85Z"/><path class="cls-6" d="M75.69,57.78v.85h.85a.42.42,0,0,1,.43-.42.42.42,0,0,0,.42-.43h0a.42.42,0,0,0-.42-.42.43.43,0,0,1-.43-.43h-.85v.85Z"/><path class="cls-6" d="M78.25,56.93v-.85h-.86a.42.42,0,0,1-.42.43.43.43,0,1,0,0,.85.42.42,0,0,1,.42.42h.86Z"/><path class="cls-6" d="M78.25,55.23v-.85h-.86a.42.42,0,0,1-.42.43.42.42,0,0,0-.43.42h0a.43.43,0,0,0,.43.43.42.42,0,0,1,.42.42h.86v-.85Z"/><path class="cls-6" d="M75.69,56.08v.85h.85a.42.42,0,0,1,.43-.42.42.42,0,0,0,.42-.43h0a.42.42,0,0,0-.42-.42.43.43,0,0,1-.43-.43h-.85v.85Z"/><path class="cls-6" d="M78.25,55.23v-.85h-.86a.43.43,0,0,1-.42.43.43.43,0,1,0,0,.85.42.42,0,0,1,.42.42h.86Z"/><path class="cls-6" d="M78.25,53.53v-.85h-.86a.42.42,0,0,1-.42.42.43.43,0,0,0-.43.43h0A.43.43,0,0,0,77,54a.42.42,0,0,1,.42.42h.86v-.85Z"/><path class="cls-6" d="M75.69,54.38v.85h.85a.42.42,0,0,1,.43-.42.42.42,0,0,0,.42-.43h0A.43.43,0,0,0,77,54a.42.42,0,0,1-.43-.42h-.85v.85Z"/><path class="cls-6" d="M78.25,53.53v-.85h-.86a.42.42,0,0,1-.42.42.43.43,0,0,0-.43.43A.43.43,0,0,0,77,54a.42.42,0,0,1,.42.42h.86Z"/><path class="cls-6" d="M78.25,51.83V51h-.86a.42.42,0,0,1-.42.42.43.43,0,0,0-.43.43h0a.42.42,0,0,0,.43.42.42.42,0,0,1,.42.43h.86v-.85Z"/><path class="cls-6" d="M75.69,52.68v.85h.85A.43.43,0,0,1,77,53.1a.42.42,0,0,0,.42-.42h0a.42.42,0,0,0-.42-.43.42.42,0,0,1-.43-.42h-.85v.85Z"/><path class="cls-6" d="M78.25,51.83V51h-.86a.42.42,0,0,1-.42.42.43.43,0,1,0,0,.85.42.42,0,0,1,.42.43h.86Z"/><path class="cls-6" d="M78.25,50.13v-.85h-.86a.42.42,0,0,1-.42.42.43.43,0,0,0-.43.43h0a.42.42,0,0,0,.43.42.42.42,0,0,1,.42.43h.86v-.85Z"/><path class="cls-6" d="M75.69,51v.85h.85A.43.43,0,0,1,77,51.4a.42.42,0,0,0,.42-.42h0a.42.42,0,0,0-.42-.43.42.42,0,0,1-.43-.42h-.85V51Z"/><path class="cls-6" d="M78.25,50.13v-.85h-.86a.42.42,0,0,1-.42.42.43.43,0,1,0,0,.85.42.42,0,0,1,.42.43h.86Z"/><path class="cls-6" d="M78.25,48.43v-.85h-.86A.42.42,0,0,1,77,48a.43.43,0,0,0-.43.43h0a.42.42,0,0,0,.43.42.42.42,0,0,1,.42.43h.86v-.85Z"/><path class="cls-6" d="M75.69,49.28v.85h.85A.43.43,0,0,1,77,49.7a.42.42,0,0,0,.42-.42h0a.42.42,0,0,0-.42-.43.42.42,0,0,1-.43-.42h-.85v.85Z"/><path class="cls-6" d="M78.25,48.43v-.85h-.86A.42.42,0,0,1,77,48a.43.43,0,1,0,0,.85.42.42,0,0,1,.42.43h.86Z"/><path class="cls-6" d="M78.25,46.73v-.86h-.86a.42.42,0,0,1-.42.43.43.43,0,0,0-.43.43h0a.42.42,0,0,0,.43.42.42.42,0,0,1,.42.43h.86v-.85Z"/><path class="cls-6" d="M75.69,47.58v.85h.85A.43.43,0,0,1,77,48a.42.42,0,0,0,.42-.42h0a.42.42,0,0,0-.42-.43.42.42,0,0,1-.43-.42h-.85v.85Z"/><path class="cls-6" d="M78.25,46.73v-.86h-.86a.42.42,0,0,1-.42.43.43.43,0,1,0,0,.85.42.42,0,0,1,.42.43h.86Z"/><path class="cls-6" d="M78.25,45v-.85h-.86a.42.42,0,0,1-.42.43.42.42,0,0,0-.43.42h0a.43.43,0,0,0,.43.43.42.42,0,0,1,.42.42h.86V45Z"/><path class="cls-6" d="M75.69,45.87v.86h.85A.43.43,0,0,1,77,46.3a.42.42,0,0,0,.42-.43h0a.42.42,0,0,0-.42-.42.43.43,0,0,1-.43-.43h-.85v.85Z"/><path class="cls-6" d="M78.25,45v-.85h-.86a.42.42,0,0,1-.42.43.43.43,0,1,0,0,.85.42.42,0,0,1,.42.42h.86Z"/><path class="cls-6" d="M78.25,43.32v-.85h-.86a.42.42,0,0,1-.42.43.42.42,0,0,0-.43.42h0a.43.43,0,0,0,.43.43.42.42,0,0,1,.42.42h.86v-.85Z"/><path class="cls-6" d="M75.69,44.17V45h.85A.42.42,0,0,1,77,44.6a.42.42,0,0,0,.42-.43h0a.42.42,0,0,0-.42-.42.43.43,0,0,1-.43-.43h-.85v.85Z"/><path class="cls-6" d="M78.25,43.32v-.85h-.86a.42.42,0,0,1-.42.43.43.43,0,1,0,0,.85.42.42,0,0,1,.42.42h.86Z"/><path class="cls-6" d="M78.25,41.62v-.85h-.86a.42.42,0,0,1-.42.43.42.42,0,0,0-.43.42h0a.43.43,0,0,0,.43.43.42.42,0,0,1,.42.42h.86v-.85Z"/><path class="cls-6" d="M75.69,42.47v.85h.85A.42.42,0,0,1,77,42.9a.42.42,0,0,0,.42-.43h0a.42.42,0,0,0-.42-.42.43.43,0,0,1-.43-.43h-.85v.85Z"/><path class="cls-6" d="M78.25,41.62v-.85h-.86a.42.42,0,0,1-.42.43.43.43,0,1,0,0,.85.42.42,0,0,1,.42.42h.86Z"/><path class="cls-6" d="M78.25,39.92v-.85h-.86a.42.42,0,0,1-.42.43.42.42,0,0,0-.43.42h0a.43.43,0,0,0,.43.43.42.42,0,0,1,.42.42h.86v-.85Z"/><path class="cls-6" d="M75.69,40.77v.85h.85A.42.42,0,0,1,77,41.2a.42.42,0,0,0,.42-.43h0a.42.42,0,0,0-.42-.42.43.43,0,0,1-.43-.43h-.85v.85Z"/><path class="cls-6" d="M78.25,39.92v-.85h-.86a.43.43,0,0,1-.42.43.43.43,0,1,0,0,.85.42.42,0,0,1,.42.42h.86Z"/><path class="cls-6" d="M78.25,38.22v-.85h-.86a.42.42,0,0,1-.42.42.43.43,0,0,0-.43.43h0a.43.43,0,0,0,.43.43.42.42,0,0,1,.42.42h.86v-.85Z"/><path class="cls-6" d="M75.69,39.07v.85h.85A.42.42,0,0,1,77,39.5a.42.42,0,0,0,.42-.43h0a.43.43,0,0,0-.42-.43.42.42,0,0,1-.43-.42h-.85v.85Z"/><path class="cls-6" d="M78.25,38.22v-.85h-.86a.42.42,0,0,1-.42.42.43.43,0,1,0,0,.85.43.43,0,0,1,.42.43h.86Z"/><path class="cls-6" d="M78.25,36.52v-.85h-.86a.42.42,0,0,1-.42.42.43.43,0,0,0-.43.43h0a.42.42,0,0,0,.43.42.42.42,0,0,1,.42.43h.86v-.85Z"/><path class="cls-6" d="M75.69,37.37v.85h.85a.43.43,0,0,1,.43-.43.42.42,0,0,0,.42-.42h0a.42.42,0,0,0-.42-.43.42.42,0,0,1-.43-.42h-.85v.85Z"/><path class="cls-6" d="M78.25,36.52v-.85h-.86a.42.42,0,0,1-.42.42.43.43,0,1,0,0,.85.42.42,0,0,1,.42.43h.86Z"/><path class="cls-6" d="M78.25,34.82V34h-.86a.42.42,0,0,1-.42.42.43.43,0,0,0-.43.43h0a.42.42,0,0,0,.43.42.42.42,0,0,1,.42.43h.86v-.85Z"/><path class="cls-6" d="M75.69,35.67v.85h.85a.43.43,0,0,1,.43-.43.42.42,0,0,0,.42-.42h0a.42.42,0,0,0-.42-.43.42.42,0,0,1-.43-.42h-.85v.85Z"/><path class="cls-6" d="M78.25,34.82V34h-.86a.42.42,0,0,1-.42.42.43.43,0,1,0,0,.85.42.42,0,0,1,.42.43h.86Z"/><path class="cls-6" d="M78.25,33.12v-.85h-.86a.42.42,0,0,1-.42.42.43.43,0,0,0-.43.43h0a.42.42,0,0,0,.43.42.42.42,0,0,1,.42.43h.86v-.85Z"/><path class="cls-6" d="M75.69,34v.85h.85a.43.43,0,0,1,.43-.43.42.42,0,0,0,.42-.42h0a.42.42,0,0,0-.42-.43.42.42,0,0,1-.43-.42h-.85V34Z"/><path class="cls-6" d="M78.25,33.12v-.85h-.86a.42.42,0,0,1-.42.42.43.43,0,1,0,0,.85.42.42,0,0,1,.42.43h.86Z"/><path class="cls-6" d="M78.25,31.42v-.86h-.86A.42.42,0,0,1,77,31a.43.43,0,0,0-.43.43h0a.42.42,0,0,0,.43.42.42.42,0,0,1,.42.43h.86v-.85Z"/><path class="cls-6" d="M75.69,32.27v.85h.85a.43.43,0,0,1,.43-.43.42.42,0,0,0,.42-.42h0a.42.42,0,0,0-.42-.43.42.42,0,0,1-.43-.42h-.85v.85Z"/><path class="cls-6" d="M78.25,31.42v-.86h-.86A.42.42,0,0,1,77,31a.43.43,0,1,0,0,.85.42.42,0,0,1,.42.43h.86Z"/><path class="cls-6" d="M78.25,29.71v-.85h-.86a.42.42,0,0,1-.42.43.42.42,0,0,0-.43.42h0a.43.43,0,0,0,.43.43.42.42,0,0,1,.42.42h.86v-.85Z"/><path class="cls-6" d="M75.69,30.56v.86h.85A.43.43,0,0,1,77,31a.42.42,0,0,0,.42-.43h0a.42.42,0,0,0-.42-.42.43.43,0,0,1-.43-.43h-.85v.85Z"/><path class="cls-6" d="M78.25,29.71v-.85h-.86a.42.42,0,0,1-.42.43.43.43,0,1,0,0,.85.42.42,0,0,1,.42.42h.86Z"/><path class="cls-6" d="M78.25,28v-.85h-.86a.42.42,0,0,1-.42.43.42.42,0,0,0-.43.42h0a.43.43,0,0,0,.43.43.42.42,0,0,1,.42.42h.86V28Z"/><path class="cls-6" d="M75.69,28.86v.85h.85a.42.42,0,0,1,.43-.42.42.42,0,0,0,.42-.43h0a.42.42,0,0,0-.42-.42.43.43,0,0,1-.43-.43h-.85v.85Z"/><path class="cls-6" d="M78.25,28v-.85h-.86a.42.42,0,0,1-.42.43.43.43,0,1,0,0,.85.42.42,0,0,1,.42.42h.86Z"/><path class="cls-6" d="M78.25,26.31v-.85h-.86a.42.42,0,0,1-.42.43.42.42,0,0,0-.43.42h0a.43.43,0,0,0,.43.43.42.42,0,0,1,.42.42h.86v-.85Z"/><path class="cls-6" d="M75.69,27.16V28h.85a.42.42,0,0,1,.43-.42.42.42,0,0,0,.42-.43h0a.42.42,0,0,0-.42-.42.43.43,0,0,1-.43-.43h-.85v.85Z"/><path class="cls-6" d="M78.25,26.31v-.85h-.86a.42.42,0,0,1-.42.43.43.43,0,1,0,0,.85.42.42,0,0,1,.42.42h.86Z"/><path class="cls-6" d="M78.25,24.61v-.85h-.86a.42.42,0,0,1-.42.43.42.42,0,0,0-.43.42h0A.43.43,0,0,0,77,25a.42.42,0,0,1,.42.42h.86v-.85Z"/><path class="cls-6" d="M75.69,25.46v.85h.85a.42.42,0,0,1,.43-.42.42.42,0,0,0,.42-.43h0A.42.42,0,0,0,77,25a.43.43,0,0,1-.43-.43h-.85v.85Z"/><path class="cls-6" d="M78.25,24.61v-.85h-.86a.43.43,0,0,1-.42.43A.43.43,0,1,0,77,25a.42.42,0,0,1,.42.42h.86Z"/><path class="cls-6" d="M78.25,22.91v-.85h-.86a.42.42,0,0,1-.42.42.43.43,0,0,0-.43.43h0a.43.43,0,0,0,.43.43.42.42,0,0,1,.42.42h.86v-.85Z"/><path class="cls-6" d="M75.69,23.76v.85h.85a.42.42,0,0,1,.43-.42.43.43,0,0,0,.42-.43h0a.43.43,0,0,0-.42-.43.42.42,0,0,1-.43-.42h-.85v.85Z"/><path class="cls-6" d="M78.25,22.91v-.85h-.86a.42.42,0,0,1-.42.42.43.43,0,1,0,0,.85.43.43,0,0,1,.42.43h.86Z"/><path class="cls-6" d="M78.25,21.21v-.85h-.86a.42.42,0,0,1-.42.42.43.43,0,0,0-.43.43h0a.42.42,0,0,0,.43.42.42.42,0,0,1,.42.43h.86v-.85Z"/><path class="cls-6" d="M75.69,22.06v.85h.85a.43.43,0,0,1,.43-.43.42.42,0,0,0,.42-.42h0a.42.42,0,0,0-.42-.43.42.42,0,0,1-.43-.42h-.85v.85Z"/><path class="cls-6" d="M78.25,21.21v-.85h-.86a.42.42,0,0,1-.42.42.43.43,0,1,0,0,.85.42.42,0,0,1,.42.43h.86Z"/><path class="cls-6" d="M78.25,19.51v-.85h-.86a.42.42,0,0,1-.42.42.43.43,0,0,0-.43.43h0a.42.42,0,0,0,.43.42.42.42,0,0,1,.42.43h.86v-.85Z"/><path class="cls-6" d="M75.69,20.36v.85h.85a.43.43,0,0,1,.43-.43.42.42,0,0,0,.42-.42h0a.42.42,0,0,0-.42-.43.42.42,0,0,1-.43-.42h-.85v.85Z"/><path class="cls-6" d="M78.25,19.51v-.85h-.86a.42.42,0,0,1-.42.42.43.43,0,1,0,0,.85.42.42,0,0,1,.42.43h.86Z"/><path class="cls-6" d="M78.25,17.81V17h-.86a.42.42,0,0,1-.42.42.43.43,0,0,0-.43.43h0a.42.42,0,0,0,.43.42.42.42,0,0,1,.42.43h.86v-.85Z"/><path class="cls-6" d="M75.69,18.66v.85h.85a.43.43,0,0,1,.43-.43.42.42,0,0,0,.42-.42h0a.42.42,0,0,0-.42-.43.42.42,0,0,1-.43-.42h-.85v.85Z"/><path class="cls-6" d="M78.25,17.81V17h-.86a.42.42,0,0,1-.42.42.43.43,0,1,0,0,.85.42.42,0,0,1,.42.43h.86Z"/><path class="cls-6" d="M78.25,16.11v-.86h-.86a.42.42,0,0,1-.42.43.43.43,0,0,0-.43.43h0a.42.42,0,0,0,.43.42.42.42,0,0,1,.42.43h.86v-.85Z"/><path class="cls-6" d="M75.69,17v.85h.85a.43.43,0,0,1,.43-.43.42.42,0,0,0,.42-.42h0a.42.42,0,0,0-.42-.43.42.42,0,0,1-.43-.42h-.85V17Z"/><line class="cls-8" x1="78.82" y1="106.45" x2="78.82" y2="15.75"/><line class="cls-4" x1="78.26" y1="106.02" x2="78.26" y2="105.17"/><line class="cls-4" x1="78.26" y1="104.31" x2="78.26" y2="103.46"/><line class="cls-4" x1="78.26" y1="102.6" x2="78.26" y2="101.74"/><line class="cls-4" x1="78.26" y1="100.89" x2="78.26" y2="100.03"/><line class="cls-4" x1="78.26" y1="99.18" x2="78.26" y2="98.32"/><line class="cls-4" x1="78.26" y1="97.47" x2="78.26" y2="96.61"/><line class="cls-4" x1="78.26" y1="95.75" x2="78.26" y2="94.9"/><line class="cls-4" x1="78.26" y1="94.04" x2="78.26" y2="93.19"/><line class="cls-4" x1="78.26" y1="92.33" x2="78.26" y2="91.48"/><line class="cls-4" x1="78.26" y1="90.62" x2="78.26" y2="89.76"/><line class="cls-4" x1="78.26" y1="88.91" x2="78.26" y2="88.05"/><line class="cls-4" x1="78.26" y1="87.2" x2="78.26" y2="86.34"/><line class="cls-4" x1="78.26" y1="85.49" x2="78.26" y2="84.63"/><line class="cls-4" x1="78.26" y1="83.77" x2="78.26" y2="82.92"/><line class="cls-4" x1="78.26" y1="82.06" x2="78.26" y2="81.21"/><line class="cls-4" x1="78.26" y1="80.35" x2="78.26" y2="79.5"/><line class="cls-4" x1="78.26" y1="78.64" x2="78.26" y2="77.78"/><line class="cls-4" x1="78.26" y1="76.93" x2="78.26" y2="76.07"/><line class="cls-4" x1="78.26" y1="75.22" x2="78.26" y2="74.36"/><line class="cls-4" x1="78.26" y1="73.51" x2="78.26" y2="72.65"/><line class="cls-4" x1="78.26" y1="71.79" x2="78.26" y2="70.94"/><line class="cls-4" x1="78.26" y1="70.08" x2="78.26" y2="69.23"/><line class="cls-4" x1="78.26" y1="68.37" x2="78.26" y2="67.52"/><line class="cls-4" x1="78.26" y1="66.66" x2="78.26" y2="65.8"/><line class="cls-4" x1="78.26" y1="64.95" x2="78.26" y2="64.09"/><line class="cls-4" x1="78.26" y1="63.24" x2="78.26" y2="62.38"/><line class="cls-4" x1="78.26" y1="61.53" x2="78.26" y2="60.67"/><line class="cls-4" x1="78.26" y1="59.81" x2="78.26" y2="58.96"/><line class="cls-4" x1="78.26" y1="58.1" x2="78.26" y2="57.25"/><line class="cls-4" x1="78.26" y1="56.39" x2="78.26" y2="55.54"/><line class="cls-4" x1="78.26" y1="54.68" x2="78.26" y2="53.82"/><line class="cls-4" x1="78.26" y1="52.97" x2="78.26" y2="52.11"/><line class="cls-4" x1="78.26" y1="51.26" x2="78.26" y2="50.4"/><line class="cls-4" x1="78.26" y1="49.55" x2="78.26" y2="48.69"/><line class="cls-4" x1="78.26" y1="47.83" x2="78.26" y2="46.98"/><line class="cls-4" x1="78.26" y1="46.12" x2="78.26" y2="45.27"/><line class="cls-4" x1="78.26" y1="44.41" x2="78.26" y2="43.56"/><line class="cls-4" x1="78.26" y1="42.7" x2="78.26" y2="41.84"/><line class="cls-4" x1="78.26" y1="40.99" x2="78.26" y2="40.13"/><line class="cls-4" x1="78.26" y1="39.28" x2="78.26" y2="38.42"/><line class="cls-4" x1="78.26" y1="37.57" x2="78.26" y2="36.71"/><line class="cls-4" x1="78.26" y1="35.85" x2="78.26" y2="35"/><line class="cls-4" x1="78.26" y1="34.14" x2="78.26" y2="33.29"/><line class="cls-4" x1="78.26" y1="32.43" x2="78.26" y2="31.58"/><line class="cls-4" x1="78.26" y1="30.72" x2="78.26" y2="29.87"/><line class="cls-4" x1="78.26" y1="29.01" x2="78.26" y2="28.15"/><line class="cls-4" x1="78.26" y1="27.3" x2="78.26" y2="26.44"/><line class="cls-4" x1="78.26" y1="25.59" x2="78.26" y2="24.73"/><line class="cls-4" x1="78.26" y1="23.87" x2="78.26" y2="23.02"/><line class="cls-4" x1="78.26" y1="22.16" x2="78.26" y2="21.31"/><line class="cls-4" x1="78.26" y1="20.45" x2="78.26" y2="19.6"/><line class="cls-4" x1="78.26" y1="18.74" x2="78.26" y2="17.89"/><line class="cls-4" x1="78.26" y1="17.03" x2="78.26" y2="16.17"/><line class="cls-8" x1="75.15" y1="106.45" x2="75.15" y2="15.49"/><line class="cls-4" x1="75.64" y1="106.02" x2="75.64" y2="105.16"/><line class="cls-4" x1="75.64" y1="104.31" x2="75.64" y2="103.45"/><line class="cls-4" x1="75.64" y1="102.59" x2="75.64" y2="101.74"/><line class="cls-4" x1="75.64" y1="100.88" x2="75.64" y2="100.02"/><line class="cls-4" x1="75.64" y1="99.16" x2="75.64" y2="98.31"/><line class="cls-4" x1="75.64" y1="97.45" x2="75.64" y2="96.59"/><line class="cls-4" x1="75.64" y1="95.73" x2="75.64" y2="94.88"/><line class="cls-4" x1="75.64" y1="94.02" x2="75.64" y2="93.16"/><line class="cls-4" x1="75.64" y1="92.31" x2="75.64" y2="91.45"/><line class="cls-4" x1="75.64" y1="90.59" x2="75.64" y2="89.73"/><line class="cls-4" x1="75.64" y1="88.88" x2="75.64" y2="88.02"/><line class="cls-4" x1="75.64" y1="87.16" x2="75.64" y2="86.3"/><line class="cls-4" x1="75.64" y1="85.45" x2="75.64" y2="84.59"/><line class="cls-4" x1="75.64" y1="83.73" x2="75.64" y2="82.88"/><line class="cls-4" x1="75.64" y1="82.02" x2="75.64" y2="81.16"/><line class="cls-4" x1="75.64" y1="80.3" x2="75.64" y2="79.45"/><line class="cls-4" x1="75.64" y1="78.59" x2="75.64" y2="77.73"/><line class="cls-4" x1="75.64" y1="76.87" x2="75.64" y2="76.02"/><line class="cls-4" x1="75.64" y1="75.16" x2="75.64" y2="74.3"/><line class="cls-4" x1="75.64" y1="73.45" x2="75.64" y2="72.59"/><line class="cls-4" x1="75.64" y1="71.73" x2="75.64" y2="70.87"/><line class="cls-4" x1="75.64" y1="70.02" x2="75.64" y2="69.16"/><line class="cls-4" x1="75.64" y1="68.3" x2="75.64" y2="67.44"/><line class="cls-4" x1="75.64" y1="66.59" x2="75.64" y2="65.73"/><line class="cls-4" x1="75.64" y1="64.87" x2="75.64" y2="64.02"/><line class="cls-4" x1="75.64" y1="63.16" x2="75.64" y2="62.3"/><line class="cls-4" x1="75.64" y1="61.44" x2="75.64" y2="60.59"/><line class="cls-4" x1="75.64" y1="59.73" x2="75.64" y2="58.87"/><line class="cls-4" x1="75.64" y1="58.01" x2="75.64" y2="57.16"/><line class="cls-4" x1="75.64" y1="56.3" x2="75.64" y2="55.44"/><line class="cls-4" x1="75.64" y1="54.59" x2="75.64" y2="53.73"/><line class="cls-4" x1="75.64" y1="52.87" x2="75.64" y2="52.01"/><line class="cls-4" x1="75.64" y1="51.16" x2="75.64" y2="50.3"/><line class="cls-4" x1="75.64" y1="49.44" x2="75.64" y2="48.58"/><line class="cls-4" x1="75.64" y1="47.73" x2="75.64" y2="46.87"/><line class="cls-4" x1="75.64" y1="46.01" x2="75.64" y2="45.16"/><line class="cls-4" x1="75.64" y1="44.3" x2="75.64" y2="43.44"/><line class="cls-4" x1="75.64" y1="42.58" x2="75.64" y2="41.73"/><line class="cls-4" x1="75.64" y1="40.87" x2="75.64" y2="40.01"/><line class="cls-4" x1="75.64" y1="39.15" x2="75.64" y2="38.3"/><line class="cls-4" x1="75.64" y1="37.44" x2="75.64" y2="36.58"/><line class="cls-4" x1="75.64" y1="35.73" x2="75.64" y2="34.87"/><line class="cls-4" x1="75.64" y1="34.01" x2="75.64" y2="33.15"/><line class="cls-4" x1="75.64" y1="32.3" x2="75.64" y2="31.44"/><line class="cls-4" x1="75.64" y1="30.58" x2="75.64" y2="29.72"/><line class="cls-4" x1="75.64" y1="28.87" x2="75.64" y2="28.01"/><line class="cls-4" x1="75.64" y1="27.15" x2="75.64" y2="26.3"/><line class="cls-4" x1="75.64" y1="25.44" x2="75.64" y2="24.58"/><line class="cls-4" x1="75.64" y1="23.72" x2="75.64" y2="22.87"/><line class="cls-4" x1="75.64" y1="22.01" x2="75.64" y2="21.15"/><line class="cls-4" x1="75.64" y1="20.29" x2="75.64" y2="19.44"/><line class="cls-4" x1="75.64" y1="18.58" x2="75.64" y2="17.72"/><line class="cls-4" x1="75.64" y1="16.87" x2="75.64" y2="16.01"/><path class="cls-9" d="M77,17.94c-.19,0-.66-.21-.81-1.22a.82.82,0,1,1,1.62,0c-.15,1-.62,1.24-.81,1.22"/><path class="cls-10" d="M77,18a.91.91,0,0,1-.7-.41A2.34,2.34,0,0,1,76,16.8a1,1,0,0,1,.14-.92,1.08,1.08,0,0,1,.88-.4h0a1.13,1.13,0,0,1,.89.4,1.07,1.07,0,0,1,.13.92,2.77,2.77,0,0,1-.31.76.85.85,0,0,1-.7.4v0a.75.75,0,0,0,.56-.45,2.51,2.51,0,0,0,.22-.72.93.93,0,0,0-.12-.71.81.81,0,0,0-.66-.27h0a.81.81,0,0,0-.66.27.91.91,0,0,0-.12.71,2.25,2.25,0,0,0,.22.71.83.83,0,0,0,.56.46Z"/><path class="cls-9" d="M77,17.35c1.07,0,.54,1.25.28,1.72l-.68,0C76.49,18.72,75.92,17.32,77,17.35Zm0,.15c-.66,0-.33.59-.33.59h.64S77.67,17.52,77,17.5Zm.22,1.13h-.54v.3h.54Z"/><path class="cls-10" d="M77,17.33a.77.77,0,0,1,.52.18.66.66,0,0,1,.16.54,3.37,3.37,0,0,1-.31,1.07v0l-.08,0a2.37,2.37,0,0,1-.34.13.56.56,0,0,1-.34,0l-.2-.06,0-.11A3.11,3.11,0,0,1,76.25,18a.89.89,0,0,1,.22-.53A.68.68,0,0,1,77,17.33Zm0,0a.61.61,0,0,0-.47.17.63.63,0,0,0-.14.48,3.6,3.6,0,0,0,.24,1l0,0,.67,0h0a2.9,2.9,0,0,0,.36-1,.63.63,0,0,0-.13-.5A.71.71,0,0,0,77,17.36Z"/><path class="cls-10" d="M77,17.51c-.13,0-.32.06-.31.18a.46.46,0,0,0,.17.29l-.18-.11a3.06,3.06,0,0,1,.32-.05c.1,0,.21,0,.31.06l-.19.1a.43.43,0,0,0,.19-.27C77.32,17.59,77.14,17.53,77,17.51Zm0,0a.4.4,0,0,1,.4.19.53.53,0,0,1-.07.44v0h0l-.64,0h0a.55.55,0,0,1-.05-.45A.38.38,0,0,1,77,17.48Z"/><path class="cls-10" d="M77.21,18.64a2.56,2.56,0,0,0-.54.15l.18-.17.09.31-.26-.28.53.18-.11.1A1.18,1.18,0,0,0,77.21,18.64Zm0,0V19h-.59v-.36h0Z"/><path class="cls-9" d="M77.42,17.62A.38.38,0,0,1,77,18h0a.39.39,0,0,1-.42-.36V16.31A.39.39,0,0,1,77,16h0a.38.38,0,0,1,.41.35Z"/><path class="cls-10" d="M77.44,17.62c0,.5-.92.61-1,0a9,9,0,0,1-.13-1.27.66.66,0,0,1,.72-.59.58.58,0,0,1,.53.64A7.69,7.69,0,0,0,77.44,17.62Zm0,0V16.36A.36.36,0,0,0,77,16a.38.38,0,0,0-.41.33v1.27a.4.4,0,0,0,.8,0Z"/><path class="cls-9" d="M77,21.64c-1.18.05-.46-1.94-.46-1.94v-.34l.72-.05,0,.35S78.22,21.59,77,21.64Zm.18-2.25-.53,0v.28l.53,0ZM77,20.56a.46.46,0,0,0-.44.49.47.47,0,0,0,.48.45.46.46,0,0,0,.44-.49A.47.47,0,0,0,77,20.56Z"/><path class="cls-10" d="M77,21.65a.62.62,0,0,1-.54-.21,1.08,1.08,0,0,1-.16-.58,3.89,3.89,0,0,1,.21-1.17h0a1.94,1.94,0,0,0-.07-.33l0-.09h.11l.73-.09h0l.12.12c0,.05.12.11.13.16s0,.06,0,.09l0,.09,0-.08a3.45,3.45,0,0,1,.2,1.23,1.18,1.18,0,0,1-.16.61A.6.6,0,0,1,77,21.65Zm0,0a.57.57,0,0,0,.49-.25,1,1,0,0,0,.1-.57,3.76,3.76,0,0,0-.33-1.13h0c0-.11,0-.23,0-.34l0,0-.73,0,0,0v.34h0a3.5,3.5,0,0,0-.22,1.15.88.88,0,0,0,.15.55A.55.55,0,0,0,77,21.62Z"/><path class="cls-10" d="M77.21,19.4a2.46,2.46,0,0,0-.52.2l.18-.19.1.26-.28-.25.54.14-.1.11A1.25,1.25,0,0,0,77.21,19.4Zm0,0,0,.28v0h0l-.53,0h0v-.33h.57Z"/><path class="cls-10" d="M77,20.57a.42.42,0,0,0-.28.18.33.33,0,0,0,0,.29.32.32,0,0,0,.33.19.31.31,0,0,0,.31-.22A.35.35,0,0,0,77,20.57Zm0,0a.48.48,0,0,1,.5.46.48.48,0,1,1-1,.05A.48.48,0,0,1,77,20.54Z"/><path class="cls-9" d="M77.17,19.46a.18.18,0,0,1-.18.17h0a.18.18,0,0,1-.18-.17v-.6A.17.17,0,0,1,77,18.7h0a.17.17,0,0,1,.18.16Z"/><path class="cls-10" d="M77.19,19.46c0,.24-.45.35-.52,0a2,2,0,0,1-.13-.57.42.42,0,0,1,.48-.39c.22,0,.36.29.29.42A1.94,1.94,0,0,0,77.19,19.46Zm0,0v-.57c0-.21-.31-.21-.31,0v.57C76.8,19.64,77.16,19.67,77.16,19.46Z"/><path class="cls-11" d="M114.49,159.14c-.74-2.81-2.15-6.68-3.45-11-2.1-7-4.7-14.68-6.22-19-.78-2.24-1.27-3.62-1.27-3.62s-8.31-8.39-25.61-8.39-24.32,8.06-25,7.8h0c-.27.5-5.06,13.87-8.15,24.76-1,3.44-2,6.55-2.64,8.94a12.62,12.62,0,0,0-.56,3.59,27.53,27.53,0,0,1,4.95,7.51c.21.41.44.85.72,1.35.17.31.36.64.56,1l.07.12c3.24,5.34,25.55,10.28,28.42,7.94a2.54,2.54,0,0,0,1-1.29s0,0,0,0c.08-.36.15-.76.22-1.18a61.45,61.45,0,0,0,.6-6.45c0-1,.09-1.94.12-2.9,0,1,.07,1.94.14,2.91a27,27,0,0,0,1.2,7,2.77,2.77,0,0,0,.1.26c.11.26.22.52.34.75a1,1,0,0,0,.17.24c3.16,4.26,26-3.55,28.47-6.67l.13-.17.12-.14c1.66-2.1,2.93-6.32,6.12-9.92A11.44,11.44,0,0,0,114.49,159.14Z"/><path class="cls-12" d="M59,219.14c-15.48-47.1-6.16-90.09-5.14-94.49l-1-.28s-11.3,45.14,5,94.86c-1.2,9.34.18,15.37,1.11,18.14.58.4,1.12.82,1.64,1.26C59.91,237,57.52,230.53,59,219.14Z"/><path class="cls-12" d="M60.82,239.06s-.08-.16-.2-.43c-.52-.44-1.06-.86-1.64-1.26a13.75,13.75,0,0,0,.72,1.79s-6.15,27.21,5,63.34l1.07-.27C54.69,266.18,60.82,239.06,60.82,239.06Z"/><path class="cls-2" d="M95.12,238.9l0-.06s3.54-6.61,1.83-19.92c15.81-48.06,5.78-91.84,5.1-94.72-19.15,7.35-43,1.81-48.19.45-1,4.4-10.34,47.39,5.14,94.49-1.46,11.39.93,17.87,1.64,19.49,7.18,6.05,9.64,15.26,16,16.46-.26-4-.79-7.17-1.7-8.81,3.12-7.57-.27-58.23,3.1-86.12,0-.29-.06-.57-.1-.85,0,.28.07.56.1.85l0-.23,0,.23c3.26,28-.07,78,3,85.5-1,1.72-1.49,5.12-1.74,9.45C85.69,254,88.15,245,95.12,238.9Z"/><path class="cls-2" d="M95.12,238.9c-7,6.08-9.43,15.08-15.78,16.21-.87,14.81,1.53,40.41,1.1,46,4.16-.51,5.58-.58,9.8.47C100.89,266.71,95.41,240.28,95.12,238.9Z"/><path class="cls-2" d="M60.62,238.63c.12.27.2.43.2.43s-6.13,27.12,5,63.17c4.21-1.05,5.64-1,9.79-.46-.44-5.71,2-32,1.06-46.68C70.26,253.89,67.8,244.68,60.62,238.63Z"/><path class="cls-12" d="M96.93,218.92c1.71,13.31-1.83,19.92-1.83,19.92l0,.06c.51-.44,1-.87,1.61-1.28.87-2.21,2.78-8.52,1.44-19,16.35-49.73,5-94.87,5-94.87l-1.19.46C102.71,127.08,112.74,170.86,96.93,218.92Z"/><path class="cls-12" d="M95.12,238.9c.29,1.38,5.77,27.81-4.88,62.71l1.06.27c11.19-36.14,5-63.35,5-63.35s.16-.31.4-.91C96.16,238,95.63,238.46,95.12,238.9Z"/><path class="cls-11" d="M103.55,125.56s-8.3-8.39-25.61-8.39-24.31,8.06-25,7.81l1.33-6.74c.57-.36,6.39-7.32,23.69-7.32s24.26,7.82,24.26,7.82Z"/><line class="cls-4" x1="55.02" y1="118.51" x2="55.69" y2="117.99"/><line class="cls-4" x1="56.35" y1="117.47" x2="57.02" y2="116.97"/><path class="cls-4" d="M57.71,116.48c.23-.17.47-.31.7-.47"/><path class="cls-4" d="M59.13,115.58a7.68,7.68,0,0,1,.74-.41"/><line class="cls-4" x1="60.61" y1="114.78" x2="61.37" y2="114.42"/><path class="cls-4" d="M62.15,114.08c.26-.1.51-.22.78-.32"/><path class="cls-4" d="M63.72,113.48c.26-.1.53-.19.8-.27"/><path class="cls-4" d="M65.32,113l.81-.22"/><path class="cls-4" d="M67,112.53c.27-.07.55-.13.82-.18"/><path class="cls-4" d="M68.6,112.18c.27-.06.55-.11.82-.15"/><line class="cls-4" x1="70.26" y1="111.9" x2="71.09" y2="111.77"/><line class="cls-4" x1="71.93" y1="111.68" x2="72.76" y2="111.59"/><line class="cls-4" x1="73.6" y1="111.52" x2="74.44" y2="111.47"/><path class="cls-4" d="M75.28,111.41c.28,0,.56,0,.84,0"/><line class="cls-4" x1="76.97" y1="111.37" x2="77.81" y2="111.35"/><line class="cls-4" x1="78.65" y1="111.37" x2="79.49" y2="111.39"/><path class="cls-4" d="M80.33,111.42a7.87,7.87,0,0,1,.84,0"/><line class="cls-4" x1="82.01" y1="111.53" x2="82.85" y2="111.6"/><line class="cls-4" x1="83.69" y1="111.68" x2="84.52" y2="111.79"/><path class="cls-4" d="M85.36,111.91a7.94,7.94,0,0,1,.83.13"/><line class="cls-4" x1="87.02" y1="112.2" x2="87.84" y2="112.36"/><line class="cls-4" x1="88.66" y1="112.55" x2="89.48" y2="112.75"/><line class="cls-4" x1="90.3" y1="112.96" x2="91.1" y2="113.21"/><path class="cls-4" d="M91.9,113.46c.27.08.53.19.8.28"/><path class="cls-4" d="M93.49,114l.78.32"/><path class="cls-4" d="M95,114.68c.26.11.51.23.76.36"/><path class="cls-4" d="M96.56,115.41c.25.12.49.27.74.4"/><line class="cls-4" x1="98.03" y1="116.22" x2="98.75" y2="116.67"/><path class="cls-4" d="M99.45,117.13l.69.49"/><path class="cls-4" d="M100.8,118.14c.22.17.43.36.64.55"/><path class="cls-4" d="M102.5,123.58l-.69-.48"/><line class="cls-4" x1="101.1" y1="122.64" x2="100.38" y2="122.2"/><path class="cls-4" d="M99.65,121.78c-.24-.15-.49-.28-.74-.41"/><line class="cls-4" x1="98.16" y1="120.98" x2="97.4" y2="120.61"/><line class="cls-4" x1="96.64" y1="120.25" x2="95.87" y2="119.91"/><line class="cls-4" x1="95.09" y1="119.58" x2="94.3" y2="119.27"/><line class="cls-4" x1="93.51" y1="118.98" x2="92.71" y2="118.7"/><line class="cls-4" x1="91.91" y1="118.44" x2="91.1" y2="118.2"/><line class="cls-4" x1="90.29" y1="117.97" x2="89.47" y2="117.75"/><line class="cls-4" x1="88.65" y1="117.55" x2="87.82" y2="117.37"/><path class="cls-4" d="M87,117.2l-.83-.15"/><path class="cls-4" d="M85.33,116.91c-.27,0-.55-.1-.83-.12"/><line class="cls-4" x1="83.66" y1="116.69" x2="82.82" y2="116.59"/><line class="cls-4" x1="81.98" y1="116.52" x2="81.14" y2="116.46"/><line class="cls-4" x1="80.29" y1="116.4" x2="79.45" y2="116.38"/><path class="cls-4" d="M78.61,116.36c-.29,0-.57,0-.85,0"/><line class="cls-4" x1="76.92" y1="116.37" x2="76.07" y2="116.39"/><line class="cls-4" x1="75.23" y1="116.42" x2="74.39" y2="116.48"/><path class="cls-4" d="M73.54,116.54q-.42,0-.84.09"/><line class="cls-4" x1="71.87" y1="116.73" x2="71.03" y2="116.83"/><line class="cls-4" x1="70.19" y1="116.97" x2="69.36" y2="117.11"/><line class="cls-4" x1="68.53" y1="117.27" x2="67.71" y2="117.45"/><line class="cls-4" x1="66.88" y1="117.64" x2="66.07" y2="117.86"/><line class="cls-4" x1="65.25" y1="118.08" x2="64.45" y2="118.33"/><path class="cls-4" d="M63.64,118.58c-.27.08-.53.19-.8.28"/><path class="cls-4" d="M62.05,119.15l-.78.32"/><line class="cls-4" x1="60.49" y1="119.79" x2="59.72" y2="120.14"/><line class="cls-4" x1="58.95" y1="120.5" x2="58.2" y2="120.88"/><line class="cls-4" x1="57.45" y1="121.27" x2="56.71" y2="121.68"/><path class="cls-4" d="M56,122.11c-.25.14-.48.29-.72.44"/><line class="cls-4" x1="54.56" y1="123.01" x2="53.86" y2="123.49"/><path class="cls-1" d="M78.12,166.5c.11-3.38.11-6.49.12-7.89C78.24,158.61,78,162.29,78.12,166.5Z"/><path class="cls-1" d="M78,169.41h.26c-.07-1-.11-2-.14-2.92C78.09,167.46,78.05,168.44,78,169.41Z"/><path class="cls-11" d="M111.89,158.67a58.14,58.14,0,0,0-1-11.33c-2.09-7-4.69-14.68-6.22-19.05-.77-2.24-1.27-3.62-1.27-3.62s-.9.29-2.51.71a92.87,92.87,0,0,1-11.62,2.16C102.72,135.18,109.1,149.66,111.89,158.67Z"/><path class="cls-11" d="M67.66,127.61a71.33,71.33,0,0,1-12.79-2.8c-.71-.23-1.42-.47-2.12-.72l0,0c-.27.5-5.05,13.87-8.15,24.77a51.31,51.31,0,0,0-.58,9.27C47.09,148.7,53.87,134.61,67.66,127.61Z"/><path class="cls-11" d="M89.25,127.54a89.4,89.4,0,0,1-21.59.07c-13.79,7-20.57,21.09-23.69,30.5a27.8,27.8,0,0,0,2.33,10.76c.21.42.45.86.72,1.36.17.31.36.63.56,1l.08.12c3.23,5.34,25.54,10.27,28.42,7.94a2.47,2.47,0,0,0,1-1.33A64.48,64.48,0,0,0,78,167.41c-.11-4.21.12-7.88.12-7.88,0,1.39,0,4.51-.12,7.88.1,3.67.45,7.75,1.44,10.16.11.26.22.51.34.74,2.46,4.81,26.1-3.25,28.64-6.43.05,0,.09-.11.14-.17a26.76,26.76,0,0,0,3.29-13C109.1,149.66,102.72,135.18,89.25,127.54Z"/><line class="cls-4" x1="44.35" y1="157.01" x2="44.4" y2="157.87"/><line class="cls-4" x1="45.14" y1="156.97" x2="45.19" y2="157.81"/><line class="cls-4" x1="44.47" y1="158.73" x2="44.56" y2="159.59"/><line class="cls-4" x1="45.26" y1="158.65" x2="45.35" y2="159.49"/><line class="cls-4" x1="44.68" y1="160.44" x2="44.82" y2="161.3"/><line class="cls-4" x1="45.46" y1="160.33" x2="45.6" y2="161.16"/><path class="cls-4" d="M45,162.15c.06.28.12.56.19.84"/><path class="cls-4" d="M45.75,162c.07.28.12.55.19.82"/><line class="cls-4" x1="45.39" y1="163.83" x2="45.63" y2="164.66"/><line class="cls-4" x1="46.15" y1="163.62" x2="46.39" y2="164.42"/><line class="cls-4" x1="45.9" y1="165.48" x2="46.21" y2="166.3"/><line class="cls-4" x1="46.65" y1="165.22" x2="46.94" y2="166.01"/><path class="cls-4" d="M46.55,167.1a7,7,0,0,0,.38.78"/><path class="cls-4" d="M47.27,166.78c.1.25.23.5.36.75"/><path class="cls-4" d="M47.33,168.65c.14.25.28.5.43.75"/><path class="cls-4" d="M48,168.27c.13.25.27.49.41.74"/><path class="cls-4" d="M48.22,170.16a4.9,4.9,0,0,0,.58.7"/><path class="cls-4" d="M48.87,169.7a3.61,3.61,0,0,0,.5.61"/><path class="cls-4" d="M49.46,171.47c.23.19.47.36.71.53"/><path class="cls-4" d="M50,170.86c.2.17.43.33.65.5"/><line class="cls-4" x1="50.9" y1="172.49" x2="51.65" y2="172.93"/><line class="cls-4" x1="51.31" y1="171.81" x2="52.04" y2="172.24"/><path class="cls-4" d="M52.41,173.33l.78.39"/><path class="cls-4" d="M52.78,172.63c.24.13.5.25.75.37"/><line class="cls-4" x1="53.98" y1="174.08" x2="54.77" y2="174.42"/><line class="cls-4" x1="54.3" y1="173.35" x2="55.07" y2="173.69"/><line class="cls-4" x1="55.57" y1="174.74" x2="56.37" y2="175.04"/><line class="cls-4" x1="55.86" y1="174" x2="56.65" y2="174.3"/><line class="cls-4" x1="57.18" y1="175.34" x2="57.99" y2="175.62"/><line class="cls-4" x1="57.44" y1="174.59" x2="58.24" y2="174.87"/><line class="cls-4" x1="58.81" y1="175.88" x2="59.63" y2="176.14"/><line class="cls-4" x1="59.05" y1="175.13" x2="59.86" y2="175.38"/><line class="cls-4" x1="60.45" y1="176.38" x2="61.28" y2="176.62"/><line class="cls-4" x1="60.67" y1="175.62" x2="61.49" y2="175.86"/><line class="cls-4" x1="62.11" y1="176.84" x2="62.94" y2="177.05"/><line class="cls-4" x1="62.31" y1="176.07" x2="63.13" y2="176.29"/><line class="cls-4" x1="63.77" y1="177.26" x2="64.61" y2="177.45"/><line class="cls-4" x1="63.95" y1="176.49" x2="64.78" y2="176.68"/><line class="cls-4" x1="65.45" y1="177.63" x2="66.29" y2="177.8"/><line class="cls-4" x1="65.61" y1="176.86" x2="66.44" y2="177.03"/><line class="cls-4" x1="67.13" y1="177.96" x2="67.98" y2="178.11"/><line class="cls-4" x1="67.28" y1="177.18" x2="68.11" y2="177.33"/><line class="cls-4" x1="68.83" y1="178.25" x2="69.68" y2="178.37"/><line class="cls-4" x1="68.95" y1="177.46" x2="69.78" y2="177.59"/><line class="cls-4" x1="70.53" y1="178.48" x2="71.39" y2="178.56"/><line class="cls-4" x1="70.62" y1="177.69" x2="71.46" y2="177.78"/><path class="cls-4" d="M72.25,178.63c.29,0,.58,0,.87,0"/><path class="cls-4" d="M72.3,177.84c.28,0,.56,0,.84,0"/><path class="cls-4" d="M74,178.68a8.64,8.64,0,0,0,.88,0"/><path class="cls-4" d="M74,177.89a7.38,7.38,0,0,0,.82,0"/><path class="cls-4" d="M75.76,178.53a4.4,4.4,0,0,0,.9-.27"/><path class="cls-4" d="M75.61,177.75a3.79,3.79,0,0,0,.72-.21"/><line class="cls-4" x1="111.3" y1="156.97" x2="111.25" y2="157.81"/><line class="cls-4" x1="112.09" y1="157.01" x2="112.04" y2="157.87"/><line class="cls-4" x1="111.18" y1="158.65" x2="111.09" y2="159.49"/><line class="cls-4" x1="111.97" y1="158.73" x2="111.88" y2="159.59"/><line class="cls-4" x1="110.98" y1="160.33" x2="110.85" y2="161.16"/><line class="cls-4" x1="111.76" y1="160.44" x2="111.63" y2="161.3"/><path class="cls-4" d="M110.69,162c-.06.28-.12.55-.19.82"/><path class="cls-4" d="M111.46,162.15c-.06.28-.11.56-.19.84"/><line class="cls-4" x1="110.29" y1="163.62" x2="110.06" y2="164.42"/><line class="cls-4" x1="111.06" y1="163.83" x2="110.81" y2="164.66"/><line class="cls-4" x1="109.79" y1="165.22" x2="109.5" y2="166.01"/><line class="cls-4" x1="110.54" y1="165.48" x2="110.24" y2="166.3"/><path class="cls-4" d="M109.18,166.78c-.11.25-.24.5-.37.75"/><path class="cls-4" d="M109.9,167.1c-.11.27-.25.53-.38.78"/><path class="cls-4" d="M108.41,168.27c-.12.25-.27.49-.4.73"/><path class="cls-4" d="M109.11,168.65c-.13.25-.28.5-.42.76"/><path class="cls-4" d="M107.57,169.71a4,4,0,0,1-.5.6"/><path class="cls-4" d="M108.23,170.15a3.71,3.71,0,0,1-.59.71"/><path class="cls-4" d="M106.48,170.86c-.21.18-.44.33-.66.5"/><path class="cls-4" d="M107,171.47c-.22.19-.47.36-.7.53"/><line class="cls-4" x1="105.13" y1="171.81" x2="104.41" y2="172.24"/><line class="cls-4" x1="105.55" y1="172.49" x2="104.8" y2="172.93"/><path class="cls-4" d="M103.67,172.63l-.76.37"/><path class="cls-4" d="M104,173.33c-.25.14-.52.26-.78.39"/><line class="cls-4" x1="102.15" y1="173.35" x2="101.37" y2="173.69"/><line class="cls-4" x1="102.47" y1="174.08" x2="101.68" y2="174.42"/><line class="cls-4" x1="100.59" y1="174" x2="99.8" y2="174.3"/><line class="cls-4" x1="100.88" y1="174.74" x2="100.07" y2="175.04"/><line class="cls-4" x1="99" y1="174.59" x2="98.2" y2="174.87"/><line class="cls-4" x1="99.26" y1="175.34" x2="98.45" y2="175.62"/><line class="cls-4" x1="97.39" y1="175.13" x2="96.58" y2="175.38"/><line class="cls-4" x1="97.64" y1="175.88" x2="96.82" y2="176.14"/><line class="cls-4" x1="95.77" y1="175.62" x2="94.96" y2="175.86"/><line class="cls-4" x1="95.99" y1="176.38" x2="95.17" y2="176.62"/><line class="cls-4" x1="94.14" y1="176.07" x2="93.31" y2="176.29"/><line class="cls-4" x1="94.34" y1="176.84" x2="93.51" y2="177.05"/><line class="cls-4" x1="92.49" y1="176.49" x2="91.66" y2="176.68"/><line class="cls-4" x1="92.67" y1="177.26" x2="91.84" y2="177.45"/><line class="cls-4" x1="90.83" y1="176.86" x2="90" y2="177.03"/><line class="cls-4" x1="91" y1="177.63" x2="90.16" y2="177.8"/><line class="cls-4" x1="89.17" y1="177.18" x2="88.33" y2="177.33"/><line class="cls-4" x1="89.31" y1="177.96" x2="88.47" y2="178.11"/><line class="cls-4" x1="87.5" y1="177.46" x2="86.66" y2="177.59"/><line class="cls-4" x1="87.62" y1="178.25" x2="86.77" y2="178.37"/><line class="cls-4" x1="85.82" y1="177.69" x2="84.98" y2="177.78"/><line class="cls-4" x1="85.91" y1="178.48" x2="85.05" y2="178.56"/><path class="cls-4" d="M84.14,177.84c-.28,0-.56,0-.84,0"/><path class="cls-4" d="M84.19,178.63c-.29,0-.58,0-.86,0"/><path class="cls-4" d="M82.47,177.89c-.28,0-.55,0-.83,0"/><path class="cls-4" d="M82.45,178.68a8.57,8.57,0,0,1-.87,0"/><path class="cls-4" d="M80.84,177.75a3.68,3.68,0,0,1-.73-.21"/><path class="cls-4" d="M80.69,178.53a4.08,4.08,0,0,1-.91-.27"/><path class="cls-8" d="M78,167.41c.11-3.37.12-6.49.12-7.88C78.16,159.53,77.93,163.2,78,167.41Z"/><line class="cls-4" x1="68.79" y1="127.74" x2="68.05" y2="128.15"/><path class="cls-4" d="M67.3,128.56c-.24.14-.5.27-.74.42"/><line class="cls-4" x1="65.85" y1="129.44" x2="65.13" y2="129.9"/><path class="cls-4" d="M64.41,130.36c-.23.16-.45.34-.69.5"/><line class="cls-4" x1="63.04" y1="131.37" x2="62.36" y2="131.87"/><line class="cls-4" x1="61.69" y1="132.4" x2="61.04" y2="132.95"/><path class="cls-4" d="M60.39,133.5c-.22.18-.44.36-.64.56"/><line class="cls-4" x1="59.13" y1="134.65" x2="58.51" y2="135.23"/><line class="cls-4" x1="57.91" y1="135.83" x2="57.32" y2="136.45"/><path class="cls-4" d="M56.74,137.06c-.19.21-.4.41-.58.63"/><line class="cls-4" x1="55.61" y1="138.34" x2="55.06" y2="138.99"/><line class="cls-4" x1="54.52" y1="139.64" x2="54" y2="140.32"/><path class="cls-4" d="M53.48,141c-.17.22-.35.44-.5.68"/><line class="cls-4" x1="52.49" y1="142.38" x2="52.01" y2="143.08"/><line class="cls-4" x1="51.53" y1="143.79" x2="51.08" y2="144.51"/><path class="cls-4" d="M50.63,145.23c-.16.23-.3.48-.44.73"/><line class="cls-4" x1="49.77" y1="146.7" x2="49.35" y2="147.44"/><line class="cls-4" x1="48.95" y1="148.19" x2="48.56" y2="148.94"/><line class="cls-4" x1="48.17" y1="149.7" x2="47.81" y2="150.47"/><path class="cls-4" d="M47.44,151.24c-.12.25-.23.52-.34.78"/><line class="cls-4" x1="46.76" y1="152.8" x2="46.43" y2="153.58"/><line class="cls-4" x1="46.12" y1="154.37" x2="45.81" y2="155.17"/><line class="cls-4" x1="45.52" y1="155.97" x2="45.24" y2="156.77"/><line class="cls-4" x1="88.34" y1="128.19" x2="89.08" y2="128.61"/><path class="cls-4" d="M89.83,129c.25.14.51.27.75.43"/><line class="cls-4" x1="91.29" y1="129.93" x2="92.01" y2="130.41"/><path class="cls-4" d="M92.72,130.88l.68.52"/><line class="cls-4" x1="94.08" y1="131.93" x2="94.76" y2="132.46"/><line class="cls-4" x1="95.41" y1="133.02" x2="96.05" y2="133.59"/><path class="cls-4" d="M96.69,134.16c.21.19.42.39.61.6"/><line class="cls-4" x1="97.9" y1="135.37" x2="98.5" y2="135.98"/><line class="cls-4" x1="99.09" y1="136.61" x2="99.65" y2="137.26"/><path class="cls-4" d="M100.21,137.91c.19.22.37.43.54.66"/><line class="cls-4" x1="101.28" y1="139.25" x2="101.8" y2="139.93"/><line class="cls-4" x1="102.31" y1="140.62" x2="102.8" y2="141.33"/><path class="cls-4" d="M103.29,142c.16.23.32.47.47.71"/><line class="cls-4" x1="104.21" y1="143.48" x2="104.67" y2="144.21"/><line class="cls-4" x1="105.1" y1="144.95" x2="105.52" y2="145.7"/><path class="cls-4" d="M106,146.44c.14.25.26.51.4.76"/><line class="cls-4" x1="106.74" y1="147.97" x2="107.13" y2="148.73"/><line class="cls-4" x1="107.5" y1="149.51" x2="107.86" y2="150.28"/><line class="cls-4" x1="108.22" y1="151.06" x2="108.56" y2="151.85"/><path class="cls-4" d="M108.9,152.64c.11.26.22.53.32.79"/><line class="cls-4" x1="109.54" y1="154.23" x2="109.85" y2="155.03"/><line class="cls-4" x1="110.15" y1="155.83" x2="110.45" y2="156.64"/><line class="cls-4" x1="110.73" y1="157.45" x2="111.01" y2="158.26"/><path class="cls-10" d="M77.51,121.94l.13,30.33a.14.14,0,0,1-.1.13h-.05a4.54,4.54,0,0,0-1.16.59c-.38.25-.76.52-1.13.79q-1.11.84-2.16,1.74a1.86,1.86,0,0,0-.71,1c0,.36.47.57.88.69a13.68,13.68,0,0,0,2.73.33c.92,0,1.85,0,2.78,0h1.39c.23,0,.47,0,.7,0a.89.89,0,0,1,.7.28.82.82,0,0,1,0,.75,4.08,4.08,0,0,1-.36.61,9.29,9.29,0,0,1-.89,1.08c-.64.68-1.32,1.32-2,1.93h0a0,0,0,0,1,0,0,26,26,0,0,0,2-2,10.9,10.9,0,0,0,.85-1.08c.23-.36.54-.84.37-1.18s-.81-.18-1.25-.2l-1.39,0c-.93,0-1.86,0-2.79,0a11.61,11.61,0,0,1-2.8-.31,2.64,2.64,0,0,1-.68-.28.84.84,0,0,1-.42-.7,2.07,2.07,0,0,1,.81-1.23c.71-.61,1.44-1.19,2.18-1.75.38-.28.76-.55,1.16-.8a4.1,4.1,0,0,1,1.33-.63l-.15.14.12-30.33a0,0,0,0,1,0,0S77.51,121.93,77.51,121.94Z"/><polyline class="cls-13" points="78.53 143.15 78.4 142.81 78.27 143.15 78.14 142.81 78 143.15"/><line class="cls-13" x1="78" y1="143.15" x2="78" y2="142.81"/><polyline class="cls-13" points="79.06 143.15 78.93 142.81 78.8 143.15 78.67 142.81 78.53 143.15"/><polyline class="cls-13" points="79.59 143.15 79.46 142.81 79.33 143.15 79.19 142.81 79.06 143.15"/><line class="cls-13" x1="79.59" y1="143.15" x2="79.59" y2="142.81"/><line class="cls-4" x1="78.36" y1="143.42" x2="78.36" y2="144.25"/><line class="cls-4" x1="79.15" y1="143.42" x2="79.15" y2="144.25"/><line class="cls-4" x1="78.36" y1="145.07" x2="78.36" y2="145.9"/><line class="cls-4" x1="79.15" y1="145.07" x2="79.16" y2="145.89"/><line class="cls-4" x1="78.37" y1="146.72" x2="78.37" y2="147.55"/><line class="cls-4" x1="79.16" y1="146.72" x2="79.16" y2="147.54"/><line class="cls-4" x1="78.37" y1="148.37" x2="78.38" y2="149.19"/><line class="cls-4" x1="79.17" y1="148.37" x2="79.17" y2="149.19"/><line class="cls-4" x1="78.38" y1="150.02" x2="78.38" y2="150.84"/><line class="cls-4" x1="79.17" y1="150.02" x2="79.18" y2="150.84"/><line class="cls-4" x1="78.39" y1="151.67" x2="78.39" y2="152.49"/><line class="cls-4" x1="79.18" y1="151.67" x2="79.18" y2="152.49"/><line class="cls-4" x1="78.39" y1="153.32" x2="78.4" y2="154.14"/><line class="cls-4" x1="79.18" y1="153.31" x2="79.19" y2="154.14"/><line class="cls-4" x1="78.4" y1="154.97" x2="78.4" y2="155.79"/><line class="cls-4" x1="79.19" y1="154.96" x2="79.19" y2="155.79"/><line class="cls-4" x1="78.41" y1="156.61" x2="78.41" y2="157.44"/><line class="cls-4" x1="79.2" y1="156.61" x2="79.2" y2="157.44"/><line class="cls-4" x1="78.41" y1="158.26" x2="78.41" y2="159.09"/><line class="cls-4" x1="79.2" y1="158.26" x2="79.21" y2="159.08"/><line class="cls-4" x1="78.42" y1="159.91" x2="78.42" y2="160.74"/><line class="cls-4" x1="79.21" y1="159.91" x2="79.21" y2="160.73"/><line class="cls-4" x1="78.42" y1="161.56" x2="78.43" y2="162.39"/><line class="cls-4" x1="79.22" y1="161.56" x2="79.22" y2="162.38"/><polyline class="cls-13" points="78.58 148.16 78.45 147.82 78.32 148.16 78.18 147.82 78.05 148.16"/><line class="cls-13" x1="78.05" y1="148.16" x2="78.05" y2="147.82"/><polyline class="cls-13" points="79.11 148.16 78.98 147.82 78.85 148.16 78.71 147.82 78.58 148.16"/><polyline class="cls-13" points="79.64 148.16 79.51 147.82 79.38 148.16 79.24 147.82 79.11 148.16"/><line class="cls-13" x1="79.64" y1="148.16" x2="79.64" y2="147.82"/><path class="cls-11" d="M103.47,124.59c-.9.29-.9.29-2.52.71-6.81,1.75-26.46,5.72-46-.58-.7-.22-.92-.31-2.11-.72a13,13,0,0,1,1.41-5.76,6.28,6.28,0,0,0,.7.22c19.54,6.3,39.19,2.33,46,.58,1.62-.42,1.25-.3,1.25-.3A10.23,10.23,0,0,1,103.47,124.59Z"/><line class="cls-4" x1="102.92" y1="123.94" x2="102.1" y2="124.15"/><line class="cls-4" x1="101.27" y1="124.36" x2="100.45" y2="124.57"/><line class="cls-4" x1="99.62" y1="124.77" x2="98.79" y2="124.97"/><line class="cls-4" x1="97.96" y1="125.15" x2="97.12" y2="125.33"/><line class="cls-4" x1="96.29" y1="125.5" x2="95.45" y2="125.66"/><line class="cls-4" x1="94.61" y1="125.82" x2="93.78" y2="125.96"/><line class="cls-4" x1="92.93" y1="126.1" x2="92.09" y2="126.24"/><line class="cls-4" x1="91.25" y1="126.36" x2="90.41" y2="126.48"/><line class="cls-4" x1="89.56" y1="126.59" x2="88.72" y2="126.69"/><line class="cls-4" x1="87.87" y1="126.78" x2="87.02" y2="126.87"/><line class="cls-4" x1="86.17" y1="126.95" x2="85.32" y2="127.02"/><line class="cls-4" x1="84.47" y1="127.08" x2="83.62" y2="127.14"/><line class="cls-4" x1="82.77" y1="127.19" x2="81.92" y2="127.23"/><line class="cls-4" x1="81.07" y1="127.26" x2="80.22" y2="127.29"/><line class="cls-4" x1="79.37" y1="127.3" x2="78.52" y2="127.31"/><line class="cls-4" x1="77.66" y1="127.31" x2="76.81" y2="127.31"/><line class="cls-4" x1="75.96" y1="127.29" x2="75.11" y2="127.27"/><line class="cls-4" x1="74.26" y1="127.23" x2="73.41" y2="127.19"/><line class="cls-4" x1="72.56" y1="127.14" x2="71.71" y2="127.08"/><line class="cls-4" x1="70.86" y1="127.01" x2="70.01" y2="126.93"/><line class="cls-4" x1="69.16" y1="126.85" x2="68.31" y2="126.75"/><line class="cls-4" x1="67.47" y1="126.65" x2="66.63" y2="126.53"/><line class="cls-4" x1="65.78" y1="126.41" x2="64.94" y2="126.27"/><line class="cls-4" x1="64.1" y1="126.13" x2="63.26" y2="125.98"/><line class="cls-4" x1="62.43" y1="125.81" x2="61.59" y2="125.64"/><line class="cls-4" x1="60.76" y1="125.45" x2="59.93" y2="125.26"/><line class="cls-4" x1="59.1" y1="125.05" x2="58.28" y2="124.84"/><line class="cls-4" x1="57.46" y1="124.61" x2="56.64" y2="124.38"/><line class="cls-4" x1="55.83" y1="124.13" x2="55.01" y2="123.87"/><line class="cls-4" x1="54.2" y1="123.6" x2="53.4" y2="123.33"/><path class="cls-4" d="M54.51,118.4c.26.11.53.17.8.26"/><line class="cls-4" x1="56.12" y1="118.89" x2="56.93" y2="119.12"/><line class="cls-4" x1="57.75" y1="119.33" x2="58.56" y2="119.54"/><line class="cls-4" x1="59.38" y1="119.73" x2="60.2" y2="119.92"/><line class="cls-4" x1="61.03" y1="120.1" x2="61.86" y2="120.26"/><line class="cls-4" x1="62.68" y1="120.42" x2="63.51" y2="120.57"/><line class="cls-4" x1="64.34" y1="120.71" x2="65.18" y2="120.84"/><line class="cls-4" x1="66.01" y1="120.96" x2="66.85" y2="121.07"/><line class="cls-4" x1="67.68" y1="121.18" x2="68.52" y2="121.27"/><line class="cls-4" x1="69.36" y1="121.36" x2="70.2" y2="121.44"/><line class="cls-4" x1="71.04" y1="121.51" x2="71.88" y2="121.57"/><line class="cls-4" x1="72.72" y1="121.62" x2="73.56" y2="121.67"/><line class="cls-4" x1="74.4" y1="121.7" x2="75.25" y2="121.73"/><line class="cls-4" x1="76.09" y1="121.76" x2="76.93" y2="121.77"/><line class="cls-4" x1="77.77" y1="121.78" x2="78.62" y2="121.77"/><line class="cls-4" x1="79.46" y1="121.76" x2="80.3" y2="121.75"/><line class="cls-4" x1="81.14" y1="121.72" x2="81.99" y2="121.7"/><line class="cls-4" x1="82.83" y1="121.65" x2="83.67" y2="121.61"/><line class="cls-4" x1="84.51" y1="121.56" x2="85.35" y2="121.5"/><line class="cls-4" x1="86.19" y1="121.43" x2="87.03" y2="121.36"/><line class="cls-4" x1="87.87" y1="121.28" x2="88.71" y2="121.19"/><line class="cls-4" x1="89.55" y1="121.1" x2="90.38" y2="121"/><line class="cls-4" x1="91.22" y1="120.89" x2="92.05" y2="120.77"/><line class="cls-4" x1="92.89" y1="120.65" x2="93.72" y2="120.52"/><line class="cls-4" x1="94.55" y1="120.39" x2="95.38" y2="120.24"/><line class="cls-4" x1="96.21" y1="120.09" x2="97.04" y2="119.94"/><line class="cls-4" x1="97.87" y1="119.77" x2="98.69" y2="119.6"/><line class="cls-4" x1="99.52" y1="119.42" x2="100.34" y2="119.24"/><line class="cls-4" x1="101.16" y1="119.04" x2="101.97" y2="118.8"/><path class="cls-1" d="M102.57,192.5a19.57,19.57,0,0,0,1.28,2.33c-.2-.35-.39-.67-.56-1C103,193.35,102.78,192.91,102.57,192.5Z"/></svg>