<svg id="圖層_1" data-name="圖層 1" xmlns="http://www.w3.org/2000/svg" viewBox="0 0 148.44 310.5"><defs><style>.cls-1{fill:#e4d3d4;}.cls-1,.cls-2,.cls-3,.cls-4,.cls-7,.cls-8{stroke:#231815;stroke-linecap:round;}.cls-1,.cls-2,.cls-3,.cls-7,.cls-8{stroke-linejoin:round;}.cls-1,.cls-2,.cls-3,.cls-8{stroke-width:0.3px;}.cls-2{fill:#252641;}.cls-3{fill:#cdc1d1;}.cls-4,.cls-5,.cls-7{fill:none;}.cls-4{stroke-miterlimit:10;stroke-width:0.3px;}.cls-6{fill:#231815;}.cls-7{stroke-width:0.15px;}.cls-8{fill:#f8f1e3;}.cls-9{fill:#595757;}</style></defs><path class="cls-1" d="M58.09,217c-15.67-47.16-6.24-90.19-5.2-94.61-.68-.17-1-.28-1-.28s-11.44,45.2,5.11,95c-1.21,9.35.19,15.38,1.13,18.16.58.4,1.13.83,1.66,1.26C59,234.87,56.61,228.39,58.09,217Z"/><path class="cls-1" d="M60,236.93s-.08-.15-.2-.43c-.53-.43-1.08-.86-1.66-1.26a14.48,14.48,0,0,0,.73,1.79s-6.23,27.24,5.09,63.42l1.08-.27C53.75,264.09,60,236.93,60,236.93Z"/><path class="cls-2" d="M94.67,236.78a.32.32,0,0,1,0-.07s3.58-6.62,1.86-20c16-48.12,5.84-91.95,5.15-94.83-19.39,7.36-43.52,1.81-48.78.44-1,4.42-10.47,47.45,5.2,94.61-1.48,11.41.94,17.89,1.66,19.52C67,242.56,69.51,251.78,76,253c-.27-4-.8-7.19-1.72-8.82,3.16-7.59-.28-58.32,3.14-86.24,0-.28-.07-.57-.1-.85,0,.28.06.57.1.85,0-.07,0-.15,0-.22s0,.15,0,.22c3.29,28-.07,78.08,3.06,85.61-1,1.72-1.5,5.13-1.76,9.46C85.13,251.87,87.63,242.85,94.67,236.78Z"/><path class="cls-2" d="M94.67,236.78c-7,6.07-9.54,15.09-16,16.22-.88,14.83,1.55,40.46,1.12,46.09,4.21-.51,5.64-.58,9.92.47C100.52,264.62,95,238.16,94.67,236.78Z"/><path class="cls-2" d="M59.75,236.5c.12.28.2.43.2.43s-6.2,27.16,5,63.25c4.27-1.05,5.71-1,9.91-.46C74.46,294,77,267.71,76,253,69.51,251.78,67,242.56,59.75,236.5Z"/><path class="cls-1" d="M96.52,216.76c1.72,13.33-1.86,20-1.86,20a.32.32,0,0,0,0,.07c.52-.45,1.07-.88,1.64-1.29.88-2.21,2.82-8.53,1.45-19,16.56-49.78,5.12-95,5.12-95l-1.21.46C102.36,124.81,112.52,168.64,96.52,216.76Z"/><path class="cls-1" d="M94.67,236.78c.3,1.38,5.85,27.84-4.93,62.78l1.07.27c11.33-36.19,5.09-63.43,5.09-63.43a9.19,9.19,0,0,0,.41-.91C95.74,235.9,95.19,236.33,94.67,236.78Z"/><path class="cls-3" d="M102.86,121.93s-8.41-8.39-25.92-8.39-24.62,8.06-25.34,7.81l2-6.75c.71.26,5.86-7.33,23.38-7.33s24,7.86,24,7.86Z"/><line class="cls-4" x1="53.72" y1="115.65" x2="54.39" y2="115.11"/><line class="cls-4" x1="55.06" y1="114.58" x2="55.73" y2="114.04"/><path class="cls-4" d="M56.42,113.53c.23-.17.47-.32.71-.48"/><path class="cls-4" d="M57.85,112.59c.24-.16.48-.3.74-.44"/><line class="cls-4" x1="59.34" y1="111.74" x2="60.11" y2="111.36"/><line class="cls-4" x1="60.89" y1="111.01" x2="61.68" y2="110.67"/><path class="cls-4" d="M62.48,110.37c.27-.1.53-.2.81-.28"/><path class="cls-4" d="M64.1,109.82c.27-.09.55-.16.83-.23"/><path class="cls-4" d="M65.75,109.37c.28-.08.56-.14.84-.2"/><path class="cls-4" d="M67.43,109c.28-.06.55-.12.84-.16"/><line class="cls-4" x1="69.11" y1="108.69" x2="69.96" y2="108.56"/><line class="cls-4" x1="70.81" y1="108.46" x2="71.66" y2="108.36"/><line class="cls-4" x1="72.52" y1="108.29" x2="73.37" y2="108.23"/><path class="cls-4" d="M74.23,108.17c.28,0,.57,0,.85,0"/><line class="cls-4" x1="75.94" y1="108.13" x2="76.8" y2="108.11"/><line class="cls-4" x1="77.65" y1="108.13" x2="78.51" y2="108.15"/><path class="cls-4" d="M79.37,108.18a8.06,8.06,0,0,1,.85,0"/><line class="cls-4" x1="81.08" y1="108.3" x2="81.93" y2="108.37"/><line class="cls-4" x1="82.78" y1="108.46" x2="83.63" y2="108.58"/><path class="cls-4" d="M84.48,108.7c.28,0,.56.08.84.14"/><line class="cls-4" x1="86.16" y1="109.01" x2="87" y2="109.18"/><line class="cls-4" x1="87.84" y1="109.38" x2="88.67" y2="109.6"/><line class="cls-4" x1="89.49" y1="109.82" x2="90.31" y2="110.09"/><path class="cls-4" d="M91.12,110.35c.28.09.54.2.81.3"/><path class="cls-4" d="M92.73,111c.27.09.52.22.79.33"/><path class="cls-4" d="M94.3,111.64c.26.11.51.25.77.38"/><path class="cls-4" d="M95.83,112.41l.75.42"/><line class="cls-4" x1="97.31" y1="113.27" x2="98.03" y2="113.73"/><path class="cls-4" d="M98.74,114.22c.23.16.46.33.68.51"/><path class="cls-4" d="M100.09,115.27c.22.18.43.38.64.57"/><path class="cls-4" d="M101.8,120l-.7-.48"/><line class="cls-4" x1="100.38" y1="119.01" x2="99.65" y2="118.56"/><path class="cls-4" d="M98.91,118.14l-.75-.41"/><line class="cls-4" x1="97.4" y1="117.34" x2="96.63" y2="116.97"/><line class="cls-4" x1="95.85" y1="116.61" x2="95.07" y2="116.27"/><line class="cls-4" x1="94.28" y1="115.95" x2="93.49" y2="115.63"/><line class="cls-4" x1="92.68" y1="115.34" x2="91.88" y2="115.06"/><line class="cls-4" x1="91.06" y1="114.8" x2="90.24" y2="114.56"/><line class="cls-4" x1="89.42" y1="114.33" x2="88.59" y2="114.11"/><line class="cls-4" x1="87.77" y1="113.91" x2="86.93" y2="113.73"/><path class="cls-4" d="M86.09,113.56c-.27-.06-.56-.1-.84-.15"/><path class="cls-4" d="M84.41,113.27c-.28,0-.56-.1-.84-.12"/><line class="cls-4" x1="82.72" y1="113.05" x2="81.87" y2="112.95"/><line class="cls-4" x1="81.02" y1="112.88" x2="80.17" y2="112.82"/><line class="cls-4" x1="79.31" y1="112.76" x2="78.46" y2="112.74"/><path class="cls-4" d="M77.61,112.72c-.29,0-.57,0-.86,0"/><line class="cls-4" x1="75.9" y1="112.73" x2="75.05" y2="112.75"/><line class="cls-4" x1="74.19" y1="112.78" x2="73.34" y2="112.84"/><path class="cls-4" d="M72.49,112.9c-.29,0-.57,0-.85.09"/><line class="cls-4" x1="70.79" y1="113.09" x2="69.94" y2="113.19"/><line class="cls-4" x1="69.1" y1="113.33" x2="68.26" y2="113.47"/><line class="cls-4" x1="67.42" y1="113.63" x2="66.58" y2="113.81"/><line class="cls-4" x1="65.75" y1="114" x2="64.93" y2="114.22"/><path class="cls-4" d="M64.1,114.44c-.28.07-.54.16-.82.25"/><path class="cls-4" d="M62.47,114.94c-.28.08-.54.19-.81.28"/><path class="cls-4" d="M60.86,115.51c-.27.09-.53.21-.8.32"/><line class="cls-4" x1="59.27" y1="116.15" x2="58.49" y2="116.5"/><line class="cls-4" x1="57.72" y1="116.86" x2="56.95" y2="117.24"/><line class="cls-4" x1="56.2" y1="117.63" x2="55.45" y2="118.04"/><path class="cls-4" d="M54.71,118.47c-.25.14-.49.3-.73.45"/><line class="cls-4" x1="53.26" y1="119.38" x2="52.55" y2="119.85"/><path class="cls-5" d="M43.8,163.3a17.77,17.77,0,0,0,1.29,2.22l-.56-.93C44.25,164.11,44,163.69,43.8,163.3Z"/><path class="cls-5" d="M77.47,164.28c.11-3.38.11-6.49.12-7.9C77.59,156.38,77.36,160.07,77.47,164.28Z"/><path class="cls-5" d="M77.35,167.19h.25c-.06-1-.11-2-.13-2.92C77.44,165.24,77.4,166.22,77.35,167.19Z"/><path class="cls-3" d="M113.87,155.82c-.74-2.81-2.18-6.69-3.49-11-2.12-7.05-4.75-14.69-6.3-19.07-.78-2.24-1.29-3.62-1.29-3.62s-8.41-8.4-25.93-8.4-24.61,8.07-25.33,7.81h-.05c-.27.5-5.11,13.89-8.25,24.8-1,3.44-2,6.55-2.67,8.94a12.67,12.67,0,0,0-.56,3.6,27.47,27.47,0,0,1,5,7.52c.21.41.45.85.73,1.35.17.31.36.64.56,1l.08.12c3.27,5.35,25.86,10.29,28.77,8a2.48,2.48,0,0,0,1-1.3l0,0c.08-.35.16-.75.23-1.18a60.93,60.93,0,0,0,.6-6.45c0-1,.09-1.95.12-2.91,0,1,.07,1.95.14,2.92a26.4,26.4,0,0,0,1.22,7c0,.09.06.19.1.27.11.26.22.52.34.75a2.15,2.15,0,0,0,.18.24c3.19,4.26,26.29-3.55,28.82-6.68a2.09,2.09,0,0,1,.14-.17l.11-.14c1.68-2.1,3-6.33,6.19-9.93A10.79,10.79,0,0,0,113.87,155.82Z"/><path class="cls-2" d="M48.14,166.89l-.08-.11c-.06-.1-.1-.19-.16-.28l-.41-.71-.73-1.35a27.83,27.83,0,0,1-2.36-10.78,294.79,294.79,0,0,1,13.14-35.8c-.27-.08-1,.76-1.28.68C47.12,139.37,43.31,154,43.31,154a27.67,27.67,0,0,0,2.37,10.79c.21.41.45.85.73,1.35l.17.3.39.69a1,1,0,0,1,.08.11c3.12,5.1,24.53,9.83,29,8.23a0,0,0,0,1,0,0c.08-.35.16-.75.23-1.18C71.92,175.83,53.22,171.61,48.14,166.89Z"/><path class="cls-2" d="M106.79,166.89l.07-.11.16-.28c.14-.24.29-.49.41-.71.28-.5.51-.94.73-1.35a27.66,27.66,0,0,0,2.37-10.78,281,281,0,0,0-12.89-35.12c.27-.08.91.54,1.28.68,9.14,20.83,12.69,34.78,12.69,34.78a27.67,27.67,0,0,1-2.37,10.79c-.21.41-.45.85-.72,1.35a2.91,2.91,0,0,0-.17.3l-.4.69-.07.11c-3.13,5.1-24.53,9.83-29,8.23v0c-.09-.35-.16-.75-.23-1.18C83,175.83,101.7,171.61,106.79,166.89Z"/><path class="cls-6" d="M77,113.54l-.4,41.05a.12.12,0,0,1-.09.12h0a4.48,4.48,0,0,0-1.18.59c-.39.25-.77.52-1.14.8-.75.55-1.48,1.14-2.19,1.74-.33.3-.7.66-.72,1s.49.58.91.69a13.17,13.17,0,0,0,2.75.32c.93,0,1.87,0,2.8,0h2.12a.94.94,0,0,1,.71.26.76.76,0,0,1,0,.76,3.73,3.73,0,0,1-.36.62,8.62,8.62,0,0,1-.91,1.09,25,25,0,0,1-2,1.93h0s0,0,0,0c.69-.63,1.36-1.29,2-2a11.35,11.35,0,0,0,.87-1.1,3.15,3.15,0,0,0,.33-.59.62.62,0,0,0,0-.59.82.82,0,0,0-.58-.18h-.7l-1.4,0c-.94,0-1.88.05-2.82,0a11.73,11.73,0,0,1-2.82-.32,2.57,2.57,0,0,1-.69-.28.83.83,0,0,1-.43-.69,2.11,2.11,0,0,1,.82-1.24c.73-.61,1.46-1.19,2.22-1.75.38-.28.76-.55,1.17-.8a4,4,0,0,1,1.33-.62l-.13.12.62-41a0,0,0,0,1,0,0A0,0,0,0,1,77,113.54Z"/><polyline class="cls-7" points="77.47 145.47 77.34 145.13 77.2 145.47 77.07 145.13 76.94 145.47"/><line class="cls-7" x1="76.94" y1="145.47" x2="76.94" y2="145.13"/><polyline class="cls-7" points="78.01 145.47 77.87 145.13 77.74 145.47 77.61 145.13 77.47 145.47"/><polyline class="cls-7" points="78.54 145.47 78.41 145.13 78.28 145.47 78.14 145.13 78.01 145.47"/><line class="cls-7" x1="78.54" y1="145.47" x2="78.54" y2="145.13"/><line class="cls-4" x1="77.3" y1="145.74" x2="77.3" y2="146.56"/><line class="cls-4" x1="78.09" y1="145.73" x2="78.09" y2="146.56"/><line class="cls-4" x1="77.3" y1="147.39" x2="77.31" y2="148.21"/><line class="cls-4" x1="78.09" y1="147.38" x2="78.1" y2="148.21"/><line class="cls-4" x1="77.31" y1="149.04" x2="77.31" y2="149.86"/><line class="cls-4" x1="78.1" y1="149.04" x2="78.1" y2="149.86"/><line class="cls-4" x1="77.31" y1="150.69" x2="77.32" y2="151.51"/><line class="cls-4" x1="78.11" y1="150.69" x2="78.11" y2="151.51"/><line class="cls-4" x1="77.32" y1="152.34" x2="77.32" y2="153.16"/><line class="cls-4" x1="78.11" y1="152.34" x2="78.12" y2="153.16"/><line class="cls-4" x1="77.33" y1="153.99" x2="77.33" y2="154.82"/><line class="cls-4" x1="78.12" y1="153.99" x2="78.12" y2="154.81"/><line class="cls-4" x1="77.33" y1="155.64" x2="77.34" y2="156.47"/><line class="cls-4" x1="78.13" y1="155.64" x2="78.13" y2="156.46"/><line class="cls-4" x1="77.34" y1="157.29" x2="77.34" y2="158.12"/><line class="cls-4" x1="78.13" y1="157.29" x2="78.13" y2="158.11"/><line class="cls-4" x1="77.35" y1="158.94" x2="77.35" y2="159.77"/><line class="cls-4" x1="78.14" y1="158.94" x2="78.14" y2="159.76"/><line class="cls-4" x1="77.35" y1="160.59" x2="77.36" y2="161.42"/><line class="cls-4" x1="78.14" y1="160.59" x2="78.15" y2="161.42"/><line class="cls-4" x1="77.36" y1="162.24" x2="77.36" y2="163.07"/><line class="cls-4" x1="78.15" y1="162.24" x2="78.15" y2="163.07"/><line class="cls-4" x1="77.37" y1="163.89" x2="77.37" y2="164.72"/><line class="cls-4" x1="78.16" y1="163.89" x2="78.16" y2="164.72"/><polyline class="cls-7" points="77.52 150.48 77.39 150.14 77.25 150.48 77.12 150.14 76.98 150.48"/><line class="cls-7" x1="76.98" y1="150.48" x2="76.98" y2="150.14"/><polyline class="cls-7" points="78.05 150.48 77.92 150.14 77.79 150.48 77.65 150.14 77.52 150.48"/><polyline class="cls-7" points="78.59 150.48 78.46 150.14 78.32 150.48 78.19 150.14 78.05 150.48"/><line class="cls-7" x1="78.59" y1="150.48" x2="78.59" y2="150.14"/><path class="cls-2" d="M48.45,85.76c0,4.72.14,8.89.42,11.8q.06.59.12,1.11a6.66,6.66,0,0,0,.14,1c0,.29.1-.25.16.8.05.61.11,1.08.17.64.07-.22.13.78.2.45.07.16.14.62.22.26s.48,2,.79.47c.3.83.64.08,1,.44.38,1,.8.75,1.25.41a5.67,5.67,0,0,0,1.47.39c.17.17.36,0,.54.12a1.1,1.1,0,0,0,.56.11c.2,0,.39-.17.59.19.2.12.41,0,.61,0,.21-.22.43,0,.64.11s.44-.06.66.1a1.57,1.57,0,0,0,.69.15c.23-.28.47-.17.71,0,.24,0,.48-.13.73.07.25,0,.5-.08.76.11.25-.42.51.22.78,0,.26.15.53,0,.8.13l1.21.1c.37,0,.75.06,1.14.09.38.37.78.23,1.18.09s.81.47,1.22.07c.42.21.84.6,1.27.07.42,0,.86,0,1.3,0a4,4,0,0,1,1.34,0c.75,0,1.53.05,2.31.06.4,0,.8,0,1.2,0a1.14,1.14,0,0,1,1.23,0c.41-.15.83-.33,1.25,0,.42.07.85-.14,1.28,0a4.13,4.13,0,0,1,.86,0,1.72,1.72,0,0,1,.84-.06,1.29,1.29,0,0,1,.82.08.66.66,0,0,1,.81,0c.26-.13.52-.3.78,0,.26-.24.52-.37.77,0a8.73,8.73,0,0,0,2.51-.08,3.31,3.31,0,0,1,2.31-.11c.74-.27,1.44-.59,2.12-.14a5,5,0,0,1,1.94-.16c.62-.29,1.21,0,1.77-.19s1.1-.13,1.61-.2c.68-.09,1.32-.19,1.91-.29.58.32,1.13-.27,1.64-.31.51-.87,1,.86,1.41-.32.43.39.82.25,1.18-.33s.69.48,1-.32c.3-.42.57-.31.81-.32.07-.06.14-.62.21-.18.06.09.12-1,.18-.38.06-.27.11-.32.16-.56.06.37.11-.45.15-.72s.09-.57.13-.89a128.17,128.17,0,0,0,.5-14C101,86.33,92.88,87,76.63,87,59.79,87,51.88,86.27,48.45,85.76Z"/><path class="cls-8" d="M89,6.85a2.3,2.3,0,0,0-1-1.63s-.12-1-11.68-1-12.38,1-12.38,1A8,8,0,0,0,63.24,7c1.11-.4,4.45-1.24,13.22-1.24C84.37,5.73,87.69,6.42,89,6.85Z"/><path class="cls-2" d="M88.34,9.58A4.4,4.4,0,0,0,89,6.85c-1.3-.43-4.62-1.12-12.53-1.12-8.77,0-12.11.84-13.22,1.24a5.72,5.72,0,0,0,0,3.21c-2.73,3-6.84,8.68-6.84,8.68S58.14,32,77,32,96.64,18.86,96.64,18.86C94.37,16.36,93.15,14.65,88.34,9.58Z"/><path class="cls-2" d="M67,26.82A23.73,23.73,0,0,1,56.2,19.16s-4.66.48-10.64,4.3a77.43,77.43,0,0,1,3.92,23.32s0,1-.13,2.67C53,39,61.6,31.05,67,26.82Z"/><path class="cls-2" d="M107.84,23.65c-6.42-2.65-11.38-4.49-11.38-4.49a20.38,20.38,0,0,1-9.65,7.52c5.23,4.1,13.15,11.52,17,21.14,0-.55,0-.86,0-.86A46.42,46.42,0,0,1,107.84,23.65Z"/><path class="cls-8" d="M68.29,27.24c-.42-.13-.84-.27-1.25-.42C61.6,31.05,53,39,49.35,49.45c0,.85-.08,1.89-.13,3.07C52.49,40.59,62.59,31.55,68.29,27.24Z"/><path class="cls-8" d="M103.88,50.58c0-1.2-.09-2.14-.12-2.76-3.8-9.62-11.72-17-17-21.14-.39.16-.79.3-1.21.44C91.09,31.32,100.26,39.64,103.88,50.58Z"/><path class="cls-9" d="M103.62,102.27a2.4,2.4,0,0,1-.31-.25.86.86,0,0,1-.13-.14,1.07,1.07,0,0,1-.14-.16l-.13-.18-.11-.2-.11-.2-.08-.21,0-.2a1.09,1.09,0,0,1,0-.18,1.61,1.61,0,0,1,0-.37h0a1.73,1.73,0,0,1,.14.35l.06.16a1.07,1.07,0,0,1,.07.19c0,.06,0,.13,0,.19l.08.21a1.08,1.08,0,0,0,.08.19l.1.19c0,.06.08.12.11.17s.06.11.1.15a2,2,0,0,0,.26.28Z"/><path class="cls-9" d="M102.18,101.05s0,0,.06,0a.07.07,0,0,1,0,.05l0,.1a1.59,1.59,0,0,0-.07.2,2,2,0,0,0-.08.41,2.57,2.57,0,0,0,0,.83l.05.25-.15-.21a1.72,1.72,0,0,1-.18-.32l-.15-.33c-.09-.22-.17-.44-.25-.67-.16-.44-.31-.89-.45-1.34a13.28,13.28,0,0,1-.35-1.38c-.05-.23-.1-.46-.13-.7a5.51,5.51,0,0,1-.06-.7h0c0,.23.1.46.16.68l.18.68.38,1.36c.13.46.26.91.41,1.36.07.22.14.45.23.67l.12.32a2.25,2.25,0,0,0,.16.31l-.1,0a2.75,2.75,0,0,1,0-.86,1.91,1.91,0,0,1,.11-.41,1.67,1.67,0,0,1,.08-.2l0-.1s0,0,0,0h0Z"/><path class="cls-9" d="M100.61,103.22s-.15-.33-.33-.84-.4-1.2-.58-1.89c-.09-.35-.17-.7-.23-1L99.41,99c0-.15,0-.3,0-.43s0-.26,0-.37a2.16,2.16,0,0,1,0-.28c0-.15,0-.24,0-.24h0l0,.25c0,.08,0,.17,0,.27s0,.23,0,.36,0,.28.06.43,0,.3.07.47c.06.33.11.68.18,1,.15.69.34,1.38.49,1.9s.27.85.27.85Z"/><path class="cls-9" d="M97.16,103.48s0-.37.06-.92c0-.28,0-.6,0-1s0-.71,0-1.08c0-.18,0-.37-.06-.55s0-.35-.07-.52S97,99.12,97,99s-.06-.3-.08-.44-.07-.25-.1-.36-.06-.2-.09-.28-.09-.24-.09-.24h0l.14.22.07.12.07.15a3.42,3.42,0,0,1,.14.36c0,.14.09.28.13.44s.07.33.09.5a5,5,0,0,1,.06.54c0,.19,0,.37,0,.56,0,.37,0,.74,0,1.09s0,.67-.07.95c-.05.55-.11.92-.11.92Z"/><path class="cls-9" d="M96.76,102.9a3,3,0,0,1-.18-.26,2.48,2.48,0,0,1-.17-.29s0-.11-.08-.17,0-.11-.08-.17a2.53,2.53,0,0,1-.12-.36,1.1,1.1,0,0,1,0-.18.86.86,0,0,1,0-.16,1.38,1.38,0,0,1,.07-.32h0a1.8,1.8,0,0,1,.08.3s0,.09,0,.15a.83.83,0,0,1,0,.15,1.13,1.13,0,0,0,0,.18l0,.18,0,.17.06.17a3.11,3.11,0,0,0,.12.3,2.74,2.74,0,0,0,.13.29Z"/><path class="cls-9" d="M94.61,99.33a9.19,9.19,0,0,1,.34,1c.08.35.16.72.21,1.08,0,.18,0,.37,0,.55s0,.37,0,.56,0,.18,0,.27,0,.19,0,.28a2.7,2.7,0,0,1,0,.28l0,.28L95,103.6a1.3,1.3,0,0,0,.33-.57,3.76,3.76,0,0,0,.17-.66A12.85,12.85,0,0,0,95.6,101c0-.46,0-.93,0-1.39l0-1.4h0c.06.46.1.93.12,1.4s0,.93,0,1.4a8.21,8.21,0,0,1-.15,1.4,4.15,4.15,0,0,1-.19.69,1.57,1.57,0,0,1-.4.63l-.18.16,0-.24.05-.26c0-.09,0-.18,0-.27l0-.27c0-.09,0-.18,0-.28s0-.36,0-.54,0-.37,0-.55c0-.36-.1-.72-.17-1.08a7.43,7.43,0,0,0-.3-1Z"/><path class="cls-9" d="M98.24,98.39a3.69,3.69,0,0,1,.19.56,5.66,5.66,0,0,1,.15.59,6.8,6.8,0,0,1,.15,1.19,5.37,5.37,0,0,1-.06,1.2,4.44,4.44,0,0,1-.16.6,1.51,1.51,0,0,1-.34.52L98,103a1.52,1.52,0,0,0,.3-.73V102a1.33,1.33,0,0,0,0-.19.66.66,0,0,0-.09-.19,1.77,1.77,0,0,0-.12-.17l.15.15.12.18a1.72,1.72,0,0,1,.07.21.76.76,0,0,1,0,.21,1.49,1.49,0,0,1-.27.82l-.13-.11a1.56,1.56,0,0,0,.27-.47,3.53,3.53,0,0,0,.14-.56,7.67,7.67,0,0,0,.08-1.17c0-.39,0-.78-.09-1.18A11.72,11.72,0,0,0,98.24,98.39Z"/><path class="cls-9" d="M94.39,103.81a2.44,2.44,0,0,1-.21-.31l-.09-.16a1.08,1.08,0,0,1-.08-.19c0-.06-.05-.13-.08-.2a1.72,1.72,0,0,1-.07-.21l-.06-.22a1.66,1.66,0,0,1,0-.22,1.41,1.41,0,0,1,0-.2,1,1,0,0,1,0-.18,2.47,2.47,0,0,1,.09-.37h0a2.44,2.44,0,0,1,.06.36s0,.11,0,.17l0,.19a1.48,1.48,0,0,0,0,.21l0,.21a1.55,1.55,0,0,0,0,.21,1.17,1.17,0,0,0,0,.2,1.06,1.06,0,0,0,.06.19l.06.17a2.37,2.37,0,0,0,.16.33Z"/><path class="cls-9" d="M93.35,102.34s.06,0,.06,0,0,0,0,.06l-.06.09-.09.19a2.7,2.7,0,0,0-.14.4,2.88,2.88,0,0,0-.06.83v.25L93,104a2.37,2.37,0,0,1-.13-.34l-.09-.35-.15-.69c-.09-.46-.17-.93-.25-1.39a13.52,13.52,0,0,1-.16-1.41c0-.23,0-.47,0-.71a4.24,4.24,0,0,1,0-.71h0c0,.23,0,.46.06.7l.08.69.18,1.4c0,.47.12.93.2,1.39l.12.7.08.34a2.42,2.42,0,0,0,.1.32l-.1,0a3,3,0,0,1,.11-.85,2.78,2.78,0,0,1,.16-.4,1.74,1.74,0,0,1,.11-.18l.05-.09s0,0,0,0h0Z"/><path class="cls-9" d="M91.6,104.3s-.1-.34-.22-.86-.26-1.23-.36-1.94c0-.35-.09-.71-.11-1,0-.17,0-.33,0-.49s0-.3,0-.43a3.33,3.33,0,0,1,0-.37,1.78,1.78,0,0,1,0-.28l.06-.24h0s0,.09,0,.25v.64c0,.13,0,.27,0,.42s0,.32,0,.48c0,.33,0,.69.06,1,.07.71.18,1.41.26,1.94s.17.87.17.87Z"/><path class="cls-9" d="M88.26,104.27s.06-.36.12-.92c0-.27.06-.59.09-.94s0-.71,0-1.08c0-.19,0-.37,0-.55a4.58,4.58,0,0,0,0-.53c0-.17,0-.34,0-.5s0-.3-.06-.44a3.37,3.37,0,0,0-.06-.36,1.54,1.54,0,0,0-.07-.29c0-.15-.07-.24-.07-.24h0l.12.23a.67.67,0,0,1,.06.12l.06.15a1.79,1.79,0,0,1,.11.37c0,.14.07.29.09.45a4,4,0,0,1,.06.51,4.77,4.77,0,0,1,0,.54c0,.18,0,.37,0,.56,0,.37-.06.74-.1,1.08s-.09.67-.13,1c-.1.54-.18.9-.18.9Z"/><path class="cls-9" d="M87.91,103.66a2.81,2.81,0,0,1-.16-.27c0-.08-.1-.19-.15-.29l-.06-.18a1.34,1.34,0,0,1-.07-.18,2.49,2.49,0,0,1-.09-.37,1,1,0,0,1,0-.17.81.81,0,0,1,0-.16,1.86,1.86,0,0,1,.09-.32h0a1.43,1.43,0,0,1,0,.31l0,.14,0,.17a1,1,0,0,0,0,.17l0,.18,0,.18c0,.06,0,.12,0,.17s.06.22.09.31a1.5,1.5,0,0,0,.11.29Z"/><path class="cls-9" d="M86,100a9.81,9.81,0,0,1,.26,1.07,7.92,7.92,0,0,1,.14,1.09,5.15,5.15,0,0,1,0,.55,5.24,5.24,0,0,1,0,.56,2.45,2.45,0,0,1,0,.27c0,.1,0,.19,0,.28s0,.18,0,.27l-.07.28-.12-.09a1.46,1.46,0,0,0,.36-.54,3.75,3.75,0,0,0,.2-.65,12.6,12.6,0,0,0,.22-1.37c0-.46.1-.92.14-1.38l.11-1.4h0c0,.47,0,.94,0,1.4s0,.94-.08,1.41a8.43,8.43,0,0,1-.24,1.39,4.43,4.43,0,0,1-.23.67,1.67,1.67,0,0,1-.43.6l-.19.15.06-.24.07-.26c0-.09,0-.18,0-.27a2,2,0,0,0,.05-.26,2.48,2.48,0,0,0,0-.27c0-.18,0-.37,0-.55s0-.36,0-.54a7.89,7.89,0,0,0-.1-1.09A6.7,6.7,0,0,0,86,100Z"/><path class="cls-9" d="M89.77,99.28c.06.19.1.39.14.58s.07.4.09.6a7.85,7.85,0,0,1,0,1.19,5.35,5.35,0,0,1-.18,1.19,2.78,2.78,0,0,1-.21.57,1.42,1.42,0,0,1-.38.5l-.12-.12a1.45,1.45,0,0,0,.35-.7,1.23,1.23,0,0,0,0-.2,1.25,1.25,0,0,0,0-.19.84.84,0,0,0-.08-.2.59.59,0,0,0-.1-.17.65.65,0,0,1,.13.16.5.5,0,0,1,.1.19.83.83,0,0,1,.06.21,1.55,1.55,0,0,1,0,.22,1.63,1.63,0,0,1-.33.79l-.12-.12a1.27,1.27,0,0,0,.3-.45,3.58,3.58,0,0,0,.19-.55,7.25,7.25,0,0,0,.18-1.15,11.35,11.35,0,0,0,0-1.17C89.84,100.07,89.82,99.67,89.77,99.28Z"/><path class="cls-9" d="M85.52,104.44a2.29,2.29,0,0,1-.19-.32c0-.05,0-.11-.08-.17l-.07-.18a1.72,1.72,0,0,0-.07-.21,1.42,1.42,0,0,1,0-.22l0-.22a1.49,1.49,0,0,1,0-.21v-.21a1.13,1.13,0,0,1,0-.18,2.3,2.3,0,0,1,.11-.36h0a2.1,2.1,0,0,1,0,.37,1.15,1.15,0,0,0,0,.18c0,.05,0,.12,0,.19a1.33,1.33,0,0,0,0,.2l0,.21a1.64,1.64,0,0,0,0,.22,1.42,1.42,0,0,1,0,.2c0,.07,0,.13,0,.19s0,.12.05.17a2.52,2.52,0,0,0,.14.33Z"/><path class="cls-9" d="M84.58,102.92s0,0,0,0a.11.11,0,0,1,0,.06l0,.09a.81.81,0,0,0-.1.18,2.14,2.14,0,0,0-.16.39,2.26,2.26,0,0,0-.11.82v.25l-.1-.23a1.57,1.57,0,0,1-.11-.35l-.07-.35-.11-.7c-.07-.47-.13-.93-.18-1.4a13.33,13.33,0,0,1-.08-1.41c0-.24,0-.48,0-.71a4.29,4.29,0,0,1,.08-.71h0c0,.23,0,.47,0,.7l0,.7.1,1.4q0,.7.12,1.41l.09.69.06.35a1.77,1.77,0,0,0,.08.33l-.1,0a3,3,0,0,1,.15-.84,3.52,3.52,0,0,1,.18-.39l.12-.18.06-.09,0,0h0Z"/><path class="cls-9" d="M82.74,104.78s-.08-.34-.18-.87-.2-1.24-.27-2c0-.36-.05-.72-.06-1.06,0-.17,0-.33,0-.48s0-.3,0-.44a3.29,3.29,0,0,1,.07-.36,1.37,1.37,0,0,1,.06-.27c0-.15.07-.24.07-.24h0s0,.09,0,.24a2.16,2.16,0,0,0,0,.28c0,.11,0,.23,0,.36s0,.28,0,.43v.48c0,.33,0,.68,0,1,0,.71.11,1.42.17,2s.12.88.12.88Z"/><path class="cls-9" d="M79.42,104.63s.08-.36.17-.91c0-.28.07-.6.12-.94s.07-.72.09-1.08c0-.19,0-.37,0-.55s0-.36,0-.53,0-.34,0-.5a3,3,0,0,0,0-.44,2,2,0,0,0,0-.37,1,1,0,0,0-.06-.28l0-.25h0l.12.23a.5.5,0,0,1,0,.13s0,.1.06.15.08.23.1.37.06.29.07.45a4.12,4.12,0,0,1,0,.51c0,.18,0,.36,0,.54s0,.37,0,.56c0,.37-.08.74-.13,1.09s-.12.66-.18.93c-.12.55-.22.91-.22.91Z"/><path class="cls-9" d="M79.1,104a2.77,2.77,0,0,1-.15-.28c0-.09-.09-.19-.13-.3l-.06-.17-.06-.19c0-.12-.07-.25-.08-.37v-.18a.77.77,0,0,1,0-.15,1.13,1.13,0,0,1,.11-.32h0a2,2,0,0,1,0,.31c0,.05,0,.1,0,.15a.78.78,0,0,1,0,.16c0,.06,0,.11,0,.17l0,.19,0,.18,0,.17c0,.11,0,.22.08.31a2.83,2.83,0,0,0,.1.3Z"/><path class="cls-9" d="M77.36,100.25a8.09,8.09,0,0,1,.22,1.09,10,10,0,0,1,.1,1.1,5,5,0,0,1,0,.55c0,.18,0,.37,0,.55s0,.18,0,.27a2.33,2.33,0,0,1,0,.28,2.61,2.61,0,0,1-.06.27l-.07.26-.13-.09a1.37,1.37,0,0,0,.39-.52,3.45,3.45,0,0,0,.22-.64,13.08,13.08,0,0,0,.27-1.36c.07-.46.14-.92.19-1.39l.18-1.38h0c0,.47,0,.93,0,1.4a13.49,13.49,0,0,1-.13,1.4,8.26,8.26,0,0,1-.29,1.38,4.22,4.22,0,0,1-.26.67,1.45,1.45,0,0,1-.45.57l-.2.14.07-.23.08-.26c0-.08,0-.17.07-.26a2,2,0,0,0,0-.26,2.56,2.56,0,0,0,.05-.27c0-.18,0-.36,0-.54s0-.36,0-.55a10.09,10.09,0,0,0-.06-1.09,6.6,6.6,0,0,0-.19-1.08Z"/><path class="cls-9" d="M81.15,99.68a7.19,7.19,0,0,1,.17,1.18,6.87,6.87,0,0,1,0,1.2,6.1,6.1,0,0,1-.23,1.19,2.49,2.49,0,0,1-.24.56,1.54,1.54,0,0,1-.39.49l-.12-.12a1.47,1.47,0,0,0,.38-.69,1.36,1.36,0,0,0,0-.2,1.34,1.34,0,0,0,0-.2,1.07,1.07,0,0,0-.07-.19.69.69,0,0,0-.1-.19,1,1,0,0,1,.13.17.72.72,0,0,1,.09.2.65.65,0,0,1,0,.21,1.47,1.47,0,0,1,0,.21,1.64,1.64,0,0,1-.36.79l-.12-.12a1.47,1.47,0,0,0,.32-.45,2.52,2.52,0,0,0,.21-.54A7.19,7.19,0,0,0,81.1,102a11.5,11.5,0,0,0,.08-1.17C81.19,100.47,81.17,100.08,81.15,99.68Z"/><path class="cls-9" d="M76.68,104.69s-.08-.13-.18-.33l-.06-.17a.62.62,0,0,1-.07-.19l-.06-.21a1.7,1.7,0,0,1,0-.22l0-.22a1.8,1.8,0,0,1,0-.22c0-.07,0-.14,0-.2a.8.8,0,0,1,0-.18,2.15,2.15,0,0,1,.13-.36h0a2.08,2.08,0,0,1,0,.37,1,1,0,0,0,0,.17v.19a1.47,1.47,0,0,0,0,.21v.21c0,.07,0,.14,0,.21l0,.21c0,.07,0,.13,0,.19s0,.12,0,.17a3.24,3.24,0,0,0,.12.35Z"/><path class="cls-9" d="M75.8,103.13s0,0,0,0a.08.08,0,0,1,0,0l-.06.09a1.74,1.74,0,0,0-.11.18,2.64,2.64,0,0,0-.18.38,2.52,2.52,0,0,0-.14.82v.25l-.1-.24a2.21,2.21,0,0,1-.08-.35l-.06-.35-.08-.7q-.08-.71-.12-1.41c0-.47,0-.94,0-1.42,0-.23,0-.47.05-.71a4,4,0,0,1,.12-.69h0c0,.24,0,.47,0,.7v.7l0,1.41c0,.47,0,.94.06,1.4l0,.71,0,.34a3.4,3.4,0,0,0,.07.34h-.1a3,3,0,0,1,.19-.83,2.28,2.28,0,0,1,.2-.38l.12-.18.07-.08s0,0,0,0h0Z"/><path class="cls-9" d="M73.86,104.92s-.06-.35-.14-.89-.14-1.24-.16-2c0-.36,0-.72,0-1.06,0-.16,0-.33,0-.48s0-.3.07-.43.06-.26.09-.36a1.58,1.58,0,0,1,.08-.28l.08-.23h0l0,.24c0,.08,0,.17,0,.28s0,.23,0,.36,0,.28,0,.43,0,.31,0,.47c0,.33,0,.69,0,1,0,.71,0,1.43.07,2s.08.88.08.88Z"/><path class="cls-9" d="M70.52,104.65s.1-.36.22-.91c.06-.27.12-.59.18-.94s.12-.71.16-1.07c0-.19,0-.37,0-.55s0-.36,0-.53,0-.34,0-.5,0-.3,0-.44,0-.26,0-.37,0-.21,0-.28l0-.25h0s0,.08.1.23a1.12,1.12,0,0,0,0,.13.83.83,0,0,0,0,.15,3.25,3.25,0,0,1,.07.38,3.14,3.14,0,0,1,0,.45,4.25,4.25,0,0,1,0,.51,4.93,4.93,0,0,1,0,.54c0,.18,0,.37-.08.56,0,.37-.13.73-.2,1.08s-.16.66-.24.93c-.15.54-.27.89-.27.89Z"/><path class="cls-9" d="M70.23,104s-.06-.11-.14-.29-.07-.19-.1-.31a.61.61,0,0,1,0-.18c0-.06,0-.12,0-.18a2.65,2.65,0,0,1,0-.38,1,1,0,0,1,0-.18.66.66,0,0,1,0-.15A1.35,1.35,0,0,1,70,102h0a1.7,1.7,0,0,1,0,.32s0,.09,0,.14a.91.91,0,0,1,0,.17,1,1,0,0,0,0,.17V103l0,.19a1.1,1.1,0,0,0,0,.18c0,.11,0,.22.06.31a3.1,3.1,0,0,0,.08.31Z"/><path class="cls-9" d="M68.76,100.1a10.15,10.15,0,0,1,.14,1.09c0,.37,0,.74,0,1.11,0,.18,0,.37,0,.55s-.05.37-.08.55l-.06.27a2.68,2.68,0,0,1-.07.27c0,.08,0,.18-.08.26l-.1.27-.12-.1a1.4,1.4,0,0,0,.43-.5,4.91,4.91,0,0,0,.28-.62c.15-.44.26-.89.37-1.34s.2-.9.28-1.36L70,99.19h0c0,.46-.08.93-.13,1.39s-.13.93-.23,1.38a9.22,9.22,0,0,1-.4,1.36A5.38,5.38,0,0,1,69,104a1.74,1.74,0,0,1-.5.55s-.21.33-.21.12a.28.28,0,0,1,.09-.22l.1-.26a2,2,0,0,0,.08-.26,2,2,0,0,0,.08-.26c0-.08,0-.17.07-.26s.07-.36.09-.54a5,5,0,0,0,.06-.54,9.92,9.92,0,0,0,0-1.09,8,8,0,0,0-.1-1.1Z"/><path class="cls-9" d="M72.54,99.76c0,.2.06.39.08.59s0,.4,0,.6a6.92,6.92,0,0,1-.08,1.2,6.06,6.06,0,0,1-.29,1.17,4.11,4.11,0,0,1-.27.56,1.47,1.47,0,0,1-.43.47l-.11-.12a1.62,1.62,0,0,0,.42-.68.71.71,0,0,0,0-.2,1.41,1.41,0,0,0,0-.2.67.67,0,0,0,0-.19,1.11,1.11,0,0,0-.09-.19,1.77,1.77,0,0,1,.12.17,1.19,1.19,0,0,1,.08.2.76.76,0,0,1,0,.21.81.81,0,0,1,0,.22,1.57,1.57,0,0,1-.41.77l-.11-.13a1.47,1.47,0,0,0,.35-.43,2.79,2.79,0,0,0,.24-.53,6.5,6.5,0,0,0,.3-1.13,11.7,11.7,0,0,0,.15-1.17A11.82,11.82,0,0,0,72.54,99.76Z"/><path class="cls-9" d="M67.73,104.49c0-.13-.07-.17-.15-.34s0-.11,0-.17a1.39,1.39,0,0,1-.06-.19,1.55,1.55,0,0,0,0-.21,1.79,1.79,0,0,1,0-.23l0-.22a1.61,1.61,0,0,1,0-.22,1.2,1.2,0,0,1,0-.2.53.53,0,0,1,0-.18,1.79,1.79,0,0,1,.15-.34h0a2.61,2.61,0,0,1,0,.37c0,.06,0,.11,0,.18a1.28,1.28,0,0,1,0,.19l0,.2v.21a.81.81,0,0,0,0,.22c0,.07,0,.14,0,.2l0,.2,0,.17c0,.21.1.8.1.35C67.76,104.55,67.73,104.3,67.73,104.49Z"/><path class="cls-9" d="M67,102.88s0,0,0,0l0,0-.07.09-.12.17a1.68,1.68,0,0,0-.21.37,1.9,1.9,0,0,0-.14.4,1.74,1.74,0,0,0-.08.41s0,.27,0,.25c0-.46-.07-.37-.07-.24a3.23,3.23,0,0,1-.06-.36l0-.35,0-.71c0-.47,0-.94,0-1.41a11.14,11.14,0,0,1,.1-1.41c0-.24.06-.47.11-.7a5,5,0,0,1,.17-.69h0a5.53,5.53,0,0,0-.07.7l0,.7-.08,1.4c0,.47-.06.94-.06,1.41v1c0,.11,0,0,0,.33,0-.11-.1-.11-.1,0a2.09,2.09,0,0,1,.09-.41,3,3,0,0,1,.17-.41,2.85,2.85,0,0,1,.23-.37l.14-.16L67,103s0,0,0,0h0Z"/><path class="cls-9" d="M64.87,104.56c0,.17,0-.22,0-.24s0-.38,0-.64c0-.54,0-1.25,0-2,0-.36.05-.72.09-1.06l.09-.47c0-.16.07-.3.1-.43s.08-.25.12-.35a2,2,0,0,1,.1-.27l.11-.23h0s0,.09-.06.24,0,.17-.06.27,0,.23-.06.36,0,.28-.07.42,0,.31-.07.48c0,.33-.1.68-.13,1-.07.71-.1,1.42-.11,2v.65a1.58,1.58,0,0,1,0,.24S64.87,104.51,64.87,104.56Z"/><path class="cls-9" d="M61.51,103.93s.14-.35.33-.88c.09-.27.18-.58.28-.91s.2-.69.28-1c0-.19.07-.37.1-.55a5.06,5.06,0,0,0,.08-.52,4.81,4.81,0,0,0,.07-.49,3.59,3.59,0,0,0,0-.44,2.55,2.55,0,0,0,0-.38,2.35,2.35,0,0,0,0-.28c0-.16,0-.26,0-.26h0l.08.24a.79.79,0,0,0,0,.13.88.88,0,0,0,0,.16,2.21,2.21,0,0,1,0,.39c0,.14,0,.29,0,.45s0,.33,0,.51-.06.35-.11.53-.08.36-.13.54c-.1.37-.21.72-.32,1.06s-.24.63-.34.89c-.21.52-.38.86-.38.86Z"/><path class="cls-9" d="M61.29,103.27l-.1-.3a2.38,2.38,0,0,1-.07-.31,1.13,1.13,0,0,1,0-.18l0-.19c0-.13,0-.26,0-.38l0-.18a.88.88,0,0,1,.05-.15,1.74,1.74,0,0,1,.16-.29h0a1.83,1.83,0,0,1,0,.31.75.75,0,0,0,0,.15s0,.11,0,.16,0,.12,0,.18l0,.18v.18a1.09,1.09,0,0,0,0,.18c0,.11,0,.22,0,.32a2.51,2.51,0,0,0,0,.3Z"/><path class="cls-9" d="M60.28,99.29a8.08,8.08,0,0,1,0,1.1,10.43,10.43,0,0,1-.11,1.11c0,.18-.07.36-.11.54s-.09.36-.15.53l-.09.26a1.19,1.19,0,0,1-.11.26,2,2,0,0,1-.11.26l-.13.25-.11-.12a1.4,1.4,0,0,0,.5-.44,3.53,3.53,0,0,0,.35-.59c.2-.43.36-.86.53-1.3s.3-.89.44-1.33l.42-1.35h0c-.08.46-.17.92-.28,1.37s-.24.91-.39,1.36a9.44,9.44,0,0,1-.55,1.32,5.83,5.83,0,0,1-.39.62,1.58,1.58,0,0,1-.57.48l-.23.1.11-.21.14-.24c0-.08.07-.17.11-.25a1.92,1.92,0,0,0,.12-.25l.09-.25c.06-.17.11-.35.16-.52s.09-.36.13-.53a10.19,10.19,0,0,0,.15-1.09,10,10,0,0,0,0-1.1Z"/><path class="cls-9" d="M64,99.29c0,.2,0,.4,0,.6a5.68,5.68,0,0,1,0,.59,6.71,6.71,0,0,1-.19,1.19,5.74,5.74,0,0,1-.41,1.14,2.85,2.85,0,0,1-.33.52,1.39,1.39,0,0,1-.48.42l-.1-.13A1.61,1.61,0,0,0,63,103a.59.59,0,0,0,.05-.19.68.68,0,0,0,0-.2l0-.2c0-.07,0-.13-.07-.2s.07.12.1.19a1.17,1.17,0,0,1,.06.2,1.62,1.62,0,0,1,0,.22.85.85,0,0,1,0,.22,1.58,1.58,0,0,1-.48.72l-.11-.14a1.56,1.56,0,0,0,.41-.4,2.72,2.72,0,0,0,.29-.5,6.79,6.79,0,0,0,.41-1.09,11.25,11.25,0,0,0,.26-1.15C64,100.08,64,99.69,64,99.29Z"/><path class="cls-9" d="M58.71,103.52a2.37,2.37,0,0,1-.11-.35c0-.06,0-.12,0-.18l0-.2a1.7,1.7,0,0,0,0-.22v-.44a.78.78,0,0,1,0-.22,1.17,1.17,0,0,1,0-.2c0-.06.05-.12.07-.17a2.21,2.21,0,0,1,.21-.32h0a2.42,2.42,0,0,1-.06.36l0,.18,0,.19-.06.19,0,.21a.78.78,0,0,0,0,.22c0,.07,0,.14,0,.2a1.33,1.33,0,0,0,0,.2.91.91,0,0,0,0,.17,1.92,1.92,0,0,0,0,.37Z"/><path class="cls-9" d="M58.15,101.83s.06,0,.05,0l0,0-.08.07-.16.16a3,3,0,0,0-.26.34,2.76,2.76,0,0,0-.33.77l-.07.25,0-.25a2.22,2.22,0,0,1,0-.36l0-.36c0-.23,0-.47.08-.7.06-.47.13-.93.21-1.4a11.46,11.46,0,0,1,.32-1.38c.06-.23.12-.46.2-.68a4.84,4.84,0,0,1,.28-.66h0c-.07.22-.12.45-.17.68L58,99.1l-.29,1.37c-.1.47-.19.92-.27,1.39,0,.23-.07.46-.1.69l0,.35a1.93,1.93,0,0,0,0,.34h-.11a2.72,2.72,0,0,1,.39-.78,2.3,2.3,0,0,1,.28-.34l.16-.15.09-.07,0,0h0Z"/><path class="cls-9" d="M55.77,103.2s0-.36.08-.9a18.62,18.62,0,0,1,.34-1.94c.07-.35.16-.7.26-1,.06-.16.11-.31.16-.46s.12-.27.18-.4.12-.23.17-.33a1.27,1.27,0,0,1,.14-.24l.14-.21h0s0,.09-.09.23-.06.16-.1.26-.08.22-.12.35-.09.26-.13.4l-.15.46c-.1.32-.21.66-.3,1-.19.69-.33,1.39-.43,1.92s-.13.88-.13.88Z"/><path class="cls-9" d="M52.38,102s.23-.31.53-.78c.15-.24.32-.52.49-.83s.35-.63.51-1c.08-.17.15-.34.22-.51s.13-.34.19-.5.12-.32.18-.46.09-.3.14-.43.07-.25.1-.36a2,2,0,0,0,.06-.28c0-.16,0-.25,0-.25h0V97a1,1,0,0,1,0,.16,2.84,2.84,0,0,1-.05.38c0,.14-.06.3-.11.45a3.49,3.49,0,0,1-.16.49c-.06.16-.13.33-.21.5s-.16.34-.25.5c-.17.34-.35.66-.54,1s-.37.57-.54.8c-.33.46-.58.75-.58.75Z"/><path class="cls-9" d="M52.3,101.25a1.8,1.8,0,0,1,0-.31c0-.1,0-.21,0-.33a1.1,1.1,0,0,1,0-.18,1.23,1.23,0,0,1,0-.19,3.41,3.41,0,0,1,.08-.37l.08-.16s0-.1.08-.14a1.89,1.89,0,0,1,.24-.25l0,0a1.46,1.46,0,0,1-.09.3s0,.09,0,.14,0,.1-.05.16a.77.77,0,0,0-.07.16l-.06.17-.05.18c0,.06,0,.12,0,.17s0,.22,0,.32a2.09,2.09,0,0,0,0,.31Z"/><path class="cls-9" d="M52.48,97.17c-.11.34-.24.69-.38,1s-.3.68-.48,1a4.76,4.76,0,0,1-.28.49c-.1.16-.21.31-.32.46l-.19.23-.19.21a2,2,0,0,1-.21.2l-.22.2-.05-.08-.08-.09a.74.74,0,0,0,.41-.07,1.91,1.91,0,0,0,.32-.16,2.81,2.81,0,0,0,.56-.46,9.29,9.29,0,0,0,.91-1.08c.28-.39.54-.77.79-1.17l.76-1.21h0c-.19.43-.41.85-.63,1.27s-.47.82-.74,1.22a7,7,0,0,1-.92,1.11,3.08,3.08,0,0,1-.6.46,1.65,1.65,0,0,1-.8.26,3.21,3.21,0,0,1-.39,0l.26-.13.26-.15a.79.79,0,0,0,.22-.19,5.67,5.67,0,0,0,.39-.41c.12-.14.23-.29.34-.44s.21-.31.3-.47a10.15,10.15,0,0,0,.51-1,9.79,9.79,0,0,0,.42-1Z"/><path class="cls-9" d="M55.85,97.87a5.81,5.81,0,0,1-.09.58c0,.2-.09.39-.14.59a7.68,7.68,0,0,1-.42,1.13,5.15,5.15,0,0,1-.62,1.06,4.69,4.69,0,0,1-.43.47,1.93,1.93,0,0,1-.58.34l-.07-.16a1.63,1.63,0,0,0,.63-.53.76.76,0,0,0,.09-.18.49.49,0,0,0,.05-.2.66.66,0,0,0,0-.2,1.38,1.38,0,0,0,0-.2,1.17,1.17,0,0,1,.06.2.71.71,0,0,1,0,.21,1.52,1.52,0,0,1,0,.21,1.8,1.8,0,0,1-.08.21,1.76,1.76,0,0,1-.64.63l-.08-.15a1.76,1.76,0,0,0,.49-.33,2.79,2.79,0,0,0,.4-.44,6.55,6.55,0,0,0,.61-1A9.72,9.72,0,0,0,55.49,99C55.62,98.63,55.75,98.25,55.85,97.87Z"/><path class="cls-2" d="M104.78,80.73c0-.15,0-.3,0-.45-.14-11.22-.63-23.7-.89-29.7C100.26,39.64,91.09,31.32,85.6,27.12a27.16,27.16,0,0,1-8.77,1.38,28.71,28.71,0,0,1-8.54-1.26c-5.7,4.31-15.8,13.35-19.07,25.28-.27,6.63-.68,17.92-.76,28v0c3.27.51,11.14,1.3,28.46,1.3C92.72,81.89,100.87,81.23,104.78,80.73Z"/><path class="cls-8" d="M104.81,84.85c0-1.23,0-2.48,0-3.76v-.36c-3.91.5-12.06,1.16-27.86,1.16-17.32,0-25.19-.79-28.46-1.3,0,.19,0,.37,0,.56,0,1.27,0,2.53,0,3.75,0,.13,0,.26,0,.39v.47C51.88,86.27,59.79,87,76.63,87c16.25,0,24.4-.69,28.18-1.2v-1Z"/><path class="cls-8" d="M39.89,119a3.82,3.82,0,0,0-3.13,4.39,6.41,6.41,0,0,0-1.41,2.37,6.84,6.84,0,0,0-4.74,2c-2.14,2.15-3.93-16.75-2.51-16.59,1.81-.75,4.18-.5,9.51-1.46C39.1,110.74,39.89,119,39.89,119Z"/><path class="cls-4" d="M35.87,123a4.38,4.38,0,0,1,0-.81"/><path class="cls-4" d="M36,121.4a3.85,3.85,0,0,1,.29-.76"/><path class="cls-4" d="M36.72,120a6.27,6.27,0,0,1,.53-.61"/><path class="cls-4" d="M37.87,118.82a5,5,0,0,1,.69-.43"/><path class="cls-4" d="M34.81,124.2a7.12,7.12,0,0,1,.72-.92"/><path class="cls-4" d="M30.12,126.78a8.32,8.32,0,0,1,.74-.59"/><path class="cls-4" d="M31.66,125.71a7.34,7.34,0,0,1,.86-.39"/><path class="cls-4" d="M33.41,125c.3-.08.61-.16.91-.22"/><path class="cls-8" d="M39.61,109.52l-.3,2a20.84,20.84,0,0,1-13.15,1.33,14.16,14.16,0,0,1-.26-2C31.34,112.1,37.43,110.28,39.61,109.52Z"/><path class="cls-2" d="M46.19,23.05c4.06,10.07,4.2,24.12,4.2,24.12L39.61,109.52c-2.18.76-8.27,2.58-13.71,1.29C24.72,96.53,27.11,30.32,46.19,23.05Z"/><path class="cls-8" d="M113.58,119.52a3.83,3.83,0,0,1,3.14,4.4,6.42,6.42,0,0,1,1.41,2.36,6.88,6.88,0,0,1,4.74,2.05c2.14,2.15,3.93-16.76,2.5-16.59-1.8-.75-4.18-.5-9.51-1.46C114.38,111.3,113.58,119.52,113.58,119.52Z"/><path class="cls-4" d="M117.61,123.56a3.66,3.66,0,0,0,0-.81"/><path class="cls-4" d="M117.47,122a4,4,0,0,0-.29-.75"/><path class="cls-4" d="M116.75,120.51a5.15,5.15,0,0,0-.53-.61"/><path class="cls-4" d="M115.6,119.37a5.28,5.28,0,0,0-.69-.42"/><path class="cls-4" d="M118.67,124.76a7.31,7.31,0,0,0-.72-.92"/><path class="cls-4" d="M123.35,127.33a5.81,5.81,0,0,0-.73-.58"/><path class="cls-4" d="M121.81,126.26a8.19,8.19,0,0,0-.85-.39"/><path class="cls-4" d="M120.07,125.57c-.31-.09-.61-.16-.92-.23"/><path class="cls-8" d="M113.86,110.07l.3,2a20.92,20.92,0,0,0,13.16,1.34,15.85,15.85,0,0,0,.26-2C122.14,112.65,116.05,110.84,113.86,110.07Z"/><path class="cls-2" d="M107.29,23.61c-4.07,10.06-4.2,24.12-4.2,24.12l10.77,62.34c2.19.77,8.28,2.58,13.72,1.3C128.75,97.09,126.37,30.88,107.29,23.61Z"/></svg>