<svg id="圖層_1" data-name="圖層 1" xmlns="http://www.w3.org/2000/svg" viewBox="0 0 148.44 301.65"><defs><style>.cls-1,.cls-5{fill:#fff;}.cls-1,.cls-10,.cls-11,.cls-2,.cls-3,.cls-6,.cls-8,.cls-9{stroke:#231815;}.cls-1,.cls-10,.cls-11,.cls-2,.cls-3,.cls-6,.cls-8{stroke-linecap:round;}.cls-1,.cls-10,.cls-2,.cls-3,.cls-6,.cls-8{stroke-linejoin:round;}.cls-1,.cls-2,.cls-3,.cls-6,.cls-8,.cls-9{stroke-width:0.3px;}.cls-2{fill:#e4d3d4;}.cls-3,.cls-9{fill:#cdc1d1;}.cls-10,.cls-11,.cls-4,.cls-6{fill:none;}.cls-7{fill:#595757;}.cls-8{fill:#252641;}.cls-11,.cls-9{stroke-miterlimit:10;}.cls-10{stroke-width:0.15px;}.cls-11{stroke-width:0.3px;}.cls-12{fill:#231815;}</style></defs><path class="cls-1" d="M38.66,22.05l-.55.26c-7,3.4-10.92,17.91-10.74,23.82,8.55,6.64,15.24,7.74,15.24,7.74S45.45,33.88,38.66,22.05Z"/><path class="cls-1" d="M103.14,22.2l.56.26c7,3.39,10.92,17.9,10.74,23.82C105.89,52.91,99.19,54,99.19,54S96.36,34,103.14,22.2Z"/><path class="cls-1" d="M79.24,21.37a28.67,28.67,0,0,1-8.13,1.11,29.7,29.7,0,0,1-8.54-1.2c-14,10.13-18.42,25.53-19.9,32.65.55,2.93,5.2,27.73,5.09,31-.12,3.51-3.79,14-3.87,16.64A118.76,118.76,0,0,0,72,104.84c16.17,0,25.87-2.89,25.87-2.89C97.8,99.29,93.36,88.18,94,84.86c.54-2.92,4.27-25.29,5.16-30.62C97.81,47.28,93.28,31.7,79.24,21.37Z"/><path class="cls-1" d="M52.18,18.36A49.9,49.9,0,0,0,38.68,22c5,8.74,4.76,21.83,4.29,28.06C45.09,43,49.93,29.63,61.73,21A65.87,65.87,0,0,0,52.18,18.36Z"/><path class="cls-2" d="M43,50.09c-.17,2.2-.36,3.55-.36,3.55l.06.29c1.48-7.12,5.87-22.52,19.9-32.65-.29-.08-.56-.18-.84-.27C49.93,29.63,45.09,43,43,50.09Z"/><path class="cls-2" d="M80.09,21.1c-.28.09-.56.19-.85.27,14,10.33,18.57,25.91,19.91,32.87.12-.73.19-1.14.19-1.14s-.07-.58-.15-1.58C97.4,44.44,92.5,30.34,80.09,21.1Z"/><path class="cls-1" d="M102.86,22.12a59.9,59.9,0,0,0-13.25-3.71,77.26,77.26,0,0,0-9.52,2.69C92.5,30.34,97.4,44.44,99.19,51.52,98.81,46.69,98.09,31.87,102.86,22.12Z"/><path class="cls-1" d="M71.28,22.48c14,0,18.33-4.07,18.33-4.07a2.09,2.09,0,0,0-2-.29A55,55,0,0,1,71.13,20.6a59.18,59.18,0,0,1-16.89-2.48,3.23,3.23,0,0,0-2.06.24S57.27,22.48,71.28,22.48Z"/><path class="cls-3" d="M57.37,283.4,60.05,295s6.58-1.5,9-.69c0-1.14-.23-9.89-.23-9.89Z"/><path class="cls-3" d="M88.83,283.4,86.15,295s-6.59-1.5-9-.69c0-1.14.23-9.89.23-9.89Z"/><path class="cls-4" d="M72.73,188.83l.68-.12c-.31-17.69-.3-29.29-.33-34.65C73.06,159.47,73.05,171,72.73,188.83Z"/><path class="cls-4" d="M72.76,187.29l.63.1c-.28-16.94-.28-28.1-.31-33.33C73.06,159.31,73.05,170.38,72.76,187.29Z"/><path class="cls-5" d="M82.66,110.88s10.88,1.3,13.7,5.47c1.43,2.11-11.74.11-11.74.11Z"/><path class="cls-5" d="M50.28,114.8c9.6-7.37,31.6-4.35,31.6-4.35-.7-.35,11.3,3.26,1.56,6.56-13.65-4.86-32.06,1.26-32.06,1.26S49.67,116.48,50.28,114.8Z"/><path class="cls-1" d="M50.28,114.8c-1.36.73-1.08,2.59-1.08,2.59a3.52,3.52,0,0,0-1.25,3,3.72,3.72,0,0,0-.84,2s9.87-7,25.47-6.8a55.29,55.29,0,0,1,26.8,7.34s.25-.8-.91-2.06A3.2,3.2,0,0,0,97.21,118a3.26,3.26,0,0,0-1.12-2.53"/><path class="cls-6" d="M72.58,109.65c-15.6-.16-22.3,5.07-22.3,5.07"/><path class="cls-6" d="M96.09,115.41s-7.91-5.6-23.51-5.76"/><path class="cls-6" d="M72.58,111.61c-15.6-.17-23.38,5.7-23.38,5.7"/><path class="cls-6" d="M97.21,117.94s-9-6.17-24.63-6.33"/><path class="cls-6" d="M72.59,114.08C57,113.91,48,120.31,48,120.31"/><path class="cls-6" d="M98.47,120.8s-10.28-6.56-25.88-6.72"/><path class="cls-7" d="M64.71,113.77a4,4,0,0,1-.29-.8,2.59,2.59,0,0,1-.07-.85l0,0a1.15,1.15,0,0,1-.47-.39,1.9,1.9,0,0,1-.24-.47,2.47,2.47,0,0,1-.09-1,4.09,4.09,0,0,0,.26,1,1.49,1.49,0,0,0,.66.79.05.05,0,0,1,0,0h0a3,3,0,0,0,0,.42c0,.14,0,.28,0,.42S64.65,113.5,64.71,113.77Z"/><path class="cls-7" d="M61.85,113.77a1.83,1.83,0,0,1-.44-.53.67.67,0,0,1-.13-.3.51.51,0,0,1,.07-.35l.11.09a.55.55,0,0,1-.32,0,.49.49,0,0,1-.17-.14,1.08,1.08,0,0,1-.18-.33,2.07,2.07,0,0,1-.11-.69c.08.22.16.44.26.65a1.81,1.81,0,0,0,.19.29.3.3,0,0,0,.29.12.12.12,0,0,1,.12,0,.09.09,0,0,1,0,0h0a.64.64,0,0,0,0,.57A3.91,3.91,0,0,0,61.85,113.77Z"/><path class="cls-7" d="M72.39,113.47a5.61,5.61,0,0,1-.67-.89,2.16,2.16,0,0,1-.24-.48,1.1,1.1,0,0,1-.06-.26.31.31,0,0,1,.14-.28l.07.12a.34.34,0,0,1-.21-.09.26.26,0,0,1-.1-.11.71.71,0,0,1-.13-.22,4,4,0,0,1-.16-.45,4.73,4.73,0,0,1-.16-.9c.11.29.21.59.32.88a3.3,3.3,0,0,0,.19.43,1.28,1.28,0,0,0,.11.2.42.42,0,0,0,.15.12.09.09,0,0,1,.11,0s0,.05,0,.07l0,0a.21.21,0,0,0-.08.18.93.93,0,0,0,0,.23,3.9,3.9,0,0,0,.2.47C72,112.85,72.2,113.16,72.39,113.47Z"/><path class="cls-7" d="M52.15,117.44a4.26,4.26,0,0,1-.66-.53,1.64,1.64,0,0,1-.26-.33.53.53,0,0,1,0-.47l.12.07a.31.31,0,0,1-.22,0l-.15,0a1.67,1.67,0,0,1-.23-.12,4.17,4.17,0,0,1-.4-.3,5.21,5.21,0,0,1-.66-.67c.27.18.52.38.79.57s.26.19.4.27l.22.11a.38.38,0,0,0,.19,0,.12.12,0,0,1,.11,0,0,0,0,0,1,0,.07v0a.37.37,0,0,0,0,.35,1.42,1.42,0,0,0,.21.33A6.31,6.31,0,0,0,52.15,117.44Z"/><path class="cls-7" d="M70.75,113.83a6.34,6.34,0,0,1-.34-1.1,2.68,2.68,0,0,1-.07-.56,1.41,1.41,0,0,1,0-.29.51.51,0,0,1,.14-.3l.11.11a.36.36,0,0,1-.19,0l-.09-.07a.65.65,0,0,1-.1-.15,1.83,1.83,0,0,1-.14-.28,4.3,4.3,0,0,1-.18-.58,7.63,7.63,0,0,1-.21-1.16c.12.38.24.77.35,1.14l.21.56a1.71,1.71,0,0,0,.14.27.62.62,0,0,0,.09.12s.08,0,.06,0l.11.1a.44.44,0,0,0-.1.23,2.45,2.45,0,0,0,0,.27,5.29,5.29,0,0,0,0,.56C70.61,113.09,70.68,113.45,70.75,113.83Z"/><path class="cls-7" d="M69.36,113.32a6,6,0,0,1,0-.85c0-.14,0-.28,0-.42a1.42,1.42,0,0,0,0-.22.42.42,0,0,0,0-.1.38.38,0,0,1,.08-.13l.1.11a.41.41,0,0,1-.3-.07.45.45,0,0,1-.12-.16.89.89,0,0,1-.08-.32,1.91,1.91,0,0,1,0-.63c0,.21.06.41.11.62a1.45,1.45,0,0,0,.11.29.31.31,0,0,0,.09.11.15.15,0,0,0,.11,0h0a.09.09,0,0,1,.11,0,.08.08,0,0,1,0,.05.29.29,0,0,0,0,.08.3.3,0,0,0,0,.1,1.17,1.17,0,0,0,0,.2l-.09.42C69.47,112.76,69.42,113,69.36,113.32Z"/><path class="cls-7" d="M67.54,112.59a.87.87,0,0,1-.34-.4.35.35,0,0,1,0-.25.53.53,0,0,1,.23-.24l.08.12a.44.44,0,0,1-.23,0,.42.42,0,0,1-.12-.1.5.5,0,0,1-.1-.21.89.89,0,0,1,0-.43,3.52,3.52,0,0,0,.17.39.52.52,0,0,0,.1.18.17.17,0,0,0,.13.06h0a.12.12,0,0,1,.12,0,.07.07,0,0,1,0,.08.31.31,0,0,0-.2.36A1.18,1.18,0,0,0,67.54,112.59Z"/><path class="cls-7" d="M69,113.81a4.46,4.46,0,0,1-.84-1,1.51,1.51,0,0,1-.23-.56.66.66,0,0,1,.15-.6l.11.11a.44.44,0,0,1-.25,0,1.13,1.13,0,0,1-.11-.11,1.19,1.19,0,0,1-.12-.22,1.83,1.83,0,0,1-.12-.46,3.92,3.92,0,0,1-.08-.9c.07.29.14.59.22.88a3.29,3.29,0,0,0,.16.44,1.18,1.18,0,0,0,.11.19l.08.08s.05,0,.06,0a.11.11,0,0,1,.12,0,0,0,0,0,1,0,.05.6.6,0,0,0-.13.51,1.78,1.78,0,0,0,.19.53A6.46,6.46,0,0,0,69,113.81Z"/><path class="cls-7" d="M55.25,116.73a7.16,7.16,0,0,1-.75-.9,3.5,3.5,0,0,1-.29-.49,1,1,0,0,1-.11-.27.47.47,0,0,1,0-.33l.14.06a.26.26,0,0,1-.18,0l-.11,0-.16-.09a1.7,1.7,0,0,1-.24-.22,4.49,4.49,0,0,1-.41-.46,7.83,7.83,0,0,1-.67-1c.26.31.53.61.8.92.14.15.28.3.43.44l.23.2.14.07s.09,0,.07,0l.14.06a.36.36,0,0,0,0,.25,1.34,1.34,0,0,0,.09.26,4.59,4.59,0,0,0,.26.49C54.83,116.09,55,116.4,55.25,116.73Z"/><path class="cls-7" d="M53.8,116.75a6,6,0,0,1-.35-.78,3.17,3.17,0,0,1-.12-.41,1.42,1.42,0,0,1,0-.22s0-.07,0-.11a.25.25,0,0,1,0-.14l.13.06a.36.36,0,0,1-.3,0,.6.6,0,0,1-.18-.09.9.9,0,0,1-.21-.27,1.91,1.91,0,0,1-.23-.6c.12.18.23.37.36.53a1.67,1.67,0,0,0,.23.23l.13.07a.16.16,0,0,0,.12,0h0a.1.1,0,0,1,.13,0,.06.06,0,0,1,0,.06s0,0,0,.08a.34.34,0,0,1,0,.1,1.55,1.55,0,0,0,0,.21l.09.41Z"/><path class="cls-7" d="M53.69,117.32a5,5,0,0,1-1.16-.56,1.83,1.83,0,0,1-.46-.41.67.67,0,0,1-.14-.6l.15,0a.38.38,0,0,1-.24,0,.6.6,0,0,1-.16,0,1,1,0,0,1-.2-.15,2.24,2.24,0,0,1-.33-.36,4,4,0,0,1-.48-.79c.2.24.4.49.61.71a3.51,3.51,0,0,0,.34.33l.19.13a.45.45,0,0,0,.11,0,.06.06,0,0,0,.06,0,.1.1,0,0,1,.13,0s0,0,0,0a.64.64,0,0,0,.11.52,2,2,0,0,0,.41.4A7.45,7.45,0,0,0,53.69,117.32Z"/><path class="cls-7" d="M62.9,114.57a8.28,8.28,0,0,1-.52-1,5.6,5.6,0,0,1-.17-.54,1.45,1.45,0,0,1,0-.29.46.46,0,0,1,.09-.32l.12.09a.25.25,0,0,1-.19,0,.19.19,0,0,1-.1,0,.51.51,0,0,1-.13-.12l-.19-.26a4,4,0,0,1-.28-.54,7.44,7.44,0,0,1-.42-1.11c.19.36.38.71.56,1.07.1.17.2.35.31.52a1.88,1.88,0,0,0,.18.24.52.52,0,0,0,.11.1.28.28,0,0,0,.07,0l.12.09a.45.45,0,0,0-.05.24,1.24,1.24,0,0,0,0,.27,3.58,3.58,0,0,0,.14.54C62.65,113.86,62.78,114.21,62.9,114.57Z"/><path class="cls-7" d="M60.17,115.06a4.72,4.72,0,0,1-.26-1.11,2.29,2.29,0,0,1,0-.58,1.27,1.27,0,0,1,.09-.3.64.64,0,0,1,.26-.29l0,.12a.55.55,0,0,1-.37-.13.84.84,0,0,1-.16-.24,1.89,1.89,0,0,1-.09-.52,3.56,3.56,0,0,1,.14-1.06,7.21,7.21,0,0,0,0,1,2.59,2.59,0,0,0,.12.48.39.39,0,0,0,.36.29c.06,0,.1,0,.09.06a.05.05,0,0,1,0,.05h0a.79.79,0,0,0-.28.49,2.69,2.69,0,0,0,0,.56A8.62,8.62,0,0,0,60.17,115.06Z"/><path class="cls-7" d="M55.3,115.22a1,1,0,0,1-.46-.29.32.32,0,0,1-.09-.24.43.43,0,0,1,.13-.28l.12.09a.43.43,0,0,1-.22,0,.36.36,0,0,1-.15-.06.69.69,0,0,1-.17-.17,1,1,0,0,1-.13-.41c.1.11.18.23.28.33a.65.65,0,0,0,.16.13c.06,0,.1,0,.14,0h0a.1.1,0,0,1,.13,0,.06.06,0,0,1,0,.08.32.32,0,0,0-.07.4A1.25,1.25,0,0,0,55.3,115.22Z"/><path class="cls-7" d="M64.23,114.28a4.21,4.21,0,0,1-1-.88,1.83,1.83,0,0,1-.29-.53.68.68,0,0,1,.09-.61l.11.09a.31.31,0,0,1-.24,0,.29.29,0,0,1-.12-.09.91.91,0,0,1-.15-.21,1.75,1.75,0,0,1-.17-.43,4.49,4.49,0,0,1-.18-.9c.1.29.2.58.32.86s.13.28.2.41a1.33,1.33,0,0,0,.14.19.47.47,0,0,0,.09.06.08.08,0,0,0,.06,0s.11,0,.12,0,0,0,0,0a.61.61,0,0,0-.08.52,1.73,1.73,0,0,0,.25.51A6.33,6.33,0,0,0,64.23,114.28Z"/><path class="cls-7" d="M67.12,113a1.8,1.8,0,0,1-.55-.51.75.75,0,0,1-.12-.66l.15.06a.38.38,0,0,1-.16,0,.29.29,0,0,1-.16,0,.45.45,0,0,1-.16-.14.89.89,0,0,1-.12-.29,1.75,1.75,0,0,1-.06-.6c.07.19.12.38.2.57a2.2,2.2,0,0,0,.15.26l.1.09s0,0,.1,0a.11.11,0,0,1,.14,0s0,0,0,0h0a.77.77,0,0,0,0,.15.38.38,0,0,0,0,.15,1.08,1.08,0,0,0,.09.29A2.9,2.9,0,0,0,67.12,113Z"/><path class="cls-7" d="M66.05,113.88a6,6,0,0,1-.63-.89,3.41,3.41,0,0,1-.22-.48,1.22,1.22,0,0,1-.06-.26.37.37,0,0,1,.11-.3l0,.06a1.1,1.1,0,0,1,0-.54,4.56,4.56,0,0,1,.18-.52,6.59,6.59,0,0,1,.54-1c-.15.34-.28.68-.4,1,0,.17-.1.34-.14.51a1.22,1.22,0,0,0,0,.5.07.07,0,0,1,0,.06.24.24,0,0,0-.06.19,2,2,0,0,0,0,.24,3.85,3.85,0,0,0,.19.47C65.72,113.26,65.89,113.57,66.05,113.88Z"/><path class="cls-7" d="M58.26,114.15a1,1,0,0,1-.42-.33.32.32,0,0,1-.07-.25.37.37,0,0,1,.16-.27l.11.09a.32.32,0,0,1-.23,0,.45.45,0,0,1-.14-.07.5.5,0,0,1-.15-.19,1,1,0,0,1-.1-.42c.09.12.16.24.26.36a.93.93,0,0,0,.14.14.17.17,0,0,0,.14,0h0a.1.1,0,0,1,.12,0s0,0,0,.07a.34.34,0,0,0-.11.4A1.73,1.73,0,0,0,58.26,114.15Z"/><path class="cls-7" d="M59.92,115.22a5,5,0,0,1-1-.85,1.89,1.89,0,0,1-.31-.53.74.74,0,0,1,0-.63l.13.08a.29.29,0,0,1-.27,0,.38.38,0,0,1-.11-.11,1.34,1.34,0,0,1-.12-.24,2.77,2.77,0,0,1-.15-.49,5.69,5.69,0,0,1-.12-1c.08.33.17.66.26,1a4.68,4.68,0,0,0,.18.48.88.88,0,0,0,.12.21.24.24,0,0,0,.08.09s0,0,0,0,.11,0,.13,0a0,0,0,0,1,0,0h0a.7.7,0,0,0,0,.55,2.08,2.08,0,0,0,.27.51A7,7,0,0,0,59.92,115.22Z"/><path class="cls-7" d="M57.05,115.52a4.14,4.14,0,0,1-.73-.65,2,2,0,0,1-.28-.38,1.47,1.47,0,0,1-.1-.22.61.61,0,0,1,0-.24l.16,0a.32.32,0,0,1-.13.08.33.33,0,0,1-.17,0,.42.42,0,0,1-.19-.09.82.82,0,0,1-.2-.26,1.8,1.8,0,0,1-.21-.56,5.62,5.62,0,0,0,.35.5.84.84,0,0,0,.21.21.23.23,0,0,0,.12.06s0,0,.09,0a.12.12,0,0,1,.14,0s0,0,0,0a.64.64,0,0,0,0,.2,1.19,1.19,0,0,0,.08.2,3.14,3.14,0,0,0,.24.39C56.63,115,56.84,115.28,57.05,115.52Z"/><path class="cls-7" d="M58,115.5a6.25,6.25,0,0,1-.79-.75,3.19,3.19,0,0,1-.32-.43,2.56,2.56,0,0,1-.11-.24.33.33,0,0,1,0-.31v.06a1.14,1.14,0,0,1-.09-.54,5.52,5.52,0,0,1,.07-.55,6.47,6.47,0,0,1,.31-1.1c-.07.36-.13.73-.17,1.09,0,.18,0,.36,0,.53a1.31,1.31,0,0,0,.09.5.07.07,0,0,1,0,.06.27.27,0,0,0,0,.2,1.15,1.15,0,0,0,.1.23c.08.14.18.28.28.42S57.74,115.22,58,115.5Z"/><path class="cls-7" d="M87.47,115.37a3.34,3.34,0,0,1,.11-.84,2,2,0,0,1,.13-.41,1.93,1.93,0,0,1,.19-.38v.07a1.11,1.11,0,0,1-.24-.55,1.35,1.35,0,0,1,0-.53,2.53,2.53,0,0,1,.37-.94,4.08,4.08,0,0,0-.21,1,1.4,1.4,0,0,0,.24,1,.06.06,0,0,1,0,.07h0a3.24,3.24,0,0,0-.2.36c-.07.13-.11.26-.17.39S87.54,115.1,87.47,115.37Z"/><path class="cls-7" d="M84.89,114.14a2,2,0,0,1-.16-.65.91.91,0,0,1,0-.33.47.47,0,0,1,.22-.29L85,113a.47.47,0,0,1-.27-.17.69.69,0,0,1-.09-.2,1.09,1.09,0,0,1,0-.36,1.77,1.77,0,0,1,.22-.67,5.38,5.38,0,0,0-.07.69,1.32,1.32,0,0,0,0,.34.26.26,0,0,0,.2.23.11.11,0,0,1,.09.09s0,0,0,0h0a.67.67,0,0,0-.25.52C84.87,113.71,84.88,113.92,84.89,114.14Z"/><path class="cls-7" d="M94.24,118.55c0-.36-.07-.72-.07-1.08a3.27,3.27,0,0,1,0-.54,1.21,1.21,0,0,1,.08-.25.35.35,0,0,1,.27-.18v.14a.28.28,0,0,1-.13-.18,1,1,0,0,1,0-.14,2.08,2.08,0,0,1,0-.25,2.44,2.44,0,0,1,.09-.47,4.48,4.48,0,0,1,.3-.87l-.15.93a3.41,3.41,0,0,0-.05.46,1,1,0,0,0,0,.24.36.36,0,0,0,.06.17.09.09,0,0,1,.09.08,0,0,0,0,1,0,0h0a.18.18,0,0,0-.15.12.73.73,0,0,0-.09.22,4,4,0,0,0-.07.5Z"/><path class="cls-7" d="M74.3,113a2.86,2.86,0,0,1-.26-.78,1.43,1.43,0,0,1,0-.41.5.5,0,0,1,.24-.41l0,.12a.34.34,0,0,1-.2-.09l-.1-.11a2.53,2.53,0,0,1-.12-.23c0-.15-.1-.3-.14-.45a4.15,4.15,0,0,1-.12-.92c.09.31.19.6.28.9.06.15.1.29.17.44a1.28,1.28,0,0,0,.11.2.39.39,0,0,0,.14.13.11.11,0,0,1,.12,0,.06.06,0,0,1,0,.07l0,0a.42.42,0,0,0-.18.31,1.7,1.7,0,0,0,0,.39A7.14,7.14,0,0,0,74.3,113Z"/><path class="cls-7" d="M92.73,118.09A6.87,6.87,0,0,1,93,117a3.44,3.44,0,0,1,.21-.53,1.65,1.65,0,0,1,.15-.25.48.48,0,0,1,.27-.19l0,.14a.31.31,0,0,1-.15-.11.34.34,0,0,1,0-.11,1.22,1.22,0,0,1,0-.17c0-.11,0-.21,0-.32a5.41,5.41,0,0,1,.12-.58,8.16,8.16,0,0,1,.37-1.12c-.08.39-.16.78-.23,1.17a5.58,5.58,0,0,0-.09.59c0,.1,0,.2,0,.3a.58.58,0,0,0,0,.14.23.23,0,0,0,0,.07l0,.14a.41.41,0,0,0-.19.16,1.88,1.88,0,0,0-.16.23,4.46,4.46,0,0,0-.22.5C93,117.38,92.86,117.74,92.73,118.09Z"/><path class="cls-7" d="M91.79,117a5.35,5.35,0,0,1,.41-.74c.08-.12.16-.23.25-.34a1.22,1.22,0,0,1,.15-.17l.08-.08a.5.5,0,0,1,.13-.07l0,.14a.42.42,0,0,1-.23-.2.44.44,0,0,1,0-.19,1.14,1.14,0,0,1,.08-.33,2.22,2.22,0,0,1,.34-.54c-.07.2-.15.4-.2.6a1.55,1.55,0,0,0,0,.31.32.32,0,0,0,0,.14.16.16,0,0,0,.08.08h0c.05,0,.08.07.07.1a.08.08,0,0,1,0,0l-.08,0-.07.07-.15.16-.27.32Z"/><path class="cls-7" d="M90.53,115.56a.84.84,0,0,1-.12-.51.37.37,0,0,1,.1-.23.47.47,0,0,1,.31-.11l0,.14a.41.41,0,0,1-.19-.12.37.37,0,0,1-.07-.14.58.58,0,0,1,0-.23.93.93,0,0,1,.2-.38c0,.15,0,.28,0,.42a1.23,1.23,0,0,0,0,.2c0,.07,0,.1.09.11h0a.11.11,0,0,1,.09.1s0,0-.07,0a.34.34,0,0,0-.34.24A1.06,1.06,0,0,0,90.53,115.56Z"/><path class="cls-7" d="M91.24,117.27a4.09,4.09,0,0,1-.29-1.22,1.67,1.67,0,0,1,0-.59.66.66,0,0,1,.42-.46l0,.13a.38.38,0,0,1-.19-.15.44.44,0,0,1,0-.15,1,1,0,0,1,0-.25,2.11,2.11,0,0,1,.09-.45,3.94,3.94,0,0,1,.36-.84c-.08.29-.16.59-.22.89a3.25,3.25,0,0,0-.06.45,1.62,1.62,0,0,0,0,.22s0,.08,0,.1a.12.12,0,0,0,0,0c.05,0,.09,0,.08.09s0,0,0,0a.62.62,0,0,0-.36.4,2,2,0,0,0-.07.55A6.1,6.1,0,0,0,91.24,117.27Z"/><path class="cls-7" d="M77.49,113.87a5.37,5.37,0,0,1-.2-1.12,3.49,3.49,0,0,1,0-.56,2.89,2.89,0,0,1,0-.29.5.5,0,0,1,.18-.28l.09.11a.3.3,0,0,1-.18,0l-.08-.08a.6.6,0,0,1-.09-.15,1.18,1.18,0,0,1-.1-.3,3.06,3.06,0,0,1-.11-.59A6.57,6.57,0,0,1,77,109.4l.21,1.17c0,.19.09.38.14.58a1.53,1.53,0,0,0,.11.27.54.54,0,0,0,.07.13.18.18,0,0,0,.06,0l.09.11a.52.52,0,0,0-.12.22,1.28,1.28,0,0,0,0,.27,5.06,5.06,0,0,0,0,.55C77.45,113.12,77.47,113.5,77.49,113.87Z"/><path class="cls-7" d="M76.17,113.21a7.53,7.53,0,0,1,.11-.83c0-.14.07-.28.11-.42a1.67,1.67,0,0,1,.08-.2.54.54,0,0,1,0-.11.35.35,0,0,1,.09-.11l.08.12a.36.36,0,0,1-.28-.11.36.36,0,0,1-.11-.17,1.24,1.24,0,0,1,0-.33,2.2,2.2,0,0,1,.12-.62q0,.31,0,.63a1.67,1.67,0,0,0,.08.3.32.32,0,0,0,.08.12.11.11,0,0,0,.1,0h0s.1,0,.1.07,0,0,0,.05,0,0-.05.06l0,.1a1.08,1.08,0,0,0-.08.19l-.13.4C76.35,112.67,76.27,112.94,76.17,113.21Z"/><path class="cls-7" d="M75.76,113.65a4.13,4.13,0,0,1-.73-1,1.53,1.53,0,0,1-.16-.58.69.69,0,0,1,.22-.58l.09.11a.3.3,0,0,1-.23-.07.47.47,0,0,1-.1-.11,1.22,1.22,0,0,1-.1-.24,3.4,3.4,0,0,1-.07-.46,5.55,5.55,0,0,1,0-.91c0,.3.06.61.11.91a3.15,3.15,0,0,0,.11.44.72.72,0,0,0,.09.2.22.22,0,0,0,.07.09.07.07,0,0,0,.06,0,.09.09,0,0,1,.11.06s0,0,0,0a.58.58,0,0,0-.19.49,1.83,1.83,0,0,0,.13.55A5.22,5.22,0,0,0,75.76,113.65Z"/><path class="cls-7" d="M85.48,115.31a6.2,6.2,0,0,1,0-1.14,5,5,0,0,1,.09-.56,1.48,1.48,0,0,1,.1-.27.47.47,0,0,1,.22-.25l.07.13a.34.34,0,0,1-.17-.08.28.28,0,0,1-.07-.09.58.58,0,0,1-.06-.17,1.54,1.54,0,0,1,0-.31,5.86,5.86,0,0,1,0-.59,8.91,8.91,0,0,1,.14-1.17c0,.39,0,.79,0,1.19,0,.19,0,.39,0,.59a1.35,1.35,0,0,0,0,.29.58.58,0,0,0,0,.14s.07.07,0,.06l.07.13a.44.44,0,0,0-.16.19,1.34,1.34,0,0,0-.09.26,3.25,3.25,0,0,0-.12.54C85.57,114.56,85.53,114.94,85.48,115.31Z"/><path class="cls-7" d="M82.78,114.57a4.6,4.6,0,0,1,.28-1.09,1.86,1.86,0,0,1,.29-.51,1.19,1.19,0,0,1,.22-.23.7.7,0,0,1,.37-.15l0,.13a.56.56,0,0,1-.27-.28.68.68,0,0,1,0-.28,1.46,1.46,0,0,1,.16-.5,3.66,3.66,0,0,1,.61-.88,6.15,6.15,0,0,0-.47.92,1.76,1.76,0,0,0-.12.49.37.37,0,0,0,.2.41s.07.06,0,.09,0,0-.06,0h0a.8.8,0,0,0-.48.32,3,3,0,0,0-.3.48A9.47,9.47,0,0,0,82.78,114.57Z"/><path class="cls-7" d="M78.31,112.57a.9.9,0,0,1-.26-.45.35.35,0,0,1,0-.26.52.52,0,0,1,.26-.19l.06.13a.33.33,0,0,1-.22-.06.47.47,0,0,1-.1-.11.71.71,0,0,1-.06-.23.91.91,0,0,1,.09-.42c0,.14,0,.28.08.42a1,1,0,0,0,.07.18c0,.06.07.09.12.09h0c.06,0,.11,0,.11.07s0,.05,0,.06a.31.31,0,0,0-.26.32A1.08,1.08,0,0,0,78.31,112.57Z"/><path class="cls-7" d="M86.8,115.62a4.68,4.68,0,0,1-.45-1.19,1.52,1.52,0,0,1,0-.6.66.66,0,0,1,.35-.51l.06.13a.33.33,0,0,1-.2-.12.7.7,0,0,1-.08-.14,1.13,1.13,0,0,1,0-.25,1.75,1.75,0,0,1,0-.46,4.33,4.33,0,0,1,.25-.87c0,.3-.08.6-.1.9a3.38,3.38,0,0,0,0,.45,1.85,1.85,0,0,0,0,.23.26.26,0,0,0,0,.09s0,0,.05,0a.11.11,0,0,1,.09.09.05.05,0,0,1,0,0,.61.61,0,0,0-.3.43,1.75,1.75,0,0,0,0,.56A6.35,6.35,0,0,0,86.8,115.62Z"/><path class="cls-7" d="M90,115.75a1.69,1.69,0,0,1-.25-.7.75.75,0,0,1,.19-.64l.1.12a.29.29,0,0,1-.15,0,.27.27,0,0,1-.13-.1.34.34,0,0,1-.08-.19.8.8,0,0,1,0-.31,1.62,1.62,0,0,1,.23-.56c0,.2-.07.39-.09.59a1.51,1.51,0,0,0,0,.3.33.33,0,0,0,.05.12s0,0,.09,0a.12.12,0,0,1,.11.08s0,0,0,0h0l-.09.12-.06.13a1.54,1.54,0,0,0,0,.31A2.72,2.72,0,0,0,90,115.75Z"/><path class="cls-7" d="M88.61,116.05a5.64,5.64,0,0,1-.15-1.06,2.33,2.33,0,0,1,0-.53.78.78,0,0,1,.07-.25.34.34,0,0,1,.22-.22l0,0a1.08,1.08,0,0,1,.28-.47c.12-.13.26-.26.4-.39a6.71,6.71,0,0,1,1-.67c-.29.24-.57.49-.83.75a4.48,4.48,0,0,0-.36.4,1.12,1.12,0,0,0-.25.43.08.08,0,0,1,0,0c-.06,0-.11.08-.14.15a.86.86,0,0,0-.06.23,4,4,0,0,0,0,.5C88.6,115.35,88.61,115.7,88.61,116.05Z"/><path class="cls-7" d="M81.49,112.94a.94.94,0,0,1-.23-.47.35.35,0,0,1,.06-.26.44.44,0,0,1,.27-.17l0,.14a.39.39,0,0,1-.21-.08.38.38,0,0,1-.1-.13.6.6,0,0,1,0-.22.89.89,0,0,1,.12-.42c0,.15,0,.29,0,.43a.7.7,0,0,0,.06.19c0,.06.07.09.11.09h0a.12.12,0,0,1,.11.07.06.06,0,0,1-.06.06.33.33,0,0,0-.28.31A1.14,1.14,0,0,0,81.49,112.94Z"/><path class="cls-7" d="M82.48,114.61a4.28,4.28,0,0,1-.47-1.17,1.73,1.73,0,0,1,0-.6.76.76,0,0,1,.32-.55l.08.12a.27.27,0,0,1-.23-.14.74.74,0,0,1,0-.14,1.22,1.22,0,0,1,0-.27,2.22,2.22,0,0,1,.1-.5,4.92,4.92,0,0,1,.38-1c-.09.33-.17.66-.23,1a4.29,4.29,0,0,0-.07.5.65.65,0,0,0,0,.24.2.2,0,0,0,0,.11s0,0,0,0a.09.09,0,0,1,.11.06s0,0,0,0h0a.71.71,0,0,0-.28.48,1.82,1.82,0,0,0,0,.57A6,6,0,0,0,82.48,114.61Z"/><path class="cls-7" d="M79.74,113.63a4,4,0,0,1-.35-.9,2.32,2.32,0,0,1-.06-.46,2,2,0,0,1,0-.23.7.7,0,0,1,.08-.23l.14.1a.42.42,0,0,1-.16,0,.3.3,0,0,1-.15-.07.37.37,0,0,1-.13-.16.93.93,0,0,1,0-.32,2.08,2.08,0,0,1,.09-.6c0,.21,0,.41.06.6a1.38,1.38,0,0,0,.08.29.44.44,0,0,0,.08.11s0,0,.1,0a.12.12,0,0,1,.13,0,0,0,0,0,1,0,0,.62.62,0,0,0-.07.19,1.66,1.66,0,0,0,0,.22,3.37,3.37,0,0,0,0,.44C79.59,113,79.67,113.32,79.74,113.63Z"/><path class="cls-7" d="M80.56,114a6.84,6.84,0,0,1-.35-1,2.85,2.85,0,0,1-.08-.51,1.14,1.14,0,0,1,0-.26.34.34,0,0,1,.18-.26l0,0a1.08,1.08,0,0,1,.18-.52,5.15,5.15,0,0,1,.32-.45,6.93,6.93,0,0,1,.8-.83c-.24.29-.46.58-.67.88s-.19.3-.28.46a1.25,1.25,0,0,0-.16.47.05.05,0,0,1,0,0,.23.23,0,0,0-.11.18.93.93,0,0,0,0,.24,2.92,2.92,0,0,0,0,.5C80.42,113.32,80.5,113.66,80.56,114Z"/><path class="cls-7" d="M64,116.61a3.12,3.12,0,0,1-.33-.75,2.61,2.61,0,0,1-.08-.79l0,.05a1.3,1.3,0,0,1-.52-.36,1.31,1.31,0,0,1-.26-.44,1.86,1.86,0,0,1-.12-.93,3.4,3.4,0,0,0,.3.9,1.41,1.41,0,0,0,.74.72.05.05,0,0,1,0,0h0a1.7,1.7,0,0,0,0,.39c0,.13,0,.26,0,.39A7.08,7.08,0,0,0,64,116.61Z"/><path class="cls-7" d="M60.79,116.67a2.24,2.24,0,0,1-.49-.48.84.84,0,0,1-.13-.29.38.38,0,0,1,.07-.33l.12.08a.66.66,0,0,1-.35,0,.4.4,0,0,1-.19-.13.72.72,0,0,1-.2-.3,1.55,1.55,0,0,1-.12-.64,4.73,4.73,0,0,0,.29.6,1,1,0,0,0,.21.26.34.34,0,0,0,.31.11.15.15,0,0,1,.14,0,.09.09,0,0,1,0,0h0c-.13.16,0,.36,0,.53A5.1,5.1,0,0,0,60.79,116.67Z"/><path class="cls-7" d="M72.43,116.23a5.13,5.13,0,0,1-.74-.82,2.07,2.07,0,0,1-.27-.45.65.65,0,0,1-.06-.24.28.28,0,0,1,.15-.27l.07.11a.39.39,0,0,1-.23-.07.57.57,0,0,1-.11-.11.9.9,0,0,1-.14-.2,3.79,3.79,0,0,1-.18-.42,3.58,3.58,0,0,1-.17-.84l.34.82c.07.13.13.27.21.4l.14.19a.4.4,0,0,0,.15.11.12.12,0,0,1,.13,0s0,.05,0,.07l0,0a.2.2,0,0,0-.08.17.93.93,0,0,0,0,.22,4.37,4.37,0,0,0,.22.43C72,115.66,72.22,116,72.43,116.23Z"/><path class="cls-7" d="M50,120.37a3.51,3.51,0,0,1-.7-.49,1.31,1.31,0,0,1-.27-.31.43.43,0,0,1,0-.44l.13.07a.62.62,0,0,1-.25,0l-.16,0-.24-.12a4.38,4.38,0,0,1-.42-.28,5.19,5.19,0,0,1-.68-.64l.82.54c.15.09.28.18.43.26l.23.1a.43.43,0,0,0,.2,0s.1,0,.13,0a0,0,0,0,1,0,.07l0,0a.35.35,0,0,0,0,.34,1.54,1.54,0,0,0,.21.31A6.13,6.13,0,0,0,50,120.37Z"/><path class="cls-7" d="M70.61,116.57a5.42,5.42,0,0,1-.37-1,3.08,3.08,0,0,1-.08-.53.83.83,0,0,1,0-.27.38.38,0,0,1,.15-.27l.12.09a.34.34,0,0,1-.21,0,.43.43,0,0,1-.1-.07.71.71,0,0,1-.12-.13,1.82,1.82,0,0,1-.15-.27,2.62,2.62,0,0,1-.2-.53,6.73,6.73,0,0,1-.24-1.08c.13.36.27.71.4,1.06.07.17.15.35.23.52a1.28,1.28,0,0,0,.15.25l.1.11a.3.3,0,0,0,.08,0l.11.09a.35.35,0,0,0-.1.22,1.06,1.06,0,0,0,0,.25,3.15,3.15,0,0,0,0,.52C70.47,115.88,70.55,116.23,70.61,116.57Z"/><path class="cls-7" d="M69.09,116.11a4.17,4.17,0,0,1,0-.79,3,3,0,0,1,.06-.4,1.39,1.39,0,0,1,.06-.19.49.49,0,0,1,0-.11.27.27,0,0,1,.09-.11l.1.1a.56.56,0,0,1-.33-.06.44.44,0,0,1-.13-.15.71.71,0,0,1-.1-.3,1.47,1.47,0,0,1,.05-.59,3.61,3.61,0,0,0,.12.57,1.11,1.11,0,0,0,.12.27.57.57,0,0,0,.11.11.16.16,0,0,0,.12,0h0a.11.11,0,0,1,.12,0s0,0,0,0a.21.21,0,0,0-.05.07.36.36,0,0,1,0,.09,1.46,1.46,0,0,0,0,.2l-.1.39C69.21,115.59,69.16,115.85,69.09,116.11Z"/><path class="cls-7" d="M67.08,115.46a.88.88,0,0,1-.39-.37.28.28,0,0,1,0-.24.45.45,0,0,1,.24-.23l.09.11a.53.53,0,0,1-.25,0,.42.42,0,0,1-.14-.09.47.47,0,0,1-.11-.19.81.81,0,0,1,0-.41c.07.13.11.25.19.37a.91.91,0,0,0,.11.16.16.16,0,0,0,.15,0h0c.06,0,.12,0,.13,0s0,0,0,.07a.3.3,0,0,0-.21.34A1.12,1.12,0,0,0,67.08,115.46Z"/><path class="cls-7" d="M68.69,116.57a4,4,0,0,1-.94-.89,1.34,1.34,0,0,1-.26-.52.55.55,0,0,1,.16-.55l.12.09a.44.44,0,0,1-.27,0,.45.45,0,0,1-.13-.1.63.63,0,0,1-.13-.2,1.73,1.73,0,0,1-.14-.42,3.08,3.08,0,0,1-.09-.85c.08.28.16.55.25.83a2,2,0,0,0,.18.4.55.55,0,0,0,.13.18.18.18,0,0,0,.08.07.11.11,0,0,0,.07,0c.06,0,.12,0,.13,0s0,0,0,0a.52.52,0,0,0-.14.48,1.33,1.33,0,0,0,.22.49A5.42,5.42,0,0,0,68.69,116.57Z"/><path class="cls-7" d="M53.48,119.63a6.93,6.93,0,0,1-.8-.83,3.37,3.37,0,0,1-.32-.45c0-.09-.08-.17-.11-.26a.37.37,0,0,1,0-.31l.15.06a.3.3,0,0,1-.2,0,.35.35,0,0,1-.12,0,.67.67,0,0,1-.17-.08,1.79,1.79,0,0,1-.26-.2,5.86,5.86,0,0,1-.44-.42,8.7,8.7,0,0,1-.71-.92l.85.84c.15.14.3.28.46.41a1.7,1.7,0,0,0,.26.18.61.61,0,0,0,.14.07c.05,0,.1,0,.08,0l.15,0a.37.37,0,0,0,0,.23,1.17,1.17,0,0,0,.09.24,3.21,3.21,0,0,0,.29.46C53,119,53.26,119.33,53.48,119.63Z"/><path class="cls-7" d="M51.88,119.68a4.84,4.84,0,0,1-.36-.72c-.05-.13-.09-.26-.13-.39a1.42,1.42,0,0,1,0-.2.41.41,0,0,1,0-.11.24.24,0,0,1,0-.13l.14.06a.49.49,0,0,1-.33,0,.46.46,0,0,1-.2-.09.83.83,0,0,1-.22-.24,1.61,1.61,0,0,1-.24-.56,5.85,5.85,0,0,0,.38.49,2.41,2.41,0,0,0,.24.21.47.47,0,0,0,.15.06.2.2,0,0,0,.13,0h0a.14.14,0,0,1,.14,0,0,0,0,0,1,0,0s0,0,0,.08a.34.34,0,0,0,0,.1,1.25,1.25,0,0,0,0,.19l.1.39Z"/><path class="cls-7" d="M51.74,120.23a5.11,5.11,0,0,1-1.27-.51,1.61,1.61,0,0,1-.48-.38.57.57,0,0,1-.13-.57l.16,0a.47.47,0,0,1-.27.05l-.16,0a.93.93,0,0,1-.22-.14,2.14,2.14,0,0,1-.34-.33,3.63,3.63,0,0,1-.5-.75c.21.23.42.45.64.67s.23.21.35.3a1.13,1.13,0,0,0,.21.12l.11,0s.06,0,.07,0,.12,0,.14,0,0,0,0,0a.5.5,0,0,0,.11.48,1.77,1.77,0,0,0,.43.38A7.67,7.67,0,0,0,51.74,120.23Z"/><path class="cls-7" d="M62,117.39a6.25,6.25,0,0,1-.59-1,4.29,4.29,0,0,1-.19-.5,2.16,2.16,0,0,1,0-.27.45.45,0,0,1,.1-.3l.13.08a.38.38,0,0,1-.21,0l-.11,0-.14-.11a2.25,2.25,0,0,1-.21-.24,4.42,4.42,0,0,1-.31-.49,6.91,6.91,0,0,1-.47-1c.21.33.42.66.62,1l.34.48a2.18,2.18,0,0,0,.21.22.27.27,0,0,0,.12.09s.09,0,.08,0l.13.08a.36.36,0,0,0-.06.23,1,1,0,0,0,0,.25,2.91,2.91,0,0,0,.16.5C61.68,116.73,61.83,117.06,62,117.39Z"/><path class="cls-7" d="M59,117.92a3.18,3.18,0,0,1-.29-1,1.63,1.63,0,0,1,0-.54.88.88,0,0,1,.09-.29.87.87,0,0,1,.29-.28l0,.12a.61.61,0,0,1-.4-.12.55.55,0,0,1-.17-.22,1.21,1.21,0,0,1-.11-.49,2.91,2.91,0,0,1,.15-1,4.48,4.48,0,0,0,0,1,1.67,1.67,0,0,0,.13.45.42.42,0,0,0,.4.27c.06,0,.11,0,.1,0a.05.05,0,0,1,0,.05h0a.76.76,0,0,0-.31.47,1.91,1.91,0,0,0-.05.53A6.26,6.26,0,0,0,59,117.92Z"/><path class="cls-7" d="M53.56,118.21a1,1,0,0,1-.49-.26.27.27,0,0,1-.1-.22.41.41,0,0,1,.15-.28l.13.08a.45.45,0,0,1-.25,0,.5.5,0,0,1-.16,0,.56.56,0,0,1-.18-.16.77.77,0,0,1-.14-.38c.11.1.2.21.31.3a.52.52,0,0,0,.17.12.14.14,0,0,0,.15,0h0a.14.14,0,0,1,.14,0,.05.05,0,0,1,0,.08.28.28,0,0,0-.08.38A1.42,1.42,0,0,0,53.56,118.21Z"/><path class="cls-7" d="M63.42,117.09a4.77,4.77,0,0,1-1-.8,1.44,1.44,0,0,1-.32-.48.55.55,0,0,1,.08-.58l.13.08a.44.44,0,0,1-.26,0,.66.66,0,0,1-.15-.09,1.46,1.46,0,0,1-.16-.19,2.42,2.42,0,0,1-.19-.4,3.43,3.43,0,0,1-.2-.84c.11.27.23.54.36.8a2.88,2.88,0,0,0,.22.38,1.29,1.29,0,0,0,.16.17l.09.05h.07a.13.13,0,0,1,.14,0,.07.07,0,0,1,0,0,.49.49,0,0,0-.08.49,1.77,1.77,0,0,0,.28.47A6.53,6.53,0,0,0,63.42,117.09Z"/><path class="cls-7" d="M66.61,115.86a1.93,1.93,0,0,1-.6-.47.61.61,0,0,1-.15-.61l.17.06-.17,0a.48.48,0,0,1-.18,0,.43.43,0,0,1-.18-.12.82.82,0,0,1-.14-.28,1.51,1.51,0,0,1-.07-.56c.08.18.14.36.23.53a1,1,0,0,0,.17.24.21.21,0,0,0,.11.08.14.14,0,0,0,.11,0,.16.16,0,0,1,.15,0s0,0,0,0h0s0,.1,0,.14a.32.32,0,0,0,0,.14,1.08,1.08,0,0,0,.11.28A2.55,2.55,0,0,0,66.61,115.86Z"/><path class="cls-7" d="M65.43,116.68a5.77,5.77,0,0,1-.69-.82,2.46,2.46,0,0,1-.25-.44,1,1,0,0,1-.07-.25.32.32,0,0,1,.12-.28l0,.06a.89.89,0,0,1,0-.51,4.14,4.14,0,0,1,.19-.49,5.7,5.7,0,0,1,.59-1,10.11,10.11,0,0,0-.43,1,4.58,4.58,0,0,0-.15.49.81.81,0,0,0,0,.46.05.05,0,0,1,0,0,.24.24,0,0,0-.06.19.9.9,0,0,0,.06.22,2.53,2.53,0,0,0,.21.44C65.07,116.1,65.26,116.39,65.43,116.68Z"/><path class="cls-7" d="M56.84,117.11a1,1,0,0,1-.47-.29.32.32,0,0,1-.08-.23.4.4,0,0,1,.18-.26l.12.09a.43.43,0,0,1-.25,0,.34.34,0,0,1-.16-.06.64.64,0,0,1-.16-.17.87.87,0,0,1-.1-.39c.1.11.17.22.27.33l.16.13c.07,0,.11,0,.16,0h0a.12.12,0,0,1,.13,0s0,0,0,.07a.27.27,0,0,0-.12.37A1.06,1.06,0,0,0,56.84,117.11Z"/><path class="cls-7" d="M58.67,118.08a4.74,4.74,0,0,1-1.06-.77,1.8,1.8,0,0,1-.34-.49.58.58,0,0,1,0-.58l.14.06a.36.36,0,0,1-.41-.12,1,1,0,0,1-.14-.22,1.93,1.93,0,0,1-.16-.46,4.35,4.35,0,0,1-.13-1c.09.31.18.61.28.92a4.28,4.28,0,0,0,.2.44.86.86,0,0,0,.13.2l.09.07s.05,0,.06,0a.14.14,0,0,1,.14,0,.07.07,0,0,1,0,0h0a.58.58,0,0,0,0,.51,1.5,1.5,0,0,0,.3.47A6,6,0,0,0,58.67,118.08Z"/><path class="cls-7" d="M55.5,118.44a4.56,4.56,0,0,1-.81-.59,2,2,0,0,1-.3-.35.78.78,0,0,1-.11-.2.72.72,0,0,1,0-.22l.18,0a.42.42,0,0,1-.15.08.37.37,0,0,1-.18,0,.51.51,0,0,1-.21-.08.83.83,0,0,1-.22-.24,1.51,1.51,0,0,1-.23-.52c.12.15.24.31.38.46l.23.2a.3.3,0,0,0,.14,0,.14.14,0,0,0,.1,0,.17.17,0,0,1,.15,0s0,0,0,0a.63.63,0,0,0,0,.19,1.63,1.63,0,0,0,.09.19,2.88,2.88,0,0,0,.26.35C55,118,55.27,118.22,55.5,118.44Z"/><path class="cls-7" d="M56.5,118.4a5.59,5.59,0,0,1-.88-.69,2.57,2.57,0,0,1-.35-.39.94.94,0,0,1-.12-.22.27.27,0,0,1,.05-.29v0a.8.8,0,0,1-.09-.5,5,5,0,0,1,.07-.52,6.3,6.3,0,0,1,.34-1c-.07.35-.14.69-.18,1a4.21,4.21,0,0,0,0,.5,1.14,1.14,0,0,0,.09.46.06.06,0,0,1,0,.06.2.2,0,0,0,0,.19,1.06,1.06,0,0,0,.11.21c.09.13.2.26.31.39S56.26,118.15,56.5,118.4Z"/><path class="cls-7" d="M93.19,119.1a5.58,5.58,0,0,1,.28-.74c.06-.12.12-.24.19-.36l.23-.34,0,0a1,1,0,0,1,0-.45,2.44,2.44,0,0,1,.14-.46,4.14,4.14,0,0,1,.48-.84,5.93,5.93,0,0,0-.38.86,1.49,1.49,0,0,0-.11.84,0,0,0,0,1,0,0h0a3.78,3.78,0,0,0-.22.33l-.21.34C93.42,118.62,93.3,118.86,93.19,119.1Z"/><path class="cls-7" d="M91.88,118.18a2.22,2.22,0,0,1,.07-.57,1.08,1.08,0,0,1,.11-.28.66.66,0,0,1,.21-.26v.1a.16.16,0,0,1-.12-.13.5.5,0,0,1,0-.17,1.5,1.5,0,0,1,.1-.32,3,3,0,0,1,.31-.59c-.08.2-.16.4-.22.6a1.63,1.63,0,0,0-.07.3c0,.1,0,.18.07.2s0,0,0,.06l0,0h0a1,1,0,0,0-.29.47A3.19,3.19,0,0,0,91.88,118.18Z"/><path class="cls-7" d="M97,120.86c.06-.27.11-.56.2-.85a3.26,3.26,0,0,1,.15-.44.94.94,0,0,1,.12-.22.51.51,0,0,1,.23-.2l0,.11a.12.12,0,0,1,0-.12.4.4,0,0,1,0-.11,1.59,1.59,0,0,1,.07-.2,2.78,2.78,0,0,1,.16-.4c.13-.26.27-.52.42-.77-.11.27-.22.53-.32.79s-.11.26-.15.39a1.33,1.33,0,0,0,0,.19s0,.13,0,.13,0,0,0,0a.12.12,0,0,1,0,.05h0a.26.26,0,0,0-.14.12,1.28,1.28,0,0,0-.11.2,3.69,3.69,0,0,0-.17.42C97.16,120.29,97.08,120.58,97,120.86Z"/><path class="cls-7" d="M85.89,116.84a4.59,4.59,0,0,1,.06-.73,2.42,2.42,0,0,1,.1-.36.63.63,0,0,1,.25-.34v.11a.14.14,0,0,1-.09-.1.61.61,0,0,1,0-.11,1.62,1.62,0,0,1,0-.22c0-.14,0-.28,0-.42a6.44,6.44,0,0,1,.17-.83c0,.28,0,.56-.08.83s0,.28,0,.41a1.34,1.34,0,0,0,0,.2.28.28,0,0,0,0,.12s.05,0,.05,0a0,0,0,0,1,0,.06l0,0a.48.48,0,0,0-.19.26,2.24,2.24,0,0,0-.11.34C86,116.36,85.94,116.6,85.89,116.84Z"/><path class="cls-7" d="M96,120.77c.13-.32.28-.64.44-1,.08-.16.17-.31.27-.47l.16-.23a.82.82,0,0,1,.24-.2V119A.11.11,0,0,1,97,119a.11.11,0,0,1,0-.08.68.68,0,0,1,0-.14,2.58,2.58,0,0,1,.08-.26c.07-.17.15-.34.23-.51.16-.33.33-.66.52-1-.14.33-.29.67-.44,1l-.2.51a2.25,2.25,0,0,0-.08.24.49.49,0,0,0,0,.12s0,.06,0,.05V119a.86.86,0,0,0-.18.16l-.15.22c-.1.14-.19.3-.28.45Z"/><path class="cls-7" d="M95.63,120a8.09,8.09,0,0,1,.46-.68l.26-.33.14-.16.07-.08.11-.08v.12a.15.15,0,0,1-.11-.14.41.41,0,0,1,0-.16,1.43,1.43,0,0,1,.13-.28,3.59,3.59,0,0,1,.37-.5c-.1.18-.2.35-.29.53a1.72,1.72,0,0,0-.1.26.6.6,0,0,0,0,.12.07.07,0,0,0,0,0h0a.05.05,0,0,1,0,.08s0,0,0,0l-.06,0-.07.07-.14.15-.26.31Z"/><path class="cls-7" d="M95.14,119a.78.78,0,0,1,0-.42.52.52,0,0,1,.13-.21.45.45,0,0,1,.23-.13l0,.12a.12.12,0,0,1-.1-.08.25.25,0,0,1,0-.12,1.52,1.52,0,0,1,.06-.2,1.61,1.61,0,0,1,.24-.34c0,.12-.1.24-.14.36a1.36,1.36,0,0,0,0,.17q0,.09,0,.09h0a.05.05,0,0,1,0,.07.1.1,0,0,1-.06,0,.39.39,0,0,0-.28.24A1.34,1.34,0,0,0,95.14,119Z"/><path class="cls-7" d="M95.2,120.32a3.78,3.78,0,0,1,.1-1,2.59,2.59,0,0,1,.18-.51,1.11,1.11,0,0,1,.4-.44v.11a.14.14,0,0,1-.1-.11.41.41,0,0,1,0-.11q0-.12.06-.21c0-.14.12-.27.18-.4a6.59,6.59,0,0,1,.45-.76c-.12.26-.24.52-.37.78s-.11.26-.15.39a1.8,1.8,0,0,0,0,.19v.08l0,0a.05.05,0,0,1,0,.07.08.08,0,0,1,0,0,.88.88,0,0,0-.33.38,2.53,2.53,0,0,0-.19.48A5.5,5.5,0,0,0,95.2,120.32Z"/><path class="cls-7" d="M87.49,117.87a8.56,8.56,0,0,1,.19-1,4.91,4.91,0,0,1,.15-.51,2.6,2.6,0,0,1,.1-.25.66.66,0,0,1,.18-.24l0,.1a.08.08,0,0,1-.09,0,.13.13,0,0,1,0-.08.61.61,0,0,1,0-.14,2.45,2.45,0,0,1,0-.27,4.94,4.94,0,0,1,.1-.53,9.68,9.68,0,0,1,.27-1.06c-.06.36-.12.71-.19,1.06,0,.18,0,.36-.07.53a2.46,2.46,0,0,0,0,.26.49.49,0,0,0,0,.12s0,0,0,0l0,.11a1,1,0,0,0-.13.19,2.44,2.44,0,0,0-.1.24c-.06.16-.11.32-.16.49C87.68,117.2,87.58,117.53,87.49,117.87Z"/><path class="cls-7" d="M86.91,117.19a6.67,6.67,0,0,1,.29-.74c0-.12.11-.24.17-.36l.1-.18.06-.09a.32.32,0,0,1,.08-.09l0,.11a.16.16,0,0,1-.14-.12.43.43,0,0,1,0-.16,1.36,1.36,0,0,1,.06-.29,3,3,0,0,1,.24-.56c0,.19-.11.38-.15.57a1.36,1.36,0,0,0,0,.27.41.41,0,0,0,0,.12s0,0,.06,0h0s0,0,0,.07l0,0s0,0,0,.06a.56.56,0,0,0-.05.08l-.1.17-.19.35Z"/><path class="cls-7" d="M86.55,117.56a3.64,3.64,0,0,1-.14-1,2.39,2.39,0,0,1,.06-.53,1,1,0,0,1,.29-.5l0,.11a.12.12,0,0,1-.11-.09.61.61,0,0,1,0-.11,1.55,1.55,0,0,1,0-.22,3.15,3.15,0,0,1,.09-.42A6.34,6.34,0,0,1,87,114l-.18.82c0,.14,0,.27-.06.41a.61.61,0,0,0,0,.19.11.11,0,0,0,0,.08l0,0a.05.05,0,0,1,0,.07.08.08,0,0,1,0,0,.86.86,0,0,0-.25.42,3,3,0,0,0-.07.5A5.65,5.65,0,0,0,86.55,117.56Z"/><path class="cls-7" d="M91.94,119.17a9.49,9.49,0,0,1,.3-1,5.16,5.16,0,0,1,.21-.49c0-.08.08-.16.13-.24a.7.7,0,0,1,.2-.23v.11a.09.09,0,0,1-.08-.06.12.12,0,0,1,0-.08.66.66,0,0,1,0-.14,2,2,0,0,1,0-.26,4.64,4.64,0,0,1,.16-.53,9.72,9.72,0,0,1,.39-1l-.31,1c0,.18-.09.35-.13.52a2.21,2.21,0,0,0,0,.25v.12s0,.06,0,0v.11a.54.54,0,0,0-.15.18,2.53,2.53,0,0,0-.13.22c-.08.16-.15.32-.22.48Z"/><path class="cls-7" d="M90.46,118.61a7.16,7.16,0,0,1,.46-1,3.58,3.58,0,0,1,.31-.45,2,2,0,0,1,.2-.21.63.63,0,0,1,.27-.14l0,.11a.26.26,0,0,1-.1-.23,1,1,0,0,1,.06-.25,2.3,2.3,0,0,1,.23-.44,5.93,5.93,0,0,1,.61-.79c-.19.27-.37.54-.53.82a2.76,2.76,0,0,0-.2.43c-.06.14-.08.31,0,.36a.08.08,0,0,1,0,.08s0,0,0,0h0a.87.87,0,0,0-.39.29,4.73,4.73,0,0,0-.31.43Q90.72,118.13,90.46,118.61Z"/><path class="cls-7" d="M88.32,116.76a.83.83,0,0,1,0-.42.51.51,0,0,1,.09-.22.47.47,0,0,1,.21-.16v.12a.16.16,0,0,1-.12-.06.25.25,0,0,1,0-.12.68.68,0,0,1,0-.2,1.37,1.37,0,0,1,.17-.37c0,.13,0,.25-.07.38a1,1,0,0,0,0,.17c0,.05,0,.08,0,.08h0a.05.05,0,0,1,0,.06.1.1,0,0,1,0,.06.37.37,0,0,0-.24.27A1.4,1.4,0,0,0,88.32,116.76Z"/><path class="cls-7" d="M92.69,119.36a4.23,4.23,0,0,1,0-1,2.69,2.69,0,0,1,.14-.52,1.21,1.21,0,0,1,.36-.46v.11a.13.13,0,0,1-.1-.1.45.45,0,0,1,0-.11.79.79,0,0,1,0-.22,3.31,3.31,0,0,1,.14-.41,6.18,6.18,0,0,1,.39-.77c-.1.27-.2.53-.31.79s-.09.27-.12.4a1.48,1.48,0,0,0,0,.19v.08l0,0a0,0,0,0,1,0,.07s0,0,0,0a1,1,0,0,0-.3.39,2.3,2.3,0,0,0-.15.49A5.83,5.83,0,0,0,92.69,119.36Z"/><path class="cls-7" d="M94.72,119.19a1.51,1.51,0,0,1,0-.56,1.29,1.29,0,0,1,.29-.57l0,.09s-.06,0-.09,0a.16.16,0,0,1-.07-.07.38.38,0,0,1,0-.15,1.33,1.33,0,0,1,.1-.28,2.82,2.82,0,0,1,.29-.5c-.07.18-.15.35-.21.52a1.29,1.29,0,0,0-.06.25.17.17,0,0,0,0,.1s0,0,0,0a0,0,0,0,1,0,.06,0,0,0,0,1,0,0h0a.48.48,0,0,0-.09.11l-.08.12c0,.09-.08.18-.11.27A3.45,3.45,0,0,0,94.72,119.19Z"/><path class="cls-7" d="M93.75,119.59a7.17,7.17,0,0,1,.18-.9,2.74,2.74,0,0,1,.15-.46,2.14,2.14,0,0,1,.1-.22.53.53,0,0,1,.21-.21l0,0a1.66,1.66,0,0,1,.3-.43c.11-.13.24-.25.36-.37a8.37,8.37,0,0,1,.79-.66c-.25.23-.5.47-.73.72s-.23.25-.34.37a1.66,1.66,0,0,0-.27.4s0,0,0,0a.3.3,0,0,0-.13.14,2.12,2.12,0,0,0-.11.21c-.05.14-.11.29-.16.44Z"/><path class="cls-7" d="M90.11,117.17a1,1,0,0,1,0-.42.55.55,0,0,1,.1-.22.4.4,0,0,1,.22-.15v.11a.15.15,0,0,1-.11-.06.25.25,0,0,1,0-.12,1.2,1.2,0,0,1,0-.2,2,2,0,0,1,.18-.36c0,.12-.06.25-.07.37a.35.35,0,0,0,0,.17c0,.06,0,.08,0,.08h0a.06.06,0,0,1,0,.07s0,0,0,0a.42.42,0,0,0-.25.27A1.85,1.85,0,0,0,90.11,117.17Z"/><path class="cls-7" d="M90.26,118.65a4.07,4.07,0,0,1,0-1,2.19,2.19,0,0,1,.14-.53,1.06,1.06,0,0,1,.34-.48v.1a.11.11,0,0,1-.1-.12.43.43,0,0,1,0-.12,1,1,0,0,1,.07-.24,3.43,3.43,0,0,1,.19-.44,8.92,8.92,0,0,1,.49-.85l-.41.87c-.06.15-.12.29-.17.44a.9.9,0,0,0-.06.22.15.15,0,0,0,0,.09.06.06,0,0,0,0,0s.06,0,.05,0,0,0,0,0h0a1.15,1.15,0,0,0-.3.42,2.88,2.88,0,0,0-.15.5A9.23,9.23,0,0,0,90.26,118.65Z"/><path class="cls-7" d="M88.88,117.74a4.33,4.33,0,0,1,0-.8,2.71,2.71,0,0,1,.09-.41,1.72,1.72,0,0,1,.07-.21,1.28,1.28,0,0,1,.11-.2l0,.09a.27.27,0,0,1-.09,0,.17.17,0,0,1-.08-.06.41.41,0,0,1,0-.16,1,1,0,0,1,0-.28,2.14,2.14,0,0,1,.22-.52c0,.18-.1.36-.13.53a1.22,1.22,0,0,0,0,.26.3.3,0,0,0,0,.1,0,0,0,0,0,0,0s.06,0,.07,0a.08.08,0,0,1,0,0l-.09.17a1.46,1.46,0,0,0-.07.19,1.8,1.8,0,0,0-.1.4C89,117.2,88.92,117.47,88.88,117.74Z"/><path class="cls-7" d="M89.27,118.11a7.11,7.11,0,0,1,.06-.92,3.73,3.73,0,0,1,.09-.46,2.34,2.34,0,0,1,.09-.24.45.45,0,0,1,.18-.22l0,0a1.86,1.86,0,0,1,.25-.46l.31-.39a9.69,9.69,0,0,1,.7-.73c-.21.26-.43.52-.63.78s-.2.26-.3.4a2.73,2.73,0,0,0-.22.41.06.06,0,0,1,0,0,.3.3,0,0,0-.11.15.83.83,0,0,0-.08.22c0,.14-.08.29-.11.44C89.37,117.5,89.32,117.8,89.27,118.11Z"/><path class="cls-7" d="M80.81,116.1a6.83,6.83,0,0,1,.06-.77c0-.13,0-.26.08-.39s.08-.25.12-.38v.06a1,1,0,0,1-.15-.45,2.46,2.46,0,0,1,0-.47,3.58,3.58,0,0,1,.23-.91,4.87,4.87,0,0,0-.13.91,1.53,1.53,0,0,0,.15.84.06.06,0,0,1,0,.06h0l-.12.37-.09.37C80.9,115.59,80.85,115.85,80.81,116.1Z"/><path class="cls-7" d="M79.27,115.47a2.13,2.13,0,0,1-.1-.56c0-.1,0-.2,0-.3a.76.76,0,0,1,.13-.29l0,.1a.19.19,0,0,1-.16-.11.52.52,0,0,1-.06-.16,1.82,1.82,0,0,1,0-.33,3.46,3.46,0,0,1,.13-.64c0,.21,0,.43,0,.64a1.51,1.51,0,0,0,0,.3c0,.09.06.17.12.17a.06.06,0,0,1,.06.06.05.05,0,0,1,0,0h0a.9.9,0,0,0-.15.5A5.42,5.42,0,0,0,79.27,115.47Z"/><path class="cls-7" d="M85.14,117a6.44,6.44,0,0,1-.13-.88,2.34,2.34,0,0,1,0-.46,1,1,0,0,1,0-.24.39.39,0,0,1,.15-.24v.12a.19.19,0,0,1-.1-.1.52.52,0,0,1,0-.11,1.65,1.65,0,0,1,0-.21l0-.43a7.91,7.91,0,0,1,.16-.82l-.06.82a2.84,2.84,0,0,0,0,.41,1.21,1.21,0,0,0,0,.19c0,.06,0,.13,0,.12s.06,0,.06,0a.06.06,0,0,1,0,.06l0,0a.3.3,0,0,0-.09.15,1.43,1.43,0,0,0,0,.22,3.2,3.2,0,0,0,0,.44C85.1,116.42,85.12,116.72,85.14,117Z"/><path class="cls-7" d="M73.06,115.35a3.62,3.62,0,0,1-.14-.73,1.53,1.53,0,0,1,0-.37.56.56,0,0,1,.14-.38l0,.11a.18.18,0,0,1-.12-.08.54.54,0,0,1,0-.11,1.18,1.18,0,0,1-.07-.2,3.1,3.1,0,0,1-.08-.42,7.93,7.93,0,0,1-.07-.84c.06.28.11.55.16.82a3.89,3.89,0,0,0,.1.4l.06.19c0,.06.07.12.08.11a.06.06,0,0,1,.07,0,.06.06,0,0,1,0,.07l0,0a.5.5,0,0,0-.1.29,2.17,2.17,0,0,0,0,.36C73,114.86,73,115.1,73.06,115.35Z"/><path class="cls-7" d="M84.13,117.14a8.8,8.8,0,0,1,.1-1c0-.17.07-.34.11-.52a2.41,2.41,0,0,1,.08-.25.76.76,0,0,1,.16-.25l0,.1a.08.08,0,0,1-.09,0,.16.16,0,0,1,0-.07s0-.09,0-.14v-.27c0-.18,0-.36.05-.54,0-.35.12-.71.2-1.06,0,.35-.08.71-.11,1.06l0,.53a1.13,1.13,0,0,0,0,.26s0,.08,0,.11,0,.06,0,0l0,.11a.52.52,0,0,0-.12.19,2.25,2.25,0,0,0-.08.24c0,.17-.09.34-.12.5C84.26,116.46,84.19,116.8,84.13,117.14Z"/><path class="cls-7" d="M83.49,116.5a5.94,5.94,0,0,1,.23-.75,3,3,0,0,1,.15-.38l.08-.18,0-.09a.31.31,0,0,1,.08-.1l0,.11A.14.14,0,0,1,84,115a.4.4,0,0,1,0-.15,1.36,1.36,0,0,1,0-.3,2.75,2.75,0,0,1,.2-.57c0,.2-.09.39-.11.57s0,.19,0,.28a.31.31,0,0,0,0,.11s0,0,.06,0h0a.06.06,0,0,1,0,.06l0,0a.19.19,0,0,0,0,.06l0,.08-.08.18-.16.36Z"/><path class="cls-7" d="M82.68,115.57a.79.79,0,0,1-.08-.41.46.46,0,0,1,.06-.23.45.45,0,0,1,.18-.18l0,.12a.12.12,0,0,1-.12-.05.19.19,0,0,1,0-.11.5.5,0,0,1,0-.21,1.27,1.27,0,0,1,.11-.38c0,.13,0,.26,0,.38a.91.91,0,0,0,0,.17c0,.06,0,.08,0,.08h0a0,0,0,0,1,0,.06s0,0,0,0a.39.39,0,0,0-.2.3A1.41,1.41,0,0,0,82.68,115.57Z"/><path class="cls-7" d="M83.16,116.88a4,4,0,0,1-.21-1,2.37,2.37,0,0,1,0-.53.93.93,0,0,1,.24-.51l0,.1a.12.12,0,0,1-.11-.08.3.3,0,0,1,0-.11,1.7,1.7,0,0,1,0-.22c0-.14,0-.28,0-.42a6.31,6.31,0,0,1,.21-.83l-.12.83a2.93,2.93,0,0,0,0,.41,1.27,1.27,0,0,0,0,.2.19.19,0,0,1,0,.07l0,0a.06.06,0,0,1,0,.06.05.05,0,0,1,0,0,.9.9,0,0,0-.21.44,2.74,2.74,0,0,0,0,.5A6.79,6.79,0,0,0,83.16,116.88Z"/><path class="cls-7" d="M74.91,116a8.83,8.83,0,0,1-.11-1,4.51,4.51,0,0,1,0-.52,2.48,2.48,0,0,1,0-.27.6.6,0,0,1,.1-.27l.06.1a.1.1,0,0,1-.11,0,.18.18,0,0,1,0-.07s0-.09,0-.13l-.06-.27c0-.18,0-.35-.06-.53q0-.54,0-1.08l.12,1.07c0,.17,0,.35.08.52a1.14,1.14,0,0,0,.06.25s0,.08,0,.11,0,0,0,0l.05.1a.86.86,0,0,0-.07.21l0,.25c0,.17,0,.34,0,.51C74.9,115.34,74.91,115.69,74.91,116Z"/><path class="cls-7" d="M74.15,115.5c0-.26,0-.52.07-.78s0-.26.07-.38l0-.2,0-.1a.22.22,0,0,1,.06-.1l0,.1a.17.17,0,0,1-.16-.08.31.31,0,0,1-.06-.16,1,1,0,0,1,0-.29,2.32,2.32,0,0,1,.07-.59c0,.2,0,.39,0,.58a2.19,2.19,0,0,0,0,.27.28.28,0,0,0,0,.11.07.07,0,0,0,.06,0h0s.05,0,.06.06a.08.08,0,0,1,0,0,.24.24,0,0,0,0,.07l0,.08a1.33,1.33,0,0,1,0,.19l-.08.38Z"/><path class="cls-7" d="M73.9,115.92a4.18,4.18,0,0,1-.41-.94,1.84,1.84,0,0,1-.09-.53.83.83,0,0,1,.13-.53l0,.1a.14.14,0,0,1-.13-.07.53.53,0,0,1-.06-.1,1,1,0,0,1,0-.22,3,3,0,0,1,0-.42,5.9,5.9,0,0,1,0-.84l.06.83c0,.14,0,.28,0,.41a1.06,1.06,0,0,0,.06.19.25.25,0,0,0,0,.07s0,0,0,0a.06.06,0,0,1,.06,0,.07.07,0,0,1,0,0,.87.87,0,0,0-.11.46,2.15,2.15,0,0,0,.07.5A6.48,6.48,0,0,0,73.9,115.92Z"/><path class="cls-7" d="M79.62,116.42a8.68,8.68,0,0,1,0-1c0-.17,0-.35,0-.52a2.44,2.44,0,0,1,.06-.26.71.71,0,0,1,.13-.26l0,.1a.12.12,0,0,1-.1,0l0-.07a.74.74,0,0,1,0-.14,2.45,2.45,0,0,1,0-.27c0-.18,0-.36,0-.54a9.45,9.45,0,0,1,.09-1.07v1.07c0,.17,0,.35,0,.52l0,.26a.36.36,0,0,0,0,.11s0,0,0,0l0,.1a.59.59,0,0,0-.1.21l-.06.24c0,.17,0,.34-.07.51Z"/><path class="cls-7" d="M78,116.16a7.37,7.37,0,0,1,.17-1,4.91,4.91,0,0,1,.17-.5,1.09,1.09,0,0,1,.14-.23.48.48,0,0,1,.21-.19v.12a.3.3,0,0,1-.16-.22,1.06,1.06,0,0,1,0-.25,2.46,2.46,0,0,1,.1-.47,4.61,4.61,0,0,1,.36-.89c-.1.3-.2.6-.28.9a4,4,0,0,0-.07.46c0,.15,0,.31.11.35a.07.07,0,0,1,0,.08s0,0,0,0h0a.69.69,0,0,0-.29.35,3.94,3.94,0,0,0-.18.48C78.17,115.49,78.09,115.83,78,116.16Z"/><path class="cls-7" d="M75.4,114.79a1,1,0,0,1-.15-.41.46.46,0,0,1,0-.23.38.38,0,0,1,.16-.19l0,.11a.17.17,0,0,1-.13,0,.24.24,0,0,1,0-.1.78.78,0,0,1,0-.21,1.76,1.76,0,0,1,.06-.39c0,.13,0,.26,0,.38a.86.86,0,0,0,0,.17c0,.05,0,.07.07.07h0s.06,0,.07,0a.06.06,0,0,1,0,.06.34.34,0,0,0-.16.32A1.53,1.53,0,0,0,75.4,114.79Z"/><path class="cls-7" d="M80.41,116.45a4.49,4.49,0,0,1-.27-1,2.34,2.34,0,0,1,0-.53.91.91,0,0,1,.21-.53l0,.11a.17.17,0,0,1-.13-.07.56.56,0,0,1,0-.12,1.49,1.49,0,0,1,0-.21,3,3,0,0,1,0-.42,7.56,7.56,0,0,1,.14-.83l-.06.83a2.8,2.8,0,0,0,0,.41,1.23,1.23,0,0,0,0,.19l0,.07s0,0,0,0a.06.06,0,0,1,.06.06s0,0,0,.05a.86.86,0,0,0-.18.44,2.09,2.09,0,0,0,0,.5A6.74,6.74,0,0,0,80.41,116.45Z"/><path class="cls-7" d="M82.33,115.88a1.6,1.6,0,0,1-.16-.55,1,1,0,0,1,.11-.61l.06.08a.14.14,0,0,1-.09,0,.1.1,0,0,1-.08,0,.23.23,0,0,1,0-.15.87.87,0,0,1,0-.28,2.59,2.59,0,0,1,.13-.55c0,.19,0,.37-.05.55a2.09,2.09,0,0,0,0,.25.51.51,0,0,0,0,.1,0,0,0,0,0,0,0s.07,0,.07,0a0,0,0,0,1,0,0h0a.69.69,0,0,0,0,.13.65.65,0,0,0,0,.13,1.42,1.42,0,0,0,0,.29A2.74,2.74,0,0,0,82.33,115.88Z"/><path class="cls-7" d="M81.51,116.46a8.73,8.73,0,0,1-.1-.91,3.53,3.53,0,0,1,0-.46c0-.08,0-.16,0-.25a.48.48,0,0,1,.13-.24l0,.05a1.51,1.51,0,0,1,.16-.48c.07-.14.16-.29.24-.43a9,9,0,0,1,.56-.81c-.17.28-.33.57-.49.85a4.25,4.25,0,0,0-.21.43,1.64,1.64,0,0,0-.15.44.05.05,0,0,1,0,0,.45.45,0,0,0-.08.17,1.43,1.43,0,0,0,0,.22c0,.15,0,.3,0,.45C81.5,115.85,81.51,116.15,81.51,116.46Z"/><path class="cls-7" d="M77.26,114.84a.94.94,0,0,1-.13-.41.46.46,0,0,1,0-.23.35.35,0,0,1,.17-.19l0,.11a.14.14,0,0,1-.12,0,.27.27,0,0,1-.06-.1.75.75,0,0,1,0-.21,1.34,1.34,0,0,1,.07-.39c0,.13,0,.26,0,.38a.86.86,0,0,0,0,.17s0,.07.07.07h0a.06.06,0,0,1,.06.06.07.07,0,0,1,0,.06.34.34,0,0,0-.17.31A1.18,1.18,0,0,0,77.26,114.84Z"/><path class="cls-7" d="M77.83,116.24a4.69,4.69,0,0,1-.27-1,2.43,2.43,0,0,1,0-.54,1,1,0,0,1,.19-.54l.05.1a.14.14,0,0,1-.14-.1.5.5,0,0,1,0-.12,1.91,1.91,0,0,1,0-.24,3.55,3.55,0,0,1,.06-.47,6.87,6.87,0,0,1,.23-.92c0,.31-.1.62-.14.92a3.73,3.73,0,0,0,0,.46.88.88,0,0,0,0,.23.24.24,0,0,0,0,.09s0,0,0,0a.06.06,0,0,1,.07,0,.08.08,0,0,1,0,0h0a.92.92,0,0,0-.17.46,2.26,2.26,0,0,0,0,.52A8.85,8.85,0,0,0,77.83,116.24Z"/><path class="cls-7" d="M76.23,115.65a4.46,4.46,0,0,1-.2-.8,3,3,0,0,1,0-.42,1.48,1.48,0,0,1,0-.21,2.25,2.25,0,0,1,0-.22l.08.08s-.06,0-.09,0a.11.11,0,0,1-.09,0,.34.34,0,0,1-.08-.14,1.42,1.42,0,0,1,0-.29,3.41,3.41,0,0,1,0-.55l0,.55c0,.08,0,.17,0,.25A.19.19,0,0,0,76,114s0,0,0,0a.05.05,0,0,1,.08,0v0a1.21,1.21,0,0,0,0,.18c0,.07,0,.13,0,.2s0,.27,0,.4C76.14,115.11,76.19,115.37,76.23,115.65Z"/><path class="cls-7" d="M76.71,115.92a6.54,6.54,0,0,1-.2-.9,3.56,3.56,0,0,1-.05-.47,1,1,0,0,1,0-.24.44.44,0,0,1,.1-.25l0,0a1.85,1.85,0,0,1,.11-.49c.06-.15.13-.3.2-.45a7.9,7.9,0,0,1,.47-.85c-.14.3-.27.59-.4.89-.06.14-.11.29-.17.44a1.89,1.89,0,0,0-.09.45.08.08,0,0,1,0,.05.27.27,0,0,0-.07.17,1.77,1.77,0,0,0,0,.23c0,.15,0,.3,0,.45C76.63,115.31,76.67,115.61,76.71,115.92Z"/><path class="cls-4" d="M73.38,187.2c-.27-16.83-.27-27.93-.3-33.14,0,5.25,0,16.32-.32,33.23,0,.5,0,1,0,1.5l.68-.08c0-.45,0-.88,0-1.32A1.15,1.15,0,0,1,73.38,187.2Z"/><path class="cls-8" d="M67.65,116.13A43.7,43.7,0,0,0,47,123.48c-.43.76-7.42,6.55-7.07,34.88a87.33,87.33,0,0,0,.75,9.8c.08.6.15,1.19.23,1.81,1.45,10.45,4.29,23.28,7.31,39.06,0,.09,0,.19.05.28C55.42,204.38,39.05,155.37,67.65,116.13Z"/><path class="cls-8" d="M99.38,124.08a53.54,53.54,0,0,0-20.46-7.85C107.5,155.55,91,204.66,98.25,209.35l.24-1.27c2.91-15.62,3.55-28.48,4.85-38.89.08-.61.14-1.19.21-1.78a92.65,92.65,0,0,0,.65-9.32C104.55,129.82,99.38,124.08,99.38,124.08Z"/><path class="cls-4" d="M75.06,229.49c.46.08.92.13,1.38.17,0-.16,0-.31,0-.46A13.37,13.37,0,0,1,75.06,229.49Z"/><path class="cls-4" d="M73.41,188.71c0-.45,0-.88,0-1.32a1.15,1.15,0,0,1,0-.19c-.27-16.83-.27-27.93-.3-33.14,0,5.25,0,16.32-.32,33.23,0,.5,0,1,0,1.5v0c-.2,11-.52,24.51-1,40.37.45.12,2.91.22,3.37.29a13.37,13.37,0,0,0,1.37-.29C75.91,213.32,73.6,199.81,73.41,188.71Z"/><path class="cls-4" d="M71.67,229.66c.47,0,2.93-.09,3.39-.17-.46-.07-2.92-.17-3.37-.29C71.68,229.35,71.68,229.5,71.67,229.66Z"/><path class="cls-9" d="M48.47,210.15c1.11,5.85,2.24,12.08,3.33,18.76,0,0-.48,49,6.15,56.34,4.9,1.95,7.65,1.5,10.9.42,2.32-1.58,4.53-33.7,2-51.41.05-1.53-1-3.27-.95-4.77,0-.15-.22-.14-.21-.29C60.91,226.87,53,216.86,48.47,210.15Z"/><path class="cls-9" d="M69.69,229.2c.52-15.86,2.84-29.32,3-40.37v0c0-.51,0-1,0-1.5.29-16.91.3-28,.32-33.23,0,5.21,0,16.31.3,33.14a1.15,1.15,0,0,0,0,.19c0,.44,0,.87,0,1.32.19,11.1,2.5,24.61,3,40.49,9.16-2.42,17.41-13.2,21.77-19.89-7.12-4.89,9.23-53.85-19.28-93.08a35.85,35.85,0,0,0-6.34-.36c-1.68,0-3.33.1-4.93.26-28.6,39.24-12.23,88.25-19.34,93.18,0,.28.11.56.16.84C53,216.86,60.91,226.87,69.69,229.2Z"/><path class="cls-9" d="M76.44,229.66c.06,1.64.11,3.3.17,5-1.24,18.62-1.7,49.14.93,51.27,5.67,1.45,4.82,1.2,10.56.35,6.44-6.56,6.61-56.68,6.61-56.68,1.17-7.21,2.38-13.95,3.54-20.25l0,0C93.84,216,85.59,226.78,76.43,229.2c0,.15,0,.3,0,.46"/><path class="cls-7" d="M68.35,286.27a1.74,1.74,0,0,1-.13-.26s0-.09,0-.13a.8.8,0,0,1,0-.15c0-.05,0-.1,0-.15a.85.85,0,0,1,0-.16l0-.16a.75.75,0,0,1,0-.16l.08-.14a.52.52,0,0,1,.1-.11,1.75,1.75,0,0,1,.29-.22h0a.87.87,0,0,1-.08.26.73.73,0,0,0,0,.12.43.43,0,0,1,0,.13l-.07.14-.06.15a.42.42,0,0,0,0,.15c0,.05,0,.1,0,.15a.65.65,0,0,0,0,.14.48.48,0,0,0,0,.12,1.15,1.15,0,0,0,.06.26Z"/><path class="cls-7" d="M67.62,285s.08,0,.07,0l0,0-.11.05-.2.11a1.25,1.25,0,0,0-.35.23,1.4,1.4,0,0,0-.42.54l-.08.17-.06-.18a.78.78,0,0,1,0-.26l0-.26.07-.5.18-1a5.28,5.28,0,0,1,.32-1,3.67,3.67,0,0,1,.25-.48,2.18,2.18,0,0,1,.36-.47h0a3,3,0,0,0-.2.49l-.15.49-.3,1c-.11.33-.21.66-.29,1l-.11.49,0,.26a.65.65,0,0,0,0,.24h-.14a1.76,1.76,0,0,1,.49-.54,2.6,2.6,0,0,1,.37-.23l.22-.09.11-.05,0,0h0Z"/><path class="cls-7" d="M64.65,286s0-.26,0-.65a12.73,12.73,0,0,1,.08-1.41,6.18,6.18,0,0,1,.13-.75c0-.12.09-.23.14-.33l.18-.3a2.51,2.51,0,0,1,.19-.24.79.79,0,0,1,.19-.18l.17-.15h0l-.09.16c0,.06-.07.12-.1.19l-.12.25a3.11,3.11,0,0,1-.12.3c0,.11-.07.22-.11.33s-.17.48-.24.74a10.82,10.82,0,0,0-.23,1.39l0,.64Z"/><path class="cls-7" d="M61.25,285.61s0-.27,0-.67c0-.2,0-.44,0-.69s-.05-.52-.08-.78a2.79,2.79,0,0,0-.07-.4c0-.13-.06-.26-.1-.38a3.07,3.07,0,0,0-.11-.36,1.53,1.53,0,0,0-.13-.32,1.73,1.73,0,0,0-.15-.27,1.2,1.2,0,0,0-.17-.21l-.16-.18h0l.27.17.14.1.12.1A3.22,3.22,0,0,1,61,282a1.74,1.74,0,0,1,.18.33,1.15,1.15,0,0,1,.12.37,1.67,1.67,0,0,1,.05.39c0,.13,0,.27,0,.4s0,.54,0,.79,0,.48,0,.67c0,.4,0,.67,0,.67Z"/><path class="cls-7" d="M60.72,285.16s-.11-.07-.26-.19l-.27-.21-.13-.12-.14-.13c-.07-.09-.18-.18-.23-.26l-.06-.13s0-.08,0-.12a.45.45,0,0,1,.06-.23h0a1.32,1.32,0,0,1,.16.23s0,.06.08.1a1.27,1.27,0,0,1,.07.12.37.37,0,0,0,.07.12l.07.13.1.13.1.12.19.22a1.85,1.85,0,0,0,.2.22Z"/><path class="cls-7" d="M57.11,282.56a6.52,6.52,0,0,1,.66.76,5.13,5.13,0,0,1,.49.79,2.87,2.87,0,0,1,.18.4,2.64,2.64,0,0,1,.12.4,1.38,1.38,0,0,1,0,.2,1.36,1.36,0,0,1,0,.2c0,.07,0,.14,0,.2l0,.2-.22,0a1,1,0,0,0,.41-.41,1.69,1.69,0,0,0,.12-.48,4.8,4.8,0,0,0-.06-1c0-.34-.1-.67-.16-1l-.18-1h0c.15.34.27.68.38,1a8,8,0,0,1,.25,1,3.5,3.5,0,0,1,0,1,1.33,1.33,0,0,1-.16.5,1,1,0,0,1-.48.45l-.25.12,0-.17,0-.2a1.21,1.21,0,0,0,0-.19.67.67,0,0,0,0-.2c0-.06,0-.13,0-.2a2.74,2.74,0,0,0-.09-.39c-.05-.13-.09-.26-.15-.4a5,5,0,0,0-.43-.78,6,6,0,0,0-.61-.77Z"/><path class="cls-7" d="M63.26,282.1a1.8,1.8,0,0,1,.14.43,1.63,1.63,0,0,1,0,.44,2.8,2.8,0,0,1-.14.85,4.43,4.43,0,0,1-.38.83,2.82,2.82,0,0,1-.29.39,1.47,1.47,0,0,1-.4.33l-.12-.09a1.17,1.17,0,0,0,.36-.48.35.35,0,0,0,0-.14.4.4,0,0,0,0-.15.37.37,0,0,0-.08-.15l-.14-.14a1.41,1.41,0,0,1,.18.14.49.49,0,0,1,.11.14.64.64,0,0,1,.06.16.43.43,0,0,1,0,.16,1.18,1.18,0,0,1-.35.54l-.14-.09a1.58,1.58,0,0,0,.32-.31,2.92,2.92,0,0,0,.24-.37,6.19,6.19,0,0,0,.34-.8,6.07,6.07,0,0,0,.21-.84A4.79,4.79,0,0,0,63.26,282.1Z"/><path class="cls-7" d="M87.51,286.43a1,1,0,0,1-.12-.26.5.5,0,0,1,0-.13.8.8,0,0,1,0-.15c0-.05,0-.1,0-.16a.43.43,0,0,1,0-.16v-.16a1,1,0,0,1,0-.16l.07-.14a.48.48,0,0,1,.09-.11,2.2,2.2,0,0,1,.27-.23h0a.88.88,0,0,1-.08.27s0,.07,0,.12a.69.69,0,0,1,0,.13l-.07.15-.06.14a1.1,1.1,0,0,0,0,.16.77.77,0,0,0,0,.15s0,.09,0,.14v.13a2.2,2.2,0,0,0,0,.26Z"/><path class="cls-7" d="M86.86,285.17s.07,0,0,0a.08.08,0,0,1,0,0l-.1.05-.18.1a2,2,0,0,0-.32.23,1.51,1.51,0,0,0-.39.55l-.08.18,0-.19a.78.78,0,0,1,0-.26l0-.26.07-.51.18-1a5.3,5.3,0,0,1,.3-1,4.4,4.4,0,0,1,.24-.49,2,2,0,0,1,.33-.47h0a4.24,4.24,0,0,0-.18.5l-.15.49-.28,1a8.68,8.68,0,0,0-.27,1l-.11.5,0,.25a.7.7,0,0,0,0,.25h-.12a1.63,1.63,0,0,1,.44-.56,3.54,3.54,0,0,1,.35-.23l.2-.09.1,0,0,0s0,0,0,0Z"/><path class="cls-7" d="M84.13,286.11s0-.26,0-.65,0-.91.09-1.43a6.18,6.18,0,0,1,.13-.75c0-.12.08-.24.13-.35l.17-.29a1.24,1.24,0,0,1,.18-.25c.05-.07.12-.13.16-.18l.17-.15h0l-.09.17a.67.67,0,0,0-.09.19c0,.07-.07.16-.11.25s-.08.19-.12.3-.07.22-.1.33-.17.49-.23.75a13.2,13.2,0,0,0-.22,1.4c0,.39-.06.65-.06.65Z"/><path class="cls-7" d="M81,285.76s0-.27,0-.67c0-.2,0-.44,0-.7s0-.52-.07-.79l-.06-.4c0-.13-.06-.26-.09-.39s-.07-.25-.09-.36a1.85,1.85,0,0,0-.12-.33,1.74,1.74,0,0,0-.14-.27.78.78,0,0,0-.14-.2l-.15-.19h0l.25.17.12.09.1.11a1.51,1.51,0,0,1,.22.28,2.55,2.55,0,0,1,.17.33,2.24,2.24,0,0,1,.1.37,2.71,2.71,0,0,1,0,.4v.41c0,.27,0,.54,0,.79s0,.49,0,.68c0,.41,0,.67,0,.67Z"/><path class="cls-7" d="M80.56,285.32l-.23-.2-.24-.21-.13-.12-.12-.13a2.47,2.47,0,0,1-.21-.27.65.65,0,0,1,0-.13.36.36,0,0,1,0-.35h0a1.25,1.25,0,0,1,.14.23.61.61,0,0,0,.07.1l.06.12a.67.67,0,0,0,.06.12l.07.14.09.13.09.13.17.22a2.36,2.36,0,0,0,.18.21Z"/><path class="cls-7" d="M77.3,282.68a5.33,5.33,0,0,1,.59.78,7,7,0,0,1,.45.79c.06.13.11.27.16.4s.07.28.1.41,0,.14,0,.2a1.48,1.48,0,0,1,0,.21,1.33,1.33,0,0,1,0,.2l0,.2-.19-.05a.87.87,0,0,0,.37-.42,1.67,1.67,0,0,0,.12-.49,5.77,5.77,0,0,0,0-1c0-.33-.09-.67-.15-1l-.14-1h0c.13.34.24.68.34,1a7.39,7.39,0,0,1,.21,1,4,4,0,0,1,0,1,1.24,1.24,0,0,1-.15.51,1,1,0,0,1-.45.45l-.22.12,0-.17,0-.2a1.23,1.23,0,0,0,0-.2.61.61,0,0,0,0-.19,1.23,1.23,0,0,0,0-.2,2.79,2.79,0,0,0-.07-.4,3.17,3.17,0,0,0-.14-.4,5.8,5.8,0,0,0-.38-.8,5.47,5.47,0,0,0-.55-.77Z"/><path class="cls-7" d="M82.91,282.22a1.8,1.8,0,0,1,.12.44,2.17,2.17,0,0,1,0,.44,3.16,3.16,0,0,1-.14.86,3.87,3.87,0,0,1-.36.84,2,2,0,0,1-.26.39,1.51,1.51,0,0,1-.37.34l-.12-.09a1.35,1.35,0,0,0,.35-.49.77.77,0,0,0,0-.15.36.36,0,0,0,0-.14.55.55,0,0,0-.08-.15.75.75,0,0,0-.12-.14l.16.13a.65.65,0,0,1,.1.15.37.37,0,0,1,0,.16.29.29,0,0,1,0,.16,1.21,1.21,0,0,1-.33.55l-.12-.09a1.45,1.45,0,0,0,.29-.32,2.85,2.85,0,0,0,.23-.37,6.13,6.13,0,0,0,.31-.81,6.21,6.21,0,0,0,.21-.85A4.91,4.91,0,0,0,82.91,282.22Z"/><polyline class="cls-10" points="72.9 135.29 72.76 134.95 72.63 135.29 72.49 134.95 72.36 135.29"/><line class="cls-10" x1="72.36" y1="135.29" x2="72.36" y2="134.95"/><polyline class="cls-10" points="73.44 135.29 73.31 134.95 73.17 135.29 73.03 134.95 72.9 135.29"/><polyline class="cls-10" points="73.99 135.29 73.85 134.95 73.72 135.29 73.58 134.95 73.44 135.29"/><line class="cls-10" x1="73.99" y1="135.29" x2="73.99" y2="134.95"/><line class="cls-11" x1="72.73" y1="135.56" x2="72.73" y2="136.38"/><line class="cls-11" x1="73.52" y1="135.56" x2="73.52" y2="136.38"/><line class="cls-11" x1="72.73" y1="137.21" x2="72.74" y2="138.03"/><line class="cls-11" x1="73.53" y1="137.21" x2="73.53" y2="138.03"/><line class="cls-11" x1="72.74" y1="138.86" x2="72.74" y2="139.68"/><line class="cls-11" x1="73.53" y1="138.85" x2="73.54" y2="139.68"/><line class="cls-11" x1="72.75" y1="140.51" x2="72.75" y2="141.33"/><line class="cls-11" x1="73.54" y1="140.5" x2="73.54" y2="141.33"/><line class="cls-11" x1="72.75" y1="142.16" x2="72.76" y2="142.98"/><line class="cls-11" x1="73.54" y1="142.15" x2="73.55" y2="142.98"/><line class="cls-11" x1="72.76" y1="143.8" x2="72.76" y2="144.63"/><line class="cls-11" x1="73.55" y1="143.8" x2="73.55" y2="144.63"/><line class="cls-11" x1="72.77" y1="145.45" x2="72.77" y2="146.28"/><line class="cls-11" x1="73.56" y1="145.45" x2="73.56" y2="146.27"/><line class="cls-11" x1="72.77" y1="147.1" x2="72.77" y2="147.93"/><line class="cls-11" x1="73.56" y1="147.1" x2="73.57" y2="147.92"/><line class="cls-11" x1="72.78" y1="148.75" x2="72.78" y2="149.57"/><line class="cls-11" x1="73.57" y1="148.75" x2="73.57" y2="149.57"/><line class="cls-11" x1="72.78" y1="150.4" x2="72.79" y2="151.22"/><line class="cls-11" x1="73.58" y1="150.4" x2="73.58" y2="151.22"/><line class="cls-11" x1="72.79" y1="152.05" x2="72.79" y2="152.87"/><line class="cls-11" x1="73.58" y1="152.05" x2="73.58" y2="152.87"/><line class="cls-11" x1="72.8" y1="153.7" x2="72.8" y2="154.52"/><line class="cls-11" x1="73.59" y1="153.69" x2="73.59" y2="154.52"/><polyline class="cls-10" points="72.95 140.3 72.81 139.96 72.68 140.3 72.54 139.96 72.41 140.3"/><line class="cls-10" x1="72.41" y1="140.3" x2="72.41" y2="139.96"/><polyline class="cls-10" points="73.49 140.3 73.36 139.96 73.22 140.3 73.08 139.96 72.95 140.3"/><polyline class="cls-10" points="74.03 140.3 73.9 139.96 73.76 140.3 73.63 139.96 73.49 140.3"/><line class="cls-10" x1="74.04" y1="140.3" x2="74.04" y2="139.96"/><path class="cls-12" d="M72.13,115.71,72.24,146a.12.12,0,0,1-.12.12h0A9,9,0,0,0,69,147a16,16,0,0,0-2.77,1.69,5.79,5.79,0,0,0-1.18,1.07.53.53,0,0,0-.1.6,1.19,1.19,0,0,0,.59.41,12.36,12.36,0,0,0,3.18.5c2.18.12,4.37,0,6.56.06a1.42,1.42,0,0,1,.84.19.71.71,0,0,1,0,.86,5.69,5.69,0,0,1-1,1.35A24.29,24.29,0,0,1,72.84,156h0s0,0,0,0a25.4,25.4,0,0,0,2.31-2.33,6.21,6.21,0,0,0,.91-1.32c.11-.23.17-.53,0-.66a1.31,1.31,0,0,0-.73-.14c-2.18,0-4.38.12-6.57,0a11.51,11.51,0,0,1-3.28-.51,1.49,1.49,0,0,1-.73-.53.85.85,0,0,1,.11-.92,6,6,0,0,1,1.25-1.12,15.33,15.33,0,0,1,2.83-1.71,8.8,8.8,0,0,1,3.2-.87L72,146l.12-30.33s0,0,0,0A0,0,0,0,1,72.13,115.71Z"/></svg>