<svg id="圖層_1" data-name="圖層 1" xmlns="http://www.w3.org/2000/svg" viewBox="0 0 324.55 678.76"><defs><style>.cls-1,.cls-3{fill:#f8f1e3;}.cls-1,.cls-10,.cls-11,.cls-2,.cls-3,.cls-4,.cls-5,.cls-7,.cls-8,.cls-9{stroke:#231815;}.cls-1,.cls-10,.cls-11,.cls-2,.cls-4,.cls-5,.cls-7,.cls-8{stroke-linecap:round;}.cls-1,.cls-10,.cls-11,.cls-4,.cls-5,.cls-7{stroke-linejoin:round;}.cls-11,.cls-2,.cls-7,.cls-8{fill:none;}.cls-2,.cls-3,.cls-8,.cls-9{stroke-miterlimit:10;}.cls-4{fill:#cdc1d1;}.cls-5,.cls-9{fill:#252641;}.cls-6{fill:#231815;}.cls-7{stroke-width:0.5px;}.cls-8{stroke-width:0.75px;}.cls-10{fill:#fff;}.cls-12{fill:#595757;}</style></defs><path class="cls-1" d="M217.11,223.89c-3.37.16-32.15,13.17-94.06-1.89l3.57-8.68c61.91,15.06,84,2.08,87.39,1.92Z"/><path class="cls-2" d="M214.67,222.7c-.92.3-1.86.53-2.8.79"/><path class="cls-2" d="M209.06,224.2c-.95.23-1.89.45-2.84.64"/><path class="cls-2" d="M203.37,225.41c-1,.16-1.9.35-2.86.49"/><path class="cls-2" d="M197.63,226.32c-1,.14-1.92.25-2.88.36"/><path class="cls-2" d="M191.86,227c-1,.1-1.94.16-2.9.24"/><path class="cls-2" d="M186.06,227.38c-1,.06-1.94.09-2.91.12"/><path class="cls-2" d="M180.25,227.56c-1,0-1.94,0-2.91,0"/><line class="cls-2" x1="174.44" y1="227.53" x2="171.53" y2="227.44"/><line class="cls-2" x1="168.63" y1="227.3" x2="165.73" y2="227.1"/><line class="cls-2" x1="162.83" y1="226.87" x2="159.94" y2="226.59"/><path class="cls-2" d="M157.05,226.28c-1-.11-1.93-.22-2.89-.35"/><line class="cls-2" x1="151.28" y1="225.54" x2="148.41" y2="225.13"/><line class="cls-2" x1="145.53" y1="224.68" x2="142.67" y2="224.2"/><line class="cls-2" x1="139.81" y1="223.69" x2="136.95" y2="223.15"/><line class="cls-2" x1="134.1" y1="222.59" x2="131.25" y2="222"/><line class="cls-2" x1="128.41" y1="221.38" x2="125.58" y2="220.73"/><line class="cls-2" x1="127.74" y1="215.17" x2="130.45" y2="215.8"/><line class="cls-2" x1="133.17" y1="216.4" x2="135.89" y2="216.98"/><line class="cls-2" x1="138.62" y1="217.54" x2="141.35" y2="218.08"/><line class="cls-2" x1="144.09" y1="218.59" x2="146.83" y2="219.07"/><line class="cls-2" x1="149.57" y1="219.53" x2="152.32" y2="219.96"/><line class="cls-2" x1="155.08" y1="220.36" x2="157.83" y2="220.73"/><path class="cls-2" d="M160.6,221.06c.92.12,1.84.2,2.77.3"/><path class="cls-2" d="M166.14,221.63c.92.08,1.85.16,2.77.22"/><path class="cls-2" d="M171.69,222c.93,0,1.85.11,2.78.13"/><line class="cls-2" x1="177.25" y1="222.24" x2="180.03" y2="222.26"/><line class="cls-2" x1="182.82" y1="222.23" x2="185.6" y2="222.14"/><path class="cls-2" d="M188.38,222c.93-.05,1.85-.14,2.77-.21"/><line class="cls-2" x1="193.92" y1="221.5" x2="196.68" y2="221.15"/><path class="cls-2" d="M199.43,220.71c.92-.15,1.83-.33,2.74-.52"/><path class="cls-2" d="M204.88,219.59c.91-.22,1.8-.46,2.7-.7"/><path class="cls-2" d="M210.25,218.09c.88-.28,1.76-.56,2.64-.87"/><path class="cls-3" d="M151.36,227.8a271.87,271.87,0,0,1-28.31-5.38c-15.8,31-31.34,53.17-2.82,232.21,0,0-.23,2.43-.49,6.95a100.78,100.78,0,0,0,12.46,4.85c-.18-14.76-2.58-53.41-20.72-103.21C93.14,317.43,138.35,246.7,151.36,227.8Z"/><path class="cls-3" d="M218,457.52c29.86-178.23,13.58-201.54-.89-233.21-1.8.09-10.77,3.8-28.09,5,14.19,20.9,56.73,89.26,38.86,133.91-18.2,49.92-20.57,88.65-20.73,103.33a104.31,104.31,0,0,0,11.76-4.48C218.37,459.1,218,457.52,218,457.52Z"/><path class="cls-4" d="M189,229.31a187.1,187.1,0,0,1-37.66-1.51c-13,18.9-58.22,89.63-39.88,135.42C129.62,413,132,451.67,132.2,466.43A115.71,115.71,0,0,0,158,471.51c3.39-83.48,10.47-150.4,10.56-167.65.1,17.36,9.36,83.54,12.77,167.67a115.62,115.62,0,0,0,25.81-5c.16-14.68,2.53-53.41,20.73-103.33C245.75,318.57,203.21,250.21,189,229.31Z"/><path class="cls-5" d="M154.85,542.27c3.29-25.08,6.9-32.21,3-65.62.07-1.73.13-3.43.2-5.14a112.53,112.53,0,0,1-38.27-9.93c-1.1,18.79-8.16,74,8.23,142.23a224.27,224.27,0,0,1,3.2,28.37c3.14-3.62,6.29-6.47,11-6.47A18,18,0,0,1,154,630.6c0-.1,0-.19,0-.26C153.85,628.13,148,577.91,154.85,542.27Z"/><path class="cls-2" d="M152.25,627.08a19.23,19.23,0,0,0-2.71-1.39"/><path class="cls-2" d="M146.66,624.71a20.09,20.09,0,0,0-3-.57"/><path class="cls-2" d="M140.64,624.14a12,12,0,0,0-2.92.82"/><path class="cls-2" d="M135.05,626.41a27,27,0,0,0-2.41,1.85"/><path class="cls-2" d="M121.27,464c.87.35,1.73.7,2.6,1"/><line class="cls-2" x1="126.49" y1="466.04" x2="129.13" y2="466.95"/><path class="cls-2" d="M131.79,467.8c.89.28,1.78.55,2.68.81"/><path class="cls-2" d="M137.16,469.36c.89.25,1.8.47,2.7.7"/><path class="cls-2" d="M142.58,470.7c.91.22,1.82.4,2.73.59"/><path class="cls-2" d="M148.05,471.82c.92.18,1.84.32,2.76.47"/><path class="cls-2" d="M153.57,472.69c.92.14,1.85.24,2.78.34"/><path class="cls-5" d="M208.24,629.7c2.38-12.59,1.59-23.07,4.46-34.77,16.12-65.36,9-117.58,6.21-132.86a112.94,112.94,0,0,1-37.57,9.46c0,1.21.11,2.42.15,3.63-7.42,62.91,14.69,65.37,3.16,154.49,3.25-3,7.46-5.55,12.54-5.55C201.52,624.1,205.22,626.51,208.24,629.7Z"/><path class="cls-5" d="M156.68,658.9c-13-4-25.05-18.4-25.05-18.4L131,631s10.09,14.86,25.89,20.41A11.16,11.16,0,0,0,156.68,658.9Z"/><path class="cls-2" d="M154.65,656.7c-.94-.42-1.85-.89-2.75-1.38"/><path class="cls-2" d="M149.26,653.73c-.87-.54-1.7-1.14-2.55-1.72"/><path class="cls-2" d="M144.24,650.17c-.81-.63-1.62-1.26-2.4-1.92"/><path class="cls-2" d="M139.49,646.26c-.77-.68-1.54-1.36-2.29-2.06"/><path class="cls-2" d="M135,642.07c-.73-.73-1.44-1.46-2.13-2.23"/><path class="cls-2" d="M132.7,635.53c.7.74,1.42,1.47,2.15,2.2"/><path class="cls-2" d="M137.08,639.86c.76.7,1.51,1.4,2.29,2.07"/><path class="cls-2" d="M141.71,643.93c.8.64,1.59,1.3,2.42,1.91"/><path class="cls-2" d="M146.62,647.66c.84.59,1.7,1.15,2.57,1.7"/><path class="cls-2" d="M151.86,650.9c.9.49,1.84.92,2.78,1.33"/><path class="cls-5" d="M132.26,658.2c13-4,23.11-19,23.11-19l-1.15-9s-6.55,14.3-22.34,19.85A45.13,45.13,0,0,1,132.26,658.2Z"/><path class="cls-2" d="M154.31,639.18c-.63.76-1.28,1.5-1.94,2.23"/><path class="cls-2" d="M150.35,643.55c-.68.71-1.38,1.4-2.08,2.09"/><path class="cls-2" d="M146.11,647.65c-.72.67-1.47,1.3-2.21,1.94"/><path class="cls-2" d="M141.6,651.44c-.79.58-1.57,1.19-2.39,1.72"/><path class="cls-2" d="M136.72,654.75c-.41.26-.86.47-1.29.7a13.45,13.45,0,0,1-1.32.65"/><path class="cls-2" d="M133.78,650.87c.45-.16.88-.38,1.32-.57s.87-.39,1.29-.63"/><path class="cls-2" d="M138.88,648.23c.82-.5,1.59-1.07,2.37-1.61"/><path class="cls-2" d="M143.52,644.85c.76-.59,1.46-1.24,2.19-1.87"/><path class="cls-2" d="M147.79,641c.69-.66,1.35-1.36,2-2.06"/><path class="cls-2" d="M151.72,636.8c.62-.73,1.23-1.47,1.82-2.22"/><path class="cls-5" d="M182.27,657.92c13-4,25.06-18.39,25.06-18.39L208,630s-10.1,14.87-25.9,20.41A11.14,11.14,0,0,1,182.27,657.92Z"/><path class="cls-2" d="M184.32,655.73c.93-.42,1.85-.89,2.74-1.39"/><path class="cls-2" d="M189.7,652.76c.88-.54,1.7-1.15,2.55-1.72"/><path class="cls-2" d="M194.72,649.2c.81-.63,1.62-1.26,2.41-1.92"/><path class="cls-2" d="M199.48,645.29c.76-.68,1.54-1.36,2.28-2.06"/><path class="cls-2" d="M204,641.1c.72-.73,1.44-1.46,2.12-2.23"/><path class="cls-2" d="M206.26,634.55c-.7.75-1.42,1.48-2.15,2.2"/><path class="cls-2" d="M201.88,638.89c-.75.69-1.51,1.39-2.28,2.07"/><path class="cls-2" d="M197.25,643c-.8.64-1.59,1.3-2.42,1.91"/><path class="cls-2" d="M192.34,646.69c-.84.58-1.7,1.15-2.57,1.69"/><path class="cls-2" d="M187.1,649.92c-.9.5-1.83.93-2.77,1.34"/><path class="cls-5" d="M206.7,657.23c-13-4-23.11-19-23.11-19l1.16-8.94s6.54,14.3,22.34,19.85A44.44,44.44,0,0,0,206.7,657.23Z"/><path class="cls-2" d="M184.66,638.22c.62.75,1.28,1.49,1.93,2.22"/><path class="cls-2" d="M188.61,642.58c.68.72,1.39,1.4,2.09,2.09"/><path class="cls-2" d="M192.85,646.68c.72.67,1.47,1.3,2.22,1.94"/><path class="cls-2" d="M197.37,650.47c.79.58,1.56,1.19,2.38,1.73"/><path class="cls-2" d="M202.24,653.78c.41.27.86.47,1.29.7s.87.48,1.32.66"/><path class="cls-2" d="M205.19,649.9c-.46-.16-.88-.38-1.32-.58a12.8,12.8,0,0,1-1.29-.63"/><path class="cls-2" d="M200.09,647.26c-.82-.5-1.6-1.07-2.38-1.62"/><path class="cls-2" d="M195.44,643.88c-.75-.6-1.46-1.24-2.18-1.87"/><path class="cls-2" d="M191.17,640c-.69-.67-1.34-1.37-2-2.06"/><path class="cls-2" d="M187.25,635.82c-.63-.72-1.23-1.46-1.82-2.22"/><path class="cls-2" d="M187,625.39a15.08,15.08,0,0,1,2.7-1.49"/><path class="cls-2" d="M192.58,622.89a22.45,22.45,0,0,1,3-.57"/><path class="cls-2" d="M198.69,622.29a11.76,11.76,0,0,1,3,.8"/><path class="cls-2" d="M204.38,624.55a24.76,24.76,0,0,1,2.45,1.87"/><path class="cls-2" d="M218.1,464.36c-.86.35-1.72.7-2.59,1"/><line class="cls-2" x1="212.89" y1="466.36" x2="210.25" y2="467.27"/><path class="cls-2" d="M207.59,468.12c-.89.28-1.78.55-2.68.8"/><path class="cls-2" d="M202.22,469.68c-.9.25-1.8.47-2.71.69"/><path class="cls-2" d="M196.8,471c-.91.22-1.82.39-2.74.59"/><path class="cls-2" d="M191.32,472.14c-.91.18-1.83.32-2.75.47"/><path class="cls-2" d="M185.8,473c-.92.14-1.84.24-2.77.34"/><path class="cls-6" d="M166.64,227.54l.39,58.91-.47.44c.05,0-.13,0-.21.05l-.32.11-.66.28c-.43.21-.86.44-1.29.68-.85.48-1.68,1-2.51,1.55-1.63,1.1-3.28,2.24-4.84,3.41a6.61,6.61,0,0,0-1,.94,1.34,1.34,0,0,0-.45.93c0,.22.31.49.7.67a7.19,7.19,0,0,0,1.31.43,37.15,37.15,0,0,0,5.83.58c2,.07,4,.07,6,.06h3l1.5,0a4.31,4.31,0,0,1,1.6.26,1.13,1.13,0,0,1,.65.74,1.6,1.6,0,0,1-.09.91,5.5,5.5,0,0,1-.81,1.35,18,18,0,0,1-2.07,2.2,57.43,57.43,0,0,1-4.64,3.77,0,0,0,1,1-.06-.08,57.5,57.5,0,0,0,4.41-4,22.5,22.5,0,0,0,1.93-2.23,4.77,4.77,0,0,0,.68-1.22c.13-.44.08-.73-.28-.86a3.64,3.64,0,0,0-1.33-.15l-1.49,0-3,.07c-2,.05-4,.09-6,.06a31,31,0,0,1-6-.55,7.15,7.15,0,0,1-1.52-.51,2.71,2.71,0,0,1-.74-.49,1.58,1.58,0,0,1-.51-.92,2.24,2.24,0,0,1,.68-1.72,7.89,7.89,0,0,1,1.17-1.08c1.62-1.21,3.23-2.35,4.93-3.44.84-.54,1.7-1.06,2.59-1.55.44-.24.89-.47,1.36-.68a7.76,7.76,0,0,1,.72-.3l.39-.13a2.16,2.16,0,0,1,.51-.08l-.47.44.39-58.91a.05.05,0,0,1,.05,0A0,0,0,0,1,166.64,227.54Z"/><polyline class="cls-7" points="168.61 265.76 168.16 264.63 167.72 265.76 167.28 264.63 166.84 265.76"/><line class="cls-7" x1="166.84" y1="265.76" x2="166.84" y2="264.63"/><polyline class="cls-7" points="170.37 265.76 169.93 264.63 169.49 265.76 169.05 264.63 168.61 265.76"/><line class="cls-7" x1="170.37" y1="265.76" x2="170.37" y2="264.63"/><line class="cls-2" x1="167.18" y1="266.66" x2="167.19" y2="269.41"/><line class="cls-2" x1="169.82" y1="266.65" x2="169.83" y2="269.4"/><line class="cls-2" x1="167.2" y1="272.15" x2="167.22" y2="274.9"/><line class="cls-2" x1="169.84" y1="272.14" x2="169.85" y2="274.89"/><line class="cls-2" x1="167.23" y1="277.64" x2="167.24" y2="280.39"/><line class="cls-2" x1="169.87" y1="277.63" x2="169.88" y2="280.38"/><line class="cls-2" x1="167.25" y1="283.13" x2="167.26" y2="285.88"/><line class="cls-2" x1="169.89" y1="283.12" x2="169.9" y2="285.87"/><line class="cls-2" x1="167.28" y1="288.63" x2="167.29" y2="291.37"/><line class="cls-2" x1="169.91" y1="288.61" x2="169.93" y2="291.36"/><line class="cls-2" x1="167.3" y1="294.12" x2="167.31" y2="296.86"/><line class="cls-2" x1="169.94" y1="294.1" x2="169.95" y2="296.85"/><line class="cls-2" x1="167.32" y1="299.61" x2="167.34" y2="302.35"/><line class="cls-2" x1="169.96" y1="299.6" x2="169.97" y2="302.34"/><polyline class="cls-7" points="168.71 275.49 168.27 274.36 167.83 275.49 167.39 274.36 166.94 275.49"/><line class="cls-7" x1="166.94" y1="275.49" x2="166.94" y2="274.36"/><polyline class="cls-7" points="170.47 275.49 170.03 274.36 169.59 275.49 169.15 274.36 168.71 275.49"/><line class="cls-7" x1="170.47" y1="275.49" x2="170.47" y2="274.36"/><line class="cls-2" x1="152.46" y1="229.18" x2="150.84" y2="231.47"/><line class="cls-2" x1="149.25" y1="233.78" x2="147.69" y2="236.11"/><line class="cls-2" x1="146.15" y1="238.45" x2="144.63" y2="240.81"/><line class="cls-2" x1="143.14" y1="243.18" x2="141.66" y2="245.56"/><line class="cls-2" x1="140.2" y1="247.96" x2="138.77" y2="250.37"/><line class="cls-2" x1="137.35" y1="252.78" x2="135.96" y2="255.22"/><line class="cls-2" x1="134.59" y1="257.66" x2="133.24" y2="260.12"/><line class="cls-2" x1="131.92" y1="262.59" x2="130.61" y2="265.07"/><line class="cls-2" x1="129.33" y1="267.57" x2="128.08" y2="270.07"/><line class="cls-2" x1="126.85" y1="272.6" x2="125.64" y2="275.12"/><line class="cls-2" x1="124.47" y1="277.67" x2="123.32" y2="280.23"/><line class="cls-2" x1="122.21" y1="282.8" x2="121.11" y2="285.38"/><line class="cls-2" x1="120.06" y1="287.98" x2="119.04" y2="290.59"/><line class="cls-2" x1="118.05" y1="293.21" x2="117.1" y2="295.85"/><line class="cls-2" x1="116.18" y1="298.5" x2="115.31" y2="301.16"/><line class="cls-2" x1="114.47" y1="303.84" x2="113.7" y2="306.53"/><line class="cls-2" x1="112.94" y1="309.23" x2="112.27" y2="311.95"/><line class="cls-2" x1="111.61" y1="314.68" x2="111.05" y2="317.42"/><line class="cls-2" x1="110.49" y1="320.17" x2="110.06" y2="322.94"/><line class="cls-2" x1="109.62" y1="325.71" x2="109.33" y2="328.5"/><line class="cls-2" x1="109.04" y1="331.29" x2="108.9" y2="334.09"/><line class="cls-2" x1="108.77" y1="336.89" x2="108.81" y2="339.69"/><line class="cls-2" x1="108.85" y1="342.49" x2="109.09" y2="345.29"/><line class="cls-2" x1="109.33" y1="348.08" x2="109.78" y2="350.85"/><line class="cls-2" x1="110.25" y1="353.61" x2="110.93" y2="356.33"/><line class="cls-2" x1="111.65" y1="359.04" x2="112.56" y2="361.69"/><line class="cls-2" x1="113.48" y1="364.34" x2="114.36" y2="367"/><line class="cls-2" x1="115.25" y1="369.65" x2="116.14" y2="372.31"/><path class="cls-2" d="M117,375c.3.89.56,1.79.83,2.68"/><line class="cls-2" x1="118.68" y1="380.33" x2="119.5" y2="383.01"/><path class="cls-2" d="M120.32,385.69c.28.89.53,1.79.78,2.7"/><line class="cls-2" x1="121.85" y1="391.09" x2="122.6" y2="393.79"/><path class="cls-2" d="M123.34,396.49c.26.9.47,1.81.7,2.71"/><line class="cls-2" x1="124.72" y1="401.92" x2="125.4" y2="404.64"/><line class="cls-2" x1="126.07" y1="407.37" x2="126.68" y2="410.1"/><line class="cls-2" x1="127.29" y1="412.84" x2="127.9" y2="415.57"/><line class="cls-2" x1="128.46" y1="418.32" x2="129" y2="421.07"/><path class="cls-2" d="M129.54,423.82c.19.92.34,1.84.5,2.76"/><line class="cls-2" x1="130.51" y1="429.35" x2="130.98" y2="432.11"/><line class="cls-2" x1="131.4" y1="434.88" x2="131.8" y2="437.65"/><line class="cls-2" x1="132.19" y1="440.43" x2="132.52" y2="443.21"/><line class="cls-2" x1="132.86" y1="446" x2="133.13" y2="448.79"/><line class="cls-2" x1="133.39" y1="451.58" x2="133.6" y2="454.37"/><line class="cls-2" x1="133.78" y1="457.17" x2="133.92" y2="459.97"/><path class="cls-2" d="M134,462.78c0,.93,0,1.86,0,2.8"/><line class="cls-2" x1="187.4" y1="230.14" x2="189.04" y2="232.47"/><line class="cls-2" x1="190.65" y1="234.82" x2="192.23" y2="237.18"/><line class="cls-2" x1="193.79" y1="239.56" x2="195.33" y2="241.96"/><line class="cls-2" x1="196.84" y1="244.38" x2="198.33" y2="246.8"/><line class="cls-2" x1="199.8" y1="249.24" x2="201.25" y2="251.69"/><line class="cls-2" x1="202.67" y1="254.16" x2="204.08" y2="256.64"/><line class="cls-2" x1="205.45" y1="259.13" x2="206.82" y2="261.63"/><line class="cls-2" x1="208.14" y1="264.15" x2="209.45" y2="266.68"/><path class="cls-2" d="M210.73,269.23c.41.85.86,1.69,1.26,2.55"/><path class="cls-2" d="M213.21,274.35c.4.86.82,1.71,1.2,2.58"/><path class="cls-2" d="M215.57,279.53c.39.87.79,1.73,1.15,2.61"/><path class="cls-2" d="M217.82,284.77c.36.87.74,1.74,1.07,2.63"/><path class="cls-2" d="M219.93,290.06c.34.88.7,1.76,1,2.66"/><path class="cls-2" d="M221.89,295.4c.31.9.65,1.79.93,2.69"/><path class="cls-2" d="M223.69,300.81c.28.9.61,1.8.85,2.71"/><path class="cls-2" d="M225.32,306.26c.25.92.54,1.82.76,2.75"/><path class="cls-2" d="M226.75,311.78c.22.92.47,1.84.65,2.77"/><path class="cls-2" d="M228,317.34c.18.93.39,1.86.54,2.79"/><path class="cls-2" d="M228.93,323c.13.94.3,1.88.4,2.82"/><path class="cls-2" d="M229.61,328.6c.09.95.22,1.89.26,2.84"/><path class="cls-2" d="M230,334.28c0,1,.12,1.9.09,2.85"/><path class="cls-2" d="M230,340c0,.94,0,1.9-.1,2.84"/><path class="cls-2" d="M229.67,345.66c-.1.94-.14,1.89-.33,2.82"/><path class="cls-2" d="M228.88,351.29l-.24,1.41c-.08.47-.22.92-.33,1.38"/><path class="cls-2" d="M227.62,356.84c-.13.46-.23.93-.36,1.38l-.47,1.35"/><line class="cls-2" x1="225.85" y1="362.26" x2="224.94" y2="364.95"/><line class="cls-2" x1="224.04" y1="367.65" x2="223.13" y2="370.35"/><path class="cls-2" d="M222.23,373.06c-.3.9-.62,1.79-.88,2.7"/><line class="cls-2" x1="220.51" y1="378.49" x2="219.68" y2="381.21"/><path class="cls-2" d="M218.85,383.93c-.27.91-.57,1.82-.82,2.73"/><line class="cls-2" x1="217.27" y1="389.41" x2="216.51" y2="392.15"/><path class="cls-2" d="M215.75,394.89c-.25.92-.52,1.83-.74,2.75"/><line class="cls-2" x1="214.32" y1="400.41" x2="213.63" y2="403.17"/><path class="cls-2" d="M212.94,405.93c-.24.92-.42,1.85-.64,2.78"/><line class="cls-2" x1="211.68" y1="411.49" x2="211.06" y2="414.27"/><line class="cls-2" x1="210.48" y1="417.05" x2="209.93" y2="419.85"/><path class="cls-2" d="M209.38,422.64c-.19.93-.37,1.86-.52,2.8"/><line class="cls-2" x1="208.38" y1="428.25" x2="207.9" y2="431.06"/><line class="cls-2" x1="207.46" y1="433.87" x2="207.05" y2="436.69"/><line class="cls-2" x1="206.65" y1="439.51" x2="206.31" y2="442.33"/><line class="cls-2" x1="205.97" y1="445.16" x2="205.69" y2="448"/><line class="cls-2" x1="205.41" y1="450.83" x2="205.21" y2="453.67"/><line class="cls-2" x1="205.02" y1="456.51" x2="204.88" y2="459.36"/><line class="cls-2" x1="204.8" y1="462.2" x2="204.78" y2="465.05"/><path class="cls-4" d="M228.75,359.52c21.32-53.23-33.81-131.61-59.72-134s-78.34,80.82-57,134c20.23,55.54,20.89,97.21,20.71,107.33h0a115.81,115.81,0,0,0,25.82,5.08c3.38-83.48,10.46-150.4,10.55-167.65.1,17.36,9.36,83.54,12.78,167.68a116.74,116.74,0,0,0,25.8-5l.36-.13C207.86,456.73,208.52,415.06,228.75,359.52Z"/><path class="cls-1" d="M218.53,458c29.86-178.23,13.58-201.54-.89-233.21,0,0-37.9-18.27-94.06-1.89-15.8,31-31.35,53.17-2.82,232.21,0,0-.23,2.43-.49,6.94a101.82,101.82,0,0,0,12.45,4.85c.18-10.12-.48-51.79-20.71-107.33-21.32-53.23,31.1-136.5,57-134s81,80.82,59.72,134c-20.23,55.54-20.89,97.21-20.71,107.33a101.34,101.34,0,0,0,11.4-4.35C218.9,459.53,218.53,458,218.53,458Z"/><path class="cls-1" d="M217.63,224.64s-37.9-18.26-94.06-1.89l2.91-9.59c56.16-16.38,87.39,1.91,87.39,1.91Z"/><line class="cls-8" x1="215.54" y1="221.91" x2="213.54" y2="221.21"/><line class="cls-8" x1="211.52" y1="220.56" x2="209.5" y2="219.94"/><line class="cls-8" x1="207.46" y1="219.36" x2="205.42" y2="218.81"/><path class="cls-8" d="M203.36,218.3c-.68-.17-1.37-.34-2.06-.49"/><line class="cls-8" x1="199.24" y1="217.35" x2="197.16" y2="216.94"/><line class="cls-8" x1="195.08" y1="216.54" x2="192.99" y2="216.18"/><path class="cls-8" d="M190.9,215.85c-.7-.1-1.39-.22-2.09-.3"/><path class="cls-8" d="M186.71,215.28c-.7-.09-1.4-.17-2.11-.23"/><path class="cls-8" d="M182.5,214.84c-.71-.08-1.41-.12-2.11-.17"/><line class="cls-8" x1="178.27" y1="214.51" x2="176.16" y2="214.41"/><line class="cls-8" x1="174.04" y1="214.32" x2="171.93" y2="214.28"/><line class="cls-8" x1="169.81" y1="214.25" x2="167.69" y2="214.28"/><path class="cls-8" d="M165.58,214.33c-.71,0-1.42,0-2.12.08"/><line class="cls-8" x1="161.35" y1="214.52" x2="159.23" y2="214.67"/><path class="cls-8" d="M157.12,214.85c-.7.05-1.4.12-2.1.2"/><line class="cls-8" x1="152.91" y1="215.27" x2="150.81" y2="215.53"/><line class="cls-8" x1="148.71" y1="215.81" x2="146.61" y2="216.11"/><line class="cls-8" x1="144.52" y1="216.43" x2="142.43" y2="216.79"/><line class="cls-8" x1="140.35" y1="217.17" x2="138.27" y2="217.56"/><line class="cls-8" x1="136.2" y1="217.98" x2="134.13" y2="218.43"/><line class="cls-8" x1="132.06" y1="218.9" x2="130" y2="219.39"/><line class="cls-8" x1="127.95" y1="219.9" x2="125.9" y2="220.44"/><line class="cls-8" x1="127.41" y1="214.57" x2="129.47" y2="214"/><line class="cls-8" x1="131.54" y1="213.46" x2="133.61" y2="212.95"/><line class="cls-8" x1="135.69" y1="212.45" x2="137.77" y2="211.98"/><line class="cls-8" x1="139.86" y1="211.53" x2="141.95" y2="211.11"/><line class="cls-8" x1="144.05" y1="210.71" x2="146.15" y2="210.33"/><path class="cls-8" d="M148.26,210c.7-.12,1.41-.23,2.11-.33"/><line class="cls-8" x1="152.49" y1="209.36" x2="154.6" y2="209.09"/><path class="cls-8" d="M156.73,208.85c.7-.08,1.41-.15,2.12-.21"/><line class="cls-8" x1="160.98" y1="208.45" x2="163.11" y2="208.29"/><path class="cls-8" d="M165.24,208.18c.71-.05,1.42-.07,2.13-.09"/><path class="cls-8" d="M169.51,208c.71,0,1.42,0,2.14,0"/><path class="cls-8" d="M173.78,208.07c.71,0,1.42,0,2.14.05"/><path class="cls-8" d="M178.05,208.23c.71.05,1.42.07,2.13.13"/><path class="cls-8" d="M182.31,208.56c.71.07,1.42.11,2.12.21"/><path class="cls-8" d="M186.55,209c.71.09,1.41.18,2.12.3"/><path class="cls-8" d="M190.77,209.67c.71.1,1.4.26,2.1.38"/><line class="cls-8" x1="194.97" y1="210.47" x2="197.05" y2="210.93"/><path class="cls-8" d="M199.13,211.44c.69.18,1.38.34,2.06.55"/><line class="cls-8" x1="203.25" y1="212.57" x2="205.28" y2="213.22"/><path class="cls-8" d="M207.31,213.9c.67.23,1.33.49,2,.74"/><path class="cls-8" d="M211.29,215.43c.66.29,1.31.56,2,.87"/><path class="cls-6" d="M168.32,218.26l-.75,68.62-.47.44a1.13,1.13,0,0,0-.22.05l-.32.11c-.22.08-.44.18-.65.28-.44.21-.87.43-1.3.68-.85.48-1.68,1-2.51,1.55-1.64,1.09-3.27,2.24-4.84,3.41a6.66,6.66,0,0,0-1,.94,1.37,1.37,0,0,0-.45.93c0,.22.31.49.7.67a6.71,6.71,0,0,0,1.31.43,36.23,36.23,0,0,0,5.84.58c2,.07,4,.07,6,.06h3l1.5,0a4.21,4.21,0,0,1,1.59.25,1.14,1.14,0,0,1,.66.74,1.59,1.59,0,0,1-.09.91,5.38,5.38,0,0,1-.81,1.36,17.92,17.92,0,0,1-2.07,2.19,55.48,55.48,0,0,1-4.64,3.78,0,0,0,0,1-.07,0,0,0,0,0,1,0-.07,55.63,55.63,0,0,0,4.41-4A21.31,21.31,0,0,0,175,300a4.77,4.77,0,0,0,.68-1.22c.14-.45.08-.73-.27-.87a3.77,3.77,0,0,0-1.35-.14l-1.48,0-3,.07c-2,.05-4,.09-6,.06a30.89,30.89,0,0,1-6-.55,7.51,7.51,0,0,1-1.52-.5,3.06,3.06,0,0,1-.75-.5,1.63,1.63,0,0,1-.51-.93,2.28,2.28,0,0,1,.69-1.72,7.89,7.89,0,0,1,1.17-1.08c1.62-1.2,3.23-2.35,4.93-3.43.84-.54,1.7-1.06,2.59-1.55.44-.24.89-.47,1.36-.69.24-.1.47-.2.72-.29l.39-.13a1.74,1.74,0,0,1,.51-.08l-.46.43,1.53-68.61a.05.05,0,0,1,.05,0A0,0,0,0,1,168.32,218.26Z"/><polyline class="cls-7" points="169.13 266.19 168.69 265.05 168.25 266.19 167.81 265.05 167.37 266.19"/><line class="cls-7" x1="167.37" y1="266.19" x2="167.37" y2="265.05"/><polyline class="cls-7" points="170.91 266.19 170.46 265.05 170.02 266.19 169.58 265.05 169.13 266.19"/><line class="cls-7" x1="170.9" y1="266.19" x2="170.9" y2="265.05"/><line class="cls-2" x1="167.71" y1="267.09" x2="167.73" y2="269.84"/><line class="cls-2" x1="170.35" y1="267.08" x2="170.36" y2="269.82"/><line class="cls-2" x1="167.74" y1="272.58" x2="167.75" y2="275.33"/><line class="cls-2" x1="170.38" y1="272.57" x2="170.39" y2="275.32"/><line class="cls-2" x1="167.76" y1="278.07" x2="167.77" y2="280.82"/><line class="cls-2" x1="170.4" y1="278.06" x2="170.41" y2="280.81"/><line class="cls-2" x1="167.78" y1="283.56" x2="167.8" y2="286.31"/><line class="cls-2" x1="170.42" y1="283.55" x2="170.43" y2="286.3"/><line class="cls-2" x1="167.81" y1="289.06" x2="167.82" y2="291.8"/><line class="cls-2" x1="170.45" y1="289.04" x2="170.46" y2="291.79"/><line class="cls-2" x1="167.83" y1="294.55" x2="167.84" y2="297.29"/><line class="cls-2" x1="170.47" y1="294.54" x2="170.48" y2="297.28"/><line class="cls-2" x1="167.86" y1="300.04" x2="167.87" y2="302.78"/><line class="cls-2" x1="170.49" y1="300.03" x2="170.51" y2="302.77"/><polyline class="cls-7" points="169.24 275.92 168.8 274.79 168.36 275.92 167.91 274.79 167.47 275.92"/><line class="cls-7" x1="167.47" y1="275.92" x2="167.47" y2="274.79"/><polyline class="cls-7" points="171.01 275.92 170.56 274.79 170.12 275.92 169.68 274.79 169.24 275.92"/><line class="cls-7" x1="171.01" y1="275.92" x2="171.01" y2="274.79"/><line class="cls-8" x1="134.41" y1="465.79" x2="134.4" y2="463.66"/><path class="cls-8" d="M134.36,461.52c0-.71,0-1.42-.07-2.13"/><path class="cls-8" d="M134.21,457.26c0-.71-.07-1.42-.1-2.13"/><path class="cls-8" d="M134,453q-.06-1.06-.15-2.13"/><line class="cls-8" x1="133.68" y1="448.75" x2="133.52" y2="446.63"/><line class="cls-8" x1="133.32" y1="444.51" x2="133.11" y2="442.38"/><line class="cls-8" x1="132.89" y1="440.26" x2="132.65" y2="438.15"/><path class="cls-8" d="M132.4,436c-.08-.71-.16-1.41-.27-2.11"/><line class="cls-8" x1="131.84" y1="431.8" x2="131.55" y2="429.69"/><line class="cls-8" x1="131.25" y1="427.58" x2="130.91" y2="425.48"/><line class="cls-8" x1="130.57" y1="423.37" x2="130.23" y2="421.27"/><line class="cls-8" x1="129.86" y1="419.17" x2="129.47" y2="417.07"/><line class="cls-8" x1="129.08" y1="414.98" x2="128.69" y2="412.88"/><line class="cls-8" x1="128.25" y1="410.8" x2="127.82" y2="408.71"/><path class="cls-8" d="M127.38,406.62c-.15-.69-.28-1.39-.44-2.08"/><line class="cls-8" x1="126.45" y1="402.46" x2="125.96" y2="400.39"/><line class="cls-8" x1="125.48" y1="398.31" x2="124.98" y2="396.24"/><line class="cls-8" x1="124.45" y1="394.17" x2="123.91" y2="392.11"/><line class="cls-8" x1="123.37" y1="390.05" x2="122.83" y2="387.99"/><line class="cls-8" x1="122.25" y1="385.94" x2="121.66" y2="383.89"/><line class="cls-8" x1="121.06" y1="381.84" x2="120.47" y2="379.79"/><line class="cls-8" x1="119.86" y1="377.75" x2="119.22" y2="375.72"/><line class="cls-8" x1="118.57" y1="373.69" x2="117.93" y2="371.66"/><path class="cls-8" d="M117.28,369.62c-.21-.67-.44-1.34-.68-2"/><line class="cls-8" x1="115.9" y1="365.59" x2="115.2" y2="363.58"/><line class="cls-8" x1="114.5" y1="361.57" x2="113.79" y2="359.55"/><path class="cls-8" d="M113.06,357.55c-.23-.67-.51-1.33-.71-2"/><path class="cls-8" d="M111.71,353.51c-.23-.67-.38-1.37-.57-2.05"/><line class="cls-8" x1="110.62" y1="349.39" x2="110.18" y2="347.3"/><path class="cls-8" d="M109.81,345.2c-.11-.7-.24-1.4-.34-2.1"/><path class="cls-8" d="M109.22,341c-.09-.7-.15-1.41-.2-2.12"/><line class="cls-8" x1="108.85" y1="336.74" x2="108.77" y2="334.61"/><line class="cls-8" x1="108.73" y1="332.47" x2="108.73" y2="330.34"/><path class="cls-8" d="M108.79,328.21c0-.71,0-1.42.09-2.13"/><path class="cls-8" d="M109,324c0-.71.12-1.42.19-2.13"/><line class="cls-8" x1="109.44" y1="319.71" x2="109.72" y2="317.6"/><line class="cls-8" x1="110.03" y1="315.49" x2="110.37" y2="313.39"/><line class="cls-8" x1="110.76" y1="311.29" x2="111.17" y2="309.2"/><path class="cls-8" d="M111.64,307.12c.15-.69.31-1.39.48-2.08"/><path class="cls-8" d="M112.64,303c.17-.69.38-1.37.56-2.06"/><line class="cls-8" x1="113.78" y1="298.87" x2="114.4" y2="296.83"/><line class="cls-8" x1="115.04" y1="294.8" x2="115.71" y2="292.77"/><line class="cls-8" x1="116.42" y1="290.76" x2="117.14" y2="288.76"/><path class="cls-8" d="M117.9,286.76q.38-1,.78-2"/><path class="cls-8" d="M119.49,282.81c.26-.66.56-1.31.84-2"/><line class="cls-8" x1="121.18" y1="278.9" x2="122.08" y2="276.96"/><line class="cls-8" x1="122.99" y1="275.03" x2="123.92" y2="273.12"/><line class="cls-8" x1="124.89" y1="271.22" x2="125.87" y2="269.33"/><path class="cls-8" d="M126.89,267.45c.33-.63.68-1.24,1-1.86"/><line class="cls-8" x1="128.98" y1="263.74" x2="130.07" y2="261.91"/><line class="cls-8" x1="131.18" y1="260.09" x2="132.32" y2="258.28"/><path class="cls-8" d="M133.49,256.5c.39-.59.77-1.19,1.18-1.77"/><path class="cls-8" d="M135.89,253c.41-.58.81-1.16,1.24-1.73"/><path class="cls-8" d="M138.4,249.54c.42-.58.87-1.13,1.31-1.69"/><line class="cls-8" x1="141.02" y1="246.17" x2="142.4" y2="244.54"/><line class="cls-8" x1="143.79" y1="242.93" x2="145.21" y2="241.34"/><path class="cls-8" d="M146.68,239.8c.5-.51,1-1,1.5-1.52"/><path class="cls-8" d="M149.72,236.81c.51-.49,1.06-.95,1.59-1.42"/><path class="cls-8" d="M152.94,234c.56-.44,1.1-.9,1.68-1.31"/><line class="cls-8" x1="156.36" y1="231.47" x2="158.16" y2="230.33"/><path class="cls-8" d="M160,229.31c.61-.36,1.29-.59,1.93-.89"/><path class="cls-8" d="M164,227.71c.68-.23,1.39-.31,2.08-.47"/><path class="cls-8" d="M168.17,227.1a13.54,13.54,0,0,1,2.11.28"/><path class="cls-8" d="M172.34,227.93c.34.11.68.2,1,.32l1,.43"/><line class="cls-8" x1="176.26" y1="229.58" x2="178.13" y2="230.6"/><path class="cls-8" d="M179.93,231.75c.6.38,1.18.79,1.75,1.22"/><line class="cls-8" x1="183.39" y1="234.23" x2="185.04" y2="235.58"/><line class="cls-8" x1="186.67" y1="236.96" x2="188.25" y2="238.39"/><line class="cls-8" x1="189.79" y1="239.86" x2="191.31" y2="241.35"/><line class="cls-8" x1="192.79" y1="242.89" x2="194.25" y2="244.44"/><line class="cls-8" x1="195.66" y1="246.04" x2="197.07" y2="247.64"/><line class="cls-8" x1="198.43" y1="249.29" x2="199.78" y2="250.94"/><line class="cls-8" x1="201.08" y1="252.62" x2="202.38" y2="254.31"/><line class="cls-8" x1="203.64" y1="256.03" x2="204.89" y2="257.76"/><line class="cls-8" x1="206.11" y1="259.51" x2="207.3" y2="261.27"/><line class="cls-8" x1="208.48" y1="263.05" x2="209.61" y2="264.85"/><line class="cls-8" x1="210.75" y1="266.66" x2="211.83" y2="268.5"/><line class="cls-8" x1="212.9" y1="270.34" x2="213.97" y2="272.18"/><line class="cls-8" x1="215" y1="274.05" x2="216" y2="275.93"/><path class="cls-8" d="M217,277.82c.32.63.68,1.25,1,1.89"/><line class="cls-8" x1="218.87" y1="281.64" x2="219.79" y2="283.57"/><line class="cls-8" x1="220.69" y1="285.5" x2="221.52" y2="287.46"/><line class="cls-8" x1="222.35" y1="289.43" x2="223.17" y2="291.39"/><line class="cls-8" x1="223.92" y1="293.39" x2="224.65" y2="295.39"/><path class="cls-8" d="M225.39,297.39c.25.67.43,1.35.66,2"/><line class="cls-8" x1="226.69" y1="301.45" x2="227.32" y2="303.48"/><line class="cls-8" x1="227.88" y1="305.54" x2="228.42" y2="307.6"/><path class="cls-8" d="M229,309.67c.17.69.29,1.39.44,2.08"/><line class="cls-8" x1="229.83" y1="313.84" x2="230.26" y2="315.93"/><line class="cls-8" x1="230.58" y1="318.04" x2="230.89" y2="320.14"/><line class="cls-8" x1="231.18" y1="322.26" x2="231.38" y2="324.38"/><path class="cls-8" d="M231.57,326.5c.08.71.12,1.42.13,2.13"/><line class="cls-8" x1="231.76" y1="330.76" x2="231.82" y2="332.89"/><line class="cls-8" x1="231.77" y1="335.02" x2="231.7" y2="337.15"/><line class="cls-8" x1="231.58" y1="339.28" x2="231.36" y2="341.4"/><path class="cls-8" d="M231.14,343.52c0,.71-.23,1.4-.34,2.1"/><path class="cls-8" d="M230.42,347.72a20.89,20.89,0,0,1-.42,2.09"/><line class="cls-8" x1="229.46" y1="351.87" x2="228.92" y2="353.93"/><line class="cls-8" x1="228.23" y1="355.95" x2="227.53" y2="357.96"/><line class="cls-8" x1="226.82" y1="359.97" x2="226.12" y2="361.99"/><line class="cls-8" x1="225.42" y1="364" x2="224.72" y2="366.01"/><path class="cls-8" d="M224,368c-.24.67-.45,1.35-.67,2"/><line class="cls-8" x1="222.71" y1="372.08" x2="222.06" y2="374.11"/><line class="cls-8" x1="221.42" y1="376.15" x2="220.78" y2="378.18"/><line class="cls-8" x1="220.18" y1="380.22" x2="219.59" y2="382.27"/><line class="cls-8" x1="219" y1="384.32" x2="218.42" y2="386.37"/><line class="cls-8" x1="217.85" y1="388.43" x2="217.31" y2="390.49"/><line class="cls-8" x1="216.78" y1="392.55" x2="216.24" y2="394.62"/><line class="cls-8" x1="215.71" y1="396.68" x2="215.23" y2="398.76"/><line class="cls-8" x1="214.75" y1="400.83" x2="214.27" y2="402.91"/><line class="cls-8" x1="213.78" y1="404.99" x2="213.35" y2="407.07"/><line class="cls-8" x1="212.92" y1="409.16" x2="212.49" y2="411.25"/><line class="cls-8" x1="212.06" y1="413.34" x2="211.68" y2="415.43"/><line class="cls-8" x1="211.3" y1="417.53" x2="210.92" y2="419.63"/><line class="cls-8" x1="210.56" y1="421.73" x2="210.22" y2="423.83"/><line class="cls-8" x1="209.89" y1="425.94" x2="209.56" y2="428.05"/><line class="cls-8" x1="209.27" y1="430.16" x2="208.98" y2="432.27"/><path class="cls-8" d="M208.7,434.38c-.1.71-.18,1.41-.26,2.12"/><line class="cls-8" x1="208.2" y1="438.62" x2="207.96" y2="440.73"/><line class="cls-8" x1="207.75" y1="442.86" x2="207.55" y2="444.98"/><line class="cls-8" x1="207.36" y1="447.1" x2="207.2" y2="449.23"/><path class="cls-8" d="M207.05,451.35c-.06.71-.1,1.42-.14,2.13"/><path class="cls-8" d="M206.8,455.61c0,.71-.08,1.42-.1,2.13"/><path class="cls-8" d="M206.62,459.87c0,.71-.05,1.42-.06,2.13"/><line class="cls-8" x1="206.53" y1="464.13" x2="206.52" y2="466.26"/><path class="cls-5" d="M155.38,542.69c3.29-25.07,6.9-32.2,3-65.61.07-1.73.14-3.43.21-5.14A112.48,112.48,0,0,1,120.27,462c-1.1,18.8-8.57,79,8.23,142.24,1.53,9.43,1.93,17.73,2.39,28.62a155.71,155.71,0,0,0,23.69-1.33,7,7,0,0,1-.1-.76C154.38,628.56,148.48,578.34,155.38,542.69Z"/><path class="cls-9" d="M208.56,631.14c2.63-13,1.72-23.76,4.68-35.78,16.1-65.36,8.95-117.58,6.2-132.86A113.07,113.07,0,0,1,181.88,472c0,1.2.1,2.4.15,3.62-7.41,62.82,14.62,65.36,3.19,154.13C192.6,631,202,631.17,208.56,631.14Z"/><path class="cls-5" d="M155,636.2c-11.9-2.9-23.48,1.48-23.48,1.48l-.9-5.86s14.45-3.92,24.09-1.2Z"/><path class="cls-2" d="M153,634.47c-.95-.17-1.9-.31-2.85-.44"/><path class="cls-2" d="M147.26,633.77a27.67,27.67,0,0,0-2.88,0"/><path class="cls-2" d="M141.5,634.06c-.95.12-1.9.28-2.85.44"/><path class="cls-2" d="M135.83,635.09c-.94.21-1.87.45-2.8.71"/><path class="cls-2" d="M132.71,632.85l2.91-.57"/><path class="cls-2" d="M138.55,631.8c1-.14,2-.27,2.95-.38"/><path class="cls-2" d="M144.46,631.18c1,0,2-.08,3,0"/><path class="cls-2" d="M150.39,631.4c1,.13,2,.28,2.93.46"/><path class="cls-5" d="M156.68,658.9c-11.64,12.89-24.42-.7-24.42-.7l-.4-7.94c15.26,18.15,25,1.16,25,1.16Z"/><path class="cls-2" d="M155.38,658.3a20.25,20.25,0,0,1-2.1,1.7"/><path class="cls-2" d="M151,661.42a14.65,14.65,0,0,1-2.48,1.05"/><path class="cls-2" d="M145.85,663c-.45,0-.9,0-1.35,0s-.89-.12-1.33-.23"/><path class="cls-2" d="M140.6,661.89a21.7,21.7,0,0,1-2.42-1.19"/><path class="cls-2" d="M135.9,659.25c-.73-.53-1.45-1.08-2.14-1.66"/><path class="cls-2" d="M133.45,654.1c.68.61,1.4,1.19,2.13,1.75"/><path class="cls-2" d="M137.86,657.4a21.76,21.76,0,0,0,2.42,1.32"/><path class="cls-2" d="M142.86,659.69a10.35,10.35,0,0,0,2.72.41"/><path class="cls-2" d="M148.29,659.68a12.91,12.91,0,0,0,2.55-1"/><path class="cls-2" d="M153.18,657.18a25.44,25.44,0,0,0,2.16-1.72"/><path class="cls-5" d="M184.09,635.15c11.89-2.9,23.47,1.48,23.47,1.48l.9-5.86s-14.45-3.92-24.09-1.2Z"/><path class="cls-2" d="M186.08,633.42c.95-.17,1.9-.31,2.85-.44"/><path class="cls-2" d="M191.81,632.72a27.67,27.67,0,0,1,2.88,0"/><path class="cls-2" d="M197.56,633c1,.12,1.91.28,2.86.44"/><path class="cls-2" d="M203.24,634c.94.22,1.87.46,2.8.71"/><path class="cls-2" d="M206.36,631.81c-1-.21-1.94-.4-2.91-.58"/><path class="cls-2" d="M200.52,630.75c-1-.14-2-.27-3-.37"/><path class="cls-2" d="M194.61,630.14c-1,0-2-.09-3,0"/><path class="cls-2" d="M188.68,630.36c-1,.12-2,.27-2.93.45"/><path class="cls-5" d="M182.38,657.85c11.65,12.89,24.42-.69,24.42-.69l.41-7.95c-15.26,18.15-25,1.16-25,1.16Z"/><path class="cls-2" d="M183.69,657.25a21.25,21.25,0,0,0,2.09,1.7"/><path class="cls-2" d="M188.08,660.37a15.1,15.1,0,0,0,2.49,1"/><path class="cls-2" d="M193.22,661.92c.45,0,.89,0,1.34,0s.9-.12,1.34-.23"/><path class="cls-2" d="M198.47,660.84a21.7,21.7,0,0,0,2.42-1.19"/><path class="cls-2" d="M203.17,658.2c.73-.53,1.45-1.08,2.13-1.66"/><path class="cls-2" d="M205.62,653.05c-.68.62-1.4,1.19-2.13,1.75"/><path class="cls-2" d="M201.21,656.35a22.69,22.69,0,0,1-2.42,1.32"/><path class="cls-2" d="M196.21,658.64a10.48,10.48,0,0,1-2.72.41"/><path class="cls-2" d="M190.77,658.63a13.08,13.08,0,0,1-2.54-1"/><path class="cls-2" d="M185.88,656.13a25.3,25.3,0,0,1-2.15-1.72"/><path class="cls-10" d="M277.65,280.25s9.1-.19,9.56,9.08a15.29,15.29,0,0,1,4.47,5A17,17,0,0,1,304.1,297c6.14,4.16-5.85-39.94-5.85-39.94s-6.14,5.85-18.16,2c.07,3.46-1.08,6.58-1.36,10.35C276.57,276.4,277.65,280.25,277.65,280.25Z"/><path class="cls-8" d="M288.48,287.57a8.52,8.52,0,0,0-.23-1,6.41,6.41,0,0,0-.3-.94"/><path class="cls-8" d="M287.07,283.88a10.71,10.71,0,0,0-1.19-1.58"/><path class="cls-8" d="M284.41,281a15.28,15.28,0,0,0-1.67-1.07"/><path class="cls-8" d="M280.93,279.08a13.88,13.88,0,0,0-1.91-.54"/><path class="cls-2" d="M291.62,291.58a16.61,16.61,0,0,0-1.92-2.1"/><path class="cls-2" d="M304.18,295.26a17.56,17.56,0,0,0-3.17-1.4"/><path class="cls-2" d="M297.63,293.08a28.54,28.54,0,0,0-3.45-.32"/><path class="cls-1" d="M304.45,253.16a39.1,39.1,0,0,1-29.54,10.08l.89,3.32s11.85,5.28,29.83-9.47Z"/><path class="cls-4" d="M304.45,253.16c-21-71-47.3-229.58-71.06-229.58-15.32,22.28-8.74,53-8.74,53l50.26,186.69A39.1,39.1,0,0,0,304.45,253.16Z"/><path class="cls-10" d="M56.75,245.85s-11,2.13-16.62-2C37.62,254.47,38,260.34,38,260.34s8.73,12.27,18.16,2C54.72,258.91,56.75,245.85,56.75,245.85Z"/><path class="cls-10" d="M58.55,283.5s-9.1-.2-9.56,9.07a15.27,15.27,0,0,0-4.47,5,16.94,16.94,0,0,0-12.41,2.69C26,304.43,38,260.34,38,260.34s6.14,5.84,18.16,2c-.07,3.47,1.08,6.59,1.36,10.35C59.63,279.64,58.55,283.5,58.55,283.5Z"/><path class="cls-8" d="M47.73,290.81a7.85,7.85,0,0,1,.22-1,5.28,5.28,0,0,1,.31-1"/><path class="cls-8" d="M49.13,287.12a11.27,11.27,0,0,1,1.19-1.58"/><path class="cls-8" d="M51.79,284.21a12.78,12.78,0,0,1,1.67-1.07"/><path class="cls-8" d="M55.27,282.33a11.54,11.54,0,0,1,1.91-.54"/><path class="cls-8" d="M44.59,294.82a16.53,16.53,0,0,1,1.91-2.1"/><path class="cls-8" d="M31.52,298.79a18.15,18.15,0,0,1,2.05-1.07"/><path class="cls-8" d="M35.75,296.94c.74-.22,1.49-.38,2.25-.53"/><path class="cls-8" d="M40.3,296.11q1.14-.11,2.31-.12"/><path class="cls-1" d="M31.75,256.4a39,39,0,0,0,29.54,10.08l-.89,3.32s-11.85,5.29-29.83-9.46C31,259.06,31.35,257.74,31.75,256.4Z"/><path class="cls-4" d="M31.75,256.4c21-71,47.3-229.58,71.06-229.58,15.32,22.28,8.74,53,8.74,53L61.29,266.48A39,39,0,0,1,31.75,256.4Z"/><line class="cls-8" x1="33.39" y1="255.95" x2="34.91" y2="257.24"/><path class="cls-8" d="M36.52,258.42a17.66,17.66,0,0,0,1.66,1.1"/><path class="cls-8" d="M39.9,260.54c.58.33,1.19.6,1.78.9"/><path class="cls-8" d="M43.5,262.26c.62.24,1.23.51,1.86.73"/><path class="cls-8" d="M47.25,263.61c.64.21,1.29.34,1.93.52"/><path class="cls-8" d="M51.13,264.56c.65.14,1.3.26,2,.35"/><path class="cls-8" d="M55.07,265.16c.67.07,1.33.12,2,.15"/><path class="cls-8" d="M59.06,265.37c.66,0,1.33,0,2-.05"/><path class="cls-11" d="M116.92,168.67a35.56,35.56,0,0,0,2.46-10Z"/><path class="cls-4" d="M190,9.75s-.37,1.15-19.11,1.15-20.92-1.58-20.92-1.58A3.42,3.42,0,0,0,147.31,13c15.92,11.09,44.13,1.55,45.22.43C192.92,10.75,190,9.75,190,9.75Z"/><path class="cls-12" d="M192.12,12.42s.08,0,.09,0,0,0,0,0l0,.06-.09.13a.76.76,0,0,0-.12.26.69.69,0,0,0,.08.5l.07.15-.22-.13a1.26,1.26,0,0,1-.24-.19l-.2-.19-.34-.4c-.22-.27-.43-.54-.61-.81A5.3,5.3,0,0,1,190,11a3.69,3.69,0,0,1-.17-.42,2.1,2.1,0,0,1-.09-.42h0c.06.13.14.27.22.41l.25.41.52.81a9.5,9.5,0,0,0,.54.81l.32.4.18.19a.91.91,0,0,0,.21.18l-.14,0a.77.77,0,0,1,0-.52.79.79,0,0,1,.15-.26l.11-.12,0-.06,0,0h-.06Z"/><path class="cls-12" d="M190,13.76a6,6,0,0,1-.41-.5,7.48,7.48,0,0,1-.72-1.14,3.65,3.65,0,0,1-.27-.62c0-.1-.05-.2-.07-.29l0-.26a1.86,1.86,0,0,0,0-.22.43.43,0,0,1,0-.17,1,1,0,0,1,0-.15h0s0,.05,0,.15a1.57,1.57,0,0,1,0,.16c0,.06,0,.13,0,.21s.05.17.07.26.07.18.1.28a5.67,5.67,0,0,0,.21.62,8.18,8.18,0,0,0,.59,1.15l.34.51Z"/><path class="cls-12" d="M185.34,13.89a4.88,4.88,0,0,0,.13-.55c0-.17,0-.37.06-.57a3.53,3.53,0,0,0,0-.65,3,3,0,0,0,0-.33c0-.11-.05-.22-.07-.32s0-.2-.07-.3-.07-.18-.09-.26l-.11-.22a.64.64,0,0,0-.11-.16l-.1-.15h0l.16.14.09.07.08.09a2.11,2.11,0,0,1,.17.22,1.71,1.71,0,0,1,.14.27,1.32,1.32,0,0,1,.1.3,1.64,1.64,0,0,1,0,.32,1.93,1.93,0,0,1,0,.34,4.62,4.62,0,0,1,0,.65,5.29,5.29,0,0,1-.14.57,4,4,0,0,1-.19.55Z"/><path class="cls-12" d="M184.85,13.53l-.23-.16-.2-.17-.1-.11-.09-.1c0-.07-.11-.15-.14-.22a.3.3,0,0,0,0-.1s0-.07,0-.1a.61.61,0,0,1,.1-.19h0a.62.62,0,0,1,.09.19.2.2,0,0,0,0,.08.69.69,0,0,0,0,.1.36.36,0,0,0,0,.1l0,.11.06.11.06.1.14.18a1.66,1.66,0,0,0,.15.18Z"/><path class="cls-12" d="M182.25,11.34a2.79,2.79,0,0,1,.37.64,3.41,3.41,0,0,1,.22.66l0,.33a1.22,1.22,0,0,1,0,.33l0,.17a1.54,1.54,0,0,1-.05.17,1.66,1.66,0,0,1-.06.16l-.08.16-.17-.05a1.14,1.14,0,0,0,.47-.32,1.56,1.56,0,0,0,.25-.4,3.6,3.6,0,0,0,.25-.83,7.56,7.56,0,0,0,.14-.83l.09-.84h0a6,6,0,0,1,.09.84,4.1,4.1,0,0,1-.06.85,2.5,2.5,0,0,1-.27.84,3.13,3.13,0,0,1-.29.41,1.46,1.46,0,0,1-.56.36l-.25.09.07-.14.09-.16s0-.11.07-.16a1,1,0,0,0,0-.16l0-.16a1.86,1.86,0,0,0,0-.33v-.33a3.63,3.63,0,0,0-.16-.65,3.91,3.91,0,0,0-.32-.65Z"/><path class="cls-12" d="M187,10.84a2.77,2.77,0,0,1,.22.34,1.47,1.47,0,0,1,.17.36,2.23,2.23,0,0,1,.17.72,1.67,1.67,0,0,1-.13.72,1.3,1.3,0,0,1-.25.36,1.47,1.47,0,0,1-.47.31l-.18-.07a.81.81,0,0,0,.43-.43.49.49,0,0,0,0-.12.61.61,0,0,0-.05-.12l-.12-.11a.56.56,0,0,0-.15-.1l.19.09a.58.58,0,0,1,.15.11.47.47,0,0,1,.09.12.31.31,0,0,1,0,.13.78.78,0,0,1-.39.49l-.18-.07a1,1,0,0,0,.38-.28,1.58,1.58,0,0,0,.22-.33,2,2,0,0,0,.15-.7,3.42,3.42,0,0,0-.07-.71A4.83,4.83,0,0,0,187,10.84Z"/><path class="cls-12" d="M181.68,14l-.26-.19a.47.47,0,0,0-.1-.1l-.1-.12-.09-.12a.83.83,0,0,1-.07-.13l-.07-.13a.79.79,0,0,1,0-.13V13a.21.21,0,0,1,0-.1.76.76,0,0,1,.14-.22h0a1.19,1.19,0,0,1,.06.22.41.41,0,0,0,0,.11.36.36,0,0,1,0,.11v.12l0,.13a.65.65,0,0,0,0,.13l.06.12a.67.67,0,0,0,.06.12s0,.07.07.1a1.49,1.49,0,0,0,.18.2Z"/><path class="cls-12" d="M180.42,13.12s.07,0,.07,0l0,0-.07.05-.13.12a1.12,1.12,0,0,0-.21.23.84.84,0,0,0-.14.49v.16l-.13-.14a.64.64,0,0,1-.14-.21l-.1-.21-.15-.42-.23-.84a3.48,3.48,0,0,1-.11-.85,3.22,3.22,0,0,1,0-.43,1.35,1.35,0,0,1,.1-.42h0c0,.14,0,.29,0,.42l.06.42.14.85a8.28,8.28,0,0,0,.16.84l.12.42.07.2a.64.64,0,0,0,.11.2h-.13a.89.89,0,0,1,.2-.5,1.81,1.81,0,0,1,.24-.24l.15-.11.07-.05,0,0h0Z"/><path class="cls-12" d="M178,14.26l-.23-.53a6.34,6.34,0,0,1-.32-1.17,3.58,3.58,0,0,1-.07-.64l0-.29.06-.26a1.45,1.45,0,0,1,.09-.22.83.83,0,0,1,.09-.16l.1-.14h0a.8.8,0,0,0,0,.15c0,.05,0,.1,0,.17s0,.13,0,.21a2.28,2.28,0,0,0,0,.26c0,.09,0,.19,0,.29s0,.41,0,.62a6.91,6.91,0,0,0,.2,1.17l.15.54Z"/><path class="cls-12" d="M173.61,14.14s.11-.22.24-.55c.05-.16.11-.36.18-.56a4.69,4.69,0,0,0,.14-.65l0-.33v-.32a2.91,2.91,0,0,0,0-.3,1.26,1.26,0,0,0,0-.27.79.79,0,0,0-.05-.22.87.87,0,0,0-.07-.17l-.08-.15h0a1.37,1.37,0,0,1,.14.14l.07.07.06.1a1.16,1.16,0,0,1,.13.22,1.73,1.73,0,0,1,.08.27,1.55,1.55,0,0,1,0,.31c0,.1,0,.21,0,.32s0,.23-.07.34a4.92,4.92,0,0,1-.21.65,3.63,3.63,0,0,1-.25.56,5,5,0,0,1-.3.54Z"/><path class="cls-12" d="M173.21,13.76a1.47,1.47,0,0,1-.2-.17,1.45,1.45,0,0,1-.16-.18.86.86,0,0,1-.07-.1l-.08-.11a1.09,1.09,0,0,1-.09-.23v-.1s0-.07,0-.09a.72.72,0,0,1,.16-.19h0a.47.47,0,0,1,.06.19s0,.06,0,.09,0,.06,0,.09,0,.07,0,.11v.11l0,.11,0,.1.1.19a1.15,1.15,0,0,0,.12.18Z"/><path class="cls-12" d="M171,11.48a2.76,2.76,0,0,1,.26.65,2.52,2.52,0,0,1,.09.67,1.82,1.82,0,0,1,0,.33c0,.11,0,.22-.07.33l-.06.16c0,.06-.05.11-.07.16l-.09.17-.11.16-.16-.06a1.58,1.58,0,0,0,.53-.31,2.72,2.72,0,0,0,.31-.38,5,5,0,0,0,.39-.81c.1-.28.2-.55.28-.83l.27-.83h0a8,8,0,0,1-.08.84,6.5,6.5,0,0,1-.22.84,3,3,0,0,1-.42.83,1.85,1.85,0,0,1-.36.39,1.58,1.58,0,0,1-.61.34l-.26.08.1-.14.11-.15a.86.86,0,0,0,.1-.16.8.8,0,0,0,.08-.16l.06-.16a1.68,1.68,0,0,0,.09-.32l0-.33a3,3,0,0,0,0-.66,2.5,2.5,0,0,0-.22-.65Z"/><path class="cls-12" d="M176,11.18a2.13,2.13,0,0,1,.14.35,2.29,2.29,0,0,1,.07.36,2.18,2.18,0,0,1,0,.72,1.67,1.67,0,0,1-.32.71,1.39,1.39,0,0,1-.31.34A1.85,1.85,0,0,1,175,14l-.16-.08a1.07,1.07,0,0,0,.52-.41.27.27,0,0,0,0-.12.17.17,0,0,0,0-.12.26.26,0,0,0-.07-.11l-.13-.11.16.09.12.12a.49.49,0,0,1,.06.13.57.57,0,0,1,0,.13.91.91,0,0,1-.48.47l-.16-.07a1.84,1.84,0,0,0,.44-.27,2.07,2.07,0,0,0,.28-.32,2.47,2.47,0,0,0,.32-.68,4.39,4.39,0,0,0,.12-.71A4.22,4.22,0,0,0,176,11.18Z"/><path class="cls-12" d="M170,14.13a1.31,1.31,0,0,1-.23-.2l-.08-.1a.76.76,0,0,1-.08-.11l-.07-.13a.43.43,0,0,1-.05-.13l-.05-.14a.57.57,0,0,1,0-.13.5.5,0,0,1,0-.12.22.22,0,0,1,.05-.11.9.9,0,0,1,.18-.21h0a.4.4,0,0,1,0,.21v.23a.49.49,0,0,1,0,.12v.13a.69.69,0,0,0,0,.13l0,.12a.67.67,0,0,0,.06.12.42.42,0,0,0,0,.1,1.71,1.71,0,0,0,.15.21Z"/><path class="cls-12" d="M168.9,13.18s.07,0,.07,0,0,0,0,0l-.09.06-.15.1a1.75,1.75,0,0,0-.24.23,1,1,0,0,0-.23.49v.15l-.11-.14a.9.9,0,0,1-.11-.22l-.06-.21-.08-.43-.11-.84a3.54,3.54,0,0,1,0-.86,2.07,2.07,0,0,1,.08-.42,1.85,1.85,0,0,1,.17-.42h0a3,3,0,0,0,0,.42v1.27a7.86,7.86,0,0,0,0,.84l.05.42,0,.21a.68.68,0,0,0,.07.2h-.13a1.2,1.2,0,0,1,.28-.5,2,2,0,0,1,.27-.22l.17-.11.08,0a.05.05,0,0,0,0,0h0Z"/><path class="cls-12" d="M166.32,14.23s-.06-.21-.16-.53a5.65,5.65,0,0,1-.15-1.18,3.35,3.35,0,0,1,0-.64,2.46,2.46,0,0,1,.07-.29c0-.09.07-.18.1-.26a1.05,1.05,0,0,1,.12-.21.52.52,0,0,1,.12-.16l.11-.14h0a1.1,1.1,0,0,1,0,.15,1.56,1.56,0,0,0,0,.16l-.06.22c0,.08,0,.17-.05.25s0,.19,0,.29a6,6,0,0,0-.09.63,7.28,7.28,0,0,0,0,1.17c0,.32.07.53.07.53Z"/><path class="cls-12" d="M162,14a6.14,6.14,0,0,0,.31-.54c.08-.16.18-.35.27-.56a4.93,4.93,0,0,0,.24-.64,1.32,1.32,0,0,0,.08-.33c0-.11,0-.22,0-.32s0-.2,0-.3a1.15,1.15,0,0,0,0-.26,1.43,1.43,0,0,0,0-.23.47.47,0,0,0,0-.17l0-.15h0l.13.14a.19.19,0,0,0,.06.07,1,1,0,0,1,0,.1.79.79,0,0,1,.09.23,1.93,1.93,0,0,1,0,.27,1,1,0,0,1,0,.3,2,2,0,0,1-.08.33,2.19,2.19,0,0,1-.12.33,4.68,4.68,0,0,1-.3.64c-.12.21-.23.4-.34.56-.22.32-.39.54-.39.54Z"/><path class="cls-12" d="M161.6,13.63l-.16-.17c-.05-.05-.09-.12-.14-.18l-.06-.11-.05-.11a1.12,1.12,0,0,1-.06-.23.3.3,0,0,1,0-.1.18.18,0,0,1,0-.1.86.86,0,0,1,.18-.18h0a.47.47,0,0,1,0,.19s0,.06,0,.09a.17.17,0,0,1,0,.1.33.33,0,0,0,0,.1V13l0,.11a.35.35,0,0,1,0,.11,1.89,1.89,0,0,1,.06.18,1.18,1.18,0,0,0,.1.18Z"/><path class="cls-12" d="M159.79,11.3A3.11,3.11,0,0,1,160,12a3.65,3.65,0,0,1,0,.66c0,.11,0,.22-.07.33s-.08.22-.13.33l-.08.16a1.4,1.4,0,0,1-.1.16.88.88,0,0,1-.12.15l-.13.16-.16-.06a1.66,1.66,0,0,0,.58-.29,1.92,1.92,0,0,0,.38-.37,7.34,7.34,0,0,0,.52-.81,9,9,0,0,0,.41-.82l.4-.82h0a8.59,8.59,0,0,1-.21.84,8.07,8.07,0,0,1-.34.83,4.12,4.12,0,0,1-.56.82,3.22,3.22,0,0,1-.42.39,2.06,2.06,0,0,1-.68.31L159,14l.12-.13.15-.15a1.58,1.58,0,0,0,.12-.15l.11-.16.09-.15a2.84,2.84,0,0,0,.14-.32l.09-.33a2.94,2.94,0,0,0,.07-.65,3.1,3.1,0,0,0-.1-.67Z"/><path class="cls-12" d="M164.75,11.11a1.67,1.67,0,0,1,.1.71,2.3,2.3,0,0,1-.14.72,2.14,2.14,0,0,1-.42.7,2,2,0,0,1-.37.33,1.74,1.74,0,0,1-.58.28l-.14-.07a1.35,1.35,0,0,0,.58-.41.37.37,0,0,0,.05-.11.24.24,0,0,0,0-.12.21.21,0,0,0-.07-.12.53.53,0,0,0-.1-.12l.14.11a.35.35,0,0,1,.1.12.3.3,0,0,1,0,.26,1.27,1.27,0,0,1-.56.46l-.15-.08a1.67,1.67,0,0,0,.48-.26,3.49,3.49,0,0,0,.34-.31,2.92,2.92,0,0,0,.42-.68,3.55,3.55,0,0,0,.22-.7A3.36,3.36,0,0,0,164.75,11.11Z"/><path class="cls-12" d="M158.32,13.91a1.09,1.09,0,0,1-.19-.21.36.36,0,0,1-.07-.1.67.67,0,0,1-.06-.12l-.05-.13a.3.3,0,0,1,0-.13l0-.14s0-.08,0-.13l0-.12s0-.07.08-.1a1.16,1.16,0,0,1,.21-.21h0a.54.54,0,0,1,0,.22.19.19,0,0,0,0,.1l0,.12a.56.56,0,0,1,0,.12l0,.13a.56.56,0,0,0,0,.13v.12a.53.53,0,0,0,0,.12.29.29,0,0,0,0,.1,1.24,1.24,0,0,0,.11.22Z"/><path class="cls-12" d="M157.38,12.92s.07,0,.06,0,0,0,0,0l-.08.06-.18.09a1.69,1.69,0,0,0-.29.22,1.16,1.16,0,0,0-.32.48l-.05.15-.09-.15a.56.56,0,0,1-.06-.21l0-.22V13c0-.29,0-.57.08-.85a3.21,3.21,0,0,1,.2-.84,3.69,3.69,0,0,1,.17-.42,1.71,1.71,0,0,1,.27-.41h0c-.05.14-.09.28-.13.42l-.08.42-.17.84a6.17,6.17,0,0,0-.15.84l0,.42v.21a.52.52,0,0,0,0,.21h-.14a1.34,1.34,0,0,1,.39-.49l.31-.21.19-.1.1,0,0,0h0Z"/><path class="cls-12" d="M154.53,13.87s0-.21,0-.54a5.72,5.72,0,0,1,.11-1.17c0-.22.11-.43.17-.63s.1-.2.15-.29a2.2,2.2,0,0,1,.17-.25,1.92,1.92,0,0,1,.16-.21.81.81,0,0,1,.16-.16l.14-.13h0l-.09.15a1.46,1.46,0,0,1-.09.16l-.11.21a2.72,2.72,0,0,1-.11.25c0,.09-.07.19-.11.29a5.5,5.5,0,0,0-.23.61,8.59,8.59,0,0,0-.25,1.17c0,.32,0,.54,0,.54Z"/><path class="cls-12" d="M150,13.39s.23-.2.53-.51l.47-.53a5.86,5.86,0,0,0,.46-.62,2,2,0,0,0,.18-.32c.06-.1.11-.21.16-.31a2.59,2.59,0,0,0,.14-.29c0-.09.06-.18.09-.26s0-.16.06-.22a.62.62,0,0,0,0-.18c0-.09,0-.15,0-.15h0l0,.15,0,.08s0,.06,0,.1a.88.88,0,0,1,0,.23c0,.08,0,.17-.05.27a1.82,1.82,0,0,1-.11.3c-.06.1-.11.21-.18.32l-.23.31a6.23,6.23,0,0,1-.51.62c-.18.19-.37.37-.54.52-.33.3-.59.5-.59.5Z"/><path class="cls-12" d="M149.79,13a1.18,1.18,0,0,1-.1-.18,1.46,1.46,0,0,1-.07-.19.49.49,0,0,1,0-.12v-.11a.85.85,0,0,1,0-.23.53.53,0,0,1,.06-.1.65.65,0,0,1,.08-.09,1,1,0,0,1,.26-.16h0A.51.51,0,0,1,150,12a.32.32,0,0,0,0,.09.36.36,0,0,1,0,.09,1.17,1.17,0,0,0-.05.11l0,.1,0,.11a.52.52,0,0,0,0,.11v.19a.59.59,0,0,0,0,.19Z"/><path class="cls-12" d="M149.18,10.56c-.1.21-.19.43-.3.64a3.27,3.27,0,0,1-.38.64,2.42,2.42,0,0,1-.25.31,3,3,0,0,1-.31.31l-.2.14a1.1,1.1,0,0,1-.21.14l-.24.14L147,13l-.17-.08a3.7,3.7,0,0,0,.94-.19,2.73,2.73,0,0,0,.64-.31,9.88,9.88,0,0,0,.9-.74c.27-.25.53-.51.77-.77l.72-.78h0c-.17.27-.36.54-.56.8a9.74,9.74,0,0,1-.69.79,6,6,0,0,1-.92.75,2.82,2.82,0,0,1-.65.34,3.93,3.93,0,0,1-1.08.2h-.44l.26-.1.28-.12.26-.13a1.71,1.71,0,0,0,.23-.13l.21-.14a3.24,3.24,0,0,0,.34-.29,4,4,0,0,0,.29-.3,4.46,4.46,0,0,0,.44-.63,6.61,6.61,0,0,0,.35-.63Z"/><path class="cls-12" d="M153.72,10.72a2.08,2.08,0,0,1,0,.35,2.29,2.29,0,0,1-.07.36,2.62,2.62,0,0,1-.33.7,2.75,2.75,0,0,1-.61.69,2.44,2.44,0,0,1-.46.3,2.16,2.16,0,0,1-.68.23l-.13-.09a1.73,1.73,0,0,0,.72-.34.94.94,0,0,0,.09-.12.42.42,0,0,0,0-.12.53.53,0,0,0,0-.12l-.08-.12a.68.68,0,0,1,.12.12.75.75,0,0,1,.07.12.28.28,0,0,1,0,.13.31.31,0,0,1-.06.13,1.53,1.53,0,0,1-.71.41l-.13-.09a2.81,2.81,0,0,0,.58-.21,3.44,3.44,0,0,0,.42-.29,3.66,3.66,0,0,0,.6-.66,4.39,4.39,0,0,0,.41-.68A5.47,5.47,0,0,0,153.72,10.72Z"/><path class="cls-11" d="M189.77,9.72s-.37,1.16-19.11,1.16-20.92-1.59-20.92-1.59A3.42,3.42,0,0,0,147.12,13c15.91,11.1,44.13,1.56,45.22.43C192.73,10.72,189.77,9.72,189.77,9.72Z"/><path class="cls-4" d="M227.78,67.1c0-.48,0-1,0-1.47.16-10.36-1.58-26.83,5.47-42.1-15.17-6.91-40.9-11.48-40.9-11.48S190,14.1,174,14.34C191.59,23.87,214.43,42.71,227.78,67.1Z"/><path class="cls-4" d="M228.33,77.77a84,84,0,0,1-.55-10.67C214.43,42.71,191.59,23.87,174,14.34l-3,0c-1.89,0-3.61,0-5.23-.07-18.29,9.91-42.39,30-55.46,55.91,0,.48-.06,1-.1,1.39a40.52,40.52,0,0,1-.75,5.33s-9.5,61.1-5.06,67.54c4.18,7.73,7.67,8.69,10.23,8.84,19.72-1.9,71.49-4.57,112.52.57,2.47-.38,4.79-1.25,5.79-5.29C235,140.17,228.33,77.77,228.33,77.77Z"/><path class="cls-4" d="M165.76,14.29c-14.44-.4-18.54-2.34-18.54-2.34s-31.65,8.14-46.64,15.41A79.53,79.53,0,0,1,110.3,70.2C123.37,44.27,147.47,24.2,165.76,14.29Z"/><path class="cls-4" d="M227.5,186.22c-1.43-4.61-4.19-12-6.1-18.65-18,3.59-67.32,5.48-104.55,1.31-2.15,5.84-5.11,12.06-6.77,16.07,4.92,1.38,24.63,6.16,60.49,6.16C206.69,191.11,223.54,187.28,227.5,186.22Z"/><path class="cls-1" d="M170.57,191.11c-35.86,0-55.57-4.78-60.49-6.16a14.91,14.91,0,0,0-1.25,3.83s19.87,6.53,61.74,6.53,57.88-5.16,57.88-5.16a19.91,19.91,0,0,0-.95-3.93C223.54,187.28,206.69,191.11,170.57,191.11Z"/><path class="cls-12" d="M167.15,151.15a4.57,4.57,0,0,1-.69-.46,1.54,1.54,0,0,1-.29-.23c-.09-.09-.2-.18-.28-.27l-.26-.31a1.66,1.66,0,0,1-.22-.32l-.2-.33a1.46,1.46,0,0,1-.12-.33c0-.1,0-.21,0-.31a.87.87,0,0,1,.05-.28,2,2,0,0,1,.3-.57h.07a2,2,0,0,1,.21.56.92.92,0,0,0,.07.26,1.38,1.38,0,0,1,.08.29c0,.1,0,.21,0,.32l.1.32a2.15,2.15,0,0,0,.13.32l.18.3a2.83,2.83,0,0,0,.2.28,1.69,1.69,0,0,0,.2.25,3.53,3.53,0,0,0,.52.49Z"/><path class="cls-12" d="M163.76,149s.17,0,.19,0a.17.17,0,0,1-.06.08l-.16.15a3,3,0,0,0-.31.31,2.72,2.72,0,0,0-.44.62,2.19,2.19,0,0,0-.23,1.29l.06.38-.38-.33a2.5,2.5,0,0,1-.4-.52l-.29-.52q-.26-.52-.48-1.05c-.3-.7-.57-1.41-.82-2.12a10.94,10.94,0,0,1-.49-2.15,7.88,7.88,0,0,1-.06-1.09A3.77,3.77,0,0,1,160,143h.07a9.55,9.55,0,0,0,.18,1.07l.27,1.07.57,2.13c.18.71.38,1.42.63,2.12a10.36,10.36,0,0,0,.41,1.05l.24.52a1.76,1.76,0,0,0,.33.49l-.32.05a2.26,2.26,0,0,1,.36-1.32,3,3,0,0,1,.52-.63c.1-.1.22-.2.33-.29l.18-.15s.05-.05.05-.07h-.09Z"/><path class="cls-12" d="M158,152.16s-.31-.52-.7-1.32a15.92,15.92,0,0,1-1.08-3,10.66,10.66,0,0,1-.32-1.61c0-.25,0-.51,0-.74s.07-.46.09-.67.12-.4.17-.57a1.92,1.92,0,0,1,.18-.43l.2-.37h.07s0,.15,0,.39,0,.25,0,.42,0,.36,0,.56,0,.42,0,.66,0,.47.05.73c0,.51.07,1.05.16,1.59a20.16,20.16,0,0,0,.78,3,13.72,13.72,0,0,0,.52,1.33Z"/><path class="cls-12" d="M146.88,152.18a14.72,14.72,0,0,0,.54-1.4c.14-.42.28-.92.42-1.45a12.49,12.49,0,0,0,.28-1.66,5.9,5.9,0,0,0,0-.84,5.39,5.39,0,0,0,0-.81,4.59,4.59,0,0,0-.06-.76,4.84,4.84,0,0,0-.1-.68,3.71,3.71,0,0,0-.17-.56,1.74,1.74,0,0,0-.18-.43c-.12-.24-.2-.38-.2-.38l.06,0,.36.35c.06.06.12.13.19.19a1.58,1.58,0,0,0,.15.24,2.41,2.41,0,0,1,.32.57,4.66,4.66,0,0,1,.24.69,4,4,0,0,1,.12.78,5.86,5.86,0,0,1,0,.83,6.27,6.27,0,0,1-.14.85,12.76,12.76,0,0,1-.43,1.67,13.51,13.51,0,0,1-.57,1.44,14.61,14.61,0,0,1-.73,1.39Z"/><path class="cls-12" d="M145.81,151.24a4.52,4.52,0,0,1-.48-.42,3.87,3.87,0,0,1-.43-.46,3.15,3.15,0,0,1-.19-.27c-.05-.09-.13-.19-.18-.28a3.53,3.53,0,0,1-.25-.57.81.81,0,0,1,0-.27.39.39,0,0,1,.06-.24,1.68,1.68,0,0,1,.36-.48h.07a1.51,1.51,0,0,1,.14.48.94.94,0,0,0,.07.22,1.87,1.87,0,0,1,0,.25,1.24,1.24,0,0,0,0,.27l0,.28c0,.09.07.18.1.28a2,2,0,0,0,.11.26c.1.17.16.34.25.47a4.17,4.17,0,0,0,.32.46Z"/><path class="cls-12" d="M140.36,145.44a7.16,7.16,0,0,1,.63,1.66,7.4,7.4,0,0,1,.24,1.68,6,6,0,0,1,0,.85,6.48,6.48,0,0,1-.19.85,3.45,3.45,0,0,1-.14.42,2.6,2.6,0,0,1-.19.42,4.1,4.1,0,0,1-.22.41l-.27.41-.4-.15a3.54,3.54,0,0,0,1.32-.79,5.07,5.07,0,0,0,.79-1,12.12,12.12,0,0,0,1-2.08c.25-.69.5-1.4.68-2.11l.61-2.12h.07a15.54,15.54,0,0,1-.15,2.15,13.76,13.76,0,0,1-.49,2.14,8,8,0,0,1-1,2.11,5.5,5.5,0,0,1-.9,1,4.19,4.19,0,0,1-1.54.88l-.67.21.26-.36.28-.39a4.23,4.23,0,0,0,.24-.4,1.87,1.87,0,0,0,.2-.4,2.37,2.37,0,0,0,.17-.41,6,6,0,0,0,.23-.83,8,8,0,0,0,.1-.84,6.7,6.7,0,0,0-.1-1.67,7,7,0,0,0-.51-1.67Z"/><path class="cls-12" d="M152.33,144.51a5.41,5.41,0,0,1,.4.89,6.12,6.12,0,0,1,.24.91,5.69,5.69,0,0,1,.05,1.84,4.74,4.74,0,0,1-.67,1.83,4,4,0,0,1-.75.89,4.07,4.07,0,0,1-1.29.78l-.41-.18a2.7,2.7,0,0,0,1.25-1.09.8.8,0,0,0,.06-.3.81.81,0,0,0-.06-.31,1,1,0,0,0-.23-.29,1.75,1.75,0,0,0-.32-.27,2.86,2.86,0,0,1,.42.24,1.45,1.45,0,0,1,.31.29.65.65,0,0,1,.16.32.65.65,0,0,1,0,.34,2.33,2.33,0,0,1-1.16,1.23l-.4-.18a3.57,3.57,0,0,0,1.06-.71,3.86,3.86,0,0,0,.66-.84,5.7,5.7,0,0,0,.69-1.77,9.18,9.18,0,0,0,.18-1.81A11.26,11.26,0,0,0,152.33,144.51Z"/><path class="cls-12" d="M137.76,152.22a3.73,3.73,0,0,1-.54-.51,1.71,1.71,0,0,1-.21-.26,1.21,1.21,0,0,1-.2-.3,3.24,3.24,0,0,1-.17-.32,1.1,1.1,0,0,1-.12-.33l-.1-.35a.74.74,0,0,1,0-.33,1.44,1.44,0,0,1,0-.31.68.68,0,0,1,.13-.27,2.78,2.78,0,0,1,.45-.54h.08a1.69,1.69,0,0,1,0,.57,1.11,1.11,0,0,0,0,.26,1.51,1.51,0,0,1,0,.3c0,.1-.05.21-.06.31v.33a.93.93,0,0,0,0,.33,2.81,2.81,0,0,0,.08.31,1.57,1.57,0,0,0,.12.3,1.23,1.23,0,0,0,.12.26,2.31,2.31,0,0,0,.37.53Z"/><path class="cls-12" d="M135.06,149.79s.17,0,.17.05a.2.2,0,0,1-.08.08l-.2.14c-.14.08-.26.17-.39.26a4.7,4.7,0,0,0-.6.57,2.41,2.41,0,0,0-.56,1.25l-.06.39-.27-.37a1.73,1.73,0,0,1-.25-.54l-.14-.54c-.07-.36-.14-.73-.19-1.09-.1-.72-.18-1.44-.23-2.16a9.84,9.84,0,0,1,.08-2.17,6.94,6.94,0,0,1,.23-1.08,4.28,4.28,0,0,1,.45-1.07h.08a7.91,7.91,0,0,0-.11,1.08l0,1.07,0,2.16c0,.72,0,1.43,0,2.15,0,.36.06.72.11,1.08l.1.54a2.38,2.38,0,0,0,.18.51l-.32,0a2.81,2.81,0,0,1,.71-1.27,5,5,0,0,1,.68-.58l.41-.25.22-.13.07-.06s0,0-.09,0Z"/><path class="cls-12" d="M128.8,152.44s-.18-.54-.38-1.36a17.92,17.92,0,0,1-.48-3,9.67,9.67,0,0,1,0-1.61c0-.26.09-.51.16-.75l.23-.66c.09-.2.21-.38.3-.55a1.84,1.84,0,0,1,.28-.41l.3-.35h.07l-.11.37a3,3,0,0,0-.13.42l-.13.56c0,.2-.08.42-.12.65s-.07.47-.09.73a15.8,15.8,0,0,0-.17,1.59,20.92,20.92,0,0,0,.15,3c.09.82.2,1.36.2,1.36Z"/><path class="cls-12" d="M120.6,152.35s-.11-.56-.27-1.4c-.06-.42-.14-.92-.21-1.46s-.14-1.11-.25-1.66a6.3,6.3,0,0,0-.18-.84c-.07-.27-.16-.54-.25-.8a5.85,5.85,0,0,0-.25-.74,3.34,3.34,0,0,0-.31-.66,2.67,2.67,0,0,0-.36-.54,1.46,1.46,0,0,0-.38-.4l-.39-.34.09,0a4.36,4.36,0,0,1,.62.29l.3.16.26.22a2.71,2.71,0,0,1,.54.53,4.3,4.3,0,0,1,.44.67,3.29,3.29,0,0,1,.28.76,4.63,4.63,0,0,1,.13.83c0,.28,0,.57,0,.86,0,.57,0,1.14,0,1.67s0,1,0,1.47c0,.85.13,1.4.13,1.4Z"/><path class="cls-12" d="M119.52,151.53l-.53-.34c-.17-.1-.36-.23-.56-.37l-.31-.22-.31-.23c-.19-.17-.44-.32-.59-.48a2.07,2.07,0,0,1-.19-.25.89.89,0,0,1-.13-.23,1.09,1.09,0,0,1,0-.51H117a2.23,2.23,0,0,1,.43.42c0,.06.14.12.2.2a2,2,0,0,1,.19.22,2,2,0,0,0,.19.24l.21.26.24.24a2.61,2.61,0,0,0,.24.23c.16.16.32.29.45.41l.44.39Z"/><path class="cls-12" d="M110.23,147.9a13.54,13.54,0,0,1,2.36,1.06,15.5,15.5,0,0,1,1.91,1.28c.3.23.57.46.84.7s.51.49.75.74l.36.38.34.38.32.38.32.38-.35,0a1.69,1.69,0,0,0-.19-.94,10.15,10.15,0,0,0-.51-1l-1.18-2c-.39-.68-.73-1.38-1.08-2.08,0,0-.25-.53-.45-1.06s-.36-1.06-.36-1.06l.1,0a24,24,0,0,1,1.32,2c.38.69.76,1.36,1.11,2.06s.71,1.41,1,2.1c.16.35.31.7.43,1a2,2,0,0,1,.15,1l-.07.3-.28-.32-.3-.37-.32-.37-.33-.37-.34-.37c-.23-.24-.48-.48-.74-.72s-.52-.47-.8-.7a16.28,16.28,0,0,0-1.84-1.31,13.57,13.57,0,0,0-2.26-1.1Z"/><path class="cls-12" d="M124.34,144.53a5.23,5.23,0,0,1,.35.9,3.66,3.66,0,0,1,.18.92,5.64,5.64,0,0,1-.1,1.83,6.72,6.72,0,0,1-.69,1.83,5.36,5.36,0,0,1-.61.88,4.49,4.49,0,0,1-.93.77l-.31-.16a3.11,3.11,0,0,0,.83-1.1.8.8,0,0,0,0-.31.84.84,0,0,0-.08-.3,1.12,1.12,0,0,0-.21-.29,2.21,2.21,0,0,0-.32-.28,3,3,0,0,1,.4.25,1.14,1.14,0,0,1,.29.29.88.88,0,0,1,.16.32,1,1,0,0,1,0,.34,2.53,2.53,0,0,1-.8,1.22l-.3-.16a6.12,6.12,0,0,0,.71-.73,4.75,4.75,0,0,0,.51-.83,8.94,8.94,0,0,0,.64-1.77,10.2,10.2,0,0,0,.28-1.8A10.07,10.07,0,0,0,124.34,144.53Z"/><path class="cls-12" d="M117.74,170a3.24,3.24,0,0,1,.44.46c.07.08.11.16.17.24a1.43,1.43,0,0,1,.15.27q.06.13.12.3a1,1,0,0,1,.09.3l.06.32a.76.76,0,0,1,0,.3,1.37,1.37,0,0,1-.07.29.69.69,0,0,1-.14.25,2.72,2.72,0,0,1-.44.49h-.06a1.48,1.48,0,0,1,0-.52,1,1,0,0,0,0-.25,2.46,2.46,0,0,1,0-.26c0-.1.06-.19.07-.29l0-.3a.75.75,0,0,0,0-.3c0-.1,0-.2,0-.29a2.13,2.13,0,0,0-.08-.27c0-.09,0-.17-.09-.24a2.41,2.41,0,0,0-.28-.49Z"/><path class="cls-12" d="M120,172.23s-.16,0-.16,0,.06-.05.09-.08l.18-.12c.13-.08.25-.17.36-.25a3.68,3.68,0,0,0,.57-.53,2.38,2.38,0,0,0,.57-1.16l.07-.35.22.33a1.63,1.63,0,0,1,.2.51l.1.49c0,.33.09.66.11,1,.06.66.09,1.32.1,2a8.3,8.3,0,0,1-.18,2,5.89,5.89,0,0,1-.26,1,3.82,3.82,0,0,1-.47,1h-.06a8.79,8.79,0,0,0,.15-1l.08-1,.12-2c0-.66.08-1.32.07-2,0-.33,0-.66,0-1l-.06-.48a1.5,1.5,0,0,0-.14-.47l.29,0a2.7,2.7,0,0,1-.7,1.18,5,5,0,0,1-.64.53l-.38.25-.2.11a.22.22,0,0,0-.07.06s0,0,.08,0Z"/><path class="cls-12" d="M125.82,169.74s.14.49.27,1.24a14,14,0,0,1,.23,2.75,9,9,0,0,1-.11,1.48,7,7,0,0,1-.19.69l-.26.6a5.8,5.8,0,0,1-.29.51,2.92,2.92,0,0,1-.29.38l-.28.32h-.06l.13-.35c0-.11.1-.24.14-.39s.09-.32.15-.5.09-.39.15-.6.08-.44.13-.67a13.22,13.22,0,0,0,.26-1.47,18.65,18.65,0,0,0,.07-2.74c0-.75-.11-1.25-.11-1.25Z"/><path class="cls-12" d="M135.32,170.15s-.3.51-.67,1.27c-.19.39-.39.84-.59,1.32a14.91,14.91,0,0,0-.52,1.51c-.07.26-.12.52-.17.78a6.55,6.55,0,0,0-.1.74c-.06.24,0,.47-.08.69a3.31,3.31,0,0,0,0,.63,2.12,2.12,0,0,0,.06.52,1.37,1.37,0,0,0,.1.4l.13.35h-.06l-.29-.33-.15-.18c0-.06-.06-.14-.1-.21a1.87,1.87,0,0,1-.2-.53,3.27,3.27,0,0,1-.11-.65,4.3,4.3,0,0,1,0-.71,5.43,5.43,0,0,1,.18-.75,5.54,5.54,0,0,1,.27-.78,12.91,12.91,0,0,1,.66-1.52c.24-.48.49-.93.73-1.31.46-.75.83-1.26.83-1.26Z"/><path class="cls-12" d="M136.11,171a3.49,3.49,0,0,1,.37.4,4,4,0,0,1,.31.43,1.41,1.41,0,0,1,.13.24c.05.09.09.18.13.26a2.23,2.23,0,0,1,.15.53.69.69,0,0,1,0,.25.57.57,0,0,1-.07.22,2.28,2.28,0,0,1-.39.43h-.06a1.13,1.13,0,0,1-.07-.44.75.75,0,0,0,0-.2,1.77,1.77,0,0,1,0-.23,2,2,0,0,0,0-.25v-.25l0-.26a2.27,2.27,0,0,0-.06-.25c-.07-.16-.1-.31-.17-.44a2.69,2.69,0,0,0-.21-.42Z"/><path class="cls-12" d="M140.46,176.38a5.5,5.5,0,0,1-.49-1.52,6.7,6.7,0,0,1-.09-1.55,4.91,4.91,0,0,1,.1-.77,4.56,4.56,0,0,1,.22-.78,3.12,3.12,0,0,1,.15-.39,1.93,1.93,0,0,1,.19-.38,2.82,2.82,0,0,1,.21-.38l.25-.38.34.13a3.22,3.22,0,0,0-1.17.74,4.91,4.91,0,0,0-.77.9,14.76,14.76,0,0,0-1,1.9c-.29.65-.59,1.29-.85,1.94l-.82,1.95h-.06a15.29,15.29,0,0,1,.4-2,17,17,0,0,1,.69-2,9.15,9.15,0,0,1,1.13-1.93,6.25,6.25,0,0,1,.87-.93,4.11,4.11,0,0,1,1.37-.82l.58-.19-.24.32-.26.37c-.09.11-.15.24-.23.36a3.48,3.48,0,0,0-.2.38,3,3,0,0,0-.17.37,5.82,5.82,0,0,0-.26.77c-.05.25-.11.51-.14.76a6.11,6.11,0,0,0,0,1.54,5.53,5.53,0,0,0,.37,1.52Z"/><path class="cls-12" d="M129.07,177a4.74,4.74,0,0,1-.19-1.67,5,5,0,0,1,.35-1.68,5.53,5.53,0,0,1,1-1.65,5.13,5.13,0,0,1,.82-.78,4.19,4.19,0,0,1,1.27-.66l.32.17a3.12,3.12,0,0,0-1.28,1,.85.85,0,0,0-.12.28.66.66,0,0,0,0,.28.87.87,0,0,0,.14.27,2,2,0,0,0,.24.27c-.11-.08-.24-.16-.33-.24a1,1,0,0,1-.21-.28.56.56,0,0,1-.08-.3.65.65,0,0,1,.05-.31,2.72,2.72,0,0,1,1.23-1.08l.32.18a4.21,4.21,0,0,0-1,.61,5.17,5.17,0,0,0-.74.74,7.17,7.17,0,0,0-1,1.59,9.94,9.94,0,0,0-.54,1.65A11.41,11.41,0,0,0,129.07,177Z"/><path class="cls-12" d="M143.07,170.12a3.63,3.63,0,0,1,.45.46,2.15,2.15,0,0,1,.18.24,1.45,1.45,0,0,1,.17.26l.13.3a1.15,1.15,0,0,1,.11.31l.08.31a1,1,0,0,1,0,.3,2.5,2.5,0,0,1-.05.29.85.85,0,0,1-.13.25,2.33,2.33,0,0,1-.41.5h-.06a1.53,1.53,0,0,1,0-.51,1,1,0,0,0,0-.25.83.83,0,0,1,0-.27c0-.09,0-.19,0-.28v-.3a.77.77,0,0,0,0-.3l-.06-.29a2.15,2.15,0,0,0-.1-.27,1,1,0,0,0-.1-.24,2.16,2.16,0,0,0-.3-.48Z"/><path class="cls-12" d="M145.39,172.3s-.15,0-.14-.05,0-.05.06-.07l.18-.13.34-.25a3.23,3.23,0,0,0,.52-.53,2.26,2.26,0,0,0,.47-1.16l0-.36.24.33a1.4,1.4,0,0,1,.23.5l.14.49.2,1c.11.66.2,1.33.27,2a8.83,8.83,0,0,1,0,2,6.87,6.87,0,0,1-.18,1,3.7,3.7,0,0,1-.39,1h-.07a6.69,6.69,0,0,0,.07-1v-1l0-2c0-.66,0-1.32-.1-2q0-.5-.12-1l-.1-.48a1.56,1.56,0,0,0-.17-.47l.28,0a2.54,2.54,0,0,1-.6,1.19,3.77,3.77,0,0,1-.58.53l-.37.25-.18.12a.22.22,0,0,0-.07.06s0,0,.08,0Z"/><path class="cls-12" d="M150.85,169.68s.19.48.41,1.22a16.69,16.69,0,0,1,.58,2.72,9.44,9.44,0,0,1,.1,1.48,6.52,6.52,0,0,1-.1.68c-.06.22-.13.43-.18.62s-.17.36-.24.51a1.71,1.71,0,0,1-.25.4l-.25.33h-.07s0-.13.09-.35a2.58,2.58,0,0,0,.1-.4c0-.14.06-.32.09-.5s.05-.39.07-.61,0-.43.06-.67c0-.46.07-1,.07-1.46a21.55,21.55,0,0,0-.28-2.73c-.13-.75-.25-1.24-.25-1.24Z"/><path class="cls-12" d="M160,169.61s-.19.52-.39,1.31c-.1.38-.2.84-.29,1.33a12.55,12.55,0,0,0-.18,1.53,5,5,0,0,0,0,.77,5.87,5.87,0,0,0,.05.74,4.84,4.84,0,0,0,.08.69,3.56,3.56,0,0,0,.13.62,3,3,0,0,0,.17.51,1.77,1.77,0,0,0,.19.39l.21.34h-.06l-.36-.31-.18-.16-.16-.21a2,2,0,0,1-.32-.51,3.8,3.8,0,0,1-.24-.62,2.71,2.71,0,0,1-.13-.71,3.88,3.88,0,0,1,0-.76,5.46,5.46,0,0,1,.09-.79,12.74,12.74,0,0,1,.33-1.54,14.07,14.07,0,0,1,.44-1.34c.3-.77.55-1.29.55-1.29Z"/><path class="cls-12" d="M161,170.43a4.85,4.85,0,0,1,.45.37,5.09,5.09,0,0,1,.41.4c.08.08.12.16.19.24l.18.25a3.22,3.22,0,0,1,.28.51,1,1,0,0,1,0,.24.45.45,0,0,1,0,.23,1.42,1.42,0,0,1-.29.44h-.06a1.19,1.19,0,0,1-.16-.43c0-.06-.06-.13-.08-.2a.79.79,0,0,1-.06-.22.69.69,0,0,0-.05-.24l-.06-.26-.1-.25c0-.08-.07-.16-.12-.24s-.17-.3-.26-.42a3.4,3.4,0,0,0-.31-.4Z"/><path class="cls-12" d="M166.5,175.45a7.33,7.33,0,0,1-.8-1.47,7.11,7.11,0,0,1-.42-1.53,4.9,4.9,0,0,1-.07-.77,5.12,5.12,0,0,1,.06-.78,2.63,2.63,0,0,1,.06-.39c0-.13.07-.26.11-.39s.08-.26.14-.39l.18-.39.37.11a2.9,2.9,0,0,0-1,.8,4.16,4.16,0,0,0-.57.93,11.85,11.85,0,0,0-.63,1.94c-.15.65-.31,1.3-.42,2l-.38,2H163a14.37,14.37,0,0,1,0-2,13.27,13.27,0,0,1,.25-2,7.16,7.16,0,0,1,.71-2,4.45,4.45,0,0,1,.67-1,3.37,3.37,0,0,1,1.22-.88l.54-.23-.17.33-.19.38a3.08,3.08,0,0,0-.16.38c-.05.13-.09.25-.13.38a2.87,2.87,0,0,0-.08.38,5.07,5.07,0,0,0-.1.77c0,.25,0,.51,0,.77a6.15,6.15,0,0,0,.31,1.51,6.07,6.07,0,0,0,.69,1.49Z"/><path class="cls-12" d="M155.18,176.74a3.94,3.94,0,0,1-.33-.81,4.11,4.11,0,0,1-.18-.83,5.34,5.34,0,0,1,.05-1.69,5.11,5.11,0,0,1,.66-1.68,3.87,3.87,0,0,1,.65-.8,3.5,3.5,0,0,1,1.07-.72l.36.16a2.43,2.43,0,0,0-1.05,1,.74.74,0,0,0-.06.28.71.71,0,0,0,.06.28.89.89,0,0,0,.19.27,3.74,3.74,0,0,0,.29.25,4,4,0,0,1-.37-.23,1.34,1.34,0,0,1-.27-.26.91.91,0,0,1-.14-.3.76.76,0,0,1,0-.3,2.15,2.15,0,0,1,1-1.13l.36.16a3,3,0,0,0-.9.66,4.86,4.86,0,0,0-.57.76,6.11,6.11,0,0,0-.63,1.62,7.83,7.83,0,0,0-.24,1.65A9.24,9.24,0,0,0,155.18,176.74Z"/><path class="cls-12" d="M173.22,171.44a2.94,2.94,0,0,1,.45.46,2,2,0,0,1,.17.23,2.26,2.26,0,0,1,.16.26l.13.3a1.14,1.14,0,0,1,.09.3l.07.32a1,1,0,0,1,0,.3,1.37,1.37,0,0,1-.07.29.67.67,0,0,1-.13.25,2.66,2.66,0,0,1-.43.51h-.06a1.48,1.48,0,0,1,0-.53,1.57,1.57,0,0,0,0-.24,1.22,1.22,0,0,1,0-.27c0-.1.05-.19.06-.29l0-.3a1.51,1.51,0,0,0,0-.3l-.06-.29a2.76,2.76,0,0,0-.08-.27c0-.08-.05-.16-.09-.23a2.16,2.16,0,0,0-.3-.48Z"/><path class="cls-12" d="M175.49,173.59s-.15,0-.15,0l.08-.08.18-.12.36-.26a4.13,4.13,0,0,0,.56-.54,2.53,2.53,0,0,0,.54-1.17l.06-.35.23.32a1.34,1.34,0,0,1,.2.49l.11.5q.09.49.15,1c.07.65.11,1.31.14,2a8.89,8.89,0,0,1-.14,2,5,5,0,0,1-.24,1,3.82,3.82,0,0,1-.44,1h-.07a8.42,8.42,0,0,0,.14-1l.05-1,.07-2a18.69,18.69,0,0,0,0-2c0-.33,0-.65-.06-1l-.07-.48a1.84,1.84,0,0,0-.15-.47l.29,0a2.84,2.84,0,0,1-.68,1.19,4.28,4.28,0,0,1-.63.55l-.37.25-.2.13s-.06,0-.06.05,0,0,.07,0Z"/><path class="cls-12" d="M181.29,171s.15.5.3,1.24a15.17,15.17,0,0,1,.29,2.75,9,9,0,0,1-.08,1.48,7,7,0,0,1-.17.69c-.09.21-.17.41-.24.61s-.21.36-.29.51a2.42,2.42,0,0,1-.27.39c-.18.21-.27.33-.28.33h-.06s0-.13.12-.34.09-.25.13-.4l.14-.5c0-.19.09-.4.13-.61s.08-.44.13-.67c.08-.47.18-1,.22-1.47a19.32,19.32,0,0,0,0-2.74c-.06-.75-.15-1.25-.15-1.25Z"/><path class="cls-12" d="M190.8,171.16s-.3.51-.65,1.29c-.18.39-.36.84-.56,1.32s-.35,1-.48,1.53a7.14,7.14,0,0,0-.15.78,6.49,6.49,0,0,0-.09.74c-.05.25,0,.48-.06.7a4.23,4.23,0,0,0,0,.62,3.45,3.45,0,0,0,.07.52,1.35,1.35,0,0,0,.12.4l.13.35h-.06l-.29-.32-.16-.18a1.31,1.31,0,0,0-.1-.21,2.11,2.11,0,0,1-.22-.53,3.16,3.16,0,0,1-.11-.64,2.81,2.81,0,0,1,0-.71,4.49,4.49,0,0,1,.16-.76,6.43,6.43,0,0,1,.24-.79c.18-.52.41-1,.63-1.53s.48-.93.7-1.32c.45-.77.8-1.28.8-1.28Z"/><path class="cls-12" d="M191.61,172a3.89,3.89,0,0,1,.37.39,2.32,2.32,0,0,1,.32.42,1.49,1.49,0,0,1,.14.24c.05.09.09.18.14.26a2.21,2.21,0,0,1,.16.52,1,1,0,0,1,0,.25.68.68,0,0,1-.07.23,2.07,2.07,0,0,1-.38.43h-.06a1.25,1.25,0,0,1-.08-.44c0-.07,0-.13,0-.2a.9.9,0,0,1,0-.23,2.09,2.09,0,0,0,0-.25v-.26l-.05-.25a2.33,2.33,0,0,0-.07-.25c-.07-.16-.11-.31-.17-.43a2.66,2.66,0,0,0-.23-.42Z"/><path class="cls-12" d="M196.07,177.26a5.47,5.47,0,0,1-.52-1.5,6.63,6.63,0,0,1-.13-1.54,5.31,5.31,0,0,1,.09-.79,4.47,4.47,0,0,1,.2-.78,3,3,0,0,1,.14-.39,2.64,2.64,0,0,1,.18-.38c.07-.14.12-.26.2-.39l.25-.38.34.11a3.61,3.61,0,0,0-1.16.77,6.09,6.09,0,0,0-.74.92,14.76,14.76,0,0,0-1,1.93c-.28.65-.56,1.3-.8,1.95l-.78,2h-.06a15.26,15.26,0,0,1,.36-2,16.87,16.87,0,0,1,.64-2,10.05,10.05,0,0,1,1.08-2,6.12,6.12,0,0,1,.85-1,4.23,4.23,0,0,1,1.36-.84l.57-.21-.23.32-.25.37c-.1.13-.15.26-.23.38a3.37,3.37,0,0,0-.19.38,1.8,1.8,0,0,0-.16.38,5.56,5.56,0,0,0-.24.76c-.05.26-.1.52-.13.78a6,6,0,0,0,0,1.53,5.14,5.14,0,0,0,.41,1.51Z"/><path class="cls-12" d="M184.7,178.15a5.87,5.87,0,0,1-.19-.83,4.57,4.57,0,0,1,0-.83,5.38,5.38,0,0,1,.32-1.7,5.49,5.49,0,0,1,.93-1.67,4.61,4.61,0,0,1,.8-.79,4.32,4.32,0,0,1,1.25-.7l.32.18a2.93,2.93,0,0,0-1.25,1,.66.66,0,0,0-.11.28.53.53,0,0,0,0,.28.7.7,0,0,0,.14.27,2,2,0,0,0,.25.26,2.27,2.27,0,0,1-.34-.24.8.8,0,0,1-.22-.27.62.62,0,0,1-.09-.29.67.67,0,0,1,.05-.31,2.76,2.76,0,0,1,1.21-1.11l.31.17a4,4,0,0,0-1,.64,5.61,5.61,0,0,0-.72.75,7.3,7.3,0,0,0-.92,1.61,8.53,8.53,0,0,0-.5,1.66A10.4,10.4,0,0,0,184.7,178.15Z"/><path class="cls-12" d="M198.2,168.46a3.92,3.92,0,0,1,.47.45,2,2,0,0,1,.18.23,1.45,1.45,0,0,1,.17.26l.15.29a1.63,1.63,0,0,1,.11.31l.09.31a.76.76,0,0,1,0,.3,1.35,1.35,0,0,1,0,.29.58.58,0,0,1-.12.25,2.4,2.4,0,0,1-.4.51h-.06a1.74,1.74,0,0,1,0-.52,1,1,0,0,0,0-.24,2.43,2.43,0,0,1,0-.27c0-.09,0-.2.05-.3V170a1,1,0,0,0,0-.3,2.46,2.46,0,0,1-.07-.29c0-.09-.08-.17-.11-.26a1.33,1.33,0,0,0-.1-.24,2.5,2.5,0,0,0-.31-.47Z"/><path class="cls-12" d="M200.58,170.58s-.15,0-.15,0a.18.18,0,0,1,.07-.08l.17-.13a4.19,4.19,0,0,0,.33-.26,2.9,2.9,0,0,0,.51-.55,2.31,2.31,0,0,0,.45-1.16l0-.36.26.32a2.28,2.28,0,0,1,.24.5l.14.48.23,1c.12.65.23,1.31.31,2a8.85,8.85,0,0,1,0,2,5.75,5.75,0,0,1-.15,1,3.48,3.48,0,0,1-.36,1h-.07a8.19,8.19,0,0,0,0-1l0-1-.09-2c0-.66-.06-1.32-.14-2,0-.32-.08-.65-.14-1l-.11-.48a1.86,1.86,0,0,0-.19-.46l.29,0a2.54,2.54,0,0,1-.58,1.19,3,3,0,0,1-.57.55l-.35.26-.19.12-.06.06s0,0,.08,0Z"/><path class="cls-12" d="M206,167.83s.19.48.43,1.21a16.61,16.61,0,0,1,.65,2.71,9.52,9.52,0,0,1,.12,1.48,5,5,0,0,1-.08.69c-.06.21-.11.42-.16.62s-.16.36-.23.52a2.36,2.36,0,0,1-.23.39c-.17.22-.25.35-.25.35h-.07l.08-.35c0-.11.07-.24.09-.39s0-.33.08-.51,0-.4.06-.61,0-.44,0-.67a14.25,14.25,0,0,0,0-1.47,19.18,19.18,0,0,0-.34-2.72c-.14-.74-.28-1.23-.28-1.23Z"/><path class="cls-12" d="M215.14,167.56s-.18.52-.36,1.31c-.09.39-.18.85-.26,1.34a12.59,12.59,0,0,0-.15,1.53,6.57,6.57,0,0,0,0,.77c0,.26.05.51.08.75s.08.46.09.68a4.54,4.54,0,0,0,.15.61,2.74,2.74,0,0,0,.18.51,1.79,1.79,0,0,0,.21.39l.21.33-.06,0-.37-.3-.18-.16-.16-.21a2.58,2.58,0,0,1-.34-.5,5,5,0,0,1-.26-.62,3.94,3.94,0,0,1-.14-.7,3.86,3.86,0,0,1,0-.76,7.23,7.23,0,0,1,.07-.79,14.66,14.66,0,0,1,.3-1.55c.13-.49.27-1,.41-1.35.28-.79.52-1.31.52-1.31Z"/><path class="cls-12" d="M216.13,168.35a3.76,3.76,0,0,1,.47.37,4.65,4.65,0,0,1,.42.38c.07.08.12.16.19.23l.19.25a2.51,2.51,0,0,1,.28.5,1.07,1.07,0,0,1,0,.25c0,.08,0,.15,0,.22a1.68,1.68,0,0,1-.27.46h-.07a1.32,1.32,0,0,1-.17-.43c0-.06-.06-.13-.08-.2a.81.81,0,0,1-.07-.22,2,2,0,0,0-.05-.24l-.07-.25-.11-.25a1.12,1.12,0,0,0-.13-.24c-.1-.15-.17-.29-.26-.41a3,3,0,0,0-.32-.4Z"/><path class="cls-12" d="M221.75,173.24a7.1,7.1,0,0,1-.83-1.45,7,7,0,0,1-.46-1.52,4.9,4.9,0,0,1-.08-.77,6.78,6.78,0,0,1,0-.78,2.66,2.66,0,0,1,.07-.39,2.74,2.74,0,0,1,.09-.39c.05-.13.08-.27.13-.39l.17-.4.37.1a2.75,2.75,0,0,0-1,.82,4.46,4.46,0,0,0-.56,1,11,11,0,0,0-.58,2c-.14.65-.28,1.31-.37,2l-.34,2h-.06a14.22,14.22,0,0,1-.09-2,13.31,13.31,0,0,1,.21-2,7.27,7.27,0,0,1,.66-2,4.56,4.56,0,0,1,.65-1,3.31,3.31,0,0,1,1.2-.91l.53-.24-.16.34-.18.38a2.5,2.5,0,0,0-.15.38,5,5,0,0,0-.19.77,4.9,4.9,0,0,0-.08.76,6.52,6.52,0,0,0,0,.77,7.17,7.17,0,0,0,.34,1.51,6.29,6.29,0,0,0,.73,1.47Z"/><path class="cls-12" d="M210.46,174.79a4.73,4.73,0,0,1-.35-.8,4,4,0,0,1-.19-.83,5,5,0,0,1,0-1.68,4.89,4.89,0,0,1,.62-1.69,4.17,4.17,0,0,1,.62-.83,3.39,3.39,0,0,1,1.07-.73l.35.14a2.43,2.43,0,0,0-1,1,1,1,0,0,0,0,.28.55.55,0,0,0,.07.28.75.75,0,0,0,.19.26,2.43,2.43,0,0,0,.3.24,2.7,2.7,0,0,1-.38-.21,1.34,1.34,0,0,1-.27-.26.72.72,0,0,1-.16-.6,2.19,2.19,0,0,1,.94-1.15l.35.15a3.58,3.58,0,0,0-.88.68,4.83,4.83,0,0,0-.55.78,6.4,6.4,0,0,0-.59,1.63,7.78,7.78,0,0,0-.21,1.66A10.11,10.11,0,0,0,210.46,174.79Z"/><path class="cls-12" d="M225.73,153.27a2.72,2.72,0,0,1-.3-.5,1.06,1.06,0,0,1-.09-.25.83.83,0,0,1-.07-.27l0-.3a1.12,1.12,0,0,1,0-.31l0-.3c0-.1.08-.19.11-.28a1.24,1.24,0,0,1,.19-.26.8.8,0,0,1,.23-.22,3.84,3.84,0,0,1,.67-.4l.06,0a1.36,1.36,0,0,1-.18.49.94.94,0,0,0-.12.22,1.42,1.42,0,0,1-.12.25,1.51,1.51,0,0,0-.18.26l-.13.28a.79.79,0,0,0-.1.28c0,.1,0,.19,0,.28a2.44,2.44,0,0,0,0,.27,1,1,0,0,0,0,.24,1.76,1.76,0,0,0,.12.5Z"/><path class="cls-12" d="M224.12,150.87s.17,0,.15.06a.3.3,0,0,1-.11.06l-.25.1a3.41,3.41,0,0,0-.48.18,5.11,5.11,0,0,0-.81.41,3.13,3.13,0,0,0-1,1l-.2.32-.12-.35a1,1,0,0,1,0-.49l.07-.48c.05-.32.13-.64.21-.95.17-.63.35-1.26.57-1.88A8.39,8.39,0,0,1,223,147a7.68,7.68,0,0,1,.63-.9,4.59,4.59,0,0,1,.85-.86l.08,0a7.46,7.46,0,0,0-.52.9l-.42.92-.8,1.85a17.15,17.15,0,0,0-.76,1.85c-.12.31-.21.62-.3.93l-.11.47a1.49,1.49,0,0,0,0,.47l-.32,0a3.81,3.81,0,0,1,1.17-1,5.85,5.85,0,0,1,.87-.4c.17-.06.34-.13.51-.18l.25-.09a.23.23,0,0,0,.1,0l-.09,0Z"/><path class="cls-12" d="M216.94,152.37a11.67,11.67,0,0,1,.11-1.21,14,14,0,0,1,.66-2.63,8,8,0,0,1,.59-1.38c.15-.21.28-.42.43-.62l.48-.53a6.31,6.31,0,0,1,.5-.44,2.44,2.44,0,0,1,.44-.32l.42-.26h.06l-.25.31a3.64,3.64,0,0,0-.28.34l-.34.46-.36.54c-.1.2-.24.4-.36.62-.26.42-.54.88-.77,1.34a18.86,18.86,0,0,0-1,2.59c-.2.71-.29,1.19-.29,1.19Z"/><path class="cls-12" d="M207,150.83s.43-.45,1-1.15l1-1.19c.32-.44.67-.91,1-1.38a4.44,4.44,0,0,0,.38-.71,5.35,5.35,0,0,0,.31-.7,6.92,6.92,0,0,0,.27-.65,3.47,3.47,0,0,0,.16-.59,2.34,2.34,0,0,0,.06-.5.81.81,0,0,0,0-.39l-.06-.35h.07a2.44,2.44,0,0,1,.25.35l.12.19c0,.07,0,.14.07.22a1.51,1.51,0,0,1,.09.53,2.68,2.68,0,0,1,0,.62,2.65,2.65,0,0,1-.21.68,4.91,4.91,0,0,1-.39.7,6.33,6.33,0,0,1-.49.7,16.89,16.89,0,0,1-1.12,1.36c-.39.43-.78.83-1.13,1.17-.68.67-1.18,1.11-1.18,1.11Z"/><path class="cls-12" d="M206.34,149.91a3.77,3.77,0,0,1-.3-.41,2.3,2.3,0,0,1-.25-.44,1.84,1.84,0,0,1-.09-.25,2,2,0,0,1-.08-.26,1.84,1.84,0,0,1-.07-.51,1.34,1.34,0,0,1,.09-.24c.05-.07.06-.14.13-.2a2.64,2.64,0,0,1,.51-.37h.07a.88.88,0,0,1,0,.43.67.67,0,0,0,0,.2.93.93,0,0,1,0,.22,1.28,1.28,0,0,0-.06.23l0,.24v.25a.63.63,0,0,0,0,.24c0,.16,0,.31.07.44a2.4,2.4,0,0,0,.14.42Z"/><path class="cls-12" d="M202.53,144.36a4.42,4.42,0,0,1,.31,1.5,5.35,5.35,0,0,1-.15,1.49,5.19,5.19,0,0,1-.24.73,6,6,0,0,1-.36.72,3.75,3.75,0,0,1-.24.36,3.69,3.69,0,0,1-.25.34l-.3.35-.32.34-.33-.14a5.36,5.36,0,0,0,1.36-.61,7,7,0,0,0,1-.78,18,18,0,0,0,1.49-1.71c.44-.58.89-1.16,1.3-1.76l1.3-1.77h.08a14.35,14.35,0,0,1-.84,1.84,15.52,15.52,0,0,1-1.15,1.8,11,11,0,0,1-1.59,1.73,8.76,8.76,0,0,1-1.09.79,5.85,5.85,0,0,1-1.6.65l-.62.16.29-.3.32-.33a3,3,0,0,0,.3-.34,2.19,2.19,0,0,0,.27-.35,2.7,2.7,0,0,0,.25-.34c.15-.23.28-.47.4-.7a6.46,6.46,0,0,0,.28-.73,5.29,5.29,0,0,0,.27-1.46,4,4,0,0,0-.19-1.49Z"/><path class="cls-12" d="M215.64,145.09a3.68,3.68,0,0,1,0,.81,3.72,3.72,0,0,1-.22.79,5.68,5.68,0,0,1-.89,1.55,7.17,7.17,0,0,1-1.54,1.44,7.57,7.57,0,0,1-1.11.64,6.18,6.18,0,0,1-1.55.47l-.28-.21a4.2,4.2,0,0,0,1.63-.74.92.92,0,0,0,.2-.25.53.53,0,0,0,.08-.27.63.63,0,0,0-.08-.28.89.89,0,0,0-.19-.27,1.59,1.59,0,0,1,.3.27.62.62,0,0,1,.15.29.48.48,0,0,1,0,.29.76.76,0,0,1-.15.28,3.69,3.69,0,0,1-1.62.88l-.29-.21a5.9,5.9,0,0,0,1.29-.45,7.51,7.51,0,0,0,1-.61,9.14,9.14,0,0,0,1.5-1.38,11,11,0,0,0,1.08-1.49A10.27,10.27,0,0,0,215.64,145.09Z"/><path class="cls-12" d="M198.83,150.17a3.7,3.7,0,0,1-.42-.47,1.88,1.88,0,0,1-.16-.23,1.82,1.82,0,0,1-.15-.27l-.12-.29a.84.84,0,0,1-.08-.3l-.07-.31a.93.93,0,0,1,0-.29,1.07,1.07,0,0,1,.07-.27.63.63,0,0,1,.16-.24,2.45,2.45,0,0,1,.49-.45h.07a1.26,1.26,0,0,1,0,.5.85.85,0,0,0,0,.23,1.15,1.15,0,0,1,0,.26,2.76,2.76,0,0,0-.08.27l0,.29a.71.71,0,0,0,0,.29c0,.09,0,.19,0,.28a2,2,0,0,0,.07.26,1.69,1.69,0,0,0,.08.24,2.22,2.22,0,0,0,.27.48Z"/><path class="cls-12" d="M196.55,147.93s.17,0,.16.06a.1.1,0,0,1-.08.06l-.2.12c-.13.06-.25.14-.37.21a3.15,3.15,0,0,0-.57.49A2.08,2.08,0,0,0,195,150l0,.35-.23-.32a1.51,1.51,0,0,1-.23-.48l-.14-.47-.22-1-.33-1.9a6.81,6.81,0,0,1-.05-1.91,4.42,4.42,0,0,1,.18-.95,2.87,2.87,0,0,1,.46-1h.08a6,6,0,0,0-.07.94l0,.95c0,.63.08,1.26.08,1.9s0,1.26.11,1.89l.12.95.09.47a2.45,2.45,0,0,0,.17.45h-.28a2.28,2.28,0,0,1,.63-1.12,2.77,2.77,0,0,1,.64-.49,2.52,2.52,0,0,1,.4-.21l.2-.11.08-.05s0,0-.09,0Z"/><path class="cls-12" d="M190.93,150.29l-.56-1.19a19.54,19.54,0,0,1-1-2.62,8.22,8.22,0,0,1-.29-1.41,4.68,4.68,0,0,1,0-.66c.05-.22.09-.41.14-.6a2.78,2.78,0,0,1,.22-.49,1.71,1.71,0,0,1,.25-.37l.27-.31h.08s0,.12-.07.33a1.74,1.74,0,0,0-.07.37c0,.14,0,.31-.06.49s0,.37,0,.57,0,.42,0,.65a11.31,11.31,0,0,0,.07,1.4,20.18,20.18,0,0,0,.61,2.63l.38,1.2Z"/><path class="cls-12" d="M181.66,150.61s0-.5,0-1.25c0-.38-.08-.81-.13-1.29a11.28,11.28,0,0,0-.27-1.46,6.34,6.34,0,0,0-.23-.74,6.07,6.07,0,0,0-.29-.7,6.4,6.4,0,0,0-.29-.65,4,4,0,0,0-.33-.58,3,3,0,0,0-.36-.48,1.93,1.93,0,0,0-.35-.35l-.35-.31.06,0,.54.27.27.14.25.19a2.93,2.93,0,0,1,.53.47,3.91,3.91,0,0,1,.46.58,3.78,3.78,0,0,1,.35.66,4.64,4.64,0,0,1,.2.73,4.85,4.85,0,0,1,.11.75,11.07,11.07,0,0,1,.1,1.49c0,.48,0,.92,0,1.3-.08.76-.12,1.25-.12,1.25Z"/><path class="cls-12" d="M180.37,149.88s-.27-.13-.62-.33a5.12,5.12,0,0,1-.58-.34,3.13,3.13,0,0,1-.3-.2l-.29-.22a4.43,4.43,0,0,1-.49-.45,1.47,1.47,0,0,1-.13-.24.54.54,0,0,1-.05-.21,1,1,0,0,1,.13-.46h.08a2,2,0,0,1,.34.39c0,.06.12.12.16.18a1.46,1.46,0,0,1,.16.21,2,2,0,0,0,.14.23l.16.23.21.23c.08.07.14.15.22.21s.3.28.44.39a5.75,5.75,0,0,0,.47.36Z"/><path class="cls-12" d="M172.26,145.67a9.43,9.43,0,0,1,1.56,1.3,8.48,8.48,0,0,1,1.14,1.39,5.77,5.77,0,0,1,.41.72,5.16,5.16,0,0,1,.29.74,2.54,2.54,0,0,1,.1.37,2.5,2.5,0,0,1,.06.38,2.33,2.33,0,0,1,0,.37v.38l-.44-.06a1.78,1.78,0,0,0,.73-.84,3.17,3.17,0,0,0,.2-.94,10.1,10.1,0,0,0-.15-1.89c-.1-.63-.19-1.26-.33-1.89l-.34-1.9h.08a16.88,16.88,0,0,1,.81,1.86,13.89,13.89,0,0,1,.51,1.89,6,6,0,0,1,.05,1.93,3.23,3.23,0,0,1-.29,1,2.08,2.08,0,0,1-.88.94l-.46.26,0-.33,0-.37a1.45,1.45,0,0,0,0-.36,1.5,1.5,0,0,0,0-.37,2.41,2.41,0,0,0-.07-.37,4.84,4.84,0,0,0-.25-.73,7.92,7.92,0,0,0-.35-.72,8.18,8.18,0,0,0-1-1.39,8.74,8.74,0,0,0-1.43-1.32Z"/><path class="cls-12" d="M185.08,143.57a4.83,4.83,0,0,1,.55.78,4,4,0,0,1,.36.79,4.3,4.3,0,0,1,.26,1.62,4.06,4.06,0,0,1-.37,1.61,3.31,3.31,0,0,1-.51.79,3,3,0,0,1-1,.74l-.4-.13a1.87,1.87,0,0,0,.83-1,.61.61,0,0,0,0-.27.51.51,0,0,0-.14-.26,1,1,0,0,0-.26-.24,2.71,2.71,0,0,0-.38-.22,4,4,0,0,1,.46.19,1.33,1.33,0,0,1,.35.23.83.83,0,0,1,.22.29.6.6,0,0,1,.08.29,1.76,1.76,0,0,1-.73,1.14l-.4-.14a2.44,2.44,0,0,0,.76-.69,4,4,0,0,0,.42-.75,5,5,0,0,0,.34-1.56,7.06,7.06,0,0,0-.06-1.59A8.54,8.54,0,0,0,185.08,143.57Z"/><line class="cls-8" x1="110.64" y1="72.16" x2="111.74" y2="70.28"/><path class="cls-8" d="M112.83,68.4c.37-.63.73-1.25,1.12-1.86"/><line class="cls-8" x1="115.12" y1="64.7" x2="116.28" y2="62.86"/><line class="cls-8" x1="117.47" y1="61.04" x2="118.7" y2="59.25"/><path class="cls-8" d="M119.93,57.45c.41-.6.84-1.18,1.27-1.76"/><line class="cls-8" x1="122.5" y1="53.94" x2="123.8" y2="52.19"/><line class="cls-8" x1="125.15" y1="50.49" x2="126.51" y2="48.79"/><line class="cls-8" x1="127.89" y1="47.11" x2="129.32" y2="45.47"/><path class="cls-8" d="M130.75,43.82c.46-.55,1-1.07,1.46-1.6"/><path class="cls-8" d="M133.7,40.63c.51-.52,1-1.07,1.51-1.57"/><line class="cls-8" x1="136.76" y1="37.53" x2="138.3" y2="36"/><line class="cls-8" x1="139.9" y1="34.53" x2="141.51" y2="33.06"/><line class="cls-8" x1="143.14" y1="31.62" x2="144.8" y2="30.22"/><line class="cls-8" x1="146.48" y1="28.83" x2="148.19" y2="27.48"/><line class="cls-8" x1="149.91" y1="26.15" x2="151.66" y2="24.86"/><line class="cls-8" x1="153.42" y1="23.59" x2="155.22" y2="22.36"/><line class="cls-8" x1="157.02" y1="21.14" x2="158.86" y2="19.97"/><line class="cls-8" x1="160.7" y1="18.81" x2="162.57" y2="17.7"/><line class="cls-8" x1="164.45" y1="16.6" x2="166.35" y2="15.54"/><line class="cls-8" x1="227.6" y1="69.25" x2="226.45" y2="67.45"/><path class="cls-8" d="M225.31,65.65c-.39-.6-.75-1.21-1.15-1.8"/><line class="cls-8" x1="222.96" y1="62.09" x2="221.76" y2="60.33"/><line class="cls-8" x1="220.56" y1="58.57" x2="219.31" y2="56.84"/><line class="cls-8" x1="218.05" y1="55.12" x2="216.79" y2="53.4"/><line class="cls-8" x1="215.48" y1="51.72" x2="214.16" y2="50.04"/><line class="cls-8" x1="212.83" y1="48.38" x2="211.46" y2="46.75"/><path class="cls-8" d="M210.08,45.12c-.45-.55-.93-1.07-1.41-1.6"/><path class="cls-8" d="M207.24,41.94c-.48-.52-1-1-1.44-1.57"/><line class="cls-8" x1="204.3" y1="38.85" x2="202.81" y2="37.33"/><line class="cls-8" x1="201.28" y1="35.85" x2="199.73" y2="34.39"/><line class="cls-8" x1="198.15" y1="32.95" x2="196.55" y2="31.55"/><line class="cls-8" x1="194.93" y1="30.16" x2="193.27" y2="28.82"/><line class="cls-8" x1="191.61" y1="27.48" x2="189.91" y2="26.2"/><line class="cls-8" x1="188.2" y1="24.93" x2="186.45" y2="23.71"/><line class="cls-8" x1="184.7" y1="22.49" x2="182.91" y2="21.33"/><line class="cls-8" x1="181.12" y1="20.17" x2="179.3" y2="19.06"/><line class="cls-8" x1="177.48" y1="17.96" x2="175.64" y2="16.89"/><line class="cls-8" x1="173.78" y1="15.83" x2="171.92" y2="14.8"/><path class="cls-8" d="M110,186.35l2.07.55"/><path class="cls-8" d="M114.19,187.4l2.1.45"/><line class="cls-8" x1="118.4" y1="188.28" x2="120.51" y2="188.68"/><path class="cls-8" d="M122.63,189c.71.12,1.42.25,2.13.35"/><path class="cls-8" d="M126.89,189.71c.7.11,1.41.22,2.13.3"/><path class="cls-8" d="M131.15,190.29l2.13.27"/><line class="cls-8" x1="135.42" y1="190.79" x2="137.56" y2="191.02"/><line class="cls-8" x1="139.71" y1="191.22" x2="141.85" y2="191.41"/><line class="cls-8" x1="143.99" y1="191.59" x2="146.14" y2="191.73"/><path class="cls-8" d="M148.29,191.88c.71.05,1.43.1,2.14.13"/><line class="cls-8" x1="152.58" y1="192.12" x2="154.73" y2="192.22"/><line class="cls-8" x1="156.88" y1="192.31" x2="159.03" y2="192.37"/><line class="cls-8" x1="161.18" y1="192.44" x2="163.33" y2="192.5"/><line class="cls-8" x1="165.49" y1="192.52" x2="167.64" y2="192.54"/><path class="cls-8" d="M169.79,192.56h2.15"/><line class="cls-8" x1="174.09" y1="192.54" x2="176.24" y2="192.52"/><line class="cls-8" x1="178.4" y1="192.51" x2="180.55" y2="192.46"/><line class="cls-8" x1="182.7" y1="192.41" x2="184.85" y2="192.35"/><line class="cls-8" x1="187" y1="192.28" x2="189.15" y2="192.19"/><line class="cls-8" x1="191.3" y1="192.1" x2="193.45" y2="191.99"/><line class="cls-8" x1="195.6" y1="191.87" x2="197.74" y2="191.74"/><line class="cls-8" x1="199.89" y1="191.58" x2="202.04" y2="191.42"/><line class="cls-8" x1="204.18" y1="191.24" x2="206.32" y2="191.04"/><line class="cls-8" x1="208.46" y1="190.82" x2="210.6" y2="190.59"/><line class="cls-8" x1="212.74" y1="190.33" x2="214.87" y2="190.05"/><path class="cls-8" d="M217,189.74c.71-.11,1.42-.2,2.13-.32"/><line class="cls-8" x1="221.25" y1="189.06" x2="223.36" y2="188.65"/><path class="cls-8" d="M225.47,188.21c.7-.16,1.4-.32,2.09-.51"/><path class="cls-5" d="M114.62,153.3c2.38.15,4-.39,4.57,3.15a7.87,7.87,0,0,1,.19,2.24,35.56,35.56,0,0,1-2.46,10c0,.07,0,.14-.07.21,37.23,4.17,86.57,2.28,104.55-1.31h0c-1.39-4.83-2.14-9-1.19-10.75,1.09-2,3-2.44,5-2.69.65-.09,1.31-.16,2-.26C186.11,148.73,134.34,151.4,114.62,153.3Z"/><line class="cls-8" x1="302.6" y1="252.02" x2="301.08" y2="253.32"/><path class="cls-8" d="M299.47,254.49a17.13,17.13,0,0,1-1.66,1.11"/><path class="cls-8" d="M296.09,256.62c-.57.33-1.18.59-1.78.89"/><path class="cls-8" d="M292.49,258.33c-.62.25-1.23.51-1.85.73"/><path class="cls-8" d="M288.74,259.68c-.63.21-1.29.35-1.93.52"/><path class="cls-8" d="M284.87,260.64c-.65.14-1.31.26-2,.34"/><path class="cls-8" d="M280.92,261.23c-.66.07-1.32.13-2,.15"/><path class="cls-8" d="M276.94,261.45c-.67,0-1.33,0-2-.06"/></svg>