<svg id="圖層_1" data-name="圖層 1" xmlns="http://www.w3.org/2000/svg" viewBox="0 0 324.55 678.76"><defs><style>.cls-1,.cls-4{fill:#f8f1e3;}.cls-1,.cls-11,.cls-2,.cls-3,.cls-4,.cls-6,.cls-7,.cls-9{stroke:#231815;}.cls-1,.cls-2{stroke-miterlimit:10;}.cls-11,.cls-2,.cls-7{fill:none;}.cls-11,.cls-2,.cls-3,.cls-4,.cls-6,.cls-7,.cls-9{stroke-linecap:round;}.cls-3{fill:#e4d3d4;}.cls-11,.cls-3,.cls-4,.cls-6,.cls-7,.cls-9{stroke-linejoin:round;}.cls-5,.cls-6{fill:#fff;}.cls-8{fill:#595757;}.cls-9{fill:#252641;}.cls-10{fill:#231815;}.cls-11{stroke-width:0.5px;}</style></defs><path class="cls-1" d="M244.21,214.62l7.17-47.46s8-27.43,27-41.22c-12-29.73-47.2-27.36-47.2-27.36s4.86,58.93-49.23,58.93-48.26-59-48.26-59S94.48,99,86.4,125.94c23.1,17.16,26.48,40.91,26.48,40.91s3.94,26.34,8.11,48.54C181.36,221.86,244.21,214.62,244.21,214.62Z"/><line class="cls-2" x1="122.11" y1="209.96" x2="121.59" y2="207.09"/><line class="cls-2" x1="121.08" y1="204.21" x2="120.58" y2="201.34"/><line class="cls-2" x1="120.08" y1="198.46" x2="119.59" y2="195.59"/><line class="cls-2" x1="119.11" y1="192.71" x2="118.63" y2="189.83"/><line class="cls-2" x1="118.16" y1="186.95" x2="117.69" y2="184.07"/><line class="cls-2" x1="117.22" y1="181.19" x2="116.76" y2="178.31"/><line class="cls-2" x1="116.31" y1="175.43" x2="115.86" y2="172.55"/><line class="cls-2" x1="115.41" y1="169.66" x2="114.97" y2="166.78"/><path class="cls-2" d="M114.41,163.91c-.23-.94-.46-1.89-.75-2.82"/><path class="cls-2" d="M112.77,158.31c-.29-.93-.67-1.82-1-2.73"/><path class="cls-2" d="M110.64,152.89c-.37-.91-.82-1.77-1.25-2.64"/><path class="cls-2" d="M108.05,147.66c-.49-.84-.92-1.72-1.45-2.54"/><path class="cls-2" d="M105.05,142.65c-.52-.82-1.11-1.59-1.67-2.39"/><line class="cls-2" x1="101.64" y1="137.92" x2="99.81" y2="135.65"/><path class="cls-2" d="M97.85,133.48c-.67-.7-1.28-1.46-2-2.11"/><path class="cls-2" d="M93.73,129.35a28.62,28.62,0,0,0-2.18-1.93"/><path class="cls-2" d="M90.23,122c.2-.45.46-.86.7-1.29s.47-.85.75-1.25"/><path class="cls-2" d="M93.37,117.05a28.77,28.77,0,0,1,1.93-2.19"/><path class="cls-2" d="M97.41,112.84c.76-.62,1.5-1.25,2.3-1.81"/><path class="cls-2" d="M102.12,109.39c.83-.51,1.67-1,2.53-1.46"/><path class="cls-2" d="M107.26,106.63c.88-.42,1.78-.79,2.68-1.16"/><path class="cls-2" d="M112.68,104.46c.93-.31,1.85-.62,2.79-.88"/><path class="cls-2" d="M118.29,102.81c.94-.24,1.89-.45,2.84-.66"/><path class="cls-2" d="M124,101.61c1-.16,1.92-.32,2.89-.45"/><path class="cls-2" d="M131.47,105.28c0,1,.07,1.9.11,2.85"/><line class="cls-2" x1="131.78" y1="110.97" x2="132.09" y2="113.81"/><path class="cls-2" d="M132.5,116.63c.15.94.35,1.87.52,2.81"/><path class="cls-2" d="M133.65,122.22c.2.93.48,1.84.74,2.75"/><path class="cls-2" d="M135.25,127.69c.33.89.59,1.81,1,2.68"/><line class="cls-2" x1="137.34" y1="133" x2="138.6" y2="135.56"/><polyline class="cls-2" points="140.01 138.04 140.73 139.26 141.55 140.43"/><line class="cls-2" x1="143.22" y1="142.74" x2="145.04" y2="144.94"/><path class="cls-2" d="M147,147c.71.64,1.37,1.32,2.11,1.92"/><polyline class="cls-2" points="151.36 150.68 152.52 151.52 153.72 152.29"/><path class="cls-2" d="M156.17,153.73c.84.46,1.7.86,2.55,1.28"/><path class="cls-2" d="M161.36,156.11c.9.31,1.77.68,2.69.93"/><path class="cls-2" d="M166.8,157.81c.92.25,1.84.46,2.78.63"/><path class="cls-2" d="M172.39,158.92c.94.15,1.88.24,2.83.34"/><path class="cls-2" d="M178.06,159.48c.95.07,1.9.07,2.85.09"/><path class="cls-2" d="M183.77,159.56c.95,0,1.9-.07,2.85-.13"/><path class="cls-2" d="M189.46,159.19c.95-.08,1.88-.24,2.82-.37"/><path class="cls-2" d="M195.09,158.31c.94-.17,1.85-.44,2.78-.66"/><path class="cls-2" d="M200.6,156.85c.9-.31,1.8-.63,2.68-1"/><path class="cls-2" d="M205.9,154.74c.85-.42,1.72-.82,2.54-1.3"/><path class="cls-2" d="M210.88,152c.82-.49,1.57-1.07,2.35-1.62"/><path class="cls-2" d="M215.46,148.57c.7-.64,1.41-1.26,2.09-1.93"/><line class="cls-2" x1="219.5" y1="144.56" x2="221.34" y2="142.38"/><path class="cls-2" d="M223,140.06a27,27,0,0,0,1.54-2.39"/><line class="cls-2" x1="225.96" y1="135.19" x2="227.24" y2="132.64"/><path class="cls-2" d="M228.36,130c.39-.87.67-1.78,1-2.67"/><path class="cls-2" d="M230.24,124.64c.28-.91.56-1.82.77-2.75"/><path class="cls-2" d="M231.67,119.11c.18-.93.39-1.86.55-2.79"/><path class="cls-2" d="M232.66,113.5c.11-1,.25-1.89.34-2.83"/><path class="cls-2" d="M233.24,107.82c.06-.95.12-1.89.14-2.84"/><path class="cls-2" d="M237.79,100.83c1,.09,1.94.18,2.91.33"/><path class="cls-2" d="M243.59,101.62c1,.15,1.91.38,2.86.6"/><polyline class="cls-2" points="249.27 102.97 250.67 103.38 252.05 103.88"/><path class="cls-2" d="M254.77,104.94c.89.41,1.8.75,2.66,1.21"/><line class="cls-2" x1="260.01" y1="107.54" x2="262.46" y2="109.13"/><path class="cls-2" d="M264.79,110.89l1.15.91c.37.31.7.67,1.06,1"/><line class="cls-2" x1="269.07" y1="114.86" x2="270.94" y2="117.1"/><path class="cls-2" d="M272.63,119.49l.81,1.22c.13.2.27.4.4.61l.33.65"/><path class="cls-2" d="M273.06,127.61c-.76.6-1.39,1.32-2.09,2"/><line class="cls-2" x1="268.95" y1="131.63" x2="267.04" y2="133.78"/><path class="cls-2" d="M265.23,136c-.59.76-1.21,1.49-1.75,2.29"/><path class="cls-2" d="M261.82,140.65c-.54.79-1,1.61-1.56,2.41"/><path class="cls-2" d="M258.77,145.52c-.48.83-1,1.65-1.43,2.49"/><path class="cls-2" d="M256,150.55c-.44.85-.85,1.72-1.27,2.58"/><path class="cls-2" d="M253.51,155.74c-.4.87-.77,1.76-1.14,2.64"/><path class="cls-2" d="M251.3,161.05c-.35.89-.66,1.8-1,2.7"/><path class="cls-2" d="M249.42,166.48c-.2.94-.31,1.9-.46,2.84"/><line class="cls-2" x1="248.53" y1="172.16" x2="248.1" y2="175.01"/><line class="cls-2" x1="247.67" y1="177.85" x2="247.24" y2="180.69"/><line class="cls-2" x1="246.81" y1="183.54" x2="246.38" y2="186.38"/><line class="cls-2" x1="245.94" y1="189.22" x2="245.51" y2="192.07"/><line class="cls-2" x1="245.08" y1="194.91" x2="244.65" y2="197.75"/><line class="cls-2" x1="244.22" y1="200.6" x2="243.79" y2="203.44"/><line class="cls-2" x1="243.36" y1="206.28" x2="242.93" y2="209.13"/><line class="cls-2" x1="238.77" y1="213.07" x2="235.89" y2="213.34"/><line class="cls-2" x1="233.02" y1="213.58" x2="230.14" y2="213.82"/><line class="cls-2" x1="227.26" y1="214.04" x2="224.38" y2="214.25"/><line class="cls-2" x1="221.5" y1="214.44" x2="218.62" y2="214.63"/><line class="cls-2" x1="215.73" y1="214.8" x2="212.85" y2="214.96"/><line class="cls-2" x1="209.97" y1="215.11" x2="207.08" y2="215.25"/><line class="cls-2" x1="204.2" y1="215.38" x2="201.31" y2="215.49"/><line class="cls-2" x1="198.42" y1="215.6" x2="195.54" y2="215.69"/><line class="cls-2" x1="192.65" y1="215.77" x2="189.77" y2="215.83"/><line class="cls-2" x1="186.88" y1="215.89" x2="183.99" y2="215.93"/><line class="cls-2" x1="181.1" y1="215.96" x2="178.21" y2="215.98"/><line class="cls-2" x1="175.33" y1="215.99" x2="172.44" y2="215.98"/><line class="cls-2" x1="169.55" y1="215.96" x2="166.66" y2="215.92"/><line class="cls-2" x1="163.78" y1="215.87" x2="160.89" y2="215.81"/><line class="cls-2" x1="158" y1="215.74" x2="155.12" y2="215.64"/><line class="cls-2" x1="152.23" y1="215.54" x2="149.34" y2="215.41"/><line class="cls-2" x1="146.46" y1="215.27" x2="143.58" y2="215.12"/><line class="cls-2" x1="140.69" y1="214.95" x2="137.81" y2="214.76"/><line class="cls-2" x1="134.93" y1="214.56" x2="132.05" y2="214.33"/><line class="cls-2" x1="129.17" y1="214.09" x2="126.3" y2="213.83"/><line class="cls-2" x1="88.85" y1="125.18" x2="89.22" y2="124.23"/><line class="cls-2" x1="89.64" y1="125.84" x2="88.85" y2="125.18"/><line class="cls-2" x1="131.5" y1="100.67" x2="131.46" y2="102.26"/><line class="cls-2" x1="129.92" y1="100.81" x2="131.5" y2="100.67"/><line class="cls-2" x1="233.41" y1="100.62" x2="234.87" y2="100.65"/><line class="cls-2" x1="233.43" y1="102.08" x2="233.41" y2="100.62"/><line class="cls-2" x1="275.86" y1="125.25" x2="275.01" y2="125.97"/><line class="cls-2" x1="275.35" y1="124.26" x2="275.86" y2="125.25"/><line class="cls-2" x1="242.39" y1="212.71" x2="241.3" y2="212.83"/><line class="cls-2" x1="242.55" y1="211.63" x2="242.39" y2="212.71"/><line class="cls-2" x1="122.75" y1="213.48" x2="122.56" y2="212.44"/><line class="cls-2" x1="123.81" y1="213.59" x2="122.75" y2="213.48"/><path class="cls-3" d="M138.29,145.35c-1.28-1.19-8.26-11.13-7-46.77-10.78,1-38.4,5.77-44.87,27.36a68.65,68.65,0,0,1,26.2,39.46C117.92,155,129.5,148.76,138.29,145.35Z"/><path class="cls-2" d="M113.56,161.51c-.33-.94-.65-1.89-1-2.82"/><path class="cls-2" d="M111.4,155.91c-.37-.92-.81-1.82-1.22-2.73"/><path class="cls-2" d="M108.87,150.48c-.45-.9-.94-1.77-1.4-2.65"/><path class="cls-2" d="M106,145.22c-.5-.86-1-1.69-1.58-2.54"/><path class="cls-2" d="M102.72,140.19c-.55-.84-1.17-1.63-1.76-2.43"/><path class="cls-2" d="M99.1,135.4c-.63-.77-1.25-1.55-1.94-2.28"/><line class="cls-2" x1="95.12" y1="130.91" x2="93" y2="128.8"/><path class="cls-2" d="M90.75,126.8c-.72-.68-1.55-1.25-2.33-1.88"/><path class="cls-3" d="M278.42,125.94c-9.51-23.52-34.54-27-44.58-27.45-.22,39.1-6.67,45.44-8,46.59,8.77,3.32,20.65,9.52,26.19,19.95C254.37,158.34,262.55,137.42,278.42,125.94Z"/><path class="cls-2" d="M276.5,125.1c-.77.63-1.58,1.2-2.3,1.89"/><line class="cls-2" x1="271.99" y1="128.98" x2="269.89" y2="131.08"/><path class="cls-2" d="M267.89,133.28c-.68.73-1.27,1.53-1.91,2.28"/><path class="cls-2" d="M264.16,137.91c-.6.79-1.18,1.59-1.74,2.42"/><path class="cls-2" d="M260.77,142.8c-.52.84-1.07,1.67-1.56,2.53"/><path class="cls-2" d="M257.72,147.9c-.48.87-1,1.73-1.42,2.62"/><path class="cls-2" d="M255,153.17c-.43.89-.86,1.79-1.27,2.69"/><line class="cls-2" x1="252.48" y1="158.58" x2="251.34" y2="161.32"/><path class="cls-3" d="M119.68,208.22c.4,2.25.81,4.51,1.22,6.71,12.48-1.47,58.08-5.8,122.29-.08l1-.23c.35-2.36.7-4.65,1-6.92C186.29,202.72,135.88,206.54,119.68,208.22Z"/><line class="cls-2" x1="121.59" y1="209.47" x2="124.42" y2="209.23"/><line class="cls-2" x1="127.25" y1="209" x2="130.08" y2="208.79"/><line class="cls-2" x1="132.91" y1="208.59" x2="135.74" y2="208.4"/><line class="cls-2" x1="138.58" y1="208.23" x2="141.41" y2="208.06"/><line class="cls-2" x1="144.25" y1="207.91" x2="147.08" y2="207.77"/><line class="cls-2" x1="149.92" y1="207.64" x2="152.76" y2="207.51"/><line class="cls-2" x1="155.6" y1="207.4" x2="158.43" y2="207.3"/><line class="cls-2" x1="161.27" y1="207.21" x2="164.11" y2="207.13"/><line class="cls-2" x1="166.95" y1="207.06" x2="169.79" y2="207"/><line class="cls-2" x1="172.62" y1="206.95" x2="175.46" y2="206.91"/><line class="cls-2" x1="178.3" y1="206.87" x2="181.14" y2="206.86"/><line class="cls-2" x1="183.98" y1="206.85" x2="186.82" y2="206.85"/><line class="cls-2" x1="189.66" y1="206.86" x2="192.5" y2="206.87"/><line class="cls-2" x1="195.34" y1="206.91" x2="198.18" y2="206.95"/><line class="cls-2" x1="201.02" y1="207" x2="203.86" y2="207.05"/><line class="cls-2" x1="206.69" y1="207.12" x2="209.53" y2="207.2"/><line class="cls-2" x1="212.37" y1="207.29" x2="215.21" y2="207.38"/><line class="cls-2" x1="218.05" y1="207.49" x2="220.88" y2="207.61"/><line class="cls-2" x1="223.72" y1="207.74" x2="226.56" y2="207.87"/><line class="cls-2" x1="229.39" y1="208.02" x2="232.23" y2="208.19"/><line class="cls-2" x1="235.06" y1="208.36" x2="237.89" y2="208.54"/><line class="cls-2" x1="240.73" y1="208.75" x2="243.56" y2="208.96"/><path class="cls-1" d="M139.7,146.64l-1.41-1.29c-8.79,3.41-20.37,9.66-25.69,20.05.19.93.28,1.45.28,1.45s.05.38.15,1.05C118.34,158.39,131.08,150.31,139.7,146.64Z"/><path class="cls-4" d="M224.43,146.38c-12.19,10.71-34.15,26.52-43,26.52s-28.54-14.21-41.76-26.26c-8.62,3.67-21.36,11.75-26.67,21.26.65,4.31,3.27,21.36,6.3,38.4.12.64.24,1.28.35,1.92,16.2-1.68,66.61-5.5,125.56-.52l.21-1.39c3.11-20.78,5.6-37,5.91-38.95C245.9,157.86,234.92,150.21,224.43,146.38Z"/><path class="cls-2" d="M225,148.14c.93.38,1.81.85,2.71,1.27"/><path class="cls-2" d="M230.35,150.85c.87.5,1.72,1,2.56,1.56"/><path class="cls-2" d="M235.4,154.07c.82.57,1.62,1.16,2.43,1.76"/><path class="cls-2" d="M240.18,157.68c.77.64,1.54,1.28,2.28,1.95"/><path class="cls-2" d="M244.65,161.66c.72.7,1.42,1.41,2.1,2.14"/><path class="cls-2" d="M248.72,166.05c.66.76,1.23,1.57,1.82,2.38"/><path class="cls-2" d="M114.44,167.9c.26-.42.59-.78.88-1.18s.6-.77.93-1.13"/><path class="cls-2" d="M118.24,163.43c.67-.72,1.41-1.36,2.11-2.05"/><path class="cls-2" d="M122.57,159.45c.75-.63,1.5-1.26,2.28-1.85"/><path class="cls-2" d="M127.19,155.83c.78-.6,1.6-1.14,2.39-1.71"/><path class="cls-2" d="M132,152.5c.83-.52,1.65-1.06,2.5-1.55"/><path class="cls-2" d="M137.08,149.48c.85-.47,1.72-.92,2.6-1.35"/><path class="cls-1" d="M252.08,165c-5.54-10.43-17.42-16.63-26.19-19.95-.46.42-1,.86-1.46,1.3,10.49,3.83,21.47,11.48,26.93,21a1.47,1.47,0,0,0,0-.2S251.62,166.38,252.08,165Z"/><path class="cls-4" d="M258.54,104.22a58.68,58.68,0,0,0-27-5.64s5.22,12.52-48.88,12.52-48.61-12.63-48.61-12.63a77.72,77.72,0,0,0-23.39,4.59c117.4,40.48,34.62,90.46,9.07,103.68.51,2.91,1,5.81,1.58,8.65,60.38,6.47,123.23-.77,123.23-.77l.78-5.17C219.71,196.22,134.51,145.05,258.54,104.22Z"/><line class="cls-2" x1="122.64" y1="211.03" x2="122.51" y2="210.29"/><line class="cls-2" x1="125.15" y1="206.23" x2="127.63" y2="204.84"/><line class="cls-2" x1="130.09" y1="203.42" x2="132.53" y2="201.97"/><line class="cls-2" x1="134.96" y1="200.47" x2="137.35" y2="198.95"/><line class="cls-2" x1="139.73" y1="197.38" x2="142.08" y2="195.78"/><line class="cls-2" x1="144.4" y1="194.14" x2="146.68" y2="192.45"/><line class="cls-2" x1="148.94" y1="190.71" x2="151.15" y2="188.93"/><line class="cls-2" x1="153.33" y1="187.1" x2="155.45" y2="185.21"/><path class="cls-2" d="M157.53,183.27c.67-.67,1.36-1.33,2-2"/><path class="cls-2" d="M161.49,179.19c.62-.72,1.28-1.4,1.87-2.14"/><path class="cls-2" d="M165.14,174.83c.57-.76,1.16-1.5,1.68-2.3"/><polyline class="cls-2" points="168.38 170.16 169.12 168.95 169.8 167.7"/><path class="cls-2" d="M171.07,165.15c.43-.85.71-1.75,1.08-2.63"/><path class="cls-2" d="M173,159.82c.19-.93.46-1.84.6-2.78"/><path class="cls-2" d="M174,154.22l.09-1.42c0-.48,0-1,0-1.42"/><path class="cls-2" d="M173.75,148.55l-.19-1.41c-.08-.47-.24-.92-.35-1.38"/><line class="cls-2" x1="172.4" y1="143.04" x2="171.35" y2="140.4"/><polyline class="cls-2" points="170 137.89 169.67 137.27 169.27 136.68 168.47 135.5"/><line class="cls-2" x1="166.79" y1="133.21" x2="164.98" y2="131.02"/><path class="cls-2" d="M163,129c-.33-.34-.65-.69-1-1l-1.07-.94"/><line class="cls-2" x1="158.82" y1="125.13" x2="156.58" y2="123.38"/><line class="cls-2" x1="154.3" y1="121.67" x2="151.96" y2="120.06"/><line class="cls-2" x1="149.58" y1="118.51" x2="147.16" y2="117.02"/><line class="cls-2" x1="144.69" y1="115.6" x2="142.21" y2="114.22"/><line class="cls-2" x1="139.69" y1="112.91" x2="137.15" y2="111.63"/><line class="cls-2" x1="134.58" y1="110.4" x2="132" y2="109.22"/><line class="cls-2" x1="129.4" y1="108.05" x2="126.78" y2="106.96"/><line class="cls-2" x1="126.79" y1="101.22" x2="128.61" y2="100.99"/><path class="cls-2" d="M133.82,104.05a11.9,11.9,0,0,0,2.2,1.87"/><path class="cls-2" d="M138.53,107.39c.89.38,1.76.81,2.67,1.12"/><path class="cls-2" d="M144,109.42c.94.26,1.86.54,2.81.74"/><path class="cls-2" d="M149.61,110.77c.95.17,1.9.37,2.86.51"/><line class="cls-2" x1="155.34" y1="111.71" x2="158.23" y2="112.05"/><path class="cls-2" d="M161.12,112.33c1,.08,1.93.19,2.89.25"/><path class="cls-2" d="M166.91,112.76c1,.07,1.93.1,2.9.15"/><line class="cls-2" x1="172.71" y1="113.03" x2="175.62" y2="113.1"/><line class="cls-2" x1="178.52" y1="113.15" x2="181.43" y2="113.18"/><line class="cls-2" x1="184.33" y1="113.17" x2="187.23" y2="113.15"/><line class="cls-2" x1="190.14" y1="113.09" x2="193.04" y2="113.02"/><path class="cls-2" d="M195.94,112.89c1,0,1.94-.08,2.9-.15"/><line class="cls-2" x1="201.74" y1="112.56" x2="204.64" y2="112.31"/><path class="cls-2" d="M207.53,112c1-.11,1.92-.2,2.88-.34"/><line class="cls-2" x1="213.29" y1="111.25" x2="216.14" y2="110.73"/><path class="cls-2" d="M219,110.11c1-.19,1.87-.5,2.81-.75"/><path class="cls-2" d="M224.54,108.45c.9-.36,1.8-.73,2.67-1.15"/><path class="cls-2" d="M229.71,105.82l.6-.41c.19-.14.36-.32.54-.47a8.35,8.35,0,0,0,1-1"/><path class="cls-2" d="M237.13,100.75q1.14.09,2.28.21"/><path class="cls-2" d="M241.67,101.25c.75.11,1.5.23,2.25.37"/><line class="cls-2" x1="243.89" y1="107.24" x2="241.24" y2="108.3"/><line class="cls-2" x1="238.58" y1="109.35" x2="235.96" y2="110.49"/><path class="cls-2" d="M233.33,111.63c-.88.36-1.73.79-2.59,1.2"/><path class="cls-2" d="M228.16,114.06c-.87.4-1.73.81-2.57,1.26"/><path class="cls-2" d="M223.06,116.65c-.83.46-1.7.86-2.51,1.36"/><path class="cls-2" d="M218.08,119.46c-.82.49-1.66.93-2.45,1.47"/><path class="cls-2" d="M213.23,122.49c-.79.53-1.6,1-2.36,1.61"/><path class="cls-2" d="M208.57,125.8c-.38.29-.77.56-1.14.86l-1.09.92"/><path class="cls-2" d="M204.15,129.43c-.71.63-1.37,1.32-2.05,2"/><line class="cls-2" x1="200.11" y1="133.47" x2="198.24" y2="135.63"/><path class="cls-2" d="M196.56,137.94l-.83,1.16c-.26.4-.47.83-.71,1.24"/><line class="cls-2" x1="193.65" y1="142.85" x2="192.55" y2="145.49"/><path class="cls-2" d="M191.73,148.23a15.41,15.41,0,0,0-.55,2.8"/><path class="cls-2" d="M190.9,153.87c0,.47-.05.95,0,1.43l.08,1.42"/><path class="cls-2" d="M191.26,159.56c.14.94.4,1.86.6,2.8"/><path class="cls-2" d="M192.73,165.08c.36.88.65,1.79,1.08,2.65"/><polyline class="cls-2" points="195.08 170.29 195.76 171.54 196.5 172.76"/><path class="cls-2" d="M198.07,175.15c.53.8,1.12,1.55,1.69,2.31"/><path class="cls-2" d="M201.55,179.69c.6.74,1.26,1.43,1.88,2.15"/><path class="cls-2" d="M205.39,183.92c.67.69,1.36,1.35,2,2"/><line class="cls-2" x1="209.51" y1="187.89" x2="211.65" y2="189.79"/><line class="cls-2" x1="213.84" y1="191.63" x2="216.07" y2="193.42"/><line class="cls-2" x1="218.34" y1="195.16" x2="220.64" y2="196.85"/><line class="cls-2" x1="222.98" y1="198.5" x2="225.34" y2="200.11"/><line class="cls-2" x1="227.73" y1="201.68" x2="230.14" y2="203.21"/><line class="cls-2" x1="232.58" y1="204.7" x2="235.04" y2="206.16"/><line class="cls-2" x1="237.52" y1="207.59" x2="240.02" y2="208.98"/><line class="cls-2" x1="239.12" y1="213.07" x2="236.24" y2="213.34"/><line class="cls-2" x1="233.36" y1="213.58" x2="230.49" y2="213.82"/><line class="cls-2" x1="227.61" y1="214.04" x2="224.73" y2="214.25"/><line class="cls-2" x1="221.84" y1="214.45" x2="218.96" y2="214.63"/><line class="cls-2" x1="216.08" y1="214.8" x2="213.2" y2="214.96"/><line class="cls-2" x1="210.31" y1="215.12" x2="207.43" y2="215.25"/><line class="cls-2" x1="204.54" y1="215.38" x2="201.66" y2="215.49"/><line class="cls-2" x1="198.77" y1="215.6" x2="195.88" y2="215.69"/><line class="cls-2" x1="193" y1="215.77" x2="190.11" y2="215.84"/><line class="cls-2" x1="187.22" y1="215.89" x2="184.33" y2="215.93"/><line class="cls-2" x1="181.44" y1="215.97" x2="178.56" y2="215.98"/><line class="cls-2" x1="175.67" y1="215.99" x2="172.78" y2="215.98"/><line class="cls-2" x1="169.89" y1="215.96" x2="167.01" y2="215.93"/><line class="cls-2" x1="164.12" y1="215.88" x2="161.23" y2="215.81"/><line class="cls-2" x1="158.34" y1="215.74" x2="155.46" y2="215.65"/><line class="cls-2" x1="152.57" y1="215.54" x2="149.69" y2="215.41"/><line class="cls-2" x1="146.8" y1="215.28" x2="143.92" y2="215.12"/><line class="cls-2" x1="141.03" y1="214.95" x2="138.15" y2="214.76"/><line class="cls-2" x1="135.27" y1="214.56" x2="132.39" y2="214.33"/><line class="cls-2" x1="129.51" y1="214.09" x2="126.64" y2="213.83"/><line class="cls-2" x1="122.07" y1="207.89" x2="122.99" y2="207.4"/><line class="cls-2" x1="122.26" y1="208.9" x2="122.07" y2="207.89"/><polyline class="cls-2" points="117.18 103.17 118.26 102.89 119.34 102.62 120.42 102.37 121.51 102.14"/><line class="cls-2" x1="121.34" y1="104.76" x2="117.18" y2="103.17"/><polyline class="cls-2" points="131.97 100.67 132.04 100.96 132.13 101.26 132.23 101.55 132.34 101.83"/><line class="cls-2" x1="130.74" y1="100.77" x2="131.97" y2="100.67"/><line class="cls-2" x1="233.65" y1="100.62" x2="234.82" y2="100.64"/><polyline class="cls-2" points="233.31 101.73 233.42 101.46 233.51 101.19 233.59 100.9 233.65 100.62"/><line class="cls-2" x1="252.71" y1="103.99" x2="248.97" y2="105.35"/><polyline class="cls-2" points="248.91 102.78 249.87 103.05 250.82 103.35 251.3 103.5 251.77 103.66 252.71 103.99"/><line class="cls-2" x1="243.05" y1="210.61" x2="242.9" y2="211.61"/><line class="cls-2" x1="242.16" y1="210.14" x2="243.05" y2="210.61"/><line class="cls-2" x1="242.74" y1="212.71" x2="241.65" y2="212.83"/><line class="cls-2" x1="242.9" y1="211.63" x2="242.74" y2="212.71"/><line class="cls-2" x1="123.09" y1="213.48" x2="122.9" y2="212.44"/><line class="cls-2" x1="124.15" y1="213.59" x2="123.09" y2="213.48"/><path class="cls-3" d="M120,208.22c.4,2.25.81,4.51,1.22,6.71,12.49-1.46,58.09-5.8,122.29-.08l1-.23c.35-2.36.69-4.65,1-6.92C186.63,202.72,136.22,206.54,120,208.22Z"/><line class="cls-2" x1="121.93" y1="209.47" x2="124.76" y2="209.23"/><line class="cls-2" x1="127.59" y1="209" x2="130.42" y2="208.79"/><line class="cls-2" x1="133.25" y1="208.59" x2="136.08" y2="208.4"/><line class="cls-2" x1="138.92" y1="208.23" x2="141.75" y2="208.06"/><line class="cls-2" x1="144.59" y1="207.91" x2="147.42" y2="207.77"/><line class="cls-2" x1="150.26" y1="207.64" x2="153.1" y2="207.51"/><line class="cls-2" x1="155.94" y1="207.4" x2="158.77" y2="207.3"/><line class="cls-2" x1="161.61" y1="207.21" x2="164.45" y2="207.13"/><line class="cls-2" x1="167.29" y1="207.06" x2="170.13" y2="207"/><line class="cls-2" x1="172.97" y1="206.95" x2="175.8" y2="206.91"/><line class="cls-2" x1="178.64" y1="206.87" x2="181.48" y2="206.86"/><line class="cls-2" x1="184.32" y1="206.85" x2="187.16" y2="206.85"/><line class="cls-2" x1="190" y1="206.86" x2="192.84" y2="206.87"/><line class="cls-2" x1="195.68" y1="206.91" x2="198.52" y2="206.95"/><line class="cls-2" x1="201.36" y1="207" x2="204.2" y2="207.05"/><line class="cls-2" x1="207.04" y1="207.12" x2="209.87" y2="207.2"/><line class="cls-2" x1="212.71" y1="207.29" x2="215.55" y2="207.38"/><line class="cls-2" x1="218.39" y1="207.49" x2="221.22" y2="207.61"/><line class="cls-2" x1="224.06" y1="207.74" x2="226.9" y2="207.87"/><line class="cls-2" x1="229.73" y1="208.02" x2="232.57" y2="208.19"/><line class="cls-2" x1="235.4" y1="208.36" x2="238.23" y2="208.54"/><line class="cls-2" x1="241.07" y1="208.75" x2="243.9" y2="208.96"/><path class="cls-3" d="M227.56,148.78c-6.77,17.79-20.34,30.35-47.55,30.35-26.25,0-38.61-12.62-44.25-29.79-7.85,3.28-17.3,8.71-22.61,17.13,0,.25.06.39.06.39s.06.37.16,1c.66,4.31,3.28,21.36,6.3,38.4.12.65.24,1.28.35,1.92,16.2-1.68,66.61-5.5,125.56-.52.08-.45.14-.93.21-1.39,3.05-20.39,5.51-36.34,5.88-38.79C246.13,158.73,235.6,152.14,227.56,148.78Z"/><path class="cls-2" d="M228.74,150.7c.77.4,1.55.8,2.3,1.24"/><path class="cls-2" d="M233.29,153.29c.75.45,1.47.94,2.2,1.41"/><path class="cls-2" d="M237.65,156.19c.71.51,1.42,1,2.11,1.56"/><path class="cls-2" d="M241.83,159.36c.69.53,1.34,1.11,2,1.67"/><path class="cls-2" d="M245.8,162.77c.63.61,1.27,1.2,1.88,1.83"/><path class="cls-2" d="M249.47,166.51c.57.66,1.13,1.33,1.65,2"/><path class="cls-2" d="M114.41,167c.61-.76,1.22-1.51,1.9-2.21"/><path class="cls-2" d="M118.37,162.76c.72-.66,1.44-1.31,2.19-1.93"/><path class="cls-2" d="M122.84,159c.78-.59,1.55-1.18,2.35-1.73"/><path class="cls-2" d="M127.6,155.61c.82-.52,1.63-1.06,2.47-1.55"/><path class="cls-2" d="M132.59,152.58c.85-.47,1.71-.93,2.58-1.36"/><path class="cls-3" d="M135.76,149.34c-5-15.23-4.73-34-4.14-50.76-10.78,1-38.4,5.77-44.87,27.36a68.72,68.72,0,0,1,26.19,39.46c.1.47.17.82.21,1.07C118.46,158.05,127.91,152.62,135.76,149.34Z"/><path class="cls-3" d="M251.73,167.16s.23-.78.69-2.13c2.3-6.69,10.47-27.61,26.34-39.09-9.51-23.52-34.54-27-44.57-27.45-.11,17.61-1.09,35.7-6.63,50.29,8,3.36,18.57,9.95,24.11,18.74,0,0,0-.12,0-.16Z"/><path class="cls-2" d="M113.9,161.51c-.33-.94-.65-1.89-1-2.82"/><path class="cls-2" d="M111.75,155.91c-.38-.92-.81-1.82-1.23-2.73"/><path class="cls-2" d="M109.21,150.48c-.45-.89-.93-1.77-1.4-2.65"/><path class="cls-2" d="M106.32,145.23c-.51-.87-1.06-1.7-1.58-2.55"/><path class="cls-2" d="M103.06,140.19c-.55-.84-1.16-1.62-1.76-2.43"/><path class="cls-2" d="M99.45,135.4c-.64-.77-1.26-1.55-2-2.28"/><line class="cls-2" x1="95.47" y1="130.92" x2="93.34" y2="128.8"/><path class="cls-2" d="M91.1,126.81c-.73-.69-1.55-1.26-2.33-1.89"/><path class="cls-2" d="M276.84,125.1c-.77.63-1.58,1.2-2.3,1.89"/><line class="cls-2" x1="272.33" y1="128.98" x2="270.23" y2="131.08"/><path class="cls-2" d="M268.23,133.29c-.68.72-1.27,1.52-1.91,2.27"/><path class="cls-2" d="M264.5,137.91c-.6.79-1.19,1.59-1.74,2.42"/><path class="cls-2" d="M261.11,142.8c-.52.84-1.07,1.67-1.57,2.53"/><path class="cls-2" d="M258.05,147.9c-.47.87-1,1.73-1.41,2.62"/><path class="cls-2" d="M255.3,153.17c-.43.89-.86,1.79-1.27,2.69"/><line class="cls-2" x1="252.82" y1="158.58" x2="251.68" y2="161.32"/><path class="cls-3" d="M189.14,417.91c24,1.43,37.62-.18,58.17-5.08,3.65-29.45,4.81-45.45,5.06-63.88-6.61-56.5-12.29-67.1-12.29-67.1s-55.24,16.84-113-1.41c-1,1.54-12.87,11.79-12.09,68.91.24,18.35,3.33,35,7,64.25,12.45,2.46,30.52,8.2,57.76,4.31,0,0,.93-52.85,0-65.38s9.67-1.81,9.67-1.81Z"/><line class="cls-2" x1="123.1" y1="411" x2="125.95" y2="411.61"/><line class="cls-2" x1="128.8" y1="412.24" x2="131.65" y2="412.86"/><line class="cls-2" x1="134.5" y1="413.46" x2="137.36" y2="414.01"/><path class="cls-2" d="M140.23,414.52c1,.17,1.92.31,2.88.45"/><line class="cls-2" x1="146" y1="415.36" x2="148.9" y2="415.7"/><path class="cls-2" d="M151.8,416c1,.1,1.94.12,2.91.19"/><line class="cls-2" x1="157.62" y1="416.26" x2="160.54" y2="416.33"/><path class="cls-2" d="M163.46,416.29c1,0,1.94,0,2.91-.08"/><path class="cls-2" d="M169.28,416.07c1-.06,1.94-.16,2.91-.24"/><line class="cls-2" x1="175.09" y1="415.55" x2="177.98" y2="415.2"/><line class="cls-2" x1="190.34" y1="415.09" x2="193.27" y2="415.25"/><path class="cls-2" d="M196.2,415.36c1,.05,2,.07,2.93.09"/><line class="cls-2" x1="202.06" y1="415.5" x2="204.99" y2="415.51"/><path class="cls-2" d="M207.93,415.47c1,0,1.95-.05,2.93-.08"/><path class="cls-2" d="M213.79,415.25c1-.06,2-.1,2.92-.19"/><line class="cls-2" x1="219.63" y1="414.81" x2="222.55" y2="414.5"/><path class="cls-2" d="M225.46,414.13c1-.12,1.94-.28,2.9-.42"/><path class="cls-2" d="M231.26,413.24c1-.16,1.92-.33,2.88-.52"/><line class="cls-2" x1="237.02" y1="412.16" x2="239.89" y2="411.56"/><line class="cls-2" x1="242.76" y1="410.93" x2="245.61" y2="410.27"/><path class="cls-5" d="M214.71,254s21,6.33,18.86,11.67-12-1.07-12-1.07Z"/><path class="cls-5" d="M132.22,260.42s46-22.2,72.33-8.72,16.07,8.16,3,16.77c-30.77-11-72.24,2.84-72.24,2.84Z"/><path class="cls-6" d="M134.26,260.09s-2.45.09-1.43,3.41c-3.07,1.64-2.43,5.84-2.43,5.84s-3.45,2.8-2.81,6.75a8.27,8.27,0,0,0-1.9,4.52s22.23-15.67,57.38-15.3,60.37,16.53,60.37,16.53.56-1.8-2.05-4.64c.59-4-2.85-6.44-2.85-6.44a7.29,7.29,0,0,0-2.52-5.7c.5-2.55-1.1-2.48-1.1-2.48"/><path class="cls-6" d="M183.07,247.67c-35.15-.36-48.81,12.42-48.81,12.42"/><path class="cls-6" d="M234.92,262.58s-16.72-14.53-51.85-14.91"/><path class="cls-7" d="M183.07,251.9c-35.15-.37-50.24,11.42-50.24,11.42"/><path class="cls-7" d="M236,264.88s-17.82-12.61-53-13"/><path class="cls-7" d="M183.07,256.31c-35.15-.37-52.67,12.85-52.67,12.85"/><path class="cls-7" d="M238.54,270.57s-20.34-13.9-55.47-14.26"/><path class="cls-7" d="M183.09,261.87c-35.14-.37-55.5,14-55.5,14"/><path class="cls-7" d="M241.39,277s-23.16-14.79-58.3-15.15"/><path class="cls-8" d="M166.87,256.52a9.8,9.8,0,0,1-.58-1.76,6.25,6.25,0,0,1-.12-1.86l.08.13a2.61,2.61,0,0,1-1-.88,3.84,3.84,0,0,1-.49-1.05,5.42,5.42,0,0,1-.17-2.19,9.11,9.11,0,0,0,.51,2.12,3.23,3.23,0,0,0,1.38,1.75.17.17,0,0,1,.08.13h0a5.49,5.49,0,0,0-.05.91c0,.29,0,.59.05.9C166.66,255.31,166.75,255.92,166.87,256.52Z"/><path class="cls-8" d="M160.89,256.31a4.44,4.44,0,0,1-.9-1.14,2,2,0,0,1-.24-.67,1.09,1.09,0,0,1,.14-.77l.23.19a.9.9,0,0,1-.66-.07,1.13,1.13,0,0,1-.36-.32,2.5,2.5,0,0,1-.36-.71,4.36,4.36,0,0,1-.2-1.52,11.55,11.55,0,0,0,.51,1.43,3.2,3.2,0,0,0,.4.63.64.64,0,0,0,.59.28.21.21,0,0,1,.25.08.12.12,0,0,1,0,.1h0a1.46,1.46,0,0,0,0,1.24A9.32,9.32,0,0,0,160.89,256.31Z"/><path class="cls-8" d="M182.9,256a12.73,12.73,0,0,1-1.4-1.9,5.11,5.11,0,0,1-.49-1,1.6,1.6,0,0,1-.11-.57.69.69,0,0,1,.28-.62l.14.25a.62.62,0,0,1-.44-.17,1.06,1.06,0,0,1-.2-.24,2,2,0,0,1-.27-.47,6.93,6.93,0,0,1-.33-1,11.08,11.08,0,0,1-.32-2c.22.65.44,1.28.65,1.91a7.61,7.61,0,0,0,.39.93,2.76,2.76,0,0,0,.25.44c.08.12.25.26.29.24a.22.22,0,0,1,.24.06c0,.05,0,.11,0,.15l-.07.06a.41.41,0,0,0-.16.39,2.26,2.26,0,0,0,.08.5,8.69,8.69,0,0,0,.41,1C182.13,254.67,182.52,255.32,182.9,256Z"/><path class="cls-8" d="M140.7,263.45a9.56,9.56,0,0,1-1.44-1.17,4.34,4.34,0,0,1-.56-.72,1.11,1.11,0,0,1-.11-1l.26.16a.71.71,0,0,1-.48,0,1.25,1.25,0,0,1-.31-.1,3.41,3.41,0,0,1-.5-.28,7.23,7.23,0,0,1-.86-.66,12.7,12.7,0,0,1-1.49-1.44,20.24,20.24,0,0,1,1.75,1.23c.3.21.58.42.88.6a3.57,3.57,0,0,0,.47.25.75.75,0,0,0,.4.09.2.2,0,0,1,.24-.07.11.11,0,0,1,.05.15l0,.08a.9.9,0,0,0,.09.76,4.61,4.61,0,0,0,.46.72C139.88,262.58,140.29,263,140.7,263.45Z"/><path class="cls-8" d="M179.47,256.83a14.68,14.68,0,0,1-.7-2.38,9.68,9.68,0,0,1-.14-1.22,4.28,4.28,0,0,1,0-.62,1.08,1.08,0,0,1,.29-.66l.22.23a.66.66,0,0,1-.39-.06,1,1,0,0,1-.19-.15,1.21,1.21,0,0,1-.21-.31,4.21,4.21,0,0,1-.29-.61,9.39,9.39,0,0,1-.37-1.25,17,17,0,0,1-.43-2.52c.25.83.49,1.65.73,2.47.14.42.27.82.43,1.22a5.23,5.23,0,0,0,.29.58,1.24,1.24,0,0,0,.19.26.39.39,0,0,0,.13.09l.21.22a1,1,0,0,0-.2.51,2.88,2.88,0,0,0,0,.59,9.69,9.69,0,0,0,.09,1.2C179.2,255.22,179.35,256,179.47,256.83Z"/><path class="cls-8" d="M176.58,255.71a12.43,12.43,0,0,1,0-1.83c0-.31.06-.61.12-.92,0-.16.07-.31.11-.46a2.25,2.25,0,0,1,.08-.24.75.75,0,0,1,.17-.26l.19.24a.85.85,0,0,1-.61-.17.91.91,0,0,1-.26-.35,2,2,0,0,1-.16-.7,4,4,0,0,1,.1-1.38,11.87,11.87,0,0,0,.21,1.35,3,3,0,0,0,.22.64.85.85,0,0,0,.2.25.31.31,0,0,0,.24.07h0c.11,0,.22,0,.23.12a.09.09,0,0,1,0,.11.65.65,0,0,0-.09.17,1,1,0,0,0-.07.21,2.83,2.83,0,0,0-.12.44l-.18.9C176.82,254.5,176.72,255.11,176.58,255.71Z"/><path class="cls-8" d="M172.79,254a2.27,2.27,0,0,1-.71-.91.83.83,0,0,1,0-.56.9.9,0,0,1,.47-.49l.17.26a.87.87,0,0,1-.48-.06A.71.71,0,0,1,172,252a1.31,1.31,0,0,1-.21-.45,2.29,2.29,0,0,1,0-.94c.12.29.2.58.34.86a1.53,1.53,0,0,0,.21.4.33.33,0,0,0,.27.14h0c.12,0,.23,0,.25.1a.14.14,0,0,1-.08.16.68.68,0,0,0-.42.76A3.13,3.13,0,0,0,172.79,254Z"/><path class="cls-8" d="M175.81,256.75a9.55,9.55,0,0,1-1.75-2.14,3.66,3.66,0,0,1-.48-1.22,1.45,1.45,0,0,1,.33-1.28l.22.22a.69.69,0,0,1-.5-.12.91.91,0,0,1-.24-.24,3.25,3.25,0,0,1-.25-.49,5.13,5.13,0,0,1-.25-1,9.42,9.42,0,0,1-.13-2c.13.66.27,1.31.43,2a7.43,7.43,0,0,0,.32.94,3.09,3.09,0,0,0,.24.44.83.83,0,0,0,.17.16.13.13,0,0,0,.12,0,.23.23,0,0,1,.25.12.11.11,0,0,1,0,.11,1.3,1.3,0,0,0-.27,1.09,4,4,0,0,0,.39,1.17A14.15,14.15,0,0,0,175.81,256.75Z"/><path class="cls-8" d="M147.11,262.19a16.53,16.53,0,0,1-1.57-2,7.9,7.9,0,0,1-.63-1.09,3.8,3.8,0,0,1-.23-.59,1,1,0,0,1,0-.7l.29.14a.56.56,0,0,1-.38.08.81.81,0,0,1-.24-.09,1.55,1.55,0,0,1-.33-.21,3.9,3.9,0,0,1-.51-.48,9,9,0,0,1-.86-1,18.75,18.75,0,0,1-1.44-2.19l1.71,2q.44.5.9,1c.16.15.32.31.5.45a2.61,2.61,0,0,0,.28.17.31.31,0,0,0,.16,0l.29.14a1,1,0,0,0,0,.54c0,.18.12.38.19.56a11.13,11.13,0,0,0,.57,1.08C146.24,260.78,146.68,261.48,147.11,262.19Z"/><path class="cls-8" d="M144.09,262.1a13.51,13.51,0,0,1-.75-1.7c-.11-.3-.2-.6-.28-.9,0-.15-.07-.31-.1-.47a1.94,1.94,0,0,1,0-.24.79.79,0,0,1,0-.32l.28.15a.76.76,0,0,1-.63.08.83.83,0,0,1-.38-.22,2.4,2.4,0,0,1-.45-.57,4.13,4.13,0,0,1-.48-1.31c.24.39.48.79.76,1.16a3.71,3.71,0,0,0,.47.5,1.28,1.28,0,0,0,.28.15.32.32,0,0,0,.24,0h0a.2.2,0,0,1,.27,0,.16.16,0,0,1,0,.12.34.34,0,0,0,0,.16,1.79,1.79,0,0,0,0,.23,2.36,2.36,0,0,0,.08.45l.2.91Z"/><path class="cls-8" d="M143.88,263.33a11.8,11.8,0,0,1-2.46-1.3,4.09,4.09,0,0,1-1-.92,1.43,1.43,0,0,1-.29-1.29l.29.12a.68.68,0,0,1-.5.09,1.54,1.54,0,0,1-.33-.12,2.68,2.68,0,0,1-.44-.34,4.53,4.53,0,0,1-.69-.77,8.31,8.31,0,0,1-1.06-1.72c.42.52.86,1,1.31,1.55a9.81,9.81,0,0,0,.73.71,2,2,0,0,0,.42.3.49.49,0,0,0,.22.08c.08,0,.11,0,.13,0a.24.24,0,0,1,.28,0,.14.14,0,0,1,0,.11,1.29,1.29,0,0,0,.25,1.1,4.34,4.34,0,0,0,.87.9A17.26,17.26,0,0,0,143.88,263.33Z"/><path class="cls-8" d="M163.06,258.06a16.91,16.91,0,0,1-1.05-2.24,11.62,11.62,0,0,1-.34-1.19,4,4,0,0,1-.08-.62,1.11,1.11,0,0,1,.19-.7l.25.2a.64.64,0,0,1-.39,0,.53.53,0,0,1-.21-.12,1.12,1.12,0,0,1-.27-.26,4.7,4.7,0,0,1-.38-.57,10.52,10.52,0,0,1-.57-1.17,16.19,16.19,0,0,1-.83-2.43c.38.78.75,1.56,1.12,2.33.2.39.41.77.63,1.13a4,4,0,0,0,.37.54,1.52,1.52,0,0,0,.22.22.32.32,0,0,0,.16.07l.24.19a1,1,0,0,0-.12.53,3.93,3.93,0,0,0,.06.59,8,8,0,0,0,.28,1.17C162.55,256.51,162.82,257.28,163.06,258.06Z"/><path class="cls-8" d="M157.37,259a9.35,9.35,0,0,1-.52-2.4,4.81,4.81,0,0,1,.06-1.25,2.25,2.25,0,0,1,.2-.64,1.26,1.26,0,0,1,.55-.61l.09.26A1,1,0,0,1,157,254a1.54,1.54,0,0,1-.32-.54,3.66,3.66,0,0,1-.18-1.13,7.72,7.72,0,0,1,.31-2.27,15.23,15.23,0,0,0,0,2.24,4.67,4.67,0,0,0,.24,1.06.85.85,0,0,0,.75.65c.11,0,.2.06.19.14a.12.12,0,0,1-.08.11h0a1.61,1.61,0,0,0-.6,1,5.36,5.36,0,0,0-.1,1.2A16.36,16.36,0,0,0,157.37,259Z"/><path class="cls-8" d="M147.21,259a2.34,2.34,0,0,1-1-.65.83.83,0,0,1-.2-.53,1,1,0,0,1,.29-.61l.24.2a.83.83,0,0,1-.46.09.87.87,0,0,1-.32-.14,1.59,1.59,0,0,1-.35-.39,2.27,2.27,0,0,1-.28-.89c.21.24.39.5.6.73a1.5,1.5,0,0,0,.32.3.35.35,0,0,0,.31.06h0c.1-.05.22,0,.26,0s0,.11,0,.17a.68.68,0,0,0-.14.87A2.78,2.78,0,0,0,147.21,259Z"/><path class="cls-8" d="M165.85,257.58a9.66,9.66,0,0,1-1.95-2,4.06,4.06,0,0,1-.6-1.17,1.52,1.52,0,0,1,.2-1.31l.24.2a.7.7,0,0,1-.51-.08A1,1,0,0,1,163,253a2.13,2.13,0,0,1-.29-.47,5,5,0,0,1-.36-.95,9.56,9.56,0,0,1-.33-2c.19.64.4,1.28.63,1.89a8.58,8.58,0,0,0,.42.92,2,2,0,0,0,.28.41.59.59,0,0,0,.17.15.23.23,0,0,0,.14,0,.2.2,0,0,1,.25.09.11.11,0,0,1,0,.11,1.28,1.28,0,0,0-.16,1.11,3.66,3.66,0,0,0,.5,1.13A13.27,13.27,0,0,0,165.85,257.58Z"/><path class="cls-8" d="M171.9,254.9a3.65,3.65,0,0,1-1.12-1.09,1.78,1.78,0,0,1-.25-1.44l.32.14a1,1,0,0,1-.33.09.59.59,0,0,1-.33-.06.74.74,0,0,1-.33-.29,1.92,1.92,0,0,1-.26-.64,4.15,4.15,0,0,1-.1-1.31c.13.42.24.84.4,1.24a2.85,2.85,0,0,0,.31.57.88.88,0,0,0,.21.18c.07,0,.1,0,.2,0a.27.27,0,0,1,.3,0,.24.24,0,0,1,0,.08h0c0,.11-.05.22-.05.32a1.82,1.82,0,0,0,0,.33,3,3,0,0,0,.2.64A5.76,5.76,0,0,0,171.9,254.9Z"/><path class="cls-8" d="M169.66,256.81a14.94,14.94,0,0,1-1.29-1.95,6.47,6.47,0,0,1-.44-1.05,1.8,1.8,0,0,1-.11-.56.73.73,0,0,1,.22-.64l0,.12a2.56,2.56,0,0,1,.09-1.17,11.72,11.72,0,0,1,.38-1.14,14.87,14.87,0,0,1,1.13-2.21c-.31.75-.59,1.51-.84,2.25-.12.37-.21.75-.3,1.12a2.67,2.67,0,0,0-.06,1.08.11.11,0,0,1,0,.12.53.53,0,0,0-.11.44,1.86,1.86,0,0,0,.08.51,9.88,9.88,0,0,0,.39,1C169,255.45,169.34,256.12,169.66,256.81Z"/><path class="cls-8" d="M153.41,256.86a2.13,2.13,0,0,1-.89-.73.87.87,0,0,1-.14-.54,1,1,0,0,1,.35-.59l.23.22a.67.67,0,0,1-.48,0,.7.7,0,0,1-.3-.15,1.53,1.53,0,0,1-.3-.41,2.26,2.26,0,0,1-.19-.92c.18.26.33.54.52.78a1.78,1.78,0,0,0,.29.32c.13.09.21.12.3.08h0a.2.2,0,0,1,.26,0,.14.14,0,0,1,0,.17.7.7,0,0,0-.22.86A2.58,2.58,0,0,0,153.41,256.86Z"/><path class="cls-8" d="M156.84,259.31a10.43,10.43,0,0,1-2-1.94,4.27,4.27,0,0,1-.64-1.16,1.65,1.65,0,0,1,.07-1.37l.26.17a.57.57,0,0,1-.55-.07.8.8,0,0,1-.22-.24,2.53,2.53,0,0,1-.26-.52,6.05,6.05,0,0,1-.29-1.09,11.69,11.69,0,0,1-.23-2.22c.17.72.33,1.44.52,2.15.11.35.22.69.35,1a3.09,3.09,0,0,0,.25.48.74.74,0,0,0,.17.18c.07,0,.1,0,.11,0a.25.25,0,0,1,.27,0,.09.09,0,0,1,0,.12v0a1.53,1.53,0,0,0-.07,1.17,3.87,3.87,0,0,0,.56,1.11A15.1,15.1,0,0,0,156.84,259.31Z"/><path class="cls-8" d="M150.86,259.74a9.77,9.77,0,0,1-1.53-1.48,5,5,0,0,1-.59-.85,2.55,2.55,0,0,1-.2-.48,1.65,1.65,0,0,1-.08-.51l.35.08a.78.78,0,0,1-.29.14.82.82,0,0,1-.35,0,.93.93,0,0,1-.4-.21,2.22,2.22,0,0,1-.42-.56,4.38,4.38,0,0,1-.44-1.24c.23.37.46.75.71,1.1a5.33,5.33,0,0,0,.46.49.83.83,0,0,0,.26.14c.08,0,.1,0,.19-.05a.26.26,0,0,1,.3,0,.14.14,0,0,1,0,.09,1.74,1.74,0,0,0,.06.45,2.72,2.72,0,0,0,.18.44,6,6,0,0,0,.5.84C150,258.68,150.43,259.21,150.86,259.74Z"/><path class="cls-8" d="M152.75,259.79a15.55,15.55,0,0,1-1.65-1.7,6.2,6.2,0,0,1-.66-.95,2.24,2.24,0,0,1-.23-.53.73.73,0,0,1,.09-.67l0,.13a2.48,2.48,0,0,1-.17-1.17,9.36,9.36,0,0,1,.15-1.17,13.61,13.61,0,0,1,.68-2.35c-.16.78-.29,1.56-.39,2.33,0,.39-.06.78-.07,1.15a2.8,2.8,0,0,0,.17,1.07.12.12,0,0,1,0,.14.49.49,0,0,0,0,.43,2,2,0,0,0,.21.5,8.18,8.18,0,0,0,.59.95C151.82,258.57,152.3,259.17,152.75,259.79Z"/><path class="cls-8" d="M215.43,260.77a9.23,9.23,0,0,1,.24-2,7.32,7.32,0,0,1,.75-1.87l0,.16a2.74,2.74,0,0,1-.56-1.27,3.63,3.63,0,0,1,0-1.23,5.69,5.69,0,0,1,.86-2.23,9.72,9.72,0,0,0-.48,2.3,3.24,3.24,0,0,0,.56,2.29.14.14,0,0,1,0,.16h0a9.09,9.09,0,0,0-.47.87c-.14.29-.25.6-.38.9C215.78,259.5,215.59,260.13,215.43,260.77Z"/><path class="cls-8" d="M209.47,258.07a4.69,4.69,0,0,1-.37-1.53,2.2,2.2,0,0,1,.07-.76,1.19,1.19,0,0,1,.51-.69l.13.29a1.06,1.06,0,0,1-.62-.36,1,1,0,0,1-.22-.45,2.09,2.09,0,0,1,0-.86,4.58,4.58,0,0,1,.5-1.57,12.69,12.69,0,0,0-.15,1.61,3,3,0,0,0,.1.79.68.68,0,0,0,.47.53.22.22,0,0,1,.22.19.13.13,0,0,1-.07.09h0a1.52,1.52,0,0,0-.55,1.22A10.6,10.6,0,0,0,209.47,258.07Z"/><path class="cls-8" d="M230.93,267.66c0-.8-.1-1.65-.06-2.48A6.26,6.26,0,0,1,231,264a2.19,2.19,0,0,1,.21-.59.81.81,0,0,1,.62-.43l0,.32a.83.83,0,0,1-.31-.4,2.58,2.58,0,0,1-.07-.34,3.72,3.72,0,0,1,0-.58,6.39,6.39,0,0,1,.23-1.09,10.7,10.7,0,0,1,.75-2c-.14.72-.28,1.44-.41,2.15,0,.37-.12.72-.14,1.08a3.25,3.25,0,0,0,0,.54c0,.17.09.39.14.4a.23.23,0,0,1,.19.19c0,.07,0,.11-.12.12H232a.49.49,0,0,0-.38.28,1.83,1.83,0,0,0-.21.52,8.65,8.65,0,0,0-.21,1.17C231.09,266.06,231.06,266.87,230.93,267.66Z"/><path class="cls-8" d="M185,255.85a7.13,7.13,0,0,1-.62-1.84,3.93,3.93,0,0,1,0-1,1.22,1.22,0,0,1,.55-.95l.13.29a.76.76,0,0,1-.47-.22,1.31,1.31,0,0,1-.22-.27,4.41,4.41,0,0,1-.28-.52,8.69,8.69,0,0,1-.32-1.07,11.12,11.12,0,0,1-.29-2.14c.21.71.44,1.41.65,2.1.13.35.24.69.39,1a4.45,4.45,0,0,0,.26.48c.08.14.28.3.32.29a.26.26,0,0,1,.27.07.13.13,0,0,1,0,.17l-.09,0a1,1,0,0,0-.41.73,3.94,3.94,0,0,0,0,.91A13.41,13.41,0,0,0,185,255.85Z"/><path class="cls-8" d="M227.51,266.71a17.47,17.47,0,0,1,.63-2.59,9.51,9.51,0,0,1,.51-1.24,3.44,3.44,0,0,1,.35-.58,1.16,1.16,0,0,1,.64-.47l.09.32a.61.61,0,0,1-.35-.25.77.77,0,0,1-.1-.24,1.44,1.44,0,0,1-.05-.41,5.85,5.85,0,0,1,0-.73,10.77,10.77,0,0,1,.29-1.37,18.28,18.28,0,0,1,.9-2.61l-.57,2.72c-.08.46-.16.92-.22,1.38a5.47,5.47,0,0,0,0,.7,1.86,1.86,0,0,0,0,.33.44.44,0,0,0,.08.16l.09.33a1.07,1.07,0,0,0-.46.37,3.9,3.9,0,0,0-.36.54,12.65,12.65,0,0,0-.55,1.18C228.13,265.06,227.84,265.89,227.51,266.71Z"/><path class="cls-8" d="M225.39,264.28a13,13,0,0,1,1-1.75,9.45,9.45,0,0,1,.59-.82,4.36,4.36,0,0,1,.35-.4,1.66,1.66,0,0,1,.19-.18.87.87,0,0,1,.31-.17l.07.32a.88.88,0,0,1-.53-.46,1.1,1.1,0,0,1-.07-.45,2.19,2.19,0,0,1,.2-.76,4.46,4.46,0,0,1,.8-1.27,14.46,14.46,0,0,0-.48,1.4,3,3,0,0,0-.1.72.92.92,0,0,0,.06.33.28.28,0,0,0,.2.17h0c.11,0,.19.15.16.23s-.05.07-.1.09-.11.07-.17.11l-.19.16a3.8,3.8,0,0,0-.33.37l-.65.78Z"/><path class="cls-8" d="M222.5,261a2.19,2.19,0,0,1-.28-1.18.91.91,0,0,1,.26-.55,1.1,1.1,0,0,1,.72-.28l0,.32a.78.78,0,0,1-.45-.26.68.68,0,0,1-.15-.33,1.21,1.21,0,0,1,0-.54,2.51,2.51,0,0,1,.47-.9c0,.34-.08.67-.09,1a1.78,1.78,0,0,0,0,.46c.05.15.11.23.21.26h0c.12,0,.22.12.19.21s-.07.1-.16.11a.82.82,0,0,0-.79.58A2.88,2.88,0,0,0,222.5,261Z"/><path class="cls-8" d="M224.12,264.93a10.08,10.08,0,0,1-.64-2.83,3.81,3.81,0,0,1,.13-1.39,1.65,1.65,0,0,1,1-1.1l.11.31a.76.76,0,0,1-.44-.34.93.93,0,0,1-.12-.34,2.27,2.27,0,0,1,0-.58,6.36,6.36,0,0,1,.23-1.07,10.15,10.15,0,0,1,.84-2c-.18.69-.37,1.38-.51,2.08a7.5,7.5,0,0,0-.14,1.06,2.37,2.37,0,0,0,0,.53.63.63,0,0,0,.08.22c0,.07.07.09.11.1a.25.25,0,0,1,.19.23.13.13,0,0,1-.08.08,1.51,1.51,0,0,0-.82.95,4,4,0,0,0-.19,1.3A13.92,13.92,0,0,0,224.12,264.93Z"/><path class="cls-8" d="M192.39,257.84a16,16,0,0,1-.48-2.63,7.4,7.4,0,0,1,0-1.33,4,4,0,0,1,.09-.67,1.17,1.17,0,0,1,.4-.67l.22.26a.59.59,0,0,1-.42-.1.9.9,0,0,1-.2-.18,2.08,2.08,0,0,1-.2-.35,7.1,7.1,0,0,1-.24-.69,11.52,11.52,0,0,1-.26-1.38,19.67,19.67,0,0,1-.17-2.76l.51,2.74c.1.45.2.91.33,1.36a4.27,4.27,0,0,0,.24.65,1.19,1.19,0,0,0,.18.29c.07.1.17.13.13.12l.22.27a.92.92,0,0,0-.29.51,4.62,4.62,0,0,0-.11.63,9.41,9.41,0,0,0,0,1.3C192.28,256.08,192.35,257,192.39,257.84Z"/><path class="cls-8" d="M189.35,256.31a12.8,12.8,0,0,1,.24-2c.06-.33.15-.66.24-1a4.68,4.68,0,0,1,.18-.48c0-.08.07-.16.11-.25a.91.91,0,0,1,.22-.26l.19.28a.94.94,0,0,1-.67-.24,1.14,1.14,0,0,1-.23-.41,2,2,0,0,1-.1-.76,4.39,4.39,0,0,1,.26-1.48,14.52,14.52,0,0,0,.08,1.48,3.5,3.5,0,0,0,.17.71.8.8,0,0,0,.2.28.32.32,0,0,0,.24.11h0c.13,0,.24.07.24.15a.13.13,0,0,1-.07.12.64.64,0,0,0-.1.16,1.51,1.51,0,0,0-.11.22,4.28,4.28,0,0,0-.17.46l-.32.94C189.75,255,189.57,255.68,189.35,256.31Z"/><path class="cls-8" d="M188.38,257.35a10,10,0,0,1-1.69-2.41,4,4,0,0,1-.38-1.35,1.65,1.65,0,0,1,.52-1.36l.21.26a.76.76,0,0,1-.54-.17,1.1,1.1,0,0,1-.23-.27,1.88,1.88,0,0,1-.21-.55,5.06,5.06,0,0,1-.17-1.08,10.13,10.13,0,0,1,.08-2.13c.08.71.15,1.43.26,2.12a7.46,7.46,0,0,0,.24,1,3.61,3.61,0,0,0,.21.49,1.45,1.45,0,0,0,.16.18.26.26,0,0,0,.14,0,.23.23,0,0,1,.26.14.13.13,0,0,1-.05.11,1.53,1.53,0,0,0-.43,1.17,4.19,4.19,0,0,0,.3,1.27A13,13,0,0,0,188.38,257.35Z"/><path class="cls-8" d="M210.85,260.77a15.88,15.88,0,0,1,0-2.67,9.68,9.68,0,0,1,.22-1.31,3.08,3.08,0,0,1,.21-.65,1.18,1.18,0,0,1,.51-.6l.16.31a.68.68,0,0,1-.4-.18.9.9,0,0,1-.16-.21,2.14,2.14,0,0,1-.13-.38,3.86,3.86,0,0,1-.12-.72,9.49,9.49,0,0,1,0-1.41,19.14,19.14,0,0,1,.3-2.74c0,.93,0,1.86,0,2.78,0,.47,0,.93.1,1.4a4,4,0,0,0,.12.68,1.79,1.79,0,0,0,.13.32c.05.1.15.15.11.13l.16.3a1,1,0,0,0-.36.46,4.49,4.49,0,0,0-.23.61,9.2,9.2,0,0,0-.25,1.27C211.05,259,211,259.9,210.85,260.77Z"/><path class="cls-8" d="M204.62,259.21a10.12,10.12,0,0,1,.62-2.58,5.93,5.93,0,0,1,.65-1.21,2.85,2.85,0,0,1,.51-.54,1.63,1.63,0,0,1,.85-.37l0,.29a1.06,1.06,0,0,1-.62-.63,1.37,1.37,0,0,1-.07-.66,3.74,3.74,0,0,1,.35-1.18,9.33,9.33,0,0,1,1.39-2.1,15.23,15.23,0,0,0-1.05,2.2,4.69,4.69,0,0,0-.27,1.15.87.87,0,0,0,.45.95c.12,0,.17.14.13.21a.22.22,0,0,1-.13.08h0a1.91,1.91,0,0,0-1.1.78,6.08,6.08,0,0,0-.69,1.14A20.08,20.08,0,0,0,204.62,259.21Z"/><path class="cls-8" d="M194.26,254.76a2.12,2.12,0,0,1-.6-1,.76.76,0,0,1,.09-.6,1.08,1.08,0,0,1,.6-.47l.14.3a.78.78,0,0,1-.51-.12.82.82,0,0,1-.24-.27,1.4,1.4,0,0,1-.14-.53,2.43,2.43,0,0,1,.2-1c.07.34.11.66.2,1a1.54,1.54,0,0,0,.16.44c.09.14.17.19.27.19h0a.24.24,0,0,1,.25.14c0,.07,0,.13-.13.16a.78.78,0,0,0-.59.77A2.7,2.7,0,0,0,194.26,254.76Z"/><path class="cls-8" d="M213.9,261.39a10.09,10.09,0,0,1-1-2.74,3.83,3.83,0,0,1-.06-1.39,1.7,1.7,0,0,1,.81-1.22l.16.29a.73.73,0,0,1-.49-.27.8.8,0,0,1-.16-.32,1.93,1.93,0,0,1-.09-.57,5.49,5.49,0,0,1,.09-1.08,10,10,0,0,1,.58-2.07c-.1.71-.19,1.42-.24,2.13a9.2,9.2,0,0,0,0,1,2.56,2.56,0,0,0,.1.51.57.57,0,0,0,.11.22.19.19,0,0,0,.12.08.24.24,0,0,1,.22.2s0,.07-.07.1a1.47,1.47,0,0,0-.69,1,4.4,4.4,0,0,0,0,1.31A13.8,13.8,0,0,0,213.9,261.39Z"/><path class="cls-8" d="M221.18,261.46a4,4,0,0,1-.56-1.6,1.84,1.84,0,0,1,.44-1.52l.24.28a.89.89,0,0,1-.35-.06.68.68,0,0,1-.31-.21.76.76,0,0,1-.19-.44,1.82,1.82,0,0,1,.05-.74,4.44,4.44,0,0,1,.52-1.32c-.07.46-.15.93-.19,1.4a3.07,3.07,0,0,0,0,.68.52.52,0,0,0,.12.28.25.25,0,0,0,.2.08.28.28,0,0,1,.27.18.12.12,0,0,1,0,.1h0a2.16,2.16,0,0,0-.21.29,1.15,1.15,0,0,0-.14.32,2.78,2.78,0,0,0-.12.72A6.56,6.56,0,0,0,221.18,261.46Z"/><path class="cls-8" d="M218.07,262.27a14.11,14.11,0,0,1-.35-2.48,7.08,7.08,0,0,1,.05-1.22,2.59,2.59,0,0,1,.15-.61.85.85,0,0,1,.53-.52l-.11.1a2.88,2.88,0,0,1,.65-1.11,10.2,10.2,0,0,1,.93-.93,17.06,17.06,0,0,1,2.2-1.65c-.68.6-1.32,1.2-1.92,1.81-.3.31-.58.64-.84,1a3,3,0,0,0-.58,1,.15.15,0,0,1-.11.11.6.6,0,0,0-.31.36,2,2,0,0,0-.15.55,7.61,7.61,0,0,0-.11,1.18C218.05,260.64,218.07,261.46,218.07,262.27Z"/><path class="cls-8" d="M201.6,255.47a2.21,2.21,0,0,1-.53-1.1.78.78,0,0,1,.13-.59,1.05,1.05,0,0,1,.62-.42l.12.31a.8.8,0,0,1-.72-.46,1.18,1.18,0,0,1-.09-.54,2.23,2.23,0,0,1,.26-1c.05.34.06.67.13,1a1.81,1.81,0,0,0,.14.45c.07.14.15.21.25.21h0c.12,0,.23.08.23.16s0,.13-.13.15a.78.78,0,0,0-.64.73A2.87,2.87,0,0,0,201.6,255.47Z"/><path class="cls-8" d="M203.92,259.32a9.78,9.78,0,0,1-1.1-2.7,4.19,4.19,0,0,1-.08-1.41,1.75,1.75,0,0,1,.73-1.3l.18.28a.61.61,0,0,1-.52-.31,1,1,0,0,1-.11-.34,3.33,3.33,0,0,1,0-.63,6,6,0,0,1,.23-1.18,12.9,12.9,0,0,1,.85-2.26c-.18.77-.37,1.55-.51,2.32a11.7,11.7,0,0,0-.15,1.17,2.67,2.67,0,0,0,0,.57.72.72,0,0,0,.08.26c.06.07.08.08.1.08a.24.24,0,0,1,.25.14.11.11,0,0,1,0,.12l0,0a1.68,1.68,0,0,0-.64,1.11,4.08,4.08,0,0,0,0,1.35A14.34,14.34,0,0,0,203.92,259.32Z"/><path class="cls-8" d="M197.57,257.16a8.51,8.51,0,0,1-.8-2.08,4.32,4.32,0,0,1-.15-1.07,2.57,2.57,0,0,1,0-.55,2.32,2.32,0,0,1,.19-.54l.31.23a1,1,0,0,1-.36,0,.7.7,0,0,1-.35-.15.9.9,0,0,1-.29-.39,1.93,1.93,0,0,1-.12-.73,4.12,4.12,0,0,1,.19-1.4c0,.47.07.94.15,1.4a3,3,0,0,0,.19.67.72.72,0,0,0,.19.25.24.24,0,0,0,.21,0,.3.3,0,0,1,.31.12.11.11,0,0,1,0,.11,1.93,1.93,0,0,0-.16.46,2.73,2.73,0,0,0-.05.5,6.13,6.13,0,0,0,.07,1C197.23,255.77,197.4,256.46,197.57,257.16Z"/><path class="cls-8" d="M199.49,258a13.74,13.74,0,0,1-.84-2.35,7.09,7.09,0,0,1-.19-1.21,2.62,2.62,0,0,1,0-.62.82.82,0,0,1,.42-.61l-.09.12a2.84,2.84,0,0,1,.43-1.21A9.53,9.53,0,0,1,200,251a16.11,16.11,0,0,1,1.81-2c-.53.69-1,1.39-1.52,2.1-.23.36-.44.73-.63,1.1a2.72,2.72,0,0,0-.36,1.12.15.15,0,0,1-.09.12.58.58,0,0,0-.24.42,2.59,2.59,0,0,0-.05.56c0,.39.07.78.13,1.18C199.15,256.42,199.33,257.2,199.49,258Z"/><path class="cls-8" d="M165.62,261.41a8.18,8.18,0,0,1-.66-1.83,6.06,6.06,0,0,1-.15-.95,5.35,5.35,0,0,1,0-1l.09.13a2.73,2.73,0,0,1-1.07-.88,4,4,0,0,1-.54-1.08,5.4,5.4,0,0,1-.21-2.29,8.82,8.82,0,0,0,.58,2.2,3.32,3.32,0,0,0,1.51,1.79.13.13,0,0,1,.09.12h0a7.63,7.63,0,0,0,0,.95c0,.31,0,.63.07.94C165.37,260.16,165.48,260.78,165.62,261.41Z"/><path class="cls-8" d="M159.11,261.41a4.44,4.44,0,0,1-1-1.19,2.23,2.23,0,0,1-.28-.7,1,1,0,0,1,.15-.8l.25.2a1.16,1.16,0,0,1-.73-.08,1.42,1.42,0,0,1-.39-.32,2.28,2.28,0,0,1-.4-.75,4.46,4.46,0,0,1-.24-1.58,12,12,0,0,0,.58,1.48,3.33,3.33,0,0,0,.43.67.71.71,0,0,0,.66.28c.12,0,.24,0,.27.08a.14.14,0,0,1,0,.11v0a1.42,1.42,0,0,0,.05,1.28A9.43,9.43,0,0,0,159.11,261.41Z"/><path class="cls-8" d="M183.07,260.72a13.69,13.69,0,0,1-1.53-2,5.87,5.87,0,0,1-.55-1.09,2,2,0,0,1-.12-.6.71.71,0,0,1,.31-.64l.15.27a.72.72,0,0,1-.48-.2.83.83,0,0,1-.22-.24,3.22,3.22,0,0,1-.29-.5,8.14,8.14,0,0,1-.36-1,11.51,11.51,0,0,1-.36-2.07l.71,2a10.57,10.57,0,0,0,.43,1,3.47,3.47,0,0,0,.27.46c.09.13.28.28.32.27a.23.23,0,0,1,.27.06c0,.05,0,.11,0,.15l-.08.06a.46.46,0,0,0-.18.41,1.71,1.71,0,0,0,.1.53,5.8,5.8,0,0,0,.45,1.07C182.23,259.33,182.65,260,183.07,260.72Z"/><path class="cls-8" d="M137.09,269.74a8.13,8.13,0,0,1-1.51-1.2,3.26,3.26,0,0,1-.58-.76,1.13,1.13,0,0,1-.1-1l.28.16a.87.87,0,0,1-.52.07,1.43,1.43,0,0,1-.33-.1,4.44,4.44,0,0,1-.53-.28,6.74,6.74,0,0,1-.89-.68,10.46,10.46,0,0,1-1.52-1.53c.62.42,1.2.87,1.81,1.3.3.22.59.43.91.62a4.52,4.52,0,0,0,.49.25.78.78,0,0,0,.43.07.26.26,0,0,1,.26-.07.1.1,0,0,1,.05.16l0,.08a.9.9,0,0,0,.07.81,4.4,4.4,0,0,0,.48.76A17.65,17.65,0,0,0,137.09,269.74Z"/><path class="cls-8" d="M179.33,261.54a16,16,0,0,1-.77-2.5,9.14,9.14,0,0,1-.16-1.28,3.53,3.53,0,0,1,0-.65,1.09,1.09,0,0,1,.32-.68l.24.23a.64.64,0,0,1-.43-.05.88.88,0,0,1-.2-.17,1.4,1.4,0,0,1-.25-.32,3.77,3.77,0,0,1-.3-.65,8,8,0,0,1-.42-1.31,19.61,19.61,0,0,1-.48-2.63c.28.86.55,1.73.81,2.59.15.43.3.86.48,1.27a4,4,0,0,0,.31.62,1.89,1.89,0,0,0,.2.27.8.8,0,0,0,.15.1l.23.24a1,1,0,0,0-.21.52,3.18,3.18,0,0,0-.05.62c0,.42.06.83.11,1.26C179,259.86,179.2,260.69,179.33,261.54Z"/><path class="cls-8" d="M176.18,260.38a12.31,12.31,0,0,1,0-1.92c0-.32.07-.64.13-1s.07-.33.11-.49a2.5,2.5,0,0,1,.09-.25.6.6,0,0,1,.19-.28l.21.24a.85.85,0,0,1-.67-.15,1,1,0,0,1-.28-.36,1.93,1.93,0,0,1-.19-.72,4.5,4.5,0,0,1,.1-1.46,13.14,13.14,0,0,0,.24,1.42,3,3,0,0,0,.25.65.78.78,0,0,0,.21.26.35.35,0,0,0,.26.06h0c.13,0,.25,0,.26.12a.13.13,0,0,1,0,.12.5.5,0,0,0-.1.17,2,2,0,0,0-.08.22,4.64,4.64,0,0,0-.12.47l-.2,1C176.44,259.11,176.33,259.75,176.18,260.38Z"/><path class="cls-8" d="M172.05,258.73a2.09,2.09,0,0,1-.78-.9.8.8,0,0,1,0-.59,1.12,1.12,0,0,1,.5-.54l.19.27a.83.83,0,0,1-.8-.26,1.29,1.29,0,0,1-.22-.48,2.16,2.16,0,0,1,0-1c.13.31.22.62.36.89a2.06,2.06,0,0,0,.25.4c.11.12.2.15.29.13h0c.11,0,.24,0,.27.12s0,.12-.1.16a.74.74,0,0,0-.43.83A2.76,2.76,0,0,0,172.05,258.73Z"/><path class="cls-8" d="M175.35,261.49a9.38,9.38,0,0,1-1.92-2.18,3.83,3.83,0,0,1-.52-1.26,1.5,1.5,0,0,1,.34-1.36l.24.23a.82.82,0,0,1-.55-.11,1.25,1.25,0,0,1-.26-.25,2.22,2.22,0,0,1-.27-.5,5.1,5.1,0,0,1-.28-1A9,9,0,0,1,172,253c.15.69.3,1.36.49,2a10.37,10.37,0,0,0,.36,1,3.3,3.3,0,0,0,.26.45,1.35,1.35,0,0,0,.19.16.19.19,0,0,0,.13,0c.12,0,.25,0,.27.12a.12.12,0,0,1,0,.11,1.38,1.38,0,0,0-.29,1.15,3.92,3.92,0,0,0,.44,1.21A13.44,13.44,0,0,0,175.35,261.49Z"/><path class="cls-8" d="M144.12,268.13a18.2,18.2,0,0,1-1.7-2,9.75,9.75,0,0,1-.67-1.12,3.26,3.26,0,0,1-.25-.61,1.08,1.08,0,0,1,0-.75l.32.14a.71.71,0,0,1-.43.09.82.82,0,0,1-.25-.07,1.9,1.9,0,0,1-.35-.21,4.3,4.3,0,0,1-.55-.48,8.21,8.21,0,0,1-.92-1.06,19.49,19.49,0,0,1-1.54-2.25l1.82,2.09c.32.34.64.68,1,1,.17.15.35.3.54.44a1.52,1.52,0,0,0,.3.17.24.24,0,0,0,.17,0l.32.13a1,1,0,0,0,0,.57,3.48,3.48,0,0,0,.21.59c.17.38.39.75.6,1.12C143.18,266.68,143.66,267.39,144.12,268.13Z"/><path class="cls-8" d="M140.83,268.17a14.7,14.7,0,0,1-.79-1.77c-.11-.3-.21-.62-.29-.93a3.86,3.86,0,0,1-.1-.49,2.06,2.06,0,0,1,0-.26.69.69,0,0,1,0-.32l.3.14a.9.9,0,0,1-.68.11,1.07,1.07,0,0,1-.41-.23,2.08,2.08,0,0,1-.48-.6,3.93,3.93,0,0,1-.52-1.37c.26.42.52.83.81,1.21a3.59,3.59,0,0,0,.51.52,1.47,1.47,0,0,0,.31.15.42.42,0,0,0,.27,0h0a.21.21,0,0,1,.29,0,.1.1,0,0,1,0,.12.5.5,0,0,0,0,.19,2,2,0,0,0,0,.23c0,.16,0,.32.08.48l.22.94Z"/><path class="cls-8" d="M140.57,269.47a11.49,11.49,0,0,1-2.64-1.27,4.23,4.23,0,0,1-1-.93,1.52,1.52,0,0,1-.3-1.37l.32.11a.77.77,0,0,1-.54.12A1.31,1.31,0,0,1,136,266a2.83,2.83,0,0,1-.47-.34,6.23,6.23,0,0,1-.74-.81,9.67,9.67,0,0,1-1.1-1.79c.45.54.91,1.09,1.39,1.61a8.78,8.78,0,0,0,.77.73,2.83,2.83,0,0,0,.44.3,1.27,1.27,0,0,0,.23.08.22.22,0,0,0,.15,0,.22.22,0,0,1,.29,0,.11.11,0,0,1,0,.11,1.37,1.37,0,0,0,.25,1.16,5.16,5.16,0,0,0,.93.94A17.68,17.68,0,0,0,140.57,269.47Z"/><path class="cls-8" d="M161.51,263.21a15.43,15.43,0,0,1-1.18-2.33,8.79,8.79,0,0,1-.39-1.23,3.39,3.39,0,0,1-.1-.65,1.12,1.12,0,0,1,.2-.72l.28.19a.61.61,0,0,1-.44,0,1,1,0,0,1-.23-.12,1.89,1.89,0,0,1-.29-.27,7.16,7.16,0,0,1-.42-.59,11,11,0,0,1-.64-1.22,19.23,19.23,0,0,1-.94-2.53c.42.82.84,1.62,1.26,2.43.22.39.45.79.7,1.18a4,4,0,0,0,.41.54,1.34,1.34,0,0,0,.25.23.48.48,0,0,0,.16.08l.28.19a1,1,0,0,0-.13.56,3.08,3.08,0,0,0,.07.61,8.81,8.81,0,0,0,.33,1.22C160.93,261.6,161.23,262.41,161.51,263.21Z"/><path class="cls-8" d="M155.3,264.33a10.23,10.23,0,0,1-.59-2.5,5.42,5.42,0,0,1,0-1.33,2.78,2.78,0,0,1,.21-.68,1.45,1.45,0,0,1,.59-.66l.11.26a1.11,1.11,0,0,1-.84-.29,1.5,1.5,0,0,1-.35-.55,3.46,3.46,0,0,1-.21-1.18,8.29,8.29,0,0,1,.31-2.4,13.14,13.14,0,0,0,0,2.35,5.14,5.14,0,0,0,.27,1.11.88.88,0,0,0,.83.65c.12,0,.21.06.2.14a.18.18,0,0,1-.08.12h0a1.78,1.78,0,0,0-.65,1.12,7,7,0,0,0-.09,1.28A19.8,19.8,0,0,0,155.3,264.33Z"/><path class="cls-8" d="M144.23,264.71a2.48,2.48,0,0,1-1-.66.84.84,0,0,1-.21-.55,1,1,0,0,1,.31-.64l.27.2a.86.86,0,0,1-.51.09.75.75,0,0,1-.35-.13,1.5,1.5,0,0,1-.37-.39,2,2,0,0,1-.3-.93c.22.25.41.51.64.74a2.07,2.07,0,0,0,.35.32c.15.08.25.1.34.05h0a.23.23,0,0,1,.29,0c0,.05,0,.12,0,.18a.68.68,0,0,0-.16.9A2.86,2.86,0,0,0,144.23,264.71Z"/><path class="cls-8" d="M164.52,262.57a10.51,10.51,0,0,1-2.14-2,3.88,3.88,0,0,1-.66-1.21,1.48,1.48,0,0,1,.19-1.38l.26.2a.75.75,0,0,1-.55-.06,1.45,1.45,0,0,1-.29-.21,2,2,0,0,1-.32-.47,4.16,4.16,0,0,1-.39-1,8.3,8.3,0,0,1-.4-2c.23.65.45,1.31.71,2a8.1,8.1,0,0,0,.47.93,2.53,2.53,0,0,0,.31.42.66.66,0,0,0,.19.15.31.31,0,0,0,.14,0c.13,0,.25,0,.28.08a.12.12,0,0,1,0,.12,1.34,1.34,0,0,0-.16,1.18,4.26,4.26,0,0,0,.56,1.16A14.3,14.3,0,0,0,164.52,262.57Z"/><path class="cls-8" d="M171.09,259.69a4.14,4.14,0,0,1-1.24-1.14,1.77,1.77,0,0,1-.29-1.51l.34.15a.81.81,0,0,1-.34.09.85.85,0,0,1-.37,0,.89.89,0,0,1-.36-.32,2.07,2.07,0,0,1-.29-.67,4,4,0,0,1-.12-1.37c.14.44.27.89.45,1.31a3,3,0,0,0,.34.58.73.73,0,0,0,.24.2.2.2,0,0,0,.21,0,.28.28,0,0,1,.32.05.1.1,0,0,1,0,.09h0c0,.11-.05.22-.05.33a1.37,1.37,0,0,0,0,.35,2.92,2.92,0,0,0,.22.67A6.45,6.45,0,0,0,171.09,259.69Z"/><path class="cls-8" d="M168.65,261.66a14,14,0,0,1-1.42-2,6.31,6.31,0,0,1-.5-1.09,3.12,3.12,0,0,1-.13-.59.77.77,0,0,1,.24-.67l0,.13a2.55,2.55,0,0,1,.07-1.23,10.31,10.31,0,0,1,.41-1.18,15.44,15.44,0,0,1,1.22-2.3c-.33.78-.64,1.56-.9,2.34-.13.39-.23.78-.32,1.16a2.73,2.73,0,0,0-.05,1.13.16.16,0,0,1,0,.14.53.53,0,0,0-.12.44,2.65,2.65,0,0,0,.1.55c.12.35.27.71.43,1.07C167.92,260.25,168.29,261,168.65,261.66Z"/><path class="cls-8" d="M151,262.26a2.32,2.32,0,0,1-1-.74.81.81,0,0,1-.15-.57,1,1,0,0,1,.37-.62l.25.22a.79.79,0,0,1-.52.06.92.92,0,0,1-.33-.16,1.65,1.65,0,0,1-.34-.43,2.23,2.23,0,0,1-.21-.95c.2.27.36.55.57.81a2.06,2.06,0,0,0,.33.33c.14.1.23.12.32.08h0a.23.23,0,0,1,.28,0,.14.14,0,0,1-.05.18.71.71,0,0,0-.24.89A2.83,2.83,0,0,0,151,262.26Z"/><path class="cls-8" d="M154.74,264.7a10.5,10.5,0,0,1-2.18-1.94,4.08,4.08,0,0,1-.71-1.18,1.67,1.67,0,0,1,.07-1.44l.28.17a.64.64,0,0,1-.6-.05,1,1,0,0,1-.25-.26,2.81,2.81,0,0,1-.29-.54,8.49,8.49,0,0,1-.33-1.12,12.78,12.78,0,0,1-.26-2.32c.18.75.37,1.5.59,2.24.12.36.24.72.39,1.08a2.68,2.68,0,0,0,.28.49.8.8,0,0,0,.19.18c.08.05.1.05.12,0a.25.25,0,0,1,.29,0,.12.12,0,0,1,0,.13v0a1.54,1.54,0,0,0-.07,1.24,4.34,4.34,0,0,0,.62,1.16A16.31,16.31,0,0,0,154.74,264.7Z"/><path class="cls-8" d="M148.22,265.38a9.56,9.56,0,0,1-1.67-1.49,4.4,4.4,0,0,1-.64-.85,3.06,3.06,0,0,1-.22-.49,1.61,1.61,0,0,1-.09-.54l.37.06a1.27,1.27,0,0,1-.31.17.69.69,0,0,1-.37,0,.87.87,0,0,1-.43-.21,1.79,1.79,0,0,1-.46-.58,4,4,0,0,1-.49-1.29c.26.4.51.78.79,1.15a3.24,3.24,0,0,0,.49.49.63.63,0,0,0,.28.12c.08,0,.11,0,.2-.07a.29.29,0,0,1,.33,0,.15.15,0,0,1,0,.08,2,2,0,0,0,.08.48,2.53,2.53,0,0,0,.19.45,6.68,6.68,0,0,0,.55.87C147.27,264.3,147.74,264.84,148.22,265.38Z"/><path class="cls-8" d="M150.27,265.33a14.66,14.66,0,0,1-1.81-1.7,6.77,6.77,0,0,1-.72-1,2.61,2.61,0,0,1-.26-.56.74.74,0,0,1,.09-.69l0,.14a2.65,2.65,0,0,1-.19-1.23,10.91,10.91,0,0,1,.15-1.25,14.4,14.4,0,0,1,.71-2.5c-.17.82-.3,1.65-.39,2.47,0,.41-.06.82-.06,1.22a2.72,2.72,0,0,0,.19,1.12.15.15,0,0,1,0,.14.55.55,0,0,0,0,.46,2.81,2.81,0,0,0,.22.51,11,11,0,0,0,.65,1C149.25,264.09,149.77,264.7,150.27,265.33Z"/><path class="cls-8" d="M217.33,265a8.12,8.12,0,0,1,.24-1.91,5,5,0,0,1,.3-.92,6.57,6.57,0,0,1,.44-.88l0,.15a2.48,2.48,0,0,1-.55-1.24,3.65,3.65,0,0,1,0-1.19,5.52,5.52,0,0,1,.86-2.14,9,9,0,0,0-.48,2.22,3.17,3.17,0,0,0,.54,2.24.11.11,0,0,1,0,.15h0a7.54,7.54,0,0,0-.46.83c-.15.28-.25.58-.38.87C217.67,263.82,217.49,264.42,217.33,265Z"/><path class="cls-8" d="M211.47,262.25a4.51,4.51,0,0,1-.36-1.49,2.31,2.31,0,0,1,.08-.74,1.08,1.08,0,0,1,.5-.65l.13.29a1.13,1.13,0,0,1-.61-.38,1.14,1.14,0,0,1-.21-.47,2.27,2.27,0,0,1,0-.82,4.5,4.5,0,0,1,.51-1.51,13.69,13.69,0,0,0-.16,1.57,2.89,2.89,0,0,0,.09.77.67.67,0,0,0,.46.53c.12,0,.21.11.21.19a.15.15,0,0,1-.06.09h0a1.45,1.45,0,0,0-.55,1.17A8.68,8.68,0,0,0,211.47,262.25Z"/><path class="cls-8" d="M232.71,272.26c-.07-.81-.16-1.64-.15-2.45a5.35,5.35,0,0,1,.09-1.21,1.67,1.67,0,0,1,.19-.57.71.71,0,0,1,.6-.41v.3a.67.67,0,0,1-.31-.39,1.21,1.21,0,0,1-.08-.33,2.81,2.81,0,0,1,0-.58,7.59,7.59,0,0,1,.19-1.06,10.15,10.15,0,0,1,.7-2l-.36,2.1c0,.35-.11.69-.12,1.05a3.11,3.11,0,0,0,0,.53.91.91,0,0,0,.14.39.27.27,0,0,1,.21.19.11.11,0,0,1-.12.11h-.1a.48.48,0,0,0-.36.27,2,2,0,0,0-.19.5,10.61,10.61,0,0,0-.18,1.15Z"/><path class="cls-8" d="M187.41,259.66a7,7,0,0,1-.6-1.79,3.21,3.21,0,0,1,0-.93,1.13,1.13,0,0,1,.54-.91l.13.27a.73.73,0,0,1-.46-.21,1.27,1.27,0,0,1-.22-.26,2.34,2.34,0,0,1-.27-.52,6.49,6.49,0,0,1-.33-1,11.21,11.21,0,0,1-.28-2.06c.22.68.43,1.36.64,2,.12.33.24.67.39,1a2.42,2.42,0,0,0,.26.47c.08.14.27.29.31.28a.25.25,0,0,1,.26.07c0,.07,0,.12-.05.16l-.08,0a1,1,0,0,0-.41.71,3.69,3.69,0,0,0,0,.88A14.15,14.15,0,0,0,187.41,259.66Z"/><path class="cls-8" d="M229.28,271.22a18.12,18.12,0,0,1,.56-2.53,9.32,9.32,0,0,1,.49-1.19,3.16,3.16,0,0,1,.33-.56,1.13,1.13,0,0,1,.62-.45l.09.32a.7.7,0,0,1-.35-.25,1.12,1.12,0,0,1-.1-.24,1.39,1.39,0,0,1,0-.39,5.62,5.62,0,0,1,0-.72,10.26,10.26,0,0,1,.27-1.34,18.75,18.75,0,0,1,.84-2.53c-.18.88-.35,1.77-.52,2.65-.08.45-.15.89-.2,1.34a3.89,3.89,0,0,0,0,.68,1.86,1.86,0,0,0,0,.34.36.36,0,0,0,.08.15l.09.32a1,1,0,0,0-.45.36,3,3,0,0,0-.34.51,9.81,9.81,0,0,0-.51,1.15C229.85,269.62,229.58,270.42,229.28,271.22Z"/><path class="cls-8" d="M227.15,268.78a13.82,13.82,0,0,1,.92-1.69c.18-.27.37-.53.58-.79a3.66,3.66,0,0,1,.33-.37l.19-.18a.89.89,0,0,1,.3-.16l.07.32a.91.91,0,0,1-.52-.45,1.16,1.16,0,0,1-.08-.45,2.12,2.12,0,0,1,.19-.73,3.85,3.85,0,0,1,.78-1.22,10.78,10.78,0,0,0-.47,1.35,3.26,3.26,0,0,0-.09.69.84.84,0,0,0,.07.33.31.31,0,0,0,.19.18h0c.12.05.19.15.16.23a.12.12,0,0,1-.1.09.54.54,0,0,0-.16.09l-.18.17-.33.35-.62.74Z"/><path class="cls-8" d="M224.28,265.48a2,2,0,0,1-.27-1.15.73.73,0,0,1,.24-.53,1,1,0,0,1,.7-.25l.05.31a.84.84,0,0,1-.45-.26.79.79,0,0,1-.15-.33,1.28,1.28,0,0,1,0-.52,2.06,2.06,0,0,1,.46-.86c0,.33-.08.64-.08,1a1.68,1.68,0,0,0,0,.45c0,.15.1.23.2.26h0c.11,0,.2.12.19.2s-.08.1-.16.1a.78.78,0,0,0-.78.56A2.87,2.87,0,0,0,224.28,265.48Z"/><path class="cls-8" d="M225.91,269.36a9.19,9.19,0,0,1-.67-2.77,3.59,3.59,0,0,1,.12-1.35,1.55,1.55,0,0,1,.94-1.05l.11.31a.73.73,0,0,1-.43-.34.83.83,0,0,1-.12-.33,2.22,2.22,0,0,1,0-.57,5.64,5.64,0,0,1,.23-1,9.21,9.21,0,0,1,.81-1.91c-.18.67-.35,1.34-.49,2a7.28,7.28,0,0,0-.14,1,2.16,2.16,0,0,0,0,.51.63.63,0,0,0,.09.22c0,.07.07.09.1.1s.2.14.19.22a.16.16,0,0,1-.07.09,1.41,1.41,0,0,0-.81.9,4,4,0,0,0-.18,1.26A14.09,14.09,0,0,0,225.91,269.36Z"/><path class="cls-8" d="M194.66,261.64a14.86,14.86,0,0,1-.47-2.55,9.11,9.11,0,0,1,0-1.28,2.93,2.93,0,0,1,.1-.65,1.08,1.08,0,0,1,.4-.64l.2.26a.61.61,0,0,1-.41-.12.5.5,0,0,1-.18-.17,1.57,1.57,0,0,1-.21-.34,4.43,4.43,0,0,1-.23-.67,12.66,12.66,0,0,1-.26-1.34,19.92,19.92,0,0,1-.15-2.67c.16.89.33,1.78.49,2.66.1.44.2.88.32,1.31a3.45,3.45,0,0,0,.25.63,1.15,1.15,0,0,0,.16.29c.07.09.17.13.13.12l.21.26a1,1,0,0,0-.27.49,2.52,2.52,0,0,0-.12.62,10.37,10.37,0,0,0-.05,1.25C194.56,260,194.62,260.79,194.66,261.64Z"/><path class="cls-8" d="M191.67,260.14a13.54,13.54,0,0,1,.25-1.9,7.62,7.62,0,0,1,.24-.94c.05-.16.11-.31.17-.46l.11-.24a.84.84,0,0,1,.23-.25l.18.27a1,1,0,0,1-.65-.25A1,1,0,0,1,192,256a2.17,2.17,0,0,1-.09-.75,3.8,3.8,0,0,1,.27-1.41,13.5,13.5,0,0,0,.07,1.42,2.79,2.79,0,0,0,.17.69.78.78,0,0,0,.17.28.36.36,0,0,0,.25.1h0a.22.22,0,0,1,.24.16.14.14,0,0,1-.06.11.38.38,0,0,0-.12.16,1.24,1.24,0,0,0-.1.2,3.52,3.52,0,0,0-.18.45l-.31.91C192.08,258.91,191.89,259.53,191.67,260.14Z"/><path class="cls-8" d="M190.72,261.13a9.45,9.45,0,0,1-1.66-2.34,3.84,3.84,0,0,1-.37-1.31,1.54,1.54,0,0,1,.51-1.31l.21.25a.8.8,0,0,1-.53-.17,1.07,1.07,0,0,1-.23-.26,2.34,2.34,0,0,1-.21-.53,4.77,4.77,0,0,1-.16-1.05,10.9,10.9,0,0,1,.08-2.06c.08.69.14,1.37.26,2.05a7,7,0,0,0,.23,1,2.18,2.18,0,0,0,.21.47,1.37,1.37,0,0,0,.16.18.21.21,0,0,0,.13.05c.12,0,.24.05.25.13a.1.1,0,0,1,0,.11,1.48,1.48,0,0,0-.43,1.13,4.06,4.06,0,0,0,.29,1.24A13.17,13.17,0,0,0,190.72,261.13Z"/><path class="cls-8" d="M212.81,264.9a14.93,14.93,0,0,1,0-2.59A8,8,0,0,1,213,261a4.2,4.2,0,0,1,.22-.62,1,1,0,0,1,.5-.56l.16.29a.64.64,0,0,1-.39-.17.76.76,0,0,1-.15-.21,1.54,1.54,0,0,1-.14-.37,4.53,4.53,0,0,1-.11-.71,7.73,7.73,0,0,1,0-1.36,16.54,16.54,0,0,1,.31-2.65c0,.9,0,1.8,0,2.7q0,.67.09,1.35a5.24,5.24,0,0,0,.12.67,2,2,0,0,0,.12.31.63.63,0,0,0,.11.13l.17.29a1.07,1.07,0,0,0-.37.44,2.75,2.75,0,0,0-.22.58,10.38,10.38,0,0,0-.27,1.23C213,263.21,212.93,264.06,212.81,264.9Z"/><path class="cls-8" d="M206.68,263.23a9.72,9.72,0,0,1,.63-2.48,5.3,5.3,0,0,1,.65-1.16,3.12,3.12,0,0,1,.51-.52,1.55,1.55,0,0,1,.83-.35l0,.3a1.14,1.14,0,0,1-.62-.63,1.59,1.59,0,0,1,0-.64,3.38,3.38,0,0,1,.35-1.13,8.47,8.47,0,0,1,1.39-2,14.36,14.36,0,0,0-1.06,2.11,4,4,0,0,0-.27,1.11.83.83,0,0,0,.44.93c.11.05.16.14.11.21a.14.14,0,0,1-.12.07h0a1.82,1.82,0,0,0-1.1.73,5.37,5.37,0,0,0-.68,1.09A16.89,16.89,0,0,0,206.68,263.23Z"/><path class="cls-8" d="M196.52,258.69a2,2,0,0,1-.59-1,.71.71,0,0,1,.09-.58,1,1,0,0,1,.6-.44l.13.3a.92.92,0,0,1-.5-.14.66.66,0,0,1-.23-.26,1,1,0,0,1-.13-.51,2.29,2.29,0,0,1,.19-1c.08.32.11.64.2.94a1.47,1.47,0,0,0,.16.43c.08.13.16.19.26.19h0c.12,0,.23.07.24.16s0,.11-.12.14a.74.74,0,0,0-.59.72A2.79,2.79,0,0,0,196.52,258.69Z"/><path class="cls-8" d="M215.81,265.61a9.47,9.47,0,0,1-1-2.7,3.68,3.68,0,0,1,0-1.36,1.51,1.51,0,0,1,.81-1.15l.14.29a.78.78,0,0,1-.47-.29,1.06,1.06,0,0,1-.16-.32,2.16,2.16,0,0,1-.08-.56,4.67,4.67,0,0,1,.1-1,9.15,9.15,0,0,1,.57-2c-.09.68-.19,1.37-.25,2.05a7.08,7.08,0,0,0,0,1,1.48,1.48,0,0,0,.09.51.82.82,0,0,0,.1.21.19.19,0,0,0,.11.09c.13,0,.23.11.21.2a.12.12,0,0,1-.06.1,1.38,1.38,0,0,0-.68,1,3.85,3.85,0,0,0,0,1.27A13.76,13.76,0,0,0,215.81,265.61Z"/><path class="cls-8" d="M223,265.9a3.83,3.83,0,0,1-.57-1.58,1.75,1.75,0,0,1,.43-1.46l.24.28a.82.82,0,0,1-.36-.07.84.84,0,0,1-.29-.21.9.9,0,0,1-.18-.45,1.72,1.72,0,0,1,.05-.72,4.23,4.23,0,0,1,.51-1.27c-.07.46-.15.9-.18,1.35a3.06,3.06,0,0,0,0,.68.81.81,0,0,0,.12.28.23.23,0,0,0,.21.08.31.31,0,0,1,.26.19.09.09,0,0,1,0,.09h0a1.71,1.71,0,0,0-.2.27,2.12,2.12,0,0,0-.14.31,2.76,2.76,0,0,0-.11.7A5.88,5.88,0,0,0,223,265.9Z"/><path class="cls-8" d="M219.92,266.58a12.49,12.49,0,0,1-.34-2.41,6.74,6.74,0,0,1,0-1.19,2.51,2.51,0,0,1,.16-.58.77.77,0,0,1,.52-.49l-.1.1a2.51,2.51,0,0,1,.63-1.08,10.79,10.79,0,0,1,.91-.87,14.88,14.88,0,0,1,2.15-1.54c-.65.55-1.29,1.12-1.88,1.7-.29.29-.57.6-.83.91a2.9,2.9,0,0,0-.56,1,.14.14,0,0,1-.1.1.52.52,0,0,0-.31.35,2.24,2.24,0,0,0-.16.52,8.48,8.48,0,0,0-.1,1.14C219.91,265,219.93,265.79,219.92,266.58Z"/><path class="cls-8" d="M203.74,259.52a2.1,2.1,0,0,1-.52-1.07.81.81,0,0,1,.13-.58,1.09,1.09,0,0,1,.63-.39l.11.31a.84.84,0,0,1-.48-.17.74.74,0,0,1-.22-.29,1.29,1.29,0,0,1-.1-.52,2.36,2.36,0,0,1,.26-.94c.06.33.06.65.13,1a1.6,1.6,0,0,0,.13.44c.08.14.16.2.26.21h0a.23.23,0,0,1,.24.16.15.15,0,0,1-.13.14.73.73,0,0,0-.64.69A2.68,2.68,0,0,0,203.74,259.52Z"/><path class="cls-8" d="M206,263.31a10.12,10.12,0,0,1-1.06-2.66,4.15,4.15,0,0,1-.07-1.36,1.66,1.66,0,0,1,.73-1.24l.18.27a.65.65,0,0,1-.52-.32,1.12,1.12,0,0,1-.1-.33,2.41,2.41,0,0,1,0-.6,6.4,6.4,0,0,1,.23-1.14,12.52,12.52,0,0,1,.85-2.17c-.18.75-.37,1.49-.51,2.24a11,11,0,0,0-.16,1.13,2,2,0,0,0,0,.55.92.92,0,0,0,.08.25c0,.07.08.08.1.08a.23.23,0,0,1,.24.14.09.09,0,0,1,0,.11l0,0a1.66,1.66,0,0,0-.64,1.08,4,4,0,0,0,0,1.29A14.9,14.9,0,0,0,206,263.31Z"/><path class="cls-8" d="M199.76,261.08a8.41,8.41,0,0,1-.78-2,4.65,4.65,0,0,1-.14-1.05,2.28,2.28,0,0,1,0-.52,1.82,1.82,0,0,1,.19-.52l.31.22a1.12,1.12,0,0,1-.37,0,.7.7,0,0,1-.34-.14.8.8,0,0,1-.28-.39,1.8,1.8,0,0,1-.12-.71,4.13,4.13,0,0,1,.2-1.35c0,.46.06.91.14,1.36a3.57,3.57,0,0,0,.18.66.63.63,0,0,0,.19.23c.07,0,.1,0,.21,0a.29.29,0,0,1,.31.11.21.21,0,0,1,0,.11,1.39,1.39,0,0,0-.17.44,2.63,2.63,0,0,0-.05.49,5.65,5.65,0,0,0,.06,1C199.43,259.72,199.6,260.4,199.76,261.08Z"/><path class="cls-8" d="M201.63,261.93a14.72,14.72,0,0,1-.8-2.31,6.6,6.6,0,0,1-.17-1.17,2.35,2.35,0,0,1,0-.59.81.81,0,0,1,.42-.6l-.09.12a2.55,2.55,0,0,1,.43-1.17,9.18,9.18,0,0,1,.72-1,17.71,17.71,0,0,1,1.81-1.88c-.53.67-1,1.33-1.52,2-.22.35-.43.69-.63,1a2.66,2.66,0,0,0-.36,1.08.14.14,0,0,1-.09.11.61.61,0,0,0-.24.41,2.36,2.36,0,0,0-.05.54,9,9,0,0,0,.11,1.14C201.32,260.37,201.49,261.16,201.63,261.93Z"/><path class="cls-8" d="M163.91,267.85a7,7,0,0,1-.74-1.69,4.68,4.68,0,0,1-.18-.89,5.64,5.64,0,0,1,0-.92l.1.13a2.9,2.9,0,0,1-1.18-.81,3.54,3.54,0,0,1-.61-1,4.35,4.35,0,0,1-.25-2.14,7.42,7.42,0,0,0,.65,2.05,3.32,3.32,0,0,0,1.7,1.64.15.15,0,0,1,.09.12h0a6.53,6.53,0,0,0,0,.88,8.91,8.91,0,0,0,.08.89A15,15,0,0,0,163.91,267.85Z"/><path class="cls-8" d="M156.71,268a4.43,4.43,0,0,1-1.11-1.09,1.83,1.83,0,0,1-.3-.65.88.88,0,0,1,.15-.76l.28.19a1.45,1.45,0,0,1-.79-.05,1.15,1.15,0,0,1-.44-.28,1.92,1.92,0,0,1-.44-.68,3.59,3.59,0,0,1-.28-1.47,10.56,10.56,0,0,0,.65,1.36,2.31,2.31,0,0,0,.48.6.8.8,0,0,0,.72.24.29.29,0,0,1,.3.08s0,.06,0,.1h0c-.28.36-.12.81.06,1.21A8.57,8.57,0,0,0,156.71,268Z"/><path class="cls-8" d="M183.15,267a12.67,12.67,0,0,1-1.68-1.87,4.61,4.61,0,0,1-.61-1,1.35,1.35,0,0,1-.13-.56.59.59,0,0,1,.34-.6l.16.25a.93.93,0,0,1-.53-.18,1.84,1.84,0,0,1-.25-.23,4.25,4.25,0,0,1-.32-.46,5.44,5.44,0,0,1-.39-.95,8.21,8.21,0,0,1-.41-1.93c.27.64.53,1.26.8,1.88a9.84,9.84,0,0,0,.47.91,2.94,2.94,0,0,0,.3.42.73.73,0,0,0,.36.25.26.26,0,0,1,.29.06s0,.11-.05.14l-.08.05a.41.41,0,0,0-.2.39,1.5,1.5,0,0,0,.11.49,5.49,5.49,0,0,0,.5,1C182.22,265.71,182.69,266.35,183.15,267Z"/><path class="cls-8" d="M132.27,276.41a7.75,7.75,0,0,1-1.6-1.12,3.1,3.1,0,0,1-.6-.71,1,1,0,0,1,0-1l.28.16a1,1,0,0,1-.56.07,2.14,2.14,0,0,1-.35-.1,3.76,3.76,0,0,1-.57-.26,8,8,0,0,1-.93-.64,10.37,10.37,0,0,1-1.57-1.44l1.88,1.22a10.53,10.53,0,0,0,1,.58,3.38,3.38,0,0,0,.51.24,1,1,0,0,0,.46.06.32.32,0,0,1,.29-.07.09.09,0,0,1,.05.15l-.05.08a.81.81,0,0,0,0,.77,4.16,4.16,0,0,0,.5.71A15.78,15.78,0,0,0,132.27,276.41Z"/><path class="cls-8" d="M179,267.78a12.84,12.84,0,0,1-.86-2.33,6.86,6.86,0,0,1-.19-1.19,3.11,3.11,0,0,1,0-.61,1,1,0,0,1,.36-.64l.26.23a.81.81,0,0,1-.47-.07.7.7,0,0,1-.23-.15,1.83,1.83,0,0,1-.27-.3,4.56,4.56,0,0,1-.34-.6,8.17,8.17,0,0,1-.47-1.21,14.11,14.11,0,0,1-.53-2.45l.9,2.4c.17.4.34.8.53,1.19a3.36,3.36,0,0,0,.35.57,1.37,1.37,0,0,0,.23.25.61.61,0,0,0,.16.1l.26.22a.94.94,0,0,0-.24.49,2.16,2.16,0,0,0,0,.57,7.74,7.74,0,0,0,.12,1.17C178.7,266.21,178.88,267,179,267.78Z"/><path class="cls-8" d="M175.56,266.73a12,12,0,0,1,0-1.8c0-.3.08-.6.14-.9s.07-.3.12-.45a2.29,2.29,0,0,1,.1-.23.62.62,0,0,1,.2-.27l.24.23a1.21,1.21,0,0,1-.75-.14,1,1,0,0,1-.31-.33,1.93,1.93,0,0,1-.21-.67,3.46,3.46,0,0,1,.11-1.36,10.3,10.3,0,0,0,.27,1.32,2.69,2.69,0,0,0,.27.6,1,1,0,0,0,.25.24.39.39,0,0,0,.28,0h0c.15,0,.27,0,.29.12a.1.1,0,0,1-.06.11.91.91,0,0,0-.1.16,1.8,1.8,0,0,0-.08.21,3.22,3.22,0,0,0-.14.44l-.21.88C175.83,265.54,175.72,266.13,175.56,266.73Z"/><path class="cls-8" d="M171,265.24a2.06,2.06,0,0,1-.87-.83.66.66,0,0,1,0-.55,1.18,1.18,0,0,1,.56-.51l.22.24a1.11,1.11,0,0,1-.58,0,.79.79,0,0,1-.31-.2,1,1,0,0,1-.26-.44,1.66,1.66,0,0,1,0-.91c.15.28.26.57.41.83a3.38,3.38,0,0,0,.27.36.39.39,0,0,0,.34.12h0a.3.3,0,0,1,.31.08c0,.06,0,.12-.1.16a.69.69,0,0,0-.48.79A2.39,2.39,0,0,0,171,265.24Z"/><path class="cls-8" d="M174.65,267.77a9.59,9.59,0,0,1-2.13-2,3.23,3.23,0,0,1-.59-1.17,1.27,1.27,0,0,1,.37-1.27l.27.21a.93.93,0,0,1-.61-.11,1,1,0,0,1-.29-.22,2.05,2.05,0,0,1-.3-.47,3.83,3.83,0,0,1-.33-1,7.44,7.44,0,0,1-.19-1.93c.17.63.34,1.26.56,1.89a9,9,0,0,0,.4.91,2.4,2.4,0,0,0,.3.41,1.25,1.25,0,0,0,.19.15c.08,0,.12.05.16,0s.27,0,.3.11a.11.11,0,0,1,0,.1,1.13,1.13,0,0,0-.32,1.08,3.7,3.7,0,0,0,.49,1.13A13.5,13.5,0,0,0,174.65,267.77Z"/><path class="cls-8" d="M140.11,274.72a16.18,16.18,0,0,1-1.83-1.88,7.16,7.16,0,0,1-.72-1,2.64,2.64,0,0,1-.26-.57.83.83,0,0,1,0-.7l.34.12a.75.75,0,0,1-.46.09.78.78,0,0,1-.29-.06c-.14-.06-.26-.13-.37-.19a4.08,4.08,0,0,1-.6-.45,11.26,11.26,0,0,1-1-1,16.73,16.73,0,0,1-1.62-2.09l1.94,1.92c.34.32.68.63,1,.93a6.6,6.6,0,0,0,.58.41,1.68,1.68,0,0,0,.33.16c.11,0,.23,0,.19,0l.34.11a.8.8,0,0,0,0,.53,2.87,2.87,0,0,0,.22.55,10.53,10.53,0,0,0,.64,1.05C139.1,273.38,139.61,274.05,140.11,274.72Z"/><path class="cls-8" d="M136.48,274.84a10.62,10.62,0,0,1-.83-1.65,6.88,6.88,0,0,1-.3-.87c0-.15-.07-.3-.1-.46a2,2,0,0,1,0-.25.47.47,0,0,1,.06-.3l.33.13a1.18,1.18,0,0,1-.76.11,1.2,1.2,0,0,1-.44-.21,1.83,1.83,0,0,1-.52-.56,3.54,3.54,0,0,1-.53-1.27,12,12,0,0,0,.87,1.12,3.14,3.14,0,0,0,.54.48.84.84,0,0,0,.33.13.44.44,0,0,0,.3,0h0a.28.28,0,0,1,.32,0,.11.11,0,0,1,0,.11.82.82,0,0,0,0,.18,1.77,1.77,0,0,0,0,.23c0,.14.05.29.08.43l.21.89Z"/><path class="cls-8" d="M136.14,276.09a13.55,13.55,0,0,1-2.87-1.15,4,4,0,0,1-1.1-.87,1.27,1.27,0,0,1-.29-1.29l.35.1a1,1,0,0,1-.6.12,1.39,1.39,0,0,1-.37-.1,2.33,2.33,0,0,1-.51-.32,4.91,4.91,0,0,1-.76-.75,8.09,8.09,0,0,1-1.14-1.69c.48.52,1,1,1.45,1.51a6.8,6.8,0,0,0,.82.69,2.4,2.4,0,0,0,.47.27,1,1,0,0,0,.25.07c.09,0,.12,0,.15,0a.33.33,0,0,1,.33,0,.11.11,0,0,1,0,.11,1.14,1.14,0,0,0,.24,1.1,4,4,0,0,0,1,.86A16.89,16.89,0,0,0,136.14,276.09Z"/><path class="cls-8" d="M159.38,269.64a13.44,13.44,0,0,1-1.32-2.16,8.81,8.81,0,0,1-.44-1.15,2.89,2.89,0,0,1-.1-.6.85.85,0,0,1,.21-.68l.3.18a.94.94,0,0,1-.47,0,.92.92,0,0,1-.26-.11,2.19,2.19,0,0,1-.33-.25,3.87,3.87,0,0,1-.46-.54,7.11,7.11,0,0,1-.71-1.13,14.39,14.39,0,0,1-1.06-2.34l1.4,2.24c.25.37.51.74.78,1.09a5.43,5.43,0,0,0,.46.51,1.86,1.86,0,0,0,.28.21.35.35,0,0,0,.18.06l.31.18a.76.76,0,0,0-.14.52,2.24,2.24,0,0,0,.08.57,6.89,6.89,0,0,0,.37,1.14C158.73,268.14,159.07,268.88,159.38,269.64Z"/><path class="cls-8" d="M152.52,270.83a8,8,0,0,1-.66-2.33,3.93,3.93,0,0,1,0-1.23,2.41,2.41,0,0,1,.23-.65,1.52,1.52,0,0,1,.65-.63l.12.24A1.32,1.32,0,0,1,152,266a1.62,1.62,0,0,1-.39-.51,2.68,2.68,0,0,1-.23-1.1,6.52,6.52,0,0,1,.32-2.25,11.5,11.5,0,0,0,0,2.2,3.79,3.79,0,0,0,.3,1,.94.94,0,0,0,.91.59c.14,0,.24.05.23.12a.18.18,0,0,1-.09.12h0a1.64,1.64,0,0,0-.71,1.06,4.88,4.88,0,0,0-.11,1.2A15.91,15.91,0,0,0,152.52,270.83Z"/><path class="cls-8" d="M140.29,271.49a2.39,2.39,0,0,1-1.12-.58.63.63,0,0,1-.23-.51.93.93,0,0,1,.35-.63l.29.18a1.14,1.14,0,0,1-.56.12,1,1,0,0,1-.38-.12,1.28,1.28,0,0,1-.4-.36,1.71,1.71,0,0,1-.32-.87c.25.24.45.48.7.69a1.49,1.49,0,0,0,.38.28.44.44,0,0,0,.36,0v0a.32.32,0,0,1,.32,0,.11.11,0,0,1,0,.17.61.61,0,0,0-.18.86A2.68,2.68,0,0,0,140.29,271.49Z"/><path class="cls-8" d="M162.7,269a10.89,10.89,0,0,1-2.37-1.81,3.27,3.27,0,0,1-.74-1.11,1.28,1.28,0,0,1,.19-1.31l.3.18a.94.94,0,0,1-.61,0,1.17,1.17,0,0,1-.32-.19,2.35,2.35,0,0,1-.36-.43,4.52,4.52,0,0,1-.45-.91,7.85,7.85,0,0,1-.45-1.9c.26.61.51,1.22.82,1.81a6.71,6.71,0,0,0,.51.86,2.43,2.43,0,0,0,.34.38.85.85,0,0,0,.22.13.21.21,0,0,0,.15,0,.28.28,0,0,1,.32.07.12.12,0,0,1,0,.1,1.15,1.15,0,0,0-.17,1.12,3.24,3.24,0,0,0,.63,1.06A13.37,13.37,0,0,0,162.7,269Z"/><path class="cls-8" d="M169.93,266.16a4.41,4.41,0,0,1-1.37-1.07,1.41,1.41,0,0,1-.33-1.39l.38.13a1.77,1.77,0,0,1-.38.09.77.77,0,0,1-.41-.06.86.86,0,0,1-.4-.28,1.78,1.78,0,0,1-.33-.62,3.24,3.24,0,0,1-.15-1.27c.17.41.32.82.52,1.2a2.65,2.65,0,0,0,.37.55.85.85,0,0,0,.27.18c.09,0,.12,0,.24,0a.41.41,0,0,1,.35,0s0,.07,0,.09h0a1.8,1.8,0,0,0-.06.32,1.08,1.08,0,0,0,0,.31,2.27,2.27,0,0,0,.26.63A5.87,5.87,0,0,0,169.93,266.16Z"/><path class="cls-8" d="M167.26,268a14.35,14.35,0,0,1-1.59-1.87,6.28,6.28,0,0,1-.56-1,2,2,0,0,1-.14-.54.67.67,0,0,1,.25-.64l-.05.13a2.12,2.12,0,0,1,.08-1.17,7.38,7.38,0,0,1,.45-1.11,13,13,0,0,1,1.32-2.16c-.36.74-.69,1.47-1,2.2a9.11,9.11,0,0,0-.34,1.09,2.14,2.14,0,0,0,0,1.06.12.12,0,0,1-.05.12.46.46,0,0,0-.13.42,2.36,2.36,0,0,0,.12.51,7,7,0,0,0,.49,1C166.43,266.7,166.86,267.35,167.26,268Z"/><path class="cls-8" d="M147.74,269a2.56,2.56,0,0,1-1.08-.67.72.72,0,0,1-.17-.53,1,1,0,0,1,.41-.59l.28.2a1.18,1.18,0,0,1-.58.07,1,1,0,0,1-.36-.15,1.1,1.1,0,0,1-.36-.39,1.68,1.68,0,0,1-.23-.88c.21.25.39.5.62.73a1.74,1.74,0,0,0,.36.31.38.38,0,0,0,.35.07h0c.12-.05.27,0,.31,0s0,.12-.06.17a.62.62,0,0,0-.26.84A2.65,2.65,0,0,0,147.74,269Z"/><path class="cls-8" d="M151.89,271.2a11,11,0,0,1-2.4-1.74,4.14,4.14,0,0,1-.78-1.11,1.35,1.35,0,0,1,.08-1.34l.31.15a.8.8,0,0,1-.67,0,1.05,1.05,0,0,1-.27-.23,2.48,2.48,0,0,1-.32-.5,5.66,5.66,0,0,1-.36-1.05,9.69,9.69,0,0,1-.29-2.16c.2.69.41,1.4.65,2.08.13.34.27.68.43,1a2.35,2.35,0,0,0,.3.45,1.24,1.24,0,0,0,.22.18c.08,0,.11,0,.13,0a.28.28,0,0,1,.31,0,.08.08,0,0,1,0,.11l0,0a1.28,1.28,0,0,0-.06,1.17,3.74,3.74,0,0,0,.67,1.07A14.41,14.41,0,0,0,151.89,271.2Z"/><path class="cls-8" d="M144.68,272a10.2,10.2,0,0,1-1.82-1.34,4,4,0,0,1-.7-.79,2.79,2.79,0,0,1-.24-.45,1.24,1.24,0,0,1-.08-.51l.4,0a1.08,1.08,0,0,1-.34.18,1,1,0,0,1-.41,0A.94.94,0,0,1,141,269a1.77,1.77,0,0,1-.5-.53,3.22,3.22,0,0,1-.53-1.2c.28.36.55.73.86,1.06a3.82,3.82,0,0,0,.53.45,1.05,1.05,0,0,0,.31.11.34.34,0,0,0,.22-.07.38.38,0,0,1,.35,0,.17.17,0,0,1,.07.08,1.41,1.41,0,0,0,.07.45,2.06,2.06,0,0,0,.21.42,4.92,4.92,0,0,0,.59.79C143.64,271,144.16,271.52,144.68,272Z"/><path class="cls-8" d="M147,271.92a12.89,12.89,0,0,1-2-1.55,5.67,5.67,0,0,1-.8-.9,1.92,1.92,0,0,1-.27-.51.62.62,0,0,1,.1-.66l0,.13a2.06,2.06,0,0,1-.19-1.14,5.9,5.9,0,0,1,.17-1.17,12.12,12.12,0,0,1,.77-2.37c-.17.78-.32,1.56-.43,2.34,0,.38-.06.76-.07,1.13a2.27,2.27,0,0,0,.21,1,.11.11,0,0,1,0,.13.48.48,0,0,0,0,.44,1.9,1.9,0,0,0,.24.47,9.4,9.4,0,0,0,.7.89C145.84,270.79,146.41,271.35,147,271.92Z"/><path class="cls-8" d="M230.32,273.52a12.37,12.37,0,0,1,.65-1.68c.14-.27.27-.55.43-.81s.34-.53.51-.79l0,.13a2.15,2.15,0,0,1,0-1,5,5,0,0,1,.31-1,9,9,0,0,1,1.1-1.9,14.08,14.08,0,0,0-.88,1.95,3.31,3.31,0,0,0-.23,1.9.21.21,0,0,1,0,.13h0a7.75,7.75,0,0,0-.51.76l-.47.78C230.86,272.44,230.59,273,230.32,273.52Z"/><path class="cls-8" d="M227.35,271.42a4.73,4.73,0,0,1,.16-1.28,3.91,3.91,0,0,1,.24-.65,1.73,1.73,0,0,1,.49-.6v.25a.39.39,0,0,1-.28-.3.86.86,0,0,1,0-.39,2.56,2.56,0,0,1,.21-.73,6.38,6.38,0,0,1,.71-1.34c-.19.46-.37.92-.51,1.38a3.42,3.42,0,0,0-.16.67c0,.22,0,.42.16.44s.1.08.08.16l-.07.08h0a2.19,2.19,0,0,0-.65,1.05A12.87,12.87,0,0,0,227.35,271.42Z"/><path class="cls-8" d="M238.93,277.53c.14-.63.26-1.29.46-1.95a8.57,8.57,0,0,1,.34-1,4.08,4.08,0,0,1,.28-.49,1,1,0,0,1,.52-.45l-.08.26a.29.29,0,0,1-.13-.28,1,1,0,0,1,0-.24,2.54,2.54,0,0,1,.14-.47,8,8,0,0,1,.38-.91,18.46,18.46,0,0,1,.95-1.74l-.74,1.79c-.11.29-.24.59-.33.88s-.09.3-.12.43a.47.47,0,0,0,0,.29.09.09,0,0,1,.1.12.17.17,0,0,1-.11.12l-.07,0a.8.8,0,0,0-.32.28,2.11,2.11,0,0,0-.24.44,8.93,8.93,0,0,0-.39,1C239.35,276.24,239.18,276.89,238.93,277.53Z"/><path class="cls-8" d="M213.75,268.39a7.72,7.72,0,0,1,.14-1.65,5.32,5.32,0,0,1,.22-.85,1.6,1.6,0,0,1,.55-.76v.26a.37.37,0,0,1-.21-.24,1.23,1.23,0,0,1-.05-.25,3.85,3.85,0,0,1,0-.48c0-.33.05-.64.1-1a15.31,15.31,0,0,1,.39-1.88l-.18,1.88c0,.31,0,.63,0,.93a3.17,3.17,0,0,0,0,.44c0,.13.07.29.1.28s.11,0,.13.09a.14.14,0,0,1-.08.14l-.05,0a1.33,1.33,0,0,0-.43.6,5.49,5.49,0,0,0-.26.78C213.94,267.29,213.85,267.84,213.75,268.39Z"/><path class="cls-8" d="M236.76,277.32a23.57,23.57,0,0,1,1-2.18c.19-.36.4-.72.62-1.07a5.56,5.56,0,0,1,.37-.52,1.58,1.58,0,0,1,.54-.47v.25a.22.22,0,0,1-.18-.16.52.52,0,0,1,0-.17,1.53,1.53,0,0,1,.05-.32c.06-.2.13-.4.2-.59a9.81,9.81,0,0,1,.51-1.15c.35-.76.75-1.51,1.18-2.25-.33.77-.66,1.53-1,2.29q-.22.58-.45,1.14a4.17,4.17,0,0,0-.18.57,1.27,1.27,0,0,0,0,.26c0,.08,0,.13,0,.12v.25a1.42,1.42,0,0,0-.39.36,5.6,5.6,0,0,0-.36.49c-.23.33-.43.68-.63,1Z"/><path class="cls-8" d="M235.88,275.62a17.43,17.43,0,0,1,1.05-1.54c.18-.26.37-.5.57-.74l.32-.36.17-.18a.9.9,0,0,1,.25-.18l0,.26a.33.33,0,0,1-.24-.31.93.93,0,0,1,.06-.37,3.6,3.6,0,0,1,.29-.63,10.37,10.37,0,0,1,.83-1.14c-.22.4-.45.8-.64,1.2-.09.2-.17.4-.24.59a1.48,1.48,0,0,0,0,.27.13.13,0,0,0,.1.12h0a.11.11,0,0,1,0,.17.24.24,0,0,1-.08.09.49.49,0,0,0-.14.11l-.16.15c-.1.11-.2.23-.31.34l-.61.72Z"/><path class="cls-8" d="M234.76,273.22a1.92,1.92,0,0,1,.11-1,1.24,1.24,0,0,1,.3-.48,1.13,1.13,0,0,1,.52-.29l-.05.27a.3.3,0,0,1-.23-.18.43.43,0,0,1,0-.25,1.38,1.38,0,0,1,.15-.46,3.38,3.38,0,0,1,.51-.78c-.09.28-.21.56-.29.82a2.16,2.16,0,0,0-.09.39c0,.13,0,.18.06.19h0a.1.1,0,0,1,.08.15.18.18,0,0,1-.14.11,1,1,0,0,0-.64.55A3.22,3.22,0,0,0,234.76,273.22Z"/><path class="cls-8" d="M234.89,276.3a8.8,8.8,0,0,1,.24-2.25,5,5,0,0,1,.41-1.17,2.45,2.45,0,0,1,.9-1v.24a.24.24,0,0,1-.2-.23.82.82,0,0,1,0-.27,2.75,2.75,0,0,1,.13-.47,7.44,7.44,0,0,1,.41-.91,15.64,15.64,0,0,1,1-1.71l-.83,1.76c-.13.3-.25.6-.35.89a2.63,2.63,0,0,0-.1.43.36.36,0,0,0,0,.18.1.1,0,0,0,0,.07.11.11,0,0,1,.08.16l-.08.08a2.26,2.26,0,0,0-.76.86,6.33,6.33,0,0,0-.43,1.09A15,15,0,0,0,234.89,276.3Z"/><path class="cls-8" d="M217.38,270.73a21.37,21.37,0,0,1,.42-2.32c.09-.37.21-.76.34-1.14.07-.19.14-.38.23-.57a1.39,1.39,0,0,1,.41-.55l.05.24a.22.22,0,0,1-.21-.12.39.39,0,0,1-.06-.17,1.73,1.73,0,0,1,0-.32c0-.21,0-.41.05-.62.06-.41.13-.81.22-1.21.18-.81.38-1.61.63-2.4-.14.81-.29,1.61-.43,2.41-.06.4-.12.8-.17,1.19a4,4,0,0,0,0,.6,1.09,1.09,0,0,0,0,.26c0,.09.06.12,0,.11l0,.24a1.41,1.41,0,0,0-.3.44,4.23,4.23,0,0,0-.23.53c-.14.36-.25.74-.37,1.12Z"/><path class="cls-8" d="M216.06,269.18c.19-.57.42-1.13.66-1.68.12-.28.25-.56.39-.82l.22-.41.13-.2a1.24,1.24,0,0,1,.2-.22l0,.26a.35.35,0,0,1-.31-.26.93.93,0,0,1,0-.37,3.63,3.63,0,0,1,.15-.67,6.05,6.05,0,0,1,.54-1.25c-.12.43-.25.85-.35,1.28a3.51,3.51,0,0,0-.08.62,1.1,1.1,0,0,0,0,.27.14.14,0,0,0,.12.1h0a.12.12,0,0,1,.1.16.21.21,0,0,1-.06.1.69.69,0,0,0-.11.12l-.12.19-.23.38-.42.8Z"/><path class="cls-8" d="M215.23,270a8.67,8.67,0,0,1-.3-2.25,4.52,4.52,0,0,1,.14-1.2,2.16,2.16,0,0,1,.64-1.13l.06.24a.3.3,0,0,1-.26-.2,1.11,1.11,0,0,1-.07-.26,4,4,0,0,1,0-.49,8,8,0,0,1,.19-1,13.67,13.67,0,0,1,.61-1.84c-.14.62-.28,1.25-.42,1.86,0,.31-.1.62-.13.93a3.16,3.16,0,0,0,0,.43.8.8,0,0,0,0,.18c0,.05,0,.06.06.06a.12.12,0,0,1,.11.15.12.12,0,0,1,0,.09,2,2,0,0,0-.55,1,5.61,5.61,0,0,0-.17,1.14A14.4,14.4,0,0,0,215.23,270Z"/><path class="cls-8" d="M227.49,273.68a22.74,22.74,0,0,1,.68-2.27,12.07,12.07,0,0,1,.47-1.12,5,5,0,0,1,.3-.55,1.47,1.47,0,0,1,.46-.51l0,.24a.21.21,0,0,1-.19-.14.64.64,0,0,1,0-.17,1.72,1.72,0,0,1,0-.32,6,6,0,0,1,.11-.61,12.27,12.27,0,0,1,.35-1.18q.39-1.19.9-2.34c-.24.79-.47,1.58-.71,2.36-.1.4-.2.79-.29,1.18a5.72,5.72,0,0,0-.11.57,2.43,2.43,0,0,0,0,.27c0,.09.05.14,0,.11l0,.26a1.51,1.51,0,0,0-.34.39c-.1.17-.2.34-.29.52-.18.36-.34.72-.49,1.09Z"/><path class="cls-8" d="M224.13,272.4a14.75,14.75,0,0,1,1.05-2.2,7.87,7.87,0,0,1,.71-1,3.81,3.81,0,0,1,.44-.46,1.24,1.24,0,0,1,.61-.32l-.09.26a.61.61,0,0,1-.21-.55,1.76,1.76,0,0,1,.13-.56,5,5,0,0,1,.53-1,11.94,11.94,0,0,1,1.38-1.8,22.2,22.2,0,0,0-1.21,1.88,7.18,7.18,0,0,0-.47,1c-.11.31-.17.69,0,.82a.14.14,0,0,1,0,.19l-.09.06h0a1.83,1.83,0,0,0-.86.67,10,10,0,0,0-.72,1C224.91,271,224.52,271.69,224.13,272.4Z"/><path class="cls-8" d="M219.25,268.21a2.17,2.17,0,0,1-.06-1,1.32,1.32,0,0,1,.21-.51,1,1,0,0,1,.47-.35v.27a.34.34,0,0,1-.26-.15.82.82,0,0,1-.06-.25,1.45,1.45,0,0,1,.07-.47A3,3,0,0,1,220,265c-.05.29-.12.58-.15.86a1.73,1.73,0,0,0,0,.39c0,.12,0,.18.1.18h0a.12.12,0,0,1,.1.15.15.15,0,0,1-.11.12.87.87,0,0,0-.54.63A3.54,3.54,0,0,0,219.25,268.21Z"/><path class="cls-8" d="M229.2,274.11a8.71,8.71,0,0,1,.06-2.27,4.86,4.86,0,0,1,.33-1.18,2.4,2.4,0,0,1,.81-1.05v.25a.28.28,0,0,1-.22-.22.5.5,0,0,1,0-.27,2.11,2.11,0,0,1,.09-.49,5.85,5.85,0,0,1,.34-.91,15.35,15.35,0,0,1,.88-1.77c-.24.6-.47,1.2-.69,1.81-.11.3-.21.6-.29.9a2.4,2.4,0,0,0-.07.43.47.47,0,0,0,0,.18c0,.05,0,.06,0,.07a.11.11,0,0,1,.09.15.36.36,0,0,1-.07.1,2.14,2.14,0,0,0-.7.89,6.19,6.19,0,0,0-.34,1.11A14.81,14.81,0,0,0,229.2,274.11Z"/><path class="cls-8" d="M233.8,273.72a3.08,3.08,0,0,1,0-1.28,2.74,2.74,0,0,1,.66-1.3l.08.22a.38.38,0,0,1-.21,0,.26.26,0,0,1-.15-.16.69.69,0,0,1,0-.35,3.26,3.26,0,0,1,.22-.62,6.5,6.5,0,0,1,.66-1.14c-.16.39-.33.79-.47,1.18a4.84,4.84,0,0,0-.15.57,1.28,1.28,0,0,0,0,.22s0,.06.11,0a.11.11,0,0,1,.13.13.1.1,0,0,1,0,.08h0l-.21.25c-.06.09-.11.19-.16.28a2.9,2.9,0,0,0-.25.61A6.18,6.18,0,0,0,233.8,273.72Z"/><path class="cls-8" d="M231.61,274.62a16.28,16.28,0,0,1,.39-2,9.55,9.55,0,0,1,.34-1,4.11,4.11,0,0,1,.25-.52,1.14,1.14,0,0,1,.46-.47l-.09.1a4.32,4.32,0,0,1,.69-1,10.68,10.68,0,0,1,.82-.83,20.21,20.21,0,0,1,1.79-1.52c-.57.54-1.13,1.08-1.67,1.64-.26.27-.51.56-.76.85a4.53,4.53,0,0,0-.62.9.2.2,0,0,1-.09.09.89.89,0,0,0-.3.33,5.14,5.14,0,0,0-.23.47c-.13.32-.26.65-.36,1C232,273.28,231.81,273.94,231.61,274.62Z"/><path class="cls-8" d="M223.34,269.12a2,2,0,0,1,0-.95,1.47,1.47,0,0,1,.24-.51,1,1,0,0,1,.47-.33v.27a.31.31,0,0,1-.26-.16.48.48,0,0,1,0-.26,1.77,1.77,0,0,1,.08-.46,3.7,3.7,0,0,1,.41-.82c-.06.29-.14.57-.18.84a3,3,0,0,0,0,.4c0,.12,0,.18.1.18h0a.11.11,0,0,1,.09.15.19.19,0,0,1-.11.12.88.88,0,0,0-.57.61A3.23,3.23,0,0,0,223.34,269.12Z"/><path class="cls-8" d="M223.68,272.49a9.81,9.81,0,0,1,.07-2.35,6,6,0,0,1,.32-1.21,2.59,2.59,0,0,1,.78-1.09l0,.24a.27.27,0,0,1-.23-.27,1.32,1.32,0,0,1,0-.3,3.38,3.38,0,0,1,.17-.54,7.4,7.4,0,0,1,.44-1,20.42,20.42,0,0,1,1.1-1.93l-.92,2c-.14.34-.28.67-.4,1,0,.16-.1.33-.14.5a.76.76,0,0,0,0,.21c0,.08,0,.08,0,.08a.1.1,0,0,1,.11.12.17.17,0,0,1-.06.11h0a2.37,2.37,0,0,0-.68,1,5.55,5.55,0,0,0-.34,1.14A17.33,17.33,0,0,0,223.68,272.49Z"/><path class="cls-8" d="M220.54,270.43a10.24,10.24,0,0,1,.08-1.83,8.32,8.32,0,0,1,.2-.94c.05-.15.11-.31.17-.46a2.94,2.94,0,0,1,.25-.46l.12.21a.54.54,0,0,1-.22,0,.25.25,0,0,1-.16-.14.74.74,0,0,1-.06-.35,2.78,2.78,0,0,1,.12-.64,6.44,6.44,0,0,1,.48-1.19c-.1.4-.21.81-.28,1.21a4.12,4.12,0,0,0-.07.59.62.62,0,0,0,0,.22s0,0,.12,0a.11.11,0,0,1,.15.11.14.14,0,0,1,0,.09c-.07.13-.15.26-.21.4s-.12.28-.17.43a8.93,8.93,0,0,0-.23.89C220.71,269.2,220.63,269.81,220.54,270.43Z"/><path class="cls-8" d="M221.41,271.25a16,16,0,0,1,.15-2.06,6.32,6.32,0,0,1,.22-1.05,3.8,3.8,0,0,1,.18-.54,1.18,1.18,0,0,1,.4-.51l-.08.1a4.2,4.2,0,0,1,.57-1,10.51,10.51,0,0,1,.72-.9,17.7,17.7,0,0,1,1.59-1.65c-.5.58-1,1.16-1.45,1.76-.23.3-.45.61-.66.91a4.19,4.19,0,0,0-.51.95.14.14,0,0,1-.08.09.85.85,0,0,0-.25.36,3.41,3.41,0,0,0-.18.48q-.14.51-.24,1C221.64,269.87,221.54,270.56,221.41,271.25Z"/><path class="cls-8" d="M202.2,266.71a11.72,11.72,0,0,1,.15-1.76c.05-.29.09-.59.17-.88a6.59,6.59,0,0,1,.27-.86v.13a2.41,2.41,0,0,1-.33-1,4.26,4.26,0,0,1,0-1.07,8.23,8.23,0,0,1,.5-2.07,15.1,15.1,0,0,0-.28,2.07,3.43,3.43,0,0,0,.34,1.91.2.2,0,0,1,0,.13h0c-.09.27-.2.54-.27.82l-.22.85C202.41,265.55,202.3,266.13,202.2,266.71Z"/><path class="cls-8" d="M198.7,265.28a5,5,0,0,1-.22-1.28,3.11,3.11,0,0,1,0-.68,1.61,1.61,0,0,1,.31-.68l.07.24a.52.52,0,0,1-.37-.24,1.33,1.33,0,0,1-.12-.37,2.69,2.69,0,0,1,0-.75,6.56,6.56,0,0,1,.3-1.45c0,.48-.09,1-.1,1.44a3.93,3.93,0,0,0,.06.69c0,.21.12.4.27.4a.12.12,0,0,1,.12.13.15.15,0,0,1,0,.09v0a2.07,2.07,0,0,0-.32,1.14A9.41,9.41,0,0,0,198.7,265.28Z"/><path class="cls-8" d="M212.05,268.78a11.79,11.79,0,0,1-.31-2,7.17,7.17,0,0,1,0-1,2.74,2.74,0,0,1,.09-.55.91.91,0,0,1,.35-.54v.26a.32.32,0,0,1-.21-.23,1.09,1.09,0,0,1-.07-.24,4.15,4.15,0,0,1,0-.49,7.61,7.61,0,0,1,.08-.95,15.16,15.16,0,0,1,.35-1.88c0,.62-.09,1.25-.14,1.87,0,.31,0,.62,0,.93a3.11,3.11,0,0,0,0,.43c0,.13.08.29.11.29a.09.09,0,0,1,.13.08.13.13,0,0,1-.07.13l-.05,0a.66.66,0,0,0-.22.35,3.7,3.7,0,0,0-.08.48,8.61,8.61,0,0,0,0,1C212,267.42,212,268.1,212.05,268.78Z"/><path class="cls-8" d="M184.6,265a8.24,8.24,0,0,1-.34-1.64,4.92,4.92,0,0,1,0-.86,1.39,1.39,0,0,1,.32-.86l.07.26a.37.37,0,0,1-.26-.2.76.76,0,0,1-.13-.23,3.68,3.68,0,0,1-.15-.47,7.78,7.78,0,0,1-.18-.94,15.38,15.38,0,0,1-.16-1.92c.13.63.24,1.26.37,1.87a8.63,8.63,0,0,0,.22.91,3.22,3.22,0,0,0,.14.44c.05.12.15.26.18.25a.11.11,0,0,1,.15.06.14.14,0,0,1,0,.15l-.05.05a1.13,1.13,0,0,0-.24.66,7.31,7.31,0,0,0,0,.81C184.48,263.87,184.54,264.44,184.6,265Z"/><path class="cls-8" d="M209.73,269.06a20.51,20.51,0,0,1,.24-2.32c.07-.39.15-.77.25-1.16a4.49,4.49,0,0,1,.19-.59,1.48,1.48,0,0,1,.36-.57l.07.24a.23.23,0,0,1-.22-.11.43.43,0,0,1-.07-.16,1.19,1.19,0,0,1-.05-.32c0-.21,0-.41,0-.62,0-.4.07-.81.13-1.22.1-.81.25-1.62.43-2.42l-.24,2.42c0,.41-.05.81-.07,1.2,0,.2,0,.4,0,.58a1.08,1.08,0,0,0,.05.27c0,.08.07.12,0,.11l.08.24a1.57,1.57,0,0,0-.27.45c-.07.17-.13.35-.19.55-.11.37-.19.74-.27,1.13C210,267.52,209.88,268.29,209.73,269.06Z"/><path class="cls-8" d="M208.29,267.61a17.92,17.92,0,0,1,.53-1.72c.09-.28.2-.56.32-.84l.2-.42.11-.21a.79.79,0,0,1,.18-.22l.05.26a.37.37,0,0,1-.33-.25.91.91,0,0,1-.06-.36,3.09,3.09,0,0,1,.09-.68,6.68,6.68,0,0,1,.44-1.28c-.09.44-.18.87-.24,1.3a3.39,3.39,0,0,0,0,.63.85.85,0,0,0,.05.25c0,.07.07.1.13.1h0a.13.13,0,0,1,.11.15.17.17,0,0,1-.06.1l-.1.14-.1.18-.2.4L209,266Z"/><path class="cls-8" d="M206.44,265.51a2,2,0,0,1-.18-.95,1.13,1.13,0,0,1,.14-.52.9.9,0,0,1,.42-.4l0,.27a.38.38,0,0,1-.29-.12.89.89,0,0,1-.09-.24,1.47,1.47,0,0,1,0-.47,3.14,3.14,0,0,1,.26-.87c0,.3,0,.58,0,.86a2.29,2.29,0,0,0,0,.39c0,.12.07.17.13.17h0a.11.11,0,0,1,.12.13.15.15,0,0,1-.1.13.9.9,0,0,0-.46.67A3.36,3.36,0,0,0,206.44,265.51Z"/><path class="cls-8" d="M207.54,268.47a8.66,8.66,0,0,1-.48-2.25,4.5,4.5,0,0,1,.05-1.21,2.09,2.09,0,0,1,.55-1.16l.07.24a.32.32,0,0,1-.27-.18.87.87,0,0,1-.08-.26,4.1,4.1,0,0,1,0-.49,7.63,7.63,0,0,1,.12-1,13.09,13.09,0,0,1,.46-1.87l-.27,1.88c0,.31-.06.62-.06.93a2.12,2.12,0,0,0,0,.44.58.58,0,0,0,.05.17c0,.05,0,.06.07.06a.13.13,0,0,1,.12.14.23.23,0,0,1,0,.1,1.84,1.84,0,0,0-.47,1,5,5,0,0,0-.08,1.15A13.38,13.38,0,0,0,207.54,268.47Z"/><path class="cls-8" d="M188.8,266.54a19.6,19.6,0,0,1-.25-2.32,9.29,9.29,0,0,1,0-1.18q0-.3.06-.6a1.3,1.3,0,0,1,.24-.61l.12.22a.26.26,0,0,1-.25-.07.65.65,0,0,1-.1-.15,2,2,0,0,1-.12-.31,6,6,0,0,1-.13-.61,12.1,12.1,0,0,1-.13-1.21c-.07-.82-.09-1.63-.08-2.45l.27,2.42.18,1.19a5.25,5.25,0,0,0,.13.57,1.45,1.45,0,0,0,.1.25c0,.08.1.11.07.1l.13.23a1.1,1.1,0,0,0-.17.47,3.7,3.7,0,0,0-.07.57,11,11,0,0,0,0,1.15C188.77,265,188.79,265.76,188.8,266.54Z"/><path class="cls-8" d="M187.07,265.33a14.76,14.76,0,0,1,.16-1.76c0-.3.09-.59.14-.88l.11-.44.07-.22a.6.6,0,0,1,.12-.24l.11.23a.42.42,0,0,1-.38-.19,1.17,1.17,0,0,1-.14-.35,3.05,3.05,0,0,1,0-.67,6.62,6.62,0,0,1,.16-1.33c0,.44,0,.88,0,1.31a5.36,5.36,0,0,0,.1.62.82.82,0,0,0,.1.25.15.15,0,0,0,.14.08h0c.07,0,.13.05.14.14a.14.14,0,0,1,0,.1s0,.09-.07.15a1.39,1.39,0,0,1-.06.19c0,.14-.07.28-.1.43l-.19.85Z"/><path class="cls-8" d="M186.5,266.3a9.31,9.31,0,0,1-.93-2.14,4.45,4.45,0,0,1-.21-1.2,1.91,1.91,0,0,1,.3-1.22l.12.22a.36.36,0,0,1-.31-.13,1.2,1.2,0,0,1-.13-.25,3.06,3.06,0,0,1-.12-.48,6.45,6.45,0,0,1-.08-1,13.36,13.36,0,0,1,.06-1.9c0,.63.09,1.26.13,1.89a9.26,9.26,0,0,0,.13.92,2.7,2.7,0,0,0,.12.43.68.68,0,0,0,.09.17.1.1,0,0,0,.08,0,.13.13,0,0,1,.14.12.14.14,0,0,1,0,.11,1.81,1.81,0,0,0-.25,1,5,5,0,0,0,.15,1.14A15.88,15.88,0,0,0,186.5,266.3Z"/><path class="cls-8" d="M199.5,267.43a16.47,16.47,0,0,1,0-2.33,9.47,9.47,0,0,1,.12-1.17c0-.2.07-.39.12-.59a1.33,1.33,0,0,1,.31-.6l.09.23a.25.25,0,0,1-.23-.09.43.43,0,0,1-.09-.16,1.18,1.18,0,0,1-.08-.31,4.36,4.36,0,0,1-.07-.62c0-.4,0-.81,0-1.22,0-.81.09-1.63.19-2.45,0,.82,0,1.63,0,2.44,0,.4,0,.8,0,1.19,0,.2,0,.4.07.59s.05.18.07.26.08.12.07.1l.1.23a1.21,1.21,0,0,0-.22.47,3.65,3.65,0,0,0-.13.55,11.16,11.16,0,0,0-.16,1.16C199.63,265.89,199.56,266.66,199.5,267.43Z"/><path class="cls-8" d="M195.85,266.85a14.27,14.27,0,0,1,.38-2.34,6.67,6.67,0,0,1,.39-1.14,2.39,2.39,0,0,1,.3-.54,1.07,1.07,0,0,1,.49-.42v.26a.67.67,0,0,1-.36-.49,2.18,2.18,0,0,1,0-.57,4.92,4.92,0,0,1,.21-1.08,11.35,11.35,0,0,1,.83-2,19.56,19.56,0,0,0-.64,2.06,7.48,7.48,0,0,0-.16,1c0,.32,0,.7.26.79a.13.13,0,0,1,.06.17.16.16,0,0,1-.07.09h0a1.73,1.73,0,0,0-.64.81,6.64,6.64,0,0,0-.4,1.08C196.2,265.31,196,266.08,195.85,266.85Z"/><path class="cls-8" d="M189.9,263.72a2.08,2.08,0,0,1-.33-.92,1,1,0,0,1,.05-.53.87.87,0,0,1,.35-.44l.08.26a.32.32,0,0,1-.29-.1.62.62,0,0,1-.14-.23,1.83,1.83,0,0,1-.07-.46,3.35,3.35,0,0,1,.12-.89c0,.3.07.58.11.86a1.93,1.93,0,0,0,.09.38c0,.12.1.17.15.16h0a.13.13,0,0,1,.14.13.13.13,0,0,1-.07.14.76.76,0,0,0-.35.71A3.84,3.84,0,0,0,189.9,263.72Z"/><path class="cls-8" d="M201.3,267.5a9.46,9.46,0,0,1-.62-2.22,4.72,4.72,0,0,1,0-1.19,2.16,2.16,0,0,1,.48-1.2l.09.24a.33.33,0,0,1-.29-.16,1,1,0,0,1-.09-.25,2.12,2.12,0,0,1-.05-.5,6.19,6.19,0,0,1,.06-1,13.48,13.48,0,0,1,.34-1.88c-.06.62-.1,1.26-.15,1.88,0,.32,0,.63,0,.93a3.11,3.11,0,0,0,.06.44,1.62,1.62,0,0,0,.06.17s0,.05.07.05a.13.13,0,0,1,.14.13.23.23,0,0,1,0,.1,1.89,1.89,0,0,0-.41,1,4.92,4.92,0,0,0,0,1.15A14.88,14.88,0,0,0,201.3,267.5Z"/><path class="cls-8" d="M205.66,266.2a3.38,3.38,0,0,1-.37-1.24,2.58,2.58,0,0,1,.24-1.4l.15.2a.37.37,0,0,1-.21,0,.35.35,0,0,1-.19-.12.65.65,0,0,1-.11-.34,2.35,2.35,0,0,1,0-.65,6.59,6.59,0,0,1,.3-1.24c0,.42-.08.84-.1,1.24a2.85,2.85,0,0,0,0,.59.44.44,0,0,0,.07.22s0,0,.12,0a.13.13,0,0,1,.17.1.28.28,0,0,1,0,.09h0a1.57,1.57,0,0,0-.12.3,2.63,2.63,0,0,0-.09.3,3.39,3.39,0,0,0-.05.64A6.13,6.13,0,0,0,205.66,266.2Z"/><path class="cls-8" d="M203.8,267.53a15.65,15.65,0,0,1-.24-2.06,7.65,7.65,0,0,1,0-1.07,3.65,3.65,0,0,1,.08-.55,1,1,0,0,1,.31-.55l-.06.11a4.24,4.24,0,0,1,.37-1.09c.17-.34.36-.66.55-1a20.61,20.61,0,0,1,1.27-1.83c-.38.63-.76,1.27-1.11,1.92-.18.32-.34.66-.49,1a4,4,0,0,0-.33,1,.14.14,0,0,1-.06.11.8.8,0,0,0-.19.38,4.37,4.37,0,0,0-.09.5c0,.34-.05.69-.05,1C203.77,266.13,203.79,266.83,203.8,267.53Z"/><path class="cls-8" d="M194.13,263.83a2,2,0,0,1-.3-.92,1.09,1.09,0,0,1,.08-.53.83.83,0,0,1,.37-.43l.07.26a.3.3,0,0,1-.29-.1.67.67,0,0,1-.13-.23,1.54,1.54,0,0,1-.05-.47,3.4,3.4,0,0,1,.16-.89c0,.3,0,.59.07.87a2.14,2.14,0,0,0,.07.38c0,.12.09.17.15.16h0a.12.12,0,0,1,.13.12.12.12,0,0,1-.07.14.78.78,0,0,0-.38.71A3.29,3.29,0,0,0,194.13,263.83Z"/><path class="cls-8" d="M195.44,267a9.66,9.66,0,0,1-.61-2.29,5.66,5.66,0,0,1,0-1.24,2.21,2.21,0,0,1,.44-1.21l.1.22a.3.3,0,0,1-.3-.22,1.14,1.14,0,0,1-.06-.3,3.25,3.25,0,0,1,0-.54c0-.36.08-.71.14-1.07a21.07,21.07,0,0,1,.52-2.08c-.11.7-.21,1.4-.32,2.1,0,.35-.08.7-.1,1.05a2.75,2.75,0,0,0,0,.5,1.57,1.57,0,0,0,0,.23c0,.05.05.05.06.05a.12.12,0,0,1,.14.1.11.11,0,0,1,0,.11v0a2.12,2.12,0,0,0-.38,1.05,5.82,5.82,0,0,0,0,1.18A17.08,17.08,0,0,0,195.44,267Z"/><path class="cls-8" d="M191.78,265.67a9.75,9.75,0,0,1-.43-1.81,4.87,4.87,0,0,1-.08-.95,3.85,3.85,0,0,1,0-.48,2.19,2.19,0,0,1,.12-.49l.17.18a.36.36,0,0,1-.21,0,.3.3,0,0,1-.2-.1.84.84,0,0,1-.16-.33,2.86,2.86,0,0,1-.06-.65,5.7,5.7,0,0,1,.13-1.25c0,.41,0,.83.07,1.24a3.7,3.7,0,0,0,.1.58.69.69,0,0,0,.1.21.12.12,0,0,0,.13,0,.14.14,0,0,1,.18.08.34.34,0,0,1,0,.1,1.43,1.43,0,0,0-.1.42,3.42,3.42,0,0,0,0,.45,7.16,7.16,0,0,0,0,.92C191.59,264.44,191.69,265.05,191.78,265.67Z"/><path class="cls-8" d="M192.87,266.28a16.63,16.63,0,0,1-.45-2,7.6,7.6,0,0,1-.09-1.07,3.45,3.45,0,0,1,0-.55,1,1,0,0,1,.25-.57l0,.11a4.08,4.08,0,0,1,.25-1.11c.13-.34.28-.68.44-1a17.25,17.25,0,0,1,1.07-1.93c-.31.67-.62,1.33-.9,2-.14.34-.26.68-.38,1a3.88,3.88,0,0,0-.22,1,.16.16,0,0,1-.05.11.71.71,0,0,0-.14.39,2.74,2.74,0,0,0,0,.5c0,.34,0,.69.06,1C192.7,264.9,192.79,265.59,192.87,266.28Z"/><path class="cls-7" d="M134,259.8s-2.45.09-1.43,3.42c-3.06,1.62-2.44,5.83-2.44,5.83s-3.44,2.79-2.81,6.75a8.26,8.26,0,0,0-1.89,4.53s22.23-15.67,57.37-15.31,60.38,16.52,60.38,16.52.56-1.78-2-4.63c.59-4-2.86-6.44-2.86-6.44a7.28,7.28,0,0,0-2.52-5.7c.51-2.54-1.09-2.48-1.09-2.48"/><path class="cls-7" d="M182.76,247.38C147.62,247,134,259.8,134,259.8"/><path class="cls-7" d="M234.62,262.29s-16.72-14.54-51.86-14.91"/><path class="cls-4" d="M99.32,351a19.58,19.58,0,0,0-1,6.15c40.14,10.07,28.48,32.63,79.05,30.54,1-.25,1.66-1.54,2.37-2.69a18.59,18.59,0,0,0,1.18-2.32C132.21,384.33,137.49,361.19,99.32,351Z"/><path class="cls-4" d="M188,382.68a15.5,15.5,0,0,0,1.13,2.31c.72,1.15,1.33,2.44,2.38,2.69,50.57,2.09,38.9-20.47,79-30.54a19.7,19.7,0,0,0-1-6.2C231.25,361.11,236.54,384.26,188,382.68Z"/><path class="cls-9" d="M183.48,287.55c45.64,0,67.3,21.15,76.93,36.16-7-20.1-16.72-41.26-17.27-42.17,0,0-25.73-16.46-60.21-16.46s-57.24,15.53-57.24,15.53-9.5,21.39-16.5,41.06C118.9,306.85,139.88,287.55,183.48,287.55Z"/><path class="cls-9" d="M269.24,349.87c-1.43-4.85-3.83-11.12-6.11-18.11-.86-2.63-1.78-5.33-2.72-8.05-9.63-15-31.29-36.16-76.93-36.16-43.6,0-64.58,19.3-74.29,34.12-1.21,3.42-2.38,6.83-3.45,10.09-2.27,7-4.67,13.26-6.11,18.11-.12.4-.21.74-.31,1.12l.14,0c38,10.23,32.81,33.3,81.46,31.64,3.71-8.48,4.37-23.64,4.4-29.21,0,5.57-.78,20.73,2.68,29.22,48.46,1.57,43.28-21.49,81.37-31.68l.17-.06C269.44,350.58,269.36,350.25,269.24,349.87Z"/><path class="cls-10" d="M182.93,276.42l.39,61.44-.47.44s-.15,0-.23.06l-.34.11-.68.3c-.45.21-.9.45-1.35.7-.88.51-1.76,1-2.61,1.62-1.71,1.14-3.42,2.33-5.06,3.56a7.79,7.79,0,0,0-1.07,1,1.43,1.43,0,0,0-.47,1c0,.24.33.52.74.71a6.38,6.38,0,0,0,1.36.45,38.2,38.2,0,0,0,6.09.61c2.06.07,4.13.07,6.21.06h3.11l1.57,0a4.53,4.53,0,0,1,1.65.26,1.18,1.18,0,0,1,.68.76,1.63,1.63,0,0,1-.08.94,5.66,5.66,0,0,1-.84,1.41,19.47,19.47,0,0,1-2.15,2.29,58.61,58.61,0,0,1-4.84,3.94,0,0,0,1,1-.06-.08,56.78,56.78,0,0,0,4.6-4.16,20.1,20.1,0,0,0,2-2.32,4.87,4.87,0,0,0,.71-1.27,1.14,1.14,0,0,0,.05-.59.57.57,0,0,0-.36-.33,4,4,0,0,0-1.4-.15l-1.54,0-3.11.07c-2.08.05-4.16.09-6.24.06a32,32,0,0,1-6.29-.57,8.16,8.16,0,0,1-1.58-.53,3,3,0,0,1-.77-.51,1.62,1.62,0,0,1-.52-1,2.32,2.32,0,0,1,.71-1.77,7.92,7.92,0,0,1,1.21-1.12c1.69-1.26,3.38-2.46,5.14-3.59.88-.56,1.77-1.11,2.7-1.61q.69-.39,1.41-.72c.25-.11.5-.22.76-.31a3.76,3.76,0,0,1,.4-.13,1.83,1.83,0,0,1,.53-.09l-.47.44.39-61.44a.05.05,0,1,1,.1,0Z"/><polyline class="cls-11" points="185.91 319.61 185.44 318.48 184.98 319.61 184.52 318.48 184.06 319.61"/><line class="cls-11" x1="184.06" y1="319.61" x2="184.06" y2="318.48"/><polyline class="cls-11" points="187.75 319.61 187.29 318.48 186.83 319.61 186.37 318.48 185.91 319.61"/><line class="cls-11" x1="187.75" y1="319.61" x2="187.75" y2="318.48"/><line class="cls-2" x1="184.48" y1="320.58" x2="184.49" y2="323.44"/><line class="cls-2" x1="187.12" y1="320.57" x2="187.13" y2="323.43"/><line class="cls-2" x1="184.51" y1="326.3" x2="184.52" y2="329.17"/><line class="cls-2" x1="187.14" y1="326.29" x2="187.16" y2="329.16"/><line class="cls-2" x1="184.53" y1="332.03" x2="184.54" y2="334.89"/><line class="cls-2" x1="187.17" y1="332.02" x2="187.18" y2="334.88"/><line class="cls-2" x1="184.55" y1="337.76" x2="184.56" y2="340.62"/><line class="cls-2" x1="187.19" y1="337.75" x2="187.2" y2="340.61"/><line class="cls-2" x1="184.58" y1="343.48" x2="184.59" y2="346.35"/><line class="cls-2" x1="187.21" y1="343.47" x2="187.23" y2="346.33"/><line class="cls-2" x1="184.6" y1="349.21" x2="184.61" y2="352.07"/><line class="cls-2" x1="187.24" y1="349.2" x2="187.25" y2="352.06"/><line class="cls-2" x1="184.62" y1="354.94" x2="184.64" y2="357.8"/><line class="cls-2" x1="187.26" y1="354.92" x2="187.27" y2="357.79"/><polyline class="cls-11" points="186.01 329.76 185.56 328.63 185.09 329.76 184.63 328.63 184.17 329.76"/><line class="cls-11" x1="184.17" y1="329.76" x2="184.17" y2="328.63"/><polyline class="cls-11" points="187.86 329.76 187.4 328.63 186.94 329.76 186.48 328.63 186.01 329.76"/><line class="cls-11" x1="187.86" y1="329.76" x2="187.86" y2="328.63"/><path class="cls-2" d="M109.31,323.82c.47-.82,1-1.63,1.52-2.42"/><path class="cls-2" d="M112.49,319.07c.57-.76,1.17-1.5,1.77-2.24"/><path class="cls-2" d="M116.14,314.68c.64-.71,1.3-1.4,2-2.07"/><path class="cls-2" d="M120.17,310.62c.69-.66,1.42-1.27,2.13-1.9"/><line class="cls-2" x1="124.52" y1="306.9" x2="126.8" y2="305.18"/><line class="cls-2" x1="129.15" y1="303.55" x2="131.56" y2="302.01"/><path class="cls-2" d="M134,300.56c.82-.49,1.68-.9,2.52-1.35"/><path class="cls-2" d="M139.1,297.94c.86-.41,1.72-.83,2.61-1.18"/><line class="cls-2" x1="144.35" y1="295.66" x2="147.03" y2="294.67"/><path class="cls-2" d="M149.74,293.76c.91-.29,1.81-.59,2.74-.82"/><line class="cls-2" x1="155.24" y1="292.18" x2="158.02" y2="291.54"/><line class="cls-2" x1="160.82" y1="290.96" x2="163.64" y2="290.45"/><path class="cls-2" d="M166.47,290.05c.94-.13,1.88-.29,2.83-.36"/><path class="cls-2" d="M172.15,289.41c.95-.1,1.9-.14,2.85-.19"/><path class="cls-2" d="M177.86,289.06c.95,0,1.91,0,2.86-.06"/><line class="cls-2" x1="183.58" y1="288.97" x2="186.44" y2="289.03"/><line class="cls-2" x1="189.3" y1="289.11" x2="192.15" y2="289.29"/><line class="cls-2" x1="195" y1="289.53" x2="197.84" y2="289.83"/><path class="cls-2" d="M200.67,290.23c1,.15,1.89.27,2.83.44"/><path class="cls-2" d="M206.31,291.22c.93.17,1.86.39,2.79.62"/><line class="cls-2" x1="211.88" y1="292.52" x2="214.62" y2="293.31"/><path class="cls-2" d="M217.35,294.17c.9.31,1.81.59,2.7.93"/><path class="cls-2" d="M222.72,296.13c.89.34,1.76.74,2.63,1.11"/><path class="cls-2" d="M228,298.44c.86.42,1.73.8,2.57,1.27"/><line class="cls-2" x1="233.04" y1="301.06" x2="235.5" y2="302.5"/><path class="cls-2" d="M237.92,304c.81.5,1.58,1.07,2.37,1.61"/><path class="cls-2" d="M242.6,307.32c.77.56,1.51,1.16,2.25,1.76"/><path class="cls-2" d="M247,310.92c.73.61,1.42,1.27,2.12,1.91"/><path class="cls-2" d="M251.22,314.82c.67.68,1.33,1.37,2,2.06"/><path class="cls-2" d="M255.1,319c.62.72,1.22,1.47,1.81,2.21"/><path class="cls-2" d="M258.63,323.52c.55.78,1.09,1.56,1.6,2.37"/></svg>