<svg id="圖層_1" data-name="圖層 1" xmlns="http://www.w3.org/2000/svg" viewBox="0 0 324.55 737.66"><defs><style>.cls-1,.cls-13,.cls-4,.cls-8{fill:none;}.cls-2{fill:#252641;}.cls-11,.cls-12,.cls-13,.cls-2,.cls-3,.cls-4,.cls-6,.cls-7,.cls-8{stroke:#231815;}.cls-11,.cls-12,.cls-13,.cls-2,.cls-3,.cls-4,.cls-8{stroke-linecap:round;}.cls-11,.cls-12,.cls-13,.cls-2,.cls-3,.cls-7,.cls-8{stroke-linejoin:round;}.cls-3{fill:#f8f1e3;}.cls-4,.cls-6{stroke-miterlimit:10;}.cls-5{fill:#595757;}.cls-6,.cls-7,.cls-9{fill:#fff;}.cls-10{fill:#231815;}.cls-11{fill:#cdc1d1;}.cls-12{fill:#e4d3d4;}.cls-13{stroke-width:0.5px;}</style></defs><path class="cls-1" d="M97.43,410.77a36.49,36.49,0,0,0,2.81,4.53L99,413.4C98.41,412.43,97.89,411.56,97.43,410.77Z"/><path class="cls-2" d="M112,202.15c0,11.59.33,21.86,1,29,.1.92.2,1.8.3,2.61a13.36,13.36,0,0,0,.34,2.26c.12.68.24-.61.38,1.89.13,1.42.28,2.53.43,1.48.15-.5.31,1.86.48,1.07.17.37.35,1.46.52.61.55-1,1.19,4.62,1.92,1.11.74,2,1.56.2,2.48,1,.91,2.41,1.93,1.77,3,1a14.14,14.14,0,0,0,3.58.91c.43.4.87.11,1.32.28a2.88,2.88,0,0,0,1.37.28c.47,0,.95-.41,1.44.43.48.28,1-.05,1.49.1.5-.51,1,0,1.54.25.53.08,1.07-.14,1.61.25a4,4,0,0,0,1.67.35c.56-.66,1.14-.41,1.73.1.58,0,1.17-.29,1.78.19.6,0,1.21-.2,1.84.24.62-1,1.25.53,1.89.09.64.34,1.29-.1,2,.29l2.94.26c.91.07,1.84.12,2.78.2.94.86,1.9.54,2.88.2,1,0,2,1.12,3,.18,1,.47,2,1.41,3.06.15,1.05.12,2.1.06,3.17.14,1.07-.36,2.16.08,3.26.11q2.76.09,5.64.15l2.92.05a2.85,2.85,0,0,1,3,0c1-.36,2-.78,3.05,0,1,.16,2.06-.33,3.11,0a11.33,11.33,0,0,1,2.09-.09,4.77,4.77,0,0,1,2.05-.15,3.12,3.12,0,0,1,2,.21,1.61,1.61,0,0,1,2,0c.65-.3,1.28-.71,1.92,0,.63-.56,1.25-.87,1.87,0,2.11.57,4.14-.2,6.09-.19,1.95-1.07,3.83-.53,5.62-.27,1.8-.63,3.52-1.39,5.17-.32,1.65-.25,3.22-.74,4.72-.39,1.51-.68,2.95,0,4.31-.43,1.37-.15,2.68-.31,3.92-.47q2.47-.34,4.62-.69c1.44.75,2.77-.64,4-.74,1.23-2,2.38,2,3.43-.76,1,.93,2,.61,2.88-.77.89-1.15,1.68,1.14,2.41-.76.73-1,1.38-.72,2-.74.18-.15.35-1.47.5-.45.15.22.31-2.31.45-.89.14-.63.28-.75.4-1.31.13.86.24-1.08.36-1.71s.21-1.33.31-2.09c.95-7.31,1.27-20.12,1.22-34.81-19.28-.39-48.12-1.08-69.13-2.11C159.72,202,130.48,202.29,112,202.15Z"/><path class="cls-3" d="M210.91,17.05a5.44,5.44,0,0,0-2.41-3.84S208.21,11,180.08,11,150,13.21,150,13.21a18,18,0,0,0-1.71,4.14c2.68-1,10.82-2.93,32.15-2.93C199.67,14.42,207.74,16,210.91,17.05Z"/><path class="cls-2" d="M209.32,23.5c1.54-2.75,1.83-4.87,1.59-6.45-3.17-1-11.24-2.63-30.5-2.63-21.33,0-29.47,2-32.15,2.93a13.08,13.08,0,0,0,0,7.56c-6.66,7.14-16.64,20.48-16.64,20.48s4.28,30.89,50.2,30.89,47.76-30.89,47.76-30.89C224,39.49,221,35.45,209.32,23.5Z"/><path class="cls-3" d="M90.23,282.12s-9,1.48-7.75,10.37A15,15,0,0,0,79,298.07a17.4,17.4,0,0,0-11.71,4.82c-5.29,5.08-9.72-39.54-6.2-39.14,4.46-1.77,10.34-1.18,23.51-3.46C88.26,262.71,90.23,282.12,90.23,282.12Z"/><path class="cls-4" d="M80.24,291.3a10.64,10.64,0,0,1,.17-2.58"/><path class="cls-4" d="M81.23,286.27a11.44,11.44,0,0,1,1.42-2.15"/><path class="cls-4" d="M84.5,282.31a13.5,13.5,0,0,1,2.17-1.42"/><path class="cls-4" d="M77.67,294.46a16.76,16.76,0,0,1,1.77-2.17"/><path class="cls-4" d="M66.53,300.17a17.25,17.25,0,0,1,2.87-1.91"/><path class="cls-4" d="M72.58,296.89A32.07,32.07,0,0,1,75.9,296"/><path class="cls-3" d="M89.54,259.82l-.74,4.6s-13.67,6.94-32.53,3.15a34.92,34.92,0,0,1-.64-4.7C69.07,265.91,84.13,261.63,89.54,259.82Z"/><path class="cls-2" d="M105.79,55.78c10,23.75,10.38,56.93,10.38,56.93L89.54,259.82c-5.41,1.81-20.47,6.09-33.91,3.05C52.73,229.18,58.62,72.94,105.79,55.78Z"/><path class="cls-3" d="M267.33,281.82s9,1.48,7.75,10.37a14.79,14.79,0,0,1,3.49,5.58,17.44,17.44,0,0,1,11.71,4.83c5.3,5.07,9.72-39.55,6.2-39.15C292,261.68,286.14,262.27,273,260,269.3,262.42,267.33,281.82,267.33,281.82Z"/><path class="cls-4" d="M277.32,291a9.73,9.73,0,0,0-.17-2.58"/><path class="cls-4" d="M276.33,286a11.2,11.2,0,0,0-1.42-2.16"/><path class="cls-4" d="M273.06,282a12.8,12.8,0,0,0-2.17-1.41"/><path class="cls-4" d="M279.9,294.16a17.71,17.71,0,0,0-1.78-2.17"/><path class="cls-4" d="M291,299.87a17.34,17.34,0,0,0-2.88-1.91"/><path class="cls-4" d="M285,296.6a29.92,29.92,0,0,0-3.33-.93"/><path class="cls-3" d="M268,259.52l.74,4.6s13.67,6.94,32.52,3.15a33.4,33.4,0,0,0,.64-4.69C288.49,265.61,273.44,261.33,268,259.52Z"/><path class="cls-2" d="M251.77,55.49c-10.05,23.75-10.38,56.92-10.38,56.92L268,259.52c5.41,1.81,20.46,6.09,33.9,3.06C304.84,228.88,298.94,72.64,251.77,55.49Z"/><path class="cls-3" d="M184.2,38.71c14.54,0,22.62-10.54,26.37-17.49,1.1-5.41-2.32-6.68-2.32-6.68s-4.76,20.62-26.45,19.92-32.08-19.92-32.08-19.92a22.59,22.59,0,0,0-1.9,5.45C151.64,26,162.32,38.73,184.2,38.71Z"/><path class="cls-2" d="M209.35,24.89a17,17,0,0,0,1.22-3.67c-3.75,7-11.83,17.48-26.37,17.49C162.32,38.73,151.64,26,147.82,20a10.46,10.46,0,0,0,.42,6.31c-6.66,7.14-16.64,20.48-16.64,20.48s4.28,30.89,50.2,30.89,47.76-30.89,47.76-30.89C224,40.89,221.06,36.85,209.35,24.89Z"/><path class="cls-2" d="M157.25,64.19C139.3,57.85,130.87,46.1,130.87,46.1S119.53,47.24,105,56.27c10.09,29.93,9.52,55,9.52,55l-.3,6.3C123.05,93,144,74.17,157.25,64.19Z"/><path class="cls-2" d="M256.52,56.69c-15.61-6.25-27.69-10.59-27.69-10.59S222,57.45,205.36,63.86c12.71,9.67,32,27.17,41.22,49.88-.06-1.31-.09-2-.09-2S243,83.65,256.52,56.69Z"/><path class="cls-3" d="M160.31,65.18c-1.05-.31-2.08-.64-3.06-1-13.24,10-34.2,28.82-43,53.4-.09,2-.2,4.45-.32,7.23C121.85,96.66,146.42,75.35,160.31,65.18Z"/><path class="cls-3" d="M246.89,120.25c-.14-2.83-.24-5-.31-6.51C237.36,91,218.07,73.53,205.36,63.86c-1,.36-1.94.71-3,1C215.76,74.81,238.09,94.44,246.89,120.25Z"/><path class="cls-5" d="M246.25,242.22a5.49,5.49,0,0,1-.76-.6c-.11-.09-.21-.21-.32-.32a4.09,4.09,0,0,1-.33-.38c-.09-.15-.2-.28-.3-.43a2.53,2.53,0,0,1-.28-.47l-.27-.47a3.3,3.3,0,0,1-.19-.49,4.64,4.64,0,0,1-.12-.47,2.09,2.09,0,0,1,0-.43,4.57,4.57,0,0,1,.06-.89h.05a4.78,4.78,0,0,1,.35.82,3.57,3.57,0,0,0,.14.38c0,.14.11.28.16.43a4.94,4.94,0,0,0,.13.48l.18.47a2.4,2.4,0,0,0,.21.46l.24.45c.08.14.19.27.27.4a2.8,2.8,0,0,0,.25.35,4.82,4.82,0,0,0,.61.67Z"/><path class="cls-5" d="M242.75,239.33s.13,0,.15,0a.32.32,0,0,1,0,.14l-.09.23c-.06.16-.12.31-.17.47a5.2,5.2,0,0,0-.19,1,6.17,6.17,0,0,0,.12,2l.14.58-.38-.49a4.32,4.32,0,0,1-.45-.76l-.35-.78c-.21-.52-.42-1-.62-1.57-.38-1.06-.75-2.12-1.1-3.18a33,33,0,0,1-.85-3.25c-.12-.55-.22-1.09-.3-1.65a13.3,13.3,0,0,1-.15-1.66h0c.11.54.25,1.08.4,1.62l.44,1.61.93,3.2c.3,1.07.62,2.14,1,3.2.18.53.37,1,.56,1.58l.32.77a5,5,0,0,0,.38.73l-.24.09a6,6,0,0,1,0-2,6.62,6.62,0,0,1,.26-1c.06-.16.13-.32.19-.47l.1-.23a.22.22,0,0,0,0-.1s0,0-.07,0Z"/><path class="cls-5" d="M238.92,244.46s-.35-.78-.8-2-1-2.82-1.41-4.47c-.21-.81-.41-1.65-.55-2.43,0-.4-.1-.78-.14-1.14s-.05-.71-.06-1,0-.6,0-.86a4,4,0,0,1,.05-.66c0-.37.07-.57.07-.57h0s0,.22.05.58c0,.18,0,.4.07.65s.07.54.11.85.09.64.14,1,.13.73.19,1.11c.13.77.27,1.6.44,2.42.35,1.65.81,3.28,1.17,4.5s.66,2,.66,2Z"/><path class="cls-5" d="M230.53,245.08s.09-.87.14-2.18c0-.65,0-1.41,0-2.23s0-1.69-.1-2.56c0-.43-.08-.87-.14-1.28s-.11-.85-.17-1.25-.13-.79-.18-1.15-.15-.71-.22-1a5.61,5.61,0,0,0-.23-.86,5,5,0,0,0-.21-.65l-.23-.56.05,0,.34.52.17.28c.06.1.1.22.16.34a6.39,6.39,0,0,1,.35.86,10.81,10.81,0,0,1,.31,1c.09.37.17.77.23,1.18s.12.84.14,1.27.05.87.06,1.31c0,.88,0,1.76,0,2.58s-.08,1.58-.15,2.24c-.13,1.3-.27,2.17-.27,2.17Z"/><path class="cls-5" d="M229.56,243.71a7.52,7.52,0,0,1-.45-.62c-.13-.19-.26-.43-.4-.67s-.13-.27-.2-.4l-.18-.42a7.19,7.19,0,0,1-.3-.85c0-.14,0-.28-.05-.42a1.54,1.54,0,0,1,0-.37,3.07,3.07,0,0,1,.18-.75h0a3.65,3.65,0,0,1,.2.72c0,.11.07.23.1.34s.06.25.08.38a3.28,3.28,0,0,0,.08.41l.08.42.13.41a4,4,0,0,0,.13.41c.1.25.18.5.28.7a7.07,7.07,0,0,0,.33.68Z"/><path class="cls-5" d="M224.34,235.28a19.27,19.27,0,0,1,.81,2.47,22.29,22.29,0,0,1,.51,2.56c.06.43.1.87.14,1.3s0,.87,0,1.31c0,.21,0,.44,0,.65s0,.44-.05.66,0,.43-.09.65l-.11.66-.33-.19a3.22,3.22,0,0,0,.82-1.34,9.13,9.13,0,0,0,.39-1.56,32.11,32.11,0,0,0,.31-3.26c.05-1.09.09-2.19.09-3.28l0-3.3h.05c.15,1.1.23,2.2.3,3.3s.1,2.2.06,3.31a19.49,19.49,0,0,1-.36,3.31,8.61,8.61,0,0,1-.46,1.63,3.6,3.6,0,0,1-1,1.47l-.45.38.12-.56.13-.62c0-.21.06-.43.1-.64s0-.42.07-.64,0-.42,0-.64c0-.43,0-.85,0-1.29s0-.85-.09-1.28a20.09,20.09,0,0,0-.42-2.56,18,18,0,0,0-.71-2.48Z"/><path class="cls-5" d="M233.17,233.05c.18.44.32.89.46,1.34s.25.91.35,1.38a17.32,17.32,0,0,1,.39,2.8,13,13,0,0,1-.16,2.85,7,7,0,0,1-.4,1.4,3.47,3.47,0,0,1-.83,1.25l-.34-.26a3.24,3.24,0,0,0,.73-1.71,3.68,3.68,0,0,0,0-.47,1.92,1.92,0,0,0-.11-.46,2.49,2.49,0,0,0-.22-.43,2.86,2.86,0,0,0-.3-.41,4.31,4.31,0,0,1,.37.37,2.09,2.09,0,0,1,.29.42,1.62,1.62,0,0,1,.17.48,1.79,1.79,0,0,1,.07.51A3.51,3.51,0,0,1,233,244l-.33-.26a3.6,3.6,0,0,0,.66-1.12,6.56,6.56,0,0,0,.34-1.32,14.13,14.13,0,0,0,.19-2.76,26,26,0,0,0-.2-2.77C233.53,234.89,233.37,234,233.17,233.05Z"/><path class="cls-5" d="M223.79,245.86a6.68,6.68,0,0,1-.51-.75,3.24,3.24,0,0,1-.21-.38,2.44,2.44,0,0,1-.2-.43c-.07-.15-.13-.31-.19-.47a3.39,3.39,0,0,1-.17-.51l-.14-.52a3.1,3.1,0,0,1-.09-.5c0-.17,0-.33,0-.49a2.72,2.72,0,0,1,0-.42,5.22,5.22,0,0,1,.23-.86h0a4.93,4.93,0,0,1,.16.87,1.9,1.9,0,0,0,.05.4l.06.45a4.15,4.15,0,0,0,0,.49l.07.5a2.81,2.81,0,0,0,.09.49c.05.16.09.32.13.48s.11.3.15.43.09.29.14.4a5.69,5.69,0,0,0,.39.78Z"/><path class="cls-5" d="M221.28,242.38s.12,0,.14.06a.39.39,0,0,1,0,.13l-.12.22a4.78,4.78,0,0,0-.23.45,5,5,0,0,0-.33.92,6.24,6.24,0,0,0-.17,2l0,.59-.28-.53a4.57,4.57,0,0,1-.31-.82l-.21-.81-.38-1.64c-.22-1.09-.42-2.18-.61-3.28a30.66,30.66,0,0,1-.38-3.32c0-.55-.06-1.11-.05-1.67a10.34,10.34,0,0,1,.11-1.67h0c0,.56.09,1.11.15,1.66l.2,1.64.44,3.29c.13,1.11.28,2.2.47,3.29l.31,1.63.18.82a4.23,4.23,0,0,0,.25.76l-.24.06a6.58,6.58,0,0,1,.27-2,6.26,6.26,0,0,1,.38-.93c.09-.15.17-.3.26-.44l.13-.21s0-.07,0-.1,0,0-.07,0Z"/><path class="cls-5" d="M217,247s-.24-.81-.55-2-.63-2.89-.87-4.57c-.12-.84-.22-1.68-.27-2.47,0-.4,0-.79,0-1.15s0-.71.06-1,.08-.61.12-.87a3.39,3.39,0,0,1,.13-.65c.09-.37.15-.57.15-.57h0s0,.21,0,.58c0,.19,0,.41,0,.66v.86c0,.31,0,.65,0,1s0,.73.05,1.12c0,.78.07,1.62.15,2.46.15,1.66.42,3.33.64,4.57s.41,2.07.41,2.07Z"/><path class="cls-5" d="M208.87,246.94s.15-.86.3-2.16c.08-.66.15-1.42.22-2.23s.1-1.69.1-2.56c0-.43,0-.87,0-1.29s0-.85-.07-1.25-.07-.8-.09-1.17a10,10,0,0,0-.13-1,6.33,6.33,0,0,0-.16-.88,3.15,3.15,0,0,0-.17-.66l-.16-.58,0,0,.3.54a2.57,2.57,0,0,1,.15.29c0,.11.09.23.13.36a5.24,5.24,0,0,1,.28.87,9.88,9.88,0,0,1,.22,1.06,8.63,8.63,0,0,1,.14,1.19c0,.42,0,.84,0,1.28s0,.87,0,1.31c-.05.88-.14,1.76-.24,2.57s-.21,1.58-.33,2.23c-.23,1.29-.43,2.14-.43,2.14Z"/><path class="cls-5" d="M208,245.5a7.31,7.31,0,0,1-.39-.64,7.59,7.59,0,0,1-.35-.7c-.06-.12-.11-.27-.16-.4s-.1-.29-.16-.43a8,8,0,0,1-.23-.87c0-.14,0-.28,0-.42a2.23,2.23,0,0,1,0-.37,3.45,3.45,0,0,1,.24-.74H207a4.28,4.28,0,0,1,.15.73,2.45,2.45,0,0,0,.06.34c0,.12,0,.25.06.38a3.29,3.29,0,0,0,0,.42l0,.42.1.43a2.73,2.73,0,0,0,.1.41c.08.26.15.51.22.72.15.42.27.69.27.69Z"/><path class="cls-5" d="M203.42,236.76a20.27,20.27,0,0,1,.65,2.52,22.79,22.79,0,0,1,.34,2.58c0,.44,0,.88.05,1.32s0,.86-.05,1.3c0,.22,0,.44-.07.65s-.05.44-.09.65-.06.43-.12.65l-.16.64-.31-.2a3.25,3.25,0,0,0,.89-1.28,10.22,10.22,0,0,0,.49-1.54,31.51,31.51,0,0,0,.53-3.23c.12-1.08.25-2.17.33-3.26l.29-3.29h.05c.06,1.1.07,2.21.06,3.31s-.07,2.21-.19,3.31a19.53,19.53,0,0,1-.59,3.27,10.48,10.48,0,0,1-.56,1.6,3.75,3.75,0,0,1-1.05,1.41l-.46.35.15-.55.17-.62c0-.21.08-.42.13-.63s.07-.42.11-.63.06-.43.08-.64c0-.42.07-.85.08-1.28s0-.86,0-1.29a22.52,22.52,0,0,0-.25-2.58,18.27,18.27,0,0,0-.55-2.52Z"/><path class="cls-5" d="M212.56,235.15a13.81,13.81,0,0,1,.33,1.38c.1.47.16.94.22,1.4a17.85,17.85,0,0,1,.09,2.83,12.72,12.72,0,0,1-.42,2.81,7.67,7.67,0,0,1-.52,1.35,3.54,3.54,0,0,1-.92,1.17l-.31-.28a3.39,3.39,0,0,0,.87-1.65,2.42,2.42,0,0,0,0-.47,2.67,2.67,0,0,0-.07-.47,1.57,1.57,0,0,0-.18-.45,2.73,2.73,0,0,0-.26-.43,3.26,3.26,0,0,1,.34.4,2.63,2.63,0,0,1,.24.44,2.83,2.83,0,0,1,.13.5,2.91,2.91,0,0,1,0,.51,3.89,3.89,0,0,1-.8,1.88l-.31-.29a3.32,3.32,0,0,0,.75-1.08,7.64,7.64,0,0,0,.45-1.27,15.32,15.32,0,0,0,.44-2.71c.07-.92.09-1.84.07-2.77S212.67,236.09,212.56,235.15Z"/><path class="cls-5" d="M202.21,247.32a4.81,4.81,0,0,1-.47-.75c-.07-.11-.11-.24-.18-.38a4.48,4.48,0,0,1-.18-.44c0-.16-.1-.32-.16-.49a3.8,3.8,0,0,1-.13-.51l-.11-.52a3,3,0,0,1-.06-.51c0-.17,0-.33,0-.48a2.79,2.79,0,0,1,.06-.43,5,5,0,0,1,.28-.85h0a4.27,4.27,0,0,1,.1.86,2.83,2.83,0,0,0,0,.41,3.44,3.44,0,0,1,0,.46c0,.15,0,.31,0,.48l0,.5a2.73,2.73,0,0,0,.06.5c0,.16.07.32.11.48s.08.3.11.45a3.79,3.79,0,0,0,.12.4,7,7,0,0,0,.33.79Z"/><path class="cls-5" d="M199.92,243.76s.13,0,.14.07a.39.39,0,0,1-.05.13l-.14.22a3.7,3.7,0,0,0-.25.43,4.71,4.71,0,0,0-.39.9,6.51,6.51,0,0,0-.27,2v.6l-.25-.55a5.24,5.24,0,0,1-.25-.83l-.17-.82L198,244.2c-.17-1.09-.32-2.2-.43-3.3a26.73,26.73,0,0,1-.2-3.34c0-.56,0-1.12,0-1.67a11.41,11.41,0,0,1,.21-1.66h.05c0,.55,0,1.1.05,1.66l.12,1.65.25,3.31c.07,1.1.17,2.21.29,3.3l.22,1.65.13.82a5.92,5.92,0,0,0,.2.78l-.24.05a6.38,6.38,0,0,1,.38-2,5.88,5.88,0,0,1,.44-.91c.08-.15.18-.28.28-.43l.14-.2a.93.93,0,0,0,.05-.1s0,0-.08,0Z"/><path class="cls-5" d="M195.45,248.15s-.2-.83-.44-2.07-.49-2.92-.64-4.6c-.09-.84-.14-1.69-.16-2.48,0-.4,0-.79,0-1.15s.08-.71.11-1,.12-.6.16-.86a4.43,4.43,0,0,1,.17-.64c.12-.36.18-.56.18-.56h.05s0,.21-.05.57c0,.19,0,.41,0,.66s0,.54,0,.85,0,.65,0,1V239c0,.79,0,1.62,0,2.45.07,1.68.25,3.36.4,4.6s.31,2.09.31,2.09Z"/><path class="cls-5" d="M187.38,247.8s.18-.86.39-2.16c.09-.65.19-1.41.31-2.22s.18-1.69.21-2.56c0-.43,0-.87,0-1.29s0-.85,0-1.25,0-.8,0-1.17-.05-.72-.08-1-.09-.61-.13-.88a3.14,3.14,0,0,0-.14-.66c-.09-.37-.15-.59-.15-.59l0,0,.28.54.14.3.12.35a6.35,6.35,0,0,1,.24.89c.06.33.14.69.18,1.07a11.13,11.13,0,0,1,.08,1.19c0,.42,0,.85,0,1.28s-.06.87-.11,1.32c-.08.87-.21,1.74-.34,2.56s-.28,1.57-.42,2.21c-.29,1.29-.53,2.13-.53,2.13Z"/><path class="cls-5" d="M186.59,246.34s-.16-.25-.36-.65c-.11-.21-.21-.45-.32-.71s-.09-.28-.14-.41-.1-.29-.14-.44-.17-.58-.2-.87v-.41a1.48,1.48,0,0,1,0-.38,3.37,3.37,0,0,1,.26-.74h.05a4.11,4.11,0,0,1,.12.74c0,.11,0,.23,0,.34s0,.25,0,.39,0,.27,0,.41l0,.43.08.42a2.61,2.61,0,0,0,.08.42c.07.26.13.52.2.73a5.78,5.78,0,0,0,.24.69Z"/><path class="cls-5" d="M182.35,237.46a19.94,19.94,0,0,1,.55,2.55,22.63,22.63,0,0,1,.24,2.6c0,.43,0,.87,0,1.31s0,.86-.1,1.29c0,.22-.06.44-.1.65a4.5,4.5,0,0,1-.11.64c-.05.22-.08.43-.15.64l-.18.63-.31-.21a3.31,3.31,0,0,0,.95-1.23,10.17,10.17,0,0,0,.54-1.52c.29-1.06.47-2.14.66-3.21s.33-2.17.46-3.27l.42-3.27h.05c0,1.1,0,2.21-.08,3.31s-.15,2.2-.31,3.3a21.85,21.85,0,0,1-.72,3.26,10.2,10.2,0,0,1-.63,1.58,3.41,3.41,0,0,1-1.1,1.35l-.48.33.17-.54.19-.61a20.94,20.94,0,0,0,.3-1.24c0-.21.08-.42.1-.63.07-.42.11-.85.14-1.28s.05-.85,0-1.28a22.07,22.07,0,0,0-.13-2.58,20.19,20.19,0,0,0-.46-2.56Z"/><path class="cls-5" d="M191.58,236.11c.11.45.19.92.27,1.38s.11.93.15,1.4a19.24,19.24,0,0,1,0,2.84,12.76,12.76,0,0,1-.55,2.79,6.83,6.83,0,0,1-.57,1.34,3.76,3.76,0,0,1-1,1.15l-.3-.29a3.48,3.48,0,0,0,.93-1.63,2.4,2.4,0,0,0,.05-.46,1.47,1.47,0,0,0,0-.47,1.77,1.77,0,0,0-.15-.46,2.67,2.67,0,0,0-.25-.43,3,3,0,0,1,.32.39,2,2,0,0,1,.23.46,2.11,2.11,0,0,1,.1.5,1.74,1.74,0,0,1,0,.51,3.76,3.76,0,0,1-.87,1.86l-.29-.29a3.54,3.54,0,0,0,.79-1.07,7.35,7.35,0,0,0,.5-1.26,15.22,15.22,0,0,0,.56-2.7,23.15,23.15,0,0,0,.2-2.77C191.67,238,191.65,237.05,191.58,236.11Z"/><path class="cls-5" d="M180.71,247.93a5.82,5.82,0,0,1-.44-.79c-.06-.11-.1-.25-.17-.39s-.12-.29-.16-.45-.09-.32-.13-.5a3,3,0,0,1-.12-.52l-.09-.52a4.49,4.49,0,0,1,0-.51c0-.17,0-.33,0-.48a2.2,2.2,0,0,1,.09-.42,4,4,0,0,1,.32-.84h.05a6,6,0,0,1,.06.87c0,.13,0,.27,0,.41a3.39,3.39,0,0,1,0,.45c0,.16,0,.32,0,.49l0,.5a4.38,4.38,0,0,0,0,.51c0,.16.06.32.08.48s.07.31.1.45.06.29.1.4a6.58,6.58,0,0,0,.3.82Z"/><path class="cls-5" d="M178.56,244.24s.13,0,.14.07,0,.09-.06.13l-.15.21c-.09.14-.19.28-.27.42a5.3,5.3,0,0,0-.43.9,6.34,6.34,0,0,0-.36,1.93l0,.59-.22-.55a3.72,3.72,0,0,1-.22-.84l-.14-.82-.2-1.66q-.16-1.67-.27-3.33a28.61,28.61,0,0,1,0-3.34c0-.56,0-1.11.11-1.67a10.6,10.6,0,0,1,.3-1.65h0c0,.56,0,1.11,0,1.66l0,1.66.09,3.31c0,1.11.06,2.21.14,3.32l.13,1.65.11.82a4.8,4.8,0,0,0,.16.79l-.24,0a6.16,6.16,0,0,1,.47-2,5.1,5.1,0,0,1,.48-.89c.09-.14.2-.28.3-.41l.15-.21a.2.2,0,0,0,0-.09s0,0-.07,0Z"/><path class="cls-5" d="M173.84,248.47s-.16-.83-.33-2.09-.33-2.93-.4-4.62c0-.84-.05-1.69,0-2.48,0-.4.08-.78.11-1.15s.11-.7.16-1,.15-.6.21-.84a3.6,3.6,0,0,1,.2-.65l.2-.55.05,0s0,.21-.07.57c0,.19-.07.4-.09.66s-.05.54-.08.85-.05.64-.08,1,0,.74,0,1.13c-.05.78-.1,1.62-.11,2.45,0,1.68.08,3.35.16,4.62s.19,2.09.19,2.09Z"/><path class="cls-5" d="M165.71,247.83s.24-.85.53-2.14c.14-.65.3-1.41.45-2.21s.29-1.68.39-2.54c0-.44.09-.87.11-1.3s.05-.84.07-1.25,0-.8,0-1.17,0-.72,0-1a7.48,7.48,0,0,0-.07-.88,5,5,0,0,0-.09-.67c-.07-.36-.11-.59-.11-.59h0s.09.19.24.55l.12.29c0,.12.06.24.1.37a6.34,6.34,0,0,1,.18.89c0,.33.1.69.11,1.07a9.6,9.6,0,0,1,0,1.2c0,.41-.05.84-.11,1.27s-.12.87-.19,1.31c-.14.88-.32,1.74-.5,2.55s-.39,1.56-.57,2.19c-.38,1.28-.67,2.12-.67,2.12Z"/><path class="cls-5" d="M165,246.3a6,6,0,0,1-.32-.68c-.1-.21-.18-.46-.28-.73s-.07-.28-.11-.43-.07-.29-.11-.44a7.13,7.13,0,0,1-.14-.89,2.63,2.63,0,0,1,0-.41,1.51,1.51,0,0,1,.07-.38,3.12,3.12,0,0,1,.31-.7h.06a4.11,4.11,0,0,1,0,.75c0,.1,0,.22,0,.34a2.48,2.48,0,0,1,0,.39,1.87,1.87,0,0,0,0,.41V244l0,.43c0,.15,0,.29.05.42s.09.53.15.75a6,6,0,0,0,.19.71Z"/><path class="cls-5" d="M161.43,237.1a18.59,18.59,0,0,1,.34,2.58,22.53,22.53,0,0,1,0,2.6c0,.44-.05.87-.1,1.31s-.12.86-.21,1.29c0,.21-.1.42-.14.63s-.11.43-.17.64-.12.43-.2.63l-.24.62-.29-.23a3.33,3.33,0,0,0,1-1.18,9.32,9.32,0,0,0,.67-1.47c.37-1,.63-2.08.9-3.14s.5-2.14.7-3.21l.66-3.23h.05c-.06,1.1-.18,2.2-.31,3.29s-.33,2.19-.57,3.26a19,19,0,0,1-1,3.2,10.21,10.21,0,0,1-.75,1.52,3.75,3.75,0,0,1-1.23,1.28s-.51.79-.51.3a.68.68,0,0,1,.22-.53l.24-.6c.09-.2.14-.4.22-.61s.13-.4.19-.61.11-.41.15-.63c.1-.41.17-.84.24-1.26s.11-.85.15-1.29a24.56,24.56,0,0,0,.06-2.58,17.09,17.09,0,0,0-.26-2.57Z"/><path class="cls-5" d="M170.63,236.3a12.9,12.9,0,0,1,.19,1.39,13.19,13.19,0,0,1,.06,1.41,16.64,16.64,0,0,1-.19,2.82,12.37,12.37,0,0,1-.72,2.78,8.07,8.07,0,0,1-.65,1.32,3.77,3.77,0,0,1-1,1.11l-.28-.3a3.59,3.59,0,0,0,1-1.59,1.86,1.86,0,0,0,.09-.47,1.49,1.49,0,0,0,0-.47,1.51,1.51,0,0,0-.13-.46,2,2,0,0,0-.21-.44,3.69,3.69,0,0,1,.29.4,1.72,1.72,0,0,1,.19.47,2.1,2.1,0,0,1,.09.5,2.91,2.91,0,0,1,0,.51,3.89,3.89,0,0,1-1,1.83l-.27-.3a3.9,3.9,0,0,0,.86-1,8.33,8.33,0,0,0,.58-1.25,16.45,16.45,0,0,0,.72-2.67,26.06,26.06,0,0,0,.36-2.76C170.62,238.17,170.65,237.24,170.63,236.3Z"/><path class="cls-5" d="M158.94,247.46c0-.32-.18-.41-.37-.8,0-.12-.09-.26-.14-.4s-.1-.3-.13-.47-.06-.32-.09-.49a4.81,4.81,0,0,1-.07-.53l0-.52a4.47,4.47,0,0,1,0-.52c0-.16,0-.33.07-.48a1.64,1.64,0,0,1,.12-.41,4.67,4.67,0,0,1,.38-.82l.05,0a4.56,4.56,0,0,1,0,.86,2.75,2.75,0,0,0,0,.41c0,.15,0,.3,0,.46s-.06.31-.07.48l0,.5a2.9,2.9,0,0,0,0,.51c0,.16,0,.33,0,.49s0,.3.06.45,0,.28.07.41c.11.5.24,1.89.24.83C159,247.61,158.94,247,158.94,247.46Z"/><path class="cls-5" d="M157.09,243.67s.14,0,.13.08a.47.47,0,0,1-.07.12l-.16.21a3,3,0,0,0-.31.4,5.49,5.49,0,0,0-.51.87,5.28,5.28,0,0,0-.34.94,4.89,4.89,0,0,0-.19,1s-.07.64-.07.59c0-1.08-.18-.87-.18-.57a7.4,7.4,0,0,1-.14-.84l-.06-.83-.06-1.66c0-1.12,0-2.22,0-3.34a30.72,30.72,0,0,1,.26-3.32c.07-.56.15-1.11.27-1.66a10.27,10.27,0,0,1,.42-1.63h0c-.08.55-.12,1.1-.17,1.65l-.11,1.65-.19,3.31c-.08,1.11-.13,2.21-.16,3.32v1.65l0,.83c0,.26,0,.08.1.79,0-.28-.25-.27-.25,0a4.79,4.79,0,0,1,.24-1,6.59,6.59,0,0,1,.4-1,5.61,5.61,0,0,1,.56-.87c.11-.14.23-.26.34-.39l.16-.2a.28.28,0,0,0,.07-.09s0,0-.07,0Z"/><path class="cls-5" d="M152,247.63c0,.4,0-.54,0-.57,0-.37-.07-.89-.1-1.52-.06-1.26-.06-2.94,0-4.63,0-.84.1-1.7.2-2.48.08-.39.15-.77.22-1.13s.18-.7.26-1,.19-.59.27-.83a5,5,0,0,1,.26-.63l.25-.54.05,0-.13.57c0,.18-.09.4-.14.65s-.1.53-.16.84-.1.64-.17,1-.1.73-.16,1.12c-.11.77-.24,1.61-.33,2.44-.17,1.67-.22,3.35-.25,4.6,0,.63,0,1.15,0,1.52a4.46,4.46,0,0,1,0,.58S152,247.49,152,247.63Z"/><path class="cls-5" d="M143.8,246.13s.35-.82.78-2.07c.23-.63.46-1.36.71-2.15s.47-1.64.66-2.49c.1-.42.18-.85.26-1.27s.14-.84.19-1.25.11-.79.17-1.15a10.38,10.38,0,0,0,.1-1c0-.32,0-.62,0-.88a3.66,3.66,0,0,0,0-.68c0-.37,0-.6,0-.6h0l.17.57a2.81,2.81,0,0,1,.08.31c0,.12,0,.24.06.38a7.71,7.71,0,0,1,.08.91c0,.32,0,.69,0,1.07s-.06.78-.12,1.19-.14.84-.25,1.26-.22.85-.34,1.28c-.23.86-.5,1.7-.77,2.49s-.56,1.5-.82,2.12c-.52,1.22-.92,2-.92,2Z"/><path class="cls-5" d="M143.27,244.57a6.6,6.6,0,0,1-.25-.7,7.34,7.34,0,0,1-.18-.74,3.07,3.07,0,0,1-.07-.42l-.06-.45a6.82,6.82,0,0,1,0-.9c0-.14,0-.27.07-.41a1.31,1.31,0,0,1,.12-.35,3.28,3.28,0,0,1,.39-.69h.05a4,4,0,0,1,0,.75c0,.1,0,.23,0,.34a2.66,2.66,0,0,1,0,.39,2.71,2.71,0,0,0,0,.41l0,.43v.43c0,.14,0,.28,0,.42s0,.53.06.74a4.32,4.32,0,0,0,.12.73Z"/><path class="cls-5" d="M140.79,235.19a18.93,18.93,0,0,1,0,2.61,20.71,20.71,0,0,1-.28,2.59,11.16,11.16,0,0,1-.26,1.28c-.11.43-.22.85-.36,1.26a13.73,13.73,0,0,1-.47,1.23c-.1.2-.17.41-.28.6l-.31.59-.27-.27a3.35,3.35,0,0,0,1.21-1,8.65,8.65,0,0,0,.85-1.41,31.39,31.39,0,0,0,1.28-3.06c.37-1,.75-2.09,1.08-3.15l1-3.17h0c-.19,1.09-.43,2.18-.7,3.25s-.57,2.15-.94,3.21a20.69,20.69,0,0,1-1.34,3.11,10.64,10.64,0,0,1-1,1.45,3.45,3.45,0,0,1-1.4,1.15l-.55.23.28-.5.33-.56c.11-.19.19-.39.29-.58s.18-.39.26-.59.17-.4.23-.6c.16-.4.28-.82.4-1.23s.22-.83.31-1.26a24.28,24.28,0,0,0,.37-2.56,20.38,20.38,0,0,0,.09-2.59Z"/><path class="cls-5" d="M149.94,235.19a13.28,13.28,0,0,1,0,1.41c0,.47,0,.94-.07,1.41a16.44,16.44,0,0,1-.48,2.79,12.42,12.42,0,0,1-1,2.69,7.42,7.42,0,0,1-.79,1.24,4.05,4.05,0,0,1-1.17,1l-.25-.33a3.51,3.51,0,0,0,1.21-1.47,2.59,2.59,0,0,0,.14-.45,1.89,1.89,0,0,0,0-.47,2,2,0,0,0-.08-.48,2.54,2.54,0,0,0-.17-.46,3.14,3.14,0,0,1,.25.44,1.9,1.9,0,0,1,.14.48,2.19,2.19,0,0,1,0,.51,4.54,4.54,0,0,1-.09.51,3.88,3.88,0,0,1-1.19,1.7l-.25-.33a3.76,3.76,0,0,0,1-.93,8.15,8.15,0,0,0,.72-1.17,15,15,0,0,0,1-2.59,22.7,22.7,0,0,0,.64-2.71C149.74,237.05,149.86,236.13,149.94,235.19Z"/><path class="cls-5" d="M137,245.17a5.24,5.24,0,0,1-.26-.84c0-.13-.06-.27-.09-.41a3.5,3.5,0,0,1-.06-.48c0-.17,0-.33,0-.51a4.51,4.51,0,0,1,0-.52l0-.53a4.34,4.34,0,0,1,.08-.52l.13-.46a2.1,2.1,0,0,1,.18-.4,4.74,4.74,0,0,1,.5-.76l.05,0a4.67,4.67,0,0,1-.13.87,2.18,2.18,0,0,0-.08.4c0,.14-.05.29-.09.44s-.09.31-.13.47l-.09.5a2.84,2.84,0,0,0-.06.5l0,.49c0,.16,0,.31,0,.46a2.82,2.82,0,0,0,0,.42,4.75,4.75,0,0,0,.12.85Z"/><path class="cls-5" d="M135.63,241.18s.14,0,.11.09a.28.28,0,0,1-.08.12l-.19.18c-.13.12-.25.23-.37.36a6.07,6.07,0,0,0-.64.8,6.67,6.67,0,0,0-.82,1.83l-.16.57-.1-.58a4.15,4.15,0,0,1,0-.86l.06-.83c.06-.56.12-1.11.19-1.65.16-1.11.33-2.2.53-3.3a30.22,30.22,0,0,1,.76-3.26c.15-.54.32-1.08.52-1.61a10.67,10.67,0,0,1,.66-1.57l0,0c-.16.54-.28,1.08-.41,1.62l-.36,1.62-.7,3.25c-.24,1.09-.46,2.18-.64,3.27-.1.54-.19,1.09-.25,1.64l-.09.81a4.35,4.35,0,0,0,0,.8h-.25a6.67,6.67,0,0,1,.94-1.84,5.14,5.14,0,0,1,.69-.79c.12-.12.26-.24.39-.35l.2-.17.08-.08s0,0-.07,0Z"/><path class="cls-5" d="M129.83,244.41s0-.85.2-2.11a40.27,40.27,0,0,1,.82-4.59c.18-.83.4-1.66.64-2.42.14-.38.27-.74.4-1.08s.3-.66.42-1,.29-.54.41-.77a5.16,5.16,0,0,1,.35-.58l.33-.48,0,0-.22.54c-.07.17-.16.37-.25.62s-.18.51-.29.81-.22.62-.33,1l-.35,1.08c-.24.75-.51,1.55-.74,2.36-.45,1.62-.79,3.28-1,4.52s-.33,2.08-.33,2.08Z"/><path class="cls-5" d="M121.58,241.46s.55-.72,1.29-1.84c.37-.56.78-1.23,1.2-2s.85-1.5,1.23-2.3q.28-.6.54-1.2c.17-.39.32-.79.47-1.17s.28-.76.43-1.1.22-.69.33-1,.18-.6.25-.86a6.46,6.46,0,0,0,.15-.66c.06-.37.11-.59.11-.59h0s0,.21,0,.59v.32c0,.12,0,.24,0,.38a7.13,7.13,0,0,1-.14.9c-.08.32-.14.69-.26,1.05s-.23.76-.38,1.15-.32.79-.52,1.19-.39.79-.6,1.19c-.42.79-.88,1.56-1.32,2.27s-.91,1.36-1.32,1.89c-.8,1.09-1.41,1.78-1.41,1.78Z"/><path class="cls-5" d="M121.38,239.81a5.16,5.16,0,0,1-.08-.74,6.41,6.41,0,0,1,0-.77,2.18,2.18,0,0,1,0-.43c0-.15,0-.29,0-.44a8.06,8.06,0,0,1,.2-.88c.06-.13.13-.26.19-.37a1.55,1.55,0,0,1,.21-.33,3.9,3.9,0,0,1,.57-.58l0,0a4.05,4.05,0,0,1-.22.71,1.69,1.69,0,0,0-.1.34,3.31,3.31,0,0,1-.14.36c-.06.12-.09.26-.16.39l-.15.4-.11.42a3.48,3.48,0,0,0-.1.41c0,.28-.11.53-.13.75a5.85,5.85,0,0,0-.06.73Z"/><path class="cls-5" d="M121.82,230.18c-.26.82-.58,1.63-.92,2.43s-.73,1.6-1.16,2.37c-.21.39-.45.77-.69,1.16s-.5.73-.78,1.09l-.45.52c-.15.17-.31.34-.47.5s-.32.33-.51.49l-.54.45-.13-.18c-.08-.11-.18-.22-.18-.22a1.79,1.79,0,0,0,1-.15,4.93,4.93,0,0,0,.8-.39,8.91,8.91,0,0,0,1.36-1.07,23.42,23.42,0,0,0,2.21-2.57c.67-.9,1.3-1.8,1.91-2.76l1.85-2.85,0,0c-.48,1-1,2-1.55,3s-1.14,1.95-1.8,2.89a15.39,15.39,0,0,1-2.25,2.61,9,9,0,0,1-1.45,1.09,4.41,4.41,0,0,1-1.94.63c.07,0-1-.14-1-.14l.62-.3.65-.35A2.82,2.82,0,0,0,117,238a4.45,4.45,0,0,0,.49-.48,5.45,5.45,0,0,0,.46-.5c.29-.33.56-.68.83-1.05s.5-.72.72-1.1a21.65,21.65,0,0,0,1.25-2.32,24.68,24.68,0,0,0,1-2.38Z"/><path class="cls-5" d="M130,231.83c-.06.46-.14.93-.24,1.39a13.69,13.69,0,0,1-.34,1.37,17.68,17.68,0,0,1-1,2.68,13.08,13.08,0,0,1-1.52,2.49,7.28,7.28,0,0,1-1,1.1,4.05,4.05,0,0,1-1.41.8l-.18-.36a3.83,3.83,0,0,0,1.54-1.26,2.82,2.82,0,0,0,.23-.42,2.39,2.39,0,0,0,.12-.46,1.85,1.85,0,0,0,0-.47,2.53,2.53,0,0,0-.07-.48,1.9,1.9,0,0,1,.15.46,1.4,1.4,0,0,1,.06.5,1.77,1.77,0,0,1-.07.5,2.43,2.43,0,0,1-.18.49,4.1,4.1,0,0,1-1.57,1.49l-.18-.36a4.33,4.33,0,0,0,1.18-.76,8.68,8.68,0,0,0,1-1.05,16.67,16.67,0,0,0,1.51-2.4,25.46,25.46,0,0,0,1.14-2.57C129.48,233.63,129.78,232.74,130,231.83Z"/><path class="cls-2" d="M180,188.23c21,1,49.76,1.72,69,2.1-.35-26.48-1.55-55.93-2.17-70.08-8.8-25.81-31.13-45.44-44.49-55.35a68.19,68.19,0,0,1-21.34,3.24,71.76,71.76,0,0,1-20.75-3c-13.89,10.17-38.46,31.48-46.41,59.64-.66,15.64-1.65,42.3-1.85,66.16C130.53,191.12,159.73,190.83,180,188.23Z"/><path class="cls-3" d="M249.08,192.24c0-.64,0-1.27,0-1.91-19.28-.38-48.06-1.07-69-2.1-20.29,2.6-49.49,2.89-68,2.75,0,.47,0,.93,0,1.39,0,3,0,6,0,8.87v.91c18.47.14,47.71-.14,68-2.75,21,1,49.85,1.72,69.13,2.11v-.4C249.14,198.22,249.11,195.25,249.08,192.24Z"/><path class="cls-6" d="M185,248.06v-2.8h-2.84a1.41,1.41,0,0,1-1.42,1.4,1.4,1.4,0,0,0-1.41,1.4h0a1.41,1.41,0,0,0,1.41,1.4,1.4,1.4,0,0,1,1.42,1.39H185v-2.79Z"/><path class="cls-6" d="M185,242.46v-2.8h-2.84a1.41,1.41,0,0,1-1.42,1.4,1.41,1.41,0,0,0-1.41,1.4h0a1.41,1.41,0,0,0,1.41,1.4,1.4,1.4,0,0,1,1.42,1.4H185v-2.8Z"/><path class="cls-6" d="M176.5,245.26v2.8h2.84a1.4,1.4,0,0,1,1.42-1.4,1.41,1.41,0,0,0,1.41-1.4h0a1.4,1.4,0,0,0-1.41-1.4,1.41,1.41,0,0,1-1.42-1.4H176.5v2.8Z"/><rect class="cls-7" x="176.5" y="248.06" width="8.51" height="4.41"/><path class="cls-6" d="M185,242.46v-2.8h-2.84a1.41,1.41,0,0,1-1.42,1.4,1.4,1.4,0,1,0,0,2.8,1.4,1.4,0,0,1,1.42,1.4H185Z"/><path class="cls-6" d="M185,236.86v-2.8h-2.84a1.41,1.41,0,0,1-1.42,1.4,1.41,1.41,0,0,0-1.41,1.4h0a1.41,1.41,0,0,0,1.41,1.4,1.41,1.41,0,0,1,1.42,1.4H185v-2.8Z"/><path class="cls-6" d="M176.5,239.66v2.8h2.84a1.4,1.4,0,0,1,1.42-1.4,1.41,1.41,0,0,0,1.41-1.4h0a1.41,1.41,0,0,0-1.41-1.4,1.41,1.41,0,0,1-1.42-1.4H176.5v2.8Z"/><path class="cls-6" d="M185,236.86v-2.8h-2.84a1.41,1.41,0,0,1-1.42,1.4,1.4,1.4,0,1,0,0,2.8,1.4,1.4,0,0,1,1.42,1.4H185Z"/><path class="cls-6" d="M185,231.26v-2.8h-2.84a1.41,1.41,0,0,1-1.42,1.4,1.41,1.41,0,0,0-1.41,1.4h0a1.41,1.41,0,0,0,1.41,1.4,1.41,1.41,0,0,1,1.42,1.4H185v-2.8Z"/><path class="cls-6" d="M176.5,234.06v2.8h2.84a1.41,1.41,0,0,1,1.42-1.4,1.41,1.41,0,0,0,1.41-1.4h0a1.41,1.41,0,0,0-1.41-1.4,1.41,1.41,0,0,1-1.42-1.4H176.5v2.8Z"/><path class="cls-6" d="M185,231.26v-2.8h-2.84a1.41,1.41,0,0,1-1.42,1.4,1.4,1.4,0,1,0,0,2.8,1.41,1.41,0,0,1,1.42,1.4H185Z"/><path class="cls-6" d="M185,225.66v-2.8h-2.84a1.4,1.4,0,0,1-1.42,1.4,1.41,1.41,0,0,0-1.41,1.4h0a1.4,1.4,0,0,0,1.41,1.4,1.41,1.41,0,0,1,1.42,1.4H185v-2.8Z"/><path class="cls-6" d="M176.5,228.46v2.8h2.84a1.41,1.41,0,0,1,1.42-1.4,1.41,1.41,0,0,0,1.41-1.4h0a1.41,1.41,0,0,0-1.41-1.4,1.4,1.4,0,0,1-1.42-1.4H176.5v2.8Z"/><path class="cls-6" d="M185,225.66v-2.8h-2.84a1.4,1.4,0,0,1-1.42,1.4,1.4,1.4,0,1,0,0,2.8,1.41,1.41,0,0,1,1.42,1.4H185Z"/><path class="cls-6" d="M185,220.06v-2.8h-2.84a1.4,1.4,0,0,1-1.42,1.4,1.41,1.41,0,0,0-1.41,1.4h0a1.4,1.4,0,0,0,1.41,1.4,1.41,1.41,0,0,1,1.42,1.4H185v-2.8Z"/><path class="cls-6" d="M176.5,222.86v2.8h2.84a1.41,1.41,0,0,1,1.42-1.4,1.4,1.4,0,0,0,1.41-1.4h0a1.41,1.41,0,0,0-1.41-1.4,1.4,1.4,0,0,1-1.42-1.4H176.5v2.8Z"/><path class="cls-6" d="M185,220.06v-2.8h-2.84a1.4,1.4,0,0,1-1.42,1.4,1.4,1.4,0,1,0,0,2.8,1.41,1.41,0,0,1,1.42,1.4H185Z"/><path class="cls-6" d="M185,214.47v-2.8h-2.84a1.41,1.41,0,0,1-1.42,1.4,1.4,1.4,0,0,0-1.41,1.4h0a1.41,1.41,0,0,0,1.41,1.4,1.4,1.4,0,0,1,1.42,1.39H185v-2.79Z"/><path class="cls-6" d="M176.5,217.26v2.8h2.84a1.41,1.41,0,0,1,1.42-1.4,1.4,1.4,0,0,0,1.41-1.4h0a1.41,1.41,0,0,0-1.41-1.4,1.4,1.4,0,0,1-1.42-1.39H176.5v2.79Z"/><path class="cls-6" d="M185,214.46v-2.79h-2.84a1.4,1.4,0,0,1-1.42,1.39,1.4,1.4,0,1,0,0,2.8,1.41,1.41,0,0,1,1.42,1.4H185Z"/><path class="cls-6" d="M185,208.87v-2.8h-2.84a1.41,1.41,0,0,1-1.42,1.4,1.4,1.4,0,0,0-1.41,1.4h0a1.41,1.41,0,0,0,1.41,1.4,1.4,1.4,0,0,1,1.42,1.4H185v-2.8Z"/><path class="cls-6" d="M176.5,211.67v2.79h2.84a1.4,1.4,0,0,1,1.42-1.39,1.41,1.41,0,0,0,1.41-1.4h0a1.4,1.4,0,0,0-1.41-1.4,1.41,1.41,0,0,1-1.42-1.4H176.5v2.8Z"/><path class="cls-6" d="M185,208.87v-2.8h-2.84a1.41,1.41,0,0,1-1.42,1.4,1.4,1.4,0,1,0,0,2.8,1.4,1.4,0,0,1,1.42,1.39H185Z"/><path class="cls-6" d="M185,203.27v-2.8h-2.84a1.41,1.41,0,0,1-1.42,1.4,1.41,1.41,0,0,0-1.41,1.4h0a1.41,1.41,0,0,0,1.41,1.4,1.4,1.4,0,0,1,1.42,1.4H185v-2.8Z"/><path class="cls-6" d="M176.5,206.07v2.8h2.84a1.4,1.4,0,0,1,1.42-1.4,1.41,1.41,0,0,0,1.41-1.4h0a1.4,1.4,0,0,0-1.41-1.4,1.41,1.41,0,0,1-1.42-1.4H176.5v2.8Z"/><path class="cls-6" d="M185,203.27v-2.8h-2.84a1.41,1.41,0,0,1-1.42,1.4,1.4,1.4,0,1,0,0,2.8,1.4,1.4,0,0,1,1.42,1.4H185Z"/><path class="cls-6" d="M185,197.67v-2.8h-2.84a1.41,1.41,0,0,1-1.42,1.4,1.41,1.41,0,0,0-1.41,1.4h0a1.41,1.41,0,0,0,1.41,1.4,1.41,1.41,0,0,1,1.42,1.4H185v-2.8Z"/><path class="cls-6" d="M176.5,200.47v2.8h2.84a1.4,1.4,0,0,1,1.42-1.4,1.41,1.41,0,0,0,1.41-1.4h0a1.41,1.41,0,0,0-1.41-1.4,1.41,1.41,0,0,1-1.42-1.4H176.5v2.8Z"/><path class="cls-6" d="M185,197.67v-2.8h-2.84a1.41,1.41,0,0,1-1.42,1.4,1.4,1.4,0,1,0,0,2.8,1.4,1.4,0,0,1,1.42,1.4H185Z"/><path class="cls-6" d="M185,192.07v-2.8h-2.84a1.41,1.41,0,0,1-1.42,1.4,1.41,1.41,0,0,0-1.41,1.4h0a1.41,1.41,0,0,0,1.41,1.4,1.41,1.41,0,0,1,1.42,1.4H185v-2.8Z"/><path class="cls-6" d="M176.5,194.87v2.8h2.84a1.41,1.41,0,0,1,1.42-1.4,1.41,1.41,0,0,0,1.41-1.4h0a1.41,1.41,0,0,0-1.41-1.4,1.41,1.41,0,0,1-1.42-1.4H176.5v2.8Z"/><path class="cls-6" d="M185,192.07v-2.8h-2.84a1.41,1.41,0,0,1-1.42,1.4,1.4,1.4,0,1,0,0,2.8,1.41,1.41,0,0,1,1.42,1.4H185Z"/><path class="cls-6" d="M185,186.47v-2.8h-2.84a1.4,1.4,0,0,1-1.42,1.4,1.41,1.41,0,0,0-1.41,1.4h0a1.4,1.4,0,0,0,1.41,1.4,1.41,1.41,0,0,1,1.42,1.4H185v-2.8Z"/><path class="cls-6" d="M176.5,189.27v2.8h2.84a1.41,1.41,0,0,1,1.42-1.4,1.41,1.41,0,0,0,1.41-1.4h0a1.41,1.41,0,0,0-1.41-1.4,1.4,1.4,0,0,1-1.42-1.4H176.5v2.8Z"/><path class="cls-6" d="M185,186.47v-2.8h-2.84a1.4,1.4,0,0,1-1.42,1.4,1.4,1.4,0,1,0,0,2.8,1.41,1.41,0,0,1,1.42,1.4H185Z"/><path class="cls-6" d="M185,180.87v-2.8h-2.84a1.4,1.4,0,0,1-1.42,1.4,1.41,1.41,0,0,0-1.41,1.4h0a1.4,1.4,0,0,0,1.41,1.4,1.41,1.41,0,0,1,1.42,1.4H185v-2.8Z"/><path class="cls-6" d="M176.5,183.67v2.8h2.84a1.41,1.41,0,0,1,1.42-1.4,1.4,1.4,0,0,0,1.41-1.4h0a1.41,1.41,0,0,0-1.41-1.4,1.4,1.4,0,0,1-1.42-1.4H176.5v2.8Z"/><path class="cls-6" d="M185,180.87v-2.8h-2.84a1.4,1.4,0,0,1-1.42,1.4,1.4,1.4,0,1,0,0,2.8,1.41,1.41,0,0,1,1.42,1.4H185Z"/><path class="cls-6" d="M185,175.28v-2.8h-2.84a1.41,1.41,0,0,1-1.42,1.4,1.4,1.4,0,0,0-1.41,1.4h0a1.41,1.41,0,0,0,1.41,1.4,1.4,1.4,0,0,1,1.42,1.39H185v-2.79Z"/><path class="cls-6" d="M176.5,178.07v2.8h2.84a1.41,1.41,0,0,1,1.42-1.4,1.4,1.4,0,0,0,1.41-1.4h0a1.41,1.41,0,0,0-1.41-1.4,1.4,1.4,0,0,1-1.42-1.39H176.5v2.79Z"/><path class="cls-6" d="M185,175.27v-2.79h-2.84a1.4,1.4,0,0,1-1.42,1.39,1.4,1.4,0,1,0,0,2.8,1.41,1.41,0,0,1,1.42,1.4H185Z"/><path class="cls-6" d="M185,169.68v-2.8h-2.84a1.41,1.41,0,0,1-1.42,1.4,1.4,1.4,0,0,0-1.41,1.4h0a1.41,1.41,0,0,0,1.41,1.4,1.4,1.4,0,0,1,1.42,1.4H185v-2.8Z"/><path class="cls-6" d="M176.5,172.48v2.79h2.84a1.4,1.4,0,0,1,1.42-1.39,1.41,1.41,0,0,0,1.41-1.4h0a1.4,1.4,0,0,0-1.41-1.4,1.41,1.41,0,0,1-1.42-1.4H176.5v2.8Z"/><path class="cls-6" d="M185,169.68v-2.8h-2.84a1.41,1.41,0,0,1-1.42,1.4,1.4,1.4,0,1,0,0,2.8,1.4,1.4,0,0,1,1.42,1.39H185Z"/><path class="cls-6" d="M185,164.08v-2.8h-2.84a1.41,1.41,0,0,1-1.42,1.4,1.4,1.4,0,0,0-1.41,1.4h0a1.41,1.41,0,0,0,1.41,1.4,1.4,1.4,0,0,1,1.42,1.4H185v-2.8Z"/><path class="cls-6" d="M176.5,166.88v2.8h2.84a1.4,1.4,0,0,1,1.42-1.4,1.41,1.41,0,0,0,1.41-1.4h0a1.4,1.4,0,0,0-1.41-1.4,1.41,1.41,0,0,1-1.42-1.4H176.5v2.8Z"/><path class="cls-6" d="M185,164.08v-2.8h-2.84a1.41,1.41,0,0,1-1.42,1.4,1.4,1.4,0,1,0,0,2.8,1.4,1.4,0,0,1,1.42,1.4H185Z"/><path class="cls-6" d="M185,158.48v-2.8h-2.84a1.41,1.41,0,0,1-1.42,1.4,1.41,1.41,0,0,0-1.41,1.4h0a1.41,1.41,0,0,0,1.41,1.4,1.41,1.41,0,0,1,1.42,1.4H185v-2.8Z"/><path class="cls-6" d="M176.5,161.28v2.8h2.84a1.4,1.4,0,0,1,1.42-1.4,1.41,1.41,0,0,0,1.41-1.4h0a1.41,1.41,0,0,0-1.41-1.4,1.41,1.41,0,0,1-1.42-1.4H176.5v2.8Z"/><path class="cls-6" d="M185,158.48v-2.8h-2.84a1.41,1.41,0,0,1-1.42,1.4,1.4,1.4,0,1,0,0,2.8,1.4,1.4,0,0,1,1.42,1.4H185Z"/><path class="cls-6" d="M185,152.88v-2.8h-2.84a1.41,1.41,0,0,1-1.42,1.4,1.41,1.41,0,0,0-1.41,1.4h0a1.41,1.41,0,0,0,1.41,1.4,1.41,1.41,0,0,1,1.42,1.4H185v-2.8Z"/><path class="cls-6" d="M176.5,155.68v2.8h2.84a1.41,1.41,0,0,1,1.42-1.4,1.41,1.41,0,0,0,1.41-1.4h0a1.41,1.41,0,0,0-1.41-1.4,1.41,1.41,0,0,1-1.42-1.4H176.5v2.8Z"/><path class="cls-6" d="M185,152.88v-2.8h-2.84a1.41,1.41,0,0,1-1.42,1.4,1.4,1.4,0,1,0,0,2.8,1.41,1.41,0,0,1,1.42,1.4H185Z"/><path class="cls-6" d="M185,147.28v-2.8h-2.84a1.4,1.4,0,0,1-1.42,1.4,1.41,1.41,0,0,0-1.41,1.4h0a1.4,1.4,0,0,0,1.41,1.4,1.41,1.41,0,0,1,1.42,1.4H185v-2.8Z"/><path class="cls-6" d="M176.5,150.08v2.8h2.84a1.41,1.41,0,0,1,1.42-1.4,1.41,1.41,0,0,0,1.41-1.4h0a1.41,1.41,0,0,0-1.41-1.4,1.41,1.41,0,0,1-1.42-1.4H176.5v2.8Z"/><path class="cls-6" d="M185,147.28v-2.8h-2.84a1.4,1.4,0,0,1-1.42,1.4,1.4,1.4,0,1,0,0,2.8,1.41,1.41,0,0,1,1.42,1.4H185Z"/><path class="cls-6" d="M185,141.68v-2.8h-2.84a1.4,1.4,0,0,1-1.42,1.4,1.41,1.41,0,0,0-1.41,1.4h0a1.4,1.4,0,0,0,1.41,1.4,1.41,1.41,0,0,1,1.42,1.4H185v-2.8Z"/><path class="cls-6" d="M176.5,144.48v2.8h2.84a1.41,1.41,0,0,1,1.42-1.4,1.4,1.4,0,0,0,1.41-1.4h0a1.41,1.41,0,0,0-1.41-1.4,1.4,1.4,0,0,1-1.42-1.4H176.5v2.8Z"/><path class="cls-6" d="M185,141.68v-2.8h-2.84a1.4,1.4,0,0,1-1.42,1.4,1.4,1.4,0,1,0,0,2.8,1.41,1.41,0,0,1,1.42,1.4H185Z"/><path class="cls-6" d="M185,136.08v-2.79h-2.84a1.41,1.41,0,0,1-1.42,1.4,1.4,1.4,0,0,0-1.41,1.39h0a1.41,1.41,0,0,0,1.41,1.4,1.4,1.4,0,0,1,1.42,1.39H185v-2.79Z"/><path class="cls-6" d="M176.5,138.88v2.8h2.84a1.41,1.41,0,0,1,1.42-1.4,1.4,1.4,0,0,0,1.41-1.4h0a1.41,1.41,0,0,0-1.41-1.4,1.4,1.4,0,0,1-1.42-1.4H176.5v2.8Z"/><path class="cls-6" d="M185,136.08v-2.79h-2.84a1.4,1.4,0,0,1-1.42,1.39,1.4,1.4,0,1,0,0,2.8,1.41,1.41,0,0,1,1.42,1.4H185Z"/><path class="cls-6" d="M185,130.49v-2.8h-2.84a1.41,1.41,0,0,1-1.42,1.4,1.4,1.4,0,0,0-1.41,1.4h0a1.41,1.41,0,0,0,1.41,1.4,1.4,1.4,0,0,1,1.42,1.4H185v-2.8Z"/><path class="cls-6" d="M176.5,133.29v2.79h2.84a1.4,1.4,0,0,1,1.42-1.39,1.41,1.41,0,0,0,1.41-1.4h0a1.4,1.4,0,0,0-1.41-1.4,1.41,1.41,0,0,1-1.42-1.4H176.5v2.8Z"/><path class="cls-6" d="M185,130.49v-2.8h-2.84a1.41,1.41,0,0,1-1.42,1.4,1.4,1.4,0,1,0,0,2.8,1.4,1.4,0,0,1,1.42,1.39H185Z"/><path class="cls-6" d="M185,124.89v-2.8h-2.84a1.41,1.41,0,0,1-1.42,1.4,1.4,1.4,0,0,0-1.41,1.4h0a1.41,1.41,0,0,0,1.41,1.4,1.4,1.4,0,0,1,1.42,1.4H185v-2.8Z"/><path class="cls-6" d="M176.5,127.69v2.8h2.84a1.4,1.4,0,0,1,1.42-1.4,1.41,1.41,0,0,0,1.41-1.4h0a1.4,1.4,0,0,0-1.41-1.4,1.41,1.41,0,0,1-1.42-1.4H176.5v2.8Z"/><path class="cls-6" d="M185,124.89v-2.8h-2.84a1.41,1.41,0,0,1-1.42,1.4,1.4,1.4,0,1,0,0,2.8,1.4,1.4,0,0,1,1.42,1.4H185Z"/><path class="cls-6" d="M185,119.29v-2.8h-2.84a1.41,1.41,0,0,1-1.42,1.4,1.41,1.41,0,0,0-1.41,1.4h0a1.41,1.41,0,0,0,1.41,1.4,1.41,1.41,0,0,1,1.42,1.4H185v-2.8Z"/><path class="cls-6" d="M176.5,122.09v2.8h2.84a1.4,1.4,0,0,1,1.42-1.4,1.41,1.41,0,0,0,1.41-1.4h0a1.41,1.41,0,0,0-1.41-1.4,1.41,1.41,0,0,1-1.42-1.4H176.5v2.8Z"/><path class="cls-6" d="M185,119.29v-2.8h-2.84a1.41,1.41,0,0,1-1.42,1.4,1.4,1.4,0,1,0,0,2.8,1.4,1.4,0,0,1,1.42,1.4H185Z"/><path class="cls-6" d="M185,113.69v-2.8h-2.84a1.41,1.41,0,0,1-1.42,1.4,1.41,1.41,0,0,0-1.41,1.4h0a1.41,1.41,0,0,0,1.41,1.4,1.41,1.41,0,0,1,1.42,1.4H185v-2.8Z"/><path class="cls-6" d="M176.5,116.49v2.8h2.84a1.41,1.41,0,0,1,1.42-1.4,1.41,1.41,0,0,0,1.41-1.4h0a1.41,1.41,0,0,0-1.41-1.4,1.41,1.41,0,0,1-1.42-1.4H176.5v2.8Z"/><path class="cls-6" d="M185,113.69v-2.8h-2.84a1.41,1.41,0,0,1-1.42,1.4,1.4,1.4,0,1,0,0,2.8,1.41,1.41,0,0,1,1.42,1.4H185Z"/><path class="cls-6" d="M185,108.09v-2.8h-2.84a1.4,1.4,0,0,1-1.42,1.4,1.41,1.41,0,0,0-1.41,1.4h0a1.4,1.4,0,0,0,1.41,1.4,1.41,1.41,0,0,1,1.42,1.4H185v-2.8Z"/><path class="cls-6" d="M176.5,110.89v2.8h2.84a1.41,1.41,0,0,1,1.42-1.4,1.41,1.41,0,0,0,1.41-1.4h0a1.41,1.41,0,0,0-1.41-1.4,1.41,1.41,0,0,1-1.42-1.4H176.5v2.8Z"/><path class="cls-6" d="M185,108.09v-2.8h-2.84a1.4,1.4,0,0,1-1.42,1.4,1.4,1.4,0,1,0,0,2.8,1.41,1.41,0,0,1,1.42,1.4H185Z"/><path class="cls-6" d="M185,102.49v-2.8h-2.84a1.4,1.4,0,0,1-1.42,1.4,1.41,1.41,0,0,0-1.41,1.4h0a1.4,1.4,0,0,0,1.41,1.4,1.41,1.41,0,0,1,1.42,1.4H185v-2.8Z"/><path class="cls-6" d="M176.5,105.29v2.8h2.84a1.41,1.41,0,0,1,1.42-1.4,1.4,1.4,0,0,0,1.41-1.4h0a1.41,1.41,0,0,0-1.41-1.4,1.4,1.4,0,0,1-1.42-1.4H176.5v2.8Z"/><path class="cls-6" d="M185,102.49v-2.8h-2.84a1.4,1.4,0,0,1-1.42,1.4,1.4,1.4,0,1,0,0,2.8,1.41,1.41,0,0,1,1.42,1.4H185Z"/><path class="cls-6" d="M185,96.89V94.1h-2.84a1.41,1.41,0,0,1-1.42,1.4,1.4,1.4,0,0,0-1.41,1.39h0a1.4,1.4,0,0,0,1.41,1.39,1.41,1.41,0,0,1,1.42,1.4H185V96.9Z"/><path class="cls-6" d="M176.5,99.69v2.8h2.84a1.41,1.41,0,0,1,1.42-1.4,1.4,1.4,0,0,0,1.41-1.4h0a1.41,1.41,0,0,0-1.41-1.4,1.4,1.4,0,0,1-1.42-1.4H176.5v2.8Z"/><path class="cls-6" d="M185,96.89V94.1h-2.84a1.4,1.4,0,0,1-1.42,1.39,1.4,1.4,0,1,0,0,2.8,1.41,1.41,0,0,1,1.42,1.4H185Z"/><path class="cls-6" d="M185,91.3V88.5h-2.84a1.41,1.41,0,0,1-1.42,1.4,1.4,1.4,0,0,0-1.41,1.4h0a1.41,1.41,0,0,0,1.41,1.4,1.4,1.4,0,0,1,1.42,1.4H185V91.3Z"/><path class="cls-6" d="M176.5,94.1v2.79h2.84a1.4,1.4,0,0,1,1.42-1.39,1.41,1.41,0,0,0,1.41-1.4h0a1.4,1.4,0,0,0-1.41-1.4,1.41,1.41,0,0,1-1.42-1.4H176.5v2.8Z"/><path class="cls-6" d="M185,91.3V88.5h-2.84a1.41,1.41,0,0,1-1.42,1.4,1.4,1.4,0,1,0,0,2.8,1.4,1.4,0,0,1,1.42,1.39H185Z"/><path class="cls-6" d="M185,85.7V82.9h-2.84a1.41,1.41,0,0,1-1.42,1.4,1.4,1.4,0,0,0-1.41,1.4h0a1.41,1.41,0,0,0,1.41,1.4,1.4,1.4,0,0,1,1.42,1.4H185V85.7Z"/><path class="cls-6" d="M176.5,88.5v2.8h2.84a1.4,1.4,0,0,1,1.42-1.4,1.41,1.41,0,0,0,1.41-1.4h0a1.4,1.4,0,0,0-1.41-1.4,1.41,1.41,0,0,1-1.42-1.4H176.5v2.8Z"/><path class="cls-6" d="M185,85.7V82.9h-2.84a1.41,1.41,0,0,1-1.42,1.4,1.4,1.4,0,1,0,0,2.8,1.4,1.4,0,0,1,1.42,1.4H185Z"/><path class="cls-6" d="M185,80.1V77.3h-2.84a1.41,1.41,0,0,1-1.42,1.4,1.41,1.41,0,0,0-1.41,1.4h0a1.41,1.41,0,0,0,1.41,1.4,1.41,1.41,0,0,1,1.42,1.4H185V80.1Z"/><path class="cls-6" d="M176.5,82.9v2.8h2.84a1.4,1.4,0,0,1,1.42-1.4,1.41,1.41,0,0,0,1.41-1.4h0a1.41,1.41,0,0,0-1.41-1.4,1.41,1.41,0,0,1-1.42-1.4H176.5v2.8Z"/><path class="cls-6" d="M185,80.1V77.3h-2.84a1.41,1.41,0,0,1-1.42,1.4,1.4,1.4,0,1,0,0,2.8,1.4,1.4,0,0,1,1.42,1.4H185Z"/><path class="cls-6" d="M185,74.5V71.7h-2.84a1.41,1.41,0,0,1-1.42,1.4,1.41,1.41,0,0,0-1.41,1.4h0a1.41,1.41,0,0,0,1.41,1.4,1.41,1.41,0,0,1,1.42,1.4H185V74.5Z"/><path class="cls-6" d="M176.5,77.3v2.8h2.84a1.41,1.41,0,0,1,1.42-1.4,1.41,1.41,0,0,0,1.41-1.4h0a1.41,1.41,0,0,0-1.41-1.4,1.41,1.41,0,0,1-1.42-1.4H176.5v2.8Z"/><path class="cls-6" d="M185,74.5V71.7h-2.84a1.41,1.41,0,0,1-1.42,1.4,1.4,1.4,0,1,0,0,2.8,1.41,1.41,0,0,1,1.42,1.4H185Z"/><path class="cls-6" d="M185,68.9V66.1h-2.84a1.4,1.4,0,0,1-1.42,1.4,1.41,1.41,0,0,0-1.41,1.4h0a1.4,1.4,0,0,0,1.41,1.4,1.41,1.41,0,0,1,1.42,1.4H185V68.9Z"/><path class="cls-6" d="M176.5,71.7v2.8h2.84a1.41,1.41,0,0,1,1.42-1.4,1.41,1.41,0,0,0,1.41-1.4h0a1.41,1.41,0,0,0-1.41-1.4,1.41,1.41,0,0,1-1.42-1.4H176.5v2.8Z"/><path class="cls-6" d="M185,68.9V66.1h-2.84a1.41,1.41,0,0,1-1.42,1.4,1.4,1.4,0,1,0,0,2.8,1.41,1.41,0,0,1,1.42,1.4H185Z"/><path class="cls-6" d="M185,63.3V60.5h-2.84a1.4,1.4,0,0,1-1.42,1.4,1.41,1.41,0,0,0-1.41,1.4h0a1.4,1.4,0,0,0,1.41,1.4,1.41,1.41,0,0,1,1.42,1.4H185V63.3Z"/><path class="cls-6" d="M176.5,66.1v2.8h2.84a1.41,1.41,0,0,1,1.42-1.4,1.4,1.4,0,0,0,1.41-1.4h0a1.41,1.41,0,0,0-1.41-1.4,1.4,1.4,0,0,1-1.42-1.4H176.5v2.8Z"/><path class="cls-6" d="M185,63.3V60.5h-2.84a1.4,1.4,0,0,1-1.42,1.4,1.4,1.4,0,1,0,0,2.8,1.41,1.41,0,0,1,1.42,1.4H185Z"/><path class="cls-6" d="M185,57.7V54.91h-2.84a1.41,1.41,0,0,1-1.42,1.4,1.4,1.4,0,0,0-1.41,1.39h0a1.4,1.4,0,0,0,1.41,1.39,1.41,1.41,0,0,1,1.42,1.4H185V57.71Z"/><path class="cls-6" d="M176.5,60.5v2.8h2.84a1.41,1.41,0,0,1,1.42-1.4,1.4,1.4,0,0,0,1.41-1.4h0a1.41,1.41,0,0,0-1.41-1.4,1.4,1.4,0,0,1-1.42-1.4H176.5v2.8Z"/><path class="cls-6" d="M185,57.7V54.9h-2.84a1.4,1.4,0,0,1-1.42,1.4,1.4,1.4,0,1,0,0,2.8,1.41,1.41,0,0,1,1.42,1.4H185Z"/><path class="cls-6" d="M185,52.11v-2.8h-2.84a1.41,1.41,0,0,1-1.42,1.4,1.4,1.4,0,0,0-1.41,1.4h0a1.41,1.41,0,0,0,1.41,1.4,1.4,1.4,0,0,1,1.42,1.4H185v-2.8Z"/><path class="cls-6" d="M176.5,54.91V57.7h2.84a1.4,1.4,0,0,1,1.42-1.39,1.41,1.41,0,0,0,1.41-1.4h0a1.4,1.4,0,0,0-1.41-1.39,1.41,1.41,0,0,1-1.42-1.4H176.5V54.9Z"/><path class="cls-6" d="M185,52.11v-2.8h-2.84a1.41,1.41,0,0,1-1.42,1.4,1.4,1.4,0,1,0,0,2.8,1.4,1.4,0,0,1,1.42,1.39H185Z"/><path class="cls-6" d="M185,46.51v-2.8h-2.84a1.41,1.41,0,0,1-1.42,1.4,1.4,1.4,0,0,0-1.41,1.4h0a1.41,1.41,0,0,0,1.41,1.4,1.4,1.4,0,0,1,1.42,1.4H185v-2.8Z"/><path class="cls-6" d="M176.5,49.31v2.8h2.84a1.4,1.4,0,0,1,1.42-1.4,1.41,1.41,0,0,0,1.41-1.4h0a1.4,1.4,0,0,0-1.41-1.4,1.41,1.41,0,0,1-1.42-1.4H176.5v2.8Z"/><path class="cls-6" d="M185,46.51v-2.8h-2.84a1.41,1.41,0,0,1-1.42,1.4,1.4,1.4,0,1,0,0,2.8,1.4,1.4,0,0,1,1.42,1.4H185Z"/><path class="cls-6" d="M185,40.91v-2.8h-2.84a1.41,1.41,0,0,1-1.42,1.4,1.41,1.41,0,0,0-1.41,1.4h0a1.41,1.41,0,0,0,1.41,1.4,1.41,1.41,0,0,1,1.42,1.4H185v-2.8Z"/><path class="cls-6" d="M176.5,43.71v2.8h2.84a1.4,1.4,0,0,1,1.42-1.4,1.41,1.41,0,0,0,1.41-1.4h0a1.4,1.4,0,0,0-1.41-1.4,1.41,1.41,0,0,1-1.42-1.4H176.5v2.8Z"/><path class="cls-6" d="M185,40.91v-2.8h-2.84a1.41,1.41,0,0,1-1.42,1.4,1.4,1.4,0,1,0,0,2.8,1.4,1.4,0,0,1,1.42,1.4H185Z"/><path class="cls-6" d="M185,35.31v-2.8h-2.84a1.41,1.41,0,0,1-1.42,1.4,1.41,1.41,0,0,0-1.41,1.4h0a1.41,1.41,0,0,0,1.41,1.4,1.41,1.41,0,0,1,1.42,1.4H185v-2.8Z"/><path class="cls-6" d="M176.5,38.11v2.8h2.84a1.41,1.41,0,0,1,1.42-1.4,1.41,1.41,0,0,0,1.41-1.4h0a1.41,1.41,0,0,0-1.41-1.4,1.41,1.41,0,0,1-1.42-1.4H176.5v2.8Z"/><line class="cls-8" x1="185.28" y1="248.49" x2="185.28" y2="34.46"/><line class="cls-4" x1="183.91" y1="247.09" x2="183.91" y2="244.27"/><line class="cls-4" x1="183.91" y1="241.45" x2="183.91" y2="238.64"/><line class="cls-4" x1="183.91" y1="235.82" x2="183.91" y2="233.01"/><line class="cls-4" x1="183.91" y1="230.19" x2="183.91" y2="227.37"/><line class="cls-4" x1="183.91" y1="224.56" x2="183.91" y2="221.74"/><line class="cls-4" x1="183.91" y1="218.92" x2="183.91" y2="216.11"/><line class="cls-4" x1="183.91" y1="213.29" x2="183.91" y2="210.48"/><line class="cls-4" x1="183.91" y1="207.66" x2="183.91" y2="204.84"/><line class="cls-4" x1="183.91" y1="202.03" x2="183.91" y2="199.21"/><line class="cls-4" x1="183.91" y1="196.39" x2="183.91" y2="193.58"/><line class="cls-4" x1="183.91" y1="190.76" x2="183.91" y2="187.95"/><line class="cls-4" x1="183.91" y1="185.13" x2="183.91" y2="182.31"/><line class="cls-4" x1="183.91" y1="179.5" x2="183.91" y2="176.68"/><line class="cls-4" x1="183.91" y1="173.86" x2="183.91" y2="171.05"/><line class="cls-4" x1="183.91" y1="168.23" x2="183.91" y2="165.42"/><line class="cls-4" x1="183.91" y1="162.6" x2="183.91" y2="159.78"/><line class="cls-4" x1="183.91" y1="156.97" x2="183.91" y2="154.15"/><line class="cls-4" x1="183.91" y1="151.34" x2="183.91" y2="148.52"/><line class="cls-4" x1="183.91" y1="145.7" x2="183.91" y2="142.89"/><line class="cls-4" x1="183.91" y1="140.07" x2="183.91" y2="137.25"/><line class="cls-4" x1="183.91" y1="134.44" x2="183.91" y2="131.62"/><line class="cls-4" x1="183.91" y1="128.81" x2="183.91" y2="125.99"/><line class="cls-4" x1="183.91" y1="123.17" x2="183.91" y2="120.36"/><line class="cls-4" x1="183.91" y1="117.54" x2="183.91" y2="114.73"/><line class="cls-4" x1="183.91" y1="111.91" x2="183.91" y2="109.09"/><line class="cls-4" x1="183.91" y1="106.28" x2="183.91" y2="103.46"/><line class="cls-4" x1="183.91" y1="100.64" x2="183.91" y2="97.83"/><line class="cls-4" x1="183.91" y1="95.01" x2="183.91" y2="92.2"/><line class="cls-4" x1="183.91" y1="89.38" x2="183.91" y2="86.56"/><line class="cls-4" x1="183.91" y1="83.75" x2="183.91" y2="80.93"/><line class="cls-4" x1="183.91" y1="78.11" x2="183.91" y2="75.3"/><line class="cls-4" x1="183.91" y1="72.48" x2="183.91" y2="69.67"/><line class="cls-4" x1="183.91" y1="66.85" x2="183.91" y2="64.03"/><line class="cls-4" x1="183.91" y1="61.22" x2="183.91" y2="58.4"/><line class="cls-4" x1="183.91" y1="55.58" x2="183.91" y2="52.77"/><line class="cls-4" x1="183.91" y1="49.95" x2="183.91" y2="47.14"/><line class="cls-4" x1="183.91" y1="44.32" x2="183.91" y2="41.5"/><line class="cls-4" x1="183.91" y1="38.69" x2="183.91" y2="35.87"/><line class="cls-8" x1="176.3" y1="248.49" x2="176.3" y2="33.87"/><line class="cls-4" x1="177.49" y1="247.08" x2="177.49" y2="244.26"/><line class="cls-4" x1="177.49" y1="241.44" x2="177.49" y2="238.62"/><line class="cls-4" x1="177.49" y1="235.8" x2="177.49" y2="232.98"/><line class="cls-4" x1="177.49" y1="230.16" x2="177.49" y2="227.33"/><line class="cls-4" x1="177.49" y1="224.51" x2="177.49" y2="221.69"/><line class="cls-4" x1="177.49" y1="218.87" x2="177.49" y2="216.05"/><line class="cls-4" x1="177.49" y1="213.23" x2="177.49" y2="210.41"/><line class="cls-4" x1="177.49" y1="207.58" x2="177.49" y2="204.76"/><line class="cls-4" x1="177.49" y1="201.94" x2="177.49" y2="199.12"/><line class="cls-4" x1="177.49" y1="196.3" x2="177.49" y2="193.48"/><line class="cls-4" x1="177.49" y1="190.66" x2="177.49" y2="187.84"/><line class="cls-4" x1="177.49" y1="185.01" x2="177.49" y2="182.19"/><line class="cls-4" x1="177.49" y1="179.37" x2="177.49" y2="176.55"/><line class="cls-4" x1="177.49" y1="173.73" x2="177.49" y2="170.91"/><line class="cls-4" x1="177.49" y1="168.09" x2="177.49" y2="165.26"/><line class="cls-4" x1="177.49" y1="162.44" x2="177.49" y2="159.62"/><line class="cls-4" x1="177.49" y1="156.8" x2="177.49" y2="153.98"/><line class="cls-4" x1="177.49" y1="151.16" x2="177.49" y2="148.34"/><line class="cls-4" x1="177.49" y1="145.51" x2="177.49" y2="142.69"/><line class="cls-4" x1="177.49" y1="139.87" x2="177.49" y2="137.05"/><line class="cls-4" x1="177.49" y1="134.23" x2="177.49" y2="131.41"/><line class="cls-4" x1="177.49" y1="128.59" x2="177.49" y2="125.77"/><line class="cls-4" x1="177.49" y1="122.94" x2="177.49" y2="120.12"/><line class="cls-4" x1="177.49" y1="117.3" x2="177.49" y2="114.48"/><line class="cls-4" x1="177.49" y1="111.66" x2="177.49" y2="108.84"/><line class="cls-4" x1="177.49" y1="106.02" x2="177.49" y2="103.19"/><line class="cls-4" x1="177.49" y1="100.37" x2="177.49" y2="97.55"/><line class="cls-4" x1="177.49" y1="94.73" x2="177.49" y2="91.91"/><line class="cls-4" x1="177.49" y1="89.09" x2="177.49" y2="86.27"/><line class="cls-4" x1="177.49" y1="83.44" x2="177.49" y2="80.62"/><line class="cls-4" x1="177.49" y1="77.8" x2="177.49" y2="74.98"/><line class="cls-4" x1="177.49" y1="72.16" x2="177.49" y2="69.34"/><line class="cls-4" x1="177.49" y1="66.52" x2="177.49" y2="63.7"/><line class="cls-4" x1="177.49" y1="60.87" x2="177.49" y2="58.05"/><line class="cls-4" x1="177.49" y1="55.23" x2="177.49" y2="52.41"/><line class="cls-4" x1="177.49" y1="49.59" x2="177.49" y2="46.77"/><line class="cls-4" x1="177.49" y1="43.95" x2="177.49" y2="41.13"/><line class="cls-4" x1="177.49" y1="38.3" x2="177.49" y2="35.48"/><path class="cls-9" d="M180.76,39.65c-.47,0-1.61-.5-2-2.89a2,2,0,1,1,4,0c-.38,2.39-1.51,2.93-2,2.89"/><path class="cls-10" d="M180.75,39.7a2,2,0,0,1-1.8-.89,5.12,5.12,0,0,1-.88-1.84,2.72,2.72,0,0,1,.38-2.41,2.66,2.66,0,0,1,1.11-.78,3.78,3.78,0,0,1,1.23-.22h-.07a3.59,3.59,0,0,1,1.24.23,2.57,2.57,0,0,1,1.1.78,2.73,2.73,0,0,1,.37,2.42,5.18,5.18,0,0,1-.87,1.84,1.89,1.89,0,0,1-1.81.87v-.1a1.75,1.75,0,0,0,1.34-1,5.28,5.28,0,0,0,.55-1.71,2,2,0,0,0-.31-1.67,2.06,2.06,0,0,0-1.58-.62h0a2,2,0,0,0-1.57.61,2,2,0,0,0-.31,1.67,4.85,4.85,0,0,0,.55,1.7,1.94,1.94,0,0,0,1.34,1.06Z"/><path class="cls-9" d="M180.81,38.24c2.62.07,1.31,2.95.69,4.06l-1.66,0C179.59,41.49,178.19,38.18,180.81,38.24Zm0,.35C179.21,38.53,180,40,180,40l1.56,0S182.48,38.65,180.84,38.59Zm.52,2.68-1.32,0,0,.72,1.32,0Z"/><path class="cls-10" d="M180.81,38.19a1.85,1.85,0,0,1,1.26.4,1.67,1.67,0,0,1,.43,1.28,5.39,5.39,0,0,1-.25,1.33,8.39,8.39,0,0,1-.46,1.27l-.3.18-.42.24a2.35,2.35,0,0,1-.42.21,1.54,1.54,0,0,1-.42.07,1.42,1.42,0,0,1-.41-.08l-.72-.36,0-.22a9.14,9.14,0,0,1-.19-1.31,6.57,6.57,0,0,1,0-1.4,2.12,2.12,0,0,1,.64-1.28A1.84,1.84,0,0,1,180.81,38.19Zm0,.1a1.54,1.54,0,0,0-1.14.36,1.58,1.58,0,0,0-.36,1.14,8.55,8.55,0,0,0,.61,2.45l-.08-.07c.55,0,1.1,0,1.66.06l-.07,0a6.44,6.44,0,0,0,.88-2.41,1.43,1.43,0,0,0-.33-1.17A1.73,1.73,0,0,0,180.81,38.29Z"/><path class="cls-10" d="M180.84,38.64a1.15,1.15,0,0,0-.5.11.3.3,0,0,0-.19.34.73.73,0,0,0,.19.29,1,1,0,0,0,.32.25l-.62-.38a2.16,2.16,0,0,1,.78-.15,2.23,2.23,0,0,1,.78.19l-.63.33a.92.92,0,0,0,.33-.21.61.61,0,0,0,.21-.28.33.33,0,0,0-.18-.35A1.32,1.32,0,0,0,180.84,38.64Zm0-.1a2.43,2.43,0,0,1,.54.08.77.77,0,0,1,.45.36,1.24,1.24,0,0,1-.18,1.09l0,0h0c-.52,0-1,0-1.56,0H180l0,0a1.29,1.29,0,0,1-.12-1.1.67.67,0,0,1,.46-.33A2.05,2.05,0,0,1,180.84,38.54Z"/><path class="cls-10" d="M181.33,41.3a4.09,4.09,0,0,0-1.31.54l.62-.59.28.72-.88-.92,1.31.59L181,42A2.13,2.13,0,0,0,181.33,41.3Zm.07-.07v.82h-1.5V42l0-.72v-.08H180Z"/><path class="cls-9" d="M181.87,38.88a1,1,0,0,1-1,.85h0a1,1,0,0,1-1-.85V35.81a1,1,0,0,1,1-.85h0a1,1,0,0,1,1,.85Z"/><path class="cls-10" d="M181.92,38.88a1.12,1.12,0,0,1-1.11,1,1.41,1.41,0,0,1-.9-.17,1.25,1.25,0,0,1-.38-.38,1.51,1.51,0,0,1-.18-.53,12.92,12.92,0,0,1-.42-3,1.66,1.66,0,0,1,.74-1.33,1.88,1.88,0,0,1,1.24-.29,1.79,1.79,0,0,1,1.07.55,1.55,1.55,0,0,1,.33.55,1.4,1.4,0,0,1,0,.6A12.91,12.91,0,0,0,181.92,38.88Zm-.1,0,0-3a.94.94,0,0,0-1.86-.07l0,3a.85.85,0,0,0,.91.85A.9.9,0,0,0,181.82,38.88Z"/><path class="cls-9" d="M180.93,48.36c-2.9.12-1.12-4.56-1.12-4.56l0-.81,1.78-.11.08.82S183.82,48.24,180.93,48.36Zm.44-5.3-1.31.06,0,.64,1.31,0Zm-.52,2.76A1.1,1.1,0,0,0,179.78,47,1.12,1.12,0,0,0,181,48,1.1,1.1,0,0,0,182,46.88,1.12,1.12,0,0,0,180.85,45.82Z"/><path class="cls-10" d="M180.93,48.41a1.51,1.51,0,0,1-1.31-.49,2.23,2.23,0,0,1-.42-1.36,8.84,8.84,0,0,1,.53-2.79v0c0-.14-.07-.27-.1-.4a2.78,2.78,0,0,0-.16-.4l-.1-.26.38-.06,1.77-.25.47.4.26.18a.9.9,0,0,1,.2.18c0,.07.07.13.05.21a.4.4,0,0,1-.08.21l-.08-.26a7.34,7.34,0,0,1,.33,1.5,7,7,0,0,1,.07,1.52,2.91,2.91,0,0,1-.48,1.46A1.66,1.66,0,0,1,180.93,48.41Zm0-.1a1.41,1.41,0,0,0,1.17-.57,2.17,2.17,0,0,0,.25-1.33,8.33,8.33,0,0,0-.8-2.67h0v0a5.67,5.67,0,0,1-.07-.82l.08.06-1.79.11.07-.07,0,.81h0a8.29,8.29,0,0,0-.54,2.73,2.18,2.18,0,0,0,.38,1.3A1.42,1.42,0,0,0,180.93,48.31Z"/><path class="cls-10" d="M181.34,43.1a4,4,0,0,0-1.25.64l.59-.65.31.62-.93-.85,1.33.52-.32.34A1.73,1.73,0,0,0,181.34,43.1Zm.06-.07.07.67v.07h-.06l-1.31.09H180V43h1.43Z"/><path class="cls-10" d="M180.85,45.87a.8.8,0,0,0-.66.42.66.66,0,0,0,.07.66.45.45,0,0,0,.41.21l.25,0h.25a.46.46,0,0,0,.39-.24.69.69,0,0,0,0-.67A.82.82,0,0,0,180.85,45.87Zm0-.1a1.19,1.19,0,0,1,1.26,1.1,1.2,1.2,0,1,1-2.4.11A1.16,1.16,0,0,1,180.85,45.77Z"/><path class="cls-9" d="M181.25,43.23a.42.42,0,0,1-.44.39h0a.42.42,0,0,1-.44-.39V41.82a.42.42,0,0,1,.44-.39h0a.42.42,0,0,1,.44.39Z"/><path class="cls-10" d="M181.3,43.23a.59.59,0,0,1-.52.56.76.76,0,0,1-.52-.08.61.61,0,0,1-.24-.24,1.63,1.63,0,0,1-.12-.29,3,3,0,0,1-.42-1.36,1.2,1.2,0,0,1,1.4-1.17,1.17,1.17,0,0,1,.71.47,1,1,0,0,1,.16.41.53.53,0,0,1,0,.34A3.15,3.15,0,0,0,181.3,43.23Zm-.1,0,0-1.36a.34.34,0,0,0-.35-.35.34.34,0,0,0-.36.3l0,1.36a.35.35,0,0,0,.34.38A.37.37,0,0,0,181.2,43.23Z"/><path class="cls-11" d="M272.67,372.83c-1.81-6.63-5.28-15.77-8.46-26.06-5.13-16.61-11.5-34.63-15.23-44.93-1.91-5.28-3.12-8.55-3.12-8.55s-20.36-19.78-62.74-19.78-59.56,19-61.29,18.4l-.11,0c-.67,1.18-12.39,32.73-20,58.44-2.41,8.12-4.94,15.45-6.46,21.08a28.93,28.93,0,0,0-1.37,8.48c6.76,7.35,8.07,10.08,12.13,17.72.51,1,1.08,2,1.76,3.2.41.72.87,1.49,1.37,2.31l.18.28c7.93,12.6,62.57,24.25,69.62,18.73a5.89,5.89,0,0,0,2.47-3.05s0-.05,0-.08c.21-.83.39-1.77.56-2.78a145.86,145.86,0,0,0,1.47-15.2c.11-2.29.21-4.6.28-6.86.06,2.26.17,4.58.34,6.88.44,6.23,1.32,12.27,3,16.46.08.2.15.42.24.62a19.33,19.33,0,0,0,.83,1.77,3.35,3.35,0,0,0,.42.57c7.74,10,63.61-8.38,69.73-15.76l.34-.38c.09-.12.19-.22.28-.34,4.06-4.94,7.18-14.92,15-23.4A25.64,25.64,0,0,0,272.67,372.83Z"/><path class="cls-12" d="M136.7,514.39c-37.93-111.13-15.1-212.56-12.59-223-1.64-.41-2.52-.66-2.52-.66S93.91,397.29,134,514.62c-2.94,22,.46,36.26,2.74,42.8,1.41,1,2.74,1.94,4,3C139,556.56,133.12,541.29,136.7,514.39Z"/><path class="cls-12" d="M141.2,561.4s-.19-.36-.49-1c-1.27-1-2.6-2-4-3a32,32,0,0,0,1.75,4.21s-15.07,64.21,12.32,149.48c.93-.24,1.79-.44,2.62-.64C126.18,625.41,141.2,561.4,141.2,561.4Z"/><path class="cls-2" d="M225.21,561a.83.83,0,0,1,0-.14s8.68-15.62,4.49-47c38.73-113.4,14.16-216.71,12.47-223.49-46.91,17.34-105.3,4.26-118,1-2.51,10.4-25.34,111.83,12.59,223-3.58,26.9,2.26,42.17,4,46,17.59,14.27,23.6,36,39.27,38.84-.65-9.47-1.93-16.93-4.17-20.79,7.64-17.86-.67-137.42,7.59-203.22-.07-.67-.16-1.35-.24-2,.08.66.17,1.34.24,2,0-.18,0-.36.07-.53,0,.17,0,.35-.07.53,8,66.1-.16,184,7.42,201.74-2.35,4.07-3.65,12.1-4.27,22.31C202.12,596.6,208.15,575.37,225.21,561Z"/><path class="cls-2" d="M225.21,561c-17.06,14.33-23.09,35.56-38.66,38.24-2.11,35,3.76,95.35,2.71,108.63,10.18-1.22,13.66-1.38,24,1.09C239.36,626.66,225.93,564.29,225.21,561Z"/><path class="cls-2" d="M140.71,560.4c.3.64.49,1,.49,1s-15,64,12.19,149.07c10.33-2.47,13.81-2.3,24-1.08-1.07-13.48,5-75.45,2.61-110.15C164.31,596.4,158.3,574.67,140.71,560.4Z"/><path class="cls-12" d="M229.66,513.88c4.19,31.4-4.49,47-4.49,47a.83.83,0,0,0,0,.14q1.88-1.57,3.94-3c2.14-5.22,6.82-20.11,3.53-44.87,40.05-117.34,12.37-223.86,12.37-223.86-1,.39-1.94.74-2.92,1.1C243.82,297.17,268.39,400.48,229.66,513.88Z"/><path class="cls-12" d="M225.21,561c.72,3.25,14.15,65.62-12,148l2.6.64c27.4-85.27,12.32-149.48,12.32-149.48s.4-.74,1-2.14Q227.08,559.46,225.21,561Z"/><path class="cls-11" d="M245.88,293.58s-20.35-19.79-62.74-19.79-59.56,19-61.29,18.42l3.24-15.89c1.4-.85,15.67-17.29,58-17.29s59.43,18.47,59.43,18.47Z"/><line class="cls-4" x1="127.32" y1="276.74" x2="129.54" y2="275.04"/><path class="cls-4" d="M131.8,273.38c.75-.55,1.53-1.06,2.31-1.58"/><path class="cls-4" d="M136.5,270.35c.81-.47,1.62-.93,2.46-1.34"/><path class="cls-4" d="M141.47,267.78c.85-.39,1.7-.78,2.57-1.11"/><line class="cls-4" x1="146.65" y1="265.65" x2="149.29" y2="264.73"/><path class="cls-4" d="M152,263.94c.89-.28,1.8-.49,2.7-.72"/><line class="cls-4" x1="157.41" y1="262.58" x2="160.16" y2="262.04"/><line class="cls-4" x1="162.91" y1="261.56" x2="165.68" y2="261.15"/><line class="cls-4" x1="168.47" y1="260.84" x2="171.25" y2="260.55"/><line class="cls-4" x1="174.04" y1="260.37" x2="176.84" y2="260.2"/><line class="cls-4" x1="179.64" y1="260.13" x2="182.44" y2="260.07"/><line class="cls-4" x1="185.24" y1="260.11" x2="188.03" y2="260.19"/><line class="cls-4" x1="190.83" y1="260.3" x2="193.62" y2="260.52"/><line class="cls-4" x1="196.41" y1="260.74" x2="199.19" y2="261.09"/><path class="cls-4" d="M202,261.46c.92.11,1.83.33,2.75.48"/><path class="cls-4" d="M207.48,262.46c.92.15,1.81.42,2.72.62"/><path class="cls-4" d="M212.93,263.74c.9.24,1.79.52,2.68.79"/><line class="cls-4" x1="218.29" y1="265.35" x2="220.92" y2="266.29"/><path class="cls-4" d="M223.53,267.3c.86.37,1.74.7,2.58,1.09"/><path class="cls-4" d="M228.64,269.59c.85.39,1.66.86,2.49,1.29"/><path class="cls-4" d="M233.56,272.27c.81.47,1.59,1,2.36,1.49"/><path class="cls-4" d="M238.22,275.37c.74.57,1.48,1.13,2.18,1.75"/><path class="cls-4" d="M243,288.71c-.75-.53-1.55-1-2.32-1.52"/><line class="cls-4" x1="238.3" y1="285.76" x2="235.87" y2="284.41"/><path class="cls-4" d="M233.4,283.14c-.82-.44-1.67-.8-2.51-1.2"/><path class="cls-4" d="M228.36,280.81c-.86-.35-1.7-.74-2.56-1.07"/><path class="cls-4" d="M223.2,278.75c-.86-.34-1.75-.61-2.62-.91"/><line class="cls-4" x1="217.94" y1="276.97" x2="215.27" y2="276.19"/><line class="cls-4" x1="212.59" y1="275.47" x2="209.9" y2="274.8"/><path class="cls-4" d="M207.18,274.23c-.91-.17-1.81-.39-2.73-.53"/><path class="cls-4" d="M201.71,273.26c-.92-.14-1.83-.31-2.75-.4"/><path class="cls-4" d="M196.2,272.54c-.92-.11-1.84-.22-2.76-.26"/><path class="cls-4" d="M190.67,272.08c-.93-.06-1.85-.13-2.78-.14"/><path class="cls-4" d="M185.12,271.88c-.93,0-1.85-.07-2.78,0"/><path class="cls-4" d="M179.56,271.92c-.92,0-1.85,0-2.77.08"/><path class="cls-4" d="M174,272.19c-.93.07-1.85.12-2.77.21"/><path class="cls-4" d="M168.49,272.72c-.92.12-1.84.2-2.76.34"/><path class="cls-4" d="M163,273.51c-.91.16-1.83.28-2.73.49"/><path class="cls-4" d="M157.54,274.57c-.91.18-1.81.4-2.7.64"/><path class="cls-4" d="M152.15,275.91c-.9.24-1.77.53-2.66.79"/><line class="cls-4" x1="146.84" y1="277.55" x2="144.22" y2="278.47"/><path class="cls-4" d="M141.63,279.47c-.86.34-1.72.68-2.56,1.07"/><line class="cls-4" x1="136.54" y1="281.68" x2="134.04" y2="282.89"/><path class="cls-4" d="M131.58,284.19c-.82.43-1.61.91-2.42,1.36"/><path class="cls-4" d="M126.78,287c-.78.49-1.56,1-2.33,1.5"/><path class="cls-1" d="M183.58,390.2c.26-8,.27-15.31.28-18.62C183.86,371.58,183.3,380.26,183.58,390.2Z"/><path class="cls-1" d="M183.28,397.05l.63,0c-.16-2.31-.27-4.63-.33-6.88C183.5,392.45,183.4,394.77,183.28,397.05Z"/><path class="cls-11" d="M266.29,371.71A132.6,132.6,0,0,0,263.8,345c-5.13-16.61-11.5-34.63-15.23-44.94-1.9-5.28-3.13-8.54-3.13-8.54s-2.19.69-6.15,1.67a232.74,232.74,0,0,1-28.46,5.09C243.82,316.28,259.46,350.45,266.29,371.71Z"/><path class="cls-11" d="M158,298.42a177.59,177.59,0,0,1-31.35-6.61c-1.73-.54-3.46-1.09-5.18-1.69l-.12,0c-.67,1.18-12.39,32.73-20,58.44a118.08,118.08,0,0,0-1.43,21.87C107.56,348.19,124.18,315,158,298.42Z"/><path class="cls-11" d="M210.83,298.25a225.6,225.6,0,0,1-52.87.17c-33.78,16.53-50.4,49.77-58.05,72,.31,8.56,1.86,17.39,5.73,25.41.51,1,1.09,2,1.76,3.19.42.73.87,1.49,1.36,2.31l.19.29c7.92,12.6,62.57,24.24,69.62,18.73a5.83,5.83,0,0,0,2.5-3.13c1.37-5.64,2-15.66,2.31-24.85-.27-9.93.3-18.6.3-18.6,0,3.3,0,10.64-.3,18.6.24,8.67,1.11,18.28,3.53,24,.26.61.54,1.22.83,1.76,6,11.34,63.92-7.67,70.16-15.18l.33-.39c5.77-9.44,7.81-20.34,8.06-30.79C259.46,350.45,243.82,316.28,210.83,298.25Z"/><path class="cls-4" d="M100.52,368.25c.06.95.12,1.91.21,2.86"/><path class="cls-4" d="M103.16,368.11c0,.92.11,1.84.2,2.76"/><path class="cls-4" d="M101,374c.12,1,.26,1.9.41,2.85"/><path class="cls-4" d="M103.65,373.63c.11.92.25,1.83.4,2.74"/><path class="cls-4" d="M102,379.63c.21.94.42,1.88.66,2.81"/><path class="cls-4" d="M104.56,379.09c.19.9.39,1.8.63,2.69"/><path class="cls-4" d="M103.42,385.22c.28.92.59,1.83.92,2.74"/><path class="cls-4" d="M105.94,384.44c.26.88.57,1.74.87,2.61"/><path class="cls-4" d="M105.41,390.64c.18.45.39.89.6,1.34a12.12,12.12,0,0,0,.65,1.3"/><path class="cls-4" d="M107.83,389.6c.18.43.37.83.56,1.24a11.57,11.57,0,0,0,.61,1.22"/><line class="cls-4" x1="108.05" y1="395.8" x2="109.5" y2="398.27"/><line class="cls-4" x1="110.34" y1="394.48" x2="111.74" y2="396.88"/><path class="cls-4" d="M111.45,400.69a9,9,0,0,0,1.12,1,12.88,12.88,0,0,0,1.16.94"/><path class="cls-4" d="M113.33,398.84a8.91,8.91,0,0,0,1,.88c.35.28.66.58,1,.83"/><path class="cls-4" d="M116.16,404.31c.82.53,1.68,1,2.52,1.45"/><path class="cls-4" d="M117.56,402.07c.75.49,1.57.91,2.37,1.36"/><path class="cls-4" d="M121.25,407.06c.88.4,1.74.81,2.62,1.19"/><path class="cls-4" d="M122.39,404.68c.84.38,1.67.78,2.53,1.14"/><path class="cls-4" d="M126.51,409.34c.89.34,1.77.7,2.67,1"/><path class="cls-4" d="M127.49,406.89c.87.33,1.72.68,2.6,1"/><path class="cls-4" d="M131.87,411.31c.9.3,1.8.62,2.7.9"/><path class="cls-4" d="M132.72,408.81c.89.3,1.77.61,2.66.88"/><line class="cls-4" x1="137.29" y1="413.05" x2="140.02" y2="413.84"/><line class="cls-4" x1="138.05" y1="410.52" x2="140.74" y2="411.3"/><line class="cls-4" x1="142.77" y1="414.59" x2="145.53" y2="415.29"/><line class="cls-4" x1="143.44" y1="412.03" x2="146.15" y2="412.72"/><line class="cls-4" x1="148.29" y1="415.94" x2="151.07" y2="416.55"/><line class="cls-4" x1="148.88" y1="413.37" x2="151.62" y2="413.97"/><line class="cls-4" x1="153.86" y1="417.11" x2="156.66" y2="417.63"/><line class="cls-4" x1="154.36" y1="414.52" x2="157.11" y2="415.03"/><line class="cls-4" x1="159.46" y1="418.1" x2="162.28" y2="418.51"/><line class="cls-4" x1="159.87" y1="415.49" x2="162.64" y2="415.89"/><path class="cls-4" d="M165.12,418.86c.95.09,1.9.19,2.85.26"/><path class="cls-4" d="M165.4,416.23c.93.09,1.85.19,2.77.26"/><path class="cls-4" d="M170.84,419.28c1,.05,1.93.05,2.9,0"/><path class="cls-4" d="M170.94,416.65c.92,0,1.83,0,2.74,0"/><path class="cls-4" d="M176.68,419.12a11.54,11.54,0,0,0,1.51-.24l.76-.17.79-.27"/><path class="cls-4" d="M176.36,416.5a8.36,8.36,0,0,0,1.28-.2l.62-.13.54-.19"/><path class="cls-4" d="M264.49,368.11c-.06.92-.12,1.84-.2,2.77"/><path class="cls-4" d="M267.12,368.25c-.06.95-.12,1.9-.2,2.86"/><path class="cls-4" d="M264,373.63c-.11.92-.25,1.83-.39,2.74"/><path class="cls-4" d="M266.61,374c-.11,1-.26,1.9-.41,2.85"/><path class="cls-4" d="M263.09,379.09c-.2.9-.4,1.8-.63,2.69"/><path class="cls-4" d="M265.67,379.63c-.2.94-.41,1.88-.66,2.81"/><path class="cls-4" d="M261.71,384.44c-.27.88-.57,1.74-.88,2.61"/><path class="cls-4" d="M264.23,385.22c-.28.92-.6,1.83-.92,2.74"/><path class="cls-4" d="M259.81,389.6c-.17.43-.37.83-.56,1.24a8.79,8.79,0,0,1-.61,1.23"/><path class="cls-4" d="M262.23,390.64c-.18.45-.39.89-.59,1.33a13.13,13.13,0,0,1-.65,1.3"/><line class="cls-4" x1="257.31" y1="394.49" x2="255.92" y2="396.85"/><line class="cls-4" x1="259.6" y1="395.8" x2="258.12" y2="398.3"/><path class="cls-4" d="M254.32,398.84a7.38,7.38,0,0,1-1,.88,12,12,0,0,1-1,.83"/><path class="cls-4" d="M256.2,400.69a9,9,0,0,1-1.12,1c-.39.32-.76.67-1.16.94"/><path class="cls-4" d="M250.09,402.07c-.75.5-1.58.91-2.37,1.37"/><path class="cls-4" d="M251.48,404.31c-.82.54-1.67,1-2.51,1.45"/><path class="cls-4" d="M245.26,404.68c-.85.38-1.68.78-2.53,1.14"/><path class="cls-4" d="M246.39,407.06c-.87.4-1.73.81-2.61,1.19"/><path class="cls-4" d="M240.16,406.89c-.87.33-1.73.68-2.6,1"/><path class="cls-4" d="M241.13,409.34c-.89.34-1.77.7-2.66,1"/><path class="cls-4" d="M234.92,408.82c-.88.29-1.76.6-2.65.87"/><path class="cls-4" d="M235.78,411.31c-.9.3-1.8.62-2.71.9"/><line class="cls-4" x1="229.6" y1="410.52" x2="226.91" y2="411.3"/><line class="cls-4" x1="230.35" y1="413.05" x2="227.62" y2="413.84"/><line class="cls-4" x1="224.21" y1="412.03" x2="221.49" y2="412.72"/><line class="cls-4" x1="224.88" y1="414.59" x2="222.12" y2="415.29"/><line class="cls-4" x1="218.77" y1="413.37" x2="216.03" y2="413.97"/><line class="cls-4" x1="219.35" y1="415.94" x2="216.58" y2="416.55"/><line class="cls-4" x1="213.29" y1="414.52" x2="210.54" y2="415.03"/><line class="cls-4" x1="213.79" y1="417.11" x2="210.99" y2="417.63"/><line class="cls-4" x1="207.78" y1="415.49" x2="205.01" y2="415.89"/><line class="cls-4" x1="208.18" y1="418.1" x2="205.36" y2="418.51"/><path class="cls-4" d="M202.24,416.23c-.92.09-1.84.19-2.77.26"/><path class="cls-4" d="M202.53,418.86c-.95.09-1.9.19-2.85.26"/><path class="cls-4" d="M196.71,416.65c-.92.05-1.83,0-2.74,0"/><path class="cls-4" d="M196.81,419.29c-1,0-1.93,0-2.9,0"/><path class="cls-4" d="M191.28,416.5a8.42,8.42,0,0,1-1.27-.2l-.62-.13-.54-.19"/><path class="cls-4" d="M191,419.12a11.67,11.67,0,0,1-1.5-.24l-.77-.17-.79-.27"/><path class="cls-8" d="M183.38,392.34c.27-8,.28-15.3.3-18.6C183.68,373.74,183.11,382.41,183.38,392.34Z"/><line class="cls-4" x1="160.42" y1="298.9" x2="157.99" y2="300.19"/><line class="cls-4" x1="155.55" y1="301.49" x2="153.2" y2="302.94"/><polyline class="cls-4" points="150.85 304.39 149.68 305.12 148.56 305.92"/><path class="cls-4" d="M146.31,307.52c-.74.54-1.51,1.05-2.24,1.61"/><line class="cls-4" x1="141.93" y1="310.87" x2="139.78" y2="312.6"/><line class="cls-4" x1="137.71" y1="314.43" x2="135.68" y2="316.29"/><line class="cls-4" x1="133.68" y1="318.2" x2="131.75" y2="320.17"/><line class="cls-4" x1="129.84" y1="322.16" x2="128.01" y2="324.23"/><line class="cls-4" x1="126.19" y1="326.3" x2="124.46" y2="328.45"/><path class="cls-4" d="M122.75,330.61c-.59.71-1.09,1.48-1.64,2.22"/><path class="cls-4" d="M119.5,335.07c-.55.74-1,1.52-1.55,2.29"/><path class="cls-4" d="M116.44,339.67c-.51.76-1,1.55-1.45,2.34"/><path class="cls-4" d="M113.58,344.39c-.48.78-.92,1.59-1.35,2.4"/><path class="cls-4" d="M110.91,349.22c-.44.8-.85,1.63-1.25,2.45"/><path class="cls-4" d="M108.44,354.15c-.42.82-.77,1.67-1.15,2.51"/><path class="cls-4" d="M106.17,359.18c-.37.84-.7,1.7-1,2.55"/><line class="cls-4" x1="104.1" y1="364.29" x2="103.16" y2="366.89"/><line class="cls-4" x1="208.9" y1="299.96" x2="211.35" y2="301.28"/><line class="cls-4" x1="213.8" y1="302.59" x2="216.14" y2="304.09"/><path class="cls-4" d="M218.48,305.59c.38.26.78.49,1.16.76l1.11.83"/><path class="cls-4" d="M223,308.85c.73.57,1.5,1.08,2.2,1.69"/><line class="cls-4" x1="227.29" y1="312.36" x2="229.39" y2="314.17"/><line class="cls-4" x1="231.39" y1="316.1" x2="233.37" y2="318.05"/><line class="cls-4" x1="235.28" y1="320.07" x2="237.14" y2="322.14"/><line class="cls-4" x1="238.96" y1="324.23" x2="240.7" y2="326.4"/><line class="cls-4" x1="242.43" y1="328.58" x2="244.05" y2="330.84"/><path class="cls-4" d="M245.67,333.1c.53.75,1,1.55,1.52,2.32"/><path class="cls-4" d="M248.7,337.75c.52.77,1,1.59,1.43,2.38"/><path class="cls-4" d="M251.54,342.53c.48.8.9,1.62,1.34,2.44"/><path class="cls-4" d="M254.19,347.42c.44.81.85,1.65,1.25,2.48"/><path class="cls-4" d="M256.65,352.4c.42.83.79,1.68,1.17,2.52"/><path class="cls-4" d="M259,357.46c.39.84.72,1.71,1.08,2.56"/><line class="cls-4" x1="261.09" y1="362.59" x2="262.09" y2="365.18"/><line class="cls-4" x1="263.07" y1="367.78" x2="264.01" y2="370.4"/><path class="cls-10" d="M182.1,285l.41,71.58-.49.45s-.16,0-.24.07l-.36.13c-.24.1-.49.23-.73.35-.48.25-1,.53-1.43.82-.94.59-1.85,1.23-2.76,1.88-1.8,1.31-3.59,2.7-5.29,4.11a8.55,8.55,0,0,0-1.13,1.12,2.11,2.11,0,0,0-.55,1.2c0,.34.26.64.67.9a6.17,6.17,0,0,0,1.44.56,34,34,0,0,0,6.58.75c2.23.08,4.48.08,6.73.06,1.12,0,2.25,0,3.38,0,.56,0,1.13,0,1.7.05a2.61,2.61,0,0,1,1.79.58,1.24,1.24,0,0,1,.29.48,1.56,1.56,0,0,1,0,.52,2.9,2.9,0,0,1-.24.91,7.71,7.71,0,0,1-.89,1.5,23,23,0,0,1-2.22,2.58,65.27,65.27,0,0,1-5,4.54.06.06,0,0,1-.07,0,0,0,0,0,1,0-.07,62.88,62.88,0,0,0,4.78-4.74,27.33,27.33,0,0,0,2.09-2.6,7.34,7.34,0,0,0,.78-1.42c.18-.47.28-1,0-1.26a2.09,2.09,0,0,0-1.37-.33h-1.67l-3.37.09c-2.25.05-4.5.1-6.77.06a30.45,30.45,0,0,1-6.81-.72,7,7,0,0,1-1.69-.66,3.08,3.08,0,0,1-.78-.68,1.71,1.71,0,0,1-.38-1.06,3,3,0,0,1,.77-1.83,8.83,8.83,0,0,1,1.26-1.26c1.76-1.46,3.53-2.83,5.37-4.16.92-.66,1.86-1.29,2.84-1.88.48-.3,1-.58,1.5-.85l.8-.37.43-.15a2.05,2.05,0,0,1,.59-.11l-.49.46L182,285a.06.06,0,0,1,.05-.05A.05.05,0,0,1,182.1,285Z"/><polyline class="cls-13" points="185.23 335.27 184.75 334.13 184.26 335.27 183.78 334.13 183.29 335.27"/><line class="cls-13" x1="183.29" y1="335.27" x2="183.29" y2="334.13"/><polyline class="cls-13" points="187.17 335.27 186.69 334.13 186.2 335.27 185.72 334.13 185.23 335.27"/><line class="cls-13" x1="187.17" y1="335.27" x2="187.17" y2="334.13"/><line class="cls-4" x1="183.8" y1="336.26" x2="183.81" y2="339.18"/><line class="cls-4" x1="186.44" y1="336.25" x2="186.45" y2="339.17"/><line class="cls-4" x1="183.82" y1="342.1" x2="183.84" y2="345.01"/><line class="cls-4" x1="186.46" y1="342.09" x2="186.47" y2="345"/><line class="cls-4" x1="183.85" y1="347.93" x2="183.86" y2="350.85"/><line class="cls-4" x1="186.49" y1="347.92" x2="186.5" y2="350.84"/><line class="cls-4" x1="183.87" y1="353.77" x2="183.88" y2="356.69"/><line class="cls-4" x1="186.51" y1="353.76" x2="186.52" y2="356.68"/><line class="cls-4" x1="183.89" y1="359.6" x2="183.91" y2="362.52"/><line class="cls-4" x1="186.53" y1="359.59" x2="186.54" y2="362.51"/><line class="cls-4" x1="183.92" y1="365.44" x2="183.93" y2="368.36"/><line class="cls-4" x1="186.55" y1="365.43" x2="186.57" y2="368.35"/><line class="cls-4" x1="183.94" y1="371.28" x2="183.95" y2="374.19"/><line class="cls-4" x1="186.58" y1="371.27" x2="186.59" y2="374.18"/><line class="cls-4" x1="183.96" y1="377.11" x2="183.97" y2="380.03"/><line class="cls-4" x1="186.6" y1="377.1" x2="186.61" y2="380.02"/><polyline class="cls-13" points="185.35 347.09 184.86 345.95 184.38 347.09 183.89 345.95 183.41 347.09"/><line class="cls-13" x1="183.4" y1="347.08" x2="183.4" y2="345.95"/><polyline class="cls-13" points="187.29 347.09 186.81 345.95 186.32 347.09 185.84 345.95 185.35 347.09"/><line class="cls-13" x1="187.29" y1="347.08" x2="187.29" y2="345.95"/><path class="cls-11" d="M245.66,291.29c-2.19.7-2.19.7-6.16,1.68-16.69,4.13-64.81,13.5-112.68-1.36-1.73-.53-2.26-.73-5.18-1.7-.18-7.1,3.45-13.59,3.45-13.59a16.24,16.24,0,0,0,1.73.52c47.87,14.86,96,5.5,112.68,1.36,4-1,3.07-.7,3.07-.7A23.5,23.5,0,0,1,245.66,291.29Z"/><line class="cls-4" x1="243.96" y1="289.86" x2="241.2" y2="290.53"/><line class="cls-4" x1="238.44" y1="291.21" x2="235.67" y2="291.86"/><line class="cls-4" x1="232.89" y1="292.48" x2="230.11" y2="293.05"/><line class="cls-4" x1="227.32" y1="293.6" x2="224.52" y2="294.1"/><path class="cls-4" d="M221.72,294.58l-2.81.44"/><line class="cls-4" x1="216.1" y1="295.43" x2="213.28" y2="295.81"/><path class="cls-4" d="M210.46,296.14c-.94.12-1.89.21-2.83.31"/><line class="cls-4" x1="204.8" y1="296.73" x2="201.97" y2="296.97"/><path class="cls-4" d="M199.13,297.18c-.94.06-1.89.14-2.83.18"/><path class="cls-4" d="M193.46,297.5c-1,.06-1.9.07-2.84.1"/><line class="cls-4" x1="187.78" y1="297.69" x2="184.93" y2="297.72"/><line class="cls-4" x1="182.09" y1="297.72" x2="179.25" y2="297.69"/><line class="cls-4" x1="176.41" y1="297.62" x2="173.57" y2="297.51"/><path class="cls-4" d="M170.73,297.36c-.95-.06-1.9-.1-2.84-.18"/><line class="cls-4" x1="165.06" y1="296.95" x2="162.23" y2="296.68"/><path class="cls-4" d="M159.4,296.38c-.94-.11-1.88-.22-2.82-.35"/><line class="cls-4" x1="153.76" y1="295.64" x2="150.95" y2="295.22"/><path class="cls-4" d="M148.15,294.74c-.94-.16-1.86-.35-2.79-.52"/><path class="cls-4" d="M142.57,293.66c-.93-.21-1.86-.39-2.78-.61"/><line class="cls-4" x1="137.02" y1="292.4" x2="134.27" y2="291.7"/><path class="cls-4" d="M131.53,291c-.92-.24-1.83-.52-2.73-.79"/><line class="cls-4" x1="126.08" y1="289.32" x2="123.38" y2="288.44"/><path class="cls-4" d="M126.11,276.83c.9.29,1.82.52,2.73.79"/><path class="cls-4" d="M131.59,278.36c.92.25,1.84.48,2.76.7"/><line class="cls-4" x1="137.12" y1="279.72" x2="139.91" y2="280.33"/><line class="cls-4" x1="142.7" y1="280.89" x2="145.5" y2="281.41"/><path class="cls-4" d="M148.31,281.9c.93.15,1.87.31,2.81.44"/><line class="cls-4" x1="153.94" y1="282.74" x2="156.76" y2="283.1"/><path class="cls-4" d="M159.6,283.42c.94.11,1.88.2,2.83.28"/><line class="cls-4" x1="165.27" y1="283.95" x2="168.11" y2="284.16"/><path class="cls-4" d="M171,284.33c1,.06,1.9.09,2.85.13"/><line class="cls-4" x1="176.64" y1="284.56" x2="179.49" y2="284.63"/><path class="cls-4" d="M182.34,284.66c.95,0,1.9,0,2.85,0"/><line class="cls-4" x1="188.04" y1="284.62" x2="190.88" y2="284.54"/><line class="cls-4" x1="193.73" y1="284.44" x2="196.58" y2="284.3"/><path class="cls-4" d="M199.42,284.13c1-.07,1.89-.11,2.84-.2"/><line class="cls-4" x1="205.1" y1="283.7" x2="207.94" y2="283.43"/><line class="cls-4" x1="210.77" y1="283.14" x2="213.6" y2="282.82"/><line class="cls-4" x1="216.43" y1="282.46" x2="219.25" y2="282.07"/><line class="cls-4" x1="222.07" y1="281.66" x2="224.88" y2="281.21"/><line class="cls-4" x1="227.69" y1="280.73" x2="230.49" y2="280.21"/><line class="cls-4" x1="233.28" y1="279.67" x2="236.07" y2="279.09"/><path class="cls-4" d="M238.85,278.47c.93-.2,1.84-.47,2.76-.73"/><path class="cls-1" d="M243.47,451.54a46.35,46.35,0,0,0,3.13,5.51c-.49-.82-.94-1.59-1.36-2.31C244.57,453.56,244,452.52,243.47,451.54Z"/></svg>