<svg id="圖層_1" data-name="圖層 1" xmlns="http://www.w3.org/2000/svg" viewBox="0 0 324.55 737.66"><defs><style>.cls-1{fill:#e4d3d4;}.cls-1,.cls-2,.cls-3,.cls-4,.cls-7,.cls-8{stroke:#231815;stroke-linecap:round;}.cls-1,.cls-2,.cls-3,.cls-7,.cls-8{stroke-linejoin:round;}.cls-2{fill:#252641;}.cls-3{fill:#cdc1d1;}.cls-4,.cls-5,.cls-7{fill:none;}.cls-4{stroke-miterlimit:10;}.cls-6{fill:#231815;}.cls-7{stroke-width:0.5px;}.cls-8{fill:#f8f1e3;}.cls-9{fill:#595757;}</style></defs><path class="cls-1" d="M124.05,519c-38-112-15.12-214.25-12.61-224.73-1.64-.42-2.53-.67-2.53-.67S81.2,401,121.3,519.25c-2.93,22.19.46,36.53,2.75,43.12,1.41,1,2.74,2,4,3C126.31,561.51,120.47,546.12,124.05,519Z"/><path class="cls-1" d="M128.55,566.39s-.19-.36-.48-1c-1.28-1-2.61-2-4-3a32.14,32.14,0,0,0,1.75,4.25s-15.09,64.72,12.34,150.67l2.62-.65C113.52,630.91,128.55,566.39,128.55,566.39Z"/><path class="cls-2" d="M212.67,566c0-.09,0-.17,0-.17s8.68-15.73,4.5-47.38c38.77-114.3,14.16-218.42,12.48-225.26-47,17.48-105.44,4.29-118.18,1C108.93,304.76,86.07,407,124.05,519c-3.58,27.11,2.26,42.5,4,46.37,17.61,14.38,23.64,36.28,39.33,39.16-.66-9.57-2-17.07-4.18-21,7.65-18-.68-138.51,7.6-204.84l-.24-2,.24,2c0-.18,0-.36.06-.53,0,.17,0,.35-.06.53,8,66.62-.17,185.47,7.43,203.35-2.36,4.09-3.66,12.2-4.28,22.47C189.55,601.88,195.6,580.47,212.67,566Z"/><path class="cls-2" d="M212.67,566c-17.07,14.43-23.12,35.84-38.7,38.52-2.12,35.23,3.77,96.11,2.71,109.5,10.2-1.23,13.68-1.4,24,1.1C226.85,632.16,213.4,569.3,212.67,566Z"/><path class="cls-2" d="M128.07,565.38c.29.65.48,1,.48,1s-15,64.52,12.21,150.25c10.34-2.49,13.83-2.31,24-1.09-1.08-13.58,5-76,2.62-111C151.71,601.66,145.68,579.76,128.07,565.38Z"/><path class="cls-1" d="M217.14,518.49c4.18,31.65-4.5,47.38-4.5,47.38s0,.08,0,.17c1.26-1.06,2.58-2.09,4-3.07,2.14-5.25,6.83-20.27,3.53-45.22,40.1-118.26,12.39-225.63,12.39-225.63-1,.39-2,.74-2.93,1.11C231.3,300.07,255.91,404.19,217.14,518.49Z"/><path class="cls-1" d="M212.67,566c.73,3.26,14.18,66.12-11.95,149.12l2.6.65c27.43-86,12.33-150.67,12.33-150.67s.4-.75,1-2.17C215.25,564,213.93,565,212.67,566Z"/><path class="cls-3" d="M232.52,293.23s-20.38-20-62.82-20-59.64,19.16-61.37,18.56l4.73-16c1.73.61,14.2-17.4,56.64-17.4S228,277.07,228,277.07Z"/><line class="cls-4" x1="113.79" y1="278.1" x2="115.98" y2="276.32"/><path class="cls-4" d="M118.21,274.58c.74-.57,1.52-1.11,2.28-1.66"/><path class="cls-4" d="M122.86,271.39c.81-.49,1.61-1,2.44-1.42"/><path class="cls-4" d="M127.81,268.66c.85-.4,1.68-.83,2.56-1.18"/><line class="cls-4" x1="132.97" y1="266.39" x2="135.62" y2="265.41"/><path class="cls-4" d="M138.31,264.56c.9-.3,1.81-.54,2.72-.77"/><line class="cls-4" x1="143.77" y1="263.09" x2="146.53" y2="262.52"/><line class="cls-4" x1="149.31" y1="262.01" x2="152.1" y2="261.57"/><line class="cls-4" x1="154.9" y1="261.22" x2="157.71" y2="260.91"/><line class="cls-4" x1="160.52" y1="260.72" x2="163.34" y2="260.54"/><line class="cls-4" x1="166.16" y1="260.46" x2="168.99" y2="260.4"/><line class="cls-4" x1="171.81" y1="260.45" x2="174.63" y2="260.52"/><line class="cls-4" x1="177.45" y1="260.65" x2="180.27" y2="260.88"/><line class="cls-4" x1="183.08" y1="261.11" x2="185.88" y2="261.5"/><path class="cls-4" d="M188.68,261.89c.93.14,1.85.35,2.77.52"/><path class="cls-4" d="M194.22,263c.92.19,1.83.45,2.74.68"/><line class="cls-4" x1="199.7" y1="264.34" x2="202.39" y2="265.18"/><line class="cls-4" x1="205.07" y1="266.07" x2="207.72" y2="267.06"/><path class="cls-4" d="M210.32,268.15c.86.39,1.74.73,2.58,1.16"/><path class="cls-4" d="M215.42,270.58c.84.42,1.64.91,2.47,1.37"/><path class="cls-4" d="M220.3,273.42c.8.49,1.57,1,2.34,1.57"/><path class="cls-4" d="M224.91,276.68c.73.59,1.46,1.18,2.15,1.83"/><path class="cls-4" d="M229.64,288.32c-.75-.54-1.55-1-2.32-1.53"/><line class="cls-4" x1="224.94" y1="285.35" x2="222.51" y2="283.99"/><path class="cls-4" d="M220,282.71c-.82-.44-1.67-.81-2.51-1.21"/><path class="cls-4" d="M215,280.36c-.85-.36-1.7-.75-2.56-1.08"/><path class="cls-4" d="M209.83,278.28c-.86-.35-1.75-.62-2.63-.92"/><line class="cls-4" x1="204.56" y1="276.48" x2="201.89" y2="275.69"/><line class="cls-4" x1="199.21" y1="274.97" x2="196.51" y2="274.29"/><path class="cls-4" d="M193.78,273.72c-.91-.18-1.81-.39-2.73-.54"/><path class="cls-4" d="M188.31,272.74c-.92-.14-1.83-.32-2.76-.41"/><path class="cls-4" d="M182.79,272c-.92-.11-1.84-.23-2.77-.27"/><path class="cls-4" d="M177.24,271.55c-.92-.06-1.85-.14-2.78-.14"/><path class="cls-4" d="M171.68,271.34c-.93,0-1.85-.06-2.78,0"/><path class="cls-4" d="M166.12,271.38c-.93,0-1.86,0-2.78.09"/><path class="cls-4" d="M160.56,271.66c-.93.07-1.85.12-2.78.21"/><path class="cls-4" d="M155,272.2c-.92.11-1.84.2-2.76.34"/><path class="cls-4" d="M149.51,273c-.91.17-1.83.28-2.74.5"/><path class="cls-4" d="M144.05,274.06c-.91.18-1.81.41-2.7.65"/><path class="cls-4" d="M138.65,275.41c-.89.24-1.77.54-2.66.8"/><line class="cls-4" x1="133.34" y1="277.06" x2="130.71" y2="277.99"/><path class="cls-4" d="M128.12,279c-.86.33-1.72.68-2.56,1.07"/><line class="cls-4" x1="123.02" y1="281.23" x2="120.52" y2="282.45"/><path class="cls-4" d="M118.06,283.76c-.81.44-1.61.91-2.42,1.37"/><path class="cls-4" d="M113.26,286.57c-.78.51-1.56,1-2.33,1.52"/><path class="cls-5" d="M89.42,391.5a43.37,43.37,0,0,0,3.13,5.26c-.49-.78-1-1.52-1.37-2.21C90.51,393.42,89.94,392.43,89.42,391.5Z"/><path class="cls-5" d="M171,393.82c.27-8,.27-15.42.29-18.75C171.28,375.07,170.72,383.82,171,393.82Z"/><path class="cls-5" d="M170.7,400.74l.62,0c-.16-2.32-.27-4.66-.33-6.94C170.91,396.1,170.82,398.43,170.7,400.74Z"/><path class="cls-3" d="M259.19,373.74c-1.81-6.68-5.28-15.9-8.47-26.27-5.14-16.74-11.51-34.9-15.25-45.29-1.91-5.32-3.13-8.61-3.13-8.61S212,273.63,169.53,273.63s-59.64,19.16-61.37,18.55l-.12,0c-.67,1.2-12.4,33-20,58.91-2.4,8.19-4.93,15.57-6.46,21.25-1,3.6-1.52,6.53-1.37,8.55C87,388.26,88.28,391,92.35,398.71c.51,1,1.09,2,1.77,3.21.41.73.87,1.51,1.36,2.34l.18.28c7.94,12.7,62.66,24.44,69.72,18.89a6,6,0,0,0,2.48-3.1.14.14,0,0,0,0-.06c.21-.84.39-1.79.57-2.81a145.43,145.43,0,0,0,1.46-15.32c.12-2.3.22-4.63.29-6.91.06,2.28.17,4.61.33,6.93.45,6.28,1.33,12.37,3,16.59l.24.63c.26.63.54,1.22.83,1.78a4.09,4.09,0,0,0,.42.58c7.75,10.11,63.7-8.45,69.83-15.89l.34-.39.27-.33c4.07-5,7.19-15.05,15-23.6A25.65,25.65,0,0,0,259.19,373.74Z"/><path class="cls-2" d="M99.93,400l-.19-.28c-.14-.24-.24-.43-.38-.66-.34-.58-.69-1.15-1-1.67-.67-1.19-1.24-2.25-1.77-3.23-3.86-8.09-5.42-17-5.73-25.61,0,0,10.23-36.48,31.84-85-.66-.19-2.44,1.82-3.1,1.61-22.14,49.48-31.37,84.25-31.37,84.25.31,8.64,1.87,17.52,5.74,25.61.51,1,1.09,2,1.76,3.22l.42.71c.31.52.6,1.05,1,1.63l.18.28c7.57,12.12,59.42,23.35,70.33,19.54,0,0,0,0,0-.07.2-.84.39-1.79.56-2.81C157.56,421.26,112.24,411.24,99.93,400Z"/><path class="cls-2" d="M242,400a2.68,2.68,0,0,1,.18-.28l.39-.66c.33-.58.68-1.15,1-1.67.67-1.19,1.24-2.25,1.76-3.23,3.87-8.09,5.43-17,5.74-25.61,0,0-9.61-34.86-31.23-83.4.67-.19,2.22,1.28,3.11,1.61,22.14,49.48,30.75,82.62,30.75,82.62-.31,8.64-1.87,17.52-5.74,25.61-.52,1-1.09,2-1.76,3.22-.12.22-.28.47-.41.71-.31.52-.61,1.05-1,1.63l-.18.28c-7.57,12.12-59.42,23.35-70.33,19.54,0,0,0,0,0-.07-.2-.84-.38-1.79-.55-2.81C184.4,421.26,229.71,411.24,242,400Z"/><path class="cls-6" d="M169.75,273.28l-.85,97.54-.47.43s-.16,0-.25.07a2.67,2.67,0,0,0-.36.14,7,7,0,0,0-.73.35c-.48.25-1,.53-1.43.83-.94.59-1.86,1.23-2.77,1.9-1.8,1.33-3.58,2.72-5.3,4.14a8.53,8.53,0,0,0-1.12,1.13,2.13,2.13,0,0,0-.56,1.21,1.13,1.13,0,0,0,.67.91,5.62,5.62,0,0,0,1.44.57,34.13,34.13,0,0,0,6.6.76c2.24.09,4.49.09,6.75.08h3.39c.57,0,1.13,0,1.71,0a2.56,2.56,0,0,1,1.79.58,1.35,1.35,0,0,1,.31,1,2.72,2.72,0,0,1-.24.91,8.06,8.06,0,0,1-.88,1.51,23.1,23.1,0,0,1-2.22,2.59,65.67,65.67,0,0,1-5,4.57,0,0,0,0,1-.07,0,0,0,0,0,1,0-.07,61.47,61.47,0,0,0,4.78-4.77,27.25,27.25,0,0,0,2.1-2.61,7.46,7.46,0,0,0,.79-1.43c.2-.48.28-1,0-1.29a2.12,2.12,0,0,0-1.38-.35h-1.68l-3.38.09c-2.26.07-4.52.12-6.79.09a29.45,29.45,0,0,1-6.83-.73,6.43,6.43,0,0,1-1.7-.68,2.7,2.7,0,0,1-.77-.67,1.82,1.82,0,0,1-.38-1.08,3,3,0,0,1,.78-1.83,9.39,9.39,0,0,1,1.25-1.27c1.77-1.45,3.53-2.86,5.39-4.18.92-.66,1.87-1.3,2.84-1.89.49-.31,1-.59,1.51-.86.26-.12.52-.25.8-.36l.43-.16a1.69,1.69,0,0,1,.58-.11l-.47.44,1.63-97.53a.05.05,0,0,1,.1,0Z"/><polyline class="cls-7" points="171.65 349.29 171.16 348.16 170.67 349.29 170.19 348.16 169.7 349.29"/><line class="cls-7" x1="169.7" y1="349.29" x2="169.7" y2="348.16"/><polyline class="cls-7" points="173.59 349.29 173.11 348.16 172.62 349.29 172.13 348.16 171.65 349.29"/><line class="cls-7" x1="173.59" y1="349.29" x2="173.59" y2="348.16"/><line class="cls-4" x1="170.21" y1="350.3" x2="170.23" y2="353.24"/><line class="cls-4" x1="172.85" y1="350.29" x2="172.86" y2="353.23"/><line class="cls-4" x1="170.24" y1="356.18" x2="170.25" y2="359.12"/><line class="cls-4" x1="172.88" y1="356.17" x2="172.89" y2="359.11"/><line class="cls-4" x1="170.26" y1="362.06" x2="170.27" y2="365"/><line class="cls-4" x1="172.9" y1="362.05" x2="172.91" y2="364.99"/><line class="cls-4" x1="170.28" y1="367.94" x2="170.29" y2="370.88"/><line class="cls-4" x1="172.92" y1="367.93" x2="172.93" y2="370.87"/><line class="cls-4" x1="170.31" y1="373.82" x2="170.32" y2="376.76"/><line class="cls-4" x1="172.94" y1="373.81" x2="172.96" y2="376.75"/><line class="cls-4" x1="170.33" y1="379.7" x2="170.34" y2="382.65"/><line class="cls-4" x1="172.97" y1="379.69" x2="172.98" y2="382.63"/><line class="cls-4" x1="170.35" y1="385.59" x2="170.36" y2="388.53"/><line class="cls-4" x1="172.99" y1="385.58" x2="173" y2="388.52"/><line class="cls-4" x1="170.38" y1="391.47" x2="170.39" y2="394.41"/><line class="cls-4" x1="173.01" y1="391.46" x2="173.02" y2="394.4"/><polyline class="cls-7" points="171.76 361.2 171.28 360.07 170.79 361.2 170.3 360.07 169.81 361.2"/><line class="cls-7" x1="169.81" y1="361.2" x2="169.81" y2="360.07"/><polyline class="cls-7" points="173.71 361.2 173.22 360.07 172.74 361.2 172.25 360.07 171.76 361.2"/><line class="cls-7" x1="173.71" y1="361.2" x2="173.71" y2="360.07"/><path class="cls-2" d="M100.69,207.32c0,11.19.34,21.11,1,28,.09.93.19,1.81.29,2.62a14.68,14.68,0,0,0,.34,2.28c.12.68.24-.61.37,1.9.15,1.43.28,2.55.44,1.5.14-.51.3,1.87.48,1.07.16.38.34,1.47.52.62.54-1.05,1.18,4.65,1.91,1.11.72,2,1.55.2,2.46,1.05.92,2.43,1.92,1.79,3,1a13.49,13.49,0,0,0,3.56.92c.43.4.87.11,1.31.29a2.76,2.76,0,0,0,1.37.27c.46,0,.94-.4,1.42.44.49.29,1,0,1.48.1.51-.51,1,0,1.55.25.52.08,1-.14,1.6.25a3.77,3.77,0,0,0,1.66.36c.56-.67,1.14-.41,1.72.11.58-.06,1.18-.3,1.77.18.61.05,1.21-.21,1.84.24.62-1,1.25.54,1.88.09.64.34,1.29-.1,2,.29l2.93.26c.91.08,1.83.13,2.77.21.93.86,1.89.54,2.86.2,1,0,2,1.13,3,.17,1,.49,2,1.43,3.06.16,1,.12,2.08.06,3.15.13,1.06-.35,2.15.09,3.24.12,1.83.06,3.71.11,5.62.15l2.91.05a2.84,2.84,0,0,1,3,0c1-.36,2-.78,3,0,1,.15,2.06-.34,3.09,0a11.29,11.29,0,0,1,2.09-.09,4.4,4.4,0,0,1,2-.14,3,3,0,0,1,2,.2,1.62,1.62,0,0,1,2,0c.63-.31,1.27-.71,1.9,0,.63-.56,1.25-.88,1.86,0,2.11.58,4.13-.2,6.07-.19,2-1.07,3.81-.53,5.6-.27,1.79-.64,3.5-1.4,5.14-.33,1.64-.25,3.21-.74,4.71-.38,1.5-.69,2.92,0,4.29-.44,1.36-.16,2.66-.31,3.9-.48,1.64-.22,3.18-.45,4.61-.69,1.43.77,2.75-.64,4-.74,1.23-2.06,2.37,2.05,3.41-.76,1.05.93,2,.6,2.88-.78.88-1.16,1.67,1.15,2.39-.77.73-1,1.38-.72,2-.74.18-.15.34-1.47.5-.45.15.22.3-2.33.44-.89.15-.64.28-.77.4-1.33.13.87.25-1.08.36-1.72s.21-1.34.31-2.1c.91-7,1.23-19.16,1.21-33.15-9.15,1.21-28.89,2.86-68.27,2.86C128.16,210.3,109,208.53,100.69,207.32Z"/><path class="cls-8" d="M198.91,19.86a5.49,5.49,0,0,0-2.4-3.87s-.3-2.26-28.3-2.26-30,2.26-30,2.26a18.4,18.4,0,0,0-1.7,4.17c2.68-1,10.78-2.95,32-2.95C187.72,17.21,195.75,18.83,198.91,19.86Z"/><path class="cls-2" d="M197.33,26.36c1.53-2.78,1.82-4.91,1.58-6.5-3.16-1-11.19-2.65-30.37-2.65-21.24,0-29.34,2-32,2.95a13.34,13.34,0,0,0-.05,7.61c-6.62,7.19-16.56,20.62-16.56,20.62s4.26,31.09,50,31.09,47.57-31.09,47.57-31.09C211.94,42.45,209,38.39,197.33,26.36Z"/><path class="cls-2" d="M145.72,67.31c-17.88-6.38-26.27-18.21-26.27-18.21s-11.29,1.14-25.76,10.23c10.06,30.13,9.49,55.39,9.49,55.39s-.12,2.33-.3,6.34C111.67,96.32,132.54,77.35,145.72,67.31Z"/><path class="cls-2" d="M244.57,59.76C229,53.47,217,49.1,217,49.1S210.15,60.52,193.63,67c12.67,9.74,31.86,27.36,41.05,50.22-.06-1.31-.1-2-.1-2S231.09,86.9,244.57,59.76Z"/><path class="cls-8" d="M148.76,68.3c-1-.31-2-.64-3-1-13.18,10-34,29-42.84,53.75-.09,2-.2,4.48-.32,7.28C110.48,100,135,78.54,148.76,68.3Z"/><path class="cls-8" d="M235,123.73c-.13-2.83-.23-5.07-.3-6.54C225.49,94.33,206.3,76.71,193.63,67c-.95.37-1.93.72-2.95,1C204,78,226.21,97.75,235,123.73Z"/><path class="cls-9" d="M234.34,246.52a4.4,4.4,0,0,1-.75-.6,3.22,3.22,0,0,1-.32-.32,3.17,3.17,0,0,1-.32-.39l-.31-.43a3.17,3.17,0,0,1-.27-.47l-.28-.48a4.68,4.68,0,0,1-.18-.48q-.07-.25-.12-.48a1.64,1.64,0,0,1,0-.43,4.57,4.57,0,0,1,.06-.89h.05a4.77,4.77,0,0,1,.34.82c.05.13.08.26.14.4a4.29,4.29,0,0,1,.16.43c.05.15.07.31.13.47l.18.48a2.86,2.86,0,0,0,.22.47c.07.15.16.3.24.44a3.89,3.89,0,0,0,.25.4c.1.13.16.25.25.36a5.4,5.4,0,0,0,.61.68Z"/><path class="cls-9" d="M230.86,243.62s.12,0,.15,0a.29.29,0,0,1,0,.14l-.08.24c-.06.15-.12.31-.17.47a5.54,5.54,0,0,0-.19,1,6,6,0,0,0,.12,2l.14.59-.38-.5a5,5,0,0,1-.44-.77l-.35-.78c-.22-.52-.42-1.05-.62-1.58-.39-1.06-.75-2.13-1.09-3.2a31.43,31.43,0,0,1-.85-3.27c-.11-.55-.23-1.1-.31-1.66a15.46,15.46,0,0,1-.15-1.67h0c.11.55.25,1.09.39,1.63l.44,1.62.92,3.23c.31,1.08.63,2.15,1,3.22.18.53.36,1.06.56,1.59l.31.77a5.17,5.17,0,0,0,.39.74l-.25.09a6.07,6.07,0,0,1,0-2,4.56,4.56,0,0,1,.26-1,3.8,3.8,0,0,1,.18-.47l.1-.23a.61.61,0,0,0,0-.11h-.07Z"/><path class="cls-9" d="M227,248.78s-.34-.79-.78-2a45,45,0,0,1-1.41-4.49c-.22-.83-.41-1.66-.55-2.45-.05-.4-.1-.79-.14-1.15s0-.71-.06-1,0-.61,0-.87a4.16,4.16,0,0,1,.06-.67c0-.37.07-.57.07-.57h.05s0,.21.06.57a6.34,6.34,0,0,0,.06.67c0,.25.06.54.1.84s.1.66.15,1,.12.73.18,1.12c.14.78.27,1.61.44,2.44.35,1.66.81,3.3,1.17,4.52s.66,2,.66,2Z"/><path class="cls-9" d="M218.69,249.41s.09-.88.14-2.2c0-.66,0-1.43,0-2.25s0-1.7-.1-2.57c0-.44-.07-.87-.13-1.3s-.11-.85-.18-1.25-.13-.79-.18-1.16a9.55,9.55,0,0,0-.21-1,7.58,7.58,0,0,0-.23-.86,4.07,4.07,0,0,0-.22-.65l-.22-.57.05,0,.33.52.18.28.15.35a6.37,6.37,0,0,1,.36.86c.09.33.22.67.3,1.06a10.27,10.27,0,0,1,.23,1.18c.06.42.12.84.14,1.28s.05.88.06,1.32c0,.89,0,1.77,0,2.59s-.09,1.6-.15,2.25c-.13,1.32-.27,2.19-.27,2.19Z"/><path class="cls-9" d="M217.73,248a5.82,5.82,0,0,1-.45-.62c-.13-.19-.26-.43-.4-.68s-.12-.26-.19-.4a4.08,4.08,0,0,1-.19-.42,7.88,7.88,0,0,1-.3-.85c0-.15,0-.29,0-.42a1.61,1.61,0,0,1,0-.38,3.25,3.25,0,0,1,.18-.76h0a3.82,3.82,0,0,1,.19.73c0,.1.07.21.1.33s.06.25.08.38a3,3,0,0,0,.08.41l.08.43.13.42a3.76,3.76,0,0,0,.13.4c.1.26.18.52.28.72.18.41.32.68.32.68Z"/><path class="cls-9" d="M212.53,239.53a19.66,19.66,0,0,1,.8,2.5,22.49,22.49,0,0,1,.52,2.57c.06.43.1.87.13,1.31s0,.88,0,1.32c0,.22,0,.44,0,.66s0,.44-.06.65a4.76,4.76,0,0,1-.08.66l-.12.66-.32-.18a3.24,3.24,0,0,0,.81-1.35,9.35,9.35,0,0,0,.39-1.58,29.65,29.65,0,0,0,.3-3.27c.06-1.1.1-2.2.1-3.31l0-3.31h.05c.14,1.09.23,2.2.3,3.31s.09,2.22.06,3.33a20.67,20.67,0,0,1-.35,3.33,10.68,10.68,0,0,1-.47,1.65,3.63,3.63,0,0,1-1,1.48l-.44.38.12-.57.13-.62c0-.21.06-.42.1-.64s0-.43.06-.64,0-.43,0-.65c0-.43,0-.86,0-1.29s0-.87-.1-1.3a20.51,20.51,0,0,0-.41-2.57,18.37,18.37,0,0,0-.71-2.51Z"/><path class="cls-9" d="M221.32,237.3c.18.43.32.89.46,1.34s.25.92.35,1.39a16.77,16.77,0,0,1,.38,2.82,12.55,12.55,0,0,1-.16,2.87,6.58,6.58,0,0,1-.39,1.41,3.5,3.5,0,0,1-.83,1.26l-.33-.26a3.37,3.37,0,0,0,.72-1.72,2,2,0,0,0-.11-.94,2.58,2.58,0,0,0-.22-.44,2.92,2.92,0,0,0-.29-.4,4.08,4.08,0,0,1,.36.36,2,2,0,0,1,.46.91,1.75,1.75,0,0,1,.07.51,3.57,3.57,0,0,1-.64,2l-.33-.27a3.43,3.43,0,0,0,.66-1.13,7.31,7.31,0,0,0,.34-1.32,16.06,16.06,0,0,0,.19-2.77,26.35,26.35,0,0,0-.2-2.8C221.68,239.14,221.52,238.22,221.32,237.3Z"/><path class="cls-9" d="M212,250.18a7.06,7.06,0,0,1-.51-.74c-.07-.11-.13-.24-.2-.38a3,3,0,0,1-.21-.44c-.07-.15-.13-.32-.19-.48a4.32,4.32,0,0,1-.16-.51l-.15-.51a3.28,3.28,0,0,1-.08-.52,4.15,4.15,0,0,1,0-.49,2.72,2.72,0,0,1,0-.42,5,5,0,0,1,.22-.87h.06a6.41,6.41,0,0,1,.16.86,2,2,0,0,0,0,.41c0,.15,0,.3.05.46s0,.32,0,.48l.08.5a3.89,3.89,0,0,0,.08.51c.05.16.09.32.13.48s.11.3.15.44.09.27.15.4a5.12,5.12,0,0,0,.38.78Z"/><path class="cls-9" d="M209.48,246.68s.12,0,.13.07a.61.61,0,0,1,0,.13l-.13.22c-.08.15-.15.3-.23.44a5.34,5.34,0,0,0-.33,1,6.52,6.52,0,0,0-.16,2l0,.6-.27-.55a3.85,3.85,0,0,1-.31-.81l-.21-.82-.37-1.65c-.22-1.09-.43-2.2-.62-3.3a31.32,31.32,0,0,1-.38-3.34c0-.56-.05-1.12-.05-1.69a11.85,11.85,0,0,1,.11-1.68h.05c0,.57.09,1.12.15,1.67l.2,1.66.43,3.31c.14,1.11.29,2.21.48,3.31l.31,1.65.18.81a5.78,5.78,0,0,0,.24.77l-.23.06a6,6,0,0,1,.27-2,4.75,4.75,0,0,1,.38-.94l.25-.44.13-.21a.45.45,0,0,0,.05-.1s0,0-.07,0Z"/><path class="cls-9" d="M205.23,251.35s-.24-.82-.54-2.06-.64-2.91-.88-4.6c-.11-.84-.21-1.69-.26-2.49,0-.4,0-.78,0-1.16s.05-.71.07-1,.08-.61.11-.87a4.43,4.43,0,0,1,.14-.66l.14-.57h0s0,.22,0,.59c0,.18,0,.4,0,.66V240c0,.31,0,.65,0,1s0,.74.05,1.14c0,.79.08,1.63.16,2.47.14,1.68.41,3.35.62,4.61s.41,2.07.41,2.07Z"/><path class="cls-9" d="M197.13,251.27s.15-.86.29-2.17c.08-.66.15-1.42.22-2.24s.1-1.7.1-2.58c0-.44,0-.87,0-1.3s0-.86-.08-1.26-.07-.8-.09-1.17a10.49,10.49,0,0,0-.12-1.05c0-.33-.11-.61-.16-.87a3.81,3.81,0,0,0-.17-.67l-.17-.58,0,0,.3.54.15.29c0,.12.09.24.13.37a4.67,4.67,0,0,1,.29.87c.06.34.17.69.21,1.07a9.16,9.16,0,0,1,.14,1.2c0,.42,0,.85,0,1.29s0,.88-.05,1.32c0,.89-.13,1.76-.23,2.59s-.21,1.58-.33,2.23c-.23,1.31-.43,2.16-.43,2.16Z"/><path class="cls-9" d="M196.28,249.83a6.78,6.78,0,0,1-.39-.65c-.11-.19-.23-.44-.35-.7s-.1-.27-.16-.41-.1-.28-.16-.43-.19-.59-.23-.88a2.84,2.84,0,0,1,0-.41,1.59,1.59,0,0,1,0-.38,3.17,3.17,0,0,1,.23-.74h.05a4.56,4.56,0,0,1,.15.74c0,.11,0,.22.06.35a2.32,2.32,0,0,1,.06.38,3.29,3.29,0,0,0,0,.42l0,.42.1.43a2.75,2.75,0,0,0,.11.41c.07.27.14.52.21.73a6.2,6.2,0,0,0,.27.7Z"/><path class="cls-9" d="M191.7,241a18,18,0,0,1,.64,2.53,20.79,20.79,0,0,1,.34,2.6c0,.44,0,.87.06,1.31s0,.88-.06,1.31a4.62,4.62,0,0,1-.06.66,4.77,4.77,0,0,1-.1.66c0,.22-.06.43-.11.65l-.16.64-.31-.19a3.34,3.34,0,0,0,.88-1.29,9.41,9.41,0,0,0,.49-1.56,29.15,29.15,0,0,0,.52-3.24c.13-1.09.25-2.19.34-3.29l.29-3.31h0c.06,1.11.07,2.22.05,3.33s-.07,2.22-.18,3.33a20.76,20.76,0,0,1-.59,3.3,11,11,0,0,1-.56,1.61,3.73,3.73,0,0,1-1,1.41l-.47.36.15-.55.17-.63c.05-.21.09-.42.14-.63s.08-.42.1-.64.07-.42.08-.64q.07-.65.09-1.29c0-.44,0-.87,0-1.3a22.67,22.67,0,0,0-.24-2.59,20.75,20.75,0,0,0-.56-2.55Z"/><path class="cls-9" d="M200.8,239.41c.13.46.24.93.33,1.39a13.71,13.71,0,0,1,.21,1.41,17,17,0,0,1,.1,2.85,13,13,0,0,1-.43,2.82,7,7,0,0,1-.51,1.36,3.44,3.44,0,0,1-.91,1.18l-.31-.28a3.54,3.54,0,0,0,.86-1.66,2.56,2.56,0,0,0,0-.47,2.16,2.16,0,0,0-.25-.93,2.67,2.67,0,0,0-.25-.43,3,3,0,0,1,.32.39,2,2,0,0,1,.25.45,2.17,2.17,0,0,1,.13.5,3,3,0,0,1,0,.52,3.73,3.73,0,0,1-.8,1.88l-.3-.28a3.4,3.4,0,0,0,.74-1.08,8.2,8.2,0,0,0,.45-1.29,15.39,15.39,0,0,0,.44-2.73c.07-.92.09-1.85.07-2.78S200.91,240.36,200.8,239.41Z"/><path class="cls-9" d="M190.49,251.67a7.13,7.13,0,0,1-.46-.76c-.06-.12-.11-.25-.18-.39a2.89,2.89,0,0,1-.18-.44c0-.16-.1-.32-.16-.49a3.3,3.3,0,0,1-.13-.52l-.12-.52a4.36,4.36,0,0,1,0-.52,2.55,2.55,0,0,1,0-.48,1.21,1.21,0,0,1,.07-.43,4.89,4.89,0,0,1,.27-.86h.05a5.62,5.62,0,0,1,.1.87,3.07,3.07,0,0,0,0,.42l0,.45a4,4,0,0,0,0,.49l0,.5a4.43,4.43,0,0,0,.06.51c0,.16.06.32.1.48s.09.3.12.45a3,3,0,0,0,.12.39,5,5,0,0,0,.33.81Z"/><path class="cls-9" d="M188.22,248.08s.12,0,.13.07a.26.26,0,0,1-.06.13l-.12.22a3.7,3.7,0,0,0-.25.43,5,5,0,0,0-.39.92,6.13,6.13,0,0,0-.27,2v.6l-.25-.55a4.69,4.69,0,0,1-.25-.84l-.17-.82-.27-1.66c-.17-1.12-.32-2.23-.43-3.34a26.89,26.89,0,0,1-.2-3.35c0-.56,0-1.13,0-1.69a11.71,11.71,0,0,1,.2-1.67H186c0,.56,0,1.11.05,1.67l.11,1.66.25,3.34c.07,1.1.16,2.22.29,3.33l.21,1.65.14.82a4.8,4.8,0,0,0,.2.79l-.24,0a6.43,6.43,0,0,1,.37-2,6.57,6.57,0,0,1,.44-.93c.08-.14.18-.28.28-.42l.14-.21,0-.09s0,0-.07,0Z"/><path class="cls-9" d="M183.76,252.49s-.19-.82-.43-2.08-.49-2.93-.65-4.64c-.08-.84-.14-1.69-.15-2.49,0-.41,0-.79.05-1.16s.07-.7.11-1,.12-.6.16-.86a4,4,0,0,1,.17-.65l.17-.56h.06s0,.22-.05.59c0,.18,0,.4-.06.65s0,.55,0,.87,0,.65,0,1v1.14c0,.78,0,1.62,0,2.47.07,1.68.26,3.36.4,4.62s.31,2.11.31,2.11Z"/><path class="cls-9" d="M175.72,252.14s.19-.87.4-2.18c.08-.65.19-1.41.3-2.23s.18-1.7.22-2.57c0-.44,0-.88,0-1.31s0-.85,0-1.26,0-.8,0-1.17-.05-.72-.08-1a8.73,8.73,0,0,0-.12-.87,4.13,4.13,0,0,0-.15-.68l-.14-.59,0,0,.27.55c.05.09.09.19.14.29l.12.37a5.68,5.68,0,0,1,.24.89,10.15,10.15,0,0,1,.18,1.06c0,.39.07.79.08,1.21s0,.86,0,1.29,0,.87-.1,1.32c-.08.89-.21,1.76-.34,2.58s-.28,1.58-.42,2.22c-.28,1.3-.52,2.16-.52,2.16Z"/><path class="cls-9" d="M174.94,250.67a7.21,7.21,0,0,1-.36-.66,6,6,0,0,1-.31-.71c-.06-.13-.1-.27-.15-.41l-.14-.44a7.31,7.31,0,0,1-.19-.88,2.94,2.94,0,0,1,0-.42,2.05,2.05,0,0,1,0-.37,3.64,3.64,0,0,1,.27-.75l0,0a4.54,4.54,0,0,1,.11.74c0,.1,0,.22.05.35a2.22,2.22,0,0,1,0,.38c0,.13,0,.27,0,.41l0,.44.08.42c0,.15.05.29.08.42s.13.52.2.73a6.85,6.85,0,0,0,.23.71Z"/><path class="cls-9" d="M170.72,241.73a20.62,20.62,0,0,1,.55,2.57,25.24,25.24,0,0,1,.23,2.62c0,.43,0,.87,0,1.31s-.05.87-.1,1.31c0,.22-.05.43-.08.65s-.07.43-.12.64-.09.44-.15.65l-.18.63-.31-.22a3.21,3.21,0,0,0,.94-1.23,9.69,9.69,0,0,0,.55-1.54,28.65,28.65,0,0,0,.64-3.22c.18-1.09.34-2.19.46-3.29l.43-3.29h0c0,1.11,0,2.22-.08,3.33s-.15,2.21-.32,3.32a20.75,20.75,0,0,1-.71,3.29,10.56,10.56,0,0,1-.62,1.58,3.63,3.63,0,0,1-1.1,1.37l-.49.33.18-.55.19-.61c.07-.21.11-.42.17-.62s.09-.42.13-.63.09-.43.11-.64c0-.43.1-.85.13-1.28s.05-.87.05-1.3a25.34,25.34,0,0,0-.15-2.6,17.51,17.51,0,0,0-.45-2.57Z"/><path class="cls-9" d="M179.91,240.37c.11.46.19.93.26,1.4a13.21,13.21,0,0,1,.15,1.41,18.08,18.08,0,0,1,0,2.85,12.94,12.94,0,0,1-.55,2.81,7.59,7.59,0,0,1-.57,1.35,3.63,3.63,0,0,1-1,1.16l-.29-.29a3.52,3.52,0,0,0,.92-1.65,1.75,1.75,0,0,0,0-.46,1.94,1.94,0,0,0,0-.48,2.51,2.51,0,0,0-.16-.46,4.64,4.64,0,0,0-.23-.44,3.08,3.08,0,0,1,.3.41,1.5,1.5,0,0,1,.22.46,1.66,1.66,0,0,1,.12.5,2.9,2.9,0,0,1,0,.51,3.94,3.94,0,0,1-.87,1.87L178,251a3.52,3.52,0,0,0,.78-1.07,7,7,0,0,0,.5-1.27,15.63,15.63,0,0,0,.56-2.72,25.79,25.79,0,0,0,.2-2.78C180,242.25,180,241.31,179.91,240.37Z"/><path class="cls-9" d="M169.08,252.27a6.68,6.68,0,0,1-.43-.79c-.06-.12-.1-.25-.16-.39a2.51,2.51,0,0,1-.16-.46c-.05-.16-.1-.33-.14-.5a2.29,2.29,0,0,1-.11-.52l-.1-.53a3,3,0,0,1,0-.52,3.75,3.75,0,0,1,0-.48,1.56,1.56,0,0,1,.08-.43,4.45,4.45,0,0,1,.31-.83h.06a4.56,4.56,0,0,1,.06.87,2,2,0,0,0,0,.42c0,.14,0,.3,0,.45s0,.32,0,.49v.51c0,.16,0,.33.05.5s0,.33.08.49.07.31.1.45.06.29.1.42a6.77,6.77,0,0,0,.3.81Z"/><path class="cls-9" d="M167,248.55s.13,0,.13.08a.89.89,0,0,1-.05.13l-.15.21a4.94,4.94,0,0,0-.27.42,5.83,5.83,0,0,0-.43.91,6.41,6.41,0,0,0-.36,1.95l0,.59-.22-.56a4.54,4.54,0,0,1-.22-.84l-.13-.83-.2-1.67c-.11-1.12-.2-2.23-.28-3.35a29,29,0,0,1,0-3.36c0-.56.05-1.12.12-1.68a13.07,13.07,0,0,1,.28-1.66h0c0,.57,0,1.12,0,1.67l0,1.67.1,3.34c0,1.11.06,2.23.14,3.34l.14,1.66.09.83a6.11,6.11,0,0,0,.17.79l-.24,0a6.8,6.8,0,0,1,.47-2,5.57,5.57,0,0,1,.48-.9c.09-.14.19-.28.29-.41l.15-.21.06-.09s0,0-.07,0Z"/><path class="cls-9" d="M162.25,252.81s-.16-.83-.33-2.1a46,46,0,0,1-.4-4.65c0-.85-.05-1.7,0-2.5,0-.4.07-.79.11-1.15s.11-.71.16-1,.15-.6.2-.85a6.51,6.51,0,0,1,.2-.65c.14-.35.21-.55.21-.55h.05l-.08.58c0,.19-.06.4-.08.66s-.06.55-.08.86-.05.65-.08,1,0,.74-.06,1.13c0,.79-.09,1.63-.11,2.48,0,1.68.08,3.37.17,4.64s.19,2.1.19,2.1Z"/><path class="cls-9" d="M154.14,252.17s.25-.86.54-2.15c.14-.65.29-1.41.45-2.23s.29-1.69.38-2.56c.05-.44.09-.88.11-1.3s.06-.85.07-1.26,0-.8,0-1.17,0-.73,0-1.06,0-.61-.06-.88a3.67,3.67,0,0,0-.1-.67c-.07-.37-.11-.6-.11-.6l.05,0s.09.2.24.56c0,.09.08.19.12.3s.06.24.09.37a6.13,6.13,0,0,1,.19.9c0,.32.1.69.1,1.07s0,.79,0,1.21-.05.85-.11,1.28-.12.88-.2,1.32c-.13.88-.31,1.75-.5,2.56s-.38,1.57-.56,2.21c-.37,1.29-.67,2.13-.67,2.13Z"/><path class="cls-9" d="M153.46,250.63a5,5,0,0,1-.33-.68c-.09-.22-.18-.47-.27-.74a2.7,2.7,0,0,1-.11-.43c0-.14-.08-.29-.11-.44a6,6,0,0,1-.14-.9,2.86,2.86,0,0,1,0-.42,1.35,1.35,0,0,1,.07-.36,3.29,3.29,0,0,1,.31-.73l.05,0a3.6,3.6,0,0,1,.06.75,2.16,2.16,0,0,0,0,.35c0,.12,0,.26,0,.39a2.94,2.94,0,0,0,0,.42v.43l.05.44c0,.14,0,.28.06.42s.09.53.14.74a5.73,5.73,0,0,0,.19.73Z"/><path class="cls-9" d="M149.89,241.37a18.87,18.87,0,0,1,.34,2.6,25.41,25.41,0,0,1,0,2.62c0,.44-.06.87-.11,1.3s-.11.88-.2,1.31c0,.22-.09.43-.15.65a4.91,4.91,0,0,1-.17.63,6.55,6.55,0,0,1-.19.63l-.24.63-.29-.24a3.25,3.25,0,0,0,1.05-1.18,8.91,8.91,0,0,0,.66-1.48,28.67,28.67,0,0,0,.9-3.17c.25-1.06.49-2.14.7-3.23l.65-3.24h.05c-.06,1.11-.18,2.21-.31,3.31s-.31,2.2-.56,3.29a19.66,19.66,0,0,1-1,3.21,10.25,10.25,0,0,1-.74,1.53,3.94,3.94,0,0,1-1.22,1.29s-.51.8-.51.3a.69.69,0,0,1,.21-.53l.24-.6a6.5,6.5,0,0,0,.22-.62,6.32,6.32,0,0,0,.18-.62,5.8,5.8,0,0,0,.16-.63c.09-.42.17-.84.24-1.27s.11-.86.15-1.29a25,25,0,0,0,.05-2.6,20.44,20.44,0,0,0-.24-2.59Z"/><path class="cls-9" d="M159.05,240.56c.09.46.14.94.19,1.4a13.49,13.49,0,0,1,.06,1.42,16,16,0,0,1-.19,2.85,13.17,13.17,0,0,1-.72,2.79,7.35,7.35,0,0,1-.65,1.32,3.57,3.57,0,0,1-1,1.12l-.27-.29a3.71,3.71,0,0,0,1-1.61,2.44,2.44,0,0,0,.09-.47,1.87,1.87,0,0,0,0-.47,1.93,1.93,0,0,0-.13-.47,2.93,2.93,0,0,0-.21-.44,3,3,0,0,1,.29.41,2.34,2.34,0,0,1,.19.46,1.81,1.81,0,0,1,.08.51,2.27,2.27,0,0,1,0,.52,3.87,3.87,0,0,1-1,1.83l-.27-.3a3.44,3.44,0,0,0,.85-1,7.14,7.14,0,0,0,.59-1.25,16.41,16.41,0,0,0,.72-2.69,26.07,26.07,0,0,0,.35-2.78C159,242.44,159.07,241.51,159.05,240.56Z"/><path class="cls-9" d="M147.41,251.79c0-.31-.18-.4-.37-.8a2.34,2.34,0,0,1-.13-.4,3.5,3.5,0,0,1-.14-.46l-.09-.51a4.25,4.25,0,0,1-.07-.53l-.05-.53a4.3,4.3,0,0,1,0-.51c0-.17,0-.33.07-.48a2,2,0,0,1,.13-.43,4,4,0,0,1,.37-.82l.05,0a4.75,4.75,0,0,1,0,.88,2.62,2.62,0,0,0,0,.41,3.64,3.64,0,0,1,0,.45c0,.16,0,.32-.06.49l0,.51a4.17,4.17,0,0,0,0,.5c0,.16,0,.33,0,.49s0,.31.06.46a3.73,3.73,0,0,0,.08.41c.1.51.23,1.91.23.83C147.46,252,147.41,251.36,147.41,251.79Z"/><path class="cls-9" d="M145.57,248s.13,0,.12.08a.2.2,0,0,1-.07.12l-.15.21c-.11.14-.22.27-.31.4a6.59,6.59,0,0,0-.51.89,6.2,6.2,0,0,0-.34.94,4.86,4.86,0,0,0-.19,1s-.07.64-.07.59c0-1.08-.18-.88-.18-.57-.08-.51-.11-.56-.14-.85l-.06-.84-.06-1.67c0-1.12,0-2.23,0-3.35a26.84,26.84,0,0,1,.26-3.35,15.67,15.67,0,0,1,.26-1.67,11.26,11.26,0,0,1,.42-1.64h.05c-.08.55-.12,1.11-.17,1.66l-.11,1.66-.19,3.34c-.08,1.11-.13,2.22-.16,3.33v1.67l0,.83c0,.27,0,.08.1.8,0-.29-.25-.28-.25,0a5.65,5.65,0,0,1,.24-1,5.86,5.86,0,0,1,1-1.83l.33-.4.17-.19a.27.27,0,0,0,.06-.1s0,0-.06,0Z"/><path class="cls-9" d="M140.47,252c0,.4,0-.54,0-.58,0-.36-.07-.89-.1-1.52-.06-1.27-.07-3,0-4.66,0-.86.11-1.71.21-2.5q.1-.6.21-1.14c.09-.36.18-.7.26-1s.2-.59.28-.84a6,6,0,0,1,.26-.64c.15-.35.25-.53.25-.53h.05l-.13.57c0,.19-.1.4-.14.66s-.11.53-.17.84-.1.66-.16,1-.11.74-.16,1.13c-.12.78-.24,1.62-.33,2.45-.17,1.68-.23,3.37-.26,4.63v1.54c0,.2,0-.06,0,.58C140.53,252,140.47,251.83,140.47,252Z"/><path class="cls-9" d="M132.33,250.46s.35-.83.79-2.09c.22-.63.45-1.37.69-2.15s.47-1.66.66-2.51c.1-.43.19-.87.26-1.29s.14-.84.2-1.24.11-.8.16-1.17.08-.72.11-1,0-.63,0-.89a3.74,3.74,0,0,0,0-.69c0-.37,0-.59,0-.59l.05,0,.17.58c0,.09.05.19.09.31s0,.24,0,.38a5.92,5.92,0,0,1,.08.91,9.83,9.83,0,0,1,0,1.08q0,.59-.12,1.2c-.07.42-.14.85-.25,1.27s-.21.86-.33,1.29c-.23.86-.51,1.71-.78,2.5s-.56,1.52-.81,2.13c-.51,1.24-.92,2-.92,2Z"/><path class="cls-9" d="M131.81,248.89a6.36,6.36,0,0,1-.25-.71,6.55,6.55,0,0,1-.19-.74c0-.13,0-.28-.06-.43s-.05-.3-.06-.45c0-.3-.06-.6,0-.9,0-.14,0-.28.08-.41a1.89,1.89,0,0,1,.11-.36,3.55,3.55,0,0,1,.4-.69l0,0a3.49,3.49,0,0,1,0,.74c0,.11,0,.23,0,.35a2.66,2.66,0,0,1,0,.39c0,.13,0,.27-.05.41l0,.43V247c0,.14,0,.28,0,.42s0,.53.06.75a5.59,5.59,0,0,0,.11.73Z"/><path class="cls-9" d="M129.34,239.45a19.08,19.08,0,0,1,0,2.62,21,21,0,0,1-.28,2.61c-.06.44-.16.86-.26,1.29s-.22.86-.36,1.27a6.5,6.5,0,0,1-.22.62,4.73,4.73,0,0,1-.25.62,6.54,6.54,0,0,1-.28.6l-.31.6-.27-.27a3.57,3.57,0,0,0,1.21-1,9.2,9.2,0,0,0,.85-1.42c.49-1,.88-2,1.27-3.08s.75-2.11,1.08-3.17l1-3.19h0c-.19,1.1-.43,2.18-.69,3.27s-.57,2.16-.94,3.23a21.36,21.36,0,0,1-1.34,3.13,11,11,0,0,1-.94,1.47,3.47,3.47,0,0,1-1.39,1.14l-.55.24.28-.51.32-.57a6.1,6.1,0,0,0,.29-.57c.1-.2.18-.4.27-.6s.16-.4.23-.6c.15-.41.27-.82.4-1.24s.2-.84.29-1.26a20.58,20.58,0,0,0,.38-2.58,19,19,0,0,0,.08-2.61Z"/><path class="cls-9" d="M138.45,239.45c0,.47,0,1,0,1.42s0,.94-.07,1.41a19.08,19.08,0,0,1-.47,2.82,13.08,13.08,0,0,1-1,2.7,6.9,6.9,0,0,1-.79,1.25,3.54,3.54,0,0,1-1.16,1l-.24-.33a3.62,3.62,0,0,0,1.2-1.49,1.67,1.67,0,0,0,.13-.45,1.49,1.49,0,0,0,0-.47,2,2,0,0,0-.07-.48,4.43,4.43,0,0,0-.17-.47,3.88,3.88,0,0,1,.24.45,1.58,1.58,0,0,1,.15.48,1.75,1.75,0,0,1,0,.51,2.27,2.27,0,0,1-.09.52A3.81,3.81,0,0,1,135,250l-.25-.33a3.65,3.65,0,0,0,1-.94,8.36,8.36,0,0,0,.72-1.19,16.19,16.19,0,0,0,1-2.6,27.08,27.08,0,0,0,.63-2.73C138.24,241.32,138.37,240.39,138.45,239.45Z"/><path class="cls-9" d="M125.54,249.5a4.94,4.94,0,0,1-.27-.85c0-.12,0-.27-.09-.42s-.05-.31-.06-.47l0-.52a3.13,3.13,0,0,1,0-.53l0-.53a3,3,0,0,1,.08-.52c0-.16.08-.32.12-.46a3.89,3.89,0,0,1,.18-.41,4.74,4.74,0,0,1,.5-.76l0,0a6,6,0,0,1-.13.87c0,.13-.07.26-.08.4a3.58,3.58,0,0,1-.09.45c0,.16-.09.31-.12.48l-.09.5a2.08,2.08,0,0,0-.07.5c0,.17,0,.34,0,.49s0,.32,0,.47a2.68,2.68,0,0,0,0,.41,4.78,4.78,0,0,0,.12.86Z"/><path class="cls-9" d="M124.2,245.47s.13,0,.11.1-.06.08-.08.12l-.2.18-.37.36a6.26,6.26,0,0,0-.63.81,6.64,6.64,0,0,0-.81,1.83l-.16.59-.1-.59a4.17,4.17,0,0,1,0-.86l.06-.84c0-.56.12-1.11.19-1.67.15-1.11.32-2.21.52-3.32a31.14,31.14,0,0,1,.76-3.28c.15-.54.32-1.09.51-1.62a12.71,12.71,0,0,1,.66-1.57l0,0c-.16.53-.29,1.07-.42,1.62l-.35,1.63-.7,3.28c-.24,1.09-.46,2.18-.64,3.28-.1.55-.18,1.1-.25,1.65l-.09.83a4.34,4.34,0,0,0,0,.8H122a7.23,7.23,0,0,1,.94-1.86,5.74,5.74,0,0,1,.69-.79l.39-.36.2-.17.07-.08s0,0-.07,0Z"/><path class="cls-9" d="M118.43,248.73s0-.85.19-2.13a43.65,43.65,0,0,1,.81-4.62c.19-.83.4-1.67.64-2.43l.4-1.1.42-.95c.14-.3.29-.55.41-.78a3.83,3.83,0,0,1,.35-.59l.32-.48,0,0-.21.55c-.07.17-.16.37-.25.62s-.19.52-.29.81-.22.62-.33,1-.23.71-.35,1.08c-.24.76-.5,1.56-.73,2.38-.45,1.63-.79,3.3-1,4.56s-.33,2.09-.33,2.09Z"/><path class="cls-9" d="M110.2,245.76s.56-.73,1.3-1.86c.36-.56.77-1.23,1.19-2s.84-1.51,1.22-2.31c.19-.4.37-.81.53-1.21s.33-.79.48-1.18.27-.76.42-1.11.23-.69.34-1,.17-.61.24-.86a4.85,4.85,0,0,0,.14-.68c.08-.36.12-.59.12-.59h0s0,.21,0,.59v.32c0,.12,0,.25,0,.38a7,7,0,0,1-.14.91c-.08.32-.14.69-.26,1.06a11.87,11.87,0,0,1-.38,1.15c-.16.4-.32.8-.51,1.2s-.39.8-.61,1.2c-.41.79-.86,1.57-1.31,2.29s-.9,1.36-1.3,1.9c-.81,1.1-1.42,1.79-1.42,1.79Z"/><path class="cls-9" d="M110,244.1a5.46,5.46,0,0,1-.08-.75,4.84,4.84,0,0,1,0-.77c0-.14,0-.28,0-.43s0-.3.06-.45a7.57,7.57,0,0,1,.2-.88c.06-.13.12-.26.19-.38a2.06,2.06,0,0,1,.2-.33,3.64,3.64,0,0,1,.58-.58l0,0a4.05,4.05,0,0,1-.22.71,2.75,2.75,0,0,0-.1.34c0,.12-.08.24-.13.37a3.52,3.52,0,0,0-.16.39l-.15.41-.12.42a3.38,3.38,0,0,0-.09.41c0,.27-.11.53-.13.75a6.06,6.06,0,0,0-.06.74Z"/><path class="cls-9" d="M110.45,234.41c-.26.81-.58,1.63-.92,2.44s-.72,1.61-1.15,2.39c-.22.39-.45.78-.68,1.16s-.51.74-.79,1.1c-.14.18-.3.35-.45.52a5.57,5.57,0,0,1-.46.51c-.18.16-.32.33-.51.49l-.54.45-.13-.18-.17-.22a1.72,1.72,0,0,0,1-.15,4,4,0,0,0,.8-.4,7.85,7.85,0,0,0,1.35-1.07,22.24,22.24,0,0,0,2.2-2.58c.67-.91,1.3-1.82,1.92-2.78l1.83-2.87,0,0c-.48,1-1,2-1.54,3s-1.14,2-1.8,2.92a15.32,15.32,0,0,1-2.23,2.62,8.5,8.5,0,0,1-1.45,1.1,4.24,4.24,0,0,1-1.93.63c.07,0-.94-.13-.94-.13l.61-.3.65-.36a2.87,2.87,0,0,0,.53-.45,5.55,5.55,0,0,0,.49-.48c.15-.16.31-.32.45-.5a11.84,11.84,0,0,0,.82-1.05c.25-.37.5-.74.73-1.12a22.58,22.58,0,0,0,1.24-2.33,24.93,24.93,0,0,0,1-2.4Z"/><path class="cls-9" d="M118.62,236.07a15.84,15.84,0,0,1-.57,2.78,17.79,17.79,0,0,1-1,2.69,13,13,0,0,1-1.51,2.52,8.94,8.94,0,0,1-1,1.1,3.94,3.94,0,0,1-1.4.8l-.19-.35a3.86,3.86,0,0,0,1.53-1.28,1.92,1.92,0,0,0,.23-.42,1.57,1.57,0,0,0,.12-.46,1.55,1.55,0,0,0,0-.48,2.53,2.53,0,0,0-.07-.48,3.53,3.53,0,0,1,.15.46,2.14,2.14,0,0,1,.06.5,2.23,2.23,0,0,1-.26,1,4,4,0,0,1-1.56,1.5l-.18-.37a4,4,0,0,0,1.19-.76,8.06,8.06,0,0,0,1-1.06,16.64,16.64,0,0,0,1.49-2.41,26.12,26.12,0,0,0,1.15-2.59C118.07,237.87,118.37,237,118.62,236.07Z"/><path class="cls-2" d="M237.15,195.36c0-.35,0-.71,0-1.06-.34-26.67-1.54-56.32-2.16-70.57-8.77-26-31-45.74-44.3-55.71a67.25,67.25,0,0,1-21.25,3.27,70.85,70.85,0,0,1-20.67-3c-13.81,10.24-38.28,31.7-46.2,60-.66,15.75-1.65,42.58-1.85,66.61V195c7.93,1.21,27,3.08,68.94,3.08C207.94,198.11,227.67,196.55,237.15,195.36Z"/><path class="cls-8" d="M237.23,205.14c0-2.91,0-5.9-.06-8.93,0-.28,0-.57,0-.85-9.48,1.19-29.21,2.75-67.5,2.75-41.95,0-61-1.87-68.94-3.08,0,.44,0,.88,0,1.31,0,3,0,6,0,8.93,0,.31,0,.61,0,.92s0,.75,0,1.13c8.31,1.21,27.47,3,68.27,3,39.38,0,59.12-1.65,68.27-2.86v-2.3Z"/><path class="cls-8" d="M80,286.19s-8.79,1.49-7.6,10.43A15,15,0,0,0,69,302.24a16.85,16.85,0,0,0-11.48,4.86c-5.19,5.11-9.52-39.8-6.07-39.41,4.36-1.78,10.12-1.18,23-3.47C78,266.65,80,286.19,80,286.19Z"/><path class="cls-4" d="M70.17,295.44a10.05,10.05,0,0,1,.16-2.57"/><path class="cls-4" d="M71.12,290.42a10.72,10.72,0,0,1,1.38-2.18"/><path class="cls-4" d="M74.32,286.4A13.49,13.49,0,0,1,76.45,285"/><path class="cls-4" d="M67.65,298.61a17.42,17.42,0,0,1,1.74-2.19"/><path class="cls-4" d="M56.72,304.36a17.44,17.44,0,0,1,2.81-1.92"/><path class="cls-4" d="M62.64,301.07a27,27,0,0,1,3.27-.94"/><path class="cls-8" d="M79.28,263.74l-.73,4.63s-13.39,7-31.87,3.17a37.35,37.35,0,0,1-.63-4.73C59.23,269.87,74,265.56,79.28,263.74Z"/><path class="cls-2" d="M95.2,58.34c9.86,23.91,10.18,57.31,10.18,57.31L79.28,263.74c-5.3,1.82-20.05,6.13-33.23,3.07C43.21,232.9,49,75.61,95.2,58.34Z"/><path class="cls-8" d="M258.48,287.51s8.79,1.49,7.6,10.43a15.21,15.21,0,0,1,3.42,5.62A16.81,16.81,0,0,1,281,308.42c5.19,5.11,9.52-39.8,6.08-39.4-4.37-1.79-10.13-1.19-23-3.48C260.41,268,258.48,287.51,258.48,287.51Z"/><path class="cls-4" d="M268.28,296.76a10.53,10.53,0,0,0-.17-2.57"/><path class="cls-4" d="M267.32,291.74a11,11,0,0,0-1.38-2.18"/><path class="cls-4" d="M264.13,287.72a14.06,14.06,0,0,0-2.14-1.44"/><path class="cls-4" d="M270.8,299.93a16.64,16.64,0,0,0-1.74-2.18"/><path class="cls-4" d="M281.72,305.69a16.87,16.87,0,0,0-2.81-1.93"/><path class="cls-4" d="M275.8,302.39a28.4,28.4,0,0,0-3.27-.94"/><path class="cls-8" d="M259.17,265.06l.72,4.63s13.39,7,31.87,3.17a35.63,35.63,0,0,0,.63-4.72C279.22,271.19,264.46,266.88,259.17,265.06Z"/><path class="cls-2" d="M243.24,59.67c-9.85,23.9-10.17,57.3-10.17,57.3l26.1,148.09c5.29,1.82,20.05,6.13,33.22,3.08C295.23,234.22,289.46,76.93,243.24,59.67Z"/></svg>