<svg id="圖層_1" data-name="圖層 1" xmlns="http://www.w3.org/2000/svg" viewBox="0 0 324.55 678.76"><defs><style>.cls-1,.cls-5{fill:#fff;}.cls-1,.cls-10,.cls-11,.cls-2,.cls-3,.cls-6,.cls-8,.cls-9{stroke:#231815;}.cls-1,.cls-10,.cls-11,.cls-2,.cls-3,.cls-6,.cls-8{stroke-linecap:round;}.cls-1,.cls-10,.cls-2,.cls-3,.cls-6,.cls-8{stroke-linejoin:round;}.cls-2{fill:#e4d3d4;}.cls-3,.cls-9{fill:#cdc1d1;}.cls-10,.cls-11,.cls-4,.cls-6{fill:none;}.cls-7{fill:#595757;}.cls-8{fill:#252641;}.cls-11,.cls-9{stroke-miterlimit:10;}.cls-10{stroke-width:0.5px;}.cls-12{fill:#231815;}</style></defs><path class="cls-1" d="M118.62,36.39l-1.34.58c-17,7.75-26.41,40.82-26,54.31,20.7,15.12,36.87,17.63,36.87,17.63S135,63.35,118.62,36.39Z"/><path class="cls-1" d="M274.57,36.72c.46.19.91.39,1.35.59,17,7.74,26.41,40.81,26,54.3C281.2,106.73,265,109.24,265,109.24S258.17,63.68,274.57,36.72Z"/><path class="cls-1" d="M216.76,34.84a74,74,0,0,1-19.66,2.51,76.29,76.29,0,0,1-20.65-2.72C142.51,57.71,131.88,92.81,128.31,109c1.33,6.68,12.58,63.21,12.31,70.74-.28,8-9.16,31.9-9.36,37.92,0,0,28.92,7.39,68,7.39s62.57-6.59,62.57-6.59c-.21-6.07-10.93-31.37-9.42-38.95,1.32-6.66,10.34-57.65,12.49-69.79C261.68,93.88,250.72,58.37,216.76,34.84Z"/><path class="cls-1" d="M151.32,28c-7.11.9-20.65,3.17-32.66,8.37,12.13,19.93,11.52,49.77,10.38,64,5.14-16.18,16.84-46.64,45.38-66.29C158.37,29,151.33,28,151.32,28Z"/><path class="cls-2" d="M129,100.3c-.4,5-.87,8.09-.87,8.09l.14.65c3.57-16.23,14.2-51.33,48.14-74.41-.7-.19-1.37-.41-2-.62C145.88,53.66,134.18,84.12,129,100.3Z"/><path class="cls-2" d="M218.81,34.22c-.68.21-1.34.43-2.05.62,34,23.53,44.92,59,48.16,74.92.29-1.66.45-2.6.45-2.6s-.16-1.33-.35-3.62C260.68,87.43,248.83,55.28,218.81,34.22Z"/><path class="cls-1" d="M273.88,36.55c-12.18-4.94-25.24-7.42-32-8.48,0,0-7.09,1.18-23,6.15,30,21.06,41.87,53.21,46.21,69.32C264.08,92.55,262.36,58.77,273.88,36.55Z"/><path class="cls-1" d="M197.52,37.35c33.89,0,44.33-9.27,44.33-9.28a5.28,5.28,0,0,0-4.71-.64,141,141,0,0,1-40,5.64,151.4,151.4,0,0,1-40.86-5.64,8.26,8.26,0,0,0-5,.53S163.63,37.35,197.52,37.35Z"/><path class="cls-3" d="M162.78,630.92l6.11,26.46s15-3.42,20.52-1.58c-.06-2.58-.52-22.53-.52-22.53Z"/><path class="cls-3" d="M234.48,630.92l-6.1,26.46s-15-3.42-20.53-1.58c.06-2.58.52-22.53.52-22.53Z"/><path class="cls-4" d="M197.79,415.36l1.55-.29c-.69-40.31-.69-66.75-.74-79C198.54,348.42,198.52,374.8,197.79,415.36Z"/><path class="cls-4" d="M197.85,411.84c.47.09,1,.17,1.44.24-.64-38.61-.64-64.07-.69-76C198.54,348.06,198.52,373.29,197.85,411.84Z"/><path class="cls-5" d="M220.42,237.69s24.8,3,31.23,12.44c3.26,4.83-26.76.27-26.76.27Z"/><path class="cls-5" d="M146.63,246.62c21.86-16.81,72-9.92,72-9.92-1.59-.8,25.75,7.43,3.56,15-31.13-11.09-73.09,2.86-73.09,2.86S145.23,250.45,146.63,246.62Z"/><path class="cls-1" d="M146.63,246.62c-3.1,1.64-2.47,5.9-2.47,5.9s-3.49,2.83-2.84,6.83a8.41,8.41,0,0,0-1.92,4.59s22.49-15.87,58-15.5,61.09,16.72,61.09,16.72.57-1.81-2.07-4.68c.6-4-2.88-6.52-2.88-6.52a7.43,7.43,0,0,0-2.56-5.77"/><path class="cls-6" d="M197.45,234.87c-35.56-.37-50.82,11.56-50.82,11.56"/><path class="cls-6" d="M251,248s-18-12.76-53.58-13.13"/><path class="cls-6" d="M197.45,239.34c-35.56-.38-53.29,13-53.29,13"/><path class="cls-6" d="M253.59,253.77S233,239.71,197.45,239.34"/><path class="cls-6" d="M197.48,245c-35.57-.37-56.16,14.2-56.16,14.2"/><path class="cls-6" d="M256.47,260.29s-23.43-15-59-15.33"/><path class="cls-7" d="M179.51,244.27a8.23,8.23,0,0,1-.65-1.84,5.1,5.1,0,0,1-.16-1,5.35,5.35,0,0,1,0-1l.09.12a2.65,2.65,0,0,1-1.07-.88,3.73,3.73,0,0,1-.55-1.09,5.37,5.37,0,0,1-.21-2.29,8.91,8.91,0,0,0,.59,2.21,3.29,3.29,0,0,0,1.52,1.79.15.15,0,0,1,.08.12h0a7.47,7.47,0,0,0,0,.95c0,.31,0,.62.06.95C179.25,243,179.37,243.64,179.51,244.27Z"/><path class="cls-7" d="M173,244.26a4.5,4.5,0,0,1-1-1.19,2.1,2.1,0,0,1-.28-.7,1,1,0,0,1,.15-.8l.25.2a1.16,1.16,0,0,1-.73-.08,1.22,1.22,0,0,1-.4-.33,2.44,2.44,0,0,1-.4-.74,4.52,4.52,0,0,1-.23-1.58,11.64,11.64,0,0,0,.58,1.48,3.64,3.64,0,0,0,.43.67.71.71,0,0,0,.66.28c.12,0,.24,0,.27.08a.14.14,0,0,1,0,.11v0a1.42,1.42,0,0,0,.05,1.28A8.9,8.9,0,0,0,173,244.26Z"/><path class="cls-7" d="M197,243.57a14.42,14.42,0,0,1-1.53-2,5.9,5.9,0,0,1-.54-1.1,2,2,0,0,1-.13-.59.7.7,0,0,1,.32-.65l.15.27a.72.72,0,0,1-.48-.19,1.07,1.07,0,0,1-.23-.25,3.22,3.22,0,0,1-.29-.5,6.9,6.9,0,0,1-.36-1,10.69,10.69,0,0,1-.36-2.07q.36,1,.72,2a7.1,7.1,0,0,0,.43,1,2.59,2.59,0,0,0,.26.46.74.74,0,0,0,.33.27.25.25,0,0,1,.27.06c0,.06,0,.12,0,.16l-.08,0a.48.48,0,0,0-.18.41,2.13,2.13,0,0,0,.1.54,7.41,7.41,0,0,0,.45,1.07C196.17,242.18,196.59,242.87,197,243.57Z"/><path class="cls-7" d="M150.89,252.62a7.79,7.79,0,0,1-1.51-1.21,3.31,3.31,0,0,1-.59-.75,1.16,1.16,0,0,1-.09-1.06l.27.17a.75.75,0,0,1-.51.06,2.22,2.22,0,0,1-.33-.09,3.94,3.94,0,0,1-.54-.29,7.66,7.66,0,0,1-.89-.67,11,11,0,0,1-1.52-1.54c.62.42,1.2.87,1.8,1.3.31.21.6.43.92.62.17.09.33.18.5.25a.89.89,0,0,0,.42.08.26.26,0,0,1,.27-.08.11.11,0,0,1,0,.16l0,.09a.94.94,0,0,0,.08.81,4.81,4.81,0,0,0,.48.76A17.65,17.65,0,0,0,150.89,252.62Z"/><path class="cls-7" d="M193.27,244.4a14.23,14.23,0,0,1-.77-2.51,7.87,7.87,0,0,1-.17-1.28,3.64,3.64,0,0,1,0-.66,1.09,1.09,0,0,1,.32-.68l.25.24a.68.68,0,0,1-.43-.07.61.61,0,0,1-.21-.16A1.34,1.34,0,0,1,192,239a4.35,4.35,0,0,1-.32-.65,10.58,10.58,0,0,1-.41-1.32,18.25,18.25,0,0,1-.47-2.64c.26.87.54,1.74.8,2.6.15.44.31.86.48,1.28a4.48,4.48,0,0,0,.31.62,1.78,1.78,0,0,0,.21.27.52.52,0,0,0,.15.1l.23.24a1,1,0,0,0-.21.53,3.14,3.14,0,0,0-.05.61,10.71,10.71,0,0,0,.11,1.26C193,242.71,193.13,243.54,193.27,244.4Z"/><path class="cls-7" d="M190.11,243.24a12.42,12.42,0,0,1,0-1.93c0-.33.07-.65.13-1,0-.16.07-.33.11-.49s0-.16.09-.25a.79.79,0,0,1,.18-.28l.22.24a.88.88,0,0,1-.68-.15.93.93,0,0,1-.28-.36,2.12,2.12,0,0,1-.18-.73,4.18,4.18,0,0,1,.1-1.45,10.92,10.92,0,0,0,.24,1.41,2.74,2.74,0,0,0,.25.66.78.78,0,0,0,.21.26.3.3,0,0,0,.26.06h0c.12,0,.24,0,.25.12a.11.11,0,0,1,0,.12l-.09.17c0,.08-.06.16-.08.23a3.59,3.59,0,0,0-.12.47l-.2.95C190.37,242,190.26,242.6,190.11,243.24Z"/><path class="cls-7" d="M186,241.58a2.07,2.07,0,0,1-.79-.91.8.8,0,0,1,0-.59,1.14,1.14,0,0,1,.51-.54l.19.27a.91.91,0,0,1-.52,0,.88.88,0,0,1-.29-.22,1.29,1.29,0,0,1-.22-.48,2,2,0,0,1,0-1c.13.31.22.61.37.9a2,2,0,0,0,.24.39.36.36,0,0,0,.29.14h0a.25.25,0,0,1,.27.11.15.15,0,0,1-.09.17.72.72,0,0,0-.44.82A2.66,2.66,0,0,0,186,241.58Z"/><path class="cls-7" d="M189.27,244.35a9.88,9.88,0,0,1-1.92-2.19,3.62,3.62,0,0,1-.52-1.26,1.52,1.52,0,0,1,.34-1.37l.24.23a.72.72,0,0,1-.55-.11,1,1,0,0,1-.26-.25,2.45,2.45,0,0,1-.27-.5,4.42,4.42,0,0,1-.29-1,9.65,9.65,0,0,1-.17-2.07c.15.68.31,1.35.5,2a8.33,8.33,0,0,0,.36,1,2.51,2.51,0,0,0,.26.45,1.29,1.29,0,0,0,.18.16c.07,0,.1.05.14,0s.25,0,.27.12,0,.07,0,.11a1.39,1.39,0,0,0-.29,1.16,4,4,0,0,0,.44,1.21A13.51,13.51,0,0,0,189.27,244.35Z"/><path class="cls-7" d="M157.94,251a18.28,18.28,0,0,1-1.7-2,8.72,8.72,0,0,1-.67-1.14,3.16,3.16,0,0,1-.25-.6,1.08,1.08,0,0,1,0-.75l.32.13a.62.62,0,0,1-.42.09,1,1,0,0,1-.26-.07,2,2,0,0,1-.35-.21,5.25,5.25,0,0,1-.55-.48,10.23,10.23,0,0,1-.93-1.06,18.78,18.78,0,0,1-1.54-2.26l1.84,2.1c.31.34.63.68,1,1a4.7,4.7,0,0,0,.55.45,1.49,1.49,0,0,0,.3.18c.1.05.21,0,.17,0l.32.13a.93.93,0,0,0,0,.57,3.1,3.1,0,0,0,.21.58,10.28,10.28,0,0,0,.61,1.13C157,249.55,157.48,250.27,157.94,251Z"/><path class="cls-7" d="M154.65,251.05a12.91,12.91,0,0,1-.8-1.78,9.15,9.15,0,0,1-.29-.93c0-.17-.07-.33-.1-.49l0-.26a.79.79,0,0,1,.06-.33l.3.15a.92.92,0,0,1-.69.1,1.13,1.13,0,0,1-.41-.22,2.48,2.48,0,0,1-.49-.6,4.56,4.56,0,0,1-.52-1.37,13.67,13.67,0,0,0,.83,1.21,3.08,3.08,0,0,0,.51.51.77.77,0,0,0,.3.15.32.32,0,0,0,.27,0h0a.23.23,0,0,1,.29,0,.12.12,0,0,1,0,.13.78.78,0,0,0,0,.19c0,.07,0,.15,0,.23s.05.32.08.48l.22.94Z"/><path class="cls-7" d="M154.39,252.35a11.57,11.57,0,0,1-2.65-1.27,4.09,4.09,0,0,1-1-.94,1.52,1.52,0,0,1-.31-1.37l.33.11a.75.75,0,0,1-.55.12,1.31,1.31,0,0,1-.35-.11,2.56,2.56,0,0,1-.48-.34,5.51,5.51,0,0,1-.73-.81,10.14,10.14,0,0,1-1.11-1.8c.46.55.91,1.1,1.39,1.61a8.91,8.91,0,0,0,.77.74,2.71,2.71,0,0,0,.45.3,1.13,1.13,0,0,0,.24.08.19.19,0,0,0,.14,0,.26.26,0,0,1,.3,0,.13.13,0,0,1,0,.12,1.37,1.37,0,0,0,.26,1.17,4.55,4.55,0,0,0,.93.93A17.85,17.85,0,0,0,154.39,252.35Z"/><path class="cls-7" d="M175.39,246.08a16.54,16.54,0,0,1-1.18-2.34,8.83,8.83,0,0,1-.4-1.23,4.76,4.76,0,0,1-.09-.66,1.09,1.09,0,0,1,.19-.72l.28.19a.71.71,0,0,1-.43,0,1.2,1.2,0,0,1-.23-.12,2,2,0,0,1-.29-.28,4.66,4.66,0,0,1-.43-.59,10.15,10.15,0,0,1-.64-1.22,19.83,19.83,0,0,1-.95-2.53l1.27,2.43c.22.4.45.79.7,1.18a4.44,4.44,0,0,0,.42.55,1.09,1.09,0,0,0,.25.23.25.25,0,0,0,.15.07l.28.2a1.09,1.09,0,0,0-.12.55,3.18,3.18,0,0,0,.07.62,11.14,11.14,0,0,0,.32,1.23C174.81,244.46,175.11,245.27,175.39,246.08Z"/><path class="cls-7" d="M169.17,247.19a9.78,9.78,0,0,1-.6-2.51,5.34,5.34,0,0,1,0-1.32,2.84,2.84,0,0,1,.21-.69,1.64,1.64,0,0,1,.59-.67l.11.27a1.15,1.15,0,0,1-.85-.29,1.62,1.62,0,0,1-.34-.55,3.41,3.41,0,0,1-.21-1.18,8.36,8.36,0,0,1,.31-2.41,15.48,15.48,0,0,0,0,2.36,4.19,4.19,0,0,0,.27,1.11.88.88,0,0,0,.83.65c.12,0,.21,0,.21.14a.23.23,0,0,1-.08.12h0a1.82,1.82,0,0,0-.65,1.13,6.08,6.08,0,0,0-.09,1.28A16.8,16.8,0,0,0,169.17,247.19Z"/><path class="cls-7" d="M158.06,247.58a2.24,2.24,0,0,1-1-.67.78.78,0,0,1-.22-.55,1,1,0,0,1,.31-.64l.27.2a.92.92,0,0,1-.51.1.88.88,0,0,1-.35-.14,1.36,1.36,0,0,1-.37-.39,2.23,2.23,0,0,1-.31-.93c.23.25.42.51.65.75a2.11,2.11,0,0,0,.36.31.35.35,0,0,0,.33,0h0a.23.23,0,0,1,.29,0,.13.13,0,0,1,0,.18.71.71,0,0,0-.16.91A2.91,2.91,0,0,0,158.06,247.58Z"/><path class="cls-7" d="M178.41,245.43a10.09,10.09,0,0,1-2.15-2,3.67,3.67,0,0,1-.66-1.21,1.48,1.48,0,0,1,.19-1.38l.26.2a.82.82,0,0,1-.55-.06,1.16,1.16,0,0,1-.29-.22,2,2,0,0,1-.32-.47,4.81,4.81,0,0,1-.4-1,9.66,9.66,0,0,1-.4-2.05c.23.66.46,1.32.72,2a8.1,8.1,0,0,0,.47.93,2.17,2.17,0,0,0,.31.42.7.7,0,0,0,.2.15.16.16,0,0,0,.14,0,.25.25,0,0,1,.28.09.09.09,0,0,1,0,.11,1.38,1.38,0,0,0-.16,1.18,4.33,4.33,0,0,0,.56,1.17A14,14,0,0,0,178.41,245.43Z"/><path class="cls-7" d="M185,242.55a4.07,4.07,0,0,1-1.24-1.16,1.72,1.72,0,0,1-.29-1.5l.34.14a.85.85,0,0,1-.35.1.87.87,0,0,1-.37-.06,1,1,0,0,1-.36-.31,2.21,2.21,0,0,1-.29-.68,3.93,3.93,0,0,1-.12-1.36c.14.43.28.87.46,1.3a3.42,3.42,0,0,0,.33.59,1.06,1.06,0,0,0,.24.2.29.29,0,0,0,.22,0,.28.28,0,0,1,.32,0,.1.1,0,0,1,0,.09h0c0,.11,0,.23,0,.34a1,1,0,0,0,0,.34,2.77,2.77,0,0,0,.22.67A6.16,6.16,0,0,0,185,242.55Z"/><path class="cls-7" d="M182.55,244.52a14.63,14.63,0,0,1-1.42-2,6.77,6.77,0,0,1-.5-1.1,2,2,0,0,1-.13-.59.79.79,0,0,1,.24-.67l-.05.14a2.59,2.59,0,0,1,.08-1.24,8.69,8.69,0,0,1,.41-1.18,14.66,14.66,0,0,1,1.22-2.31c-.33.78-.64,1.56-.9,2.34a12.09,12.09,0,0,0-.32,1.18,2.72,2.72,0,0,0-.05,1.13.15.15,0,0,1,0,.13.55.55,0,0,0-.12.45,2.08,2.08,0,0,0,.11.54,7.53,7.53,0,0,0,.42,1.08C181.81,243.1,182.2,243.81,182.55,244.52Z"/><path class="cls-7" d="M164.82,245.12a2.32,2.32,0,0,1-1-.75.79.79,0,0,1-.16-.56,1,1,0,0,1,.38-.63l.25.23a.82.82,0,0,1-.53.05.78.78,0,0,1-.33-.16,1.31,1.31,0,0,1-.33-.43,2.24,2.24,0,0,1-.22-1c.21.27.37.55.58.81a1.67,1.67,0,0,0,.32.33c.14.1.24.12.32.08h0a.25.25,0,0,1,.29,0c0,.06,0,.13-.06.18a.73.73,0,0,0-.24.9A2.87,2.87,0,0,0,164.82,245.12Z"/><path class="cls-7" d="M168.59,247.57a10.79,10.79,0,0,1-2.18-1.94,4.32,4.32,0,0,1-.71-1.2,1.65,1.65,0,0,1,.07-1.43l.28.16a.64.64,0,0,1-.6,0,.87.87,0,0,1-.25-.26,2.81,2.81,0,0,1-.29-.54,6.26,6.26,0,0,1-.33-1.12,12.89,12.89,0,0,1-.27-2.33c.19.75.37,1.5.6,2.24a9.9,9.9,0,0,0,.39,1.08,2.46,2.46,0,0,0,.28.5.86.86,0,0,0,.19.19c.08,0,.11,0,.12,0a.24.24,0,0,1,.29,0,.1.1,0,0,1,0,.12l0,0a1.6,1.6,0,0,0-.06,1.25,4.34,4.34,0,0,0,.62,1.16A16.38,16.38,0,0,0,168.59,247.57Z"/><path class="cls-7" d="M162.06,248.25a10,10,0,0,1-1.68-1.48,4.87,4.87,0,0,1-.64-.87,2.71,2.71,0,0,1-.22-.49,1.63,1.63,0,0,1-.09-.55l.37.07a1.39,1.39,0,0,1-.3.17.73.73,0,0,1-.38,0,.83.83,0,0,1-.43-.21,2.11,2.11,0,0,1-.47-.58,4.7,4.7,0,0,1-.49-1.29c.26.39.51.78.8,1.14a2.79,2.79,0,0,0,.48.49.85.85,0,0,0,.29.14.26.26,0,0,0,.2-.08.27.27,0,0,1,.32,0,.1.1,0,0,1,.06.09,1.53,1.53,0,0,0,.07.47,2.53,2.53,0,0,0,.19.45,6.68,6.68,0,0,0,.55.87A21,21,0,0,0,162.06,248.25Z"/><path class="cls-7" d="M164.11,248.2a14.69,14.69,0,0,1-1.81-1.71,6.84,6.84,0,0,1-.73-1,3,3,0,0,1-.25-.55.75.75,0,0,1,.09-.71l0,.14a2.51,2.51,0,0,1-.19-1.23,7.61,7.61,0,0,1,.15-1.25,12.64,12.64,0,0,1,.71-2.5c-.17.82-.3,1.65-.4,2.47,0,.41,0,.82-.06,1.22a2.7,2.7,0,0,0,.2,1.12.17.17,0,0,1,0,.15.52.52,0,0,0,0,.46,2.81,2.81,0,0,0,.22.51,9.66,9.66,0,0,0,.65,1C163.09,247,163.61,247.57,164.11,248.2Z"/><path class="cls-7" d="M231.38,247.91a8.7,8.7,0,0,1,.25-1.92,6.58,6.58,0,0,1,.74-1.8l0,.15a2.7,2.7,0,0,1-.56-1.24,3.71,3.71,0,0,1,0-1.2,5.31,5.31,0,0,1,.86-2.14,8.91,8.91,0,0,0-.49,2.22,3.22,3.22,0,0,0,.55,2.24.14.14,0,0,1,0,.16h0a6.73,6.73,0,0,0-.46.83c-.15.28-.25.58-.38.87C231.73,246.68,231.54,247.29,231.38,247.91Z"/><path class="cls-7" d="M225.51,245.11a4.27,4.27,0,0,1-.36-1.5,2.08,2.08,0,0,1,.08-.74,1.11,1.11,0,0,1,.5-.65l.13.29a1,1,0,0,1-.61-.39,1.1,1.1,0,0,1-.22-.45,2.32,2.32,0,0,1,0-.83,4.55,4.55,0,0,1,.51-1.52,11.93,11.93,0,0,0-.16,1.57,3.46,3.46,0,0,0,.09.78.65.65,0,0,0,.46.53c.12,0,.21.11.2.19a.1.1,0,0,1-.06.09h0a1.45,1.45,0,0,0-.55,1.17A8.79,8.79,0,0,0,225.51,245.11Z"/><path class="cls-7" d="M246.82,255.15c-.08-.81-.16-1.64-.16-2.46a6.9,6.9,0,0,1,.09-1.21,2.46,2.46,0,0,1,.19-.58.76.76,0,0,1,.61-.41v.31a.68.68,0,0,1-.32-.4,2.49,2.49,0,0,1-.08-.32,3.74,3.74,0,0,1,0-.58,6,6,0,0,1,.2-1.06,10.1,10.1,0,0,1,.7-2c-.12.7-.24,1.41-.36,2.1a9.77,9.77,0,0,0-.11,1.06,2.44,2.44,0,0,0,0,.54.83.83,0,0,0,.14.39c.11,0,.2.1.2.18s0,.11-.12.12h-.09a.48.48,0,0,0-.36.27,1.94,1.94,0,0,0-.2.51,10.07,10.07,0,0,0-.17,1.14Z"/><path class="cls-7" d="M201.37,242.51a6.27,6.27,0,0,1-.59-1.79,2.91,2.91,0,0,1-.05-.93,1.19,1.19,0,0,1,.54-.93l.13.28a.66.66,0,0,1-.46-.21,1.27,1.27,0,0,1-.22-.26,2.52,2.52,0,0,1-.27-.51,7,7,0,0,1-.33-1,9.82,9.82,0,0,1-.28-2.08c.21.69.43,1.37.64,2.05.13.33.23.67.39,1a3.5,3.5,0,0,0,.25.47c.09.14.28.29.32.28a.26.26,0,0,1,.27.07.12.12,0,0,1-.06.16l-.08.05a1,1,0,0,0-.41.72,3.66,3.66,0,0,0,0,.88A16.21,16.21,0,0,0,201.37,242.51Z"/><path class="cls-7" d="M243.38,254.11a16.66,16.66,0,0,1,.56-2.54,10.2,10.2,0,0,1,.48-1.19,3.3,3.3,0,0,1,.34-.57,1.18,1.18,0,0,1,.62-.45l.09.32a.69.69,0,0,1-.35-.25,1,1,0,0,1-.1-.24,2,2,0,0,1-.06-.39,5.58,5.58,0,0,1,0-.72,9.93,9.93,0,0,1,.27-1.34,19,19,0,0,1,.84-2.55c-.18.9-.35,1.79-.53,2.66-.07.45-.14.9-.19,1.35a3.89,3.89,0,0,0,0,.68,1.86,1.86,0,0,0,0,.34.71.71,0,0,0,.08.15l.09.32a.94.94,0,0,0-.44.36,3.64,3.64,0,0,0-.35.52,11.89,11.89,0,0,0-.52,1.15C244,252.5,243.67,253.31,243.38,254.11Z"/><path class="cls-7" d="M241.23,251.65a14.56,14.56,0,0,1,.93-1.68,8.9,8.9,0,0,1,.58-.79c.11-.13.21-.26.33-.38a1.8,1.8,0,0,1,.2-.18.93.93,0,0,1,.29-.16l.07.32a.94.94,0,0,1-.52-.45,1.13,1.13,0,0,1-.07-.45,1.91,1.91,0,0,1,.18-.73,4.15,4.15,0,0,1,.78-1.23c-.17.45-.34.9-.46,1.35a2.8,2.8,0,0,0-.09.7.88.88,0,0,0,.06.33.32.32,0,0,0,.2.18h0c.12,0,.2.15.17.23s0,.07-.1.09a.37.37,0,0,0-.16.1,1.37,1.37,0,0,0-.18.16,3.61,3.61,0,0,0-.33.35l-.63.74Z"/><path class="cls-7" d="M238.36,248.35a2.06,2.06,0,0,1-.28-1.16.78.78,0,0,1,.25-.53,1.1,1.1,0,0,1,.7-.25l.05.31a.78.78,0,0,1-.45-.26.82.82,0,0,1-.15-.32,1.32,1.32,0,0,1,0-.53,2.15,2.15,0,0,1,.46-.87c0,.33-.08.65-.08,1a1.35,1.35,0,0,0,0,.45c.05.15.11.23.2.25h0a.22.22,0,0,1,.19.21c0,.06-.07.1-.16.1a.78.78,0,0,0-.78.55A2.73,2.73,0,0,0,238.36,248.35Z"/><path class="cls-7" d="M240,252.25a10,10,0,0,1-.67-2.78,3.87,3.87,0,0,1,.12-1.36,1.55,1.55,0,0,1,.94-1.05l.11.31a.78.78,0,0,1-.43-.35,1,1,0,0,1-.12-.33,2.19,2.19,0,0,1,0-.57,4.92,4.92,0,0,1,.22-1,9.25,9.25,0,0,1,.82-1.91c-.18.67-.36,1.34-.5,2a9.09,9.09,0,0,0-.14,1,2.15,2.15,0,0,0,0,.51.69.69,0,0,0,.08.23c0,.06.07.09.1.1s.21.13.19.22a.11.11,0,0,1-.07.09,1.36,1.36,0,0,0-.8.89,3.83,3.83,0,0,0-.18,1.27A13.51,13.51,0,0,0,240,252.25Z"/><path class="cls-7" d="M208.64,244.5a14.19,14.19,0,0,1-.46-2.56,6.84,6.84,0,0,1,0-1.28,3.74,3.74,0,0,1,.09-.66,1.11,1.11,0,0,1,.4-.64l.21.26a.63.63,0,0,1-.41-.11.83.83,0,0,1-.19-.17,2.57,2.57,0,0,1-.2-.35,4.84,4.84,0,0,1-.23-.67,9.18,9.18,0,0,1-.26-1.35,17.09,17.09,0,0,1-.16-2.67c.17.89.33,1.78.5,2.67.09.43.19.88.32,1.31a4.93,4.93,0,0,0,.24.64,1.31,1.31,0,0,0,.17.28.41.41,0,0,0,.13.12l.21.26a1,1,0,0,0-.28.5,4.11,4.11,0,0,0-.12.61,8.8,8.8,0,0,0,0,1.26C208.54,242.79,208.6,243.64,208.64,244.5Z"/><path class="cls-7" d="M205.64,243a13.49,13.49,0,0,1,.25-1.91c.07-.32.15-.64.25-1,.05-.15.1-.31.17-.47l.11-.23a1.12,1.12,0,0,1,.22-.26l.19.28a.86.86,0,0,1-.65-.25.83.83,0,0,1-.24-.39,1.94,1.94,0,0,1-.1-.75,4.31,4.31,0,0,1,.27-1.42c0,.48,0,1,.07,1.43a3.17,3.17,0,0,0,.17.69.92.92,0,0,0,.19.28.28.28,0,0,0,.24.1h0a.22.22,0,0,1,.24.16.14.14,0,0,1-.06.11,1.28,1.28,0,0,0-.12.15,2.14,2.14,0,0,0-.1.22,3.38,3.38,0,0,0-.18.44l-.31.92C206.05,241.76,205.87,242.38,205.64,243Z"/><path class="cls-7" d="M204.69,244a9,9,0,0,1-1.65-2.35,3.59,3.59,0,0,1-.38-1.31,1.54,1.54,0,0,1,.51-1.31l.21.25a.73.73,0,0,1-.53-.17.9.9,0,0,1-.23-.26,2.6,2.6,0,0,1-.22-.53,5.42,5.42,0,0,1-.15-1.05,9.55,9.55,0,0,1,.08-2.07c.07.68.14,1.38.25,2.06a8.1,8.1,0,0,0,.24,1,1.82,1.82,0,0,0,.21.47,1,1,0,0,0,.15.19.26.26,0,0,0,.14,0c.12,0,.24.05.25.13a.1.1,0,0,1,0,.11,1.44,1.44,0,0,0-.43,1.13,4.12,4.12,0,0,0,.29,1.25A13.17,13.17,0,0,0,204.69,244Z"/><path class="cls-7" d="M226.85,247.77a15,15,0,0,1,0-2.6,7.85,7.85,0,0,1,.22-1.27,2.83,2.83,0,0,1,.21-.62,1.05,1.05,0,0,1,.51-.57l.16.29a.62.62,0,0,1-.4-.17,1.19,1.19,0,0,1-.15-.21,1.46,1.46,0,0,1-.14-.38c0-.24-.08-.47-.11-.7a10.45,10.45,0,0,1,0-1.37,18.05,18.05,0,0,1,.31-2.66c0,.9,0,1.81,0,2.71,0,.45,0,.91.09,1.35a3.61,3.61,0,0,0,.12.67,1.75,1.75,0,0,0,.12.32.36.36,0,0,0,.11.13l.16.29a1,1,0,0,0-.36.45,2.92,2.92,0,0,0-.23.58,9.94,9.94,0,0,0-.26,1.23C227.07,246.07,227,246.92,226.85,247.77Z"/><path class="cls-7" d="M220.7,246.09a9.41,9.41,0,0,1,.64-2.49,5,5,0,0,1,.65-1.16,2.77,2.77,0,0,1,.51-.52,1.55,1.55,0,0,1,.84-.35l0,.29a1.13,1.13,0,0,1-.62-.62,1.33,1.33,0,0,1-.05-.65,3.23,3.23,0,0,1,.35-1.13,8.47,8.47,0,0,1,1.39-2,14,14,0,0,0-1.06,2.12,4.32,4.32,0,0,0-.27,1.1.84.84,0,0,0,.44.94c.11,0,.16.14.12.21a.19.19,0,0,1-.13.07h0a2,2,0,0,0-1.1.73,6,6,0,0,0-.68,1.11A19.68,19.68,0,0,0,220.7,246.09Z"/><path class="cls-7" d="M210.51,241.54a2,2,0,0,1-.59-1,.76.76,0,0,1,.09-.58,1,1,0,0,1,.6-.44l.13.3a.84.84,0,0,1-.5-.14.6.6,0,0,1-.23-.26,1.31,1.31,0,0,1-.14-.51,2.13,2.13,0,0,1,.21-1c.07.32.1.64.18.94a2,2,0,0,0,.17.43c.08.13.16.19.26.19h0a.24.24,0,0,1,.25.16.15.15,0,0,1-.12.14.74.74,0,0,0-.6.73A3,3,0,0,0,210.51,241.54Z"/><path class="cls-7" d="M229.86,248.48a9.84,9.84,0,0,1-1-2.71,4,4,0,0,1,0-1.37,1.55,1.55,0,0,1,.81-1.15l.14.29a.71.71,0,0,1-.47-.29,1,1,0,0,1-.16-.31,2.29,2.29,0,0,1-.08-.56,5.29,5.29,0,0,1,.09-1.06,9.86,9.86,0,0,1,.58-2c-.09.68-.19,1.37-.25,2.06a8.83,8.83,0,0,0,0,1,1.78,1.78,0,0,0,.1.51.55.55,0,0,0,.1.22.22.22,0,0,0,.12.09c.12,0,.22.11.21.2a.11.11,0,0,1-.07.09,1.4,1.4,0,0,0-.68,1,3.65,3.65,0,0,0,0,1.28A13.4,13.4,0,0,0,229.86,248.48Z"/><path class="cls-7" d="M237.06,248.78a4.13,4.13,0,0,1-.57-1.59,1.79,1.79,0,0,1,.43-1.47l.24.29a1,1,0,0,1-.35-.08.78.78,0,0,1-.3-.22.93.93,0,0,1-.18-.44,1.91,1.91,0,0,1,0-.72,3.92,3.92,0,0,1,.52-1.27c-.08.45-.15.89-.19,1.35a3.07,3.07,0,0,0,0,.68.66.66,0,0,0,.12.28c0,.07.09.08.2.09a.26.26,0,0,1,.26.18.12.12,0,0,1,0,.1h0a2.43,2.43,0,0,0-.2.28,1.48,1.48,0,0,0-.15.31,3.79,3.79,0,0,0-.11.7A6.49,6.49,0,0,0,237.06,248.78Z"/><path class="cls-7" d="M234,249.45a13.45,13.45,0,0,1-.34-2.41,6,6,0,0,1,.05-1.2,2.48,2.48,0,0,1,.15-.58.83.83,0,0,1,.52-.5l-.1.1a2.6,2.6,0,0,1,.64-1.07,9.49,9.49,0,0,1,.91-.88,15.55,15.55,0,0,1,2.16-1.54c-.66.55-1.29,1.12-1.89,1.7-.29.3-.57.61-.83.92a2.74,2.74,0,0,0-.56,1,.13.13,0,0,1-.1.09.58.58,0,0,0-.32.36,2.23,2.23,0,0,0-.15.52,7.34,7.34,0,0,0-.11,1.15C234,247.87,234,248.66,234,249.45Z"/><path class="cls-7" d="M217.76,242.37a2,2,0,0,1-.52-1.08.74.74,0,0,1,.12-.57,1,1,0,0,1,.63-.39l.12.3a.86.86,0,0,1-.5-.17.84.84,0,0,1-.21-.29,1.22,1.22,0,0,1-.09-.52,2,2,0,0,1,.26-.94c0,.33.06.65.12,1a1.89,1.89,0,0,0,.13.44c.08.15.16.2.25.21h0c.12,0,.23.08.24.17a.14.14,0,0,1-.14.13.75.75,0,0,0-.64.7A2.73,2.73,0,0,0,217.76,242.37Z"/><path class="cls-7" d="M220,246.18a10.32,10.32,0,0,1-1.06-2.67,4,4,0,0,1-.07-1.37,1.67,1.67,0,0,1,.74-1.24l.17.26a.62.62,0,0,1-.52-.31,1.12,1.12,0,0,1-.1-.33,2.41,2.41,0,0,1,0-.6,5.49,5.49,0,0,1,.23-1.14,13.58,13.58,0,0,1,.85-2.19c-.18.75-.37,1.5-.52,2.25-.06.38-.12.75-.15,1.13a2.1,2.1,0,0,0,0,.56.75.75,0,0,0,.08.24c.06.08.08.09.1.09s.23.06.24.14a.08.08,0,0,1,0,.11l0,0a1.66,1.66,0,0,0-.64,1.08,4.07,4.07,0,0,0,0,1.3A14.39,14.39,0,0,0,220,246.18Z"/><path class="cls-7" d="M213.76,243.93a8.85,8.85,0,0,1-.78-2,4.65,4.65,0,0,1-.14-1.05,2.41,2.41,0,0,1,0-.53,1.66,1.66,0,0,1,.19-.51l.3.21a1,1,0,0,1-.36,0,.76.76,0,0,1-.34-.14.84.84,0,0,1-.28-.39,1.85,1.85,0,0,1-.12-.72,3.94,3.94,0,0,1,.2-1.36c0,.47.06.93.13,1.37a3.82,3.82,0,0,0,.19.66.78.78,0,0,0,.19.24.24.24,0,0,0,.21,0,.29.29,0,0,1,.3.12.08.08,0,0,1,0,.1,1.72,1.72,0,0,0-.16.45,2.52,2.52,0,0,0-.05.48,5.76,5.76,0,0,0,.06,1C213.43,242.57,213.6,243.25,213.76,243.93Z"/><path class="cls-7" d="M215.64,244.79a15.19,15.19,0,0,1-.8-2.32,5.81,5.81,0,0,1-.18-1.17,2.43,2.43,0,0,1,0-.6.79.79,0,0,1,.42-.59l-.08.12a2.62,2.62,0,0,1,.42-1.18,10.78,10.78,0,0,1,.73-1,16,16,0,0,1,1.81-1.88c-.53.66-1,1.32-1.52,2-.22.34-.44.69-.63,1a3,3,0,0,0-.37,1.08.14.14,0,0,1-.08.12.56.56,0,0,0-.24.4,2.44,2.44,0,0,0-.06.55,9,9,0,0,0,.12,1.14C215.33,243.23,215.5,244,215.64,244.79Z"/><path class="cls-7" d="M177.8,250.73a6.58,6.58,0,0,1-.75-1.7,5.49,5.49,0,0,1-.17-.9,3.94,3.94,0,0,1,0-.91l.09.12a2.9,2.9,0,0,1-1.18-.81,3.54,3.54,0,0,1-.61-1,4.25,4.25,0,0,1-.25-2.14,7.67,7.67,0,0,0,.66,2.05,3.32,3.32,0,0,0,1.69,1.65c.07,0,.1.07.1.11h0a6.48,6.48,0,0,0,0,.88c0,.3,0,.59.08.89C177.51,249.56,177.64,250.15,177.8,250.73Z"/><path class="cls-7" d="M170.58,250.87a4.69,4.69,0,0,1-1.12-1.1,1.83,1.83,0,0,1-.3-.65.9.9,0,0,1,.16-.75l.27.19a1.6,1.6,0,0,1-.8-.06,1.39,1.39,0,0,1-.44-.28,2.17,2.17,0,0,1-.44-.69,3.52,3.52,0,0,1-.27-1.47,9.43,9.43,0,0,0,.65,1.36,2.81,2.81,0,0,0,.48.61.85.85,0,0,0,.72.24c.14,0,.27,0,.3.08a.09.09,0,0,1,0,.1h0c-.28.36-.11.81.06,1.21A8.19,8.19,0,0,0,170.58,250.87Z"/><path class="cls-7" d="M197.1,249.88a14.07,14.07,0,0,1-1.69-1.88,5.1,5.1,0,0,1-.61-1,1.7,1.7,0,0,1-.13-.55.62.62,0,0,1,.34-.61l.16.25a.8.8,0,0,1-.52-.18,1.19,1.19,0,0,1-.26-.23,3.19,3.19,0,0,1-.32-.46,6.52,6.52,0,0,1-.4-1,8.21,8.21,0,0,1-.4-1.92l.79,1.87c.16.31.29.62.48.92a3,3,0,0,0,.31.42c.09.13.31.27.35.25a.33.33,0,0,1,.3.06s0,.11-.05.14l-.09.05a.45.45,0,0,0-.2.39,1.56,1.56,0,0,0,.11.5,6.66,6.66,0,0,0,.5,1C196.17,248.58,196.64,249.22,197.1,249.88Z"/><path class="cls-7" d="M146.06,259.31a7.82,7.82,0,0,1-1.61-1.12,3.1,3.1,0,0,1-.6-.71.93.93,0,0,1,0-1l.28.15a.92.92,0,0,1-.56.07,2.21,2.21,0,0,1-.35-.09,3,3,0,0,1-.57-.27,9.61,9.61,0,0,1-.94-.63,11.54,11.54,0,0,1-1.57-1.46q.94.63,1.89,1.23c.32.2.63.41,1,.59a4.83,4.83,0,0,0,.52.23.89.89,0,0,0,.46.07.31.31,0,0,1,.3-.07c.07,0,.08.08,0,.15l-.05.08a.77.77,0,0,0,.05.76,3.06,3.06,0,0,0,.49.72A14.5,14.5,0,0,0,146.06,259.31Z"/><path class="cls-7" d="M193,250.65a12.84,12.84,0,0,1-.86-2.33,7,7,0,0,1-.18-1.2,2.09,2.09,0,0,1,0-.61,1,1,0,0,1,.35-.64l.26.23a1,1,0,0,1-.47-.06,1.52,1.52,0,0,1-.23-.16,1.24,1.24,0,0,1-.27-.3,4.07,4.07,0,0,1-.35-.6,10.1,10.1,0,0,1-.46-1.22,14.11,14.11,0,0,1-.53-2.45l.9,2.4c.17.4.34.81.53,1.2a4.15,4.15,0,0,0,.35.57,1.84,1.84,0,0,0,.23.25.53.53,0,0,0,.17.1l.26.22a.84.84,0,0,0-.24.49,2.78,2.78,0,0,0,0,.58,7.74,7.74,0,0,0,.12,1.17C192.64,249.08,192.82,249.86,193,250.65Z"/><path class="cls-7" d="M189.49,249.61a10,10,0,0,1,0-1.81c0-.3.07-.6.13-.91,0-.15.08-.3.13-.45a2.18,2.18,0,0,1,.09-.23.73.73,0,0,1,.21-.27l.24.23a1.19,1.19,0,0,1-.76-.14,1,1,0,0,1-.3-.33A1.62,1.62,0,0,1,189,245a3.31,3.31,0,0,1,.1-1.36,9.65,9.65,0,0,0,.27,1.32,2.4,2.4,0,0,0,.28.61.91.91,0,0,0,.24.24.4.4,0,0,0,.28.06h0c.13,0,.26,0,.28.11s0,.08-.06.11a.91.91,0,0,0-.1.16l-.09.21c-.05.15-.09.29-.13.44l-.22.89C189.76,248.41,189.65,249,189.49,249.61Z"/><path class="cls-7" d="M184.9,248.11a2.17,2.17,0,0,1-.88-.84.63.63,0,0,1,0-.54,1.1,1.1,0,0,1,.56-.52l.21.24a1,1,0,0,1-.58,0,.88.88,0,0,1-.31-.21,1.07,1.07,0,0,1-.26-.44,1.76,1.76,0,0,1,0-.91c.15.28.25.56.42.83a1.36,1.36,0,0,0,.27.36.35.35,0,0,0,.32.12h0c.13,0,.27,0,.3.08s0,.12-.11.16a.69.69,0,0,0-.47.79A2.35,2.35,0,0,0,184.9,248.11Z"/><path class="cls-7" d="M188.57,250.65a10.15,10.15,0,0,1-2.14-2,3.2,3.2,0,0,1-.59-1.18,1.26,1.26,0,0,1,.38-1.27l.26.21a1,1,0,0,1-.9-.33,2.72,2.72,0,0,1-.31-.47,4.14,4.14,0,0,1-.31-1,7.82,7.82,0,0,1-.21-1.93c.18.63.36,1.26.57,1.89a6.18,6.18,0,0,0,.41.91,1.75,1.75,0,0,0,.29.42.7.7,0,0,0,.2.15.21.21,0,0,0,.15,0c.14,0,.27,0,.3.11a.1.1,0,0,1,0,.1,1.17,1.17,0,0,0-.31,1.09,3.07,3.07,0,0,0,.49,1.12A13.09,13.09,0,0,0,188.57,250.65Z"/><path class="cls-7" d="M153.92,257.62a15.6,15.6,0,0,1-1.84-1.89,8,8,0,0,1-.72-1,2.9,2.9,0,0,1-.25-.57.85.85,0,0,1,0-.71l.34.12a.84.84,0,0,1-.46.1,1.49,1.49,0,0,1-.28-.06,2.24,2.24,0,0,1-.38-.2,4,4,0,0,1-.61-.44,10,10,0,0,1-1-1,17,17,0,0,1-1.64-2.1l2,1.93c.34.32.68.63,1,.93a5.19,5.19,0,0,0,.59.42,1.87,1.87,0,0,0,.32.15c.11.05.23,0,.19,0l.34.12a.81.81,0,0,0,0,.53,2.34,2.34,0,0,0,.22.55,10.53,10.53,0,0,0,.64,1.05C152.9,256.27,153.42,256.94,153.92,257.62Z"/><path class="cls-7" d="M150.27,257.74a10.66,10.66,0,0,1-.82-1.66,6.38,6.38,0,0,1-.3-.87,3.4,3.4,0,0,1-.09-.46,1,1,0,0,1,0-.24.7.7,0,0,1,.07-.31l.32.13a1.17,1.17,0,0,1-.76.11,1.39,1.39,0,0,1-.44-.21,2.22,2.22,0,0,1-.51-.56,3.61,3.61,0,0,1-.54-1.28,13.57,13.57,0,0,0,.87,1.13,3.64,3.64,0,0,0,.55.48,1.36,1.36,0,0,0,.33.14.47.47,0,0,0,.29,0h0a.28.28,0,0,1,.32,0,.13.13,0,0,1,0,.12.44.44,0,0,0,0,.18,1.62,1.62,0,0,0,0,.22c0,.15.05.3.08.45l.22.88Z"/><path class="cls-7" d="M149.94,259a12.47,12.47,0,0,1-2.88-1.15A4.37,4.37,0,0,1,146,257a1.3,1.3,0,0,1-.28-1.3l.35.1a1,1,0,0,1-.6.12,1.1,1.1,0,0,1-.37-.1,2.19,2.19,0,0,1-.52-.32,5.4,5.4,0,0,1-.76-.75,8.36,8.36,0,0,1-1.14-1.69c.48.51,1,1,1.45,1.51a9.06,9.06,0,0,0,.82.69,2.78,2.78,0,0,0,.47.28,1.29,1.29,0,0,0,.25.06.34.34,0,0,0,.16,0,.3.3,0,0,1,.33,0s0,.06,0,.11a1.14,1.14,0,0,0,.24,1.1,4.35,4.35,0,0,0,1,.86A19.2,19.2,0,0,0,149.94,259Z"/><path class="cls-7" d="M173.26,252.52a14.77,14.77,0,0,1-1.33-2.16,6.42,6.42,0,0,1-.43-1.15,2.13,2.13,0,0,1-.12-.61.9.9,0,0,1,.22-.68l.3.17a.77.77,0,0,1-.47,0,.92.92,0,0,1-.26-.11,1.89,1.89,0,0,1-.33-.25,5.66,5.66,0,0,1-.47-.54,8.14,8.14,0,0,1-.71-1.13,14.89,14.89,0,0,1-1.06-2.35L170,246c.25.37.51.73.78,1.09a5.43,5.43,0,0,0,.46.51,1.1,1.1,0,0,0,.28.2.55.55,0,0,0,.18.07l.3.18a.83.83,0,0,0-.13.52,2.38,2.38,0,0,0,.08.58,6.78,6.78,0,0,0,.37,1.13C172.6,251,173,251.77,173.26,252.52Z"/><path class="cls-7" d="M166.37,253.72a8.19,8.19,0,0,1-.66-2.34,4,4,0,0,1,0-1.24,2.17,2.17,0,0,1,.22-.65,1.58,1.58,0,0,1,.65-.63l.12.25a1.38,1.38,0,0,1-.93-.27,1.29,1.29,0,0,1-.38-.51,2.78,2.78,0,0,1-.24-1.09,6.61,6.61,0,0,1,.34-2.26,10.76,10.76,0,0,0,0,2.2,3.76,3.76,0,0,0,.3,1,.94.94,0,0,0,.91.59c.14,0,.25.05.23.13a.14.14,0,0,1-.08.11h0a1.7,1.7,0,0,0-.71,1.07,4.87,4.87,0,0,0-.1,1.2A16.17,16.17,0,0,0,166.37,253.72Z"/><path class="cls-7" d="M154.11,254.39a2.49,2.49,0,0,1-1.13-.59.65.65,0,0,1-.23-.52.93.93,0,0,1,.35-.63l.28.18a1.11,1.11,0,0,1-.56.12.77.77,0,0,1-.37-.12,1.18,1.18,0,0,1-.4-.36,1.74,1.74,0,0,1-.32-.87,9.1,9.1,0,0,0,.7.69,1.49,1.49,0,0,0,.38.28.39.39,0,0,0,.36,0h0a.3.3,0,0,1,.32,0,.11.11,0,0,1,0,.17.63.63,0,0,0-.18.87A3,3,0,0,0,154.11,254.39Z"/><path class="cls-7" d="M176.58,251.83A11.23,11.23,0,0,1,174.2,250a3.32,3.32,0,0,1-.74-1.11,1.29,1.29,0,0,1,.2-1.31l.29.18a1,1,0,0,1-.6,0,1.25,1.25,0,0,1-.33-.19,2.74,2.74,0,0,1-.36-.43,4.6,4.6,0,0,1-.45-.92,7.85,7.85,0,0,1-.45-1.9c.26.61.52,1.22.81,1.81a7.69,7.69,0,0,0,.52.87,2.5,2.5,0,0,0,.35.38.75.75,0,0,0,.21.12.25.25,0,0,0,.16,0,.28.28,0,0,1,.31.07.09.09,0,0,1,0,.11,1.15,1.15,0,0,0-.17,1.12,3.62,3.62,0,0,0,.63,1.06A14,14,0,0,0,176.58,251.83Z"/><path class="cls-7" d="M183.84,249a4.46,4.46,0,0,1-1.38-1.07,1.43,1.43,0,0,1-.33-1.4l.38.13a1.25,1.25,0,0,1-.38.09.89.89,0,0,1-.41-.05.87.87,0,0,1-.4-.28,1.92,1.92,0,0,1-.33-.63,3.46,3.46,0,0,1-.15-1.28c.17.42.32.82.52,1.22a2.51,2.51,0,0,0,.38.54.79.79,0,0,0,.26.19.31.31,0,0,0,.24,0,.37.37,0,0,1,.36,0,.1.1,0,0,1,0,.09h0a2,2,0,0,0-.06.32,1.72,1.72,0,0,0,0,.32,2.4,2.4,0,0,0,.26.63A5.88,5.88,0,0,0,183.84,249Z"/><path class="cls-7" d="M181.16,250.9a14.42,14.42,0,0,1-1.59-1.88,4.55,4.55,0,0,1-.56-1,2,2,0,0,1-.15-.55.71.71,0,0,1,.25-.64l-.05.13a2.08,2.08,0,0,1,.08-1.16,8.19,8.19,0,0,1,.45-1.12,12.72,12.72,0,0,1,1.33-2.16c-.36.73-.69,1.46-1,2.2a9.11,9.11,0,0,0-.34,1.09,2,2,0,0,0,0,1.06.13.13,0,0,1-.06.13.46.46,0,0,0-.13.42,2.15,2.15,0,0,0,.12.5,8.31,8.31,0,0,0,.48,1C180.33,249.58,180.76,250.24,181.16,250.9Z"/><path class="cls-7" d="M161.57,251.89a2.49,2.49,0,0,1-1.07-.67.71.71,0,0,1-.18-.54,1,1,0,0,1,.42-.58l.27.2a1,1,0,0,1-.57.06.92.92,0,0,1-.37-.14,1.31,1.31,0,0,1-.36-.39,1.75,1.75,0,0,1-.24-.89c.23.25.4.51.63.74a2.11,2.11,0,0,0,.36.31.4.4,0,0,0,.35.06h0a.29.29,0,0,1,.32,0s0,.12-.06.17a.61.61,0,0,0-.27.84A2.78,2.78,0,0,0,161.57,251.89Z"/><path class="cls-7" d="M165.74,254.08a10.36,10.36,0,0,1-2.41-1.75,3.72,3.72,0,0,1-.77-1.1,1.34,1.34,0,0,1,.07-1.35l.31.16a.8.8,0,0,1-.66,0,1,1,0,0,1-.28-.23,2.48,2.48,0,0,1-.32-.5,4.5,4.5,0,0,1-.36-1A9.87,9.87,0,0,1,161,246c.21.7.41,1.4.65,2.09.14.34.27.67.44,1a2.32,2.32,0,0,0,.31.46.68.68,0,0,0,.21.17c.09,0,.11,0,.13,0a.32.32,0,0,1,.32,0,.11.11,0,0,1,0,.12v0a1.28,1.28,0,0,0-.07,1.17,4,4,0,0,0,.68,1.07A15,15,0,0,0,165.74,254.08Z"/><path class="cls-7" d="M158.51,254.91a10.8,10.8,0,0,1-1.83-1.34,4.78,4.78,0,0,1-.7-.8,2.42,2.42,0,0,1-.24-.45,1.24,1.24,0,0,1-.08-.51l.4,0a1,1,0,0,1-.34.18,1,1,0,0,1-.41,0,1.14,1.14,0,0,1-.48-.2,2.07,2.07,0,0,1-.5-.53,3.5,3.5,0,0,1-.52-1.21c.27.36.55.73.85,1.07a3.91,3.91,0,0,0,.54.45,1,1,0,0,0,.31.12.3.3,0,0,0,.22-.08.39.39,0,0,1,.36,0,.1.1,0,0,1,0,.08,1.7,1.7,0,0,0,.08.45,4,4,0,0,0,.2.42,6.42,6.42,0,0,0,.6.8A21.14,21.14,0,0,0,158.51,254.91Z"/><path class="cls-7" d="M160.79,254.81a13.68,13.68,0,0,1-2-1.56,6,6,0,0,1-.79-.89,2.61,2.61,0,0,1-.28-.52.63.63,0,0,1,.11-.66l0,.14a2.06,2.06,0,0,1-.2-1.16,7.86,7.86,0,0,1,.17-1.17,12.48,12.48,0,0,1,.78-2.38c-.18.79-.32,1.57-.43,2.35a10.92,10.92,0,0,0-.08,1.14,2.09,2.09,0,0,0,.22,1,.12.12,0,0,1,0,.14.46.46,0,0,0,0,.43,2,2,0,0,0,.24.48,7.17,7.17,0,0,0,.71.9C159.67,253.68,160.24,254.24,160.79,254.81Z"/><path class="cls-7" d="M244.42,256.42a13.23,13.23,0,0,1,.65-1.68,8,8,0,0,1,.44-.82,7.68,7.68,0,0,1,.51-.8l0,.13a2.14,2.14,0,0,1,0-1,5,5,0,0,1,.31-1,8.73,8.73,0,0,1,1.11-1.91,13.74,13.74,0,0,0-.89,2,3.42,3.42,0,0,0-.23,1.91.14.14,0,0,1,0,.12h0c-.17.25-.36.49-.51.75l-.47.78C245,255.32,244.68,255.87,244.42,256.42Z"/><path class="cls-7" d="M241.43,254.31a4.87,4.87,0,0,1,.17-1.29,3.23,3.23,0,0,1,.25-.65,1.68,1.68,0,0,1,.48-.6V252a.42.42,0,0,1-.29-.3.9.9,0,0,1,0-.4,2.76,2.76,0,0,1,.21-.73,7.82,7.82,0,0,1,.71-1.34c-.18.46-.37.92-.51,1.38a4.38,4.38,0,0,0-.15.68c0,.22,0,.42.15.44a.12.12,0,0,1,.08.16.27.27,0,0,1-.07.08h0a2.24,2.24,0,0,0-.65,1.05A13.11,13.11,0,0,0,241.43,254.31Z"/><path class="cls-7" d="M253.06,260.43c.13-.62.26-1.28.46-1.95a7.86,7.86,0,0,1,.34-1,4.19,4.19,0,0,1,.27-.51,1.13,1.13,0,0,1,.53-.44l-.09.25a.28.28,0,0,1-.12-.27,1,1,0,0,1,0-.25,2.79,2.79,0,0,1,.14-.47,8,8,0,0,1,.38-.91,15.59,15.59,0,0,1,1-1.74l-.75,1.79c-.12.29-.24.59-.33.89a3.45,3.45,0,0,0-.12.43.47.47,0,0,0,0,.29.09.09,0,0,1,.1.12.17.17,0,0,1-.11.11l-.07,0a.77.77,0,0,0-.32.29,3.83,3.83,0,0,0-.25.44c-.15.32-.27.64-.39,1C253.48,259.14,253.3,259.79,253.06,260.43Z"/><path class="cls-7" d="M227.79,251.27a9.3,9.3,0,0,1,.14-1.66,5,5,0,0,1,.23-.84,1.51,1.51,0,0,1,.56-.78v.26a.32.32,0,0,1-.21-.23.74.74,0,0,1,0-.25,4.1,4.1,0,0,1,0-.49c0-.32.05-.64.09-.95a15.7,15.7,0,0,1,.41-1.9c-.07.64-.13,1.27-.19,1.9,0,.3-.05.62-.05.92a3.39,3.39,0,0,0,0,.45c0,.13.08.29.11.28a.1.1,0,0,1,.13.09.14.14,0,0,1-.07.13l-.06,0a1.24,1.24,0,0,0-.43.6,5.49,5.49,0,0,0-.26.78C228,250.16,227.89,250.71,227.79,251.27Z"/><path class="cls-7" d="M250.88,260.23c.29-.74.63-1.47,1-2.19.2-.36.4-.72.63-1.07a4.6,4.6,0,0,1,.37-.53,1.91,1.91,0,0,1,.53-.47v.25a.22.22,0,0,1-.18-.15.58.58,0,0,1,0-.18,1.65,1.65,0,0,1,.06-.32,5.8,5.8,0,0,1,.19-.59,12,12,0,0,1,.51-1.16q.54-1.14,1.2-2.25l-1,2.3-.45,1.14a4.17,4.17,0,0,0-.18.57,1.27,1.27,0,0,0,0,.26c0,.09,0,.14,0,.12v.25a1.49,1.49,0,0,0-.39.37,4.41,4.41,0,0,0-.36.49c-.23.33-.44.68-.64,1C251.68,258.81,251.28,259.51,250.88,260.23Z"/><path class="cls-7" d="M250,258.53c.32-.54.68-1,1-1.56.19-.25.38-.49.59-.74l.32-.36.17-.18a1,1,0,0,1,.24-.18l0,.26a.34.34,0,0,1-.24-.31,1,1,0,0,1,.06-.36,2.88,2.88,0,0,1,.3-.64,7.23,7.23,0,0,1,.83-1.14c-.22.4-.45.8-.64,1.2a5,5,0,0,0-.24.6.83.83,0,0,0,0,.26.13.13,0,0,0,.09.13h0c.07,0,.09.09.06.17a.2.2,0,0,1-.09.07l-.14.12-.16.15-.31.35-.61.71Z"/><path class="cls-7" d="M248.87,256.12a2,2,0,0,1,.11-1,1.33,1.33,0,0,1,.3-.49,1,1,0,0,1,.52-.28l0,.26a.27.27,0,0,1-.23-.18.59.59,0,0,1,0-.26,2.25,2.25,0,0,1,.15-.46,3.66,3.66,0,0,1,.52-.78c-.1.28-.22.56-.3.83a2,2,0,0,0-.09.39c0,.13,0,.18.07.2h0a.1.1,0,0,1,.08.15.18.18,0,0,1-.13.11,1,1,0,0,0-.65.55A4,4,0,0,0,248.87,256.12Z"/><path class="cls-7" d="M249,259.2a9.38,9.38,0,0,1,.23-2.26,5.78,5.78,0,0,1,.42-1.16,2.42,2.42,0,0,1,.9-1V255a.26.26,0,0,1-.21-.23.82.82,0,0,1,0-.27,2.54,2.54,0,0,1,.14-.47,6.81,6.81,0,0,1,.41-.91,13.65,13.65,0,0,1,1-1.72l-.84,1.77c-.13.3-.25.59-.35.89a2.47,2.47,0,0,0-.11.43,1.07,1.07,0,0,0,0,.18.08.08,0,0,0,0,.07c.08,0,.1.08.08.16a.14.14,0,0,1-.09.08,2.39,2.39,0,0,0-.76.87,6.33,6.33,0,0,0-.43,1.09A15,15,0,0,0,249,259.2Z"/><path class="cls-7" d="M231.43,253.61a23.41,23.41,0,0,1,.43-2.31c.1-.39.21-.77.34-1.16.07-.19.14-.38.23-.57a1.58,1.58,0,0,1,.41-.55l0,.25a.26.26,0,0,1-.21-.12.48.48,0,0,1-.06-.18,1.82,1.82,0,0,1,0-.32c0-.21,0-.41,0-.62.06-.41.13-.81.22-1.22.17-.81.39-1.61.63-2.4-.14.81-.29,1.61-.43,2.41-.06.41-.12.81-.17,1.2,0,.2,0,.4,0,.59a1.12,1.12,0,0,0,0,.27.23.23,0,0,0,0,.11l.05.25a1.2,1.2,0,0,0-.29.43,3.59,3.59,0,0,0-.24.53c-.14.37-.26.75-.37,1.13C231.86,252.09,231.65,252.85,231.43,253.61Z"/><path class="cls-7" d="M230.11,252.06c.19-.57.42-1.13.66-1.69.13-.27.26-.55.4-.82l.22-.41.13-.2a.78.78,0,0,1,.2-.22l0,.27a.38.38,0,0,1-.31-.27,1,1,0,0,1,0-.37,2.51,2.51,0,0,1,.15-.67,5.84,5.84,0,0,1,.54-1.26c-.13.43-.25.86-.35,1.29a3.4,3.4,0,0,0-.08.62,1.14,1.14,0,0,0,0,.27c0,.07.06.1.12.1h0a.12.12,0,0,1,.1.16.23.23,0,0,1-.07.1,1,1,0,0,0-.11.13,1.74,1.74,0,0,1-.11.18c-.08.12-.15.26-.23.39l-.43.79Z"/><path class="cls-7" d="M229.28,252.9a9.34,9.34,0,0,1-.31-2.26,5.07,5.07,0,0,1,.15-1.21,2.17,2.17,0,0,1,.65-1.13l0,.24a.29.29,0,0,1-.26-.19.88.88,0,0,1-.06-.27,2.64,2.64,0,0,1,0-.49,7.63,7.63,0,0,1,.2-1,14.79,14.79,0,0,1,.6-1.85c-.14.62-.28,1.25-.41,1.87-.06.31-.11.62-.14.93a2.06,2.06,0,0,0,0,.43.48.48,0,0,0,0,.18c0,.05,0,.06.05.06a.11.11,0,0,1,.11.15.12.12,0,0,1-.05.09,2,2,0,0,0-.55,1,5.51,5.51,0,0,0-.17,1.14A14.57,14.57,0,0,0,229.28,252.9Z"/><path class="cls-7" d="M241.58,256.57a19,19,0,0,1,.68-2.27,12.07,12.07,0,0,1,.47-1.12c.09-.19.19-.37.3-.56a1.49,1.49,0,0,1,.47-.51l0,.24a.22.22,0,0,1-.2-.13.65.65,0,0,1,0-.18,1.15,1.15,0,0,1,0-.32,4.34,4.34,0,0,1,.11-.61c.09-.4.22-.8.35-1.19q.39-1.18.9-2.34c-.24.79-.48,1.58-.71,2.36-.1.4-.2.8-.3,1.18,0,.2-.08.4-.1.58a2.42,2.42,0,0,0,0,.27c0,.09,0,.13,0,.11l0,.25a1.43,1.43,0,0,0-.34.41,3.78,3.78,0,0,0-.3.51c-.18.36-.33.73-.49,1.1C242.18,255.09,241.88,255.83,241.58,256.57Z"/><path class="cls-7" d="M238.21,255.29a14.29,14.29,0,0,1,1-2.2,8,8,0,0,1,.71-1,4.94,4.94,0,0,1,.45-.47,1.31,1.31,0,0,1,.61-.31l-.1.25a.61.61,0,0,1-.21-.54,1.71,1.71,0,0,1,.14-.56,5.36,5.36,0,0,1,.52-1,12.71,12.71,0,0,1,1.39-1.8c-.43.62-.85,1.24-1.21,1.88a6.75,6.75,0,0,0-.47,1c-.12.32-.17.69,0,.82a.13.13,0,0,1,0,.19.17.17,0,0,1-.1.06h0a2,2,0,0,0-.87.66,9.77,9.77,0,0,0-.71,1C239,253.86,238.6,254.57,238.21,255.29Z"/><path class="cls-7" d="M233.32,251.09a1.93,1.93,0,0,1-.06-1,1.24,1.24,0,0,1,.2-.51,1,1,0,0,1,.48-.36v.27a.29.29,0,0,1-.26-.15.46.46,0,0,1-.06-.25,1.24,1.24,0,0,1,.06-.47,3.47,3.47,0,0,1,.37-.84c-.05.29-.11.58-.14.86a1.75,1.75,0,0,0,0,.39c0,.13.05.18.1.18h0a.13.13,0,0,1,.11.15.16.16,0,0,1-.12.12.91.91,0,0,0-.54.63A3.28,3.28,0,0,0,233.32,251.09Z"/><path class="cls-7" d="M243.3,257a9.13,9.13,0,0,1,0-2.27,5.15,5.15,0,0,1,.33-1.19,2.37,2.37,0,0,1,.82-1.05v.24a.26.26,0,0,1-.22-.22.59.59,0,0,1,0-.26,1.94,1.94,0,0,1,.1-.49,7.32,7.32,0,0,1,.33-.93,15.42,15.42,0,0,1,.89-1.77c-.24.61-.47,1.21-.7,1.81-.1.31-.2.61-.28.91a3.83,3.83,0,0,0-.07.43.34.34,0,0,0,0,.18s0,.07,0,.07a.11.11,0,0,1,.09.16.16.16,0,0,1-.07.09,2.18,2.18,0,0,0-.7.9,6.19,6.19,0,0,0-.34,1.11A13.66,13.66,0,0,0,243.3,257Z"/><path class="cls-7" d="M247.91,256.61a3.26,3.26,0,0,1,0-1.28,2.64,2.64,0,0,1,.65-1.29l.09.21a.5.5,0,0,1-.21,0,.29.29,0,0,1-.15-.16.7.7,0,0,1,0-.35,3.35,3.35,0,0,1,.22-.63,7.19,7.19,0,0,1,.66-1.14c-.16.4-.33.79-.46,1.18a2.61,2.61,0,0,0-.15.58.4.4,0,0,0,0,.22s.05,0,.12,0a.1.1,0,0,1,.12.12.14.14,0,0,1,0,.09h0c-.07.09-.14.17-.2.26a2.09,2.09,0,0,0-.17.28,4.6,4.6,0,0,0-.25.61A6.31,6.31,0,0,0,247.91,256.61Z"/><path class="cls-7" d="M245.71,257.52a15.13,15.13,0,0,1,.4-2,6.89,6.89,0,0,1,.34-1,3,3,0,0,1,.24-.52,1.24,1.24,0,0,1,.47-.47l-.09.09a4,4,0,0,1,.69-1c.25-.29.54-.56.82-.83a20.09,20.09,0,0,1,1.8-1.52c-.58.53-1.13,1.08-1.67,1.64-.27.28-.52.56-.77.85a4.53,4.53,0,0,0-.62.9.24.24,0,0,1-.1.1.74.74,0,0,0-.29.33,3.45,3.45,0,0,0-.24.47q-.19.48-.36,1Z"/><path class="cls-7" d="M237.41,252a1.94,1.94,0,0,1,0-1,1.23,1.23,0,0,1,.23-.51,1,1,0,0,1,.48-.34v.27a.3.3,0,0,1-.25-.15.63.63,0,0,1-.05-.26,1.64,1.64,0,0,1,.08-.46,3.38,3.38,0,0,1,.41-.83c-.05.29-.13.57-.18.85a1.78,1.78,0,0,0,0,.39c0,.13,0,.18.1.19h0c.07,0,.11.07.09.15a.19.19,0,0,1-.11.12.88.88,0,0,0-.57.6A3.32,3.32,0,0,0,237.41,252Z"/><path class="cls-7" d="M237.76,255.38a9.8,9.8,0,0,1,.07-2.35,5.5,5.5,0,0,1,.32-1.22,2.51,2.51,0,0,1,.78-1.1l0,.24a.27.27,0,0,1-.24-.27,1.23,1.23,0,0,1,0-.29,3.09,3.09,0,0,1,.17-.54,9.07,9.07,0,0,1,.44-1,19.24,19.24,0,0,1,1.1-1.93l-.92,2c-.13.33-.27.66-.39,1a3.43,3.43,0,0,0-.14.5.58.58,0,0,0,0,.22c0,.07,0,.08,0,.07a.11.11,0,0,1,.11.13.15.15,0,0,1-.06.1h0a2.47,2.47,0,0,0-.68,1,5.83,5.83,0,0,0-.34,1.15A15.55,15.55,0,0,0,237.76,255.38Z"/><path class="cls-7" d="M234.61,253.32a10.35,10.35,0,0,1,.08-1.84,6.58,6.58,0,0,1,.2-.94c.05-.15.1-.31.17-.47a2.23,2.23,0,0,1,.25-.45l.12.2a.3.3,0,0,1-.21,0,.29.29,0,0,1-.17-.13.58.58,0,0,1-.06-.36,2.2,2.2,0,0,1,.12-.63,5.71,5.71,0,0,1,.49-1.2c-.11.4-.22.81-.3,1.21a4.22,4.22,0,0,0-.06.59.62.62,0,0,0,0,.22s.06,0,.12,0a.12.12,0,0,1,.15.11.2.2,0,0,1,0,.09,3.18,3.18,0,0,0-.23.4,3.66,3.66,0,0,0-.15.43,7.49,7.49,0,0,0-.24.9C234.78,252.08,234.69,252.7,234.61,253.32Z"/><path class="cls-7" d="M235.49,254.14a14.5,14.5,0,0,1,.14-2.07,9.49,9.49,0,0,1,.22-1.06,2.85,2.85,0,0,1,.18-.54,1.05,1.05,0,0,1,.41-.5l-.08.1a4.12,4.12,0,0,1,.57-1c.22-.32.46-.61.71-.91a19.15,19.15,0,0,1,1.6-1.65c-.5.58-1,1.17-1.45,1.77-.23.3-.46.6-.67.91a4.35,4.35,0,0,0-.5,1,.18.18,0,0,1-.09.1.83.83,0,0,0-.25.35c-.07.15-.12.32-.18.49-.09.33-.17.68-.24,1C235.71,252.76,235.61,253.45,235.49,254.14Z"/><path class="cls-7" d="M216.22,249.58a13.15,13.15,0,0,1,.13-1.76c.06-.3.1-.59.18-.88s.17-.58.26-.88l0,.14a2.29,2.29,0,0,1-.34-1,4.79,4.79,0,0,1,0-1.07A7.9,7.9,0,0,1,217,242a13.65,13.65,0,0,0-.28,2.08A3.5,3.5,0,0,0,217,246a.2.2,0,0,1,0,.13h0c-.1.27-.2.54-.28.83l-.22.85C216.42,248.42,216.31,249,216.22,249.58Z"/><path class="cls-7" d="M212.69,248.15a5,5,0,0,1-.21-1.29,2.62,2.62,0,0,1,0-.68,1.5,1.5,0,0,1,.3-.67l.08.23a.42.42,0,0,1-.36-.24.91.91,0,0,1-.13-.38,3.76,3.76,0,0,1,0-.75,6.58,6.58,0,0,1,.31-1.45c-.05.49-.09,1-.1,1.45a4.94,4.94,0,0,0,0,.68c0,.22.13.41.28.4a.13.13,0,0,1,.12.14.13.13,0,0,1,0,.09v0a2,2,0,0,0-.33,1.15A11.28,11.28,0,0,0,212.69,248.15Z"/><path class="cls-7" d="M226.08,251.66a14.38,14.38,0,0,1-.31-2,9,9,0,0,1,0-1,2.74,2.74,0,0,1,.09-.55.91.91,0,0,1,.35-.54v.26a.33.33,0,0,1-.21-.23,1.36,1.36,0,0,1-.07-.25,3.87,3.87,0,0,1,0-.48,7.77,7.77,0,0,1,.08-1,13.93,13.93,0,0,1,.35-1.89c-.05.63-.1,1.26-.14,1.89,0,.3,0,.62,0,.92a3.15,3.15,0,0,0,0,.44c0,.13.08.29.11.28a.1.1,0,0,1,.13.08.13.13,0,0,1-.07.14l-.06,0a.61.61,0,0,0-.2.35,2.5,2.5,0,0,0-.09.49,8.44,8.44,0,0,0,0,1C226,250.3,226,251,226.08,251.66Z"/><path class="cls-7" d="M198.55,247.86a9.27,9.27,0,0,1-.33-1.65,4.11,4.11,0,0,1,0-.86,1.36,1.36,0,0,1,.31-.86l.08.25a.4.4,0,0,1-.27-.18.9.9,0,0,1-.12-.24,2.9,2.9,0,0,1-.16-.47,7.94,7.94,0,0,1-.18-.95,15.54,15.54,0,0,1-.16-1.92c.13.63.24,1.26.36,1.88.08.31.14.62.23.91a2.71,2.71,0,0,0,.14.43c0,.13.16.27.18.26a.12.12,0,0,1,.16.06.16.16,0,0,1,0,.15l-.05,0a1.2,1.2,0,0,0-.25.67,5.48,5.48,0,0,0,0,.81C198.43,246.74,198.49,247.3,198.55,247.86Z"/><path class="cls-7" d="M223.77,252a18.22,18.22,0,0,1,.24-2.33c.06-.4.15-.78.24-1.18.06-.19.12-.39.19-.58a1.55,1.55,0,0,1,.36-.57l.08.24a.25.25,0,0,1-.22-.11.65.65,0,0,1-.08-.17,1.81,1.81,0,0,1-.05-.31c0-.21,0-.42,0-.62,0-.42.06-.82.12-1.23.11-.82.25-1.62.44-2.43q-.12,1.23-.24,2.43c0,.41,0,.81-.08,1.2,0,.2,0,.4,0,.59a1.08,1.08,0,0,0,.05.27.23.23,0,0,0,0,.1l.07.25a1.31,1.31,0,0,0-.26.44c-.07.18-.13.37-.19.55-.11.37-.2.76-.28,1.14Z"/><path class="cls-7" d="M222.32,250.49a16.33,16.33,0,0,1,.53-1.72,8.78,8.78,0,0,1,.33-.85l.19-.42.11-.21a1,1,0,0,1,.18-.22l.05.25a.37.37,0,0,1-.33-.24,1,1,0,0,1-.06-.37,2.66,2.66,0,0,1,.1-.68,5.87,5.87,0,0,1,.44-1.28c-.09.44-.19.87-.25,1.3a4.5,4.5,0,0,0,0,.63,1,1,0,0,0,0,.26.13.13,0,0,0,.13.1h0a.11.11,0,0,1,.11.15.17.17,0,0,1-.06.1l-.09.13-.11.19-.19.4-.36.82Z"/><path class="cls-7" d="M220.47,248.37a1.93,1.93,0,0,1-.19-.94,1.35,1.35,0,0,1,.14-.53,1,1,0,0,1,.42-.39l0,.26a.33.33,0,0,1-.28-.12.48.48,0,0,1-.09-.24,1.85,1.85,0,0,1,0-.47,3.24,3.24,0,0,1,.26-.87c0,.29,0,.59,0,.86a2.36,2.36,0,0,0,0,.39c0,.13.08.17.13.17h0a.13.13,0,0,1,.13.14.17.17,0,0,1-.1.13.84.84,0,0,0-.46.67A3.29,3.29,0,0,0,220.47,248.37Z"/><path class="cls-7" d="M221.56,251.35a9.17,9.17,0,0,1-.48-2.26,5.5,5.5,0,0,1,0-1.21,2.13,2.13,0,0,1,.55-1.16l.08.24a.29.29,0,0,1-.27-.19.5.5,0,0,1-.08-.26,2,2,0,0,1,0-.49c0-.32.06-.64.11-1a15.65,15.65,0,0,1,.47-1.88l-.27,1.89c0,.31-.06.62-.07.93a3.15,3.15,0,0,0,0,.44l.05.17c0,.06,0,.06.07.07a.12.12,0,0,1,.12.14.11.11,0,0,1-.05.09,2,2,0,0,0-.46,1,4.88,4.88,0,0,0-.09,1.15A14.73,14.73,0,0,0,221.56,251.35Z"/><path class="cls-7" d="M202.76,249.41a19.83,19.83,0,0,1-.25-2.32c0-.39,0-.79,0-1.19a4.09,4.09,0,0,1,.07-.6,1.23,1.23,0,0,1,.24-.62l.11.23a.25.25,0,0,1-.24-.07,1.16,1.16,0,0,1-.11-.16,1.82,1.82,0,0,1-.11-.3c-.06-.21-.1-.41-.14-.61-.06-.41-.1-.81-.13-1.22-.06-.82-.09-1.64-.07-2.46.09.81.17,1.63.26,2.43.07.4.12.8.18,1.19a4.92,4.92,0,0,0,.14.58,1.45,1.45,0,0,0,.1.25c0,.08.09.11.07.1l.12.23a1.29,1.29,0,0,0-.17.47c0,.19-.05.38-.07.57,0,.38,0,.78,0,1.16Z"/><path class="cls-7" d="M201,248.2a17.63,17.63,0,0,1,.16-1.77c0-.29.09-.59.15-.88l.1-.44.07-.22a.75.75,0,0,1,.13-.25l.1.24a.36.36,0,0,1-.37-.19,1,1,0,0,1-.14-.35,2.6,2.6,0,0,1,0-.68,6.62,6.62,0,0,1,.16-1.33c0,.45,0,.88,0,1.32a6.17,6.17,0,0,0,.1.62.72.72,0,0,0,.1.25.16.16,0,0,0,.15.08h0a.13.13,0,0,1,.14.13.2.2,0,0,1,0,.11.45.45,0,0,0-.07.14c0,.07,0,.14-.06.2s-.08.28-.11.43l-.19.86Z"/><path class="cls-7" d="M200.46,249.17a9.66,9.66,0,0,1-.94-2.15,5.19,5.19,0,0,1-.21-1.2,2,2,0,0,1,.31-1.22l.12.22a.34.34,0,0,1-.31-.14.71.71,0,0,1-.13-.24,2.33,2.33,0,0,1-.12-.49,6.23,6.23,0,0,1-.09-1,15.28,15.28,0,0,1,.06-1.92c0,.64.09,1.27.14,1.9,0,.31.07.63.13.93a3,3,0,0,0,.12.43.48.48,0,0,0,.09.16s.05,0,.07,0a.13.13,0,0,1,.15.12.12.12,0,0,1,0,.1,1.92,1.92,0,0,0-.25,1.05,5.69,5.69,0,0,0,.16,1.15A14.66,14.66,0,0,0,200.46,249.17Z"/><path class="cls-7" d="M213.49,250.31a20.3,20.3,0,0,1,0-2.34c0-.38.07-.78.13-1.18,0-.2.07-.39.12-.6a1.47,1.47,0,0,1,.31-.59l.09.23a.21.21,0,0,1-.23-.09.43.43,0,0,1-.09-.16c0-.11-.06-.21-.09-.31s0-.41-.06-.62c0-.41,0-.82,0-1.23,0-.81.09-1.64.2-2.45v2.44c0,.4,0,.81,0,1.2,0,.2,0,.4.07.59a1.6,1.6,0,0,0,.08.26c0,.08.08.11.06.1l.1.24a1.23,1.23,0,0,0-.22.46,5.09,5.09,0,0,0-.14.56c-.06.38-.11.77-.15,1.16C213.64,248.75,213.56,249.53,213.49,250.31Z"/><path class="cls-7" d="M209.84,249.72a14.56,14.56,0,0,1,.38-2.35,8.08,8.08,0,0,1,.39-1.14,3.64,3.64,0,0,1,.3-.54,1.09,1.09,0,0,1,.5-.42l0,.26A.65.65,0,0,1,211,245a2.18,2.18,0,0,1,0-.57,4.93,4.93,0,0,1,.22-1.08,10.43,10.43,0,0,1,.82-2,19.49,19.49,0,0,0-.63,2.06,6.44,6.44,0,0,0-.17,1c0,.34,0,.71.26.8a.13.13,0,0,1,.07.18.2.2,0,0,1-.08.08h0a1.69,1.69,0,0,0-.65.81,8.36,8.36,0,0,0-.4,1.09C210.19,248.18,210,249,209.84,249.72Z"/><path class="cls-7" d="M203.87,246.59a2.26,2.26,0,0,1-.34-.93,1.27,1.27,0,0,1,.06-.54.85.85,0,0,1,.36-.43l.07.26a.32.32,0,0,1-.29-.1.62.62,0,0,1-.14-.23,1.9,1.9,0,0,1-.07-.46,3.74,3.74,0,0,1,.12-.89c0,.29.06.58.11.85a2,2,0,0,0,.09.39c0,.12.09.17.15.16h0a.13.13,0,0,1,.14.13.12.12,0,0,1-.07.13.79.79,0,0,0-.35.72A3.54,3.54,0,0,0,203.87,246.59Z"/><path class="cls-7" d="M215.31,250.38a9.75,9.75,0,0,1-.63-2.22,4.45,4.45,0,0,1,0-1.21,2,2,0,0,1,.48-1.19l.09.23a.32.32,0,0,1-.29-.16,1.39,1.39,0,0,1-.1-.26,3.91,3.91,0,0,1-.05-.48,7.77,7.77,0,0,1,.06-1,15.44,15.44,0,0,1,.34-1.9c-.05.64-.09,1.27-.14,1.9,0,.31,0,.62,0,.93a2.12,2.12,0,0,0,.06.44.67.67,0,0,0,.06.17s.05.05.07.05a.12.12,0,0,1,.13.13.15.15,0,0,1,0,.1,1.93,1.93,0,0,0-.41,1,5.44,5.44,0,0,0,0,1.14A16.28,16.28,0,0,0,215.31,250.38Z"/><path class="cls-7" d="M219.68,249.07a3.37,3.37,0,0,1-.37-1.25,2.54,2.54,0,0,1,.24-1.39l.16.19a.42.42,0,0,1-.22,0,.3.3,0,0,1-.19-.11.71.71,0,0,1-.11-.35,2.35,2.35,0,0,1,0-.65,6.59,6.59,0,0,1,.3-1.24c0,.42-.09.83-.1,1.24a2.86,2.86,0,0,0,0,.59.61.61,0,0,0,.08.21s.05,0,.12,0a.14.14,0,0,1,.16.19h0c0,.09-.09.19-.12.29a2.81,2.81,0,0,0-.08.31,4.48,4.48,0,0,0-.05.64A6.21,6.21,0,0,0,219.68,249.07Z"/><path class="cls-7" d="M217.81,250.4a14.1,14.1,0,0,1-.23-2.07,7.67,7.67,0,0,1,0-1.07,2.74,2.74,0,0,1,.09-.55,1,1,0,0,1,.31-.55l-.06.11a3.6,3.6,0,0,1,.37-1.09,9.43,9.43,0,0,1,.55-1,17.83,17.83,0,0,1,1.27-1.85c-.38.65-.76,1.29-1.11,1.94-.18.32-.34.66-.49,1a4.08,4.08,0,0,0-.34,1,.14.14,0,0,1-.06.11.75.75,0,0,0-.19.38c0,.16-.06.33-.08.5,0,.34-.05.69-.06,1C217.79,249,217.81,249.7,217.81,250.4Z"/><path class="cls-7" d="M208.11,246.7a2.17,2.17,0,0,1-.3-.92,1.25,1.25,0,0,1,.08-.54.85.85,0,0,1,.38-.43l.06.26a.32.32,0,0,1-.29-.1.5.5,0,0,1-.12-.24,1.82,1.82,0,0,1-.06-.46,3.26,3.26,0,0,1,.16-.89c0,.3,0,.59.07.86a1.5,1.5,0,0,0,.08.39c0,.12.08.17.14.16h0a.12.12,0,0,1,.14.12.15.15,0,0,1-.08.14.83.83,0,0,0-.38.71A3.83,3.83,0,0,0,208.11,246.7Z"/><path class="cls-7" d="M209.43,249.89a9.67,9.67,0,0,1-.62-2.29,6.41,6.41,0,0,1,0-1.24,2.23,2.23,0,0,1,.45-1.22l.1.22c-.16,0-.28-.13-.31-.22a1.1,1.1,0,0,1,0-.29,3.37,3.37,0,0,1,0-.55,7.45,7.45,0,0,1,.14-1.07,16.37,16.37,0,0,1,.52-2.09c-.11.7-.22,1.4-.32,2.11-.05.35-.08.7-.1,1.05a4.17,4.17,0,0,0,0,.5c0,.08,0,.16.05.22s0,.07.06.07a.11.11,0,0,1,.14.09.13.13,0,0,1,0,.11v0a2.23,2.23,0,0,0-.39,1.06,5.82,5.82,0,0,0,0,1.18A15.25,15.25,0,0,0,209.43,249.89Z"/><path class="cls-7" d="M205.76,248.54a10,10,0,0,1-.44-1.81,6.09,6.09,0,0,1-.08-.95,3.91,3.91,0,0,1,0-.49,2.68,2.68,0,0,1,.11-.49l.18.17a.31.31,0,0,1-.21,0,.28.28,0,0,1-.2-.1.8.8,0,0,1-.17-.33,2.91,2.91,0,0,1-.06-.65,6,6,0,0,1,.13-1.27c0,.42,0,.84.07,1.25a5,5,0,0,0,.1.58.75.75,0,0,0,.11.22s.06,0,.12,0a.12.12,0,0,1,.18.08.14.14,0,0,1,0,.09,3,3,0,0,0-.1.43,3.42,3.42,0,0,0,0,.46c0,.3,0,.6,0,.91C205.57,247.31,205.67,247.92,205.76,248.54Z"/><path class="cls-7" d="M206.85,249.15a15.29,15.29,0,0,1-.45-2,7.74,7.74,0,0,1-.1-1.07,3.57,3.57,0,0,1,0-.56,1,1,0,0,1,.25-.57l-.05.11a3.6,3.6,0,0,1,.25-1.11c.13-.35.28-.68.44-1A17.32,17.32,0,0,1,208.3,241c-.32.66-.63,1.34-.91,2-.13.34-.26.68-.38,1a3.89,3.89,0,0,0-.22,1,.17.17,0,0,1,0,.12.67.67,0,0,0-.14.39,2.74,2.74,0,0,0,0,.5,8.94,8.94,0,0,0,.06,1C206.68,247.77,206.77,248.46,206.85,249.15Z"/><path class="cls-4" d="M199.28,411.65c-.63-38.37-.63-63.68-.68-75.55-.06,12-.08,37.19-.75,75.74,0,1.14,0,2.26-.06,3.42l1.55-.19c0-1,0-2-.05-3C199.28,411.93,199.28,411.8,199.28,411.65Z"/><path class="cls-8" d="M186.21,249.65c-19.65,2-36.36,9-47,16.74-1,1.74-16.91,14.94-16.13,79.52a205.44,205.44,0,0,0,1.72,22.34c.18,1.36.34,2.71.53,4.11,3.29,23.83,9.77,53.07,16.65,89l.12.65C158.34,450.81,121,339.08,186.21,249.65Z"/><path class="cls-8" d="M258.54,267.77s-20.66-14.23-46.63-17.91C277,339.5,239.4,451.44,256,462.13l.54-2.9c6.62-35.61,8.08-64.91,11.06-88.65.17-1.38.31-2.71.46-4.06.87-7.66,1.41-14.75,1.49-21.22C270.31,280.86,258.54,267.77,258.54,267.77Z"/><path class="cls-4" d="M203.1,508a30.58,30.58,0,0,0,3.16.37c0-.34,0-.69,0-1C205.18,507.64,204.15,507.87,203.1,508Z"/><path class="cls-4" d="M199.34,415.07c0-1,0-2-.05-3,0-.15,0-.28,0-.43-.63-38.37-.63-63.68-.68-75.55-.06,12-.08,37.19-.75,75.74,0,1.14,0,2.26-.06,3.42v.1c-.46,25.18-1.19,55.86-2.37,92,1,.27,6.64.5,7.68.67,1.05-.17,2.08-.4,3.12-.67C205,471.18,199.77,440.38,199.34,415.07Z"/><path class="cls-4" d="M195.38,508.41c1.06-.07,6.67-.19,7.72-.37-1-.17-6.65-.4-7.68-.67C195.4,507.72,195.4,508.06,195.38,508.41Z"/><path class="cls-9" d="M142.49,463.94c2.54,13.34,5.11,27.54,7.6,42.77,0,0-1.1,111.68,14,128.43,11.18,4.43,17.44,3.42,24.86,1,5.27-3.59,10.32-76.82,4.54-117.18.12-3.5-2.27-7.46-2.16-10.87,0-.35-.5-.32-.48-.67C170.84,502.07,152.71,479.26,142.49,463.94Z"/><path class="cls-9" d="M190.86,507.37c1.18-36.15,6.47-66.83,6.93-92v-.1c0-1.16,0-2.28.06-3.42.67-38.55.69-63.78.75-75.74.05,11.87.05,37.18.68,75.55,0,.15,0,.28,0,.43,0,1,0,2,.05,3,.43,25.31,5.7,56.11,6.88,92.3,20.87-5.52,39.69-30.08,49.63-45.32-16.24-11.16,21-122.76-43.94-212.19a83.12,83.12,0,0,0-14.46-.81,108.46,108.46,0,0,0-11.24.6c-65.18,89.43-27.87,201.16-44.08,212.4l.36,1.89C152.71,479.26,170.84,502.07,190.86,507.37Z"/><path class="cls-9" d="M206.26,508.41c.12,3.75.25,7.54.38,11.41-2.82,42.45-3.87,112,2.11,116.87,12.94,3.29,11,2.73,24.07.78,14.68-14.94,15.06-129.19,15.06-129.19,2.68-16.44,5.43-31.78,8.09-46.15l-.12-.08c-9.94,15.24-28.76,39.8-49.63,45.32,0,.35,0,.7,0,1"/><path class="cls-7" d="M187.81,637.45a2.72,2.72,0,0,1-.31-.6,2,2,0,0,1-.09-.29,1.21,1.21,0,0,1-.07-.33c0-.12,0-.23,0-.35a1.54,1.54,0,0,1,0-.37l0-.36a1.89,1.89,0,0,1,.11-.36l.17-.31a1.22,1.22,0,0,1,.24-.27,3.42,3.42,0,0,1,.66-.49h.07a1.9,1.9,0,0,1-.18.6,1.09,1.09,0,0,0-.11.27,1.88,1.88,0,0,1-.12.3c-.05.11-.13.21-.17.32l-.13.34a1.13,1.13,0,0,0-.09.35c0,.11,0,.22,0,.33s0,.22,0,.32,0,.2,0,.29a2.73,2.73,0,0,0,.13.59Z"/><path class="cls-7" d="M186.14,634.6s.18,0,.16.08a.67.67,0,0,1-.11.07l-.25.12-.46.23a4.35,4.35,0,0,0-.79.53,3.31,3.31,0,0,0-1,1.23l-.18.39-.13-.41a1.56,1.56,0,0,1-.06-.6l0-.58.16-1.15.43-2.28a10.59,10.59,0,0,1,.72-2.26,7.78,7.78,0,0,1,.57-1.11,4.44,4.44,0,0,1,.83-1.06h.08a8.19,8.19,0,0,0-.45,1.12l-.36,1.12-.68,2.25c-.25.75-.47,1.5-.66,2.26l-.24,1.13-.08.57a2.08,2.08,0,0,0,0,.56l-.31,0a3.81,3.81,0,0,1,1.1-1.23,6.87,6.87,0,0,1,.85-.53l.5-.21.25-.11s.09,0,.1-.06,0,0-.09,0Z"/><path class="cls-7" d="M179.37,636.72l-.05-1.47a26.2,26.2,0,0,1,.2-3.21,10.34,10.34,0,0,1,.3-1.71c.1-.27.19-.52.31-.77l.4-.67a6.84,6.84,0,0,1,.44-.56,3.21,3.21,0,0,1,.42-.41l.4-.34.08,0-.22.38c-.06.12-.16.26-.23.43l-.26.56-.28.68c-.08.25-.17.5-.26.76-.19.54-.39,1.1-.53,1.67a26.32,26.32,0,0,0-.54,3.17c-.07.88-.12,1.47-.12,1.47Z"/><path class="cls-7" d="M171.63,635.94s0-.61-.08-1.52c0-.45-.06-1-.1-1.57s-.12-1.17-.18-1.78a6.83,6.83,0,0,0-.18-.9,6.29,6.29,0,0,0-.22-.88c0-.29-.18-.56-.24-.82a5.23,5.23,0,0,0-.66-1.34,2.23,2.23,0,0,0-.36-.48l-.39-.4.08,0a7,7,0,0,1,.62.38l.32.22.26.25a3.26,3.26,0,0,1,.55.62,4.18,4.18,0,0,1,.7,1.59,5.28,5.28,0,0,1,.09.9c0,.3,0,.6,0,.91,0,.62,0,1.22,0,1.79s0,1.1-.06,1.54c0,.91-.08,1.52-.08,1.52Z"/><path class="cls-7" d="M170.42,634.94s-.25-.17-.6-.44l-.61-.48-.31-.28-.31-.3a5.56,5.56,0,0,1-.52-.6,2.38,2.38,0,0,1-.13-.29.6.6,0,0,1-.05-.26,1.15,1.15,0,0,1,.12-.53h.08a2.39,2.39,0,0,1,.37.51,1.5,1.5,0,0,0,.17.23,2.4,2.4,0,0,1,.16.27,2.79,2.79,0,0,0,.16.28l.17.3.22.29c.08.1.15.2.23.29s.3.36.43.5c.27.3.46.49.46.49Z"/><path class="cls-7" d="M162.18,629a13.32,13.32,0,0,1,1.51,1.74,11.88,11.88,0,0,1,1.13,1.79,8.11,8.11,0,0,1,.4.91,7.45,7.45,0,0,1,.27.92,3.4,3.4,0,0,1,.07.46,2.28,2.28,0,0,1,0,.45,3.49,3.49,0,0,1,0,.46l-.06.46-.49-.13a2,2,0,0,0,.93-.93,3.35,3.35,0,0,0,.27-1.1,10.34,10.34,0,0,0-.13-2.28c-.11-.76-.22-1.53-.38-2.3l-.4-2.31h.08a20.27,20.27,0,0,1,.88,2.31,17.4,17.4,0,0,1,.56,2.32,7.87,7.87,0,0,1,.08,2.32,3,3,0,0,1-.36,1.14,2.33,2.33,0,0,1-1.11,1l-.56.28.07-.4.08-.45a2,2,0,0,0,0-.43,2.26,2.26,0,0,0,0-.45,3.27,3.27,0,0,0,0-.45,7.32,7.32,0,0,0-.21-.9,8.25,8.25,0,0,0-.34-.9,11,11,0,0,0-1-1.79,12.74,12.74,0,0,0-1.38-1.75Z"/><path class="cls-7" d="M176.21,628a4.19,4.19,0,0,1,.31,1,4.14,4.14,0,0,1,.08,1,6.65,6.65,0,0,1-.33,2,8.93,8.93,0,0,1-.87,1.89,6.06,6.06,0,0,1-.64.89,3.76,3.76,0,0,1-.91.75l-.3-.21a2.8,2.8,0,0,0,.84-1.1.87.87,0,0,0,.06-.32,1,1,0,0,0-.06-.33,1.31,1.31,0,0,0-.19-.34c-.08-.1-.2-.2-.31-.31a2,2,0,0,1,.39.3,1.35,1.35,0,0,1,.27.33,1,1,0,0,1,.13.36,1.09,1.09,0,0,1,0,.36,2.68,2.68,0,0,1-.81,1.24l-.3-.21a3.73,3.73,0,0,0,.72-.71,6.67,6.67,0,0,0,.54-.84,12.73,12.73,0,0,0,.78-1.83,14.29,14.29,0,0,0,.48-1.9A10.54,10.54,0,0,0,176.21,628Z"/><path class="cls-7" d="M231.47,637.83a3,3,0,0,1-.27-.61,2,2,0,0,1-.08-.29,2.9,2.9,0,0,1-.07-.34c0-.11,0-.23,0-.35a1.51,1.51,0,0,1,0-.37l0-.37a1.37,1.37,0,0,1,.11-.36,1.91,1.91,0,0,1,.16-.32,1.33,1.33,0,0,1,.21-.26,3.59,3.59,0,0,1,.61-.51l.06,0a2,2,0,0,1-.17.6,1.83,1.83,0,0,0-.1.28,1.38,1.38,0,0,1-.11.3c0,.11-.12.22-.16.33l-.12.34a1.56,1.56,0,0,0-.09.34c0,.12,0,.24,0,.35a1.61,1.61,0,0,0,0,.31,3,3,0,0,0,0,.3,2.61,2.61,0,0,0,.12.6Z"/><path class="cls-7" d="M230,635s.16,0,.13.08-.06.05-.09.07l-.23.12c-.15.07-.29.15-.43.23a4.47,4.47,0,0,0-.72.53,3.53,3.53,0,0,0-.89,1.25l-.17.4-.11-.42a1.79,1.79,0,0,1,0-.6l0-.58.16-1.17.41-2.31a13,13,0,0,1,.69-2.29,8.64,8.64,0,0,1,.53-1.11,5,5,0,0,1,.77-1.08l.07,0a8.12,8.12,0,0,0-.42,1.13l-.34,1.13-.65,2.27c-.23.76-.44,1.52-.62,2.28l-.23,1.15-.08.58a2.62,2.62,0,0,0,0,.56l-.28,0a3.87,3.87,0,0,1,1-1.25,6.79,6.79,0,0,1,.79-.53l.46-.21.23-.11s.07,0,.08-.06,0,0-.08,0Z"/><path class="cls-7" d="M223.79,637.09s0-.59,0-1.48a31.71,31.71,0,0,1,.21-3.25,12,12,0,0,1,.29-1.73c.1-.27.19-.53.3-.77s.25-.48.37-.69a5.24,5.24,0,0,1,.41-.55,2.7,2.7,0,0,1,.38-.42l.38-.34.06,0-.2.38c-.05.13-.14.27-.21.44s-.16.37-.24.57-.17.44-.26.69-.16.5-.25.76c-.18.54-.37,1.11-.51,1.69a30.6,30.6,0,0,0-.52,3.21c-.07.88-.12,1.48-.12,1.48Z"/><path class="cls-7" d="M216.74,636.3s0-.61-.06-1.53c0-.46,0-1-.07-1.59s-.1-1.18-.15-1.8c0-.31-.08-.61-.14-.92s-.12-.6-.2-.89a7,7,0,0,0-.21-.82,3.42,3.42,0,0,0-.27-.74,3,3,0,0,0-.32-.62,1.69,1.69,0,0,0-.32-.47l-.35-.42.08,0,.56.39.28.22.24.25a3.79,3.79,0,0,1,.49.63,4.9,4.9,0,0,1,.38.76,3.59,3.59,0,0,1,.24.85,6.69,6.69,0,0,1,.08.91c0,.3,0,.61,0,.92,0,.62,0,1.23-.05,1.81s0,1.11-.07,1.56c-.06.92-.09,1.53-.09,1.53Z"/><path class="cls-7" d="M215.64,635.29s-.22-.17-.53-.45-.36-.3-.55-.48a3.7,3.7,0,0,1-.28-.28l-.28-.3a6.15,6.15,0,0,1-.47-.6,1.6,1.6,0,0,1-.11-.3c0-.1-.07-.18,0-.26a1.29,1.29,0,0,1,.12-.54h.06a2.4,2.4,0,0,1,.34.51,1.65,1.65,0,0,0,.15.25,1.71,1.71,0,0,1,.14.27,2.6,2.6,0,0,0,.15.28l.15.3.2.3c.07.09.14.2.2.29s.28.36.39.5c.24.31.42.5.42.5Z"/><path class="cls-7" d="M208.21,629.29a14.38,14.38,0,0,1,1.35,1.75,14.2,14.2,0,0,1,1,1.81c.14.31.25.62.36.92s.17.62.23.93a3.62,3.62,0,0,1,.06.46,3.83,3.83,0,0,1,0,.47c0,.15,0,.31,0,.46l-.06.46-.45-.13a1.85,1.85,0,0,0,.85-.94,3.4,3.4,0,0,0,.27-1.11,11.11,11.11,0,0,0-.1-2.3c-.09-.77-.18-1.55-.32-2.32l-.33-2.35h.07c.31.78.55,1.56.78,2.35a21.11,21.11,0,0,1,.48,2.34,9.18,9.18,0,0,1,0,2.34,3.36,3.36,0,0,1-.34,1.15,2.45,2.45,0,0,1-1,1l-.51.26.07-.39.08-.45c0-.14,0-.29,0-.45a2.26,2.26,0,0,0,0-.45,3.55,3.55,0,0,0,0-.46c0-.3-.11-.59-.18-.91s-.18-.6-.3-.91a13.66,13.66,0,0,0-.88-1.81,13.13,13.13,0,0,0-1.24-1.76Z"/><path class="cls-7" d="M221,628.23a5.26,5.26,0,0,1,.26,1,4.8,4.8,0,0,1,.06,1,6.93,6.93,0,0,1-.32,2,9.21,9.21,0,0,1-.81,1.92,5.22,5.22,0,0,1-.6.9,3.34,3.34,0,0,1-.83.75l-.28-.2a3,3,0,0,0,.79-1.11,1.28,1.28,0,0,0,.06-.34,1,1,0,0,0-.06-.32,1.08,1.08,0,0,0-.17-.34,2.59,2.59,0,0,0-.28-.33,2.77,2.77,0,0,1,.36.31,1.31,1.31,0,0,1,.24.34.83.83,0,0,1,.11.36.87.87,0,0,1,0,.36,2.7,2.7,0,0,1-.75,1.25l-.27-.2a4.48,4.48,0,0,0,.66-.72,7.35,7.35,0,0,0,.51-.85,13.88,13.88,0,0,0,.72-1.85,12,12,0,0,0,.6-3.89Z"/><polyline class="cls-10" points="198.8 293.49 198.33 292.36 197.87 293.49 197.4 292.36 196.94 293.49"/><line class="cls-10" x1="196.94" y1="293.49" x2="196.94" y2="292.36"/><polyline class="cls-10" points="200.66 293.49 200.19 292.36 199.73 293.49 199.26 292.36 198.8 293.49"/><line class="cls-10" x1="200.66" y1="293.49" x2="200.66" y2="292.36"/><line class="cls-11" x1="197.37" y1="294.43" x2="197.38" y2="297.25"/><line class="cls-11" x1="200.01" y1="294.42" x2="200.02" y2="297.24"/><line class="cls-11" x1="197.39" y1="300.07" x2="197.4" y2="302.89"/><line class="cls-11" x1="200.03" y1="300.06" x2="200.04" y2="302.88"/><line class="cls-11" x1="197.41" y1="305.71" x2="197.43" y2="308.53"/><line class="cls-11" x1="200.05" y1="305.7" x2="200.06" y2="308.52"/><line class="cls-11" x1="197.44" y1="311.35" x2="197.45" y2="314.16"/><line class="cls-11" x1="200.07" y1="311.34" x2="200.08" y2="314.15"/><line class="cls-11" x1="197.46" y1="316.98" x2="197.47" y2="319.8"/><line class="cls-11" x1="200.09" y1="316.97" x2="200.11" y2="319.79"/><line class="cls-11" x1="197.48" y1="322.62" x2="197.49" y2="325.44"/><line class="cls-11" x1="200.12" y1="322.61" x2="200.13" y2="325.43"/><line class="cls-11" x1="197.5" y1="328.26" x2="197.51" y2="331.08"/><line class="cls-11" x1="200.14" y1="328.25" x2="200.15" y2="331.07"/><line class="cls-11" x1="197.52" y1="333.9" x2="197.53" y2="336.71"/><line class="cls-11" x1="200.16" y1="333.89" x2="200.17" y2="336.7"/><polyline class="cls-10" points="198.91 304.91 198.45 303.78 197.98 304.91 197.52 303.78 197.05 304.91"/><line class="cls-10" x1="197.05" y1="304.91" x2="197.05" y2="303.78"/><polyline class="cls-10" points="200.77 304.91 200.3 303.78 199.84 304.91 199.38 303.78 198.91 304.91"/><line class="cls-10" x1="200.77" y1="304.91" x2="200.77" y2="303.78"/><path class="cls-12" d="M196.43,248.68l.41,69.13a.46.46,0,0,1-.44.45h0a14.81,14.81,0,0,0-3.53.66,23.62,23.62,0,0,0-3.42,1.31,34.28,34.28,0,0,0-6.29,3.82,13.1,13.1,0,0,0-2.65,2.38c-.33.46-.43.89-.23,1.21a2.64,2.64,0,0,0,1.26.85,15.42,15.42,0,0,0,3.52.79c1.21.17,2.45.27,3.68.34,5,.31,9.93.09,14.94.18a3.31,3.31,0,0,1,2,.47,1.29,1.29,0,0,1,.42,1.1,3.52,3.52,0,0,1-.29,1,13.82,13.82,0,0,1-2.24,3.08,58.88,58.88,0,0,1-5.49,5.11.06.06,0,0,1-.07,0,0,0,0,0,1,0-.07,55.74,55.74,0,0,0,5.21-5.33,13.65,13.65,0,0,0,2.05-3c.23-.53.33-1.14,0-1.37a2.8,2.8,0,0,0-1.6-.27c-5,.05-10,.29-15,.08a25.76,25.76,0,0,1-7.52-1.15,3.5,3.5,0,0,1-1.75-1.27,1.79,1.79,0,0,1-.2-1.26,2.73,2.73,0,0,1,.46-1,13.74,13.74,0,0,1,2.88-2.61,34.72,34.72,0,0,1,6.48-3.92,23.53,23.53,0,0,1,3.57-1.33,14.82,14.82,0,0,1,3.81-.65l-.46.45.4-69.13a.05.05,0,0,1,0-.05S196.43,248.66,196.43,248.68Z"/></svg>